ply
format ascii 1.0
element vertex 196
property float x
property float y
property float z
property uchar red
property uchar green
property uchar blue
property float confidence
end_header
-39.8307 -33.3300 2.0962 24 220 24 0.903
-35.4436 -53.5570 2.4560 96 218 20 0.782
-36.3755 -51.5636 2.4302 100 217 20 0.771
-39.3037 -29.9983 1.9942 32 214 32 0.870
-39.6886 -34.8479 2.1196 21 222 21 0.914
-39.8838 -34.5923 2.1278 21 222 21 0.914
-39.6896 -36.2194 2.1520 32 214 32 0.870
0.0561 27.9571 1.0518 142 206 20 0.661
-39.3019 -29.3017 1.9816 43 205 43 0.826
-38.3882 -51.2745 2.5583 96 218 20 0.782
-39.4773 -41.2509 2.2750 26 218 26 0.892
-37.1495 -52.0116 2.5391 100 217 20 0.771
-22.7128 -68.2184 2.4404 113 213 20 0.738
-39.6997 -37.0840 2.1742 24 220 24 0.903
-39.6528 -37.6134 2.1844 21 222 21 0.914
-40.1028 -43.2762 2.3962 21 222 21 0.914
-39.7796 -37.9106 2.2018 16 227 16 0.936
-17.9770 -69.9100 2.3569 121 211 20 0.716
-39.4683 -40.7689 2.2593 21 222 21 0.914
-37.1992 -47.0386 2.3396 48 200 48 0.804
-30.6330 -60.3742 2.4735 138 207 20 0.672
-23.3563 -67.8534 2.4659 109 214 20 0.749
-19.6940 -72.1703 2.4668 129 209 20 0.694
-19.0885 -67.8548 2.3660 113 213 20 0.738
4.9294 21.0494 0.5099 117 212 20 0.727
-40.1340 -27.8956 2.0123 92 219 20 0.793
-12.2762 18.4034 1.0577 121 211 20 0.716
-40.0682 -28.2160 2.0135 48 200 48 0.804
-39.4717 -45.4958 2.4291 32 214 32 0.870
-17.3689 -67.2771 2.2744 125 210 20 0.705
-40.3401 -28.9853 2.0455 43 205 43 0.826
-40.6682 -32.5934 2.1398 29 216 29 0.881
-8.6264 -3.0257 0.7134 138 207 20 0.672
-40.7599 -36.7587 2.2460 29 216 29 0.881
-24.1271 -67.3081 2.4708 109 214 20 0.749
-40.9912 -36.5066 2.2571 29 216 29 0.881
-38.7416 -47.8857 2.4692 43 205 43 0.826
-40.6030 -39.6674 2.3163 18 225 18 0.925
-39.5766 -40.1069 2.2479 26 218 26 0.892
-39.3889 -45.8035 2.4347 35 211 35 0.859
-36.7842 -50.7199 2.4240 92 219 20 0.793
-39.2132 -46.4139 2.4452 38 209 38 0.848
6.9115 19.2667 0.4000 121 211 20 0.716
-9.8665 3.9781 0.8180 138 207 20 0.672
-39.8774 -36.3859 2.1700 26 218 26 0.892
-38.4024 -45.7592 2.3452 38 209 38 0.848
-39.3450 -41.3427 2.2672 24 220 24 0.903
-34.6542 -54.9140 2.4641 125 210 20 0.705
-34.2184 -55.6470 2.4701 125 210 20 0.705
-40.3602 -30.5839 2.0770 26 218 26 0.892
-31.7942 -59.0578 2.4817 133 208 20 0.683
4.7120 20.7160 0.4992 117 212 20 0.727
-40.8757 -32.7223 2.1575 29 216 29 0.881
-24.5824 -65.9455 2.4503 109 214 20 0.749
-40.7212 -38.9650 2.3047 13 229 13 0.947
-39.9849 -44.0268 2.4156 29 216 29 0.881
-39.7713 -45.3322 2.4495 32 214 32 0.870
27.1212 36.7729 1.0863 138 207 20 0.672
39.5919 26.0306 0.1373 142 206 20 0.661
-39.7890 -33.9545 2.1067 26 218 26 0.892
-38.9046 -43.7288 2.3109 24 220 24 0.903
-40.5803 -30.3990 2.0886 29 216 29 0.881
-40.8433 -33.2259 2.1663 26 218 26 0.892
-40.7836 -38.1638 2.2865 16 227 16 0.936
22.0606 28.1151 0.8369 133 208 20 0.683
-39.6549 -32.2390 2.0611 26 218 26 0.892
-38.7035 -44.7034 2.3296 29 216 29 0.881
25.5300 31.4248 0.4490 129 209 20 0.694
-25.5768 -65.1815 2.4532 121 211 20 0.716
-40.3596 -41.0043 2.3199 24 220 24 0.903
-39.7172 -37.5265 2.1869 24 220 24 0.903
-37.6058 -46.3051 2.3382 40 207 40 0.837
-40.2784 -28.6595 2.0354 48 200 48 0.804
22.1392 28.0994 0.8281 133 208 20 0.683
-0.0252 19.6332 0.8940 117 212 20 0.727
-1.2021 20.0332 0.6647 117 212 20 0.727
-39.6010 -31.5070 2.0428 24 220 24 0.903
-39.7815 -35.7319 2.1470 21 222 21 0.914
-26.8057 -64.2065 2.4665 129 209 20 0.694
-25.4487 -65.1225 2.4191 121 211 20 0.716
-19.5266 -68.7925 2.3733 105 215 20 0.760
22.8844 29.9549 0.4775 129 209 20 0.694
-40.8816 -35.5571 2.2243 24 220 24 0.903
-39.3402 -46.2400 2.4493 35 211 35 0.859
-38.9334 -47.6628 2.4763 48 200 48 0.804
-38.3233 -49.2396 2.4973 40 207 40 0.837
-37.4046 -51.5381 2.5301 96 218 20 0.782
-39.6883 -33.1416 2.0821 26 218 26 0.892
-22.4928 -68.4189 2.4491 109 214 20 0.749
-39.8255 -29.3638 2.0177 38 209 38 0.848
-40.4412 -29.6362 2.0644 38 209 38 0.848
-40.2401 -32.4361 2.1061 24 220 24 0.903
-40.6529 -31.2561 2.1107 24 220 24 0.903
-40.8888 -36.6795 2.2538 24 220 24 0.903
-40.3432 -42.6937 2.3904 24 220 24 0.903
-7.9751 -2.3748 0.7021 138 207 20 0.672
-37.0432 -51.1724 2.4770 96 218 20 0.782
-37.8690 -56.5969 2.6765 138 207 20 0.672
0.6083 -6.0896 0.6087 129 209 20 0.694
-4.4746 31.9876 1.4141 138 207 20 0.672
-12.5245 13.3969 1.0284 142 206 20 0.661
0.2255 22.4896 0.9544 117 212 20 0.727
-13.2686 21.7320 1.1121 125 210 20 0.705
30.1555 22.3926 -0.1179 138 207 20 0.672
-40.4687 -41.8515 2.3771 29 216 29 0.881
-33.6373 -56.4835 2.4715 125 210 20 0.705
-35.8659 -53.5323 2.4966 96 218 20 0.782
-0.4698 -4.8514 0.6484 129 209 20 0.694
-13.0096 21.4553 1.0674 125 210 20 0.705
-0.7491 19.4144 0.6327 117 212 20 0.727
-0.7559 19.6277 0.6382 117 212 20 0.727
1.7735 21.8339 0.6540 105 215 20 0.760
15.3368 -19.3875 0.4748 142 206 20 0.661
3.8183 20.3089 0.5304 113 213 20 0.738
-4.5848 31.1245 1.3566 138 207 20 0.672
-11.4426 19.0540 1.0221 125 210 20 0.705
30.7810 30.3883 0.2506 138 207 20 0.672
-11.0567 4.7181 0.8892 138 207 20 0.672
-1.0512 14.4169 0.9063 129 209 20 0.694
-1.5548 15.1127 0.9218 129 209 20 0.694
26.4119 32.0766 0.8802 133 208 20 0.683
-13.7212 21.0709 1.1183 125 210 20 0.705
-39.9132 -29.7246 2.0302 35 211 35 0.859
30.7301 29.0357 0.2035 138 207 20 0.672
-26.7487 18.8368 1.3763 142 206 20 0.661
-39.8411 -29.9119 2.0288 29 216 29 0.881
-40.1904 -36.2358 2.1975 26 218 26 0.892
-36.3826 -51.0982 2.4624 96 218 20 0.782
0.7490 21.4764 0.6431 113 213 20 0.738
1.4640 -6.8783 0.5876 129 209 20 0.694
17.9062 26.4928 1.0827 142 206 20 0.661
-39.5830 -40.3948 2.3071 21 222 21 0.914
3.5318 6.8491 0.8082 142 206 20 0.661
-5.9225 20.3867 0.8428 142 206 20 0.661
-0.7047 7.7593 1.0441 142 206 20 0.661
-40.3467 -42.2638 2.3837 24 220 24 0.903
31.1170 23.6954 0.2606 138 207 20 0.672
4.8210 19.7640 0.4798 121 211 20 0.716
19.5944 20.3412 0.0192 138 207 20 0.672
-38.9273 -43.1325 2.3406 18 225 18 0.925
-14.5678 16.7166 1.0959 138 207 20 0.672
-30.7435 -64.0119 2.5725 142 206 20 0.661
-40.1346 -40.1063 2.2872 18 225 18 0.925
0.2798 13.6965 0.8549 129 209 20 0.694
-17.5261 22.7908 1.2790 138 207 20 0.672
-37.2730 -46.7910 2.3734 46 202 46 0.815
-18.6313 -69.3226 2.3638 117 212 20 0.727
-38.1561 -53.2884 2.6006 100 217 20 0.771
38.3007 42.8112 0.4485 142 206 20 0.661
-40.8243 -39.5989 2.3283 18 225 18 0.925
-40.8268 -40.1779 2.3447 18 225 18 0.925
-4.0604 -4.8262 0.4234 142 206 20 0.661
-41.1052 -43.3229 2.4002 29 216 29 0.881
-18.5556 23.9179 1.3490 138 207 20 0.672
20.5782 19.7772 0.9030 138 207 20 0.672
1.0472 -6.8052 0.6335 129 209 20 0.694
-38.9186 -48.6999 2.4392 38 209 38 0.848
-21.2099 -67.7224 2.3840 109 214 20 0.749
-40.7292 -41.5244 2.3747 29 216 29 0.881
-6.9563 -17.4416 0.7309 142 206 20 0.661
27.0390 33.5020 1.0198 129 209 20 0.694
-22.3936 -67.0082 2.4071 109 214 20 0.749
54.2183 30.3734 -0.1181 142 206 20 0.661
4.9900 20.2382 0.4836 121 211 20 0.716
-0.7350 15.2468 1.0137 129 209 20 0.694
25.1680 21.9991 0.1063 142 206 20 0.661
-0.1113 6.0350 2.3092 230 156 30 0.329
-30.5711 -63.9368 2.4104 230 157 30 0.332
-22.9459 19.4578 5.2204 230 157 30 0.332
17.7569 27.3149 1.1821 230 108 30 0.179
22.6546 29.7319 1.8064 230 107 30 0.176
-16.0547 17.2107 2.0406 230 120 30 0.216
-1.2807 -10.1115 4.8030 230 148 30 0.304
10.9034 9.7475 -0.8877 230 135 30 0.265
17.3380 -19.5698 1.2584 230 125 30 0.233
-1.9150 7.1368 -0.3660 230 111 30 0.188
-6.1925 -15.1767 -2.5069 230 121 30 0.220
-25.9243 23.2152 0.0577 230 119 30 0.213
42.2246 22.3600 2.7608 230 142 30 0.284
37.5629 43.9396 1.5728 230 127 30 0.239
36.0368 42.5078 3.2007 230 154 30 0.322
35.6246 42.9797 -2.9545 230 124 30 0.231
40.8396 25.9588 -0.5051 230 133 30 0.256
15.3942 -21.0593 -0.8650 230 161 30 0.344
16.5112 -23.7656 -1.1436 230 161 30 0.343
39.1870 42.2741 0.0404 230 103 30 0.165
36.8816 24.3149 -0.2238 230 125 30 0.232
-29.3386 -62.5936 7.3774 230 110 30 0.186
-32.2684 -63.5770 5.7196 230 99 30 0.151
32.2808 37.5956 -0.6991 230 152 30 0.316
38.5464 28.3017 -9.4185 230 122 30 0.224
-13.9387 17.2382 5.0563 230 115 30 0.202
40.1294 27.0427 0.9003 230 162 30 0.347
-11.1985 12.7671 6.7314 230 163 30 0.350
-0.6442 6.9589 4.6865 230 131 30 0.251
34.5864 43.0385 1.1347 230 99 30 0.153
