ply
format ascii 1.0
comment Created by Open3D
element vertex 166
property double x
property double y
property double z
property double nx
property double ny
property double nz
property uchar red
property uchar green
property uchar blue
end_header
-39.8307 -33.33 2.09615 -0 -0 -1 7 5 8
-35.4436 -53.557 2.45604 -0 -0 -1 5 0 9
-36.3755 -51.5636 2.43019 -0 -0 -1 0 3 1
-39.3037 -29.9983 1.99423 -0 -0 -1 16 7 0
-39.6886 -34.8479 2.11958 -0 -0 -1 7 9 3
-39.8838 -34.5923 2.12782 -0 -0 -1 3 4 8
-39.6896 -36.2194 2.15198 -0 -0 -1 6 8 0
0.0561183 27.9571 1.0518 -0 -0 -1 111 112 116
-39.3019 -29.3017 1.98163 -0 -0 -1 3 1 2
-38.3882 -51.2745 2.55825 -0 -0 -1 0 0 4
-39.4773 -41.2509 2.27499 -0 -0 -1 3 4 5
-37.1495 -52.0116 2.53912 -0 -0 -1 8 9 0
-22.7128 -68.2184 2.44042 -0 -0 -1 15 1 1
-39.6997 -37.084 2.17425 -0 -0 -1 7 3 6
-39.6528 -37.6134 2.18437 -0 -0 -1 7 10 0
-40.1028 -43.2762 2.39624 -0 -0 -1 116 121 22
-39.7796 -37.9106 2.2018 -0 -0 -1 3 4 2
-17.977 -69.91 2.35687 -0 -0 -1 18 25 1
-39.4683 -40.7689 2.25925 -0 -0 -1 19 18 3
-37.1992 -47.0386 2.33955 -0 -0 -1 15 11 0
-30.633 -60.3742 2.47345 -0 -0 -1 7 8 0
-23.3563 -67.8534 2.46592 -0 -0 -1 4 3 4
-19.694 -72.1703 2.46678 -0 -0 -1 5 7 0
-19.0885 -67.8548 2.36599 -0 -0 -1 1 0 0
4.92942 21.0494 0.509868 -0 -0 -1 95 96 97
-40.134 -27.8956 2.01232 -0 -0 -1 189 195 123
-12.2762 18.4034 1.05771 -0 -0 -1 53 63 72
-40.0682 -28.216 2.0135 -0 -0 -1 6 9 0
-39.4717 -45.4958 2.42913 -0 -0 -1 11 13 6
-17.3689 -67.2771 2.27438 -0 -0 -1 18 25 1
-40.3401 -28.9853 2.04548 -0 -0 -1 9 6 0
-40.6682 -32.5934 2.13981 -0 -0 -1 6 3 0
-8.6264 -3.02567 0.713388 -0 -0 -1 54 64 74
-40.7599 -36.7587 2.24602 -0 -0 -1 6 8 0
-24.1271 -67.3081 2.47081 -0 -0 -1 3 1 1
-40.9912 -36.5066 2.25709 -0 -0 -1 5 1 2
-38.7416 -47.8857 2.4692 -0 -0 -1 3 5 0
-40.603 -39.6674 2.31626 -0 -0 -1 6 7 0
-39.5766 -40.1069 2.24786 -0 -0 -1 1 3 0
-39.3889 -45.8035 2.43468 -0 -0 -1 1 2 0
-36.7842 -50.7199 2.42401 -0 -0 -1 0 0 4
-39.2132 -46.4139 2.44519 -0 -0 -1 13 8 0
6.91152 19.2667 0.399984 -0 -0 -1 159 161 160
-9.86648 3.97812 0.817981 -0 -0 -1 53 63 72
-39.8774 -36.3859 2.16995 -0 -0 -1 4 3 2
-38.4024 -45.7592 2.3452 -0 -0 -1 1 1 13
-39.345 -41.3427 2.26719 -0 -0 -1 1 8 5
-34.6542 -54.914 2.46411 -0 -0 -1 3 2 5
-34.2184 -55.647 2.47014 -0 -0 -1 1 1 6
-40.3602 -30.5839 2.07699 -0 -0 -1 2 1 0
-31.7942 -59.0578 2.48167 -0 -0 -1 3 4 4
4.71202 20.716 0.499228 -0 -0 -1 95 96 98
-40.8757 -32.7223 2.15748 -0 -0 -1 36 34 10
-24.5824 -65.9455 2.45031 -0 -0 -1 2 1 0
-40.7212 -38.965 2.30472 -0 -0 -1 0 5 5
-39.9849 -44.0268 2.41562 -0 -0 -1 11 7 7
-39.7713 -45.3322 2.44948 -0 -0 -1 2 3 5
27.1212 36.7729 1.08632 -0 -0 -1 15 19 21
39.5919 26.0306 0.137319 -0 -0 -1 201 203 202
-39.789 -33.9545 2.10675 -0 -0 -1 1 0 1
-38.9046 -43.7288 2.31093 -0 -0 -1 11 7 6
-40.5803 -30.399 2.08859 -0 -0 -1 3 0 0
-40.8433 -33.2259 2.1663 -0 -0 -1 0 2 0
-40.7836 -38.1638 2.28647 -0 -0 -1 2 4 0
22.0606 28.1151 0.836909 -0 -0 -1 179 184 187
-39.6549 -32.239 2.06112 -0 -0 -1 0 1 5
-38.7035 -44.7034 2.32957 -0 -0 -1 0 1 2
25.53 31.4248 0.448994 -0 -0 -1 114 115 117
-25.5768 -65.1815 2.45321 -0 -0 -1 0 2 3
-40.3596 -41.0043 2.31985 -0 -0 -1 0 0 1
-39.7172 -37.5265 2.18695 -0 -0 -1 65 72 27
-37.6058 -46.3051 2.33815 -0 -0 -1 118 117 68
-40.2784 -28.6595 2.03543 -0 -0 -1 34 35 0
22.1392 28.0994 0.828065 -0 -0 -1 183 188 191
-0.0252083 19.6332 0.893995 -0 -0 -1 17 22 26
-1.20208 20.0332 0.664712 -0 -0 -1 69 71 67
-39.601 -31.507 2.04281 -0 -0 -1 88 80 54
-39.7815 -35.7319 2.14696 -0 -0 -1 28 28 0
-26.8057 -64.2065 2.46652 -0 -0 -1 157 157 91
-25.4487 -65.1225 2.41906 -0 -0 -1 0 1 2
-19.5266 -68.7925 2.37331 -0 -0 -1 141 146 62
22.8844 29.9549 0.477481 -0 -0 -1 114 115 119
-40.8816 -35.5571 2.22433 -0 -0 -1 206 206 145
-39.3402 -46.24 2.44933 -0 -0 -1 102 114 49
-38.9334 -47.6628 2.47631 -0 -0 -1 116 118 66
-38.3233 -49.2396 2.49728 -0 -0 -1 56 62 29
-37.4046 -51.5381 2.53015 -0 -0 -1 87 93 4
-39.6883 -33.1416 2.08212 -0 -0 -1 158 162 24
-22.4928 -68.4189 2.44915 -0 -0 -1 216 219 148
-39.8255 -29.3638 2.01767 -0 -0 -1 0 0 0
-40.4412 -29.6362 2.0644 -0 -0 -1 40 48 5
-40.2401 -32.4361 2.10608 -0 -0 -1 1 1 3
-40.6529 -31.2561 2.11072 -0 -0 -1 204 212 69
-40.8888 -36.6795 2.25381 -0 -0 -1 193 193 89
-40.3432 -42.6937 2.39039 -0 -0 -1 114 117 80
-7.97511 -2.37481 0.702114 -0 -0 -1 18 22 31
-37.0432 -51.1724 2.47701 -0 -0 -1 0 0 7
-37.869 -56.5969 2.67647 -0 -0 -1 78 72 31
0.608347 -6.08964 0.608723 -0 -0 -1 58 66 77
-4.47465 31.9876 1.41406 -0 -0 -1 162 169 168
-12.5245 13.3969 1.02843 -0 -0 -1 16 23 29
0.225493 22.4896 0.954446 -0 -0 -1 115 117 120
-13.2686 21.732 1.1121 -0 -0 -1 17 22 28
30.1555 22.3926 -0.117907 -0 -0 -1 55 57 56
-40.4687 -41.8515 2.37706 -0 -0 -1 20 2 0
-33.6373 -56.4835 2.4715 -0 -0 -1 45 48 23
-35.8659 -53.5323 2.49664 -0 -0 -1 0 0 7
-0.469789 -4.85139 0.648436 -0 -0 -1 17 21 29
-13.0096 21.4553 1.06738 -0 -0 -1 161 164 163
-0.749099 19.4144 0.632669 -0 -0 -1 72 74 71
-0.755902 19.6277 0.638173 -0 -0 -1 72 74 71
1.77346 21.8339 0.653984 -0 -0 -1 71 73 68
15.3368 -19.3875 0.474777 -0 -0 -1 16 23 31
3.81826 20.3089 0.530381 -0 -0 -1 162 164 162
-4.58477 31.1245 1.35658 -0 -0 -1 161 165 159
-11.4426 19.054 1.02206 -0 -0 -1 161 165 164
30.781 30.3883 0.250607 -0 -0 -1 93 94 98
-11.0567 4.7181 0.889241 -0 -0 -1 54 64 74
-1.05115 14.4169 0.906269 -0 -0 -1 53 61 72
-1.55478 15.1127 0.921823 -0 -0 -1 53 62 71
26.4119 32.0766 0.880194 -0 -0 -1 174 178 177
-13.7212 21.0709 1.11827 -0 -0 -1 18 23 29
-39.9132 -29.7246 2.03018 -0 -0 -1 0 2 1
30.7301 29.0357 0.203468 -0 -0 -1 93 94 98
-26.7487 18.8368 1.37626 -0 -0 -1 99 100 104
-39.8411 -29.9119 2.02884 -0 -0 -1 0 0 1
-40.1904 -36.2358 2.1975 -0 -0 -1 0 1 2
-36.3826 -51.0982 2.46236 -0 -0 -1 0 1 5
0.749008 21.4764 0.643122 -0 -0 -1 72 74 71
1.46403 -6.87827 0.58763 -0 -0 -1 57 65 76
17.9062 26.4928 1.08267 -0 -0 -1 18 22 31
-39.583 -40.3948 2.30706 -0 -0 -1 1 1 6
3.53182 6.84905 0.808226 -0 -0 -1 44 54 63
-5.92254 20.3867 0.84283 -0 -0 -1 163 165 164
-0.704655 7.75926 1.04415 -0 -0 -1 42 55 63
-40.3467 -42.2638 2.38368 -0 -0 -1 105 119 25
31.117 23.6954 0.260642 -0 -0 -1 176 178 177
4.82103 19.764 0.479784 -0 -0 -1 156 157 161
19.5944 20.3412 0.019218 -0 -0 -1 171 173 172
-38.9273 -43.1325 2.34061 -0 -0 -1 1 1 2
-14.5678 16.7166 1.09593 -0 -0 -1 18 22 31
-30.7435 -64.0119 2.57251 -0 -0 -1 170 170 79
-40.1346 -40.1063 2.28721 -0 -0 -1 0 1 0
0.2798 13.6965 0.854908 -0 -0 -1 17 21 30
-17.5261 22.7908 1.27902 -0 -0 -1 108 109 113
-37.273 -46.791 2.37337 -0 -0 -1 0 1 1
-18.6313 -69.3226 2.36379 -0 -0 -1 3 6 0
-38.1561 -53.2884 2.60059 -0 -0 -1 7 7 0
38.3007 42.8112 0.44846 -0 -0 -1 177 179 178
-40.8243 -39.5989 2.32835 -0 -0 -1 6 6 7
-40.8268 -40.1779 2.34475 -0 -0 -1 7 3 6
-4.06043 -4.82622 0.423352 -0 -0 -1 0 0 0
-41.1052 -43.3229 2.40022 -0 -0 -1 2 0 5
-18.5556 23.9179 1.34903 -0 -0 -1 108 109 113
20.5782 19.7772 0.903031 -0 -0 -1 18 22 31
1.04719 -6.80523 0.633474 -0 -0 -1 0 0 0
-38.9186 -48.6999 2.43917 -0 -0 -1 5 1 1
-21.2099 -67.7224 2.38402 -0 -0 -1 11 5 0
-40.7292 -41.5244 2.3747 -0 -0 -1 7 1 2
-6.95635 -17.4416 0.730862 -0 -0 -1 7 5 3
27.039 33.502 1.01984 -0 -0 -1 53 62 71
-22.3936 -67.0082 2.40708 -0 -0 -1 58 57 0
54.2183 30.3734 -0.118093 -0 -0 -1 0 0 0
4.98999 20.2382 0.483631 -0 -0 -1 95 96 100
-0.734957 15.2468 1.01369 -0 -0 -1 18 22 31
25.168 21.9991 0.106327 -0 -0 -1 93 94 98
