ply
format ascii 1.0
element vertex 1200
property float x
property float y
property float z
property uchar red
property uchar green
property uchar blue
end_header
-1.2546 4.5071 0.4237 195 131 156
0.9866 -3.4398 1.7126 158 235 183
-4.4192 3.6618 0.5558 114 118 201
2.0807 -4.7942 0.8359 180 105 134
3.3244 -2.8766 0.6561 195 213 208
-3.1660 -1.9576 0.5485 224 171 148
-0.6805 -2.0877 2.4771 228 110 151
-3.6051 -2.0786 0.8571 215 161 184
-0.4393 2.8518 2.7814 189 208 239
0.1423 0.9241 2.9098 238 196 130
1.0754 -3.2948 1.7138 203 119 164
4.4889 4.6563 0.4290 125 100 144
-1.9539 -4.0233 1.1236 164 228 221
-0.5985 -3.7796 2.3932 156 163 120
-4.6561 4.0932 1.1022 117 115 135
1.6252 -1.8829 0.2611 133 155 143
0.4671 -3.1515 1.6704 222 227 212
2.7513 4.3950 2.5354 160 100 153
0.9790 4.2187 2.3878 136 223 198
-3.0402 -4.5477 0.5254 103 125 190
-1.1132 -2.2865 2.0183 188 154 179
-1.4325 -2.1907 0.6615 111 104 231
-3.5908 3.0220 0.6546 159 129 164
4.8689 2.7224 2.6222 148 199 131
-4.9448 3.1546 0.7490 173 178 228
2.2901 2.7127 0.7897 220 116 225
-1.4153 -3.8413 0.0020 103 220 146
1.2330 -1.6910 2.6120 122 230 196
-1.8902 -1.7482 2.3778 234 177 121
1.3756 3.8721 1.8820 115 100 151
-3.8041 2.1324 2.2508 129 170 177
0.6128 2.7097 0.4561 172 207 108
0.2273 -0.7246 1.3750 228 178 173
-3.9211 -4.6857 1.0537 145 234 196
-1.8564 0.0857 0.2813 135 200 184
-2.5071 -0.8962 1.4584 141 177 203
-2.7120 -4.2302 2.7622 239 115 152
-3.3878 4.2970 0.1202 109 214 170
1.3340 3.7146 0.8744 140 195 238
-3.1343 3.9256 0.6226 101 228 212
3.0744 3.9609 0.7144 109 142 149
-3.8995 -2.7206 2.7253 224 196 212
3.1801 3.6073 1.4042 179 180 223
0.1075 -0.8259 1.3989 214 157 228
-3.8013 -1.6238 2.2817 239 142 211
-1.7680 0.1879 0.4635 169 235 120
-1.3637 4.7178 1.4618 131 177 204
-2.4822 -0.0275 1.2900 168 205 183
-2.1516 -4.6311 1.7907 165 228 132
0.0268 -4.4852 2.9987 139 167 130
4.0827 -2.6044 2.3083 141 111 157
-0.1055 4.8565 1.1936 202 198 122
1.7214 2.6162 2.4827 220 110 196
2.2822 -1.3222 0.5121 233 167 215
1.3353 0.3577 0.0914 156 144 156
3.3530 -1.7922 0.6133 205 196 144
-4.5922 0.9089 1.0212 147 122 121
-4.8341 0.1209 1.5317 149 110 122
1.4517 -3.2563 1.8454 204 121 136
-1.1326 4.3673 2.7318 170 153 234
-1.5893 -3.8653 1.5296 213 178 166
3.7734 -2.4206 1.5038 143 168 133
3.1722 0.5520 0.1507 126 156 125
-2.5815 -4.0690 0.1047 127 150 190
4.0042 1.3310 1.6535 196 121 108
-1.5079 2.2596 1.3145 111 135 124
3.8709 2.7988 2.5175 208 142 145
-4.1586 -3.3837 0.4820 154 198 189
1.0643 -4.9080 0.0749 198 204 200
1.6350 -4.9494 1.3471 129 168 160
0.4873 1.9190 0.7124 137 136 229
-2.7573 2.1218 0.1488 228 154 217
-1.7460 2.4649 2.1738 221 155 167
3.4922 1.5761 0.3348 196 127 179
-4.0633 -1.3228 1.8250 121 230 186
-2.5601 4.7301 0.8431 151 137 135
3.9205 1.3114 0.5205 218 197 178
0.0264 0.7690 1.1393 177 222 177
-3.0476 2.2245 2.4043 217 204 222
-4.7568 1.4547 1.1763 112 187 134
4.4046 4.5393 2.2523 178 166 186
-1.2984 -4.8454 0.3765 139 149 237
-0.7182 4.6665 2.3183 129 133 197
3.5301 -2.0555 0.7108 137 196 169
3.5114 -1.8308 2.0322 215 136 235
0.5680 4.3615 1.6973 170 190 102
0.7006 -4.0282 2.7874 142 149 157
4.9005 -3.5992 1.1620 212 131 204
3.7737 2.4077 0.1985 128 130 181
2.0248 -1.4051 0.0575 181 142 112
3.0936 3.1011 2.4806 234 203 117
4.1324 0.1134 1.5742 204 100 100
2.9830 1.4996 2.3257 185 160 178
2.9579 3.9001 0.7033 113 178 180
-1.2442 -4.0602 1.0353 168 105 238
-4.6406 -0.3440 0.0903 134 202 112
-2.1346 0.9083 2.8845 132 191 109
-4.6265 3.2260 2.0036 229 170 238
-3.7294 0.2224 2.7996 104 138 189
-2.8418 1.2289 0.7965 138 116 185
-4.4832 0.3135 1.8344 218 223 175
1.3743 2.2609 2.0355 225 197 127
0.1630 -1.7704 0.9526 161 192 133
-2.2917 -0.6103 2.5443 196 144 114
-4.7465 4.6265 2.8415 209 173 140
1.9597 -0.9105 2.6546 190 150 214
-3.4356 -2.4976 2.2172 160 179 199
2.1460 1.6020 0.8324 122 176 150
4.5487 2.3790 0.8448 155 224 155
1.1172 -0.8040 2.8901 162 155 137
-1.4403 2.5785 0.0309 140 174 150
-3.8393 -4.5400 2.1481 131 188 234
3.5546 2.0366 2.1187 114 192 161
-4.0217 -0.0838 1.8681 150 198 230
-3.2680 -0.6615 2.9703 127 165 213
1.1585 1.3509 0.9356 122 163 152
-1.2539 1.2586 1.0199 163 214 149
3.5649 1.5869 0.2368 113 119 220
-4.2943 1.4242 1.3284 220 181 110
0.8578 4.4023 0.7831 220 229 130
-1.1183 1.4329 1.0302 146 226 182
0.4562 4.4146 2.5037 196 135 131
4.6119 4.0535 2.8065 128 213 188
-4.3064 -3.9922 0.5572 209 232 128
-4.0556 1.8301 1.1175 157 112 204
-1.8102 3.4488 2.7859 205 114 161
3.1447 -2.1815 0.1854 187 188 178
1.9674 1.2894 0.2771 108 151 128
2.3507 3.0348 0.4884 118 205 121
-3.2256 2.5061 1.7856 163 225 106
4.9051 -0.8738 0.4514 228 118 202
2.7641 -1.5920 2.9042 103 180 126
3.5841 -0.7101 1.3401 237 173 108
2.5454 -3.9688 1.5046 169 114 124
0.0525 3.2646 0.7400 206 200 128
3.9552 -1.1080 1.4129 166 192 181
4.0538 -4.0871 1.9857 161 216 176
4.5006 4.5061 2.2535 174 122 105
1.3184 -0.5155 2.2616 199 140 116
-1.7134 1.7252 1.7337 151 120 187
2.9158 2.8962 2.7131 165 239 225
-0.0558 -4.4244 2.4522 137 209 101
-0.5847 3.8770 2.2711 153 219 160
-3.8293 -3.5701 0.1668 172 176 196
1.1822 -3.9888 0.0206 165 239 222
2.0097 -4.2724 0.6373 122 118 174
2.0624 -4.1865 1.9906 159 143 156
4.8664 -1.2573 1.2336 119 183 229
3.1280 4.4725 1.2072 176 101 195
2.5338 -1.2374 2.6538 201 220 167
2.7715 0.5840 2.6867 223 203 162
4.0635 -3.8880 2.7275 161 137 131
-4.8865 -0.3134 0.9416 236 114 178
-3.8118 -3.8247 2.0732 167 175 187
2.4604 0.8337 0.8149 180 161 118
-1.2513 -2.1429 0.5718 116 217 238
-2.7640 4.6322 0.5539 128 216 200
4.6988 -4.5684 1.0263 141 149 191
0.2770 4.9296 1.2899 106 211 164
0.5385 4.6930 2.4928 193 200 152
1.2940 1.9575 0.3597 175 170 184
1.2756 0.8431 2.2048 105 227 161
-4.5455 -2.1904 1.5944 110 239 213
3.9026 -0.4434 0.8638 150 209 167
-2.2262 -3.1188 1.4785 173 172 228
-1.4665 0.8366 0.8998 173 198 120
4.7439 4.8621 1.7882 208 236 205
0.3610 -1.9047 1.3015 117 237 109
1.8473 -3.3738 0.4932 150 141 154
3.2254 4.4980 0.3497 101 142 144
1.1342 -0.8176 1.6401 177 200 108
3.6606 -4.5478 2.7072 144 230 212
-1.2354 3.1055 1.0319 181 152 183
-3.4958 0.9413 2.1990 116 106 234
4.6991 3.4212 1.9760 151 172 164
-0.3131 -0.8518 2.7947 195 113 231
-4.4362 3.6472 2.4629 228 206 129
4.9972 4.9664 1.6998 134 186 231
2.6899 4.4477 1.9711 220 100 181
-2.5265 -0.4946 2.6952 193 231 228
4.5405 1.0617 1.1986 219 171 219
1.7170 1.1813 0.9804 131 146 118
-3.8644 1.7157 0.0324 155 206 188
2.7232 0.2016 2.4797 230 207 226
0.5191 0.6094 2.4029 113 108 112
-0.9652 -3.6598 0.3134 144 201 180
2.5514 1.2031 1.7306 178 165 228
-2.8704 -3.6363 1.3919 227 114 112
-1.4941 0.8992 0.3561 219 213 155
-0.6253 4.0416 2.9417 167 127 158
0.1399 2.8365 0.6441 204 200 118
1.2209 3.6236 0.2017 212 189 176
-3.5293 4.2659 1.7845 122 155 181
-2.4176 -0.4086 2.2166 125 158 224
-0.0738 -1.7125 0.0973 150 224 208
-2.5985 -4.2414 1.9762 100 100 187
-3.7195 -3.4810 1.5969 130 102 167
1.4087 -3.1812 0.3098 191 148 140
3.9679 -0.2604 0.5176 161 181 213
-3.2768 -3.0771 1.7039 182 170 150
-3.3106 -2.2141 0.8891 225 230 148
-4.1130 -3.7936 2.8149 105 190 141
-2.9367 -1.3573 2.4562 143 118 103
1.9039 -4.6069 2.9507 116 117 219
1.2790 -4.1824 0.7790 176 129 175
4.2087 -4.3892 2.9092 176 210 179
3.0620 2.4826 1.2937 162 207 231
-2.9065 -1.2953 1.0426 187 230 206
1.1825 -1.3109 0.1510 106 211 148
2.4747 -4.6332 0.1583 192 154 214
2.1335 3.9521 2.0760 153 198 159
0.3211 -3.9283 1.3738 198 177 192
0.3262 -2.5753 0.6796 178 191 151
-1.2272 -4.7993 1.8419 185 163 199
-2.8855 -1.7250 0.7586 216 217 178
3.9053 0.9359 1.7329 106 238 145
2.8917 -0.0156 1.0776 136 186 145
0.3711 0.8684 2.4707 173 199 206
-0.6834 -3.7242 2.4621 239 126 213
-1.3692 1.4592 1.4321 231 110 232
-1.4390 4.8652 1.0525 184 153 161
-2.6277 -3.9822 1.0877 155 134 201
-2.5404 -3.3932 2.4171 228 136 142
-2.1490 -3.2663 0.9845 214 148 131
-4.1977 0.2451 0.6272 113 124 162
4.8238 -3.8796 0.2541 132 105 109
4.6947 3.6551 1.4001 193 202 217
-2.4210 -3.2911 1.4464 216 100 116
4.2938 0.5676 2.5227 173 223 100
-2.2002 2.6949 0.6637 149 199 141
-1.7632 -0.7456 1.1430 174 215 128
-2.5759 -3.8516 2.4252 191 112 117
-2.1137 0.8124 2.4709 218 191 151
-0.1886 0.3259 1.1538 199 191 233
-1.6340 -3.6559 1.3774 144 232 226
4.8996 -1.7765 0.9099 222 179 153
-2.4536 1.8150 2.7977 147 170 208
0.9564 -0.2842 0.3559 201 177 124
-1.5113 4.2953 2.8012 156 142 239
4.6503 -3.7570 2.0516 174 128 189
4.3834 -3.1877 1.5947 161 152 177
2.4112 0.7447 0.0980 174 120 224
-3.6023 2.9527 1.4268 125 220 106
-3.3634 -3.3573 1.2232 144 239 223
1.6520 0.2307 0.4837 166 203 197
3.7720 -1.0755 1.9692 162 177 155
-0.6087 -1.2306 2.9135 111 143 127
-1.9862 2.4761 1.6866 121 167 100
-2.6779 3.9957 2.1443 107 236 210
0.4355 4.0647 0.2054 118 181 201
-3.8310 4.3983 1.2530 106 101 234
-1.6509 -3.6073 0.3491 186 209 207
1.2007 0.3346 1.8384 159 129 145
2.8860 -3.4833 2.8154 221 148 122
-2.5151 2.4395 1.9853 176 239 200
0.6989 2.6246 0.2304 182 176 143
-1.5792 3.2126 1.0640 205 234 187
3.4645 -3.7251 1.6520 131 237 112
2.9730 -3.5008 1.2096 159 116 177
2.2225 2.2004 2.5009 178 172 202
1.9395 0.4272 2.4440 164 225 239
-1.5430 -3.1840 1.8355 164 197 192
0.8339 -0.9915 1.1204 214 125 205
4.4728 -3.4665 0.7660 131 230 127
0.0589 1.1145 0.3176 152 147 227
3.7212 4.3212 1.0647 209 161 100
1.9665 4.2250 1.2395 113 165 170
-3.4746 0.7629 2.0275 113 110 206
-0.7587 2.3644 1.9745 105 169 147
4.2557 -0.4916 0.2103 186 188 191
4.8484 3.3890 1.1858 178 110 162
4.2084 3.6990 0.5453 206 185 122
0.9128 -1.0100 0.4704 180 163 199
-1.6480 3.0285 2.4819 160 147 125
-1.6650 -1.0183 0.1257 208 135 223
4.1986 -1.5365 1.2575 121 229 183
2.3750 -0.4778 0.5046 222 152 139
-0.4756 -3.5914 2.6380 119 105 198
-0.0163 -0.8107 1.6711 201 145 179
-1.3761 0.8059 0.6941 230 119 216
-4.8691 1.6354 1.5073 111 226 111
4.6107 -3.5134 2.1945 161 151 139
-4.1465 4.9687 2.8744 207 165 129
0.9539 -4.3292 0.6613 114 201 105
-2.9009 3.9805 2.6585 199 226 177
-3.0931 -4.6345 2.8029 132 121 207
0.6484 -4.3429 2.7493 115 111 182
-0.4671 0.2439 1.9062 153 179 217
-0.9924 0.5964 1.8895 187 143 146
-3.1807 3.6179 1.2096 101 196 103
-1.2669 -2.2926 2.2572 232 233 184
-0.9127 -4.7461 1.5939 233 117 107
2.1597 1.5892 2.0323 176 227 199
-2.7803 -2.6893 1.2854 145 121 130
-4.8029 -3.9589 2.1945 117 112 127
-3.2146 1.5275 2.4734 111 230 183
-4.0056 -2.5683 0.4393 180 222 155
3.5570 3.3022 2.4988 218 216 161
1.6809 -2.9502 1.6209 205 183 150
3.9634 -4.8700 2.5340 176 200 121
-2.9211 -4.7347 1.2939 149 170 120
0.8304 -0.7858 1.1371 151 221 117
3.1744 -1.5818 2.7452 153 147 118
-1.2031 0.9029 0.7535 223 105 235
1.2415 -0.9059 2.5326 110 187 183
-0.6387 -2.0553 1.4521 236 152 192
2.6361 -3.5989 1.5423 152 206 122
-0.1257 3.9455 0.9254 200 189 121
-0.7479 -4.7753 1.7191 147 167 234
0.4163 1.3348 0.9756 140 191 168
-3.6064 3.3493 0.1178 145 110 239
0.2569 -3.2832 0.8160 146 144 170
-4.8161 4.1430 0.0191 148 143 210
0.7652 -2.2594 2.9351 230 233 221
1.5142 3.2974 2.8972 149 194 142
-4.8900 -3.6311 1.1855 168 203 122
3.7389 0.9741 2.1851 102 202 136
1.6504 -3.2463 1.0374 112 237 108
-0.8123 -1.1686 2.0133 225 130 114
-4.5303 -3.3372 2.4163 230 135 192
-4.1720 1.0315 2.8403 176 150 187
-1.1070 -2.1131 1.2006 186 173 116
2.1905 -2.0288 2.3499 152 154 232
-0.2395 1.6367 0.7978 110 171 225
2.3257 -2.8506 2.9710 104 215 182
-2.3774 0.9508 0.0773 220 138 110
-0.0363 0.9684 1.8106 209 175 181
2.7091 -3.9340 1.9785 179 171 205
2.2819 -0.0451 2.0641 234 224 175
-0.6517 -2.5360 0.3612 130 134 134
2.9942 1.9470 2.8156 218 211 218
0.9023 -1.3903 0.5435 203 178 113
4.1731 -3.6318 1.8683 193 167 113
-0.5399 -3.1487 0.6680 216 132 109
3.7295 2.3222 0.9216 157 239 178
1.5878 1.9228 1.6394 131 137 195
-2.5033 -0.1058 1.2516 149 207 101
4.8767 4.4406 0.4807 116 235 218
2.0558 4.2525 0.5128 140 123 171
0.6795 4.1549 1.2544 166 133 163
1.9742 -2.0265 2.2718 236 112 234
4.7106 4.4427 2.6939 113 109 126
3.6204 3.4455 0.2524 187 221 107
3.2892 -4.6299 1.1793 125 113 131
-2.6999 -3.7943 0.3007 199 230 177
1.9629 -1.6013 0.0498 146 214 103
-4.3464 -1.8471 1.9852 180 236 100
2.9072 -1.8125 1.8073 179 218 223
3.8598 1.1586 0.4891 111 225 202
-4.7560 3.7010 0.7014 114 103 144
3.7470 0.2894 0.0711 142 197 125
2.9878 4.9793 2.5048 205 220 154
2.6719 -0.9807 2.9241 197 184 120
1.2751 3.7368 0.4064 155 212 100
2.6827 -0.8223 0.6944 220 231 112
2.3758 -2.6122 2.6052 170 181 142
-1.4538 -2.1276 2.7794 108 170 118
-2.6639 -4.5791 1.2589 228 131 229
4.8772 -0.7223 0.1519 147 111 112
1.7965 -2.8175 0.1182 121 131 180
2.8635 -4.1059 1.7218 184 132 173
3.7912 4.4473 1.1787 133 197 222
1.1341 -3.3297 0.0860 105 231 112
-2.6833 4.4273 1.7498 147 235 213
1.0774 0.1269 0.0339 140 149 224
-3.2347 -2.7951 2.3621 118 117 184
2.7958 -1.4987 0.9193 150 110 224
4.6910 3.8379 0.1208 186 106 226
4.9491 -3.2610 1.7651 207 159 239
2.5824 1.9602 1.1931 163 172 198
3.1583 -2.7556 2.9214 225 101 216
0.3697 0.9294 1.6326 207 204 107
-4.0851 3.7746 0.8257 110 186 235
-3.7049 3.8875 2.1283 162 171 238
3.6213 3.0952 0.8145 106 185 223
0.5086 -4.1301 2.7127 142 134 152
-1.2731 -2.4025 1.1242 232 102 195
-0.0412 -4.1895 1.6496 109 106 150
1.8326 -4.2387 0.1517 213 142 131
-0.0485 -0.1941 1.2784 211 136 165
3.2468 -1.5219 2.4971 107 120 147
0.6573 -2.3297 2.4169 135 191 164
2.9743 1.5845 0.6730 189 121 205
3.6729 2.0836 0.6782 198 211 140
1.9747 1.8014 2.4519 229 113 234
2.5272 -3.4139 2.7912 134 153 114
3.7184 -4.7075 0.2861 212 191 170
-3.7113 -1.6488 1.3502 185 135 128
-3.3924 3.1797 1.0124 178 172 108
0.0747 -4.9361 2.6121 135 149 137
1.1693 4.8119 0.2506 188 133 117
-2.4020 1.3401 0.6334 206 119 144
2.7985 -3.9302 2.2574 220 150 186
0.4127 4.6299 0.1539 127 173 199
1.3262 4.3203 1.4776 234 212 228
4.3723 1.8789 1.3263 236 223 173
-1.9904 2.0817 1.0032 228 152 183
0.8217 -1.5412 1.1837 233 137 185
-4.5426 3.7154 1.5898 131 104 202
4.6888 2.4965 0.4841 109 130 143
2.5826 -4.7541 1.7160 218 238 221
-1.7639 -0.1136 2.4163 185 148 180
1.8330 -0.5410 2.2805 143 174 125
4.9712 -0.7382 0.4617 186 173 142
-3.3638 2.9481 0.4477 218 161 222
-2.7923 -4.1762 0.8045 110 221 118
1.5451 -2.2674 1.0832 103 233 112
-3.4894 -0.6767 1.2254 170 233 150
-0.8027 1.3853 2.0391 132 137 139
-2.2578 4.8398 0.1700 116 135 142
3.9410 -2.7005 0.1040 224 150 125
-4.6887 1.5167 1.1757 183 109 121
3.6436 -0.2679 2.0915 219 157 158
-3.1447 3.6862 0.5803 131 187 186
2.7092 3.4478 1.9245 184 232 169
1.2622 -3.6876 0.7795 164 145 184
4.2085 1.1665 2.6583 179 159 156
-0.1848 -3.8269 2.6871 106 172 225
1.8557 -0.6969 0.8919 217 160 138
-0.0841 -4.3579 0.6900 135 217 235
-2.3101 2.9756 1.2339 223 132 221
-0.4478 -4.8838 0.7216 209 117 214
-1.0751 -0.2006 2.0172 195 144 119
-2.0834 1.9498 2.4782 110 110 156
2.7985 -4.6038 2.0193 183 145 127
-3.9507 -2.5795 2.4731 102 216 195
-3.5750 -0.0111 1.1910 200 225 147
2.0246 0.5965 0.4690 200 161 141
-1.7354 0.1771 2.2139 162 129 126
-1.4937 -4.6680 1.0814 149 173 194
-1.0308 -3.6728 2.0138 165 209 165
1.8946 3.0059 0.8119 229 167 155
-3.3252 -3.9543 0.2437 196 131 115
2.0648 -4.6841 2.9777 146 125 124
-4.4803 0.4130 0.4686 196 192 219
3.7097 2.1409 2.9653 174 232 130
-1.6055 3.1483 2.9318 122 175 230
3.9482 0.4759 2.3815 185 109 156
-0.4768 1.4358 1.9783 202 228 113
2.3159 -4.1837 1.7334 208 225 239
-2.5290 -3.4046 2.5983 186 104 198
-2.8079 4.7587 0.8683 213 151 130
-3.1788 2.8970 1.4030 130 187 121
-0.0180 0.5536 1.8582 163 110 111
-2.7155 4.9633 1.2336 133 142 152
1.5033 -3.0046 1.2825 126 212 132
-4.2780 -4.6935 0.9909 213 115 101
-0.3738 3.6827 1.6927 189 158 164
2.4271 -0.7451 2.5517 117 150 145
-1.2896 4.8765 0.6046 167 222 125
3.6703 0.7868 2.8033 191 207 200
2.2526 -0.1333 2.0673 192 156 110
4.0070 -0.7828 2.4698 183 134 214
0.9235 4.1236 1.6686 181 193 213
1.2297 1.3156 2.3386 215 191 188
-3.6843 2.1582 0.0486 138 194 209
-3.2032 -2.6246 2.4551 125 185 189
-3.1902 3.5439 0.1204 187 180 171
-2.5277 3.7075 2.6697 126 102 224
0.1482 -1.4077 2.9759 175 127 129
-3.3648 -1.0892 0.8822 230 226 193
-2.4187 1.5674 0.6310 152 165 158
2.7347 -3.6913 2.2961 159 237 223
-0.4621 -2.6395 0.7591 220 125 186
-3.3024 0.1977 2.5967 197 224 203
3.2888 -0.6911 0.3085 163 170 238
1.1714 2.0678 0.3779 193 189 186
-3.3238 -4.6333 2.9375 160 176 217
1.6380 -0.2537 2.0215 165 232 231
3.0567 0.8535 2.5407 112 172 139
-2.9416 -3.8808 0.9730 207 188 203
-4.4291 0.3117 2.0295 232 167 163
-4.6066 -3.7789 1.7827 103 173 141
4.3388 -1.8384 1.8095 208 134 143
-4.5843 -3.5166 2.0476 222 203 214
4.6512 -4.9506 1.7261 216 193 183
1.3912 3.6792 1.2872 164 174 118
0.1560 -0.1115 0.8278 225 201 223
-3.6035 -4.7003 2.3057 135 151 122
2.0468 -2.9815 0.6788 167 153 143
4.6991 -4.0610 2.0771 172 186 217
-0.5625 3.6814 0.7000 143 164 111
1.9263 3.3812 1.8760 207 181 239
1.8325 -0.0283 2.2412 223 124 123
3.6890 0.7061 0.6561 183 133 230
4.3095 1.8953 0.1798 176 207 152
-2.8432 1.5889 0.3929 200 114 151
1.5123 -3.9341 1.8180 101 129 235
4.9941 -4.5179 2.5483 235 182 224
-0.9309 3.7075 0.1350 117 218 102
0.6702 2.3845 2.2025 144 156 180
-0.9586 -1.7297 1.0240 211 220 129
3.0785 2.6229 1.4356 104 164 145
-0.6442 3.1783 2.7866 135 142 185
0.4449 -4.9424 0.9959 239 208 190
-1.3354 -1.0383 1.3960 116 112 160
-1.1144 -0.5131 0.0410 163 182 201
-1.2675 -2.7273 0.2448 164 181 128
1.0345 1.6821 0.7758 187 102 202
-0.3651 -1.2021 0.0836 156 189 131
0.1908 -0.2082 1.8941 203 110 231
-1.5875 -1.1980 1.2792 222 140 152
0.8017 0.3360 1.6444 126 136 231
2.6488 3.1299 0.5239 112 216 175
4.5552 -4.8177 0.8878 114 226 125
-4.9244 1.4747 1.9915 229 207 126
-2.5652 4.2703 2.8959 104 207 181
4.3444 -1.4838 0.1513 118 181 190
-0.1413 -2.4322 2.6712 203 236 176
-1.9271 3.0303 1.7306 142 230 196
-1.8869 1.1033 1.6918 184 143 208
-2.2738 -0.8645 1.5008 143 101 153
-3.1885 1.8112 0.2082 204 120 226
0.2516 2.0905 0.2696 222 102 234
0.6731 -2.4344 1.8027 123 200 125
-0.1645 3.0599 1.0229 187 194 152
-4.5659 1.3315 2.7518 238 188 115
1.0161 3.1919 1.2198 124 173 132
-2.7192 -2.8796 0.4298 103 109 105
-0.8897 3.3986 2.1442 184 147 172
-1.4658 -2.6313 0.8801 197 182 131
-2.2519 3.2261 1.5764 110 204 114
1.6755 -4.0446 2.0935 128 141 111
-0.4823 0.8661 2.7008 161 137 237
2.3687 3.6280 2.3766 104 122 116
-4.0429 -4.7636 2.0291 135 149 173
1.0709 0.4670 2.0389 145 153 151
-1.0909 0.9448 2.8378 131 176 111
4.8779 -3.6356 0.8875 184 232 169
-0.9568 -0.7180 0.0033 122 133 209
1.9244 4.9126 0.8159 221 180 171
-3.9589 2.2434 0.6537 179 102 180
-2.2584 -4.2058 1.9855 205 151 166
3.9419 -3.0813 1.9011 221 226 106
-2.7334 -1.4500 1.7804 107 217 139
0.1906 -4.3239 0.0487 101 203 213
-2.6629 0.4001 2.1863 140 198 145
1.5088 0.3296 0.9706 174 176 132
-1.6700 1.6949 1.9952 112 177 184
1.6184 0.5778 1.6697 131 129 147
-0.3479 -4.3986 1.0282 139 184 224
4.5763 -3.2470 0.4037 195 164 206
-2.9907 0.3583 0.2833 198 221 231
-0.4963 2.5616 2.4946 215 231 153
1.6491 2.9545 2.7552 110 188 157
-2.6536 -1.0068 1.9494 207 131 125
4.9248 4.2700 0.3103 181 183 110
3.4203 0.2096 1.2061 227 183 184
-4.1088 2.5527 2.1868 187 169 215
3.2607 2.8203 2.3395 189 219 164
-4.6384 -1.9687 0.3547 137 167 193
-1.3986 -4.1236 0.0001 213 180 118
0.5380 -1.9448 2.1364 203 235 153
-0.5280 1.0059 1.0698 152 194 133
4.1939 -0.0304 0.7634 222 238 126
3.5142 -2.9149 0.0387 152 231 232
-3.8363 3.1745 1.6209 187 148 193
3.7797 3.6806 2.5535 167 208 203
2.9003 -1.9532 2.8729 118 179 125
-0.9702 -3.2648 1.6972 222 152 196
-1.5390 4.7561 1.5434 105 205 151
3.2248 -3.6748 0.2552 198 181 225
4.2276 -0.1294 1.6466 108 143 157
2.6481 -3.2516 1.1399 163 102 239
-1.0134 -3.5363 1.8214 133 214 189
-4.3183 -4.7419 1.1662 218 197 200
4.6312 0.4953 0.7209 181 116 196
-0.6750 -1.8818 0.2849 167 177 103
-0.6049 -3.9434 0.9448 196 109 202
-2.8396 1.1959 0.2899 150 122 108
-3.4798 -4.3865 0.5307 195 229 111
-0.4020 -4.4184 2.9620 142 237 168
-4.4222 1.9504 1.3323 115 145 203
-2.6082 -3.5775 1.5956 207 174 214
-1.9672 -3.9895 2.6209 146 182 199
-4.3771 0.0942 2.9867 127 117 106
3.1397 1.1522 1.7481 155 209 194
1.2390 0.2704 2.4374 198 164 130
-3.6929 3.8660 0.9808 157 134 205
-3.0538 -1.3224 0.9172 126 209 103
3.2754 2.3361 1.2081 218 147 176
-4.8897 -0.8385 2.0175 171 193 202
-4.8081 -2.4019 2.0466 222 213 205
-3.6289 0.3531 0.9457 174 208 169
-4.8788 -2.5880 0.3996 224 211 154
3.0154 4.5958 1.8972 157 136 177
-3.9026 0.4796 0.3850 110 108 193
3.4436 -4.0192 1.7355 174 128 203
-3.4995 -1.7532 2.0803 125 141 144
-0.2398 -1.2411 2.1018 209 167 239
-0.4055 2.8502 2.2604 239 170 232
4.5533 2.8690 2.6186 132 166 109
1.8813 -0.6240 1.4999 185 170 212
3.4087 -4.6157 2.1907 120 155 155
-0.3852 1.3720 1.8575 146 204 204
3.9512 1.3667 0.5599 200 176 217
-4.3335 0.1841 0.0771 198 150 189
2.3743 0.1222 0.8536 193 173 209
-4.5833 -4.1521 1.3291 152 178 108
-4.2792 -4.2874 1.8513 220 173 230
4.5650 2.3751 2.5499 179 160 190
-2.0346 -1.5030 0.5887 117 173 212
1.6137 -3.1480 0.3766 179 104 184
-4.0160 1.6030 2.8904 116 132 145
-2.3495 -4.7906 0.3241 202 182 114
4.6786 -2.0456 1.4355 133 199 104
1.2466 -1.1806 1.7567 162 150 181
-3.7861 1.1501 1.6241 199 172 109
1.4390 0.3030 0.2581 123 152 239
4.6849 2.9871 0.1711 121 177 193
4.7997 1.0188 0.3165 103 204 194
2.4807 3.1177 1.7568 159 136 115
-3.7190 -1.6173 1.6330 179 107 112
-2.7538 -1.2783 0.7012 135 215 186
-0.6060 1.1294 1.9133 124 103 203
-2.5931 -3.7850 2.4602 175 196 197
3.8692 1.4581 0.1247 114 148 161
3.1595 3.6137 1.4944 201 169 200
4.1893 -2.4776 2.0679 207 161 211
-0.3946 3.4200 0.7569 108 160 152
2.7645 1.5616 0.9233 163 146 121
0.4503 4.8467 1.8409 238 162 208
-4.5683 -3.3519 2.6938 101 156 220
2.2598 3.1779 2.4298 218 181 147
0.0585 3.4070 1.7494 231 183 132
0.4224 0.9035 2.1907 136 170 204
-2.0245 0.6502 1.0945 235 103 135
3.7332 1.3629 1.9229 200 192 161
-3.3993 -0.3844 1.3985 225 134 134
-2.5332 2.2646 0.5698 213 197 123
-4.0082 -0.9851 2.1052 162 111 127
-2.9596 0.5508 1.6694 208 174 215
1.1599 -3.1198 1.0759 158 179 175
2.8379 0.5423 2.7340 126 114 215
2.6099 -4.6469 0.0628 158 168 144
-2.9752 4.5807 0.9473 176 197 111
-1.7307 -3.5111 0.1706 174 174 208
3.7665 4.9633 2.2996 221 100 194
-0.5139 2.2207 2.1063 192 103 143
0.9304 -1.0847 0.9941 195 111 190
1.9562 -4.9678 2.0270 116 168 130
-1.4451 2.9420 1.1878 211 173 201
0.8820 -0.1903 2.2688 202 153 190
-4.3515 0.7998 1.3626 159 114 187
0.6066 1.0349 1.2368 119 183 210
3.0499 -2.3018 2.8042 184 200 138
-0.0174 -4.2294 0.7526 189 167 104
-1.6576 2.8490 0.3613 148 109 121
2.8861 0.1727 1.7536 186 137 189
-3.5255 -1.7181 2.9080 144 199 232
-4.1140 -2.7939 1.1335 189 207 231
2.3566 4.9835 0.1861 119 133 223
1.4257 -0.7875 1.0179 158 169 172
2.8565 -3.8166 1.5178 137 205 167
3.3980 -1.1617 0.4858 103 147 229
0.8777 -3.1552 1.9743 172 165 229
-1.6549 -4.7380 2.9932 101 148 146
3.3170 -2.2693 1.3552 125 120 114
-2.0127 4.4068 1.0642 133 177 225
-0.7034 3.7273 1.2021 109 134 109
-3.1390 3.0264 0.3454 108 230 169
-0.1703 -3.6652 2.6498 194 210 121
2.2794 -0.0354 1.2445 147 110 239
2.2951 2.6551 1.1618 179 150 200
1.1023 -3.6465 1.9791 207 142 231
1.5696 4.5661 1.3261 197 226 227
-4.4295 -2.1781 1.9447 228 189 146
-2.5302 4.0625 0.1843 182 233 219
-2.2805 2.5940 2.4412 223 221 122
2.7671 -4.3463 2.8215 192 179 102
-4.6639 -4.3735 1.9463 222 165 237
-3.6075 0.3242 2.8637 210 160 121
-1.5266 3.9983 0.4543 127 171 126
1.6379 4.6339 1.4322 194 213 216
4.3682 -4.4774 1.8054 161 190 221
-2.3984 2.3082 1.7452 229 175 159
-2.4347 1.5417 1.2044 198 221 113
0.6533 -0.3607 1.0143 222 102 224
1.0853 -1.5049 0.3805 221 212 161
-3.4875 -2.7468 1.1752 206 185 127
3.5062 0.6122 0.4880 178 121 213
-3.8523 3.6014 2.2031 123 146 105
-4.3233 2.0784 0.6265 223 223 170
-4.1827 -0.4170 0.1757 209 148 117
-3.3423 4.4570 1.6571 175 198 216
1.6902 -0.3770 1.7857 128 154 169
1.5097 0.4543 2.6157 185 107 155
0.1250 3.0640 1.7309 171 206 120
-4.4804 2.8628 1.0364 194 147 143
-2.4138 -3.3529 2.4090 192 156 152
2.5675 0.1939 1.6208 228 156 186
3.7783 3.7958 0.2378 147 112 140
-2.6120 -0.4876 1.6976 183 115 113
2.7201 -4.7283 2.7241 115 179 158
-0.3607 4.0922 1.1889 231 202 218
-0.0219 -3.9453 0.8890 174 160 228
3.2210 -1.1958 0.4304 111 143 220
4.6448 -2.9623 0.4543 136 204 176
-2.1286 2.9285 1.2983 101 133 114
1.3458 2.9791 1.7870 178 144 216
4.1509 0.3303 0.2418 161 183 149
1.9590 2.9326 2.8187 144 161 110
3.5718 4.0614 2.2654 133 205 196
4.8352 -3.5929 1.7599 231 199 231
-3.1578 3.9399 2.4853 164 176 153
-3.4790 -0.5968 0.2406 135 151 159
-4.1654 3.8242 1.4305 118 139 208
0.0521 4.6713 1.8903 229 220 143
4.8411 1.6792 2.4860 193 151 106
-3.3405 3.8193 2.3504 160 160 158
-3.3777 -4.8739 0.8312 210 213 102
0.2740 2.1935 2.8226 125 239 142
-4.2059 2.3150 0.3730 216 170 119
3.5818 3.1906 2.6254 167 145 185
2.1024 -1.8565 2.9128 155 196 133
3.2164 -0.4073 0.5315 154 115 168
-0.0579 3.2825 2.1662 187 154 116
-3.2624 2.1201 0.1209 101 109 175
-3.9936 -2.6013 1.2163 216 141 116
-1.5206 -0.4965 1.5488 156 224 140
1.5115 1.2093 1.7419 217 172 184
3.4145 -0.2871 2.8078 145 212 211
1.3414 -3.7374 2.0168 113 133 221
-1.7490 1.8633 1.4438 166 215 237
-3.2512 3.5574 2.4290 217 109 154
3.3704 -2.2072 2.8516 155 165 201
1.9415 0.1265 0.0662 105 131 121
-2.8736 -4.6681 2.9476 190 233 227
1.5316 4.3830 0.2584 152 174 112
2.6606 2.8845 2.4432 193 232 233
-2.3971 4.0720 0.8410 235 124 131
0.6044 -3.8901 0.3965 191 211 212
-0.3964 3.6456 1.3196 167 131 137
-1.1960 4.7680 1.9319 172 177 112
-0.7745 -4.5798 1.1429 184 196 146
4.1808 -2.1996 0.1637 147 129 115
-2.0778 4.1077 1.7984 119 110 148
3.0491 -4.8199 2.7072 180 171 120
2.2667 -1.9525 1.1496 108 105 104
-2.1848 3.7275 0.6490 112 112 168
2.0369 0.4070 1.3277 168 157 104
-2.5811 -4.8760 0.1451 158 206 134
-1.9873 0.9836 2.4615 161 184 148
-2.0008 2.4319 2.4790 237 219 151
4.0289 3.5226 1.7640 122 206 113
0.9322 3.9230 1.0593 128 139 177
-4.2103 -2.6049 2.3994 218 209 101
-4.6533 0.8281 1.6641 217 162 218
3.5570 0.2145 2.4778 106 140 178
3.3137 0.9898 1.8944 174 149 102
-4.0614 4.0963 2.3532 128 177 155
3.2929 3.7898 1.7957 111 108 196
0.1745 -0.6957 1.2424 232 210 142
-0.6540 2.7388 2.8738 114 179 125
3.9252 -0.5662 1.6233 237 135 221
1.3131 0.9170 1.8153 127 222 207
-2.6257 0.1236 0.6615 162 157 164
-1.1549 -0.1233 1.8770 109 145 199
4.5053 1.0065 1.7148 194 220 230
0.0627 1.3410 0.5545 105 165 146
-2.4561 -1.3815 0.1788 156 203 228
-4.5435 -3.5998 1.8131 170 152 102
4.7153 -1.6865 2.2911 115 185 224
-3.0390 1.1078 1.5702 120 154 217
-2.9301 0.1657 0.6803 191 103 226
-4.9234 -2.8093 1.9996 173 179 116
-3.9197 -1.6114 0.2403 114 155 219
0.7205 0.1267 1.3255 173 185 135
4.3175 -1.0298 0.4901 175 230 215
1.1707 -3.8616 0.5534 113 112 183
0.0741 3.7422 0.6069 215 141 128
2.0226 4.9282 1.1601 230 188 171
-2.2527 -1.0542 0.1535 124 220 104
-0.8898 4.0761 1.1934 165 167 219
1.0791 -1.9063 1.5351 222 136 120
4.5506 3.2120 1.4499 171 220 117
1.3640 -4.4886 1.1484 211 155 107
-4.4048 1.0380 2.5174 183 154 185
-3.8551 -1.1616 0.4360 172 156 192
-1.3095 -3.7897 1.5171 122 209 171
2.5118 -4.2899 0.1861 118 212 227
-1.4523 4.4173 0.2135 105 203 196
1.7867 -1.3808 1.7216 131 229 210
-4.8987 1.3610 1.6981 230 169 118
1.1257 3.7370 2.6341 114 177 118
-3.7944 4.0245 1.6736 120 181 127
0.3397 -3.5786 2.8794 207 200 214
-0.7797 -2.0496 0.1461 135 121 139
0.7720 -4.5626 0.2940 214 166 139
0.5864 -1.5683 0.1322 200 226 150
1.5229 3.4560 0.5558 235 212 191
-0.7007 1.7297 1.6238 231 230 191
-1.9369 2.8899 1.9367 116 154 156
2.9838 3.2242 0.1368 164 166 107
4.1664 -0.6901 2.8379 119 185 103
0.8220 -1.2883 2.5265 181 206 236
2.0559 1.8841 0.8898 129 208 220
-3.3314 -0.6947 0.2316 167 122 197
3.9010 -1.5412 0.5097 211 177 220
-4.7455 1.4582 0.3808 195 212 211
-1.5940 -4.2829 0.3699 217 227 187
-1.8878 1.7712 1.5557 200 214 185
-1.3541 -2.8211 0.7375 216 158 166
-0.4600 1.8827 1.0744 223 135 188
-0.1441 -4.7246 2.9685 186 162 236
4.6402 -1.1579 2.0529 179 180 167
-4.6904 -1.1201 2.8469 101 141 114
-4.7665 2.5621 0.4277 165 236 118
-2.1076 4.0008 1.1464 141 109 188
4.5592 -1.8603 1.6642 133 101 234
1.0294 3.2671 0.2303 131 197 123
-2.1159 4.6114 0.0126 217 208 184
-1.1449 -1.5961 2.0113 141 141 153
-3.4585 0.5371 1.9255 141 220 158
2.6190 3.3365 1.2324 165 163 119
-1.9767 -2.4067 1.4689 159 237 172
-4.4235 -1.5755 1.2463 237 116 200
4.6642 0.5771 0.0720 103 126 139
0.8047 -3.6080 1.0061 106 143 165
1.2623 -0.1110 0.5312 101 197 236
4.9385 3.8031 0.2953 162 230 147
0.6938 1.2066 2.8702 215 161 154
-1.0486 -4.6054 1.7981 199 222 198
0.4302 -2.7225 2.1860 118 116 202
4.0945 2.2214 0.9461 168 223 154
3.6997 -3.6935 1.1794 185 216 185
-3.7518 2.9421 0.7108 173 134 237
3.7709 4.4404 0.2909 195 160 180
-0.3732 4.8099 0.5371 235 236 138
3.6355 0.8873 2.3925 122 135 194
-2.1422 -2.9678 2.0326 203 124 149
-1.1346 0.1128 1.6408 178 143 231
0.7728 3.6558 1.4253 166 114 158
-0.9242 3.2752 2.7673 120 133 214
0.7353 4.5605 0.2182 130 114 227
-3.9074 3.5396 0.8418 182 174 210
3.4697 3.9309 1.0498 128 129 115
3.8346 -0.5168 2.3473 145 158 239
1.2659 4.2638 2.9775 169 150 153
-0.2316 1.8772 0.7220 239 126 113
1.9253 -3.6556 2.6229 168 175 231
-1.4128 3.0444 2.4919 146 123 156
-2.8930 4.5745 0.6740 184 231 166
4.9782 1.7682 1.1980 102 111 228
-2.0538 -4.8568 1.2290 133 134 116
3.3414 2.4048 2.9347 134 194 129
2.5343 2.6892 0.5427 118 187 210
2.6612 3.4592 2.3975 151 198 210
-4.1140 -0.1237 1.0026 143 122 185
-0.9246 -0.9289 2.1926 227 103 211
-1.5118 -3.8900 1.2600 198 228 182
4.4769 -4.2768 1.7351 178 178 177
0.2258 -2.0043 2.4978 188 131 204
0.0062 2.9452 2.4125 107 238 210
-4.4977 -4.2710 2.5993 108 209 189
-2.0471 -2.6762 0.1789 161 114 134
3.0348 4.2923 2.0762 174 108 223
4.0611 -1.7850 0.4200 185 235 168
-2.7397 1.4048 1.2475 231 126 187
1.0349 -1.4219 1.6458 208 233 186
-3.7708 3.8866 1.2082 175 190 164
-0.5065 0.8586 1.5588 100 161 174
-4.2822 1.8262 2.9896 100 148 141
2.1395 3.2253 0.4057 213 157 208
0.5250 0.2017 2.0264 156 139 228
2.7535 -2.2859 1.1880 126 139 229
-2.1573 -3.6617 0.3990 109 170 206
-4.4567 2.4865 0.4762 160 146 104
-4.9987 0.1113 2.8478 166 222 189
-2.2383 2.0698 2.6388 136 158 235
3.3934 -4.9618 2.7211 183 102 195
2.4090 -1.8373 2.9746 218 147 202
-1.3977 -2.2961 0.6249 146 223 111
-1.8665 2.8893 1.0663 230 185 174
-0.6618 4.0994 2.0077 231 216 113
4.6408 -4.1071 1.4514 214 211 168
-0.0619 -1.1235 1.2552 163 239 196
2.0386 -4.9564 1.0734 120 126 128
2.1305 1.6639 1.7813 158 122 117
2.6104 4.5077 1.7268 109 163 231
-2.0195 -3.9464 0.4844 102 135 219
1.4415 -4.5181 1.4152 193 231 181
4.5680 0.0040 1.6604 216 228 162
-0.4230 -2.9112 1.7109 151 171 202
-1.3019 -4.4764 0.6303 158 215 153
-0.8350 3.2218 2.2268 207 170 105
-2.8801 1.5735 0.0756 103 184 170
3.8016 -2.8426 1.0645 163 162 195
1.0775 -2.0470 2.3406 183 234 199
1.5164 2.3860 1.6917 123 161 133
1.4483 -1.0487 0.7835 137 156 217
-3.0078 3.9022 2.0849 155 150 167
-1.3221 -4.4191 1.7022 200 236 237
0.1586 -2.3241 2.3887 221 218 162
-4.8531 -1.2091 2.2051 128 131 223
-4.8067 -3.7563 1.8303 152 227 134
-0.0714 -0.9571 1.4645 238 172 181
0.9513 -4.9008 0.3995 232 200 163
4.6350 0.1903 0.7840 231 125 189
-1.8814 2.7399 1.2573 103 136 167
0.2130 4.7601 1.7979 124 199 216
-4.8305 2.7016 1.5411 215 182 157
-3.7979 -2.3442 0.8646 233 213 177
-2.0669 2.7314 0.0194 144 182 172
-1.5190 -1.2826 1.4887 131 141 124
-2.0020 1.4646 0.8569 234 174 175
3.4706 -4.7641 2.2038 144 117 144
2.8320 2.8038 0.0718 175 168 122
-1.0199 -1.9708 1.7545 209 102 170
-2.7176 -2.5340 2.8244 147 130 229
2.4744 -0.2619 0.5232 237 224 151
4.5779 4.4272 1.4149 158 206 157
4.9133 0.4448 0.2743 113 154 161
-4.2439 -1.3432 1.8770 127 167 112
-3.0417 -3.5920 1.6516 193 194 187
2.8132 0.7830 1.2221 198 220 135
3.1112 1.3595 1.5641 100 156 225
1.7413 -2.4010 2.6897 190 234 178
4.1749 -2.0950 0.5889 186 180 194
3.9014 2.0772 0.0677 121 168 112
-3.5270 -4.9216 2.5850 239 220 225
-0.5233 -3.6573 1.7314 205 158 232
0.2966 -2.5811 2.6720 127 182 207
1.7962 -4.2376 1.7908 114 155 149
3.0697 -0.4034 2.4305 141 207 101
-0.6718 -4.5610 1.2890 201 201 157
-0.5446 -2.9081 2.2496 179 223 125
3.4365 4.8119 2.7391 239 183 202
3.5378 -2.5802 1.7164 231 162 205
-3.0307 4.5143 0.5424 221 232 173
2.1172 4.8114 0.8064 213 189 233
-2.4046 -0.6300 0.5959 215 207 152
-4.2692 1.2234 0.7406 126 221 156
-3.0989 2.9260 0.9192 116 108 177
4.4370 4.6014 1.6654 161 170 141
4.7731 2.5731 1.7640 203 161 229
-0.2310 2.1833 1.2795 204 140 223
1.4062 1.6660 1.8463 100 174 123
0.6509 2.7163 0.2447 221 107 230
-4.8790 -4.9096 0.2634 197 117 122
4.2619 -2.7132 0.5155 226 218 228
-2.7792 -1.7833 1.5542 171 101 230
2.2886 -4.0460 0.6420 204 116 225
-4.7083 -0.1911 0.8499 144 212 238
-3.8150 -2.1112 1.2009 157 149 185
4.1953 4.9326 2.4356 160 171 225
2.6101 -1.2828 0.0416 131 102 154
2.5426 4.1843 1.9481 133 158 201
0.7712 -1.4288 2.0066 143 238 216
-2.4900 0.6407 2.3960 114 177 168
1.5663 -2.5960 2.7983 107 169 181
4.1824 -3.9820 0.0604 130 104 200
-2.7915 -4.6107 0.4614 145 206 131
-3.2478 3.6677 2.6585 217 217 170
4.5046 0.8162 1.3756 179 155 102
0.8009 0.1670 1.6938 190 121 172
-2.1750 -1.4695 1.9891 163 134 185
4.4646 3.9256 2.0372 195 189 173
2.8037 -0.2366 2.7952 111 150 146
-2.9532 0.9113 2.9908 220 130 166
-1.6844 3.5503 2.1605 154 118 165
-4.2884 -4.3099 0.8617 117 175 150
0.0692 -0.9059 2.6393 192 223 110
3.3583 -1.6781 0.1477 189 187 156
2.7112 1.5465 0.6932 106 112 137
3.7588 0.3909 2.6922 105 165 219
-0.7477 -4.6243 0.7686 121 220 239
2.6555 -4.9999 0.6620 165 211 103
0.2251 -4.4537 0.4144 144 142 132
-2.7387 -1.9580 2.5773 237 122 143
-2.6958 -4.9853 1.5002 174 187 126
4.6685 -2.7571 2.0247 134 116 130
2.4190 3.4843 0.7172 161 151 205
-1.9707 -1.7470 2.2741 169 233 154
3.1678 -3.1839 2.2800 168 164 205
4.0194 3.0669 0.9378 203 159 236
2.5425 -1.0680 1.2320 211 101 155
1.6101 -4.2154 0.6291 186 230 193
2.0932 -3.3268 2.9297 120 213 135
0.8377 4.5222 1.9368 123 142 119
-2.3467 1.0155 2.8036 200 113 103
2.1442 2.5901 0.9102 114 164 132
0.1385 0.0889 2.3457 103 201 124
4.3292 3.2751 2.2976 207 102 167
2.1433 -0.3828 2.0750 213 191 161
1.9460 2.2898 2.8969 200 177 206
-2.2593 3.0707 1.1807 117 230 215
-1.5466 -1.6439 0.3922 153 132 181
3.5654 2.0117 2.0151 134 159 191
0.6207 4.4709 2.1879 176 168 155
-1.1948 -3.3696 1.7252 112 168 207
2.3444 -1.1564 0.6205 190 232 229
3.3900 -4.8858 1.5134 210 139 145
4.7026 -0.6234 0.9366 125 207 123
2.0487 3.1713 1.2824 167 113 145
4.6704 -4.4833 1.9357 199 133 177
2.1845 3.6264 2.2356 103 173 232
3.0000 0.5271 0.6967 157 103 119
-3.6828 3.6530 1.2160 192 105 116
-1.9021 -2.0995 0.8075 153 146 121
1.7270 2.9668 0.5959 180 226 159
1.2487 0.7175 2.3502 198 229 115
4.0609 -4.8784 2.7278 180 101 239
-4.4816 0.4886 1.1107 149 114 232
-1.9322 -1.4704 2.2538 102 176 226
-1.6595 2.3270 2.6910 124 148 204
-4.3165 2.8376 2.5384 165 157 151
-0.6723 1.8544 0.5484 151 182 184
-4.4341 -1.2608 2.8689 191 115 145
1.4173 1.7148 1.1300 148 229 211
-3.0101 -0.8167 1.0177 140 121 110
-3.9863 -2.2215 0.1873 213 210 137
-0.6798 4.8037 1.4585 177 206 121
0.1870 -3.2064 0.3270 135 166 132
-3.8670 -0.9640 0.7456 162 175 209
2.0455 -0.7727 0.9508 213 166 214
-1.0239 -2.3572 2.4265 239 173 129
-0.1696 -2.3147 2.6265 168 183 156
1.5676 4.6854 0.9074 199 202 114
-4.2302 -4.2442 2.5761 138 146 112
-2.0271 -4.0793 2.5717 232 217 113
1.2365 1.4850 2.2940 140 139 157
-4.8489 4.6502 0.4401 156 126 111
1.7603 2.0663 2.0710 129 120 112
-1.8709 -2.2890 2.8351 106 115 236
3.6610 4.4673 2.0476 219 167 119
-3.4517 4.4474 0.9949 161 217 196
3.8299 -2.9737 1.5017 189 107 140
2.0114 1.8011 1.9372 156 201 139
-4.8461 0.8293 1.5317 217 217 199
-0.4975 4.5758 0.3599 210 179 113
3.3980 -3.1146 0.9362 222 227 230
4.7701 -3.9811 2.4072 228 180 170
-0.6642 -4.0737 2.5843 134 122 236
4.1455 -0.6598 0.4119 100 102 216
-0.6560 2.2345 2.8572 221 219 166
0.8945 1.1329 0.9865 104 198 214
-2.5798 2.1405 1.9869 185 232 110
-3.0073 3.7747 2.2555 177 225 139
-4.8625 -2.5162 2.4358 170 239 216
-2.2919 -2.5244 2.8372 236 144 237
-0.4106 2.3273 0.9388 203 100 205
1.7287 -4.1885 2.5755 215 232 166
3.3849 3.0509 0.3951 130 213 146
4.3271 0.4425 2.1151 125 113 130
1.1678 2.4288 2.2259 106 174 159
0.2145 -4.3154 2.0332 160 103 215
4.2077 0.8445 0.7569 170 225 175
-2.3115 -1.3155 2.6191 165 207 179
1.6646 2.8739 0.5066 169 232 140
1.3025 -2.5162 0.1609 115 236 146
-0.7240 -0.5745 2.1524 131 114 229
4.3628 -4.3599 1.4264 119 108 182
-2.0762 -0.5608 2.5473 110 227 113
-1.9895 0.0263 1.1502 187 119 166
-0.0890 4.2711 0.5048 157 156 214
2.6444 -0.9033 2.5093 218 239 130
-2.3976 -3.4051 1.6467 134 138 170
-4.2951 -3.1435 0.5676 176 228 144
3.8169 3.1413 2.1612 227 216 238
-3.8957 -2.1081 1.5333 133 169 141
-2.5004 0.1501 1.8129 224 138 115
-1.4311 -1.4621 1.3827 177 190 148
2.8929 -1.9220 2.4861 127 100 169
4.5282 -1.7326 2.4887 166 177 229
0.0563 4.4112 2.1282 174 185 156
-3.9743 -1.0727 0.3162 183 171 188
0.0313 -3.0614 2.5166 144 129 178
1.7694 3.3791 2.0130 177 175 212
2.4836 -0.6079 2.0911 138 212 109
-3.3963 1.7365 1.0889 192 179 171
1.9395 -2.7040 2.6378 202 227 210
-3.3472 -4.9801 2.1761 148 196 151
2.3240 0.1493 0.3378 222 132 167
-4.1645 -4.8087 1.2233 121 179 187
3.9086 -2.5846 2.6591 217 213 236
-3.9465 -2.7764 0.1416 192 189 235
1.0775 -2.5465 2.8842 232 204 218
-1.0897 -2.6580 2.0375 164 108 117
4.5986 1.1630 1.8941 111 120 217
-0.8422 -0.7106 0.8117 137 121 216
1.9643 2.0215 0.7464 120 136 155
0.0011 -0.8804 2.8262 129 193 211
1.3142 0.3250 0.8948 227 213 174
1.0564 -3.8280 2.3265 163 175 237
-3.5716 1.9207 1.1794 142 239 178
-1.0814 3.9567 0.4178 218 167 139
0.0781 -0.8073 0.0321 134 222 162
2.9276 -4.3095 1.6328 210 238 115
0.6068 1.2843 2.9273 143 181 233
-2.4673 -4.9002 1.1074 186 196 203
0.3566 3.3612 1.0716 156 141 115
3.4333 -0.1491 1.0323 204 208 126
2.9156 -0.4871 1.5616 153 167 126
3.5497 3.8256 1.3220 201 228 164
-4.2430 -1.1217 2.6397 137 197 130
4.0177 -2.9653 1.5166 117 225 210
3.7735 -1.1060 1.5233 239 101 149
4.6807 -4.3344 0.4151 234 193 205
-4.2589 -1.2453 2.9482 155 235 171
-0.6653 4.9718 0.7499 206 219 199
-1.7884 -2.7989 0.2201 168 158 219
-1.2747 -4.3129 1.9894 181 127 168
-0.3576 2.2274 1.7861 187 133 218
2.0877 -4.9164 1.2454 177 173 191
1.6168 -0.1601 1.2666 152 236 211
3.0449 2.7281 2.3552 156 153 111
-4.3354 2.6652 0.5871 133 144 103
2.8196 2.5175 2.4608 174 107 123
0.1801 -3.5968 1.9462 131 169 224
1.2047 2.4225 1.2569 190 219 169
-3.0502 3.9041 1.3741 119 193 180
4.0823 2.5872 0.7699 157 113 128
1.5413 3.8913 2.2563 127 231 112
1.3239 -3.4352 1.5386 172 156 227
2.1640 -2.2906 0.9626 140 165 106
-1.8617 -2.5850 1.7882 213 134 146
-0.7515 4.0784 2.9872 163 152 230
-3.1208 -4.2303 1.3058 166 176 147
-1.1720 3.2183 2.7621 134 137 142
2.9624 -2.2805 1.0351 198 237 198
-2.3594 4.3907 0.1642 181 203 199
-1.7549 -2.3049 0.6127 154 165 152
1.9464 -2.8128 1.2561 148 228 152
-2.3536 1.6197 0.6589 216 147 229
2.7803 2.6085 0.0007 194 101 128
-4.1162 1.9895 2.7450 221 236 171
-0.6765 -4.6885 2.5316 201 163 194
-4.6632 3.7919 2.2269 192 208 170
0.5734 -4.6102 0.5034 212 224 231
-1.7697 3.9792 0.3611 143 172 173
-1.7471 4.0096 0.2028 187 138 192
3.2542 3.4487 2.1721 211 103 215
0.7670 -4.3274 2.7864 203 225 218
4.9889 -1.7336 1.2916 102 128 220
3.0667 3.5802 0.3574 167 151 102
-2.5850 -4.5965 1.5372 163 124 217
-3.6992 -4.7757 1.0465 171 128 148
2.8374 0.6618 1.1245 187 215 237
1.5434 -2.6798 1.8640 164 110 222
2.6435 1.2374 2.1562 196 124 179
-4.6106 3.3712 0.3318 106 201 107
0.6340 1.2461 0.1068 238 153 190
0.8694 0.8095 2.9830 148 119 143
2.5673 -0.5771 0.6982 123 157 120
-1.1077 -2.7112 0.1615 128 138 207
4.2818 4.2914 0.5696 204 216 201
0.2768 -2.8836 0.1169 168 108 189
4.8112 1.4951 1.1754 145 112 165
2.1510 0.9316 2.4072 238 105 190
-0.4524 1.7479 1.0237 116 226 123
-1.2688 4.4169 1.3326 115 200 210
0.0036 1.9088 2.0268 182 181 216
1.4864 -2.2471 1.5267 222 204 127
1.3594 0.9930 2.5843 154 197 231
2.0514 -0.4483 2.5981 198 238 132
3.3737 -3.3027 0.0297 134 209 108
2.7910 1.0970 2.3341 238 214 177
3.3815 3.0281 1.3822 165 202 231
0.3594 -0.1150 2.9665 228 239 124
-3.4631 0.7261 1.4497 208 142 217
4.2131 0.8319 2.9607 206 212 183
-1.4508 -4.4801 2.2637 134 107 158
-0.7666 -4.1543 0.7458 110 142 213
3.8097 3.8291 1.6152 154 150 168
-2.8877 3.6300 2.9764 192 229 147
-3.0335 2.3743 2.5726 124 180 225
3.0264 4.9724 0.2921 213 116 213
3.9737 1.2263 2.1191 239 217 231
-0.3499 3.4739 1.0367 153 168 134
-1.6472 -4.3298 0.0209 127 114 108
3.1697 3.5255 1.2104 239 101 172
-4.1490 -1.1440 0.7043 209 218 104
-2.8921 -2.7063 2.4566 118 220 100
-2.3144 -3.9902 1.0120 202 109 156
-3.5272 4.7308 2.4826 130 213 213
4.6776 -0.6026 0.0018 170 175 224
2.9829 -1.7375 0.9235 179 201 165
-2.6749 -3.7032 0.7235 223 234 184
-1.4468 1.7399 0.7007 204 217 148
-2.8949 3.0902 0.2046 100 116 177
-1.5735 3.6466 0.5614 186 169 159
-4.1726 -0.1546 1.6666 144 192 230
0.6341 3.0380 0.8741 137 231 185
0.8070 0.0551 1.2522 222 232 209
1.2400 -2.2636 1.1306 208 190 131
-4.1773 -0.4042 2.6277 122 155 111
3.2238 -4.4302 2.7159 236 189 120
-0.4157 2.2501 1.4789 192 131 108
1.6721 2.7705 0.9905 178 108 168
-1.8612 0.3802 0.3204 125 114 171
4.8945 3.8952 2.8602 180 104 161
-3.0483 -0.1061 0.1807 187 218 116
-0.0743 -0.1682 0.8930 132 114 181
-1.3860 3.5979 0.8942 222 228 190
-1.7177 -0.4601 0.9612 163 126 100
-3.7400 -3.0358 0.4929 137 148 110
-3.2451 0.6773 2.3495 114 113 103
-0.1038 1.4475 0.3675 101 102 135
0.5266 -1.2783 1.9047 199 146 220
