ply
format ascii 1.0
element vertex 1104
property float x
property float y
property float z
property uchar red
property uchar green
property uchar blue
property float confidence
end_header
6.7443 -0.9237 11.3659 109 214 20 0.749
-5.9072 3.7018 4.6445 121 211 20 0.716
-4.2886 2.8162 12.6906 105 215 20 0.760
-0.5509 5.9918 6.4149 43 205 43 0.826
0.8225 -0.2065 10.9724 4 236 4 0.980
-11.1948 1.4294 6.6214 125 210 20 0.705
-10.5183 6.6335 13.9228 109 214 20 0.749
6.0837 -4.5293 7.2020 125 210 20 0.705
3.6332 1.9512 9.7047 10 231 10 0.958
-12.6909 -12.0930 10.8457 24 220 24 0.903
-1.3624 -0.1851 11.6770 32 214 32 0.870
2.4932 1.6520 10.2120 7 233 7 0.969
-3.9796 -2.2710 10.4870 46 202 46 0.815
2.1853 0.9075 1.0117 117 212 20 0.727
-5.7628 -15.0411 17.7256 13 229 13 0.947
-11.7145 -12.3925 12.2207 4 236 4 0.980
-5.6301 -3.3927 5.7127 18 225 18 0.925
-6.3433 -14.4192 16.7571 4 236 4 0.980
-2.6556 -16.0567 17.8118 13 229 13 0.947
-3.4609 1.1945 10.1329 138 207 20 0.672
-7.9116 -14.0645 16.3436 4 236 4 0.980
-9.9293 -13.5442 14.1709 4 236 4 0.980
-11.1486 -4.4265 10.9207 117 212 20 0.727
-12.2591 -3.1471 11.6779 133 208 20 0.683
-3.3969 -5.3403 12.0872 113 213 20 0.738
2.3789 -0.3573 5.7733 113 213 20 0.738
-11.8881 8.8993 13.3796 138 207 20 0.672
2.1029 5.6863 10.7674 35 211 35 0.859
-5.0432 -17.1611 18.7609 46 202 46 0.815
1.2483 6.5620 11.4528 46 202 46 0.815
-1.7671 -18.4252 20.5065 105 215 20 0.760
-11.4242 -12.7245 12.5745 4 236 4 0.980
0.8789 -4.0210 7.5385 92 219 20 0.793
-4.1995 -4.1465 5.6877 24 220 24 0.903
-7.8151 -2.2734 15.1561 138 207 20 0.672
-9.5692 -13.2845 15.0750 4 236 4 0.980
-6.3800 -2.8343 5.3278 29 216 29 0.881
-12.2570 1.7469 14.3229 142 206 20 0.661
-9.9246 -4.0721 7.5838 138 207 20 0.672
-11.0493 -12.8727 13.5540 4 236 4 0.980
-11.4518 -12.6178 12.6287 4 236 4 0.980
-3.9738 3.0263 7.9324 46 202 46 0.815
-6.4881 -13.8639 16.2210 4 236 4 0.980
4.3571 6.8805 9.5815 46 202 46 0.815
0.8672 0.6034 11.4350 32 214 32 0.870
-6.4646 -3.6159 5.2210 29 216 29 0.881
-9.6675 -13.2040 14.9723 4 236 4 0.980
5.4694 -4.9767 10.5082 138 207 20 0.672
-6.9058 -14.9898 16.8040 4 236 4 0.980
6.7119 7.2881 8.3450 117 212 20 0.727
-12.4932 -11.3465 11.3279 18 225 18 0.925
-11.1327 -12.9584 12.9759 4 236 4 0.980
7.1211 8.1927 11.8600 121 211 20 0.716
-6.5161 -14.1182 16.4646 4 236 4 0.980
-10.8287 -12.5764 13.6425 4 236 4 0.980
-8.3341 6.8316 14.2937 100 217 20 0.771
0.6597 5.1151 5.0265 96 218 20 0.782
-12.7365 -11.1389 10.7614 35 211 35 0.859
2.1120 3.8977 10.3731 21 222 21 0.914
-10.5600 -9.8432 10.0429 26 218 26 0.892
4.3883 2.4947 9.2519 26 218 26 0.892
4.0374 1.1561 12.0988 121 211 20 0.716
-10.9074 -12.5713 13.8166 4 236 4 0.980
11.5255 5.2826 13.1064 142 206 20 0.661
-8.4154 2.2240 5.6194 100 217 20 0.771
7.9393 0.3441 4.9651 133 208 20 0.683
-5.7331 6.4273 11.8962 113 213 20 0.738
-10.9066 -13.0253 13.1571 4 236 4 0.980
-0.8250 -0.5110 10.9065 21 222 21 0.914
-0.3417 2.0940 12.1229 38 209 38 0.848
-3.3083 6.3059 13.6631 117 212 20 0.727
3.2611 -2.5188 9.4947 105 215 20 0.760
-10.8090 -13.0882 13.3010 4 236 4 0.980
-5.8284 3.2083 6.8143 35 211 35 0.859
-1.2303 0.6667 11.2523 38 209 38 0.848
3.4651 3.4298 10.6599 16 227 16 0.936
-2.2269 3.1313 2.5878 100 217 20 0.771
-8.4453 -13.9156 15.8414 4 236 4 0.980
-10.8792 -12.6250 13.8012 4 236 4 0.980
-2.9032 -15.9778 17.7808 10 231 10 0.958
-10.0358 -13.3308 14.3715 4 236 4 0.980
-1.3811 5.8227 7.2636 40 207 40 0.837
-11.8332 -12.0894 12.2349 4 236 4 0.980
1.0580 -1.3427 10.0681 4 236 4 0.980
7.8275 -2.4017 10.4234 113 213 20 0.738
-10.7970 -13.1213 13.2855 4 236 4 0.980
-11.7573 -12.0127 12.5726 4 236 4 0.980
-5.5378 -0.2981 6.6244 40 207 40 0.837
3.7972 0.0292 9.1107 35 211 35 0.859
2.6936 0.2780 10.5490 4 236 4 0.980
-10.5416 -9.5252 9.4798 40 207 40 0.837
-5.6577 3.0951 6.1495 29 216 29 0.881
-6.0771 -1.0606 14.7531 138 207 20 0.672
-5.3372 -16.7581 18.2771 38 209 38 0.848
-6.5220 7.3028 11.8373 125 210 20 0.705
-9.6811 -12.6734 14.2234 4 236 4 0.980
-5.4054 3.7512 7.1352 16 227 16 0.936
-5.1439 -16.8668 18.3962 32 214 32 0.870
-0.3562 -0.9597 7.8732 4 236 4 0.980
2.3053 -1.4275 9.5927 4 236 4 0.980
-11.8283 1.5772 9.0638 133 208 20 0.683
0.7164 0.4014 10.7269 4 236 4 0.980
3.1337 2.9898 10.0919 24 220 24 0.903
11.0621 9.2222 10.3136 138 207 20 0.672
-1.1921 5.7388 8.1052 24 220 24 0.903
-2.1116 -16.6046 18.3208 13 229 13 0.947
0.9000 -1.2691 10.3189 4 236 4 0.980
7.3572 -2.3300 8.9001 125 210 20 0.705
-12.6993 -11.2462 10.8265 32 214 32 0.870
-4.9555 -17.0997 18.8310 46 202 46 0.815
-1.7222 3.1321 2.3152 96 218 20 0.782
-10.0553 -12.1812 12.2529 4 236 4 0.980
-9.2392 -15.4494 17.2699 105 215 20 0.760
-6.3832 -15.4609 16.9034 4 236 4 0.980
-1.7608 -18.3966 20.4750 105 215 20 0.760
-10.1919 -11.7545 13.0392 4 236 4 0.980
11.3346 -1.0614 16.0740 133 208 20 0.683
0.2793 -0.5750 2.0301 133 208 20 0.683
-8.7116 -13.9153 15.9021 4 236 4 0.980
-7.9782 2.5170 6.1021 46 202 46 0.815
-9.0632 -12.6767 14.2235 4 236 4 0.980
-5.0442 -17.0950 18.7704 46 202 46 0.815
-1.6552 3.0550 12.1718 92 219 20 0.793
-10.2048 -13.0150 14.3999 4 236 4 0.980
-6.2179 -15.7282 17.1698 7 233 7 0.969
3.8319 1.5498 12.4302 125 210 20 0.705
1.6726 -0.8602 5.1356 117 212 20 0.727
2.2529 -1.0839 2.5431 133 208 20 0.683
1.3243 -0.0959 10.4572 4 236 4 0.980
-6.6839 3.0502 6.4382 16 227 16 0.936
5.6940 7.2838 10.1732 100 217 20 0.771
-5.7509 3.2537 6.5614 29 216 29 0.881
-9.4941 -12.8355 14.4972 4 236 4 0.980
1.2916 -1.4240 8.4627 4 236 4 0.980
-4.8794 6.8003 13.2167 117 212 20 0.727
-7.3211 -15.3502 17.8491 18 225 18 0.925
-0.1507 3.7131 2.4572 117 212 20 0.727
-8.8867 -13.8376 15.6840 4 236 4 0.980
-10.1340 -11.9654 12.1272 4 236 4 0.980
13.6584 6.8151 9.3236 142 206 20 0.661
-9.9733 -12.3792 12.6343 4 236 4 0.980
1.5057 -1.5832 8.4075 4 236 4 0.980
-11.5947 -12.5273 12.3781 4 236 4 0.980
-1.4689 -1.8558 11.0461 29 216 29 0.881
-10.2831 -11.7054 12.7153 4 236 4 0.980
-8.8172 -13.8819 15.7534 4 236 4 0.980
-2.3021 -15.8323 17.3952 13 229 13 0.947
-7.0503 3.7528 9.5123 129 209 20 0.694
-1.7196 4.0028 8.8931 96 218 20 0.782
-1.1314 -2.5470 7.7965 7 233 7 0.969
-1.0557 -4.4615 6.6784 43 205 43 0.826
-5.1863 -16.7884 18.4447 35 211 35 0.859
2.4279 5.7601 10.7010 46 202 46 0.815
-8.6784 -13.9705 15.8865 4 236 4 0.980
2.3015 5.3190 4.8758 100 217 20 0.771
8.4847 7.4731 5.8224 142 206 20 0.661
-8.3363 -14.1772 16.1968 4 236 4 0.980
0.8513 -4.0512 7.5344 92 219 20 0.793
-2.4270 -16.5059 18.3009 7 233 7 0.969
-11.8964 7.9645 17.0743 138 207 20 0.672
-10.6580 -10.3068 9.0111 40 207 40 0.837
-3.4402 1.5223 7.5810 43 205 43 0.826
-8.5730 -14.4908 15.4698 4 236 4 0.980
-9.0016 -13.4314 14.9095 4 236 4 0.980
-3.6164 -2.1164 6.8812 4 236 4 0.980
-4.1734 -2.3999 11.5105 40 207 40 0.837
-10.1776 -13.3751 13.8556 4 236 4 0.980
-10.1767 -4.9430 10.8220 113 213 20 0.738
-12.9665 -11.9404 10.0683 46 202 46 0.815
3.4223 6.2508 10.1549 48 200 48 0.804
0.9217 -5.6269 8.8010 121 211 20 0.716
0.0217 6.7946 12.4221 109 214 20 0.749
-7.4942 -15.0130 16.2231 4 236 4 0.980
-11.0747 -12.9272 13.1451 4 236 4 0.980
-4.4826 -1.5989 6.9540 4 236 4 0.980
0.8012 -2.5115 8.0009 24 220 24 0.903
-10.1336 -3.1838 7.7960 133 208 20 0.683
-10.5048 -12.7326 14.0293 4 236 4 0.980
-10.6833 -13.0750 13.3797 4 236 4 0.980
0.7497 4.9590 5.7645 43 205 43 0.826
-5.5797 6.2390 8.3203 96 218 20 0.782
-6.0230 -5.5153 14.1375 138 207 20 0.672
4.9018 1.1849 8.4111 40 207 40 0.837
-7.0713 -0.5607 13.2227 113 213 20 0.738
-9.9201 -13.6023 14.1168 4 236 4 0.980
-6.4261 -14.6525 16.4971 4 236 4 0.980
7.1301 -0.2337 10.2745 117 212 20 0.727
-10.2181 -11.8788 13.0057 4 236 4 0.980
1.8738 0.1118 0.8521 117 212 20 0.727
-11.6810 -1.7335 9.6876 138 207 20 0.672
-0.2913 -0.9837 8.0707 4 236 4 0.980
-8.9263 -14.2830 15.1047 4 236 4 0.980
-7.0314 -0.4509 7.0576 129 209 20 0.694
-7.2332 5.1234 14.0338 133 208 20 0.683
-0.3309 -0.1502 11.0090 13 229 13 0.947
1.6237 -0.3213 5.2006 117 212 20 0.727
-7.7072 -14.8961 16.1028 4 236 4 0.980
-10.4091 -10.7405 10.9034 18 225 18 0.925
-1.4113 6.2249 7.8397 32 214 32 0.870
-0.6217 6.7947 11.8964 100 217 20 0.771
-2.9545 3.3725 3.1750 46 202 46 0.815
3.4130 0.3939 1.3318 113 213 20 0.738
-1.0635 -2.4266 7.1264 4 236 4 0.980
-5.7673 -16.6390 18.2080 40 207 40 0.837
-6.5909 -15.3896 16.7925 4 236 4 0.980
-4.5681 2.7208 12.8435 105 215 20 0.760
-4.3866 -1.5300 6.6269 4 236 4 0.980
4.3168 -0.8502 4.4650 142 206 20 0.661
-1.9014 -0.7219 10.9762 35 211 35 0.859
0.8342 -2.3363 8.1820 18 225 18 0.925
-1.9464 -18.3740 20.5116 105 215 20 0.760
16.3520 9.4135 17.0918 142 206 20 0.661
-5.3546 -15.6798 17.2037 21 222 21 0.914
1.7481 4.9034 4.3980 109 214 20 0.749
-10.4684 -10.7362 11.3372 10 231 10 0.958
-1.8461 2.7604 12.0047 92 219 20 0.793
-3.4275 -17.7469 19.7014 35 211 35 0.859
7.5015 6.2116 13.1078 138 207 20 0.672
-10.2161 -12.9385 14.4450 4 236 4 0.980
-7.2972 -1.0655 12.4419 117 212 20 0.727
-9.3693 -13.4654 15.2337 4 236 4 0.980
1.4644 -0.7835 9.7430 4 236 4 0.980
-9.5834 -12.9271 14.5550 4 236 4 0.980
-1.2099 -2.4144 7.0857 4 236 4 0.980
-2.5635 -3.5612 6.3627 4 236 4 0.980
3.4788 3.2233 10.3331 18 225 18 0.925
0.1258 5.4899 8.9756 38 209 38 0.848
-5.7241 3.3295 6.6816 32 214 32 0.870
-9.1998 -13.5618 15.4547 4 236 4 0.980
-5.3672 6.1639 9.4403 100 217 20 0.771
1.0476 -1.3941 10.1563 4 236 4 0.980
3.2149 6.6195 11.1753 43 205 43 0.826
-8.9028 -13.7180 15.8204 4 236 4 0.980
0.9557 -0.2899 10.2015 4 236 4 0.980
-7.1737 -15.1041 17.6240 4 236 4 0.980
-3.6533 -3.0526 6.4708 4 236 4 0.980
-1.3870 4.7473 7.7508 32 214 32 0.870
-1.5210 -5.0283 9.5839 113 213 20 0.738
7.1208 -1.4584 10.8055 105 215 20 0.760
11.4580 -9.9416 15.2519 142 206 20 0.661
-2.6854 6.0606 8.4109 105 215 20 0.760
7.9369 -0.8431 11.3511 113 213 20 0.738
-8.9664 7.1320 14.7012 48 200 48 0.804
2.5915 3.2027 15.0391 142 206 20 0.661
9.1505 -5.1863 12.3458 129 209 20 0.694
-8.4090 2.2216 5.9179 96 218 20 0.782
-4.9294 -15.7025 17.1835 29 216 29 0.881
-1.2524 7.0255 12.7443 113 213 20 0.738
7.6181 -5.3948 9.1205 138 207 20 0.672
-0.0683 7.1525 12.6318 105 215 20 0.760
4.6359 -0.6364 11.0527 117 212 20 0.727
-5.2064 -17.0507 18.8237 48 200 48 0.804
4.3903 -0.1583 8.4215 43 205 43 0.826
-10.0911 -13.2398 14.5305 4 236 4 0.980
-4.2378 -0.1059 7.1414 10 231 10 0.958
-9.3955 -13.9811 14.6640 4 236 4 0.980
-11.9116 -0.3310 13.9321 138 207 20 0.672
-6.9594 -15.2223 16.5993 4 236 4 0.980
-6.0016 6.9324 9.9170 100 217 20 0.771
-8.5697 0.1248 13.0683 117 212 20 0.727
-0.0693 1.4939 11.4484 43 205 43 0.826
-2.5437 1.3110 7.9714 48 200 48 0.804
-12.2149 -11.6286 11.9541 4 236 4 0.980
2.7055 5.2958 3.6766 121 211 20 0.716
5.7601 6.9772 10.2563 96 218 20 0.782
-11.6207 -12.0984 12.8695 4 236 4 0.980
-4.0174 2.7459 11.9805 105 215 20 0.760
-9.4726 6.7888 14.3441 48 200 48 0.804
-10.0396 -13.4941 14.0047 4 236 4 0.980
-11.0258 1.6475 6.9409 125 210 20 0.705
-6.9548 -3.6254 5.5498 32 214 32 0.870
-9.0840 8.9394 16.7153 138 207 20 0.672
-4.6596 -2.9792 11.0211 38 209 38 0.848
-8.2209 -14.8492 15.9906 4 236 4 0.980
0.4232 -0.6988 2.0697 129 209 20 0.694
-6.1871 3.3409 6.8905 29 216 29 0.881
-10.3401 -12.8674 14.2395 4 236 4 0.980
-4.1916 2.8764 13.0710 96 218 20 0.782
-3.5293 -5.1738 10.6425 46 202 46 0.815
-12.0117 -12.3051 11.8546 4 236 4 0.980
-2.4590 -2.6237 10.8666 26 218 26 0.892
3.7900 5.3582 5.4506 129 209 20 0.694
7.1594 8.8045 14.0854 138 207 20 0.672
-9.1721 -14.1189 14.8891 4 236 4 0.980
-5.4764 6.3815 8.6887 96 218 20 0.782
-7.2307 -14.5207 16.8903 4 236 4 0.980
-7.6090 -4.6922 10.9717 117 212 20 0.727
-1.9402 6.5484 12.5194 113 213 20 0.738
-1.1529 -0.4639 7.7507 16 227 16 0.936
-6.6613 6.4850 9.1760 105 215 20 0.760
-3.6698 -17.4860 19.2950 38 209 38 0.848
-3.7333 -17.6950 19.0560 38 209 38 0.848
-11.8227 5.9241 16.4843 133 208 20 0.683
2.9072 -2.0307 8.8932 92 219 20 0.793
-12.2106 -11.7270 11.8514 4 236 4 0.980
-11.0451 7.7381 16.3617 117 212 20 0.727
-11.7139 -11.9896 12.7486 4 236 4 0.980
-5.4176 3.3624 7.2773 16 227 16 0.936
-3.0627 3.8670 8.4522 109 214 20 0.749
-0.4162 6.0556 6.8853 46 202 46 0.815
-9.8150 -13.2183 14.8634 4 236 4 0.980
-1.8874 1.8170 8.2436 96 218 20 0.782
-11.6762 -4.5786 11.4001 121 211 20 0.716
2.4173 -0.7681 11.6302 48 200 48 0.804
4.7020 -5.9761 13.4986 142 206 20 0.661
-12.9951 1.6244 10.4256 138 207 20 0.672
-8.3128 -14.6363 15.6497 4 236 4 0.980
5.2054 6.0376 8.6577 109 214 20 0.749
-0.2316 6.5903 10.3259 38 209 38 0.848
6.5995 3.0156 12.2556 142 206 20 0.661
-1.5330 -18.4092 20.4286 109 214 20 0.749
-12.5563 -11.3064 11.1797 21 222 21 0.914
-12.1762 -12.1769 11.5896 4 236 4 0.980
-7.8580 -14.2264 16.2161 4 236 4 0.980
-4.2991 6.1711 7.1579 113 213 20 0.738
4.0559 6.1573 9.2119 100 217 20 0.771
9.8314 -4.8168 13.0807 129 209 20 0.694
-9.6660 -13.0186 14.7089 4 236 4 0.980
-7.5004 -7.2336 10.9197 142 206 20 0.661
-8.1581 2.5526 6.0732 48 200 48 0.804
-11.2261 -12.8493 12.8935 4 236 4 0.980
6.2889 5.2127 12.4283 125 210 20 0.705
-8.4672 -14.4910 15.5848 4 236 4 0.980
1.5914 2.8965 11.0297 21 222 21 0.914
0.5071 4.8686 4.7607 109 214 20 0.749
6.0852 7.9777 11.7290 105 215 20 0.760
-4.2591 4.8918 6.8157 96 218 20 0.782
-7.0549 0.4220 6.3988 129 209 20 0.694
0.8160 6.6436 11.9450 96 218 20 0.782
-1.2316 -16.3852 18.2864 26 218 26 0.892
6.3397 -0.8254 6.2071 125 210 20 0.705
7.9660 4.6552 4.0940 133 208 20 0.683
-1.9792 -18.3216 20.3401 105 215 20 0.760
-1.0189 -0.5290 7.9769 7 233 7 0.969
-10.1903 -11.8172 11.8004 4 236 4 0.980
3.2663 -0.0283 8.5251 43 205 43 0.826
4.4913 0.1709 2.1040 125 210 20 0.705
-1.9790 -18.3305 20.3491 105 215 20 0.760
-5.0167 -3.0426 6.0419 4 236 4 0.980
-11.1413 -12.5068 13.5414 4 236 4 0.980
-9.8294 -13.7334 14.9314 4 236 4 0.980
9.2344 -5.3883 12.7606 129 209 20 0.694
-10.1678 -13.2128 14.1304 4 236 4 0.980
-10.4802 -9.3684 9.0223 92 219 20 0.793
1.0599 -2.6723 9.4141 18 225 18 0.925
-8.3804 -14.1031 16.2260 4 236 4 0.980
1.1761 -3.0147 10.5186 100 217 20 0.771
14.2110 8.3674 14.7871 133 208 20 0.683
10.8225 -1.1819 15.5718 129 209 20 0.694
-1.0508 -0.5091 7.9176 7 233 7 0.969
-8.0048 -14.3255 16.5234 4 236 4 0.980
-5.8062 -4.8853 10.5656 109 214 20 0.749
2.2622 6.4181 7.5975 121 211 20 0.716
-0.6731 4.9561 8.1078 29 216 29 0.881
-6.7621 -14.9365 17.4331 4 236 4 0.980
6.0692 0.9421 8.6529 121 211 20 0.716
-0.4557 6.0951 6.9226 40 207 40 0.837
-8.7497 6.8095 14.9911 92 219 20 0.793
-5.0684 6.2655 8.3423 96 218 20 0.782
9.4141 -0.6541 14.1900 133 208 20 0.683
-8.2250 -14.5655 15.6975 4 236 4 0.980
-1.4157 -1.9181 10.8312 32 214 32 0.870
-2.6454 5.6591 9.2441 96 218 20 0.782
-1.2966 -1.4635 7.3711 4 236 4 0.980
1.2786 0.8121 5.4710 121 211 20 0.716
-14.8198 6.6975 15.6254 142 206 20 0.661
-11.8188 -12.4717 12.1481 4 236 4 0.980
4.2100 -2.5020 11.2569 125 210 20 0.705
1.5729 -4.0614 6.8448 129 209 20 0.694
-4.5591 -16.0153 17.6197 21 222 21 0.914
3.4416 3.0796 9.4095 32 214 32 0.870
-12.5563 -11.6223 11.0450 21 222 21 0.914
-3.1301 -5.0142 9.7219 92 219 20 0.793
-0.9901 -2.8664 9.7658 43 205 43 0.826
-10.3661 -11.1211 10.9167 18 225 18 0.925
-12.3651 -11.5085 11.6329 7 233 7 0.969
3.4844 1.8438 9.5559 4 236 4 0.980
-5.7202 6.3661 9.7756 105 215 20 0.760
-0.1665 -1.1448 10.9746 4 236 4 0.980
2.1981 1.2635 6.4046 125 210 20 0.705
-7.4575 0.9159 13.3239 121 211 20 0.716
-4.4454 6.7149 13.8730 121 211 20 0.716
-12.0557 -11.8351 12.2776 4 236 4 0.980
-10.2754 -11.4720 11.4390 4 236 4 0.980
-1.1262 -0.6021 11.5882 40 207 40 0.837
-7.6175 -6.4813 14.0469 138 207 20 0.672
-9.5084 -13.3439 15.0909 4 236 4 0.980
-2.1257 2.9926 2.2281 105 215 20 0.760
1.9895 0.0683 0.7219 117 212 20 0.727
-3.4001 -5.1850 10.1562 40 207 40 0.837
13.5066 8.1576 14.4913 133 208 20 0.683
-9.3026 6.8375 13.7073 100 217 20 0.771
1.3136 0.2130 10.0768 4 236 4 0.980
-16.1634 6.9756 14.1009 142 206 20 0.661
-2.8128 -6.7008 10.8861 109 214 20 0.749
-3.2108 -5.2670 9.9772 92 219 20 0.793
-1.9283 -18.2208 20.3851 105 215 20 0.760
-6.1263 -15.5486 16.9864 7 233 7 0.969
1.1039 -0.3516 8.2590 10 231 10 0.958
-4.4126 -1.7154 6.5386 4 236 4 0.980
-2.0838 -18.1134 20.1401 92 219 20 0.793
1.4234 -1.7357 10.1827 4 236 4 0.980
-4.7131 7.1626 12.8031 117 212 20 0.727
-4.1233 -3.8396 10.6398 32 214 32 0.870
-5.5163 3.5323 7.1038 16 227 16 0.936
-5.3215 -4.3154 5.4503 32 214 32 0.870
-4.8623 1.2398 7.5407 46 202 46 0.815
-0.8897 -2.8872 10.3339 46 202 46 0.815
-8.5713 -5.8548 9.4224 138 207 20 0.672
-9.4731 7.6428 15.9746 105 215 20 0.760
-10.0004 -12.3252 12.4237 4 236 4 0.980
3.3455 0.4117 9.3792 24 220 24 0.903
-1.7076 3.0649 12.2387 92 219 20 0.793
-7.3488 0.6236 12.7468 117 212 20 0.727
-6.9221 -14.4897 16.7925 4 236 4 0.980
-6.7792 -2.6850 5.4295 35 211 35 0.859
3.8096 2.1906 9.8191 24 220 24 0.903
-1.5675 -2.1101 10.8516 32 214 32 0.870
15.1198 7.5250 10.6256 142 206 20 0.661
2.9690 2.7273 10.0326 21 222 21 0.914
5.7881 6.9687 10.2450 96 218 20 0.782
0.8515 -2.7212 9.9028 32 214 32 0.870
-9.7890 -6.3897 13.5123 142 206 20 0.661
1.5406 -0.2931 10.4393 4 236 4 0.980
-2.3905 4.0149 5.6977 105 215 20 0.760
3.5719 0.1168 9.2032 29 216 29 0.881
-1.1197 -3.1133 10.5174 48 200 48 0.804
0.5655 5.4712 9.7035 40 207 40 0.837
-1.1882 -0.4014 7.9768 24 220 24 0.903
4.1922 -0.4078 11.3687 100 217 20 0.771
3.1311 2.9147 10.2114 18 225 18 0.925
-7.3015 -14.5857 16.3464 4 236 4 0.980
-2.3644 2.7911 1.9332 109 214 20 0.749
-11.2087 -0.1576 13.1438 138 207 20 0.672
5.5777 1.2990 2.7974 133 208 20 0.683
5.6805 0.2499 11.2680 109 214 20 0.749
-2.4267 -16.0519 17.8655 13 229 13 0.947
0.7026 -1.1462 8.3212 4 236 4 0.980
-5.8405 0.2866 12.5666 113 213 20 0.738
-9.2074 -4.1784 11.4037 117 212 20 0.727
-4.4285 1.5502 12.3896 105 215 20 0.760
-1.0315 -1.3291 7.6976 4 236 4 0.980
3.7882 5.2417 9.9665 48 200 48 0.804
10.7089 -1.1969 15.3741 129 209 20 0.694
-8.5267 1.9000 13.4234 129 209 20 0.694
-1.1705 -5.9814 10.7451 129 209 20 0.694
-3.2829 -0.7180 7.6739 10 231 10 0.958
-4.8808 -2.8363 11.0079 35 211 35 0.859
-5.6860 3.3324 6.7193 29 216 29 0.881
1.1050 -1.4691 8.5092 4 236 4 0.980
-0.9906 -2.3398 7.1716 4 236 4 0.980
7.1085 -0.1891 10.0291 113 213 20 0.738
-4.0477 3.4385 4.8630 96 218 20 0.782
-7.7486 -1.4055 12.9260 125 210 20 0.705
-3.6107 -6.3244 9.6287 113 213 20 0.738
-1.9442 6.9801 13.1841 117 212 20 0.727
-2.3457 -18.2453 20.2618 96 218 20 0.782
-5.5600 -1.3565 12.0968 109 214 20 0.749
-3.6111 1.7401 14.6206 125 210 20 0.705
-2.7395 -2.4551 6.8687 4 236 4 0.980
-2.1275 0.4943 11.6549 46 202 46 0.815
-5.1518 2.0207 12.4142 109 214 20 0.749
-6.8465 -14.9074 17.2431 4 236 4 0.980
4.0620 2.9827 10.2916 35 211 35 0.859
-2.4393 3.9366 5.6173 100 217 20 0.771
2.3910 -1.1480 5.7194 117 212 20 0.727
-8.7465 -5.2663 10.3930 109 214 20 0.749
-6.2293 -3.8987 11.1295 100 217 20 0.771
2.2166 4.1485 10.8666 26 218 26 0.892
9.9892 7.0298 8.5149 133 208 20 0.683
-2.3908 -15.9115 17.3240 13 229 13 0.947
2.5626 0.4409 8.4607 40 207 40 0.837
-1.5857 1.6637 11.3461 43 205 43 0.826
-3.5155 -15.9935 17.5577 24 220 24 0.903
-6.0296 -3.9504 5.3176 26 218 26 0.892
-1.7370 -16.3282 18.1408 16 227 16 0.936
-3.4381 -3.4335 12.6678 109 214 20 0.749
-0.9891 -1.7944 8.3992 4 236 4 0.980
0.7195 -1.1977 8.0476 4 236 4 0.980
-2.4274 -16.0498 17.8643 13 229 13 0.947
-3.1546 -5.1403 11.7336 92 219 20 0.793
-7.5062 -14.7950 17.1708 4 236 4 0.980
-4.0921 -2.6968 6.2551 4 236 4 0.980
8.4338 7.4134 8.9918 125 210 20 0.705
15.0219 8.6212 18.4512 142 206 20 0.661
-9.8701 7.4207 15.4845 92 219 20 0.793
-0.8391 -5.8061 9.1717 121 211 20 0.716
-10.1290 -11.9596 11.9047 4 236 4 0.980
-9.3626 -12.5069 13.9656 4 236 4 0.980
3.0949 0.2977 8.9613 24 220 24 0.903
-6.4651 2.9299 6.7893 18 225 18 0.925
1.2917 -0.2814 9.4546 4 236 4 0.980
7.2470 -0.4722 11.4407 113 213 20 0.738
-4.6282 6.6079 13.3340 117 212 20 0.727
-2.3074 -15.8491 17.4436 13 229 13 0.947
8.1097 4.7550 3.9679 138 207 20 0.672
3.9602 6.0024 8.2742 100 217 20 0.771
9.5081 -6.6137 12.1740 129 209 20 0.694
-3.3477 4.2341 12.9440 121 211 20 0.716
-9.1618 6.6417 13.2688 109 214 20 0.749
-2.7914 -3.5530 6.3199 7 233 7 0.969
4.0802 2.4010 9.8333 26 218 26 0.892
-1.5381 6.5132 8.0755 35 211 35 0.859
4.2771 -0.2436 9.7333 40 207 40 0.837
-2.9609 -2.8175 9.2646 105 215 20 0.760
2.0153 -2.0785 9.8164 21 222 21 0.914
-11.2372 -10.4618 8.4342 100 217 20 0.771
1.1851 3.2392 11.1948 48 200 48 0.804
-9.5945 -6.0528 11.4189 121 211 20 0.716
-2.4882 -4.1675 10.2970 43 205 43 0.826
-1.5937 -16.1674 18.0588 18 225 18 0.925
7.1310 7.1163 8.7503 117 212 20 0.727
-10.4300 -10.8410 10.3444 21 222 21 0.914
5.3216 2.0929 8.4106 117 212 20 0.727
2.1742 6.4070 7.7501 117 212 20 0.727
-4.5053 -1.8923 7.2161 4 236 4 0.980
-0.9420 5.1212 9.1276 26 218 26 0.892
5.3646 7.7885 9.7296 109 214 20 0.749
0.6536 0.2667 9.0823 4 236 4 0.980
-4.0115 4.0840 7.9143 96 218 20 0.782
1.5368 -1.2883 11.4419 24 220 24 0.903
-5.6004 6.3313 8.9456 100 217 20 0.771
7.7619 5.0885 6.0020 133 208 20 0.683
-4.1911 -2.0736 11.7230 43 205 43 0.826
0.0338 -0.3210 8.8893 4 236 4 0.980
-11.0486 9.0853 13.2870 138 207 20 0.672
-10.5547 6.9378 14.7821 96 218 20 0.782
-1.1309 -0.3502 11.1187 26 218 26 0.892
-5.5397 -6.2192 9.3766 133 208 20 0.683
-2.6429 -16.5871 18.5373 4 236 4 0.980
5.7425 -3.8178 6.8149 113 213 20 0.738
-0.3247 6.8655 12.1346 100 217 20 0.771
5.8105 7.4477 10.7246 96 218 20 0.782
2.2533 -2.0680 4.9774 121 211 20 0.716
1.1149 -0.3096 8.7791 4 236 4 0.980
-9.2401 5.8094 14.4671 92 219 20 0.793
-7.0799 -14.3840 16.6441 4 236 4 0.980
10.2883 6.1335 6.2325 142 206 20 0.661
-3.4743 -2.1778 10.9365 40 207 40 0.837
-0.9859 3.5191 3.3740 48 200 48 0.804
1.8825 1.1381 11.9784 46 202 46 0.815
-4.1233 1.5609 12.7129 100 217 20 0.771
-1.1800 -1.3607 7.4349 4 236 4 0.980
-8.3826 -14.7100 15.7437 4 236 4 0.980
-6.2940 -2.9530 5.4727 29 216 29 0.881
6.8745 -3.0377 11.5007 121 211 20 0.716
-5.1288 -1.4201 11.4915 100 217 20 0.771
-3.8979 -3.6390 10.5313 29 216 29 0.881
-1.1821 -1.5988 10.9471 32 214 32 0.870
-1.0966 -16.2003 18.0177 26 218 26 0.892
-1.1583 -0.3368 11.3270 32 214 32 0.870
-6.9897 2.7868 6.6976 10 231 10 0.958
-8.7513 7.2118 15.6602 100 217 20 0.771
0.9930 -5.6382 8.7104 121 211 20 0.716
-3.4071 1.8469 8.9141 48 200 48 0.804
-11.8222 2.5054 20.5240 142 206 20 0.661
-5.2866 -4.2319 5.6065 26 218 26 0.892
7.4361 -3.2104 9.7625 121 211 20 0.716
3.3075 3.0639 10.3373 21 222 21 0.914
-5.0860 6.2681 8.6825 96 218 20 0.782
1.4256 3.3652 10.6864 26 218 26 0.892
-1.1578 -0.4225 7.8917 18 225 18 0.925
-1.1210 -3.7920 6.9318 21 222 21 0.914
-6.2336 2.9543 5.9573 21 222 21 0.914
-5.1577 -4.4137 10.7901 46 202 46 0.815
-0.5327 5.3531 8.8166 26 218 26 0.892
-3.0644 2.3043 12.7556 40 207 40 0.837
-3.0035 -2.6532 6.6043 4 236 4 0.980
-9.9996 -4.6570 10.4592 113 213 20 0.738
-3.7122 3.7525 6.9051 46 202 46 0.815
-10.5041 -9.3852 9.0331 92 219 20 0.793
-10.1117 -13.0808 14.7300 4 236 4 0.980
-8.5330 -0.1162 16.2470 142 206 20 0.661
1.3476 -0.1036 10.4075 4 236 4 0.980
-8.6093 -14.4326 15.3788 4 236 4 0.980
-0.2764 -2.9846 6.9093 13 229 13 0.947
2.5434 -2.8070 5.0327 133 208 20 0.683
-1.1553 -1.2335 7.3333 7 233 7 0.969
-4.0381 -17.3103 19.1128 43 205 43 0.826
-5.6882 2.5430 16.5364 142 206 20 0.661
-10.6913 -5.6034 10.0968 117 212 20 0.727
-1.7280 3.0827 2.2449 96 218 20 0.782
17.6667 3.8643 11.6637 142 206 20 0.661
-3.6682 -3.4026 10.5912 26 218 26 0.892
-10.9811 6.6475 15.2066 113 213 20 0.738
12.1977 5.1670 7.0877 142 206 20 0.661
-4.8315 1.1615 7.1486 48 200 48 0.804
8.3434 7.2868 7.9953 125 210 20 0.705
4.8945 1.1780 8.5561 29 216 29 0.881
14.5188 11.5375 13.0308 142 206 20 0.661
3.6116 0.3929 9.7346 18 225 18 0.925
6.3075 5.3595 10.7216 121 211 20 0.716
-1.5768 1.5957 11.8503 40 207 40 0.837
1.3273 0.2107 9.8244 4 236 4 0.980
-7.7941 5.6837 15.0265 113 213 20 0.738
5.3290 7.3186 6.9178 138 207 20 0.672
-6.0580 2.8728 7.1575 32 214 32 0.870
-6.0355 -4.1604 11.2409 96 218 20 0.782
-3.1453 -1.4215 6.9258 4 236 4 0.980
-3.3004 3.2245 3.9495 96 218 20 0.782
-0.9113 -2.2184 7.1597 4 236 4 0.980
-8.3488 -14.1093 15.6098 4 236 4 0.980
0.8122 2.8253 9.3269 105 215 20 0.760
6.0395 7.2572 11.2410 92 219 20 0.793
-4.1600 -2.6901 6.3383 4 236 4 0.980
-2.8060 -2.8566 7.5167 4 236 4 0.980
-1.7382 -4.1114 6.5688 24 220 24 0.903
3.1745 5.5899 5.2932 117 212 20 0.727
-8.1403 -14.4514 15.3947 4 236 4 0.980
-7.1220 -1.9087 5.6207 48 200 48 0.804
-9.5806 -12.6642 14.3566 4 236 4 0.980
2.5526 0.4666 8.0861 46 202 46 0.815
-7.7590 6.8007 14.5998 100 217 20 0.771
-4.5929 -2.8805 10.7359 38 209 38 0.848
-6.1373 3.9007 7.9047 32 214 32 0.870
0.7524 4.3938 9.9110 38 209 38 0.848
6.3250 -0.9370 8.4789 117 212 20 0.727
-0.0757 5.4069 10.0584 46 202 46 0.815
-3.7079 -1.9355 11.6448 46 202 46 0.815
-6.0112 -2.7614 11.8231 105 215 20 0.760
-0.4558 6.0060 6.6408 46 202 46 0.815
-2.6123 -3.4815 6.5689 4 236 4 0.980
10.8852 -3.4867 17.1178 142 206 20 0.661
-5.4418 6.1245 9.9282 100 217 20 0.771
3.2381 0.5015 9.3907 21 222 21 0.914
3.2844 5.1743 10.6193 92 219 20 0.793
-11.6286 -10.7580 10.2030 4 236 4 0.980
1.8378 -1.7959 8.2640 21 222 21 0.914
-6.4840 -3.5400 5.1287 29 216 29 0.881
13.1669 -0.3755 8.6804 142 206 20 0.661
-3.2785 -1.3950 7.1777 4 236 4 0.980
-15.7334 0.3672 14.2579 142 206 20 0.661
7.1878 8.1847 11.9859 121 211 20 0.716
-7.8070 2.5124 6.0626 40 207 40 0.837
3.4073 3.1488 10.2845 18 225 18 0.925
-2.4953 -3.2402 6.4193 4 236 4 0.980
-5.8443 -3.1754 5.5740 18 225 18 0.925
-3.7395 3.8003 7.9899 100 217 20 0.771
-10.1654 -2.4876 9.6496 133 208 20 0.683
5.9752 7.7949 11.4366 100 217 20 0.771
10.2666 3.5671 17.5176 142 206 20 0.661
-4.4510 -0.8761 7.0232 10 231 10 0.958
0.2941 6.7862 11.6291 96 218 20 0.782
-1.9904 -3.0648 6.8663 4 236 4 0.980
-4.4997 4.8213 6.6982 46 202 46 0.815
-1.6326 -14.7900 16.5308 109 214 20 0.749
-2.3491 -4.3063 6.3049 29 216 29 0.881
5.3616 4.3420 9.9572 125 210 20 0.705
-7.1482 -4.5679 10.3931 117 212 20 0.727
-0.9469 -3.6370 6.7213 18 225 18 0.925
-1.7751 -16.2920 18.1248 16 227 16 0.936
-4.9058 5.7551 7.9707 100 217 20 0.771
-0.2428 3.2536 11.4340 48 200 48 0.804
-2.6969 -6.1821 8.9337 113 213 20 0.738
-6.1404 3.1433 6.7643 26 218 26 0.892
0.9670 4.2900 10.0922 35 211 35 0.859
3.6243 7.1171 11.6600 113 213 20 0.738
-10.4842 -10.7422 11.5554 4 236 4 0.980
-4.2424 2.4568 12.0099 109 214 20 0.749
3.0256 7.3399 9.6982 113 213 20 0.738
-4.2861 -1.8423 6.7247 4 236 4 0.980
-0.7374 -1.4158 9.4759 4 236 4 0.980
-6.9178 -3.5246 5.6954 29 216 29 0.881
-3.8763 3.7534 5.1950 100 217 20 0.771
-1.1356 -3.3499 11.2198 92 219 20 0.793
3.2161 5.1405 10.5063 48 200 48 0.804
0.8003 5.9839 10.5271 40 207 40 0.837
-1.1532 5.3873 9.4918 32 214 32 0.870
-0.8891 5.3937 9.3912 29 216 29 0.881
-2.5671 -3.5429 6.3376 4 236 4 0.980
3.2356 -0.8499 10.4942 21 222 21 0.914
-5.7052 -3.3219 5.6872 16 227 16 0.936
0.7041 -0.4564 8.8045 4 236 4 0.980
6.7433 -0.5257 6.9467 117 212 20 0.727
-4.9683 -0.5197 7.2302 32 214 32 0.870
-5.6188 0.6331 6.5880 100 217 20 0.771
-0.9567 -3.8369 7.0932 21 222 21 0.914
-4.0288 1.0599 7.6705 40 207 40 0.837
-1.9861 -2.0150 7.2957 4 236 4 0.980
-1.6133 2.8704 11.8157 92 219 20 0.793
11.7173 9.8101 11.7528 138 207 20 0.672
-7.5514 4.6033 9.7159 133 208 20 0.683
-7.3232 3.9208 8.2248 109 214 20 0.749
-1.9810 -16.7599 18.8068 10 231 10 0.958
-9.5693 -13.3117 15.0703 4 236 4 0.980
-1.6083 1.0022 8.2261 46 202 46 0.815
-1.1532 -2.4674 7.4009 4 236 4 0.980
-1.6066 0.9840 8.1635 46 202 46 0.815
-3.2213 -15.9802 17.6805 16 227 16 0.936
14.2000 4.1253 17.7918 142 206 20 0.661
0.6722 4.5259 10.1705 29 216 29 0.881
-4.0850 3.3285 4.9036 100 217 20 0.771
-12.6537 -11.2900 11.2214 21 222 21 0.914
-9.9917 -13.2921 14.8259 4 236 4 0.980
-1.2203 -1.5103 7.6141 4 236 4 0.980
-3.5922 -15.9044 17.6101 24 220 24 0.903
-3.2860 -16.1735 17.4865 21 222 21 0.914
-1.4683 -16.1956 18.0284 21 222 21 0.914
4.6921 -2.3941 6.9705 121 211 20 0.716
-12.4139 -11.4632 11.6441 10 231 10 0.958
3.0107 2.2640 12.0330 92 219 20 0.793
-3.2276 0.7429 7.8528 43 205 43 0.826
-1.6234 2.1253 8.9204 113 213 20 0.738
3.0047 5.7495 5.3975 113 213 20 0.738
5.8980 -2.2690 11.4259 121 211 20 0.716
8.3387 -3.6200 11.2774 125 210 20 0.705
-2.8564 -1.6320 6.8571 4 236 4 0.980
-7.9994 2.5669 6.1924 43 205 43 0.826
-3.7645 3.3781 4.7732 100 217 20 0.771
12.0945 -5.3342 17.2477 142 206 20 0.661
-6.7030 -2.7977 5.4379 32 214 32 0.870
8.7718 -4.1577 6.2626 142 206 20 0.661
-0.1408 3.8007 2.6610 113 213 20 0.738
-4.3229 -1.4405 6.6015 4 236 4 0.980
-4.5285 -0.4331 6.7870 18 225 18 0.925
0.4808 0.1756 8.5862 7 233 7 0.969
-2.8406 -3.8626 6.6120 21 222 21 0.914
1.9692 -1.5160 9.2235 4 236 4 0.980
-6.8785 -3.1387 5.0604 32 214 32 0.870
7.5002 -1.8554 13.1675 138 207 20 0.672
-1.6134 2.1919 9.1617 113 213 20 0.738
-1.2905 -16.1465 17.9948 21 222 21 0.914
6.6710 -3.3053 8.5435 117 212 20 0.727
-10.4935 -9.2518 8.9542 96 218 20 0.782
8.2024 0.4541 6.3090 129 209 20 0.694
1.6495 0.4090 5.4997 117 212 20 0.727
-1.7583 3.3659 2.5699 96 218 20 0.782
5.7997 -2.3390 6.9580 109 214 20 0.749
7.6754 5.2775 6.2558 138 207 20 0.672
-4.0459 -4.2557 5.6631 24 220 24 0.903
3.3934 3.1098 9.6109 29 216 29 0.881
-3.8816 3.3291 4.6808 100 217 20 0.771
-1.3628 -15.9706 18.1770 21 222 21 0.914
5.9506 -4.8753 7.7129 125 210 20 0.705
-4.8082 -7.1216 12.5796 142 206 20 0.661
-3.2959 -1.6796 6.6980 4 236 4 0.980
1.5524 0.3559 10.4821 7 233 7 0.969
0.4811 5.7117 9.9483 35 211 35 0.859
2.3040 7.4357 10.9000 100 217 20 0.771
-1.4713 -16.1101 17.9305 18 225 18 0.925
5.6806 2.9690 8.5117 121 211 20 0.716
-4.2412 -2.6920 6.4459 4 236 4 0.980
-2.9962 -1.7427 7.3037 4 236 4 0.980
-0.8735 -4.6053 6.7945 92 219 20 0.793
-5.5726 -3.5520 5.6384 18 225 18 0.925
-3.8328 3.8610 7.9262 100 217 20 0.771
-3.2063 -1.4378 7.1442 4 236 4 0.980
4.0087 5.9034 8.1302 109 214 20 0.749
-3.6433 1.4648 7.8055 48 200 48 0.804
-6.9435 2.7435 6.5775 13 229 13 0.947
-1.5461 4.0713 5.1857 113 213 20 0.738
2.2099 -5.0447 8.0101 121 211 20 0.716
-5.5851 -3.5556 5.5248 18 225 18 0.925
-3.0729 -2.3707 6.8851 4 236 4 0.980
4.0665 2.1336 10.1308 24 220 24 0.903
-4.5688 -4.4335 11.4093 38 209 38 0.848
-0.6657 -3.7185 6.7394 26 218 26 0.892
-8.9525 -13.8581 15.1944 4 236 4 0.980
2.9661 2.7526 10.0336 21 222 21 0.914
2.0944 1.6533 11.3165 40 207 40 0.837
-10.3869 -11.1141 10.7330 18 225 18 0.925
-3.9023 -1.1099 6.9094 7 233 7 0.969
-3.0037 3.1706 3.1551 48 200 48 0.804
3.2073 1.6453 10.4343 7 233 7 0.969
-2.1837 3.0728 2.3578 100 217 20 0.771
-0.3842 2.9145 10.7949 38 209 38 0.848
-4.1927 2.9205 3.1094 113 213 20 0.738
9.7615 10.2423 14.7995 142 206 20 0.661
-1.6659 4.1739 5.5090 117 212 20 0.727
0.5520 7.3032 9.1700 117 212 20 0.727
-10.4595 -10.6200 9.9945 21 222 21 0.914
-0.1326 5.5318 9.6164 40 207 40 0.837
4.4688 7.1336 12.1370 109 214 20 0.749
-3.1779 0.7805 7.4948 40 207 40 0.837
1.0007 2.4540 9.2490 121 211 20 0.716
9.3248 -1.5732 9.4253 138 207 20 0.672
0.0773 1.2001 11.5072 29 216 29 0.881
-3.1562 -1.8091 7.0285 4 236 4 0.980
-5.6633 -3.6716 5.5928 18 225 18 0.925
-1.8172 -16.3892 18.2806 16 227 16 0.936
4.8477 6.0250 12.5416 125 210 20 0.705
-8.0675 2.4257 5.9654 48 200 48 0.804
-11.2016 1.5042 8.3186 121 211 20 0.716
-11.1044 1.5814 6.6453 125 210 20 0.705
-8.3371 -1.1844 5.2718 133 208 20 0.683
0.5901 -1.2262 8.0572 4 236 4 0.980
0.6668 5.2616 6.9932 92 219 20 0.793
-3.0833 -1.8347 7.3269 4 236 4 0.980
-0.4109 4.2983 4.3337 100 217 20 0.771
-12.3922 -11.7082 11.2286 13 229 13 0.947
-8.4029 2.1820 6.0361 96 218 20 0.782
-4.6809 -17.2005 19.0318 46 202 46 0.815
0.8756 -1.3287 8.2591 4 236 4 0.980
-8.6541 -13.9038 15.7144 4 236 4 0.980
6.5570 8.2154 14.1672 138 207 20 0.672
3.3736 0.2313 1.7301 105 215 20 0.760
-8.4229 -13.9942 15.8687 4 236 4 0.980
-6.2186 3.1004 6.6851 26 218 26 0.892
-0.4667 4.3852 4.7809 109 214 20 0.749
-10.9743 1.5121 6.3098 125 210 20 0.705
-6.3831 -14.6342 16.4705 4 236 4 0.980
1.7842 5.6678 6.6695 109 214 20 0.749
-6.7360 2.6459 6.5672 13 229 13 0.947
-0.5003 4.2705 4.4906 105 215 20 0.760
-3.6165 0.8177 7.5701 43 205 43 0.826
-1.3314 -16.4073 18.3494 26 218 26 0.892
-3.1795 1.4526 7.7516 43 205 43 0.826
-12.3989 -11.6211 11.1966 13 229 13 0.947
-7.3435 -14.3523 16.0681 4 236 4 0.980
1.3863 6.0257 10.9642 43 205 43 0.826
-6.2235 -9.7632 13.3003 142 206 20 0.661
-7.0230 7.4784 12.0721 129 209 20 0.694
-10.5561 -9.6369 9.6837 35 211 35 0.859
-10.5683 -10.0837 10.4653 24 220 24 0.903
-10.5365 -10.1739 10.3359 24 220 24 0.903
3.4200 6.1177 10.1589 48 200 48 0.804
-10.4981 -9.8393 9.2866 40 207 40 0.837
-8.2625 -1.1074 4.9776 133 208 20 0.683
-10.5523 -10.3518 10.8504 26 218 26 0.892
-5.7811 7.5187 13.5964 113 213 20 0.738
-0.5082 6.0938 6.3573 92 219 20 0.793
13.0777 -4.7076 19.9231 142 206 20 0.661
-1.4866 1.5814 11.6204 38 209 38 0.848
8.1029 -5.4513 10.4556 133 208 20 0.683
-1.5667 -1.9860 11.8016 38 209 38 0.848
2.3161 5.9151 7.1808 113 213 20 0.738
-7.3464 -13.9294 16.1426 4 236 4 0.980
-4.6149 -4.1665 12.9218 129 209 20 0.694
-1.4739 6.2567 7.9166 32 214 32 0.870
-8.8221 -1.6673 14.0223 133 208 20 0.683
-8.0085 -4.5744 15.1268 142 206 20 0.661
4.5081 -2.9672 7.8485 125 210 20 0.705
6.1076 -3.6056 7.7505 113 213 20 0.738
-10.2422 -11.5858 11.3734 4 236 4 0.980
-10.3242 -11.3146 11.1220 7 233 7 0.969
-10.4623 -10.9094 11.7212 4 236 4 0.980
-2.0070 -0.5895 12.7600 113 213 20 0.738
-1.5449 6.5389 8.5238 43 205 43 0.826
-0.7135 5.9362 6.4260 46 202 46 0.815
-1.7900 -3.7031 11.2946 92 219 20 0.793
1.7134 4.7628 3.3872 121 211 20 0.716
-1.9654 1.6114 12.4615 48 200 48 0.804
-12.4397 -11.9526 15.8365 142 206 20 0.661
-0.0497 -2.8657 10.5047 35 211 35 0.859
3.5779 0.1997 9.2570 32 214 32 0.870
-10.0126 -12.2888 12.4408 4 236 4 0.980
-10.2780 -11.5390 12.6042 4 236 4 0.980
-10.1705 -11.8201 13.0279 4 236 4 0.980
6.0993 -1.0034 7.9467 117 212 20 0.727
5.8579 -1.2027 7.3983 117 212 20 0.727
0.8608 1.5870 11.5001 35 211 35 0.859
-9.4088 -13.5484 15.1346 4 236 4 0.980
-9.5120 -13.4275 15.1478 4 236 4 0.980
-8.0994 -14.5426 15.6586 4 236 4 0.980
-5.1201 -2.9487 5.8213 4 236 4 0.980
-3.8615 -3.4939 10.8313 26 218 26 0.892
6.0101 1.2302 13.0786 138 207 20 0.672
-8.4326 -14.5781 15.4793 4 236 4 0.980
-4.5032 -16.7464 18.4742 24 220 24 0.903
12.3887 -4.2568 13.7743 142 206 20 0.661
-0.0944 -1.6405 8.1990 4 236 4 0.980
5.3744 0.5687 12.5448 117 212 20 0.727
1.9086 0.0965 0.8059 117 212 20 0.727
4.6639 -2.9804 10.3040 129 209 20 0.694
2.8720 -1.1217 10.1325 4 236 4 0.980
-0.4035 -0.7232 8.9314 4 236 4 0.980
6.6829 -0.7290 12.6567 113 213 20 0.738
3.9658 -4.9523 9.1547 138 207 20 0.672
0.4403 0.0652 9.7439 10 231 10 0.958
-2.3747 2.1893 13.5386 100 217 20 0.771
7.8295 0.4897 4.6303 133 208 20 0.683
0.8475 2.9732 11.6219 48 200 48 0.804
5.2459 0.7180 2.1814 129 209 20 0.694
-9.3003 -13.5002 14.1002 4 236 4 0.980
1.0092 -1.7902 11.1941 35 211 35 0.859
-0.5364 0.5729 11.5601 26 218 26 0.892
10.3655 3.5066 12.3310 142 206 20 0.661
1.5678 0.2115 1.0784 109 214 20 0.749
13.7647 7.3447 14.3085 133 208 20 0.683
4.7886 6.0532 12.2522 117 212 20 0.727
-8.9723 -0.7930 10.0935 230 157 30 0.330
10.7241 -0.9672 18.9808 230 127 30 0.240
5.6414 4.7533 11.6825 230 163 30 0.349
0.9281 -2.7455 3.3738 230 153 30 0.320
11.3814 9.2928 10.0852 230 124 30 0.229
3.8249 -1.4968 2.2377 230 105 30 0.172
16.2889 2.2593 20.3789 230 126 30 0.234
2.3954 8.7158 4.9755 230 124 30 0.228
8.3295 3.8504 3.9335 230 142 30 0.285
10.8066 -4.4137 13.6519 230 162 30 0.345
13.6316 2.1905 6.0991 230 148 30 0.302
19.7811 3.8442 11.2620 230 110 30 0.186
-11.5487 1.7084 8.0114 230 122 30 0.222
7.3676 5.3698 2.1771 230 101 30 0.158
-9.8804 8.7128 13.3585 230 148 30 0.302
1.6059 0.1653 -0.5730 230 140 30 0.279
-12.6002 -3.5253 13.9681 230 108 30 0.181
-5.3048 -5.6184 14.2771 230 131 30 0.251
-4.6556 2.0491 18.0548 230 102 30 0.161
3.5026 -0.5698 3.7661 230 106 30 0.175
15.2915 10.0757 15.2647 230 147 30 0.301
9.5015 7.4677 3.0999 230 148 30 0.302
3.7849 -2.4247 4.9036 230 121 30 0.220
-11.0676 3.5569 12.0131 230 125 30 0.231
-5.1270 3.3033 12.2788 230 128 30 0.241
-5.5383 2.6621 10.9470 230 116 30 0.205
-8.8001 9.5199 16.1710 230 111 30 0.188
-5.6422 0.5318 7.9041 230 130 30 0.246
-10.3000 0.3032 11.8410 230 105 30 0.169
10.4265 3.5340 9.9504 230 148 30 0.302
12.9119 -5.6211 16.1811 230 118 30 0.212
-9.4775 1.7925 11.2051 230 163 30 0.349
-17.2483 9.5290 14.6384 230 161 30 0.344
-13.8842 -12.9007 12.9667 230 134 30 0.261
-12.0263 2.3000 16.7825 230 120 30 0.218
8.4234 -3.3239 16.9179 230 159 30 0.336
-9.3543 -2.3166 5.2673 230 111 30 0.188
8.4414 1.9349 12.0860 230 116 30 0.203
6.6291 -4.6633 14.5848 230 158 30 0.334
4.8972 -1.5039 10.1046 230 153 30 0.318
-3.8698 -5.3305 11.0192 230 126 30 0.235
8.1027 7.6331 5.7582 230 100 30 0.156
14.3426 3.9937 15.0421 230 115 30 0.202
-9.7315 3.5355 16.1190 230 115 30 0.203
-5.9031 6.0310 10.2952 230 144 30 0.291
-5.8336 -3.6864 14.0862 230 130 30 0.247
6.7579 -2.6669 6.0369 230 138 30 0.272
4.1282 -5.5429 8.2307 230 142 30 0.286
10.3539 -3.8825 20.9974 230 141 30 0.281
11.3018 -1.7158 17.3627 230 107 30 0.178
5.4708 4.8461 4.2698 230 146 30 0.298
-9.4292 -2.8375 16.8023 230 157 30 0.331
8.1691 4.1410 12.6434 230 107 30 0.178
-9.8602 4.0862 9.3285 230 147 30 0.301
-11.2056 0.4849 10.0715 230 159 30 0.336
-14.1039 2.1131 11.9116 230 163 30 0.349
11.4101 7.4970 13.7311 230 102 30 0.161
-7.4195 -9.7765 11.5047 230 151 30 0.313
13.9111 -5.2830 17.8493 230 106 30 0.174
7.3844 -1.0383 3.0601 230 125 30 0.232
-8.1068 0.5773 3.8512 230 130 30 0.247
-8.9894 4.4866 12.8369 230 103 30 0.163
-11.6680 -2.6220 8.5192 230 107 30 0.178
-7.0649 -6.6105 14.9224 230 142 30 0.284
8.2077 -3.4336 11.3502 230 99 30 0.153
-15.2753 1.5535 14.2724 230 102 30 0.163
0.0331 -3.0471 1.3073 230 131 30 0.251
-12.2940 4.5174 21.2348 230 103 30 0.166
6.9024 -5.0080 11.1588 230 115 30 0.201
-10.9585 8.8005 13.7492 230 122 30 0.222
5.1084 3.8800 12.4191 230 142 30 0.285
10.0806 5.4527 15.1914 230 162 30 0.346
7.3920 1.2669 13.5905 230 120 30 0.216
10.8204 -5.6507 8.4040 230 156 30 0.329
-6.8437 2.0042 8.9094 230 159 30 0.337
9.5654 2.8098 3.0314 230 145 30 0.293
0.7546 -2.0271 4.5932 230 142 30 0.286
3.6093 7.5409 6.3602 230 111 30 0.189
2.3473 -3.2238 5.5781 230 162 30 0.346
-3.7638 -7.5650 9.3227 230 160 30 0.339
-17.0885 9.9982 16.4699 230 131 30 0.252
10.3672 -10.2003 16.3788 230 138 30 0.273
10.4531 -4.5097 13.3667 230 113 30 0.197
4.0652 -0.6160 2.4240 230 138 30 0.274
-7.5577 -0.4197 18.2910 230 154 30 0.322
10.4196 -0.8741 5.8912 230 125 30 0.233
-18.2277 5.5214 13.3336 230 159 30 0.336
-11.8662 -2.8407 12.8552 230 161 30 0.342
-12.2475 -3.7446 13.1265 230 106 30 0.175
7.9960 11.8547 15.9412 230 137 30 0.269
-4.2103 -6.9681 10.8397 230 125 30 0.233
13.0386 -1.2653 14.1610 230 145 30 0.293
-12.0372 -0.4173 9.6389 230 109 30 0.183
9.6109 -5.3096 8.8232 230 158 30 0.335
6.5112 -5.3717 11.7562 230 161 30 0.342
-5.6395 5.7389 10.0026 230 147 30 0.301
5.6080 -3.1172 11.5837 230 116 30 0.205
11.3913 -7.0121 14.8352 230 149 30 0.307
-7.3817 2.6168 11.4854 230 161 30 0.343
6.1725 -7.0048 9.0903 230 126 30 0.235
3.4624 6.2516 4.5791 230 131 30 0.251
7.3241 -5.4992 9.4286 230 152 30 0.315
8.8769 1.0023 9.1399 230 136 30 0.268
11.6193 -1.2896 15.1179 230 155 30 0.324
14.1480 4.7218 6.4869 230 114 30 0.198
-7.0002 0.4615 14.8291 230 141 30 0.281
-8.7310 7.6007 10.9029 230 154 30 0.321
13.7415 7.8168 16.5635 230 138 30 0.272
-4.7172 -6.6776 7.7375 230 146 30 0.297
-16.0161 6.9217 14.7966 230 118 30 0.209
10.0820 -0.4740 15.3218 230 142 30 0.284
8.7553 -5.9886 15.6510 230 109 30 0.183
10.7902 7.2767 10.0992 230 126 30 0.235
15.9945 11.5870 14.3511 230 144 30 0.290
-3.9197 -3.2978 15.0279 230 161 30 0.343
6.5501 -3.0364 14.4382 230 157 30 0.330
13.5534 4.2931 9.2120 230 110 30 0.185
-5.5453 -5.3891 14.5839 230 126 30 0.234
-6.6939 5.6287 14.2578 230 144 30 0.291
10.7869 -2.1395 12.8646 230 142 30 0.283
17.4730 6.3928 15.1112 230 148 30 0.304
-5.6841 4.3054 8.5705 230 100 30 0.155
-13.0230 1.4256 13.7475 230 142 30 0.286
10.0350 1.9411 10.8364 230 133 30 0.257
9.7836 -1.9299 15.6566 230 108 30 0.180
12.1133 10.1843 10.1101 230 106 30 0.173
-7.5881 -0.5747 5.7782 230 138 30 0.271
-3.6693 -5.9095 14.9450 230 128 30 0.241
12.3617 11.9105 11.6847 230 117 30 0.208
13.9624 -8.7744 18.5444 230 163 30 0.349
11.1987 2.6499 17.7396 230 146 30 0.296
6.9931 6.6345 3.0812 230 101 30 0.158
9.6579 -7.4486 17.4800 230 127 30 0.239
1.8602 0.7939 1.6983 230 123 30 0.226
2.4135 -6.4448 12.8184 230 127 30 0.237
8.2857 -4.8590 6.6836 230 136 30 0.267
-11.1560 -6.0040 7.3243 230 151 30 0.312
7.3822 0.7101 3.3905 230 109 30 0.184
-14.0988 2.1615 15.5508 230 163 30 0.348
5.0184 -7.7698 13.6332 230 152 30 0.316
-10.9668 7.7182 18.7507 230 129 30 0.245
3.2841 8.9386 7.8977 230 138 30 0.273
13.2160 2.7613 9.4773 230 120 30 0.218
-13.6548 -2.5564 10.7912 230 153 30 0.318
-8.1714 4.4988 13.5174 230 137 30 0.269
8.7151 -8.4472 11.5089 230 125 30 0.233
-3.7398 -6.3966 13.7962 230 124 30 0.229
-8.6073 -0.6369 4.2902 230 118 30 0.210
-8.1164 -1.6817 6.1841 230 102 30 0.163
11.6944 -6.0026 15.9398 230 122 30 0.224
4.2540 6.4634 3.8666 230 113 30 0.194
9.4390 -4.1116 8.3892 230 103 30 0.163
12.6234 9.6629 20.6943 230 147 30 0.299
6.7341 0.0738 15.8979 230 156 30 0.328
9.6966 5.7392 11.3115 230 163 30 0.349
-12.7441 0.8548 7.3574 230 103 30 0.165
-7.5185 -2.6973 15.6373 230 108 30 0.180
10.8018 2.2195 11.4438 230 100 30 0.155
-10.4380 10.1374 15.6171 230 109 30 0.182
-0.4432 0.9855 5.3019 230 143 30 0.286
11.9637 7.7266 11.4208 230 128 30 0.241
-7.0619 -0.7601 14.2359 230 141 30 0.282
-8.5229 -0.0537 12.8995 230 121 30 0.220
7.3365 5.2823 4.4921 230 156 30 0.326
8.7451 5.7136 5.8382 230 99 30 0.153
7.9660 8.3619 6.9052 230 101 30 0.158
-7.4516 7.7095 11.2222 230 114 30 0.199
6.1478 0.8710 4.8696 230 99 30 0.152
12.1840 -6.5218 12.7460 230 112 30 0.193
6.0594 -5.5128 12.4529 230 142 30 0.283
9.0678 -2.2285 14.3329 230 134 30 0.259
-11.6739 2.3176 13.2196 230 148 30 0.302
-17.1007 9.0586 11.8894 230 142 30 0.285
7.2465 10.2302 10.8682 230 138 30 0.272
9.9691 0.8165 17.5643 230 157 30 0.332
13.9496 5.3669 7.6875 230 136 30 0.265
-7.7457 -7.1900 10.6700 230 148 30 0.303
-4.1721 -7.7608 12.1260 230 150 30 0.309
3.4809 -2.6915 12.2953 230 136 30 0.267
15.5723 8.1407 13.0000 230 163 30 0.349
-10.6473 -8.8457 13.0258 230 111 30 0.188
-5.7870 0.7485 5.7250 230 132 30 0.255
-13.5846 -4.6061 12.8695 230 138 30 0.273
7.5128 0.5068 5.8200 230 160 30 0.338
-6.1653 -5.1463 14.5030 230 129 30 0.246
-10.3645 -1.0047 7.6853 230 133 30 0.257
-5.4201 -1.6318 14.8273 230 106 30 0.174
-18.1903 2.9044 16.1442 230 145 30 0.294
15.2629 6.8690 10.3510 230 146 30 0.297
-14.8955 -4.6646 11.5291 230 117 30 0.209
-9.2941 -1.4374 6.6429 230 116 30 0.204
6.8294 6.4132 3.3604 230 117 30 0.208
15.9050 6.3644 19.1530 230 112 30 0.192
12.3585 7.0571 4.7149 230 152 30 0.314
-5.2778 0.9430 3.4670 230 104 30 0.168
5.2933 4.2098 3.2224 230 124 30 0.231
-11.7258 -5.4706 9.1991 230 119 30 0.214
4.3077 -0.4279 4.2617 230 131 30 0.249
7.7613 10.3508 14.1459 230 99 30 0.153
9.8260 -6.7248 16.0397 230 118 30 0.211
9.2476 -5.6733 12.8749 230 158 30 0.333
6.8826 -3.1027 11.3976 230 140 30 0.278
13.1819 14.0728 9.1091 230 139 30 0.274
-7.8998 0.9355 5.6231 230 101 30 0.159
-9.0623 -0.2631 13.5897 230 147 30 0.299
10.4952 7.8332 7.4528 230 152 30 0.317
-10.8634 -4.3006 10.9381 230 158 30 0.334
0.2544 -0.4695 1.5813 230 99 30 0.152
4.5982 -5.1941 9.3719 230 120 30 0.217
-11.1933 -5.1895 11.2819 230 131 30 0.252
-4.1789 10.3752 18.9081 230 140 30 0.277
6.4739 4.9354 3.3072 230 160 30 0.339
-16.4385 7.2514 17.2888 230 147 30 0.300
-6.4394 -0.6402 15.1068 230 134 30 0.260
5.6469 0.3298 3.7220 230 108 30 0.181
9.3788 -7.9417 11.8462 230 137 30 0.269
9.5264 -0.5692 16.7064 230 109 30 0.183
11.0275 3.9960 6.1959 230 161 30 0.344
-5.8195 -2.3501 2.9716 230 154 30 0.321
-9.0265 -0.4937 18.3529 230 102 30 0.162
8.3128 -4.1332 15.7850 230 115 30 0.200
10.8686 -2.9913 15.1064 230 113 30 0.196
-6.9259 -2.3078 4.3365 230 107 30 0.176
-7.0825 5.4860 13.8895 230 155 30 0.325
