ply
format ascii 1.0
comment Created by Open3D
element vertex 880
property double x
property double y
property double z
property double nx
property double ny
property double nz
property uchar red
property uchar green
property uchar blue
end_header
6.74425 -0.923674 11.3659 -0 -0 -1 47 57 66
-5.90724 3.70183 4.64451 -0 -0 -1 121 123 120
-4.28857 2.81621 12.6906 -0 -0 -1 56 62 74
-0.550859 5.99184 6.41487 0.122801 -0.526549 -0.841229 155 157 154
0.82248 -0.206541 10.9724 -0 -0 -1 43 52 61
-11.1948 1.42937 6.62136 -0 -0 -1 109 111 108
-10.5183 6.63354 13.9228 -0 -0 -1 179 181 178
6.08369 -4.52928 7.20198 -0 -0 -1 60 69 86
3.63316 1.95116 9.70468 -0 -0 -1 60 70 80
-12.6909 -12.093 10.8457 -0 -0 -1 16 7 0
-1.36241 -0.185125 11.677 -0 -0 -1 15 23 30
2.49318 1.65198 10.212 -0 -0 -1 18 22 31
-3.97965 -2.27103 10.487 -0 -0 -1 16 23 31
2.18527 0.907468 1.01175 -0 -0 -1 192 194 190
-5.76278 -15.0411 17.7256 -0 -0 -1 0 0 0
-11.7145 -12.3925 12.2207 -0 -0 -1 7 5 8
-5.63013 -3.39267 5.71268 0.661083 0.499646 -0.559753 53 63 73
-6.34333 -14.4192 16.7571 -0 -0 -1 83 89 29
-2.65558 -16.0567 17.8118 -0 -0 -1 3 1 1
-3.4609 1.19454 10.1329 -0 -0 -1 17 21 30
-7.91158 -14.0645 16.3436 -0 -0 -1 7 2 1
-9.92935 -13.5442 14.1709 -0 -0 -1 3 4 5
-11.1486 -4.4265 10.9207 -0 -0 -1 54 64 74
-12.2591 -3.14706 11.6779 -0 -0 -1 18 22 31
-3.3969 -5.34032 12.0872 -0 -0 -1 35 44 51
2.37889 -0.357294 5.77327 -0 -0 -1 62 71 82
-11.8881 8.89929 13.3796 -0 -0 -1 68 70 67
2.10287 5.68628 10.7674 -0 -0 -1 18 22 31
-5.04318 -17.1611 18.7609 0.564315 0.12557 -0.815954 11 4 0
1.24831 6.562 11.4528 -0 -0 -1 15 19 26
-1.76714 -18.4252 20.5065 -0.219191 -0.698887 -0.680817 9 11 0
-11.4242 -12.7245 12.5745 -0 -0 -1 7 9 3
0.878858 -4.02098 7.53847 -0 -0 -1 32 36 45
-4.19952 -4.14648 5.68768 -0 -0 -1 45 56 62
-7.81505 -2.27337 15.1561 -0 -0 -1 55 63 74
-9.56923 -13.2845 15.075 0.279443 -0.446128 -0.850224 130 134 10
-6.38001 -2.83434 5.32785 -0 -0 -1 55 63 74
-12.257 1.7469 14.3229 -0 -0 -1 50 59 68
-9.92462 -4.07206 7.58381 -0 -0 -1 36 43 49
-11.0493 -12.8727 13.554 -0 -0 -1 0 1 1
-11.4518 -12.6178 12.6287 -0 -0 -1 3 4 8
-3.97382 3.02635 7.93241 -0 -0 -1 53 61 72
-6.48806 -13.8639 16.221 -0 -0 -1 2 6 2
4.35712 6.8805 9.58151 -0 -0 -1 93 95 92
0.867227 0.603389 11.435 -0 -0 -1 16 25 32
-6.46463 -3.61594 5.22095 -0 -0 -1 18 22 31
-9.66747 -13.204 14.9723 0.60731 -0.169572 -0.776157 11 2 3
5.46937 -4.97672 10.5082 -0 -0 -1 43 52 59
-6.90576 -14.9898 16.804 -0 -0 -1 1 2 0
6.71194 7.28814 8.34496 -0 -0 -1 168 170 167
-12.4932 -11.3465 11.3279 -0 -0 -1 9 6 0
-11.1327 -12.9584 12.9759 0.825341 0.432988 -0.3624 6 8 0
7.12107 8.19266 11.86 -0 -0 -1 95 98 96
-6.51607 -14.1182 16.4646 -0 -0 -1 8 14 3
-10.8287 -12.5764 13.6425 0.859516 0.343667 0.378318 6 8 0
-8.33408 6.83158 14.2937 -0 -0 -1 150 152 147
0.659718 5.11509 5.02646 -0 -0 -1 155 157 154
-12.7365 -11.1389 10.7614 -0 -0 -1 189 195 123
2.11195 3.89775 10.3731 -0 -0 -1 57 67 79
-10.56 -9.84317 10.0429 -0 -0 -1 40 48 5
4.38832 2.49469 9.25187 -0 -0 -1 57 69 81
4.03744 1.1561 12.0988 -0 -0 -1 61 71 83
-10.9074 -12.5713 13.8166 0.859516 0.343667 0.378318 5 1 2
11.5255 5.28257 13.1064 -0 -0 -1 16 25 32
-8.41539 2.22399 5.61937 -0 -0 -1 0 0 0
7.9393 0.344114 4.96514 -0 -0 -1 119 121 118
-5.73308 6.42729 11.8962 -0 -0 -1 148 150 147
-10.9066 -13.0253 13.1571 0.52797 0.847209 0.0590327 7 3 6
-0.825034 -0.510994 10.9065 -0 -0 -1 18 22 31
-0.341678 2.09402 12.1229 -0 -0 -1 40 49 56
-3.30827 6.30594 13.6631 -0 -0 -1 36 45 52
3.26108 -2.5188 9.49474 -0 -0 -1 15 26 30
-10.809 -13.0882 13.301 0.641312 -0.297813 -0.707126 65 72 27
-5.82836 3.20833 6.8143 -0 -0 -1 101 103 98
-1.23029 0.666655 11.2523 -0 -0 -1 43 52 61
3.46506 3.42979 10.6599 -0 -0 -1 16 23 29
-2.22693 3.13135 2.58778 -0 -0 -1 72 74 71
-8.44531 -13.9156 15.8414 -0 -0 -1 98 105 67
-10.8792 -12.625 13.8012 0.859516 0.343667 0.378318 193 193 89
-2.90321 -15.9778 17.7808 -0 -0 -1 2 1 0
-10.0358 -13.3308 14.3715 -0 -0 -1 0 0 1
-1.38114 5.82269 7.26355 -0 -0 -1 194 196 193
-11.8332 -12.0894 12.2349 -0 -0 -1 1 1 3
1.05799 -1.34272 10.0681 -0 -0 -1 15 22 30
7.82748 -2.40175 10.4234 -0 -0 -1 55 72 80
-10.797 -13.1213 13.2855 0.641312 -0.297813 -0.707126 7 10 0
-11.7573 -12.0127 12.5726 -0 -0 -1 6 3 0
-5.53778 -0.298073 6.62441 -0 -0 -1 55 63 74
3.79717 0.0291883 9.11073 -0 -0 -1 53 63 73
2.69356 0.278038 10.549 -0 -0 -1 43 52 61
-10.5416 -9.52524 9.47981 -0 -0 -1 34 35 0
-5.65767 3.09515 6.14947 -0 -0 -1 144 146 143
-6.07713 -1.06063 14.7531 -0 -0 -1 55 64 73
-5.33723 -16.7581 18.2771 -0 -0 -1 7 8 0
-6.52196 7.3028 11.8373 -0 -0 -1 76 78 75
-9.68112 -12.6734 14.2234 -0 -0 -1 0 0 12
-5.40535 3.75118 7.13517 -0 -0 -1 149 151 148
-5.1439 -16.8668 18.3962 -0 -0 -1 7 6 1
-0.35623 -0.959711 7.87317 -0 -0 -1 18 22 31
2.3053 -1.42747 9.59266 -0 -0 -1 58 70 82
-11.8283 1.57717 9.06377 -0 -0 -1 27 30 35
0.716377 0.401398 10.7269 -0 -0 -1 36 45 52
3.13366 2.98976 10.0919 -0 -0 -1 18 22 31
11.0621 9.22221 10.3136 -0 -0 -1 86 88 85
-1.19211 5.73883 8.10525 -0 -0 -1 127 129 126
-2.11163 -16.6046 18.3208 -0 -0 -1 9 4 0
0.899976 -1.26911 10.3189 -0 -0 -1 18 22 31
7.35719 -2.32996 8.90007 -0 -0 -1 15 24 31
-12.6993 -11.2462 10.8265 -0 -0 -1 6 9 0
-4.95552 -17.0997 18.831 0.564315 0.12557 -0.815954 0 3 0
-1.72219 3.1321 2.31516 -0 -0 -1 116 118 115
-10.0553 -12.1812 12.2529 -0 -0 -1 7 3 6
-9.23924 -15.4494 17.2699 -0 -0 -1 0 1 1
-6.3832 -15.4609 16.9034 -0 -0 -1 1 1 6
-1.76081 -18.3966 20.475 -0.219191 -0.698887 -0.680817 9 11 0
-10.1919 -11.7545 13.0392 0.175497 0.221204 -0.959307 5 1 2
11.3346 -1.06144 16.074 -0 -0 -1 0 0 0
0.279349 -0.575038 2.03007 -0 -0 -1 74 78 74
-8.71159 -13.9153 15.9021 0.260106 0.937128 0.232672 102 114 49
-7.97819 2.51698 6.10214 0.0542296 0.835715 -0.54648 208 213 209
-9.0632 -12.6767 14.2235 -0 -0 -1 0 0 0
-5.04423 -17.095 18.7704 0.143193 0.683707 -0.71557 72 70 55
-1.65522 3.05499 12.1718 -0 -0 -1 16 27 33
-10.2048 -13.015 14.3999 -0 -0 -1 6 8 1
-6.21789 -15.7282 17.1698 -0 -0 -1 51 54 25
3.83191 1.54984 12.4302 -0 -0 -1 22 27 32
1.6726 -0.860176 5.1356 -0 -0 -1 57 71 82
2.25292 -1.0839 2.54314 -0 -0 -1 56 68 80
1.32432 -0.0959483 10.4572 -0 -0 -1 36 46 52
-6.68393 3.05023 6.43815 -0 -0 -1 179 181 178
5.69396 7.28381 10.1732 -0 -0 -1 85 87 84
-5.75094 3.25371 6.5614 0.4832 0.687841 -0.541657 101 103 100
-9.49409 -12.8355 14.4972 -0 -0 -1 2 3 0
1.29157 -1.42401 8.46271 -0 -0 -1 55 63 74
-4.87943 6.80028 13.2167 -0 -0 -1 150 152 147
-7.32111 -15.3502 17.8491 -0 -0 -1 6 6 8
-0.150679 3.71311 2.45721 -0 -0 -1 81 83 80
-8.88672 -13.8376 15.684 0.739956 0.546706 -0.391889 11 13 6
-10.134 -11.9654 12.1272 -0 -0 -1 4 3 2
13.6584 6.81505 9.32357 -0 -0 -1 113 114 109
-9.97325 -12.3792 12.6343 -0 -0 -1 0 0 0
1.50569 -1.58315 8.40745 -0 -0 -1 55 63 74
-11.5947 -12.5273 12.3781 -0 -0 -1 1 0 1
-1.46887 -1.85583 11.0461 -0 -0 -1 62 72 81
-10.2831 -11.7054 12.7153 -0 -0 -1 16 12 0
-8.81725 -13.8819 15.7534 0.567239 0.808607 -0.156191 1 2 0
-2.3021 -15.8323 17.3952 0.724202 -0.671914 -0.155121 200 202 135
-7.05028 3.75277 9.51229 -0 -0 -1 34 38 47
-1.71962 4.00285 8.89307 -0 -0 -1 94 99 95
-1.1314 -2.54701 7.79648 -0 -0 -1 58 71 80
-1.05573 -4.46145 6.67835 -0 -0 -1 56 66 76
-5.18631 -16.7884 18.4447 -0 -0 -1 7 4 0
2.4279 5.76011 10.701 -0 -0 -1 18 22 31
-8.67836 -13.9705 15.8865 0.854212 0.432703 0.288252 13 8 0
2.30149 5.31902 4.87578 -0 -0 -1 155 157 154
8.48472 7.47312 5.82239 -0 -0 -1 180 182 179
-8.33634 -14.1772 16.1968 -0 -0 -1 3 5 0
0.851292 -4.05118 7.5344 -0 -0 -1 32 36 45
-2.42696 -16.5059 18.3009 -0 -0 -1 63 63 0
-11.8964 7.96452 17.0743 -0 -0 -1 180 182 179
-10.658 -10.3068 9.01107 -0 -0 -1 16 7 0
-3.44015 1.52234 7.581 -0 -0 -1 14 23 28
-8.57302 -14.4908 15.4698 0.658072 0.69661 -0.28579 21 18 0
-9.00159 -13.4314 14.9095 -0 -0 -1 1 1 2
-3.6164 -2.11638 6.88122 -0 -0 -1 18 22 31
-4.17337 -2.39994 11.5105 -0 -0 -1 16 22 28
-10.1776 -13.3751 13.8556 -0 -0 -1 1 3 0
-10.1767 -4.943 10.822 -0 -0 -1 55 63 74
-12.9665 -11.9404 10.0683 -0 -0 -1 3 1 2
3.42232 6.25082 10.1549 -0 -0 -1 93 101 107
0.921653 -5.62685 8.80102 -0 -0 -1 32 36 47
0.0217292 6.79465 12.4221 -0 -0 -1 46 57 64
-7.49421 -15.013 16.2231 -0 -0 -1 0 3 1
-11.0747 -12.9272 13.1451 0.494327 0.808948 -0.318187 4 3 2
-4.48256 -1.59888 6.95403 -0 -0 -1 53 61 72
0.801151 -2.51147 8.00093 -0 -0 -1 53 61 72
-10.1336 -3.18378 7.79602 -0 -0 -1 8 13 19
-10.5048 -12.7326 14.0293 -0 -0 -1 2 4 0
-10.6833 -13.075 13.3797 0.418653 0.507082 -0.753391 3 4 2
0.749698 4.95898 5.76448 -0 -0 -1 138 140 137
-5.57969 6.23898 8.32028 -0 -0 -1 203 205 202
-6.02301 -5.51526 14.1375 -0 -0 -1 32 41 46
4.90177 1.1849 8.41114 -0 -0 -1 35 39 48
-7.07135 -0.560747 13.2227 -0 -0 -1 33 40 48
-9.92011 -13.6023 14.1168 0.790807 0.479864 -0.379941 1 8 5
-6.42605 -14.6525 16.4971 -0 -0 -1 0 1 5
7.1301 -0.233686 10.2745 -0 -0 -1 15 24 31
-10.2181 -11.8788 13.0057 0.175497 0.221204 -0.959307 0 0 0
1.87376 0.111814 0.852075 0.0249632 0.954675 -0.2966 0 0 0
-11.681 -1.73348 9.68765 -0 -0 -1 6 11 17
-0.291272 -0.983717 8.0707 -0 -0 -1 18 22 31
-8.92634 -14.283 15.1047 -0 -0 -1 1 1 13
-7.03141 -0.450872 7.05764 -0 -0 -1 39 43 52
-7.23319 5.12341 14.0338 -0 -0 -1 53 61 72
-0.330896 -0.15022 11.009 -0 -0 -1 43 52 61
1.6237 -0.321301 5.20063 -0 -0 -1 57 71 82
-7.70718 -14.8961 16.1028 -0 -0 -1 0 0 4
-10.4091 -10.7405 10.9034 -0 -0 -1 1 1 3
-1.41132 6.22492 7.83967 -0 -0 -1 194 196 193
-0.621706 6.79469 11.8964 -0 -0 -1 163 168 164
-2.95449 3.37255 3.17502 -0 -0 -1 95 97 94
3.413 0.393904 1.33179 -0 -0 -1 60 70 79
-1.06354 -2.42664 7.1264 0.27904 0.248903 -0.927461 30 40 49
-5.76733 -16.639 18.208 -0 -0 -1 0 0 0
-6.59088 -15.3896 16.7925 -0 -0 -1 3 2 5
-4.56814 2.72079 12.8435 -0 -0 -1 57 65 76
-4.38659 -1.52997 6.62694 -0 -0 -1 55 63 74
4.31684 -0.850229 4.46502 -0 -0 -1 184 186 183
-1.90135 -0.721869 10.9762 -0 -0 -1 16 25 32
0.834209 -2.33632 8.18203 -0 -0 -1 15 20 23
-1.94636 -18.374 20.5116 0.0802704 -0.698458 -0.711135 91 96 35
16.352 9.41347 17.0918 -0 -0 -1 212 214 211
-5.35463 -15.6798 17.2037 -0 -0 -1 3 4 4
1.74812 4.90344 4.39796 -0 -0 -1 155 157 154
-10.4684 -10.7362 11.3372 -0 -0 -1 6 3 0
-1.84613 2.76043 12.0047 -0 -0 -1 16 23 31
-3.42748 -17.7469 19.7014 -0 -0 -1 2 1 0
7.50155 6.21163 13.1078 -0 -0 -1 63 73 83
-10.2161 -12.9385 14.445 -0 -0 -1 2 6 2
-7.29724 -1.06554 12.4419 -0 -0 -1 39 43 52
-9.36932 -13.4654 15.2337 0.536462 0.529547 -0.657106 114 122 17
1.46436 -0.783465 9.74296 -0 -0 -1 61 71 81
-9.58345 -12.9271 14.555 0.699808 -0.712713 -0.0480545 1 0 6
-1.20985 -2.41444 7.08565 -0 -0 -1 58 68 77
-2.5635 -3.56124 6.36266 -0 -0 -1 56 66 76
3.47885 3.22334 10.3331 -0 -0 -1 15 23 30
0.125831 5.48988 8.9756 -0 -0 -1 94 96 93
-5.72414 3.32951 6.68157 0.4832 0.687841 -0.541657 103 105 102
-9.19982 -13.5618 15.4547 -0 -0 -1 11 7 6
-5.36723 6.16394 9.44028 -0 -0 -1 72 74 71
1.04762 -1.39405 10.1563 -0 -0 -1 18 22 31
3.21493 6.6195 11.1753 -0 -0 -1 15 23 30
-8.9028 -13.718 15.8204 0.739956 0.546706 -0.391889 2 3 5
0.95574 -0.289872 10.2015 -0 -0 -1 16 23 31
-7.17368 -15.1041 17.624 -0 -0 -1 6 6 8
-3.65331 -3.05261 6.4708 -0 -0 -1 55 63 74
-1.38702 4.74734 7.75083 -0 -0 -1 128 130 127
-1.52104 -5.02831 9.58393 -0 -0 -1 56 66 76
7.1208 -1.45844 10.8055 -0 -0 -1 16 25 32
11.458 -9.94165 15.2519 -0 -0 -1 43 52 61
-2.6854 6.06059 8.41086 -0 -0 -1 112 114 111
7.93688 -0.843081 11.3511 -0 -0 -1 43 52 61
-8.96635 7.132 14.7012 -0 -0 -1 100 105 101
2.59148 3.20275 15.0391 -0 -0 -1 18 22 31
9.15049 -5.1863 12.3458 -0 -0 -1 16 25 32
-8.40896 2.22156 5.91791 -0 -0 -1 41 50 59
-4.92938 -15.7025 17.1835 -0 -0 -1 7 8 0
-1.25242 7.02553 12.7443 -0 -0 -1 90 97 98
7.61808 -5.39482 9.12055 -0 -0 -1 43 52 61
-0.0682785 7.15247 12.6318 -0 -0 -1 91 98 106
4.63591 -0.636353 11.0527 -0 -0 -1 35 44 51
-5.20641 -17.0507 18.8237 -0 -0 -1 3 8 0
4.39027 -0.158334 8.4215 -0 -0 -1 53 63 73
-10.0911 -13.2398 14.5305 -0 -0 -1 1 3 2
-4.23782 -0.105873 7.14136 -0 -0 -1 36 40 49
-9.39549 -13.9811 14.664 -0 -0 -1 11 7 6
-11.9116 -0.330999 13.9321 -0 -0 -1 39 43 52
-6.95937 -15.2223 16.5993 -0 -0 -1 5 0 9
-6.00164 6.93241 9.91701 -0 -0 -1 199 201 198
-8.56967 0.124818 13.0683 -0 -0 -1 55 63 74
-0.0693051 1.49388 11.4484 -0 -0 -1 36 45 52
-2.54369 1.31104 7.9714 -0 -0 -1 18 22 31
-12.2149 -11.6286 11.9541 -0 -0 -1 3 0 0
2.7055 5.29583 3.6766 -0 -0 -1 124 126 123
5.76013 6.97725 10.2563 -0 -0 -1 59 66 72
-11.6207 -12.0984 12.8695 -0 -0 -1 0 2 0
-4.01741 2.74588 11.9805 -0 -0 -1 12 21 28
-9.47264 6.78876 14.3441 -0 -0 -1 99 101 96
-10.0396 -13.4941 14.0047 -0 -0 -1 19 18 3
-11.0258 1.64747 6.94087 -0 -0 -1 110 112 109
-6.95477 -3.62545 5.5498 -0 -0 -1 14 23 30
-9.08399 8.93939 16.7153 -0 -0 -1 148 150 147
-4.65962 -2.97917 11.0211 -0 -0 -1 0 0 0
-8.22088 -14.8492 15.9906 -0 -0 -1 5 1 5
0.423187 -0.698776 2.06965 -0 -0 -1 138 140 137
-6.18712 3.34092 6.89049 -0 -0 -1 101 103 100
-10.3401 -12.8674 14.2395 -0 -0 -1 1 3 11
-4.19157 2.87639 13.071 -0 -0 -1 18 22 31
-3.52925 -5.17375 10.6425 -0 -0 -1 36 45 52
-12.0117 -12.3051 11.8546 -0 -0 -1 0 1 5
-2.459 -2.62373 10.8666 -0 -0 -1 60 70 82
3.78995 5.35823 5.45058 -0 -0 -1 185 187 184
7.15943 8.80453 14.0854 -0 -0 -1 57 67 77
-9.17211 -14.1189 14.8891 -0 -0 -1 0 1 2
-5.47639 6.38154 8.68871 -0 -0 -1 54 56 53
-7.23067 -14.5207 16.8903 -0 -0 -1 8 8 0
-7.60901 -4.69218 10.9717 -0 -0 -1 35 39 48
-1.94019 6.54843 12.5194 -0 -0 -1 36 45 50
-1.15294 -0.46391 7.75072 -0 -0 -1 18 22 31
-6.66128 6.48499 9.17595 -0 -0 -1 69 71 68
-3.66979 -17.486 19.295 -0 -0 -1 0 2 3
-3.73327 -17.695 19.056 -0 -0 -1 0 1 3
-11.8227 5.92406 16.4843 -0 -0 -1 34 38 47
2.90716 -2.03074 8.8932 -0 -0 -1 62 72 81
-12.2106 -11.727 11.8514 -0 -0 -1 2 1 0
-11.0451 7.73805 16.3617 -0 -0 -1 149 152 149
-11.7139 -11.9896 12.7486 0.858617 0.436388 -0.268965 36 34 10
-5.41756 3.36243 7.27727 -0 -0 -1 51 59 64
-3.06267 3.86698 8.45223 -0 -0 -1 36 45 52
-0.416185 6.05563 6.88531 -0 -0 -1 117 119 116
-9.81498 -13.2183 14.8634 0.423031 -0.773611 -0.471774 1 1 4
-1.88742 1.81703 8.2436 -0 -0 -1 18 22 31
-11.6762 -4.57859 11.4001 -0 -0 -1 55 64 73
2.41727 -0.768069 11.6302 -0 -0 -1 16 25 32
4.70204 -5.97609 13.4986 -0 -0 -1 57 67 79
-12.9951 1.62445 10.4256 -0 -0 -1 199 201 199
-8.3128 -14.6363 15.6497 -0.656544 0.747701 0.0994624 130 136 10
5.2054 6.03755 8.65773 -0 -0 -1 63 65 62
-0.231635 6.59028 10.3259 -0 -0 -1 127 129 126
6.59953 3.01564 12.2556 -0 -0 -1 60 70 82
-1.53299 -18.4092 20.4286 -0 -0 -1 14 22 0
-12.5563 -11.3064 11.1797 -0.23013 -0.959664 -0.161506 34 35 0
-12.1762 -12.1769 11.5896 -0 -0 -1 88 80 54
-7.85802 -14.2264 16.2161 -0 -0 -1 3 2 0
-4.29911 6.17106 7.15789 -0 -0 -1 114 116 113
4.05593 6.15728 9.21192 -0 -0 -1 121 124 119
9.83135 -4.81678 13.0807 -0 -0 -1 0 0 0
-9.66602 -13.0186 14.7089 -0 -0 -1 3 1 1
-7.50044 -7.23362 10.9197 -0 -0 -1 45 55 64
-8.1581 2.55255 6.07316 0.286509 0.765001 -0.576789 209 211 208
-11.2261 -12.8493 12.8935 -0 -0 -1 28 28 0
6.28886 5.21265 12.4283 -0 -0 -1 40 49 58
-8.46725 -14.491 15.5848 0.492542 0.743727 -0.451965 7 1 0
1.59144 2.89647 11.0297 -0 -0 -1 18 22 31
0.507128 4.86865 4.76065 -0 -0 -1 155 157 154
6.08521 7.97768 11.729 -0 -0 -1 92 97 100
-4.25913 4.89175 6.8157 -0 -0 -1 201 203 200
-7.05485 0.422033 6.39877 -0 -0 -1 50 59 68
0.815997 6.64355 11.945 -0 -0 -1 120 125 131
-1.2316 -16.3852 18.2864 -0 -0 -1 6 7 0
6.33972 -0.825414 6.20713 -0 -0 -1 35 44 51
7.96604 4.65523 4.094 -0 -0 -1 20 19 15
-1.97916 -18.3216 20.3401 0.903467 -0.331068 -0.272289 197 209 67
-1.0189 -0.529022 7.97691 0.640128 0.763102 -0.0889511 16 23 31
-10.1903 -11.8172 11.8004 -0 -0 -1 28 28 0
3.26634 -0.0282852 8.52507 -0 -0 -1 52 64 73
4.49132 0.170885 2.10405 -0 -0 -1 111 113 110
-1.97904 -18.3305 20.3491 0.903467 -0.331068 -0.272289 197 209 67
-5.01672 -3.04263 6.0419 -0 -0 -1 35 39 48
-11.1413 -12.5068 13.5414 -0 -0 -1 206 206 145
-9.82944 -13.7334 14.9314 -0 -0 -1 0 1 2
9.23443 -5.3883 12.7606 -0 -0 -1 16 25 32
-10.1678 -13.2128 14.1304 -0 -0 -1 0 1 0
-10.4802 -9.36841 9.0223 -0.0326504 -0.506729 -0.861487 6 9 0
1.05993 -2.67233 9.41409 -0 -0 -1 31 40 47
-8.38037 -14.1031 16.226 -0 -0 -1 116 118 66
1.17609 -3.0147 10.5186 -0 -0 -1 58 70 82
14.211 8.36745 14.7871 -0 -0 -1 158 160 157
10.8225 -1.18192 15.5718 -0 -0 -1 0 0 0
-1.05084 -0.509144 7.91762 0.610386 0.792094 -0.00411243 18 22 31
-8.00483 -14.3255 16.5234 -0 -0 -1 56 62 29
-5.80616 -4.8853 10.5656 -0 -0 -1 55 63 74
2.26222 6.41811 7.59749 -0 -0 -1 177 179 176
-0.673072 4.95608 8.10785 -0 -0 -1 92 94 91
-6.76206 -14.9365 17.4331 -0 -0 -1 130 128 86
6.06924 0.942072 8.65287 -0 -0 -1 53 61 72
-0.455667 6.09507 6.9226 -0 -0 -1 117 119 116
-8.74968 6.80949 14.9911 -0 -0 -1 32 35 41
-5.06844 6.26546 8.34229 -0 -0 -1 206 208 205
9.41408 -0.654092 14.19 -0 -0 -1 44 54 63
-8.22502 -14.5655 15.6975 -0.313265 0.76725 -0.559636 10 1 0
-1.41568 -1.91813 10.8312 -0 -0 -1 60 70 79
-2.64538 5.65914 9.24406 -0 -0 -1 127 129 126
-1.29655 -1.46347 7.37114 -0 -0 -1 62 71 78
1.27857 0.812123 5.47103 -0 -0 -1 43 52 61
-14.8198 6.69751 15.6254 -0 -0 -1 207 213 210
-11.8188 -12.4717 12.1481 -0 -0 -1 158 162 24
4.21002 -2.50199 11.2569 -0 -0 -1 61 71 83
1.57289 -4.06144 6.8448 -0 -0 -1 46 56 65
-4.55908 -16.0153 17.6197 -0 -0 -1 17 14 8
3.44158 3.07957 9.40953 -0 -0 -1 18 22 33
-12.5563 -11.6223 11.045 -0 -0 -1 0 0 0
-3.13014 -5.01425 9.72188 -0 -0 -1 57 67 75
-0.990062 -2.86636 9.76581 -0 -0 -1 30 39 46
-10.3661 -11.1211 10.9167 -0 -0 -1 7 5 8
-12.3651 -11.5085 11.6329 -0 -0 -1 40 48 5
3.48435 1.84382 9.55587 -0 -0 -1 60 71 81
-5.72023 6.36605 9.77563 -0 -0 -1 72 74 71
-0.166472 -1.14476 10.9746 -0 -0 -1 18 22 31
2.19812 1.26355 6.40459 -0 -0 -1 16 25 32
-7.45751 0.91585 13.3239 -0 -0 -1 54 64 74
-4.44535 6.71494 13.873 -0 -0 -1 36 45 52
-12.0557 -11.8351 12.2776 -0 -0 -1 204 212 69
-10.2754 -11.472 11.439 -0 -0 -1 3 4 8
-1.12624 -0.602104 11.5882 -0 -0 -1 16 23 31
-7.61746 -6.4813 14.0469 -0 -0 -1 55 63 74
-9.50843 -13.3439 15.0909 -0.131048 -0.529878 -0.837888 148 157 67
-2.1257 2.99259 2.22805 -0 -0 -1 170 172 169
1.98946 0.068345 0.721899 0.0249632 0.954675 -0.2966 0 0 0
-3.40012 -5.18496 10.1562 -0 -0 -1 57 67 75
13.5066 8.15762 14.4913 -0 -0 -1 158 160 157
-9.30258 6.83748 13.7073 -0 -0 -1 103 105 102
1.31362 0.212992 10.0768 -0 -0 -1 18 22 31
-16.1634 6.97559 14.1009 -0 -0 -1 180 182 179
-2.81283 -6.7008 10.8861 -0 -0 -1 56 66 76
-3.21076 -5.267 9.9772 -0 -0 -1 56 66 76
-1.92831 -18.2208 20.3851 0.903467 -0.331068 -0.272289 14 5 1
-6.12634 -15.5486 16.9864 -0 -0 -1 51 54 25
1.10392 -0.35156 8.25899 -0 -0 -1 37 46 53
-4.41259 -1.71545 6.53856 -0 -0 -1 16 22 30
-2.08378 -18.1134 20.1401 -0 -0 -1 14 1 0
1.42336 -1.73575 10.1827 -0 -0 -1 55 63 74
-4.71313 7.16259 12.8031 -0 -0 -1 93 95 92
-4.1233 -3.83962 10.6398 -0 -0 -1 55 63 74
-5.51626 3.53226 7.10379 -0 -0 -1 147 149 146
-5.32147 -4.31538 5.45033 -0 -0 -1 46 55 62
-4.8623 1.23985 7.54067 -0 -0 -1 57 65 76
-0.889703 -2.88721 10.3339 -0 -0 -1 31 40 47
-8.57126 -5.85484 9.42243 -0 -0 -1 18 22 31
-9.47313 7.64281 15.9746 -0 -0 -1 146 151 147
-10.0004 -12.3252 12.4237 -0 -0 -1 7 10 0
3.34555 0.41169 9.37918 -0 -0 -1 17 21 30
-1.70757 3.06492 12.2387 -0 -0 -1 16 22 31
-7.34877 0.62356 12.7468 -0 -0 -1 54 64 73
-6.92208 -14.4897 16.7925 -0 -0 -1 10 5 1
-6.77917 -2.685 5.42953 -0 -0 -1 55 63 74
3.80962 2.1906 9.8191 -0 -0 -1 61 70 79
-1.56755 -2.11008 10.8516 -0 -0 -1 60 70 82
15.1198 7.52496 10.6256 -0 -0 -1 35 32 25
2.96901 2.72728 10.0326 -0 -0 -1 0 0 0
5.78805 6.96869 10.245 -0 -0 -1 59 66 72
0.851532 -2.72117 9.90278 -0 -0 -1 30 41 47
-9.78902 -6.38968 13.5123 -0 -0 -1 35 39 48
1.54064 -0.293098 10.4393 -0 -0 -1 37 46 53
-2.3905 4.01488 5.69768 -0 -0 -1 113 115 112
3.57189 0.116847 9.20322 -0 -0 -1 54 64 73
-1.11969 -3.11332 10.5174 -0 -0 -1 31 38 44
0.565471 5.47123 9.70347 -0 -0 -1 18 22 33
-1.18819 -0.401433 7.97683 0.624913 0.780099 0.0304903 15 22 30
4.19218 -0.40782 11.3687 -0 -0 -1 16 25 32
3.13106 2.91471 10.2114 -0 -0 -1 16 23 29
-7.30152 -14.5857 16.3464 -0 -0 -1 0 2 0
-2.36438 2.79113 1.93319 -0 -0 -1 114 116 113
-11.2087 -0.157632 13.1438 -0 -0 -1 39 43 52
5.57772 1.29902 2.79738 -0 -0 -1 0 0 0
5.68052 0.249891 11.268 -0 -0 -1 53 63 73
-2.42667 -16.0519 17.8655 -0 -0 -1 4 3 4
0.702606 -1.14624 8.32123 -0 -0 -1 18 22 31
-5.8405 0.286594 12.5666 -0 -0 -1 36 40 49
-9.20737 -4.17845 11.4037 -0 -0 -1 55 63 74
-4.42849 1.55025 12.3896 -0 -0 -1 57 65 76
-1.03152 -1.32906 7.6976 -0 -0 -1 8 11 15
3.78823 5.24166 9.96648 -0 -0 -1 57 67 77
10.7089 -1.19686 15.3741 -0 -0 -1 61 71 80
-8.52669 1.89997 13.4234 -0 -0 -1 36 45 52
-1.17046 -5.98142 10.7451 -0 -0 -1 32 36 45
-3.28289 -0.717984 7.67388 -0 -0 -1 55 63 74
-4.88078 -2.83627 11.0079 -0 -0 -1 18 22 31
-5.686 3.33241 6.71928 0.4832 0.687841 -0.541657 94 96 93
1.10497 -1.46906 8.50921 -0 -0 -1 0 0 0
-0.990641 -2.33983 7.17163 0.801424 -0.547369 -0.241055 31 40 45
7.1085 -0.189096 10.0291 -0 -0 -1 16 25 32
-4.04766 3.43846 4.86304 -0 -0 -1 67 69 66
-7.74865 -1.40553 12.926 -0 -0 -1 39 43 52
-3.61075 -6.32442 9.62871 -0 -0 -1 32 42 51
-1.94418 6.98006 13.1841 -0 -0 -1 36 45 52
-2.34568 -18.2453 20.2618 -0 -0 -1 5 2 3
-5.56002 -1.35648 12.0968 -0 -0 -1 55 63 74
-3.61108 1.74006 14.6206 -0 -0 -1 18 22 31
-2.73948 -2.45509 6.86867 -0 -0 -1 59 71 83
-2.12746 0.494317 11.6549 -0 -0 -1 41 50 59
-5.15181 2.02072 12.4142 -0 -0 -1 57 65 76
-6.84651 -14.9074 17.2431 -0 -0 -1 23 10 0
4.06202 2.98266 10.2916 -0 -0 -1 57 69 81
-2.4393 3.93662 5.61725 -0 -0 -1 113 115 112
2.39104 -1.14802 5.7194 -0 -0 -1 61 72 82
-8.74653 -5.26633 10.393 -0 -0 -1 55 64 73
-6.22932 -3.8987 11.1295 -0 -0 -1 55 63 74
2.21661 4.14853 10.8666 -0 -0 -1 57 67 79
9.98922 7.02985 8.51489 -0 -0 -1 202 204 201
-2.39085 -15.9115 17.324 0.724202 -0.671914 -0.155121 15 1 1
2.56262 0.440923 8.46073 -0 -0 -1 15 22 30
-1.58572 1.66365 11.3461 -0 -0 -1 18 22 31
-3.51548 -15.9935 17.5577 -0 -0 -1 9 9 0
-6.02962 -3.95042 5.31761 -0 -0 -1 18 22 31
-1.73705 -16.3282 18.1408 -0.435625 -0.705939 -0.558464 0 6 0
-3.43806 -3.4335 12.6678 -0 -0 -1 60 70 82
-0.989114 -1.79438 8.39918 -0 -0 -1 60 70 82
0.719513 -1.19774 8.04762 -0 -0 -1 18 22 31
-2.42744 -16.0498 17.8643 -0 -0 -1 4 3 4
-3.15464 -5.14029 11.7336 -0 -0 -1 35 44 51
-7.50617 -14.795 17.1708 -0 -0 -1 128 135 45
-4.09208 -2.69677 6.25507 -0 -0 -1 55 63 74
8.43378 7.41338 8.99183 -0 -0 -1 95 97 94
15.0219 8.62116 18.4512 -0 -0 -1 99 101 98
-9.8701 7.42069 15.4845 -0 -0 -1 105 107 102
-0.839077 -5.80606 9.17169 -0 -0 -1 28 37 42
-10.129 -11.9596 11.9047 -0 -0 -1 6 8 0
-9.36258 -12.5069 13.9656 -0 -0 -1 0 6 0
3.09488 0.297744 8.96134 -0 -0 -1 15 22 30
-6.46508 2.92989 6.78933 -0 -0 -1 33 37 47
1.29171 -0.281435 9.45461 -0 -0 -1 37 46 53
7.24704 -0.472239 11.4407 -0 -0 -1 53 63 73
-4.62819 6.60791 13.334 -0 -0 -1 46 54 59
-2.30738 -15.8491 17.4436 0.724202 -0.671914 -0.155121 200 202 135
8.10972 4.75504 3.96791 -0 -0 -1 90 91 86
3.96015 6.00243 8.27423 -0 -0 -1 92 94 91
9.50807 -6.61366 12.174 -0 -0 -1 0 1 0
-3.34766 4.23413 12.944 -0 -0 -1 39 48 55
-9.16178 6.64174 13.2688 -0 -0 -1 102 104 101
-2.79138 -3.55297 6.31986 -0 -0 -1 35 44 51
4.08023 2.401 9.83329 -0 -0 -1 57 69 81
-1.53808 6.51315 8.07551 -0 -0 -1 195 197 194
4.27714 -0.243639 9.73334 -0 -0 -1 53 63 73
-2.96092 -2.81749 9.26464 -0 -0 -1 60 70 82
2.01531 -2.07846 9.81642 -0 -0 -1 55 63 74
-11.2372 -10.4618 8.43423 -0 -0 -1 3 1 2
1.18509 3.23917 11.1948 -0 -0 -1 14 25 31
-9.59445 -6.05282 11.4189 -0 -0 -1 15 24 33
-2.48825 -4.16749 10.297 -0 -0 -1 35 44 51
-1.59365 -16.1674 18.0588 -0.312104 -0.720259 -0.61953 1 0 0
7.13097 7.11628 8.75031 -0 -0 -1 168 170 167
-10.43 -10.841 10.3444 -0 -0 -1 0 1 5
5.32157 2.09292 8.41057 -0 -0 -1 57 69 81
2.17422 6.40704 7.75006 -0 -0 -1 177 179 176
-4.5053 -1.89231 7.21612 -0 -0 -1 18 22 31
-0.941983 5.1212 9.12765 -0 -0 -1 166 168 165
5.36458 7.78847 9.7296 -0 -0 -1 119 121 118
0.653642 0.266745 9.0823 -0 -0 -1 36 45 52
-4.01149 4.08398 7.91425 -0 -0 -1 149 154 147
1.53683 -1.28828 11.4419 -0 -0 -1 16 25 32
-5.60043 6.33131 8.94564 -0 -0 -1 205 207 204
7.76187 5.08848 6.00199 -0 -0 -1 0 0 0
-4.19107 -2.07356 11.723 -0 -0 -1 54 64 74
0.0338473 -0.321009 8.88928 -0 -0 -1 15 24 31
-11.0486 9.08532 13.287 -0 -0 -1 206 208 205
-10.5547 6.9378 14.7821 -0 -0 -1 180 182 179
-1.13088 -0.350177 11.1187 -0 -0 -1 18 22 31
-5.53968 -6.21924 9.37658 -0 -0 -1 34 43 50
-2.64293 -16.5871 18.5373 -0 -0 -1 2 1 0
5.74255 -3.81783 6.81495 -0 -0 -1 55 69 80
-0.324653 6.86555 12.1346 -0 -0 -1 170 173 173
5.81045 7.44771 10.7246 -0 -0 -1 62 64 60
2.25333 -2.06795 4.97741 -0 -0 -1 43 52 59
1.11492 -0.309609 8.77906 -0 -0 -1 37 46 53
-9.24008 5.80936 14.4671 -0 -0 -1 34 38 47
-7.07989 -14.384 16.6441 -0 -0 -1 50 50 23
10.2883 6.13349 6.23254 -0 -0 -1 120 122 117
-3.47434 -2.17775 10.9365 -0 -0 -1 60 68 79
-0.985877 3.51913 3.37398 -0 -0 -1 155 157 154
1.88247 1.13815 11.9784 -0 -0 -1 44 54 63
-4.12334 1.56093 12.7129 -0 -0 -1 16 20 29
-1.17995 -1.36073 7.43495 0.713831 -0.516141 -0.473334 14 22 30
-8.38257 -14.71 15.7437 -0 -0 -1 4 3 0
-6.29396 -2.95303 5.4727 -0 -0 -1 55 63 74
6.87445 -3.03768 11.5007 -0 -0 -1 60 70 82
-5.12878 -1.42009 11.4915 -0 -0 -1 0 0 0
-3.89788 -3.639 10.5313 -0 -0 -1 54 64 74
-1.18205 -1.59884 10.9471 -0 -0 -1 18 22 31
-1.0966 -16.2003 18.0177 -0 -0 -1 19 26 2
-1.15831 -0.336824 11.327 -0 -0 -1 18 22 31
-6.98967 2.78685 6.69762 -0 -0 -1 53 60 68
-8.75127 7.21179 15.6602 -0 -0 -1 30 40 45
0.992976 -5.6382 8.71037 -0 -0 -1 32 36 47
-3.40707 1.84692 8.91411 -0 -0 -1 18 22 31
-11.8222 2.50542 20.524 -0 -0 -1 57 65 76
-5.28661 -4.2319 5.60646 -0 -0 -1 45 56 62
7.43608 -3.21038 9.76255 -0 -0 -1 31 40 45
3.30755 3.0639 10.3373 -0 -0 -1 18 22 31
-5.08595 6.26808 8.68248 -0 -0 -1 205 207 204
1.42561 3.36517 10.6864 -0 -0 -1 57 67 79
-1.15777 -0.42247 7.89167 0.607526 0.784072 -0.12706 18 22 31
-1.12099 -3.79203 6.93178 -0 -0 -1 56 66 76
-6.23364 2.95433 5.95726 -0 -0 -1 181 183 180
-5.15772 -4.41366 10.7901 -0 -0 -1 55 63 74
-0.532746 5.35309 8.81665 -0 -0 -1 94 96 93
-3.06435 2.30427 12.7556 -0 -0 -1 18 22 31
-3.00348 -2.65315 6.60428 -0 -0 -1 55 63 74
-9.99959 -4.65705 10.4592 -0 -0 -1 55 63 74
-3.71219 3.75249 6.90507 -0 -0 -1 97 99 96
-10.5041 -9.38523 9.0331 -0.0326504 -0.506729 -0.861487 6 9 0
-10.1117 -13.0808 14.73 -0 -0 -1 7 3 6
-8.53305 -0.116215 16.247 -0 -0 -1 36 40 49
1.3476 -0.103552 10.4075 -0 -0 -1 37 46 53
-8.60935 -14.4326 15.3788 -0 -0 -1 118 117 68
-0.276367 -2.98461 6.90931 -0 -0 -1 46 56 65
2.54338 -2.80697 5.03267 -0 -0 -1 16 25 32
-1.15534 -1.23349 7.33331 -0 -0 -1 18 22 31
-4.03808 -17.3103 19.1128 -0 -0 -1 160 159 93
-5.68824 2.54297 16.5364 -0 -0 -1 0 0 0
-10.6913 -5.60336 10.0968 -0 -0 -1 57 66 73
-1.72801 3.08269 2.24488 -0 -0 -1 117 119 116
17.6667 3.86429 11.6637 -0 -0 -1 42 40 32
-3.66821 -3.40265 10.5912 -0 -0 -1 16 23 29
-10.9811 6.64753 15.2066 -0 -0 -1 26 31 39
12.1977 5.16701 7.0877 -0 -0 -1 34 30 21
-4.83148 1.16148 7.14861 -0 -0 -1 57 65 76
8.34337 7.28683 7.9953 -0 -0 -1 87 89 86
4.89452 1.17799 8.55606 -0 -0 -1 35 39 48
14.5188 11.5375 13.0308 -0 -0 -1 120 122 119
3.61156 0.39288 9.73458 -0 -0 -1 17 21 30
6.30746 5.3595 10.7216 -0 -0 -1 44 53 60
-1.57683 1.59574 11.8503 -0 -0 -1 17 21 30
1.32725 0.210743 9.82438 -0 -0 -1 18 22 31
-7.79408 5.6837 15.0265 -0 -0 -1 53 62 71
5.32904 7.31862 6.91777 -0 -0 -1 0 0 0
-6.05797 2.87276 7.15747 -0 -0 -1 34 38 47
-6.03554 -4.16042 11.2409 -0 -0 -1 55 64 73
-3.14529 -1.42145 6.92582 -0 -0 -1 54 62 73
-3.30041 3.22445 3.94954 -0 -0 -1 115 117 114
-0.911282 -2.21839 7.15973 -0 -0 -1 31 40 47
-8.34877 -14.1093 15.6098 -0 -0 -1 0 2 1
0.812185 2.82529 9.32694 -0 -0 -1 58 68 77
6.03954 7.25718 11.241 -0 -0 -1 56 67 76
-4.15997 -2.6901 6.3383 -0.711221 -0.444557 -0.54455 54 64 74
-2.80602 -2.85659 7.51668 -0 -0 -1 32 43 47
-1.73818 -4.11143 6.56884 -0 -0 -1 56 66 76
3.17449 5.58995 5.29316 -0 -0 -1 183 185 182
-8.14033 -14.4514 15.3947 -0 -0 -1 12 11 0
-7.12195 -1.90875 5.62069 -0 -0 -1 17 21 30
-9.58056 -12.6642 14.3566 -0 -0 -1 13 3 2
2.55265 0.46662 8.08605 -0 -0 -1 15 19 28
-7.75901 6.8007 14.5998 -0 -0 -1 49 60 64
-4.59292 -2.88051 10.7359 -0 -0 -1 0 0 0
-6.1373 3.90072 7.90473 -0 -0 -1 102 104 101
0.752363 4.39384 9.91102 -0 -0 -1 12 22 30
6.32497 -0.937018 8.47895 -0 -0 -1 15 24 31
-0.0757265 5.4069 10.0584 -0 -0 -1 47 56 65
-3.70789 -1.93554 11.6448 -0 -0 -1 37 46 51
-6.01118 -2.76143 11.8231 -0 -0 -1 18 22 31
-0.455813 6.00599 6.64077 -0 -0 -1 115 117 114
-2.61228 -3.48153 6.56888 -0 -0 -1 34 45 51
10.8852 -3.48672 17.1178 -0 -0 -1 16 25 32
-5.44182 6.12445 9.92824 -0 -0 -1 149 151 148
3.23813 0.501472 9.39067 -0 -0 -1 18 22 31
3.28438 5.1743 10.6193 -0 -0 -1 18 22 31
-11.6286 -10.758 10.203 -0 -0 -1 0 2 1
1.83778 -1.79592 8.26403 -0 -0 -1 27 31 37
-6.48395 -3.53998 5.12868 -0 -0 -1 18 22 31
13.1669 -0.375535 8.68043 -0 -0 -1 140 142 139
-3.27849 -1.39505 7.17772 -0 -0 -1 55 63 74
-15.7334 0.367186 14.2579 -0 -0 -1 130 136 134
7.18775 8.18475 11.9859 -0 -0 -1 51 64 69
-7.807 2.5124 6.0626 -0 -0 -1 47 57 59
3.40734 3.14882 10.2845 -0.678336 0.725746 -0.114683 18 22 31
-2.49531 -3.24021 6.41926 -0 -0 -1 35 44 51
-5.84429 -3.17541 5.57405 -0 -0 -1 55 64 73
-3.73955 3.80029 7.98994 -0 -0 -1 35 44 51
-10.1654 -2.48755 9.64964 -0 -0 -1 11 20 27
5.97518 7.79491 11.4366 -0 -0 -1 93 97 96
10.2666 3.56715 17.5176 -0 -0 -1 60 70 82
-4.45103 -0.876115 7.0232 -0 -0 -1 55 64 73
0.294123 6.78619 11.6291 -0 -0 -1 121 123 120
-1.99037 -3.06484 6.86629 -0 -0 -1 35 44 51
-4.49973 4.82133 6.69823 -0 -0 -1 60 62 59
-1.63263 -14.79 16.5308 -0 -0 -1 1 4 1
-2.34905 -4.30625 6.30487 -0 -0 -1 56 66 76
5.3616 4.34197 9.95722 -0 -0 -1 44 53 62
-7.14815 -4.56792 10.3931 -0 -0 -1 35 39 48
-0.946899 -3.63698 6.72128 -0 -0 -1 29 36 44
-1.77509 -16.292 18.1248 -0.435625 -0.705939 -0.558464 0 4 0
-4.90575 5.7551 7.97069 -0 -0 -1 0 0 0
-0.242783 3.2536 11.434 -0 -0 -1 58 68 80
-2.69689 -6.18207 8.93373 -0 -0 -1 54 67 76
-6.14039 3.14335 6.7643 -0 -0 -1 103 105 102
0.966962 4.28997 10.0922 -0 -0 -1 57 67 79
3.6243 7.11711 11.66 -0 -0 -1 14 21 30
-10.4842 -10.7422 11.5554 -0 -0 -1 36 34 10
-4.24244 2.45678 12.0099 -0 -0 -1 55 65 75
3.02556 7.33993 9.6982 -0 -0 -1 99 101 98
-4.2861 -1.84234 6.72472 -0 -0 -1 18 22 31
-0.73742 -1.41577 9.47587 -0 -0 -1 17 22 31
-6.91782 -3.52457 5.69535 -0 -0 -1 55 63 74
-3.87628 3.75344 5.19502 -0 -0 -1 204 206 203
-1.1356 -3.34993 11.2198 -0 -0 -1 31 40 47
3.21609 5.14051 10.5063 -0 -0 -1 18 22 31
0.800334 5.98394 10.5271 -0 -0 -1 15 22 28
-1.15322 5.38732 9.49178 -0 -0 -1 165 167 164
-0.889051 5.39365 9.39124 -0 -0 -1 170 172 169
-2.56715 -3.54285 6.33762 -0 -0 -1 58 67 76
3.23556 -0.849875 10.4942 -0 -0 -1 14 25 31
-5.70517 -3.32192 5.6872 -0 -0 -1 55 63 74
0.704129 -0.456417 8.80448 -0 -0 -1 18 22 31
6.74332 -0.52566 6.94675 -0 -0 -1 16 25 32
-4.96829 -0.519707 7.23016 -0 -0 -1 55 63 74
-5.61878 0.633078 6.58799 -0 -0 -1 36 45 52
-0.956699 -3.8369 7.09323 -0 -0 -1 56 66 76
-4.02877 1.05987 7.67053 -0 -0 -1 57 65 76
-1.98607 -2.01504 7.29565 -0 -0 -1 60 70 82
-1.61331 2.87038 11.8157 -0 -0 -1 18 22 31
11.7173 9.81009 11.7528 -0 -0 -1 93 95 92
-7.55136 4.60332 9.7159 -0 -0 -1 147 152 147
-7.32316 3.92082 8.22483 -0 -0 -1 177 182 176
-1.981 -16.7599 18.8068 -0 -0 -1 5 3 4
-9.56929 -13.3117 15.0703 0.279443 -0.446128 -0.850224 132 134 11
-1.60833 1.00223 8.22614 -0 -0 -1 13 22 29
-1.1532 -2.46743 7.40094 -0 -0 -1 58 70 82
-1.60659 0.984043 8.16348 -0 -0 -1 13 22 29
-3.22126 -15.9802 17.6805 -0 -0 -1 0 2 3
14.2 4.12533 17.7918 -0 -0 -1 62 72 81
0.672232 4.52586 10.1705 -0 -0 -1 51 60 69
-4.08502 3.32854 4.90357 -0 -0 -1 203 205 202
-12.6537 -11.29 11.2214 -0 -0 -1 33 35 0
-9.99171 -13.2921 14.8259 -0 -0 -1 40 30 22
-1.22033 -1.51026 7.61407 -0 -0 -1 62 71 80
-3.59225 -15.9044 17.6101 -0 -0 -1 157 157 91
-3.28596 -16.1735 17.4865 -0 -0 -1 0 1 2
-1.46825 -16.1956 18.0284 -0.0454635 -0.834311 -0.549416 84 94 49
4.6921 -2.39409 6.97053 -0 -0 -1 57 67 77
-12.4139 -11.4632 11.6441 -0 -0 -1 66 76 11
3.0107 2.26403 12.033 -0 -0 -1 14 24 30
-3.22761 0.742907 7.85281 -0 -0 -1 18 22 31
-1.62336 2.12528 8.92038 -0 -0 -1 17 22 31
3.00474 5.74945 5.39753 -0 -0 -1 119 121 118
5.89796 -2.269 11.4259 -0 -0 -1 61 71 83
8.33874 -3.62 11.2774 -0 -0 -1 58 70 82
-2.85644 -1.63195 6.85713 -0 -0 -1 60 70 82
-7.99941 2.56688 6.19236 0.241027 0.872173 -0.425699 215 218 211
-3.76453 3.37812 4.77318 -0 -0 -1 202 204 201
12.0945 -5.33419 17.2477 -0 -0 -1 61 71 83
-6.70302 -2.79766 5.43787 -0 -0 -1 55 63 74
8.77183 -4.15767 6.26263 -0 -0 -1 40 46 49
-0.140754 3.80065 2.66105 -0 -0 -1 81 83 80
-4.32292 -1.44045 6.60152 -0 -0 -1 55 63 74
-4.52847 -0.433126 6.78697 -0 -0 -1 36 40 49
0.480809 0.175624 8.58622 -0 -0 -1 36 45 52
-2.84057 -3.86259 6.61202 -0 -0 -1 35 44 51
1.96922 -1.51596 9.22355 -0 -0 -1 55 63 74
-6.87847 -3.1387 5.06044 -0 -0 -1 18 22 31
7.50016 -1.85541 13.1675 -0 -0 -1 60 70 79
-1.61338 2.19188 9.16169 -0 -0 -1 16 20 29
-1.29046 -16.1465 17.9948 0.0824876 -0.749184 -0.657206 4 4 1
6.67098 -3.30527 8.54354 -0 -0 -1 53 61 72
-10.4935 -9.25179 8.95421 -0.0326504 -0.506729 -0.861487 189 195 123
8.20239 0.454056 6.309 -0 -0 -1 139 141 138
1.64951 0.409032 5.4997 -0 -0 -1 43 52 61
-1.7583 3.36591 2.56992 -0 -0 -1 72 74 71
5.79974 -2.33896 6.95798 -0 -0 -1 35 40 46
7.67541 5.27748 6.25582 -0 -0 -1 0 0 0
-4.04591 -4.25567 5.66305 -0 -0 -1 44 55 61
3.39338 3.10979 9.61088 -0 -0 -1 13 22 27
-3.88162 3.3291 4.6808 -0 -0 -1 60 62 59
-1.36282 -15.9706 18.177 -0 -0 -1 1 0 1
5.9506 -4.87532 7.71287 -0 -0 -1 45 49 54
-4.80817 -7.12164 12.5796 -0 -0 -1 54 67 76
-3.29587 -1.67958 6.69801 -0 -0 -1 14 23 30
1.55237 0.355924 10.4821 -0 -0 -1 16 23 31
0.481103 5.71172 9.94831 -0 -0 -1 17 21 28
2.30404 7.43574 10.9 -0 -0 -1 195 197 194
-1.47133 -16.1101 17.9305 -0.0454635 -0.834311 -0.549416 97 103 38
5.68057 2.96898 8.5117 -0 -0 -1 35 40 46
-4.24117 -2.69199 6.44589 -0 -0 -1 55 63 74
-2.99615 -1.74271 7.30371 -0 -0 -1 16 25 32
-0.873517 -4.60527 6.79447 -0 -0 -1 54 67 75
-5.57262 -3.55202 5.63836 -0.825791 0.309677 -0.471349 17 22 31
-3.83276 3.86104 7.92616 -0 -0 -1 36 46 53
-3.20633 -1.43782 7.14417 -0 -0 -1 55 63 74
4.00865 5.90337 8.13019 -0 -0 -1 92 94 91
-3.64325 1.46483 7.80547 -0 -0 -1 55 65 74
-6.94349 2.74345 6.57751 -0 -0 -1 53 60 68
-1.5461 4.07131 5.18567 -0 -0 -1 196 198 195
2.2099 -5.04472 8.01008 -0 -0 -1 45 57 64
-5.58506 -3.55556 5.52482 -0.807703 0.585398 0.070183 17 22 30
-3.07294 -2.37066 6.8851 -0 -0 -1 18 22 31
4.06647 2.13361 10.1308 -0 -0 -1 57 69 81
-4.56881 -4.4335 11.4093 -0 -0 -1 55 63 74
-0.665715 -3.7185 6.73942 -0 -0 -1 32 36 45
-8.95245 -13.8581 15.1944 -0 -0 -1 1 0 4
2.96613 2.75262 10.0336 -0 -0 -1 18 22 31
2.09442 1.65328 11.3165 -0 -0 -1 16 25 32
-10.3869 -11.1141 10.733 -0 -0 -1 158 162 24
-3.90233 -1.10995 6.90937 -0 -0 -1 55 63 74
-3.00368 3.1706 3.15511 -0 -0 -1 95 97 94
3.20735 1.6453 10.4343 -0 -0 -1 18 22 31
-2.18374 3.07277 2.35779 -0 -0 -1 73 75 72
-0.384213 2.91446 10.7949 -0 -0 -1 41 50 57
-4.19265 2.92055 3.10941 -0 -0 -1 143 145 142
9.76153 10.2423 14.7995 -0 -0 -1 60 65 59
-1.66588 4.1739 5.50897 -0 -0 -1 193 195 192
0.551952 7.30324 9.17005 -0 -0 -1 193 195 192
-10.4595 -10.62 9.99452 -0 -0 -1 88 80 54
-0.132604 5.53176 9.61641 -0 -0 -1 119 124 120
4.46878 7.13364 12.137 -0 -0 -1 124 128 129
-3.17792 0.780486 7.49478 -0 -0 -1 18 22 31
1.00073 2.45402 9.24895 -0 -0 -1 16 23 31
9.32483 -1.5732 9.4253 -0 -0 -1 35 44 51
0.0773381 1.20013 11.5072 -0 -0 -1 16 25 32
-3.15619 -1.80908 7.02847 -0 -0 -1 17 23 29
-5.66328 -3.67164 5.59283 -0.807703 0.585398 0.070183 18 22 31
-1.81723 -16.3892 18.2806 -0.435625 -0.705939 -0.558464 7 5 5
4.84775 6.02499 12.5416 -0 -0 -1 13 21 32
-8.06752 2.42565 5.96544 0.2469 0.723461 -0.644705 35 35 42
-11.2016 1.50415 8.31863 -0 -0 -1 168 173 177
-11.1044 1.58138 6.64531 -0 -0 -1 173 175 172
-8.33715 -1.18439 5.27181 -0 -0 -1 15 24 29
0.590096 -1.22616 8.05717 -0 -0 -1 18 22 31
0.666782 5.2616 6.99325 -0 -0 -1 135 137 134
-3.08332 -1.83472 7.32686 -0 -0 -1 16 23 31
-0.410876 4.29832 4.3337 -0 -0 -1 155 157 154
-12.3922 -11.7082 11.2286 -0 -0 -1 0 0 1
-8.40293 2.18203 6.03609 -0 -0 -1 41 50 59
-4.68092 -17.2005 19.0318 -0 -0 -1 0 4 0
0.875588 -1.32872 8.25912 -0 -0 -1 10 13 17
-8.65407 -13.9038 15.7144 0.260106 0.937128 0.232672 12 11 0
6.55697 8.21537 14.1672 -0 -0 -1 122 128 128
3.37362 0.231333 1.73009 -0 -0 -1 0 0 0
-8.42292 -13.9942 15.8687 -0 -0 -1 1 7 0
-6.2186 3.10038 6.68511 -0 -0 -1 92 94 91
-0.466716 4.3852 4.78089 -0 -0 -1 114 116 113
-10.9743 1.51208 6.30978 -0 -0 -1 116 118 115
-6.38311 -14.6342 16.4705 -0 -0 -1 0 1 1
1.78422 5.66777 6.66951 -0 -0 -1 138 140 137
-6.73596 2.64586 6.56718 -0 -0 -1 178 182 181
-0.500255 4.27045 4.49064 -0 -0 -1 155 157 154
-3.61649 0.817701 7.57011 -0 -0 -1 57 65 76
-1.33141 -16.4073 18.3494 -0 -0 -1 83 90 28
-3.17952 1.45256 7.75158 -0 -0 -1 18 22 31
-12.3989 -11.6211 11.1966 -0 -0 -1 0 2 1
-7.34351 -14.3523 16.0681 -0 -0 -1 0 0 5
1.38626 6.0257 10.9642 -0 -0 -1 12 19 27
-6.22354 -9.76322 13.3003 -0 -0 -1 57 70 78
-7.02298 7.47838 12.0721 -0 -0 -1 70 72 69
-10.5561 -9.63686 9.68373 -0 -0 -1 9 6 0
-10.5683 -10.0837 10.4653 -0 -0 -1 3 0 0
-10.5365 -10.1739 10.3359 -0 -0 -1 2 1 0
3.41995 6.11769 10.1589 -0 -0 -1 12 20 27
-10.4981 -9.83931 9.28663 -0 -0 -1 0 1 0
-8.2625 -1.10738 4.97762 -0 -0 -1 14 25 29
-10.5523 -10.3518 10.8504 -0 -0 -1 204 212 69
-5.78112 7.5187 13.5964 -0 -0 -1 92 94 91
-0.508225 6.09379 6.35728 -0 -0 -1 155 157 154
13.0777 -4.70755 19.9231 -0 -0 -1 35 44 51
-1.48662 1.5814 11.6204 -0 -0 -1 17 21 30
8.10287 -5.45135 10.4556 -0 -0 -1 43 52 61
-1.56667 -1.98599 11.8016 -0 -0 -1 17 21 30
2.31609 5.9151 7.18079 -0 -0 -1 176 178 175
-7.34644 -13.9294 16.1426 -0 -0 -1 0 0 2
-4.61493 -4.16648 12.9218 -0 -0 -1 60 70 82
-1.47392 6.25667 7.91665 -0 -0 -1 194 196 193
-8.82208 -1.66727 14.0223 -0 -0 -1 39 43 52
-8.00849 -4.57444 15.1268 -0 -0 -1 18 22 31
4.50812 -2.96722 7.84849 -0 -0 -1 57 67 79
6.10757 -3.60559 7.75052 -0 -0 -1 56 70 81
-10.2422 -11.5858 11.3734 -0 -0 -1 7 9 3
-10.3242 -11.3146 11.122 -0 -0 -1 1 0 1
-10.4623 -10.9094 11.7212 -0 -0 -1 0 2 0
-2.00704 -0.589539 12.76 -0 -0 -1 16 20 29
-1.54493 6.53893 8.52383 -0 -0 -1 199 201 198
-0.713473 5.93617 6.42598 -0 -0 -1 113 115 112
-1.78999 -3.70311 11.2946 -0 -0 -1 60 70 80
1.7134 4.76283 3.38716 -0 -0 -1 155 157 154
-1.9654 1.61138 12.4615 -0 -0 -1 15 24 29
-12.4397 -11.9526 15.8365 -0 -0 -1 45 56 62
-0.0497102 -2.86566 10.5047 -0 -0 -1 31 40 47
3.57789 0.199735 9.257 -0 -0 -1 51 63 72
-10.0126 -12.2888 12.4408 -0 -0 -1 65 72 27
-10.278 -11.539 12.6042 -0 -0 -1 206 206 145
-10.1705 -11.8201 13.0279 0.175497 0.221204 -0.959307 193 193 89
6.09928 -1.0034 7.94675 -0 -0 -1 60 73 82
5.85787 -1.2027 7.39827 -0 -0 -1 61 73 85
0.860803 1.58701 11.5001 -0 -0 -1 16 25 32
-9.40876 -13.5484 15.1346 0.536462 0.529547 -0.657106 3 3 0
-9.51201 -13.4275 15.1478 0.735524 0.273337 -0.619912 13 1 2
-8.09943 -14.5426 15.6586 -0 -0 -1 1 0 4
-5.1201 -2.9487 5.82125 -0 -0 -1 35 39 48
-3.86149 -3.49386 10.8313 -0 -0 -1 0 0 0
6.01013 1.23019 13.0786 -0 -0 -1 61 71 83
-8.43259 -14.5781 15.4793 0.492542 0.743727 -0.451965 11 8 0
-4.50323 -16.7464 18.4742 -0 -0 -1 0 2 3
12.3887 -4.25683 13.7743 -0 -0 -1 13 24 30
-0.0944151 -1.64046 8.19901 -0 -0 -1 60 70 79
5.37439 0.568696 12.5448 -0 -0 -1 62 72 81
1.90857 0.0965478 0.805868 0.0249632 0.954675 -0.2966 0 0 0
4.6639 -2.98038 10.304 -0 -0 -1 16 25 32
2.87201 -1.12165 10.1325 -0 -0 -1 57 70 79
-0.403459 -0.723161 8.93137 -0 -0 -1 60 72 84
6.68286 -0.728976 12.6567 -0 -0 -1 35 44 51
3.96582 -4.95226 9.15474 -0 -0 -1 16 25 32
0.440304 0.0652489 9.7439 -0 -0 -1 16 25 32
-2.37466 2.18927 13.5386 -0 -0 -1 53 61 72
7.82947 0.489675 4.63035 -0 -0 -1 134 136 133
0.847499 2.97317 11.6219 -0 -0 -1 58 68 80
5.2459 0.718005 2.18136 -0 -0 -1 0 0 0
-9.30032 -13.5002 14.1002 -0 -0 -1 3 4 5
1.00924 -1.79018 11.1941 -0 -0 -1 61 71 83
-0.536401 0.572883 11.5601 -0 -0 -1 16 25 32
10.3655 3.50662 12.331 -0 -0 -1 60 72 84
1.56783 0.211458 1.07841 -0 -0 -1 0 0 0
13.7647 7.34473 14.3085 -0 -0 -1 168 170 167
4.78861 6.05319 12.2522 -0 -0 -1 39 49 58
