ply
format ascii 1.0
element vertex 1156
property float x
property float y
property float z
property uchar red
property uchar green
property uchar blue
property float confidence
end_header
-11.3777 8.8204 13.2362 142 206 20 0.661
-5.2979 -1.1752 12.2567 121 211 20 0.716
-2.0686 1.4797 8.5075 48 200 48 0.804
-9.2102 -14.5660 16.5152 109 214 20 0.749
-12.2883 -11.5246 10.0758 26 218 26 0.892
6.6331 7.8997 10.3516 129 209 20 0.694
-7.6670 -0.8591 5.2116 133 208 20 0.683
-9.6120 -12.1334 13.7599 4 236 4 0.980
-1.4706 2.8756 12.5262 96 218 20 0.782
-2.9225 1.7042 8.0365 96 218 20 0.782
-4.4625 6.5114 13.8736 121 211 20 0.716
-1.5854 -3.5042 11.6763 46 202 46 0.815
11.7103 -4.7738 21.1682 142 206 20 0.661
-1.3044 1.5910 12.2480 46 202 46 0.815
-2.7517 -16.1684 18.5638 4 236 4 0.980
-11.3849 -11.8012 11.5611 4 236 4 0.980
-4.6991 -4.0153 5.5880 100 217 20 0.771
-6.9196 -14.1788 16.9774 4 236 4 0.980
5.5545 6.0076 10.0254 125 210 20 0.705
-10.9399 -12.2279 12.2502 4 236 4 0.980
-9.3779 -3.7384 7.3518 138 207 20 0.672
-3.0468 -16.0545 18.5057 4 236 4 0.980
-0.9438 6.3362 8.6186 46 202 46 0.815
-1.9804 -13.8845 16.3242 109 214 20 0.749
2.3589 -0.5706 3.3289 35 211 35 0.859
-8.8322 -13.1393 15.1430 4 236 4 0.980
4.7051 -3.5309 12.5475 138 207 20 0.672
-11.1219 -12.1195 11.9302 4 236 4 0.980
1.5605 -1.1889 10.3880 4 236 4 0.980
12.9660 7.4965 15.7319 142 206 20 0.661
-11.1480 -12.0107 11.9819 4 236 4 0.980
-1.1121 6.8466 13.5498 109 214 20 0.749
-1.4834 -0.3114 12.3914 43 205 43 0.826
-8.8479 -13.1347 14.6304 4 236 4 0.980
-2.7432 -15.0312 17.1296 10 231 10 0.958
2.8614 4.6105 14.0851 142 206 20 0.661
0.8738 -0.0199 0.0335 10 231 10 0.958
0.8434 0.0070 0.1139 4 236 4 0.980
7.1395 8.0443 13.8053 117 212 20 0.727
6.5760 -0.9043 9.6495 133 208 20 0.683
-9.8237 -9.4380 9.6762 21 222 21 0.914
-0.8164 6.6029 13.2290 105 215 20 0.760
-4.0851 -3.6797 9.4766 129 209 20 0.694
-2.6612 -16.7168 19.3211 21 222 21 0.914
-3.6083 -15.1772 17.0773 29 216 29 0.881
-9.5187 -12.5216 14.3798 4 236 4 0.980
-6.4978 3.8406 9.6095 121 211 20 0.716
-6.0785 6.5228 9.4174 105 215 20 0.760
0.0973 -0.7945 8.7316 10 231 10 0.958
0.0070 -1.0470 11.6104 35 211 35 0.859
-10.8561 -12.3353 12.3410 4 236 4 0.980
4.4545 5.8496 9.2558 129 209 20 0.694
13.7759 8.0376 17.3686 138 207 20 0.672
-10.8502 -11.8226 12.8555 4 236 4 0.980
-1.1637 1.1265 8.7249 48 200 48 0.804
-10.6516 -12.4106 12.5526 4 236 4 0.980
-1.2016 3.4691 2.9073 105 215 20 0.760
5.6362 2.1021 9.7998 121 211 20 0.716
-8.8554 6.6142 13.3916 109 214 20 0.749
-1.7139 4.2344 6.3219 125 210 20 0.705
-9.9590 -12.5380 13.5324 4 236 4 0.980
-8.0543 -13.7641 15.1090 4 236 4 0.980
0.0768 1.5140 12.1946 100 217 20 0.771
1.3223 -0.2495 2.2591 4 236 4 0.980
-7.5041 2.8556 6.1767 100 217 20 0.771
-10.5509 -12.4997 12.6832 4 236 4 0.980
-2.3406 -15.9009 18.4427 4 236 4 0.980
-9.5841 -2.8620 7.5712 138 207 20 0.672
6.2978 6.1653 5.4551 142 206 20 0.661
-10.8038 -12.2960 12.5078 4 236 4 0.980
-11.6093 -11.6550 11.0947 4 236 4 0.980
-8.9028 8.6591 16.8112 129 209 20 0.694
9.8861 6.6926 10.0367 138 207 20 0.672
-9.6937 -13.0598 14.3717 4 236 4 0.980
1.2071 0.0113 2.2528 4 236 4 0.980
-1.7643 -15.4848 18.4651 10 231 10 0.958
-9.8737 -9.6007 10.1861 26 218 26 0.892
-9.7453 -12.8623 13.5933 4 236 4 0.980
1.2176 -3.7920 8.2033 117 212 20 0.727
-1.2641 -1.8176 11.4764 32 214 32 0.870
2.2371 3.8261 11.2486 32 214 32 0.870
3.6966 6.1104 11.2503 92 219 20 0.793
-8.5068 -13.7449 14.9217 4 236 4 0.980
-11.8524 -0.1679 13.7996 138 207 20 0.672
-1.8345 6.8297 13.9503 113 213 20 0.738
-1.2124 3.4474 2.5369 109 214 20 0.749
-5.3896 -15.8803 17.8861 38 209 38 0.848
-5.8712 -5.2096 14.0608 138 207 20 0.672
-7.6532 -13.6120 16.1882 4 236 4 0.980
-9.4153 -5.9639 13.0751 142 206 20 0.661
-8.3429 -13.4646 15.6824 4 236 4 0.980
-2.5504 -2.1082 7.2773 4 236 4 0.980
-10.0437 -12.4094 13.8619 4 236 4 0.980
-8.1877 1.9635 13.3532 133 208 20 0.683
2.9105 5.8921 8.1139 125 210 20 0.705
-8.2996 -4.8959 10.1594 117 212 20 0.727
3.5704 1.7855 10.4138 18 225 18 0.925
0.2779 1.8818 13.5114 117 212 20 0.727
-12.2502 -10.6612 10.0734 32 214 32 0.870
-1.5990 -15.1562 17.7014 24 220 24 0.903
0.8761 0.1061 1.7711 4 236 4 0.980
-12.2766 -10.6934 10.1189 32 214 32 0.870
2.0860 -1.6281 2.7359 29 216 29 0.881
-12.0663 -10.7470 10.5953 16 227 16 0.936
6.5181 8.1058 15.0489 121 211 20 0.716
-6.3782 -13.0326 15.5640 24 220 24 0.903
-11.4369 -11.4179 11.9230 4 236 4 0.980
-11.1438 -10.5419 10.0725 4 236 4 0.980
7.0265 -3.3524 11.9302 129 209 20 0.694
-12.0263 1.3294 6.7497 129 209 20 0.694
-10.6398 -12.0460 13.1389 4 236 4 0.980
4.7522 7.9894 12.1663 100 217 20 0.771
0.8609 1.0776 12.9336 117 212 20 0.727
-3.8169 -1.2707 6.9606 7 233 7 0.969
-10.6739 -11.9430 13.2106 4 236 4 0.980
-3.9325 1.6065 13.0844 109 214 20 0.749
3.8309 1.9615 10.9380 29 216 29 0.881
-3.5065 1.2611 8.0788 96 218 20 0.782
-8.4120 -13.7457 15.0448 4 236 4 0.980
-1.9350 0.5682 12.1785 46 202 46 0.815
-5.2197 -2.8553 5.6318 40 207 40 0.837
-3.0193 3.6586 5.2311 113 213 20 0.738
-7.7233 2.4907 5.9366 109 214 20 0.749
-11.2756 -11.9289 11.7225 4 236 4 0.980
7.7012 -5.2563 10.2578 133 208 20 0.683
1.2452 -0.2960 2.1855 4 236 4 0.980
-6.8051 -15.1522 16.9275 16 227 16 0.936
-5.4828 7.3557 13.9226 125 210 20 0.705
-0.5222 -4.3894 9.7225 109 214 20 0.749
-1.2736 -1.6886 11.5565 35 211 35 0.859
-0.2811 1.6049 13.2749 100 217 20 0.771
0.6401 -0.6405 1.3570 4 236 4 0.980
-1.0978 3.4060 2.8004 105 215 20 0.760
-8.7709 -13.1811 15.2151 4 236 4 0.980
-2.5384 2.2057 12.3175 48 200 48 0.804
3.3259 2.9785 11.2026 26 218 26 0.892
-0.1766 6.7364 13.0555 100 217 20 0.771
-2.1989 -15.3794 17.8998 7 233 7 0.969
12.4871 9.7494 13.0868 138 207 20 0.672
-6.9067 -13.9528 16.5478 4 236 4 0.980
-7.7968 -4.2774 14.8623 142 206 20 0.661
-0.1707 -3.9285 8.5294 92 219 20 0.793
-2.6721 -14.9587 17.2112 10 231 10 0.958
-4.8040 -14.9919 17.0617 29 216 29 0.881
-0.1273 1.9294 14.0141 121 211 20 0.716
0.8026 0.0176 0.0883 4 236 4 0.980
-9.8554 -10.0010 10.6836 29 216 29 0.881
-0.1290 5.3681 9.6265 43 205 43 0.826
-8.6471 -13.2662 15.3550 4 236 4 0.980
-6.4622 -14.4491 16.2241 4 236 4 0.980
-9.4404 -12.6118 14.5023 4 236 4 0.980
-5.4580 3.0969 7.4553 38 209 38 0.848
5.2103 1.1992 9.5855 117 212 20 0.727
-11.7898 -11.0779 11.0962 10 231 10 0.958
2.4311 5.0259 5.2891 117 212 20 0.727
-1.6883 -5.4519 9.7767 96 218 20 0.782
3.4989 6.7042 12.7689 109 214 20 0.749
-6.0803 -15.8311 17.7918 46 202 46 0.815
-10.4817 -12.4983 12.8566 4 236 4 0.980
-6.5091 -13.8741 16.0659 4 236 4 0.980
6.1466 6.2211 16.1550 133 208 20 0.683
-0.5966 -0.3420 8.5945 32 214 32 0.870
6.5664 7.4928 8.3679 133 208 20 0.683
-0.6985 -2.2345 7.9681 29 216 29 0.881
-9.7347 -12.9166 13.5394 4 236 4 0.980
0.5723 -1.3728 12.0371 92 219 20 0.793
-10.7072 -9.9341 7.8174 105 215 20 0.760
2.7219 5.1356 4.4200 133 208 20 0.683
-12.2818 -10.5559 10.0079 32 214 32 0.870
-8.8346 -13.5457 14.5519 4 236 4 0.980
0.1244 6.2356 7.1063 96 218 20 0.782
-9.9622 -9.4415 9.8547 21 222 21 0.914
-8.0640 -5.4546 9.1761 138 207 20 0.672
4.1411 -2.6776 3.2311 142 206 20 0.661
-8.0883 -13.6885 14.8616 4 236 4 0.980
-7.7286 -14.1124 15.5884 4 236 4 0.980
-2.1134 -15.7468 18.5180 4 236 4 0.980
4.5554 0.6630 3.2012 133 208 20 0.683
-3.2665 -14.9771 17.3764 13 229 13 0.947
-7.5330 -14.2246 15.7195 4 236 4 0.980
-1.8706 -0.9889 5.2776 138 207 20 0.672
-6.7070 -14.5721 16.3204 4 236 4 0.980
-9.6868 -8.5486 8.3178 96 218 20 0.782
-3.6182 5.0418 7.2525 113 213 20 0.738
-3.6896 0.1291 7.5047 24 220 24 0.903
-3.7477 -16.4714 18.9850 24 220 24 0.903
5.0322 -0.6561 5.6284 142 206 20 0.661
-1.3417 -3.1173 11.7123 38 209 38 0.848
1.4506 -0.8637 12.4672 46 202 46 0.815
1.1568 -1.1343 1.9558 4 236 4 0.980
-9.2611 -12.7824 14.6683 4 236 4 0.980
0.8588 -0.0119 0.0526 4 236 4 0.980
-0.5970 -0.3370 8.5577 35 211 35 0.859
16.0734 8.8487 19.8302 138 207 20 0.672
-9.1128 -12.8756 14.8968 4 236 4 0.980
-9.4731 -12.0937 13.8911 4 236 4 0.980
-10.6341 1.7714 8.1530 125 210 20 0.705
1.7216 -0.8082 2.5905 4 236 4 0.980
-1.4179 -1.4765 4.3405 138 207 20 0.672
-8.8524 -13.0254 15.2761 4 236 4 0.980
0.0870 6.1246 7.1475 96 218 20 0.782
1.7160 0.2742 11.0345 40 207 40 0.837
-10.2251 6.6154 13.9427 109 214 20 0.749
-9.9285 -12.6119 13.9891 4 236 4 0.980
-0.5939 -1.1185 8.2970 26 218 26 0.892
7.1818 -0.2759 11.5832 125 210 20 0.705
-1.4962 3.0343 12.8133 105 215 20 0.760
-9.9930 -12.7411 13.3144 4 236 4 0.980
1.1570 2.9007 10.2796 113 213 20 0.738
-0.8309 4.3056 5.8819 121 211 20 0.716
-7.1267 -13.5662 16.1015 4 236 4 0.980
-1.7069 -4.1030 10.6397 46 202 46 0.815
-9.2602 -13.2671 14.0993 4 236 4 0.980
-8.9633 5.7422 14.5045 92 219 20 0.793
-7.0445 -14.4164 16.1122 4 236 4 0.980
-11.8331 -11.0233 11.2505 7 233 7 0.969
-9.6314 -11.0702 11.1280 24 220 24 0.903
-11.4012 -11.3897 12.1010 4 236 4 0.980
2.3659 4.0948 11.9448 35 211 35 0.859
-9.7108 -10.5881 10.4544 21 222 21 0.914
-1.7787 -15.6329 18.3872 10 231 10 0.958
9.2553 -1.8406 12.2775 129 209 20 0.694
-8.5435 -13.6966 14.8562 4 236 4 0.980
4.4099 0.4025 3.1880 133 208 20 0.683
-11.3137 -11.4874 12.2193 4 236 4 0.980
-0.2666 -0.3380 12.5150 48 200 48 0.804
-7.8039 2.6094 5.8064 113 213 20 0.738
3.3604 -2.6602 12.2224 125 210 20 0.705
-2.0069 -3.3730 6.9113 29 216 29 0.881
-10.3338 -12.1789 13.5206 4 236 4 0.980
-0.8671 6.2889 8.5429 40 207 40 0.837
-10.1296 -12.2173 13.6382 4 236 4 0.980
-2.3099 0.5370 12.0368 43 205 43 0.826
3.9830 2.1776 11.0963 35 211 35 0.859
8.8199 -0.9580 12.0569 129 209 20 0.694
-3.3104 -2.0622 11.7211 43 205 43 0.826
0.7310 0.0698 0.2053 4 236 4 0.980
9.0642 5.0657 5.7268 138 207 20 0.672
-3.4541 3.1734 8.3794 96 218 20 0.782
-3.3488 3.6090 5.3360 117 212 20 0.727
-0.7951 5.3446 10.1664 46 202 46 0.815
-9.0582 -13.3944 14.3302 4 236 4 0.980
-4.0322 -16.4001 18.7724 29 216 29 0.881
-3.1044 1.0130 7.9845 92 219 20 0.793
-9.1774 6.8959 13.9882 100 217 20 0.771
-9.7305 -11.1184 12.3230 4 236 4 0.980
4.4345 5.5346 6.6181 125 210 20 0.705
-5.3191 -15.8227 18.0583 40 207 40 0.837
6.5897 3.8917 13.8078 138 207 20 0.672
1.0076 6.4677 12.8373 109 214 20 0.749
8.0273 -5.3353 11.6367 133 208 20 0.683
-6.2180 -14.5002 16.2826 4 236 4 0.980
10.6448 5.2896 14.2384 142 206 20 0.661
-1.1266 -5.9116 11.3270 125 210 20 0.705
-3.0294 -0.8512 11.8525 100 217 20 0.771
-9.8431 -12.8155 13.4239 4 236 4 0.980
-12.0316 -11.1012 10.5569 13 229 13 0.947
1.8138 -0.2113 9.6640 4 236 4 0.980
-2.2496 -16.0381 18.5116 4 236 4 0.980
0.4852 0.2280 1.6318 4 236 4 0.980
10.9936 6.3518 8.3402 138 207 20 0.672
-3.3788 -16.1878 18.6411 10 231 10 0.958
0.3643 4.5436 5.1022 117 212 20 0.727
-1.9754 -16.7824 19.4211 38 209 38 0.848
-5.9178 -3.6157 11.1893 109 214 20 0.749
-10.2481 -5.4287 9.6734 125 210 20 0.705
1.6054 -1.2303 9.2556 13 229 13 0.947
-0.4565 -1.2489 10.1417 100 217 20 0.771
-6.0943 7.2423 12.1144 129 209 20 0.694
-0.5327 5.3518 10.0918 46 202 46 0.815
6.3968 -3.5065 8.8328 117 212 20 0.727
1.1924 8.0271 12.5393 125 210 20 0.705
-11.2960 1.8347 8.8750 133 208 20 0.683
-10.1828 -5.1983 9.6839 125 210 20 0.705
-10.7364 7.5099 16.1881 121 211 20 0.716
0.0525 -0.7682 8.5352 10 231 10 0.958
-11.7912 -11.5765 10.8662 4 236 4 0.980
-3.7223 -1.5676 7.0072 4 236 4 0.980
-3.9652 -1.6190 7.4707 4 236 4 0.980
3.3040 5.0012 11.5241 100 217 20 0.771
6.1047 -4.6234 8.7638 129 209 20 0.694
-7.3822 -6.0962 13.7929 138 207 20 0.672
-4.2780 1.3284 7.3024 96 218 20 0.782
-7.7450 2.4830 6.0978 109 214 20 0.749
4.5035 0.4281 3.3581 133 208 20 0.683
-10.5630 -12.4671 12.6987 4 236 4 0.980
0.8028 4.0517 3.1734 125 210 20 0.705
-1.3103 3.4860 3.1008 100 217 20 0.771
-2.4587 -2.3889 7.0037 4 236 4 0.980
-4.0890 -16.6148 18.5588 32 214 32 0.870
-2.1691 6.0778 9.0058 117 212 20 0.727
-8.6779 -13.2132 15.3675 4 236 4 0.980
-9.8295 -8.9708 9.0477 46 202 46 0.815
10.2113 -3.7509 19.2859 142 206 20 0.661
6.9730 8.0806 11.2643 121 211 20 0.716
-1.3889 1.7043 11.9949 46 202 46 0.815
-8.3834 -13.3932 15.7074 4 236 4 0.980
-0.8261 -1.2459 7.9527 21 222 21 0.914
-6.4104 -14.9424 16.7678 4 236 4 0.980
-8.8782 -12.7123 14.3275 4 236 4 0.980
0.9282 0.3934 9.8162 26 218 26 0.892
-0.8931 -1.4247 8.1384 18 225 18 0.925
-0.6053 -2.1571 7.6009 29 216 29 0.881
3.6667 6.8991 12.8628 113 213 20 0.738
0.8426 0.1461 1.9787 4 236 4 0.980
5.7932 3.0554 13.6158 138 207 20 0.672
13.2214 -6.6514 19.0688 142 206 20 0.661
0.0822 6.2002 7.4733 92 219 20 0.793
-7.8473 -13.4415 15.6578 4 236 4 0.980
-2.7291 0.9316 8.2620 48 200 48 0.804
6.6108 6.3262 14.4359 133 208 20 0.683
-11.4375 -11.8137 11.4011 4 236 4 0.980
6.0185 7.6051 13.0093 100 217 20 0.771
0.8832 -0.0200 0.0426 7 233 7 0.969
-3.0698 -14.8908 17.1280 24 220 24 0.903
-7.9030 -13.2849 15.7793 4 236 4 0.980
6.2394 -1.1071 8.4484 125 210 20 0.705
-8.4282 -13.5364 15.2539 4 236 4 0.980
-9.1349 6.6671 14.3319 92 219 20 0.793
-12.1320 -11.0375 10.3002 18 225 18 0.925
4.3683 5.9768 9.4581 125 210 20 0.705
5.0130 8.0591 12.0332 109 214 20 0.749
-12.2453 -10.7262 10.5127 21 222 21 0.914
-8.3431 -13.7260 14.8502 4 236 4 0.980
-11.4976 -11.5002 11.5756 4 236 4 0.980
-9.7344 -10.3989 10.2512 29 216 29 0.881
-10.6445 -11.9942 13.1906 4 236 4 0.980
-6.7119 4.6560 9.4573 125 210 20 0.705
-9.6668 -10.8614 10.7126 16 227 16 0.936
11.5778 -2.5572 14.6455 133 208 20 0.683
6.2130 8.2411 9.9644 121 211 20 0.716
2.7232 6.3334 8.6040 133 208 20 0.683
-9.3972 -12.6830 14.5371 4 236 4 0.980
-9.6964 -9.8879 9.2923 18 225 18 0.925
-2.2085 -2.1573 7.2186 4 236 4 0.980
-0.9743 -0.2487 11.8975 43 205 43 0.826
4.4790 5.2338 5.9461 125 210 20 0.705
-7.5763 -13.9339 15.9782 4 236 4 0.980
0.0568 -5.6348 11.1082 133 208 20 0.683
1.3767 5.0943 6.6637 100 217 20 0.771
-15.3982 0.5783 13.7857 142 206 20 0.661
-7.4899 -1.2358 12.9058 125 210 20 0.705
-7.5302 5.5282 15.0591 129 209 20 0.694
-10.4059 1.9488 6.7782 121 211 20 0.716
-11.2478 -4.2232 10.9626 129 209 20 0.694
-9.6375 -9.1066 8.5808 48 200 48 0.804
-1.7787 -15.1061 17.6702 21 222 21 0.914
-3.4258 -1.9589 11.4689 43 205 43 0.826
1.3261 3.2032 12.1241 109 214 20 0.749
0.9678 -0.2544 1.7935 4 236 4 0.980
-10.7721 6.5971 15.2045 125 210 20 0.705
-1.3056 4.0658 9.5580 109 214 20 0.749
-5.7510 -16.1116 18.0430 92 219 20 0.793
9.0020 8.8464 16.9295 138 207 20 0.672
5.1792 1.1839 9.7972 105 215 20 0.760
3.9563 -0.8180 12.8411 138 207 20 0.672
-2.9246 -4.9664 10.2783 100 217 20 0.771
-2.3249 -1.3812 7.2791 4 236 4 0.980
-3.1651 -16.2176 18.7536 13 229 13 0.947
-5.4344 -15.8093 17.9344 38 209 38 0.848
-2.5024 -1.4843 7.6342 4 236 4 0.980
-2.1359 3.5173 3.6305 100 217 20 0.771
-8.9644 6.7648 13.7680 100 217 20 0.771
-4.2651 6.5305 14.3230 121 211 20 0.716
-7.0017 -14.1881 16.3080 4 236 4 0.980
-1.2260 2.2400 9.5897 117 212 20 0.727
-9.8622 -10.1484 11.0538 18 225 18 0.925
0.8246 0.3126 9.3578 32 214 32 0.870
-5.3833 -16.2539 18.3171 48 200 48 0.804
3.4744 5.3741 12.1588 48 200 48 0.804
-8.4903 6.9935 15.6642 113 213 20 0.738
1.4880 -0.1726 2.4474 4 236 4 0.980
-9.7503 -10.1238 9.6715 24 220 24 0.903
-1.9480 -2.9657 6.8363 4 236 4 0.980
-4.6505 6.6714 13.6691 117 212 20 0.727
-5.2050 3.4281 7.1249 40 207 40 0.837
-4.4158 -2.7424 6.2302 29 216 29 0.881
0.9591 -0.4920 1.7059 4 236 4 0.980
6.1139 -3.9908 8.1609 125 210 20 0.705
0.1288 6.0004 7.0563 100 217 20 0.771
-11.7560 -2.8168 11.1759 133 208 20 0.683
0.9996 5.8384 11.3489 43 205 43 0.826
1.2968 -2.4711 10.1046 38 209 38 0.848
1.5132 0.3359 11.1618 38 209 38 0.848
-4.4396 7.0127 13.2443 121 211 20 0.716
-10.4962 7.8593 16.6490 125 210 20 0.705
1.8108 -0.2308 11.0788 26 218 26 0.892
-2.7603 -1.1518 7.5835 7 233 7 0.969
-10.7673 0.0239 12.7809 138 207 20 0.672
-9.3551 -12.1989 13.9497 4 236 4 0.980
0.3250 -0.5337 1.4479 4 236 4 0.980
-6.1347 -2.3690 5.4663 48 200 48 0.804
3.8409 0.0527 9.9922 92 219 20 0.793
-5.7356 0.4587 12.9301 129 209 20 0.694
-10.7943 -12.2313 12.9116 4 236 4 0.980
-9.6335 -12.4873 14.2871 4 236 4 0.980
5.9392 6.8723 11.8220 100 217 20 0.771
-5.2119 -5.9109 9.5315 138 207 20 0.672
-2.3107 -3.5888 6.9964 24 220 24 0.903
-0.2804 -2.6022 10.0497 105 215 20 0.760
1.7304 2.8767 12.0228 109 214 20 0.749
-1.8645 -0.5194 13.1864 96 218 20 0.782
10.3785 8.5115 11.6371 138 207 20 0.672
2.4787 0.0825 1.0620 29 216 29 0.881
3.3055 2.8999 11.3332 26 218 26 0.892
3.6231 0.0678 9.8285 100 217 20 0.771
3.4031 6.5457 12.7210 109 214 20 0.749
-4.1025 5.5634 8.0288 105 215 20 0.760
6.4218 2.2809 4.6030 142 206 20 0.661
-4.6756 6.5941 9.7651 100 217 20 0.771
-3.0701 1.2927 10.4292 138 207 20 0.672
1.6177 3.3266 11.6378 96 218 20 0.782
-11.8103 1.8400 13.8870 142 206 20 0.661
-7.3148 2.8052 6.2229 92 219 20 0.793
-4.3862 -16.2728 18.6206 35 211 35 0.859
-5.5229 3.3944 7.0821 40 207 40 0.837
5.1337 -2.2370 7.8806 129 209 20 0.694
-6.6910 4.0573 8.3182 113 213 20 0.738
12.4752 5.1158 9.1745 142 206 20 0.661
4.2264 2.3968 10.9796 38 209 38 0.848
-0.9436 -0.2383 11.7209 40 207 40 0.837
2.9907 5.4710 5.9052 109 214 20 0.749
-9.7154 -4.5706 10.4730 113 213 20 0.738
-9.6476 -11.6366 11.8483 4 236 4 0.980
-5.9110 -0.9465 14.7771 138 207 20 0.672
-9.9018 -9.1976 9.4231 35 211 35 0.859
-7.2514 -4.3669 10.8831 117 212 20 0.727
-11.5660 7.6991 16.7742 133 208 20 0.683
-4.0089 2.8651 13.4666 109 214 20 0.749
10.5809 -1.2660 17.5594 133 208 20 0.683
-4.5891 -2.5982 11.2116 43 205 43 0.826
1.4198 -0.1737 9.6086 4 236 4 0.980
1.7491 0.3850 11.3028 46 202 46 0.815
1.2514 -5.3742 9.3927 129 209 20 0.694
6.3056 5.1876 12.1164 133 208 20 0.683
0.7567 0.0902 0.3115 4 236 4 0.980
-8.5845 -13.1605 15.1437 4 236 4 0.980
1.3282 -0.6687 2.2113 4 236 4 0.980
-8.5793 -13.7047 14.8584 4 236 4 0.980
7.0196 8.9422 14.8043 121 211 20 0.716
-3.5088 -2.4039 6.5235 4 236 4 0.980
8.9671 -0.8108 15.6106 138 207 20 0.672
-9.7294 -10.3818 10.0548 29 216 29 0.881
-4.5216 -2.6400 5.9465 29 216 29 0.881
3.2570 1.6499 11.3450 32 214 32 0.870
1.5361 -0.1625 10.3120 16 227 16 0.936
-2.4244 -2.1355 7.1352 4 236 4 0.980
-4.8892 2.0671 12.6928 117 212 20 0.727
-8.2836 -13.8691 15.1157 4 236 4 0.980
-2.2374 -3.2757 6.7168 21 222 21 0.914
-2.9083 2.2973 13.2490 96 218 20 0.782
0.8279 0.0184 0.1407 4 236 4 0.980
2.4573 -1.7184 12.1294 117 212 20 0.727
-2.2096 -2.3821 11.1917 26 218 26 0.892
2.1889 -1.9394 10.6049 40 207 40 0.837
1.2845 -0.2541 2.1844 4 236 4 0.980
-5.4821 6.9673 10.2359 105 215 20 0.760
-4.5239 -1.9131 9.1262 138 207 20 0.672
-2.5044 3.4971 4.3671 105 215 20 0.760
-10.6695 -4.0635 10.5029 121 211 20 0.716
-3.6731 -2.4130 6.7333 4 236 4 0.980
-8.6932 6.9807 14.7753 92 219 20 0.793
-2.8613 -14.8803 17.1767 13 229 13 0.947
-0.6920 -1.0183 7.9113 26 218 26 0.892
7.8428 -0.9016 12.6635 113 213 20 0.738
-5.0798 -3.0080 5.7965 38 209 38 0.848
-1.9117 -3.8748 10.3185 46 202 46 0.815
-8.3703 -13.2390 15.3017 4 236 4 0.980
-8.2413 0.2716 12.9750 121 211 20 0.716
-2.8661 -14.8979 17.1950 13 229 13 0.947
-2.2654 6.0331 10.5199 133 208 20 0.683
-0.7775 6.8183 13.4063 105 215 20 0.760
-9.4950 -2.1457 9.2399 142 206 20 0.661
2.2647 -1.5470 11.9892 96 218 20 0.782
-2.2031 -16.9349 19.6606 40 207 40 0.837
-8.0490 -13.6087 16.0262 4 236 4 0.980
-7.1698 -14.1749 16.9382 4 236 4 0.980
-0.5647 -4.1935 7.1998 48 200 48 0.804
-3.5726 -2.3877 6.5764 4 236 4 0.980
-9.5969 -11.2197 11.2417 29 216 29 0.881
-1.2068 -0.0884 12.2492 40 207 40 0.837
4.8217 -2.8697 8.8408 129 209 20 0.694
0.8648 -0.1521 1.8417 4 236 4 0.980
0.5863 -0.6885 1.2389 4 236 4 0.980
-0.5668 -5.5122 9.6768 113 213 20 0.738
-8.1815 -13.7394 15.0950 4 236 4 0.980
7.1566 -1.5413 12.4683 121 211 20 0.716
5.9937 2.9512 9.8231 133 208 20 0.683
-5.5568 0.3024 12.8673 125 210 20 0.705
-10.3331 1.8326 6.1360 129 209 20 0.694
-0.8145 5.8746 7.9771 43 205 43 0.826
-9.6031 -11.2105 11.4562 29 216 29 0.881
7.0170 7.8804 13.3890 109 214 20 0.749
-7.0300 0.7338 12.7679 117 212 20 0.727
0.1738 -2.7084 11.0591 46 202 46 0.815
-6.9920 -0.8794 12.4464 117 212 20 0.727
7.1860 7.9908 13.7539 117 212 20 0.727
13.2793 -0.4890 10.5287 142 206 20 0.661
-2.2348 -3.9085 10.6875 40 207 40 0.837
-5.0582 6.4003 9.3066 96 218 20 0.782
-9.6982 -12.5961 14.3231 4 236 4 0.980
-0.6916 -3.5228 7.4094 21 222 21 0.914
-1.2525 -4.7495 10.0441 92 219 20 0.793
1.4143 6.4413 12.4968 105 215 20 0.760
1.2503 -1.2018 8.4945 32 214 32 0.870
-9.2849 -12.8577 14.5669 4 236 4 0.980
-7.1918 -14.1729 16.9602 4 236 4 0.980
1.5836 -1.5864 10.9396 24 220 24 0.903
10.0603 -1.3699 16.8229 129 209 20 0.694
-8.6061 6.9565 14.6722 96 218 20 0.782
1.5443 0.3040 10.6866 35 211 35 0.859
4.0792 2.9166 11.2813 40 207 40 0.837
-4.9977 6.3384 8.6806 105 215 20 0.760
-3.1791 6.1640 14.2531 121 211 20 0.716
14.9891 8.5150 18.9704 138 207 20 0.672
-4.8748 -16.0308 18.3523 38 209 38 0.848
-1.4372 -2.8649 7.5076 4 236 4 0.980
-7.3208 -13.7759 16.4268 4 236 4 0.980
-4.8265 3.5630 7.6361 26 218 26 0.892
-3.1683 4.1697 13.4331 133 208 20 0.683
-4.2019 1.6088 12.7324 113 213 20 0.738
-12.0922 -10.6693 10.4022 21 222 21 0.914
-5.7111 -3.8619 11.2689 109 214 20 0.749
0.8971 4.4677 10.9849 46 202 46 0.815
-3.2425 -15.6023 18.0589 4 236 4 0.980
-0.5609 5.1273 9.8696 43 205 43 0.826
1.0200 -0.3097 9.5854 4 236 4 0.980
14.1023 7.1779 10.6599 142 206 20 0.661
2.3354 3.0066 15.8727 142 206 20 0.661
-0.2137 5.0153 8.8943 38 209 38 0.848
1.9677 -1.6428 8.8651 32 214 32 0.870
1.2037 4.2532 10.9689 48 200 48 0.804
-5.9067 -5.2386 11.2691 121 211 20 0.716
-10.4765 1.8948 6.4684 121 211 20 0.716
-11.6407 -11.1406 11.5018 4 236 4 0.980
-0.0479 6.0552 7.1221 92 219 20 0.793
-3.8343 -15.0118 17.0964 43 205 43 0.826
-0.7105 5.8018 8.8966 38 209 38 0.848
0.2257 -0.0113 1.7340 4 236 4 0.980
-11.6513 2.3854 19.9355 138 207 20 0.672
1.2616 5.4146 7.9916 105 215 20 0.760
5.8968 7.2716 12.2276 105 215 20 0.760
-2.0189 -3.2776 6.7553 24 220 24 0.903
-2.5179 -4.1695 10.5497 96 218 20 0.782
-0.7612 3.4653 2.8024 96 218 20 0.782
-1.4035 1.6024 12.4539 46 202 46 0.815
-10.5688 1.7450 6.4361 121 211 20 0.716
-0.7395 5.6548 7.8538 46 202 46 0.815
1.2190 -0.3307 2.2013 4 236 4 0.980
-6.0157 -9.2372 13.0752 142 206 20 0.661
-4.6124 -6.7494 12.5836 142 206 20 0.661
0.1954 5.3378 10.8355 46 202 46 0.815
-2.6636 -14.9403 17.1691 10 231 10 0.958
3.7059 0.4625 10.6785 40 207 40 0.837
-0.4288 -1.9842 7.7759 32 214 32 0.870
-11.9449 -10.8806 10.8925 7 233 7 0.969
1.0373 -0.0270 1.9819 4 236 4 0.980
4.5782 6.7705 10.9003 100 217 20 0.771
-6.9439 -14.2091 17.0144 4 236 4 0.980
-9.1966 -5.6605 11.0926 125 210 20 0.705
-2.5804 -1.5940 7.7553 4 236 4 0.980
-0.9932 -1.4440 11.5149 26 218 26 0.892
2.3318 -0.6258 3.3654 38 209 38 0.848
-5.7509 6.7098 10.6268 100 217 20 0.771
6.2109 -2.2033 7.9690 117 212 20 0.727
-1.7537 4.1647 6.2403 125 210 20 0.705
-3.9802 -1.8836 12.6219 100 217 20 0.771
-1.7739 6.4493 13.3155 109 214 20 0.749
0.1508 6.6390 13.3295 105 215 20 0.760
-4.2724 -4.1560 11.5152 100 217 20 0.771
-9.7414 -11.0612 12.3864 4 236 4 0.980
10.1472 -1.3620 17.0267 133 208 20 0.683
-0.9681 -2.9181 11.2334 35 211 35 0.859
-1.4038 -1.8620 12.2640 32 214 32 0.870
-10.1734 6.7990 14.6427 96 218 20 0.782
0.7933 4.1293 3.3896 125 210 20 0.705
-0.4543 6.6918 12.7955 96 218 20 0.782
-6.5425 -13.1568 15.8432 4 236 4 0.980
-3.2720 -3.2341 12.8995 121 211 20 0.716
0.4686 6.6945 12.6561 92 219 20 0.793
2.3335 -2.0165 10.5284 40 207 40 0.837
10.7606 7.0850 7.6081 138 207 20 0.672
-3.8459 4.9798 7.1079 109 214 20 0.749
3.4582 0.5339 10.4548 46 202 46 0.815
-0.6898 -2.6622 10.9221 35 211 35 0.859
-1.6717 2.7535 12.6274 100 217 20 0.771
-4.9157 6.4471 9.0633 100 217 20 0.771
-4.0480 2.8154 13.0482 105 215 20 0.760
2.0064 -3.8234 7.6069 129 209 20 0.694
-14.1701 6.5427 14.9593 142 206 20 0.661
-4.4918 6.3485 8.7472 109 214 20 0.749
6.4202 -0.9304 9.0304 129 209 20 0.694
-2.4020 -3.8837 8.1528 48 200 48 0.804
-7.3983 2.7216 6.0375 100 217 20 0.771
-3.0804 -1.8539 7.2387 4 236 4 0.980
-3.6162 -3.3841 10.8149 40 207 40 0.837
4.4509 -0.1942 11.0014 96 218 20 0.782
-5.0256 0.9388 7.0866 117 212 20 0.727
-3.0346 -15.7471 18.3352 4 236 4 0.980
3.3117 0.3894 9.9311 92 219 20 0.793
-1.8136 -4.0222 6.7079 35 211 35 0.859
-4.9454 -0.0347 6.8765 96 218 20 0.782
-3.2519 -5.8784 9.7296 129 209 20 0.694
-0.7079 -2.3155 8.3661 24 220 24 0.903
-4.7919 3.7085 4.5325 129 209 20 0.694
-2.0800 -3.1891 6.9380 10 231 10 0.958
3.4475 3.0409 11.4077 32 214 32 0.870
-3.8362 -1.7303 11.1184 48 200 48 0.804
4.3690 6.1112 10.4723 113 213 20 0.738
-11.2827 5.6703 15.8818 138 207 20 0.672
1.1761 -5.3525 9.4662 125 210 20 0.705
-2.3589 -2.6368 8.0565 7 233 7 0.969
-3.8444 -3.5781 10.8940 48 200 48 0.804
-0.1794 2.0623 12.7786 46 202 46 0.815
-1.3860 -1.9378 11.3357 43 205 43 0.826
-0.2039 -4.4380 9.5175 117 212 20 0.727
-0.7416 5.5972 7.6310 48 200 48 0.804
0.0597 6.5466 11.2323 100 217 20 0.771
6.0097 6.9894 12.6316 109 214 20 0.749
13.6847 11.0212 18.5509 142 206 20 0.661
-5.0047 3.3622 6.4937 43 205 43 0.826
-8.8247 -3.8552 11.1848 129 209 20 0.694
1.2670 2.4966 10.0525 138 207 20 0.672
-6.6152 -15.3112 17.1049 21 222 21 0.914
-10.0153 -12.2796 13.8419 4 236 4 0.980
-5.5151 -14.6272 16.5442 21 222 21 0.914
-1.0593 1.1553 12.7564 29 216 29 0.881
-1.1995 -0.6110 12.5800 43 205 43 0.826
-9.8933 -12.3627 14.0664 4 236 4 0.980
-5.2008 -15.9294 18.0803 46 202 46 0.815
5.4813 4.2746 11.3117 133 208 20 0.683
1.5265 -0.0457 11.2322 35 211 35 0.859
-9.2218 7.4206 15.9514 105 215 20 0.760
-5.0058 -3.0792 5.8271 35 211 35 0.859
-7.6134 -0.8329 5.1084 133 208 20 0.683
-3.9008 -14.9221 17.1772 40 207 40 0.837
3.5395 0.4302 10.5336 46 202 46 0.815
-1.9458 -15.1484 17.6804 16 227 16 0.936
11.1458 9.1731 13.4199 138 207 20 0.672
-4.5287 6.3335 9.0799 105 215 20 0.760
-5.4448 -4.5540 10.5903 117 212 20 0.727
-3.6938 -2.0565 10.8373 46 202 46 0.815
-2.6046 -2.5773 9.6609 105 215 20 0.760
9.0921 4.1551 13.6052 142 206 20 0.661
-3.9129 -1.3195 7.1800 10 231 10 0.958
3.6361 5.8604 6.5101 121 211 20 0.716
8.5635 7.2261 10.6819 138 207 20 0.672
0.8625 0.4860 11.1585 48 200 48 0.804
3.5724 3.3919 11.8217 38 209 38 0.848
-9.6128 -11.6976 12.0425 4 236 4 0.980
13.3274 8.0896 17.4052 138 207 20 0.672
-6.9065 -0.4413 13.3535 113 213 20 0.738
-7.1340 2.7810 6.1589 92 219 20 0.793
-8.8008 6.8143 15.4086 100 217 20 0.771
-2.1534 -15.5449 18.0813 4 236 4 0.980
-1.5051 -1.7775 7.7978 4 236 4 0.980
9.4568 5.4040 6.3599 138 207 20 0.672
-6.3727 -3.2446 5.7874 92 219 20 0.793
-2.6879 -2.5072 8.3500 24 220 24 0.903
1.6482 0.0781 0.6988 4 236 4 0.980
0.8181 0.0130 0.1067 4 236 4 0.980
1.4904 5.8434 11.7835 96 218 20 0.782
5.6414 7.7444 11.3506 96 218 20 0.782
2.6244 6.5408 9.0269 133 208 20 0.683
0.1719 6.1720 7.6585 48 200 48 0.804
-7.5706 -13.9893 16.6153 4 236 4 0.980
1.4335 -1.0264 9.7463 4 236 4 0.980
-4.8701 6.2208 9.8249 96 218 20 0.782
-5.4069 6.3937 12.2862 117 212 20 0.727
-5.8382 3.1614 7.0351 29 216 29 0.881
-4.3455 -2.7279 11.1242 43 205 43 0.826
2.6683 1.6538 11.2533 26 218 26 0.892
-1.9771 -16.8285 19.4749 38 209 38 0.848
4.6890 -0.1168 9.4986 92 219 20 0.793
-5.5286 4.0412 8.1215 43 205 43 0.826
3.0631 1.0658 12.9160 129 209 20 0.694
1.4390 -0.1990 9.0395 24 220 24 0.903
-2.3577 -5.8565 9.2129 125 210 20 0.705
-4.9178 3.7580 7.4915 35 211 35 0.859
0.7507 -0.0547 1.7530 4 236 4 0.980
-6.0972 2.8910 6.7783 29 216 29 0.881
-11.1409 -10.1636 9.5328 18 225 18 0.925
7.1895 -0.2220 11.2913 121 211 20 0.716
-4.8822 6.5971 10.9146 117 212 20 0.727
-3.8982 -2.2167 11.7316 43 205 43 0.826
1.2891 -1.2769 10.7833 7 233 7 0.969
-4.4349 2.7348 13.3159 113 213 20 0.738
-7.1634 5.1177 14.4200 133 208 20 0.683
-1.8876 -2.3723 10.7434 32 214 32 0.870
-5.5782 -15.8012 17.7835 38 209 38 0.848
-4.6426 -3.8790 5.6799 92 219 20 0.793
-12.6098 -11.5126 9.5222 48 200 48 0.804
-12.7694 10.0181 17.2823 142 206 20 0.661
-9.8611 -12.6680 13.7961 4 236 4 0.980
1.7079 -0.2375 11.2740 29 216 29 0.881
0.9730 -0.0742 9.0061 29 216 29 0.881
8.1149 6.8829 6.8654 142 206 20 0.661
2.2348 -0.8593 2.9419 21 222 21 0.914
-2.6056 -1.1627 7.2881 4 236 4 0.980
-4.0089 2.5037 12.4419 109 214 20 0.749
3.6574 5.5792 6.2583 121 211 20 0.716
0.1862 -2.7311 7.5088 43 205 43 0.826
-4.2839 -2.6610 10.9564 92 219 20 0.793
0.8324 0.0010 0.0811 4 236 4 0.980
-0.0628 -3.6167 7.6261 40 207 40 0.837
-6.9506 -4.4519 10.6699 117 212 20 0.727
-3.0990 -2.7773 6.7907 4 236 4 0.980
10.1379 8.4165 11.9870 138 207 20 0.672
-9.6643 -12.5534 14.2980 4 236 4 0.980
0.7997 -0.5802 1.5907 4 236 4 0.980
0.6173 -0.1686 1.5391 4 236 4 0.980
-3.2959 3.6877 5.2451 117 212 20 0.727
-0.7345 -2.1193 7.4063 21 222 21 0.914
1.0203 4.3725 10.8019 48 200 48 0.804
5.9038 7.5757 12.9529 100 217 20 0.771
-0.7239 -1.1419 8.0066 26 218 26 0.892
-3.1439 3.9735 5.5945 113 213 20 0.738
-0.7174 -0.2716 8.3390 40 207 40 0.837
-1.8950 -3.4006 6.8272 29 216 29 0.881
3.5415 3.1587 11.3079 32 214 32 0.870
-7.3253 -13.7701 15.8040 4 236 4 0.980
-0.7654 -0.2143 8.5691 43 205 43 0.826
3.3564 5.0267 11.6345 100 217 20 0.771
-6.0676 -14.3751 17.3985 7 233 7 0.969
-2.0261 -3.2713 6.7651 24 220 24 0.903
-0.4587 -3.3732 7.2694 26 218 26 0.892
-2.9660 1.9766 9.3244 48 200 48 0.804
-5.8245 -3.2179 5.1544 46 202 46 0.815
4.0255 0.0935 10.1959 48 200 48 0.804
-4.4157 -0.2682 7.4963 46 202 46 0.815
-4.6406 1.5892 8.7723 125 210 20 0.705
12.7082 -4.6172 16.8601 142 206 20 0.661
1.0290 -2.5624 10.8560 92 219 20 0.793
2.2922 -1.3874 9.9408 24 220 24 0.903
-1.7005 -4.1451 10.7326 46 202 46 0.815
-1.1791 -3.9050 7.1640 38 209 38 0.848
-2.5823 3.9768 9.0164 117 212 20 0.727
-6.9793 4.6570 9.7782 125 210 20 0.705
-8.0190 6.6830 14.3746 96 218 20 0.782
-1.4354 1.9599 8.8648 100 217 20 0.771
-2.4733 -15.8514 18.5665 4 236 4 0.980
-3.9348 -1.9117 11.9596 48 200 48 0.804
-9.1576 -11.8300 13.4040 4 236 4 0.980
-9.4862 -12.7048 14.5764 4 236 4 0.980
1.2422 -0.5732 2.1086 4 236 4 0.980
-1.1728 1.1612 8.8514 48 200 48 0.804
-3.5580 -14.9867 17.2640 29 216 29 0.881
-9.8075 -12.5578 14.1599 4 236 4 0.980
3.7119 0.2034 10.1464 92 219 20 0.793
-9.8832 -9.9992 10.8996 26 218 26 0.892
-12.0284 -10.8893 10.9487 10 231 10 0.958
-3.4730 4.2292 8.4134 96 218 20 0.782
-3.5560 -3.2384 11.0366 38 209 38 0.848
-3.1286 3.6279 5.1455 113 213 20 0.738
-0.5177 -2.1083 7.7584 29 216 29 0.881
-6.4784 -1.5971 5.6574 100 217 20 0.771
-0.7233 -0.2344 8.5089 40 207 40 0.837
3.4717 3.0884 11.2419 32 214 32 0.870
0.8650 5.4304 10.6016 43 205 43 0.826
-6.0529 -2.4770 5.4721 48 200 48 0.804
-3.7507 -1.1782 6.9239 10 231 10 0.958
-3.8976 -0.6227 7.3288 29 216 29 0.881
1.6564 -0.0368 2.7051 4 236 4 0.980
-2.7880 -0.4965 8.1198 26 218 26 0.892
-3.9428 -0.1765 7.0676 35 211 35 0.859
1.0031 -0.5654 1.8256 4 236 4 0.980
1.8031 -1.4020 9.1885 21 222 21 0.914
-3.5214 1.6998 14.9473 142 206 20 0.661
3.7839 0.2392 10.3203 92 219 20 0.793
-6.2091 -2.8126 5.0575 92 219 20 0.793
-0.1361 3.8114 4.0324 100 217 20 0.771
-11.1901 -1.4471 9.4027 142 206 20 0.661
-3.3521 -0.8604 7.2766 13 229 13 0.947
2.2229 5.5336 11.6951 46 202 46 0.815
-4.7746 3.9230 7.4284 26 218 26 0.892
-8.3908 -13.1711 15.2838 4 236 4 0.980
-8.8912 -12.0092 13.6977 4 236 4 0.980
-5.6571 -2.6436 5.5547 40 207 40 0.837
3.6908 3.0609 10.5731 38 209 38 0.848
-6.4405 0.7066 6.5487 133 208 20 0.683
-1.2373 2.2949 9.8323 117 212 20 0.727
-6.6821 -13.4533 16.1421 4 236 4 0.980
8.8515 9.3509 15.9451 138 207 20 0.672
13.4920 10.6092 14.7789 142 206 20 0.661
-0.7773 -1.2941 8.1887 26 218 26 0.892
-3.1214 3.9733 7.4501 105 215 20 0.760
-1.9418 -15.0690 17.5917 13 229 13 0.947
1.1826 -0.2288 10.9543 24 220 24 0.903
-4.9475 -3.2370 5.7522 38 209 38 0.848
3.6903 5.9826 11.2553 96 218 20 0.782
0.4891 -0.0577 13.0891 125 210 20 0.705
-6.3692 3.0536 6.9281 21 222 21 0.914
-3.5512 -4.1057 6.2276 92 219 20 0.793
-6.2310 -1.6456 13.5166 121 211 20 0.716
-9.3846 -12.7443 14.5778 4 236 4 0.980
1.3480 -2.1865 9.1890 40 207 40 0.837
0.9143 -0.9632 8.6608 10 231 10 0.958
1.2563 -3.7735 8.2276 117 212 20 0.727
0.7657 5.6550 10.8434 40 207 40 0.837
-9.6427 -11.4370 12.8899 4 236 4 0.980
6.9228 -0.4426 12.5326 121 211 20 0.716
-6.0515 5.0375 10.4689 121 211 20 0.716
-5.0607 3.5667 7.0626 40 207 40 0.837
-9.5908 -9.4296 8.1699 92 219 20 0.793
-10.4201 -9.1435 8.6546 46 202 46 0.815
-0.8817 4.8458 8.4842 92 219 20 0.793
-1.1647 3.3805 2.7457 105 215 20 0.760
-3.3360 3.2825 3.4651 125 210 20 0.705
0.1861 5.4915 10.4282 43 205 43 0.826
8.8742 -5.3460 14.0664 138 207 20 0.672
0.9089 7.2218 10.0991 133 208 20 0.683
4.2398 6.7200 13.0441 117 212 20 0.727
-5.4730 3.4416 6.9137 40 207 40 0.837
-3.8378 -1.4522 6.8541 7 233 7 0.969
-9.7746 -8.8482 8.8333 48 200 48 0.804
4.3698 2.0640 11.6634 38 209 38 0.848
-0.3903 -4.3454 7.3423 109 214 20 0.749
-3.3025 4.0103 8.4245 100 217 20 0.771
-2.6838 -1.1971 7.5791 7 233 7 0.969
-2.6590 0.9828 7.9840 46 202 46 0.815
-3.1302 1.6553 8.2829 92 219 20 0.793
-0.7392 3.5323 2.8992 96 218 20 0.782
2.4925 -4.7815 8.7743 121 211 20 0.716
-2.6309 -1.5625 7.4520 4 236 4 0.980
-4.4177 -3.9173 13.0151 133 208 20 0.683
4.0856 2.1052 11.0929 35 211 35 0.859
3.0539 2.6854 10.8999 29 216 29 0.881
2.0752 -1.5590 8.9314 32 214 32 0.870
5.4801 0.2699 12.2693 129 209 20 0.694
-0.1878 2.9083 11.4574 117 212 20 0.727
6.3221 0.8685 10.3070 125 210 20 0.705
-4.9757 -2.1905 5.5015 35 211 35 0.859
-6.9850 -13.6596 16.2474 4 236 4 0.980
-9.5953 -8.6495 8.3323 96 218 20 0.782
-0.9609 -3.1806 11.6913 40 207 40 0.837
4.5885 5.6856 13.4961 121 211 20 0.716
7.8111 -2.3732 11.6444 113 213 20 0.738
-5.5608 3.2139 6.2134 35 211 35 0.859
-5.0964 3.5653 7.0215 40 207 40 0.837
-8.7309 8.8477 17.1202 138 207 20 0.672
0.3504 4.5989 5.3483 113 213 20 0.738
1.2311 -1.0748 9.0512 18 225 18 0.925
-2.5441 -16.5275 19.1585 18 225 18 0.925
-12.4899 1.8524 10.1295 138 207 20 0.672
0.9580 -1.0419 8.7889 18 225 18 0.925
11.6588 -2.3020 15.3294 133 208 20 0.683
-6.5879 7.4085 12.3052 129 209 20 0.694
1.0958 -0.3842 2.0193 4 236 4 0.980
11.4880 -2.2848 15.0621 133 208 20 0.683
-3.1964 3.9325 8.5340 117 212 20 0.727
-11.9968 -11.1389 10.5361 13 229 13 0.947
-5.1391 -14.7509 16.6389 29 216 29 0.881
-9.6866 -11.5442 11.6657 4 236 4 0.980
-5.5862 3.3395 6.9665 40 207 40 0.837
-7.3529 -13.5291 16.0752 4 236 4 0.980
0.4381 4.7397 5.7274 117 212 20 0.727
-6.4568 -13.7931 15.9656 4 236 4 0.980
-1.7997 1.6163 12.9862 48 200 48 0.804
-6.4345 -13.6024 16.2695 4 236 4 0.980
2.0117 -1.3044 9.8873 16 227 16 0.936
-7.3068 2.7876 6.1864 92 219 20 0.793
6.0126 7.4795 8.4624 133 208 20 0.683
4.4389 -5.7957 14.3115 142 206 20 0.661
-2.1610 3.5753 3.5909 100 217 20 0.771
-2.6801 1.6275 8.2255 92 219 20 0.793
-7.1596 -6.8276 10.7450 142 206 20 0.661
0.4626 5.4529 9.7741 48 200 48 0.804
-9.5837 -12.4254 14.1351 4 236 4 0.980
4.0240 5.1705 11.1731 105 215 20 0.760
4.6425 2.4759 10.4272 35 211 35 0.859
2.6360 5.6661 11.7894 48 200 48 0.804
-9.6946 -10.7407 10.7767 16 227 16 0.936
-8.3351 -13.9412 15.1904 4 236 4 0.980
-0.8282 6.5569 12.9183 105 215 20 0.760
-8.1953 -14.0694 15.4380 4 236 4 0.980
-1.0224 6.5671 9.2055 96 218 20 0.782
-10.4412 -10.5031 10.5938 4 236 4 0.980
8.1978 -3.6067 12.5726 129 209 20 0.694
6.4155 -4.4072 8.2503 129 209 20 0.694
7.4893 -3.1698 10.9881 125 210 20 0.705
-5.9912 7.5399 16.5462 142 206 20 0.661
-7.9629 7.8986 11.4484 138 207 20 0.672
1.3150 -1.3463 2.1058 4 236 4 0.980
-12.1102 -11.2170 14.9634 142 206 20 0.661
-1.1980 -0.6123 12.6110 43 205 43 0.826
6.8701 -3.2335 9.6945 133 208 20 0.683
-2.9435 -6.7359 11.4636 142 206 20 0.661
11.1083 -5.3751 18.6608 142 206 20 0.661
-9.6401 -11.6791 11.8336 4 236 4 0.980
-9.7591 -10.9912 12.3961 4 236 4 0.980
4.3327 0.3472 12.7934 129 209 20 0.694
-9.8255 -10.7991 11.9701 18 225 18 0.925
7.9008 -6.2744 11.2573 133 208 20 0.683
8.8375 -5.1204 13.6135 138 207 20 0.672
6.0206 7.6409 15.1746 125 210 20 0.705
1.3988 5.3313 5.9549 113 213 20 0.738
-5.7292 -2.5149 5.3487 43 205 43 0.826
1.2731 5.1040 5.6671 113 213 20 0.738
-6.0321 3.2709 6.6342 26 218 26 0.892
-5.1282 -15.9487 18.1595 46 202 46 0.815
-2.4079 -17.0087 19.6865 40 207 40 0.837
2.4350 -3.6600 12.1011 138 207 20 0.672
0.2501 -3.2625 11.4573 113 213 20 0.738
-2.3434 -14.9411 17.2996 10 231 10 0.958
0.9511 -0.4689 1.7723 4 236 4 0.980
-2.4576 -17.0765 19.7843 43 205 43 0.826
0.9439 0.0550 2.0650 4 236 4 0.980
1.5219 -0.9215 2.4262 4 236 4 0.980
0.5219 -0.5816 1.2287 4 236 4 0.980
0.6411 -0.4060 1.4837 4 236 4 0.980
0.5582 -0.4628 1.3497 4 236 4 0.980
-2.4622 -17.0696 19.8602 46 202 46 0.815
0.8878 -0.0242 0.0270 10 231 10 0.958
1.2642 -0.6021 2.1921 4 236 4 0.980
-11.0320 3.6606 20.6308 138 207 20 0.672
1.9660 8.5452 11.9005 138 207 20 0.672
0.8460 0.3798 1.7042 4 236 4 0.980
1.0989 -0.3898 2.0506 4 236 4 0.980
1.8689 -0.5758 2.5366 4 236 4 0.980
0.7178 0.0880 0.2654 4 236 4 0.980
4.7861 5.1551 7.0878 230 103 30 0.165
-11.6596 -6.0364 10.6270 230 130 30 0.248
6.7104 8.4054 10.0274 230 141 30 0.282
-9.2315 3.2799 19.0855 230 100 30 0.155
8.3124 6.5782 10.7005 230 126 30 0.235
13.9097 7.5806 15.9563 230 122 30 0.223
9.7833 6.7336 7.1747 230 138 30 0.273
6.4704 3.9278 11.6692 230 99 30 0.153
-4.1207 11.3432 18.2248 230 124 30 0.229
-7.5574 -1.3228 15.4187 230 106 30 0.175
11.3474 1.1486 14.1549 230 129 30 0.245
-3.0973 -8.8511 9.7429 230 134 30 0.259
-3.3193 -0.2642 12.0953 230 130 30 0.248
1.7478 -5.1969 10.2341 230 131 30 0.251
8.6102 7.6848 11.0306 230 119 30 0.213
13.4601 11.1275 13.5129 230 133 30 0.256
-6.2912 6.9680 16.1328 230 133 30 0.256
8.1645 7.2943 13.3623 230 117 30 0.207
1.3682 7.2987 9.3644 230 108 30 0.180
2.8735 3.6957 9.1841 230 112 30 0.192
-4.8507 11.4928 16.6413 230 104 30 0.168
-0.6181 8.2506 13.2950 230 117 30 0.207
-8.1592 2.7144 10.6845 230 104 30 0.168
-13.0279 3.3360 18.2035 230 158 30 0.333
11.2808 -3.4399 13.6724 230 100 30 0.154
-4.8548 0.2996 10.7552 230 103 30 0.164
5.5586 9.2248 8.6879 230 107 30 0.175
-8.3328 1.9243 4.5120 230 117 30 0.208
-7.2171 5.2463 15.5046 230 155 30 0.325
10.2778 6.1269 10.0234 230 104 30 0.167
12.1309 -2.9541 14.6608 230 138 30 0.274
-13.1374 -11.2020 14.7082 230 107 30 0.177
-0.1123 -5.4015 13.8883 230 152 30 0.315
-5.3792 -6.2366 11.2642 230 123 30 0.227
6.5854 7.7282 16.6114 230 145 30 0.295
8.4638 -6.6603 12.2016 230 114 30 0.199
4.1794 -1.9559 9.1708 230 98 30 0.150
-13.0620 0.0200 14.0117 230 155 30 0.325
5.1636 -6.1111 16.3733 230 144 30 0.291
4.5707 0.1866 5.7863 230 144 30 0.291
13.1769 6.1465 16.4568 230 148 30 0.304
8.6052 5.7813 7.1448 230 152 30 0.315
-5.8667 3.4801 6.5023 230 138 30 0.273
14.2597 8.5723 16.0298 230 109 30 0.184
-14.5780 2.3615 8.6545 230 122 30 0.223
-6.4364 1.3256 5.6568 230 130 30 0.249
-7.9433 -7.6086 14.0394 230 151 30 0.314
-10.9176 3.3094 8.1366 230 111 30 0.188
-13.1822 3.0286 16.6357 230 113 30 0.195
4.3051 2.7295 13.9336 230 103 30 0.164
16.7375 13.5487 18.8138 230 111 30 0.190
-13.5039 2.1891 7.5833 230 152 30 0.315
7.7327 5.6186 9.3676 230 128 30 0.241
8.3936 4.2121 9.1042 230 103 30 0.165
-8.6537 -0.5666 13.8421 230 125 30 0.232
16.2679 7.8836 19.0281 230 104 30 0.167
0.4223 3.0956 9.8892 230 100 30 0.154
14.2324 8.9435 17.6759 230 147 30 0.301
15.2197 -3.9126 20.5867 230 108 30 0.179
4.7397 0.0013 4.3340 230 108 30 0.180
13.2135 -2.0116 16.4844 230 149 30 0.305
9.0259 -5.9277 11.4228 230 154 30 0.321
14.1961 13.2159 19.2082 230 118 30 0.210
-4.6955 -6.9068 12.1796 230 159 30 0.337
-2.9189 -5.2775 12.2444 230 137 30 0.271
13.1891 6.6175 18.1128 230 149 30 0.307
-12.8146 1.2815 11.0510 230 105 30 0.172
10.2192 -2.2285 19.2564 230 126 30 0.236
2.5779 -2.1345 9.9285 230 114 30 0.198
-9.1899 -7.2529 13.8421 230 126 30 0.235
12.7236 3.8926 9.5457 230 162 30 0.346
2.9637 0.1038 13.2352 230 122 30 0.222
-7.9963 -3.9155 17.0173 230 124 30 0.229
-6.9011 -7.9054 15.7670 230 145 30 0.295
-6.2040 8.7683 18.6581 230 113 30 0.195
-12.0982 -11.7006 16.4407 230 132 30 0.255
-11.2730 8.7519 17.0192 230 153 30 0.319
-8.2867 0.7552 4.3502 230 130 30 0.247
2.6710 2.1607 1.2647 230 103 30 0.165
4.4373 -5.9298 13.8883 230 160 30 0.341
7.0352 5.3153 12.5511 230 126 30 0.235
-14.4820 0.8227 13.9778 230 152 30 0.317
12.6348 7.2039 16.9168 230 142 30 0.285
2.3150 -2.8756 11.5507 230 121 30 0.221
-9.1522 -3.7907 8.2411 230 121 30 0.220
10.9135 -2.0154 15.5354 230 127 30 0.239
11.6597 6.8982 8.6142 230 128 30 0.242
3.1283 5.8283 17.7264 230 108 30 0.180
-11.4792 -2.2688 9.1968 230 146 30 0.296
7.8141 0.6014 13.7695 230 154 30 0.321
-11.8748 1.2094 10.8297 230 108 30 0.179
-11.5841 3.7193 14.1266 230 143 30 0.287
-10.4860 2.8061 19.0645 230 136 30 0.266
-6.7137 -5.6231 12.4630 230 128 30 0.242
-5.8089 -3.6573 14.3735 230 105 30 0.172
4.4776 1.9572 4.6368 230 136 30 0.265
5.1558 -2.5340 12.8393 230 121 30 0.220
7.5976 -6.4285 12.1345 230 145 30 0.295
-12.5649 -2.2868 5.4876 230 103 30 0.164
10.9431 5.8430 7.8980 230 157 30 0.330
-8.3521 -4.6796 14.6762 230 114 30 0.197
-5.8026 -5.6830 12.7107 230 98 30 0.150
13.4632 5.8641 13.5394 230 114 30 0.199
12.6353 4.0022 15.8660 230 101 30 0.159
-12.8504 -12.9759 13.5537 230 100 30 0.154
9.0490 1.4625 15.8916 230 138 30 0.272
-5.4684 -2.3331 7.9412 230 150 30 0.309
-4.7325 10.8162 15.3284 230 146 30 0.298
-9.9337 4.3565 18.9152 230 137 30 0.271
8.1638 4.7104 13.0445 230 150 30 0.310
-8.5269 -1.0225 7.2847 230 119 30 0.215
9.7707 8.7692 11.8342 230 157 30 0.329
12.4725 -2.8281 16.0479 230 162 30 0.347
16.3168 10.2330 18.4803 230 109 30 0.183
-11.1211 8.7649 14.2146 230 125 30 0.234
-10.4004 -2.6087 2.2564 230 108 30 0.179
6.9146 7.1967 13.8880 230 115 30 0.201
11.7985 11.8667 16.6230 230 133 30 0.257
9.9544 -1.3743 19.2626 230 119 30 0.214
0.8581 -6.1973 13.4554 230 159 30 0.338
8.9280 -5.9884 11.1942 230 155 30 0.326
7.9210 5.0524 7.4162 230 103 30 0.163
7.2335 -3.6275 9.8399 230 134 30 0.259
6.6365 -1.8060 13.9961 230 144 30 0.290
7.5416 5.1001 9.3834 230 159 30 0.337
4.1325 1.1137 4.4528 230 111 30 0.191
9.0512 8.2061 10.2089 230 132 30 0.254
-12.9640 0.3091 10.7564 230 154 30 0.320
15.1779 4.9124 13.5996 230 134 30 0.259
6.1623 6.3531 10.0486 230 133 30 0.258
4.2054 -0.3228 6.8788 230 141 30 0.283
8.3426 -3.0324 15.0237 230 100 30 0.157
-3.4362 -1.8633 10.3342 230 125 30 0.231
-6.9848 3.9138 13.6054 230 119 30 0.212
10.9209 -1.4571 15.7648 230 154 30 0.321
12.2576 -3.6532 12.9083 230 114 30 0.198
5.6600 5.5862 18.8448 230 106 30 0.174
-3.6409 0.3043 7.6135 230 158 30 0.335
-9.7923 -3.1246 7.9687 230 107 30 0.177
6.7459 6.2790 4.8219 230 144 30 0.290
6.2485 5.4274 7.1675 230 106 30 0.174
8.3110 9.4789 17.2297 230 108 30 0.179
-12.7737 12.0354 18.1553 230 148 30 0.302
-8.4566 2.1850 14.1244 230 132 30 0.254
5.4968 1.3893 1.3160 230 138 30 0.271
-4.5546 -6.6836 7.7331 230 141 30 0.283
8.6422 8.0808 12.5613 230 109 30 0.184
14.2730 9.3758 18.9997 230 112 30 0.193
6.3275 1.2685 12.2311 230 155 30 0.324
-1.1827 -5.4147 12.9749 230 149 30 0.306
-11.0057 8.6274 11.4764 230 104 30 0.168
-9.9761 -2.7409 6.2916 230 116 30 0.204
-8.6000 7.7529 14.5694 230 154 30 0.321
6.7926 7.8049 10.1233 230 154 30 0.320
-7.0487 7.1025 13.2379 230 139 30 0.276
10.0322 -3.8608 14.9109 230 150 30 0.309
10.9408 6.5249 10.2311 230 129 30 0.246
11.9132 -1.2743 9.3212 230 148 30 0.302
9.8109 0.9245 9.5029 230 149 30 0.305
-12.4527 -2.2570 9.3434 230 105 30 0.171
-4.8537 -9.6812 14.1493 230 157 30 0.329
1.5070 4.9876 2.9959 230 99 30 0.153
4.3731 -6.5087 16.1534 230 163 30 0.350
-7.9586 -5.0308 6.7267 230 117 30 0.207
14.2828 6.9416 7.2477 230 132 30 0.255
11.1509 7.0481 12.1135 230 158 30 0.335
6.9271 -8.1422 7.8794 230 128 30 0.241
-8.4298 7.9492 11.4075 230 150 30 0.309
13.2460 11.2097 16.3808 230 128 30 0.242
12.0384 9.3121 13.4939 230 109 30 0.182
-6.3844 -3.8725 13.1068 230 119 30 0.214
-3.6734 -3.3052 13.2780 230 156 30 0.327
-9.8106 0.7215 19.9960 230 115 30 0.203
10.1547 -3.6297 16.2346 230 109 30 0.183
-8.0741 -7.4580 13.5092 230 139 30 0.275
13.8806 6.4497 9.7906 230 154 30 0.322
7.8872 -3.8768 10.1055 230 114 30 0.198
9.8429 -1.3308 16.8497 230 121 30 0.221
8.8347 9.1402 14.3824 230 119 30 0.215
-0.3158 5.0500 5.5980 230 136 30 0.268
11.0596 -0.8209 14.9371 230 117 30 0.208
-7.1716 9.8043 16.6769 230 123 30 0.225
-2.5338 0.1645 14.3096 230 133 30 0.255
10.1675 4.9370 7.9507 230 100 30 0.155
12.0803 10.1963 14.3679 230 143 30 0.286
-3.3212 -1.1727 7.0554 230 120 30 0.218
-6.7548 4.7616 14.8571 230 100 30 0.154
-14.3520 0.9972 14.3345 230 132 30 0.253
2.9287 2.1256 4.9307 230 130 30 0.248
-10.6248 1.5368 10.9314 230 131 30 0.250
9.2050 3.2104 8.8000 230 133 30 0.257
0.7621 6.2501 10.6530 230 111 30 0.191
-11.8295 -3.0632 11.0656 230 158 30 0.333
-8.4321 4.4756 21.0808 230 117 30 0.208
-9.6556 -0.3631 11.2325 230 132 30 0.253
-13.1431 -2.1204 12.0747 230 158 30 0.335
12.7363 3.3120 7.8694 230 106 30 0.172
-7.1191 -0.2427 5.4825 230 155 30 0.325
10.4258 10.4193 17.0800 230 134 30 0.261
12.8699 8.1858 15.9611 230 133 30 0.256
-4.8442 -3.1321 9.9034 230 121 30 0.220
1.7701 6.4962 7.3157 230 102 30 0.161
9.9814 -3.8859 13.7738 230 138 30 0.272
15.2990 9.1132 19.9054 230 127 30 0.240
0.6663 10.8884 11.4152 230 119 30 0.215
2.5897 5.6523 14.8407 230 104 30 0.168
7.1762 4.2721 14.7136 230 125 30 0.231
-5.8768 -2.2580 3.8418 230 135 30 0.262
1.9814 -7.8549 9.7031 230 127 30 0.239
13.1428 7.7164 5.7924 230 111 30 0.189
12.7587 8.7785 11.8637 230 150 30 0.308
13.8403 6.1238 15.7478 230 150 30 0.310
0.9839 -6.4570 9.0720 230 139 30 0.274
-9.9962 6.6629 17.7746 230 127 30 0.239
14.6724 -5.1394 17.7080 230 113 30 0.195
4.7874 -4.6974 14.3344 230 146 30 0.296
6.5990 1.2168 5.3770 230 156 30 0.328
8.2432 -4.1309 11.7198 230 114 30 0.200
11.4884 -5.5674 19.6757 230 142 30 0.285
0.0137 7.5861 10.2453 230 158 30 0.335
-10.6954 3.1833 12.2355 230 130 30 0.247
-9.8580 2.8479 20.2440 230 143 30 0.289
11.6657 10.6843 16.2209 230 147 30 0.300
15.4932 11.0836 14.8241 230 133 30 0.257
2.9410 1.0772 11.4855 230 113 30 0.195
10.0386 5.6221 11.2869 230 103 30 0.165
2.8573 -1.5070 2.5875 230 122 30 0.223
8.6557 -5.8771 11.2463 230 155 30 0.325
2.7267 0.9426 3.3464 230 107 30 0.176
4.2968 2.5549 1.3555 230 153 30 0.320
14.3192 7.2184 17.7848 230 122 30 0.222
12.5531 -4.7229 17.3175 230 129 30 0.244
-7.2878 -2.5762 15.3016 230 133 30 0.255
-2.8180 -7.7775 13.4114 230 126 30 0.236
-9.3807 2.3962 7.4228 230 133 30 0.256
7.3346 4.4953 13.6059 230 144 30 0.290
