ply
format ascii 1.0
comment Created by Open3D
element vertex 920
property double x
property double y
property double z
property double nx
property double ny
property double nz
property uchar red
property uchar green
property uchar blue
end_header
-11.3777 8.82037 13.2362 -0 -0 -1 68 70 67
-5.29794 -1.1752 12.2567 -0 -0 -1 0 0 0
-2.06863 1.47974 8.50749 -0 -0 -1 18 22 31
-9.2102 -14.566 16.5152 -0 -0 -1 0 1 1
-12.2883 -11.5246 10.0758 -0 -0 -1 16 7 0
6.63315 7.89973 10.3516 -0 -0 -1 168 170 167
-7.66696 -0.859078 5.21164 -0 -0 -1 15 24 29
-9.61197 -12.1334 13.7599 -0 -0 -1 0 0 12
-1.47058 2.87559 12.5262 -0 -0 -1 17 22 30
-2.92249 1.70416 8.03648 -0 -0 -1 14 23 28
-4.4625 6.51145 13.8736 -0 -0 -1 49 56 64
-1.58541 -3.50424 11.6763 -0 -0 -1 60 70 80
11.7103 -4.77377 21.1682 -0 -0 -1 35 44 51
-1.30444 1.59104 12.248 -0 -0 -1 17 21 30
-2.75171 -16.1684 18.5638 -0 -0 -1 11 5 0
-11.3849 -11.8012 11.5611 -0 -0 -1 7 5 8
-4.69913 -4.01531 5.58795 -0 -0 -1 50 56 60
-6.91962 -14.1788 16.9774 -0 -0 -1 144 150 64
5.5545 6.00757 10.0254 -0 -0 -1 63 65 62
-10.9399 -12.2279 12.2502 -0 -0 -1 28 28 0
-9.37787 -3.73841 7.35178 -0 -0 -1 36 43 49
-3.04676 -16.0545 18.5057 -0 -0 -1 58 57 0
-0.943782 6.33618 8.61863 -0 -0 -1 194 196 193
-1.98035 -13.8845 16.3242 -0 -0 -1 1 4 1
2.35894 -0.570561 3.32889 -0 -0 -1 60 70 79
-8.83224 -13.1393 15.143 0.770031 0.537453 -0.343798 11 13 6
4.70509 -3.53092 12.5475 -0 -0 -1 0 0 0
-11.1219 -12.1195 11.9302 -0 -0 -1 7 9 3
1.56046 -1.18891 10.388 -0 -0 -1 17 21 30
12.966 7.49647 15.7319 -0 -0 -1 168 170 167
-11.148 -12.0107 11.9819 -0 -0 -1 3 4 8
-1.11209 6.84662 13.5498 -0 -0 -1 93 97 98
-1.48342 -0.31135 12.3914 -0 -0 -1 43 52 61
-8.84789 -13.1347 14.6304 -0 -0 -1 1 0 4
-2.74322 -15.0312 17.1296 0.167632 0.484266 -0.858712 15 1 1
2.86143 4.61055 14.0851 -0 -0 -1 57 65 76
0.87384 -0.0198894 0.0334785 0.309514 0.931713 -0.190032 103 105 102
0.843372 0.00701595 0.113949 0.337523 0.921747 -0.190945 175 177 174
7.13955 8.04433 13.8053 -0 -0 -1 94 96 93
6.57601 -0.904302 9.64954 -0 -0 -1 15 24 31
-9.82366 -9.43803 9.67623 -0 -0 -1 2 1 0
-0.816352 6.60289 13.229 -0 -0 -1 49 58 62
-4.08515 -3.6797 9.47656 -0 -0 -1 0 0 0
-2.6612 -16.7168 19.3211 -0 -0 -1 9 2 6
-3.60828 -15.1772 17.0773 -0 -0 -1 0 1 2
-9.51867 -12.5216 14.3798 0.520244 -0.457109 -0.721386 20 2 0
-6.49784 3.84057 9.60953 -0 -0 -1 34 38 47
-6.07849 6.5228 9.41743 -0 -0 -1 67 69 66
0.097292 -0.794504 8.73156 -0 -0 -1 18 22 31
0.00704072 -1.04699 11.6104 -0 -0 -1 18 22 31
-10.8561 -12.3353 12.341 0.858463 0.369441 -0.355746 6 8 0
4.45451 5.84959 9.25578 -0 -0 -1 92 94 91
13.7759 8.03757 17.3686 -0 -0 -1 159 161 158
-10.8502 -11.8226 12.8555 -0 -0 -1 206 206 145
-1.16366 1.12648 8.72494 -0 -0 -1 15 22 28
-10.6516 -12.4106 12.5526 0.639757 0.765259 -0.0713373 7 3 6
-1.20157 3.46912 2.90731 0.0493696 0.880386 -0.471682 73 75 72
5.63623 2.1021 9.79981 -0 -0 -1 57 69 81
-8.85542 6.61421 13.3916 -0 -0 -1 99 101 98
-1.71387 4.23436 6.32194 -0 -0 -1 113 115 112
-9.95896 -12.538 13.5324 -0 -0 -1 0 1 0
-8.05427 -13.7641 15.109 -0 -0 -1 1 0 4
0.0767819 1.51401 12.1946 -0 -0 -1 36 45 52
1.32229 -0.249522 2.25911 0.688675 -0.657047 -0.306619 16 25 30
-7.5041 2.85557 6.17673 -0 -0 -1 209 211 208
-10.5509 -12.4997 12.6832 0.829212 0.44786 -0.334408 7 10 0
-2.34057 -15.9009 18.4427 -0.638604 -0.63847 -0.429583 14 1 0
-9.58414 -2.86196 7.57121 -0 -0 -1 8 13 19
6.29776 6.16533 5.45508 -0 -0 -1 139 141 138
-10.8038 -12.296 12.5078 0.626461 0.69181 -0.35909 4 3 2
-11.6093 -11.655 11.0947 -0 -0 -1 0 1 5
-8.90278 8.65914 16.8112 -0 -0 -1 148 150 147
9.88611 6.69256 10.0367 -0 -0 -1 204 206 203
-9.69369 -13.0598 14.3717 -0 -0 -1 0 1 2
1.20707 0.0112769 2.25276 -0 -0 -1 43 52 61
-1.76433 -15.4848 18.4651 -0 -0 -1 1 0 0
-9.87367 -9.6007 10.1861 -0 -0 -1 204 212 69
-9.74533 -12.8623 13.5933 -0 -0 -1 3 4 5
1.21762 -3.79202 8.20334 -0 -0 -1 32 36 45
-1.26411 -1.81762 11.4764 -0 -0 -1 60 70 79
2.23714 3.82608 11.2486 -0 -0 -1 57 67 79
3.69661 6.11036 11.2503 -0 -0 -1 93 101 107
-8.5068 -13.7449 14.9217 -0.0847831 -0.981273 -0.172962 31 30 0
-11.8524 -0.167914 13.7996 -0 -0 -1 39 43 52
-1.83451 6.82975 13.9503 -0 -0 -1 33 42 47
-1.21237 3.44735 2.53693 -0 -0 -1 114 116 113
-5.38962 -15.8803 17.8861 0.574084 0.676284 -0.461593 3 11 0
-5.87115 -5.20965 14.0608 -0 -0 -1 32 41 46
-7.65322 -13.612 16.1882 -0 -0 -1 0 0 4
-9.41529 -5.96394 13.0751 -0 -0 -1 35 39 48
-8.34293 -13.4646 15.6824 -0 -0 -1 3 5 0
-2.55036 -2.10822 7.27734 -0 -0 -1 18 22 31
-10.0437 -12.4094 13.8619 -0 -0 -1 6 7 0
-8.18767 1.96347 13.3532 -0 -0 -1 36 45 52
2.91049 5.8921 8.11393 -0 -0 -1 177 179 176
-8.29962 -4.89592 10.1594 -0 -0 -1 54 64 73
3.57041 1.78549 10.4138 -0 -0 -1 61 72 82
0.27793 1.88182 13.5114 -0 -0 -1 45 54 63
-12.2502 -10.6612 10.0734 -0.476142 -0.563051 -0.675472 6 9 0
-1.59895 -15.1562 17.7014 -0 -0 -1 19 26 2
0.876117 0.106136 1.77106 -0 -0 -1 44 53 60
-12.2766 -10.6934 10.1189 -0.476142 -0.563051 -0.675472 6 9 0
2.08598 -1.62811 2.73593 -0 -0 -1 43 52 61
-12.0663 -10.747 10.5953 -0 -0 -1 9 6 0
6.51813 8.1058 15.0489 -0 -0 -1 55 68 77
-6.37818 -13.0326 15.564 -0 -0 -1 83 89 29
-11.4369 -11.4179 11.923 -0 -0 -1 6 3 0
-11.1438 -10.5419 10.0725 -0 -0 -1 1 3 0
7.02646 -3.35242 11.9302 -0 -0 -1 14 25 31
-12.0263 1.32936 6.74967 -0 -0 -1 149 151 148
-10.6398 -12.046 13.1389 0.644443 0.568697 -0.511152 6 8 0
4.75219 7.98945 12.1663 -0 -0 -1 83 85 82
0.860883 1.07759 12.9336 -0 -0 -1 44 54 63
-3.81695 -1.27072 6.96064 -0 -0 -1 55 63 74
-10.6739 -11.943 13.2106 0.644443 0.568697 -0.511152 5 1 2
-3.93246 1.60648 13.0844 -0 -0 -1 18 23 29
3.83093 1.96146 10.938 -0 -0 -1 60 70 80
-3.50646 1.26106 8.07882 -0 -0 -1 57 65 76
-8.41199 -13.7457 15.0448 0.716618 0.429814 -0.54929 5 1 1
-1.93501 0.568239 12.1785 -0 -0 -1 41 50 59
-5.21971 -2.8553 5.63175 -0 -0 -1 55 64 73
-3.0193 3.65858 5.23107 -0 -0 -1 202 204 201
-7.72334 2.49072 5.93655 0.74706 0.651588 0.131658 41 50 59
-11.2756 -11.9289 11.7225 -0 -0 -1 1 0 1
7.70123 -5.25634 10.2578 -0 -0 -1 43 52 61
1.24521 -0.296037 2.18546 0.688675 -0.657047 -0.306619 61 71 81
-6.80507 -15.1522 16.9275 -0 -0 -1 1 1 6
-5.4828 7.35566 13.9226 -0 -0 -1 92 94 91
-0.522204 -4.38939 9.72254 -0 -0 -1 27 37 46
-1.27359 -1.68859 11.5565 -0 -0 -1 62 72 81
-0.281103 1.6049 13.2749 -0 -0 -1 16 25 32
0.640123 -0.640468 1.357 0.765746 0.353329 -0.537393 56 68 80
-1.09781 3.40602 2.8004 0.0493696 0.880386 -0.471682 72 74 71
-8.7709 -13.1811 15.2151 0.765816 0.539913 -0.349313 1 2 0
-2.53839 2.20572 12.3175 -0 -0 -1 18 22 31
3.32589 2.97855 11.2026 0.623226 -0.709096 -0.329808 16 23 31
-0.176572 6.73642 13.0555 -0 -0 -1 173 178 172
-2.19891 -15.3794 17.8998 -0 -0 -1 7 2 2
12.4871 9.74943 13.0868 -0 -0 -1 88 90 87
-6.90669 -13.9528 16.5478 -0 -0 -1 23 10 0
-7.79684 -4.27745 14.8623 -0 -0 -1 18 22 31
-0.170688 -3.92851 8.52943 -0 -0 -1 56 66 76
-2.67213 -14.9587 17.2112 0.771903 -0.62489 -0.116955 134 136 90
-4.80396 -14.9919 17.0617 -0 -0 -1 156 163 74
-0.127275 1.92937 14.0141 -0 -0 -1 16 25 32
0.802599 0.0176294 0.0883245 0.337523 0.921747 -0.190945 134 136 133
-9.85545 -10.001 10.6836 -0 -0 -1 6 3 0
-0.129023 5.36806 9.62654 -0 -0 -1 94 96 93
-8.64711 -13.2662 15.355 -0 -0 -1 13 8 0
-6.4622 -14.4491 16.2241 -0 -0 -1 1 1 6
-9.44038 -12.6118 14.5023 -0.124155 -0.704403 -0.698858 130 134 10
-5.45799 3.0969 7.45532 -0 -0 -1 34 38 47
5.21031 1.19919 9.58554 -0 -0 -1 35 39 48
-11.7898 -11.0779 11.0962 -0 -0 -1 2 1 0
2.43109 5.02587 5.28912 -0 -0 -1 155 157 154
-1.68827 -5.45189 9.77674 -0 -0 -1 56 66 76
3.49887 6.70419 12.7689 -0 -0 -1 15 22 28
-6.08034 -15.8311 17.7918 -0 -0 -1 3 4 4
-10.4817 -12.4983 12.8566 0.821648 0.463492 -0.331767 3 4 2
-6.50915 -13.8741 16.0659 -0 -0 -1 0 1 1
6.14661 6.22112 16.155 -0 -0 -1 40 49 58
-0.596623 -0.342013 8.59446 -0.602559 -0.791407 -0.102946 18 22 31
6.56643 7.49282 8.36785 -0 -0 -1 187 189 186
-0.698544 -2.23446 7.96808 -0 -0 -1 58 70 82
-9.73473 -12.9166 13.5394 0.80788 0.487084 -0.331781 1 8 5
0.572325 -1.37276 12.0371 -0 -0 -1 16 25 32
-10.7072 -9.93414 7.81744 -0 -0 -1 3 1 2
2.72191 5.13564 4.42 -0 -0 -1 155 157 154
-12.2818 -10.5559 10.0079 -0.476142 -0.563051 -0.675472 126 130 82
-8.83464 -13.5457 14.5519 -0 -0 -1 1 1 13
0.124423 6.23563 7.10631 -0 -0 -1 155 157 154
-9.96222 -9.44146 9.85467 -0 -0 -1 3 0 0
-8.06405 -5.45464 9.17615 -0 -0 -1 18 22 31
4.14107 -2.67765 3.2311 -0 -0 -1 63 52 36
-8.08833 -13.6885 14.8616 -0 -0 -1 12 11 0
-7.72857 -14.1124 15.5884 -0 -0 -1 0 0 4
-2.11344 -15.7468 18.518 -0 -0 -1 0 0 0
4.55537 0.662968 3.20125 -0 -0 -1 0 0 0
-3.26654 -14.9771 17.3764 -0 -0 -1 2 1 0
-7.53303 -14.2246 15.7195 -0 -0 -1 0 3 1
-1.87057 -0.98892 5.27756 -0 -0 -1 18 22 31
-6.70698 -14.5721 16.3204 -0 -0 -1 3 2 5
-9.68684 -8.54857 8.31782 -0 -0 -1 189 195 123
-3.61818 5.04182 7.25253 -0 -0 -1 203 205 202
-3.68965 0.129052 7.50471 -0 -0 -1 36 40 49
-3.74774 -16.4714 18.985 -0 -0 -1 2 1 0
5.03216 -0.656107 5.6284 -0 -0 -1 160 162 159
-1.3417 -3.11731 11.7123 -0 -0 -1 58 70 82
1.45059 -0.863709 12.4672 -0 -0 -1 16 25 32
1.15677 -1.13429 1.95583 -0 -0 -1 43 52 61
-9.26108 -12.7824 14.6683 0.5915 0.574576 -0.565676 121 129 19
0.85883 -0.0119206 0.0526093 0.309514 0.931713 -0.190032 145 147 144
-0.596964 -0.336976 8.55773 -0.602559 -0.791407 -0.102946 18 22 31
16.0734 8.84872 19.8302 -0 -0 -1 60 62 59
-9.1128 -12.8756 14.8968 -0 -0 -1 9 5 2
-9.47313 -12.0937 13.8911 0.615597 0.280926 -0.736288 13 3 2
-10.6341 1.77139 8.15296 -0 -0 -1 168 173 177
1.7216 -0.808202 2.59052 -0 -0 -1 13 22 27
-1.41793 -1.4765 4.34048 -0 -0 -1 31 40 45
-8.85237 -13.0254 15.2761 0.770031 0.537453 -0.343798 2 3 5
0.0870444 6.12459 7.1475 -0.294434 0.239837 -0.925088 155 157 154
1.71597 0.274163 11.0345 -0 -0 -1 15 19 28
-10.2251 6.61541 13.9427 -0 -0 -1 179 181 178
-9.9285 -12.6119 13.9891 -0 -0 -1 1 3 2
-0.593863 -1.11846 8.29703 -0 -0 -1 9 11 15
7.18175 -0.275938 11.5832 -0 -0 -1 15 24 31
-1.49621 3.03431 12.8133 -0 -0 -1 16 25 32
-9.993 -12.7411 13.3144 -0 -0 -1 1 3 0
1.15702 2.90073 10.2796 -0 -0 -1 58 68 77
-0.830946 4.30558 5.8819 -0 -0 -1 195 197 194
-7.12667 -13.5662 16.1015 -0 -0 -1 50 50 23
-1.70691 -4.10304 10.6397 -0 -0 -1 35 44 51
-9.26016 -13.2671 14.0993 -0 -0 -1 11 7 6
-8.96332 5.74216 14.5045 -0 -0 -1 34 38 47
-7.04451 -14.4164 16.1122 -0 -0 -1 5 0 9
-11.8331 -11.0233 11.2505 -0 -0 -1 3 0 0
-9.63137 -11.0702 11.128 -0 -0 -1 28 28 0
-11.4012 -11.3897 12.101 0.850555 0.465588 -0.244509 36 34 10
2.36589 4.09475 11.9448 -0 -0 -1 57 67 79
-9.71082 -10.5881 10.4544 -0 -0 -1 1 0 1
-1.77867 -15.6329 18.3872 -0 -0 -1 97 111 31
9.25533 -1.84056 12.2775 -0 -0 -1 35 44 51
-8.54352 -13.6966 14.8562 0.132747 -0.760524 -0.635595 109 115 60
4.40991 0.402535 3.18796 -0 -0 -1 89 91 88
-11.3137 -11.4874 12.2193 -0 -0 -1 0 2 0
-0.26662 -0.338034 12.515 -0 -0 -1 43 52 61
-7.80392 2.6094 5.80638 -0 -0 -1 40 48 53
3.3604 -2.66019 12.2224 -0 -0 -1 61 71 83
-2.00689 -3.37296 6.91134 -0.796932 -0.590717 -0.126308 0 0 0
-10.3338 -12.1789 13.5206 -0 -0 -1 2 4 0
-0.867054 6.28887 8.54294 -0 -0 -1 194 196 193
-10.1296 -12.2173 13.6382 -0 -0 -1 0 5 5
-2.30993 0.537008 12.0368 -0 -0 -1 43 52 61
3.98295 2.17761 11.0963 -0 -0 -1 57 69 81
8.81992 -0.95803 12.0569 -0 -0 -1 0 0 0
-3.31044 -2.06221 11.7211 -0 -0 -1 60 70 82
0.731015 0.0698325 0.205325 0.317842 0.917571 -0.238833 63 65 62
9.06422 5.06573 5.72676 -0 -0 -1 90 91 86
-3.45408 3.17343 8.37937 -0 -0 -1 53 61 72
-3.34878 3.60899 5.33598 -0 -0 -1 203 205 202
-0.795135 5.34465 10.1664 -0 -0 -1 165 167 164
-9.05824 -13.3944 14.3302 -0 -0 -1 0 1 2
-4.03216 -16.4001 18.7724 -0 -0 -1 0 2 3
-3.1044 1.01304 7.98449 -0 -0 -1 57 65 76
-9.17735 6.89591 13.9882 -0 -0 -1 101 103 100
-9.73047 -11.1184 12.323 0.965677 0.252492 -0.0609585 6 8 0
4.43445 5.53464 6.61814 -0 -0 -1 185 187 184
-5.31908 -15.8227 18.0583 0.620579 0.633067 -0.462718 9 4 3
6.58973 3.89166 13.8078 -0 -0 -1 59 68 78
1.00763 6.46769 12.8373 -0 -0 -1 120 125 131
8.02731 -5.33534 11.6367 -0 -0 -1 43 52 61
-6.21799 -14.5002 16.2826 -0 -0 -1 48 51 24
10.6448 5.28959 14.2384 -0 -0 -1 16 25 32
-1.12664 -5.91161 11.327 -0 -0 -1 32 36 45
-3.02938 -0.851232 11.8525 -0 -0 -1 16 25 32
-9.8431 -12.8155 13.4239 -0 -0 -1 19 18 3
-12.0316 -11.1012 10.5569 -0 -0 -1 0 2 1
1.81379 -0.211329 9.664 -0 -0 -1 37 46 53
-2.24964 -16.0381 18.5116 -0 -0 -1 235 243 119
0.485215 0.228 1.63184 -0 -0 -1 53 61 72
10.9936 6.3518 8.34021 -0 -0 -1 111 113 108
-3.37885 -16.1878 18.6411 -0 -0 -1 4 0 2
0.364282 4.54358 5.10218 -0 -0 -1 155 157 154
-1.97536 -16.7824 19.4211 -0 -0 -1 14 22 0
-5.91783 -3.61575 11.1893 -0 -0 -1 55 63 74
-10.2481 -5.42865 9.67342 -0 -0 -1 13 20 26
1.60539 -1.2303 9.25565 -0 -0 -1 57 65 76
-0.456488 -1.24892 10.1417 -0 -0 -1 17 22 31
-6.09433 7.2423 12.1144 -0 -0 -1 76 78 75
-0.532655 5.35175 10.0918 -0 -0 -1 170 172 169
6.39679 -3.50645 8.83275 -0 -0 -1 56 70 81
1.19235 8.02712 12.5393 -0 -0 -1 195 197 194
-11.296 1.8347 8.87495 -0 -0 -1 27 30 35
-10.1828 -5.1983 9.68392 -0 -0 -1 55 64 73
-10.7364 7.5099 16.1881 -0 -0 -1 149 151 150
0.0524949 -0.7682 8.53518 -0 -0 -1 18 22 31
-11.7912 -11.5765 10.8662 -0 -0 -1 88 80 54
-3.72234 -1.56761 7.00715 -0 -0 -1 18 22 31
-3.96518 -1.61901 7.47071 -0 -0 -1 18 22 31
3.30403 5.00118 11.5241 -0 -0 -1 18 22 31
6.10471 -4.6234 8.76378 -0 -0 -1 45 51 58
-7.38221 -6.09623 13.7929 -0 -0 -1 55 63 74
-4.278 1.32841 7.30239 -0 -0 -1 57 65 76
-7.74498 2.48295 6.09777 -0 -0 -1 41 50 59
4.50352 0.428146 3.35807 -0 -0 -1 67 69 66
-10.563 -12.4671 12.6987 0.829212 0.44786 -0.334408 65 72 27
0.802808 4.05171 3.17338 -0 -0 -1 81 83 80
-1.31031 3.48599 3.10075 -0 -0 -1 72 74 71
-2.45869 -2.38894 7.00369 -0 -0 -1 55 63 74
-4.08901 -16.6148 18.5588 -0 -0 -1 0 1 3
-2.1691 6.0778 9.00578 -0 -0 -1 113 115 112
-8.67795 -13.2132 15.3675 0.768322 0.531517 -0.356611 102 114 49
-9.82954 -8.97075 9.04772 -0 -0 -1 9 6 0
10.2113 -3.75087 19.2859 -0 -0 -1 16 25 32
6.97297 8.08061 11.2643 -0 -0 -1 132 134 131
-1.3889 1.70428 11.9949 -0 -0 -1 18 22 31
-8.38342 -13.3932 15.7074 -0 -0 -1 117 119 67
-0.826097 -1.2459 7.9527 -0 -0 -1 62 71 78
-6.41044 -14.9424 16.7678 -0 -0 -1 48 51 24
-8.87816 -12.7123 14.3275 -0 -0 -1 1 0 2
0.928215 0.393362 9.81623 -0 -0 -1 36 45 52
-0.893084 -1.42469 8.13844 -0 -0 -1 58 70 82
-0.605313 -2.15707 7.60088 -0 -0 -1 30 40 49
3.66669 6.8991 12.8628 -0 -0 -1 14 21 30
0.842597 0.146097 1.97874 -0 -0 -1 43 52 61
5.79317 3.0554 13.6158 -0 -0 -1 60 70 82
13.2214 -6.65143 19.0688 -0 -0 -1 16 25 32
0.0821838 6.20021 7.47326 -0 -0 -1 115 117 114
-7.84727 -13.4415 15.6578 -0 -0 -1 3 2 0
-2.72914 0.931641 8.262 -0 -0 -1 18 22 31
6.61079 6.32617 14.4359 -0 -0 -1 63 73 83
-11.4375 -11.8137 11.4011 -0 -0 -1 158 162 24
6.01853 7.60512 13.0093 -0 -0 -1 93 95 92
0.883223 -0.0200192 0.0426253 0.309514 0.931713 -0.190032 142 144 141
-3.06984 -14.8908 17.128 -0 -0 -1 3 1 1
-7.90296 -13.2849 15.7793 -0 -0 -1 7 2 1
6.23944 -1.10709 8.44845 -0 -0 -1 61 73 85
-8.42818 -13.5364 15.2539 -0 -0 -1 0 2 1
-9.13495 6.66712 14.3319 -0 -0 -1 102 104 99
-12.132 -11.0375 10.3002 -0 -0 -1 0 1 0
4.36834 5.97677 9.45807 -0 -0 -1 92 94 91
5.01304 8.05913 12.0332 -0 -0 -1 85 87 84
-12.2453 -10.7262 10.5127 0.0678629 -0.922342 -0.380369 33 35 0
-8.34315 -13.726 14.8502 -0 -0 -1 15 11 0
-11.4976 -11.5002 11.5756 -0 -0 -1 1 1 3
-9.73439 -10.3989 10.2512 -0 -0 -1 7 5 8
-10.6445 -11.9942 13.1906 0.644443 0.568697 -0.511152 193 193 89
-6.71188 4.65602 9.45728 -0 -0 -1 0 0 0
-9.66683 -10.8614 10.7126 -0 -0 -1 7 9 3
11.5778 -2.55724 14.6455 -0 -0 -1 35 44 51
6.21297 8.24109 9.96437 -0 -0 -1 168 170 167
2.72324 6.33343 8.60401 -0 -0 -1 176 178 175
-9.39722 -12.683 14.5371 -0.211124 -0.548787 -0.808863 178 191 51
-9.69644 -9.88787 9.29228 -0 -0 -1 88 80 54
-2.20855 -2.15728 7.21861 -0 -0 -1 59 71 83
-0.974307 -0.248712 11.8975 -0 -0 -1 17 21 30
4.47898 5.23384 5.94606 -0 -0 -1 186 188 185
-7.57633 -13.9339 15.9782 -0 -0 -1 0 0 7
0.0568282 -5.63477 11.1082 -0 -0 -1 0 0 0
1.37674 5.09431 6.66372 -0 -0 -1 140 142 139
-15.3982 0.578314 13.7857 -0 -0 -1 130 136 134
-7.4899 -1.23577 12.9058 -0 -0 -1 39 43 52
-7.53021 5.52822 15.0591 -0 -0 -1 53 61 72
-10.4059 1.9488 6.77824 -0 -0 -1 110 112 109
-11.2478 -4.22324 10.9626 -0 -0 -1 55 64 73
-9.63751 -9.1066 8.58081 -0 -0 -1 0 0 0
-1.77874 -15.1061 17.6702 0.0402141 -0.723935 -0.688695 6 9 0
-3.42583 -1.95888 11.4689 -0 -0 -1 60 68 79
1.32615 3.20322 12.1241 -0 -0 -1 15 24 33
0.967776 -0.254419 1.79351 -0 -0 -1 57 71 82
-10.7721 6.59706 15.2045 -0 -0 -1 30 39 48
-1.30556 4.06575 9.55804 -0 -0 -1 94 99 95
-5.75098 -16.1116 18.043 -0 -0 -1 7 8 0
9.00197 8.84636 16.9295 -0 -0 -1 55 68 77
5.17923 1.18389 9.79721 -0 -0 -1 35 39 48
3.95628 -0.817997 12.8411 -0 -0 -1 35 44 51
-2.9246 -4.96642 10.2783 -0 -0 -1 56 66 76
-2.32488 -1.3812 7.27908 -0 -0 -1 60 70 82
-3.16512 -16.2176 18.7536 -0 -0 -1 8 5 0
-5.43444 -15.8093 17.9344 0.574084 0.676284 -0.461593 10 4 1
-2.50239 -1.48429 7.63419 -0 -0 -1 16 25 32
-2.13585 3.51733 3.63048 -0 -0 -1 95 97 94
-8.96443 6.76476 13.768 -0 -0 -1 103 105 102
-4.2651 6.53047 14.323 -0 -0 -1 36 45 52
-7.00169 -14.1881 16.308 -0 -0 -1 0 0 1
-1.22597 2.24001 9.5897 -0 -0 -1 17 22 31
-9.86218 -10.1484 11.0538 -0 -0 -1 0 2 0
0.824626 0.312625 9.35779 -0 -0 -1 36 45 52
-5.3833 -16.2539 18.3171 -0 -0 -1 11 4 0
3.47436 5.37411 12.1588 -0 -0 -1 19 23 34
-8.49027 6.99348 15.6642 -0 -0 -1 30 40 45
1.48796 -0.172578 2.4474 -0 -0 -1 16 25 32
-9.75032 -10.1238 9.67145 -0 -0 -1 0 1 5
-1.948 -2.96567 6.83629 -0 -0 -1 35 44 51
-4.65046 6.67139 13.6691 -0 -0 -1 150 152 147
-5.20498 3.42807 7.12487 -0 -0 -1 101 103 98
-4.41578 -2.74243 6.23025 -0 -0 -1 35 39 48
0.959065 -0.491976 1.70589 0.890881 0.451395 -0.0507377 33 40 46
6.11391 -3.99076 8.16092 -0 -0 -1 55 69 80
0.128828 6.00036 7.05626 -0.132452 0.557438 -0.819585 151 153 150
-11.756 -2.81681 11.1759 -0 -0 -1 18 22 31
0.999551 5.83842 11.3489 -0 -0 -1 15 22 28
1.29682 -2.47109 10.1046 -0 -0 -1 31 40 47
1.51322 0.335907 11.1618 -0 -0 -1 18 22 31
-4.43959 7.01273 13.2443 -0 -0 -1 93 95 92
-10.4962 7.85925 16.649 -0 -0 -1 102 105 98
1.8108 -0.230777 11.0788 -0 -0 -1 37 46 53
-2.76028 -1.15181 7.58352 -0 -0 -1 55 63 74
-10.7673 0.0239007 12.7809 -0 -0 -1 39 43 52
-9.35514 -12.1989 13.9497 -0 -0 -1 2 3 0
0.324982 -0.533702 1.4479 -0 -0 -1 57 67 79
-6.13471 -2.36897 5.46627 -0 -0 -1 55 63 74
3.84095 0.0526776 9.99223 -0 -0 -1 53 63 73
-5.7356 0.458707 12.9301 -0 -0 -1 36 40 49
-10.7943 -12.2313 12.9116 -0 -0 -1 0 1 1
-9.63354 -12.4873 14.2871 0.443069 -0.781762 -0.438791 7 1 2
5.93923 6.87226 11.822 -0 -0 -1 60 67 66
-5.21186 -5.91087 9.53153 -0 -0 -1 30 41 47
-2.31069 -3.5888 6.99643 -0 -0 -1 35 44 51
-0.280375 -2.60222 10.0497 -0 -0 -1 31 40 47
1.73036 2.87673 12.0228 -0 -0 -1 18 22 31
-1.86452 -0.519359 13.1864 -0 -0 -1 16 20 29
10.3785 8.51147 11.6371 -0 -0 -1 88 90 87
2.47875 0.0824971 1.06204 -0 -0 -1 111 113 110
3.30554 2.89989 11.3332 -0 -0 -1 18 22 31
3.62305 0.0677643 9.82848 -0 -0 -1 53 63 73
3.40314 6.54573 12.721 -0 -0 -1 18 22 31
-4.10245 5.5634 8.02878 -0 -0 -1 61 63 60
6.4218 2.28095 4.60301 -0 -0 -1 12 19 29
-4.67555 6.59414 9.76505 -0 -0 -1 70 72 69
-3.07008 1.29274 10.4292 -0 -0 -1 18 22 31
1.61768 3.32657 11.6378 -0 -0 -1 57 67 79
-11.8103 1.83999 13.887 -0 -0 -1 50 59 68
-7.31478 2.80521 6.22285 -0.0355476 0.897086 -0.440425 205 211 206
-4.38621 -16.2728 18.6206 -0 -0 -1 156 158 89
-5.52291 3.3944 7.08207 -0.666794 0.745157 0.011291 103 105 102
5.13367 -2.23699 7.88063 -0 -0 -1 57 67 77
-6.691 4.05727 8.31824 -0 -0 -1 177 182 176
12.4752 5.11579 9.17446 -0 -0 -1 37 28 21
4.2264 2.39678 10.9796 -0 -0 -1 57 69 81
-0.943594 -0.238341 11.7209 -0 -0 -1 17 21 30
2.99069 5.47098 5.90525 -0 -0 -1 155 157 154
-9.71541 -4.57058 10.473 -0 -0 -1 28 32 37
-9.64759 -11.6366 11.8483 -0 -0 -1 65 72 27
-5.91101 -0.946456 14.7771 -0 -0 -1 55 64 73
-9.9018 -9.19765 9.42306 -0 -0 -1 40 48 5
-7.25138 -4.36689 10.8831 -0 -0 -1 35 39 48
-11.566 7.69909 16.7742 -0 -0 -1 187 189 184
-4.00893 2.8651 13.4666 -0 -0 -1 18 22 31
10.5809 -1.26599 17.5594 -0 -0 -1 0 0 0
-4.58909 -2.5982 11.2116 -0 -0 -1 18 22 31
1.41983 -0.173708 9.60864 -0 -0 -1 37 46 53
1.74911 0.384963 11.3028 -0 -0 -1 16 23 31
1.25144 -5.37421 9.39272 -0 -0 -1 30 37 43
6.30557 5.18762 12.1164 -0 -0 -1 44 53 62
0.756684 0.0902183 0.311527 0.301797 0.91868 -0.254845 145 148 143
-8.58447 -13.1605 15.1437 -0 -0 -1 12 11 0
1.32819 -0.668677 2.21132 0.712088 0.699956 0.0547021 15 26 30
-8.57929 -13.7047 14.8584 0.132747 -0.760524 -0.635595 108 114 59
7.01963 8.94219 14.8043 -0 -0 -1 120 122 119
-3.50881 -2.40389 6.52354 -0 -0 -1 55 63 74
8.96713 -0.810829 15.6106 -0 -0 -1 44 54 63
-9.72939 -10.3818 10.0548 -0 -0 -1 158 162 24
-4.52163 -2.63996 5.94647 -0 -0 -1 35 39 48
3.25703 1.64992 11.345 -0 -0 -1 18 22 31
1.53607 -0.16251 10.312 -0 -0 -1 37 46 53
-2.42443 -2.13553 7.13515 -0 -0 -1 18 22 31
-4.8892 2.06711 12.6928 -0 -0 -1 57 65 76
-8.28365 -13.8691 15.1157 0.173153 -0.507056 -0.844342 185 194 109
-2.23745 -3.27568 6.71679 -0 -0 -1 35 44 51
-2.90831 2.29735 13.249 -0 -0 -1 18 22 31
0.827911 0.0184197 0.140748 0.290705 0.925782 -0.241697 180 182 179
2.45733 -1.71842 12.1294 -0 -0 -1 0 0 0
-2.20964 -2.38207 11.1917 -0 -0 -1 60 70 82
2.18886 -1.93944 10.6049 -0 -0 -1 55 63 74
1.28454 -0.254142 2.18438 0.688675 -0.657047 -0.306619 14 25 31
-5.48211 6.9673 10.2359 -0 -0 -1 199 201 198
-4.52385 -1.91314 9.12622 -0 -0 -1 16 23 31
-2.50442 3.49712 4.36707 -0 -0 -1 113 115 112
-10.6695 -4.06348 10.5029 -0 -0 -1 55 63 74
-3.67309 -2.41303 6.73333 -0 -0 -1 55 63 74
-8.69316 6.98069 14.7753 -0 -0 -1 103 105 102
-2.86128 -14.8803 17.1767 -0.725985 -0.391336 -0.565511 4 3 4
-0.692025 -1.01833 7.91128 -0 -0 -1 18 22 31
7.84276 -0.901641 12.6635 -0 -0 -1 43 52 61
-5.07976 -3.00802 5.7965 -0 -0 -1 55 63 74
-1.91171 -3.87485 10.3185 -0 -0 -1 35 44 51
-8.37027 -13.239 15.3017 -0 -0 -1 1 7 0
-8.24125 0.271626 12.975 -0 -0 -1 55 63 74
-2.86607 -14.8979 17.195 -0.725985 -0.391336 -0.565511 4 3 4
-2.26536 6.03312 10.5199 -0 -0 -1 127 129 126
-0.777512 6.8183 13.4063 -0 -0 -1 165 168 166
-9.49502 -2.14572 9.23991 -0 -0 -1 14 23 30
2.26467 -1.54695 11.9892 -0 -0 -1 0 0 0
-2.20315 -16.9349 19.6606 -0 -0 -1 9 6 0
-8.04902 -13.6087 16.0262 -0 -0 -1 62 67 33
-7.16982 -14.1749 16.9382 -0 -0 -1 6 6 8
-0.564735 -4.19351 7.19983 -0 -0 -1 54 67 75
-3.57259 -2.38767 6.57644 -0.562976 -0.679504 -0.47046 54 64 74
-9.59689 -11.2197 11.2417 -0 -0 -1 6 8 0
-1.2068 -0.0883582 12.2492 -0 -0 -1 17 24 32
4.82166 -2.86974 8.84084 -0 -0 -1 57 67 79
0.864805 -0.152117 1.84174 0.683095 0.72581 -0.0811232 16 25 32
0.586255 -0.688533 1.23886 0.75716 0.407098 -0.510863 56 68 80
-0.566797 -5.51215 9.67675 -0 -0 -1 32 36 45
-8.18155 -13.7394 15.095 0.0665163 -0.207558 -0.975959 10 1 0
7.15655 -1.54134 12.4683 -0 -0 -1 16 25 32
5.9937 2.95118 9.82311 -0 -0 -1 35 40 46
-5.55678 0.302444 12.8673 -0 -0 -1 0 0 0
-10.3331 1.83258 6.13595 -0 -0 -1 116 118 115
-0.814528 5.87463 7.97709 -0 -0 -1 195 197 194
-9.60312 -11.2105 11.4562 -0 -0 -1 4 3 2
7.01696 7.88039 13.389 -0 -0 -1 95 98 96
-7.02999 0.733767 12.7679 -0 -0 -1 55 63 74
0.173815 -2.70837 11.0591 -0 -0 -1 31 40 47
-6.99205 -0.879358 12.4464 -0 -0 -1 39 43 52
7.18605 7.99081 13.7539 -0 -0 -1 56 64 69
13.2793 -0.488956 10.5287 -0 -0 -1 140 142 139
-2.23483 -3.90845 10.6875 -0 -0 -1 35 44 51
-5.05823 6.40027 9.30663 -0 -0 -1 201 203 200
-9.69817 -12.5961 14.3231 -0.762225 0.256457 -0.594342 4 3 0
-0.69163 -3.52283 7.40936 -0 -0 -1 56 66 76
-1.25247 -4.74954 10.0441 -0 -0 -1 54 67 75
1.41434 6.4413 12.4968 -0 -0 -1 13 17 26
1.25032 -1.20175 8.49447 -0 -0 -1 0 0 0
-9.28492 -12.8577 14.5669 0.5915 0.574576 -0.565676 3 3 0
-7.19178 -14.1729 16.9602 -0 -0 -1 6 6 8
1.58358 -1.58637 10.9396 -0 -0 -1 55 63 74
10.0603 -1.36987 16.8229 -0 -0 -1 61 71 80
-8.6061 6.95646 14.6722 -0 -0 -1 103 105 102
1.54429 0.303966 10.6866 -0 -0 -1 18 22 31
4.07917 2.91663 11.2813 -0 -0 -1 56 70 81
-4.99766 6.33836 8.68056 -0 -0 -1 207 209 206
-3.17906 6.16401 14.2531 -0 -0 -1 36 45 52
14.9891 8.51504 18.9704 -0 -0 -1 210 212 209
-4.87477 -16.0308 18.3523 -0 -0 -1 0 4 0
-1.43721 -2.86491 7.50765 -0 -0 -1 35 44 51
-7.32081 -13.7759 16.4268 -0 -0 -1 6 7 0
-4.82651 3.56298 7.6361 -0 -0 -1 51 59 64
-3.16833 4.16975 13.4331 -0 -0 -1 39 48 55
-4.20186 1.6088 12.7324 -0 -0 -1 57 65 76
-12.0922 -10.6693 10.4022 -0 -0 -1 34 35 0
-5.71108 -3.86189 11.2689 -0 -0 -1 55 64 73
0.897107 4.4677 10.9849 -0 -0 -1 51 60 69
-3.24251 -15.6023 18.0589 -0 -0 -1 2 1 0
-0.560944 5.12733 9.86956 -0 -0 -1 166 168 165
1.02002 -0.309662 9.58535 -0 -0 -1 18 22 31
14.1023 7.17794 10.6599 -0 -0 -1 8 13 19
2.33539 3.00664 15.8727 -0 -0 -1 18 22 31
-0.213719 5.01533 8.89434 -0 -0 -1 91 93 90
1.96774 -1.64285 8.86511 -0 -0 -1 55 63 74
1.20367 4.25323 10.9689 -0 -0 -1 57 67 79
-5.90673 -5.23861 11.2691 -0 -0 -1 54 64 74
-10.4765 1.89482 6.46844 -0 -0 -1 173 175 172
-11.6407 -11.1406 11.5018 -0 -0 -1 204 212 69
-0.0478747 6.05521 7.12212 -0.132452 0.557438 -0.819585 113 115 112
-3.83426 -15.0118 17.0964 -0 -0 -1 9 9 0
-0.710454 5.80176 8.89657 -0 -0 -1 127 129 126
0.225686 -0.0113442 1.734 -0 -0 -1 53 63 73
-11.6513 2.38543 19.9355 -0 -0 -1 57 65 76
1.26162 5.41463 7.99161 -0 -0 -1 135 137 134
5.89682 7.27163 12.2276 -0 -0 -1 64 66 63
-2.01894 -3.27759 6.75535 -0.511515 -0.743713 -0.4304 55 67 76
-2.51788 -4.16953 10.5497 -0 -0 -1 53 61 72
-0.761202 3.46527 2.80243 -0 -0 -1 117 119 116
-1.40348 1.60237 12.4539 -0 -0 -1 17 21 30
-10.5688 1.74501 6.43609 -0 -0 -1 109 111 108
-0.739516 5.65478 7.85377 -0 -0 -1 0 0 0
1.21903 -0.330683 2.20127 0.688675 -0.657047 -0.306619 58 70 82
-6.01573 -9.23718 13.0752 -0 -0 -1 57 70 78
-4.61242 -6.74944 12.5836 -0 -0 -1 54 67 76
0.195378 5.33784 10.8355 -0 -0 -1 47 56 65
-2.66362 -14.9403 17.1691 0.771903 -0.62489 -0.116955 201 204 136
3.70586 0.462516 10.6785 -0 -0 -1 17 21 30
-0.428781 -1.98421 7.77586 -0 -0 -1 31 40 47
-11.9449 -10.8806 10.8925 -0 -0 -1 40 48 5
1.03725 -0.0269967 1.9819 -0 -0 -1 43 52 61
4.57824 6.7705 10.9003 -0 -0 -1 93 95 92
-6.94385 -14.2091 17.0144 -0 -0 -1 181 188 81
-9.19662 -5.6605 11.0926 -0 -0 -1 17 22 29
-2.58036 -1.59396 7.75532 -0 -0 -1 16 23 31
-0.993229 -1.44401 11.5149 -0 -0 -1 17 21 30
2.33177 -0.625797 3.36539 -0 -0 -1 61 71 81
-5.75087 6.70981 10.6268 -0 -0 -1 72 74 71
6.21088 -2.20327 7.96896 -0 -0 -1 35 40 46
-1.75369 4.16473 6.24026 -0 -0 -1 113 115 112
-3.98016 -1.8836 12.6219 -0 -0 -1 37 46 51
-1.77395 6.44929 13.3155 -0 -0 -1 36 45 52
0.150829 6.63897 13.3295 -0 -0 -1 46 57 64
-4.27244 -4.15602 11.5152 -0 -0 -1 55 63 74
-9.74141 -11.0612 12.3864 0.965677 0.252492 -0.0609585 193 193 89
10.1472 -1.36203 17.0267 -0 -0 -1 0 0 0
-0.968079 -2.9181 11.2334 -0 -0 -1 31 40 47
-1.40379 -1.86201 12.264 -0 -0 -1 17 21 30
-10.1734 6.79902 14.6427 -0 -0 -1 179 181 178
0.793341 4.12934 3.38958 -0 -0 -1 82 84 81
-0.454301 6.6918 12.7955 -0 -0 -1 165 167 164
-6.54246 -13.1568 15.8432 -0 -0 -1 2 6 2
-3.27204 -3.23414 12.8995 -0 -0 -1 60 70 82
0.46856 6.6945 12.6561 -0 -0 -1 119 124 120
2.33349 -2.0165 10.5284 -0 -0 -1 0 0 0
10.7606 7.08503 7.60806 -0 -0 -1 0 0 0
-3.84594 4.97981 7.10794 -0 -0 -1 60 62 59
3.45821 0.533917 10.4548 -0 -0 -1 18 22 31
-0.689796 -2.6622 10.9221 -0 -0 -1 0 0 0
-1.67167 2.75351 12.6274 -0 -0 -1 18 22 31
-4.91573 6.44706 9.06325 -0 -0 -1 60 62 59
-4.04796 2.81539 13.0482 -0 -0 -1 56 62 74
2.00644 -3.82345 7.60687 -0 -0 -1 46 56 65
-14.1701 6.54265 14.9593 -0 -0 -1 212 217 214
-4.49176 6.34852 8.74717 -0 -0 -1 200 202 199
6.42016 -0.930411 9.03035 -0 -0 -1 60 73 82
-2.402 -3.88372 8.15278 -0 -0 -1 54 67 76
-7.39828 2.72157 6.03746 -0 -0 -1 35 35 42
-3.08042 -1.85394 7.23873 -0 -0 -1 18 22 31
-3.61617 -3.38413 10.8149 -0 -0 -1 56 64 74
4.4509 -0.194221 11.0014 -0 -0 -1 53 63 73
-5.02564 0.938849 7.0866 -0 -0 -1 36 45 52
-3.03463 -15.7471 18.3352 -0 -0 -1 2 1 0
3.31175 0.389433 9.93109 -0 -0 -1 18 22 31
-1.81358 -4.02223 6.70792 -0 -0 -1 56 66 76
-4.94544 -0.0347304 6.87653 -0 -0 -1 55 63 74
-3.2519 -5.87836 9.72958 -0 -0 -1 32 42 51
-0.707939 -2.31547 8.36614 -0 -0 -1 58 71 80
-4.79188 3.70848 4.53255 -0 -0 -1 121 123 120
-2.08003 -3.18911 6.93801 -0.928146 -0.351458 -0.122568 34 45 51
3.44749 3.04091 11.4077 0.744165 -0.663036 -0.0812583 16 23 31
-3.83623 -1.7303 11.1184 -0 -0 -1 0 0 0
4.36896 6.1112 10.4723 -0 -0 -1 121 124 119
-11.2827 5.67026 15.8818 -0 -0 -1 34 38 47
1.17605 -5.35246 9.46617 -0 -0 -1 32 36 45
-2.35889 -2.63681 8.05648 -0 -0 -1 32 43 47
-3.84436 -3.57811 10.894 -0 -0 -1 55 63 74
-0.179389 2.06234 12.7786 -0 -0 -1 40 49 56
-1.38599 -1.93779 11.3357 -0 -0 -1 60 70 79
-0.203872 -4.43801 9.51748 -0 -0 -1 32 37 43
-0.741636 5.59715 7.631 -0 -0 -1 195 197 194
0.0597311 6.54656 11.2323 -0 -0 -1 127 129 126
6.00972 6.98943 12.6316 -0 -0 -1 53 68 77
13.6847 11.0212 18.5509 -0 -0 -1 95 97 94
-5.00474 3.36218 6.49371 -0 -0 -1 147 149 146
-8.82467 -3.8552 11.1848 -0 -0 -1 55 64 73
1.26704 2.49661 10.0525 -0 -0 -1 16 23 31
-6.61518 -15.3112 17.1049 -0 -0 -1 46 48 23
-10.0153 -12.2796 13.8419 -0 -0 -1 6 6 7
-5.51509 -14.6272 16.5442 -0 -0 -1 3 4 4
-1.05925 1.15528 12.7564 -0 -0 -1 16 25 32
-1.19949 -0.611041 12.58 -0 -0 -1 18 22 31
-9.89325 -12.3627 14.0664 -0 -0 -1 7 3 6
-5.20085 -15.9294 18.0803 0.645477 0.62466 -0.439499 72 70 55
5.48127 4.27457 11.3117 -0 -0 -1 43 53 62
1.52654 -0.0456569 11.2322 -0 -0 -1 37 46 53
-9.22177 7.42058 15.9514 -0 -0 -1 146 151 147
-5.0058 -3.0792 5.82707 0.695199 0.501029 -0.51543 53 63 73
-7.61344 -0.83291 5.10838 -0 -0 -1 15 24 29
-3.90079 -14.9221 17.1772 -0 -0 -1 157 157 91
3.53953 0.430207 10.5336 -0 -0 -1 18 22 31
-1.94577 -15.1484 17.6804 0.14718 -0.740707 -0.655509 84 94 49
11.1458 9.17308 13.4199 -0 -0 -1 93 95 92
-4.52872 6.33352 9.07989 -0 -0 -1 203 205 202
-5.44479 -4.55403 10.5903 -0 -0 -1 55 63 74
-3.69383 -2.05648 10.8373 -0 -0 -1 16 23 31
-2.60462 -2.57729 9.66089 -0 -0 -1 60 70 82
9.09208 4.15511 13.6052 -0 -0 -1 14 25 31
-3.91287 -1.31949 7.17997 -0 -0 -1 53 61 72
3.63605 5.86042 6.51012 -0 -0 -1 119 121 118
8.56346 7.22614 10.6819 -0 -0 -1 95 97 94
0.862532 0.485977 11.1585 -0 -0 -1 36 45 52
3.57241 3.39186 11.8217 -0 -0 -1 16 23 29
-9.61283 -11.6976 12.0425 -0 -0 -1 3 4 2
13.3274 8.08961 17.4052 -0 -0 -1 162 164 161
-6.90645 -0.441328 13.3535 -0 -0 -1 33 40 48
-7.13403 2.781 6.15895 -0.0355476 0.897086 -0.440425 47 57 59
-8.80082 6.81426 15.4086 -0 -0 -1 32 35 41
-2.15335 -15.5449 18.0813 -0 -0 -1 1 1 0
-1.50506 -1.77752 7.79777 -0 -0 -1 60 70 82
9.45678 5.40401 6.35989 -0 -0 -1 26 28 23
-6.37265 -3.24464 5.78741 -0 -0 -1 55 63 74
-2.68788 -2.50716 8.35005 -0 -0 -1 54 64 73
1.64818 0.0781082 0.698787 -0 -0 -1 64 66 63
0.818139 0.0130408 0.106659 0.337523 0.921747 -0.190945 155 157 154
1.49043 5.84335 11.7835 -0 -0 -1 12 19 27
5.64145 7.74444 11.3506 -0 -0 -1 119 121 118
2.62441 6.5408 9.02695 -0 -0 -1 182 184 181
0.171941 6.17198 7.65847 -0 -0 -1 117 119 116
-7.57056 -13.9893 16.6153 -0 -0 -1 133 140 50
1.43348 -1.02644 9.74634 -0 -0 -1 18 22 31
-4.87012 6.22082 9.8249 -0 -0 -1 72 74 71
-5.40686 6.39369 12.2862 -0 -0 -1 147 149 146
-5.83817 3.16135 7.03506 -0 -0 -1 33 37 47
-4.34548 -2.72788 11.1242 -0 -0 -1 0 0 0
2.66828 1.65376 11.2533 -0 -0 -1 18 22 31
-1.97711 -16.8285 19.4749 -0 -0 -1 10 15 0
4.68899 -0.116784 9.49859 -0 -0 -1 53 63 73
-5.52861 4.04115 8.1215 -0 -0 -1 102 104 101
3.06307 1.06578 12.916 -0 -0 -1 61 71 83
1.43902 -0.199027 9.03953 -0 -0 -1 37 46 53
-2.35775 -5.85654 9.21292 -0 -0 -1 54 67 76
-4.91782 3.75802 7.49151 -0 -0 -1 147 151 148
0.750733 -0.0546817 1.75296 -0 -0 -1 16 25 32
-6.09724 2.89099 6.77833 -0 -0 -1 178 182 181
-11.1409 -10.1636 9.53285 -0 -0 -1 0 2 1
7.1895 -0.221968 11.2913 -0 -0 -1 16 25 32
-4.88222 6.59707 10.9146 -0 -0 -1 76 78 75
-3.89818 -2.21667 11.7316 -0 -0 -1 16 22 28
1.28911 -1.27685 10.7833 -0 -0 -1 15 22 30
-4.43494 2.73481 13.3159 -0 -0 -1 57 65 76
-7.16339 5.11766 14.42 -0 -0 -1 53 61 72
-1.88764 -2.37229 10.7434 -0 -0 -1 0 0 0
-5.57816 -15.8012 17.7835 -0 -0 -1 7 8 0
-4.6426 -3.87898 5.67986 -0 -0 -1 45 56 62
-12.6098 -11.5126 9.52219 -0 -0 -1 4 3 2
-12.7694 10.0181 17.2823 -0 -0 -1 67 69 66
-9.86107 -12.668 13.7961 -0 -0 -1 0 0 2
1.70788 -0.23754 11.274 -0 -0 -1 22 27 31
0.973026 -0.0741782 9.00615 -0 -0 -1 13 22 29
8.11494 6.88294 6.86535 -0 -0 -1 180 182 179
2.2348 -0.85932 2.94193 -0 -0 -1 60 70 82
-2.60563 -1.16269 7.28805 -0 -0 -1 54 62 73
-4.00886 2.50369 12.4419 -0 -0 -1 55 65 75
3.65745 5.57917 6.25833 -0 -0 -1 183 185 182
0.186167 -2.73106 7.50883 -0 -0 -1 46 56 65
-4.28393 -2.66101 10.9564 -0 -0 -1 0 0 0
0.832368 0.00103081 0.0810717 0.337523 0.921747 -0.190945 165 167 164
-0.0628498 -3.6167 7.62614 -0 -0 -1 32 36 45
-6.95056 -4.45189 10.6699 -0 -0 -1 0 0 0
-3.09899 -2.77731 6.79074 -0 -0 -1 55 63 74
10.1379 8.41648 11.987 -0 -0 -1 0 0 0
-9.66429 -12.5534 14.298 0.542586 -0.585378 -0.602439 3 1 8
0.799724 -0.580204 1.59067 -0 -0 -1 53 61 72
0.617295 -0.168575 1.53914 -0 -0 -1 60 73 82
-3.29594 3.68772 5.24509 -0 -0 -1 67 69 66
-0.73451 -2.11934 7.40633 -0 -0 -1 58 68 77
1.02031 4.37246 10.8019 -0 -0 -1 12 22 30
5.90384 7.57569 12.9529 -0 -0 -1 92 97 100
-0.723928 -1.1419 8.00659 0.746703 -0.516253 -0.419426 14 22 30
-3.14389 3.97353 5.59452 -0 -0 -1 204 206 203
-0.717408 -0.271646 8.33897 -0 -0 -1 18 22 31
-1.89499 -3.40061 6.82718 -0.511515 -0.743713 -0.4304 56 66 76
3.54152 3.15868 11.3079 0.744165 -0.663036 -0.0812583 15 23 30
-7.3253 -13.7701 15.804 -0 -0 -1 0 2 0
-0.76539 -0.214344 8.56906 -0 -0 -1 15 22 30
3.35642 5.0267 11.6345 -0 -0 -1 18 22 31
-6.06761 -14.3751 17.3985 -0 -0 -1 0 0 0
-2.02606 -3.27132 6.76506 -0.796932 -0.590717 -0.126308 58 67 76
-0.45867 -3.37323 7.2694 -0 -0 -1 29 36 44
-2.96599 1.97662 9.32443 -0 -0 -1 18 22 31
-5.8245 -3.21787 5.15438 -0 -0 -1 18 22 31
4.0255 0.093535 10.1959 -0 -0 -1 54 64 72
-4.41568 -0.268166 7.49633 -0 -0 -1 55 63 74
-4.64058 1.58919 8.77228 -0 -0 -1 57 65 76
12.7082 -4.61718 16.8601 -0 -0 -1 13 22 29
1.02902 -2.56239 10.856 -0 -0 -1 0 0 0
2.29219 -1.38742 9.94084 -0 -0 -1 55 63 74
-1.70052 -4.14512 10.7326 -0 -0 -1 35 44 51
-1.17912 -3.90499 7.16397 -0 -0 -1 56 66 76
-2.58226 3.97681 9.01641 -0 -0 -1 36 45 52
-6.97934 4.65698 9.77823 -0 -0 -1 147 152 147
-8.01901 6.683 14.3746 -0 -0 -1 150 152 147
-1.43539 1.95993 8.86477 -0 -0 -1 18 22 31
-2.47325 -15.8514 18.5665 -0 -0 -1 5 3 4
-3.93475 -1.91169 11.9596 -0 -0 -1 54 64 74
-9.15759 -11.83 13.404 -0 -0 -1 0 6 0
-9.48618 -12.7048 14.5764 -0.211124 -0.548787 -0.808863 132 134 11
1.24218 -0.573158 2.10865 0.712088 0.699956 0.0547021 61 72 82
-1.17279 1.16124 8.85135 -0 -0 -1 13 22 29
-3.55802 -14.9867 17.264 -0 -0 -1 0 2 3
-9.80749 -12.5578 14.1599 -0 -0 -1 40 30 22
3.71188 0.203389 10.1464 -0 -0 -1 54 64 73
-9.88318 -9.99915 10.8996 -0 -0 -1 36 34 10
-12.0284 -10.8893 10.9487 -0 -0 -1 66 76 11
-3.47303 4.22924 8.41337 -0 -0 -1 149 154 147
-3.55604 -3.23835 11.0366 -0 -0 -1 0 0 0
-3.12864 3.62786 5.14549 -0 -0 -1 63 65 62
-0.517655 -2.10831 7.75845 0.798736 -0.53285 -0.279451 31 40 45
-6.4784 -1.59712 5.65744 -0 -0 -1 17 21 30
-0.723314 -0.234428 8.50893 -0.615179 -0.78452 0.0779899 18 22 31
3.47168 3.08838 11.2419 0.670126 -0.726603 -0.151589 18 22 31
0.864956 5.43038 10.6016 -0 -0 -1 18 22 33
-6.05294 -2.47696 5.47213 -0 -0 -1 55 63 74
-3.75067 -1.17816 6.92392 -0 -0 -1 55 63 74
-3.89762 -0.622693 7.3288 -0 -0 -1 55 64 73
1.65645 -0.036791 2.70513 -0 -0 -1 14 25 31
-2.78802 -0.496477 8.11983 -0 -0 -1 55 63 74
-3.94275 -0.176489 7.06756 -0 -0 -1 36 40 49
1.00311 -0.565449 1.82564 0.890881 0.451395 -0.0507377 32 42 44
1.80306 -1.40197 9.18855 -0 -0 -1 55 63 74
-3.52142 1.69983 14.9473 -0 -0 -1 18 22 31
3.78394 0.239218 10.3203 -0 -0 -1 54 64 73
-6.20913 -2.8126 5.05751 -0 -0 -1 18 22 31
-0.136139 3.81141 4.0324 -0 -0 -1 155 157 154
-11.1901 -1.44708 9.40272 -0 -0 -1 6 11 17
-3.35209 -0.860432 7.27664 -0 -0 -1 55 63 74
2.22295 5.53364 11.6951 -0 -0 -1 18 22 31
-4.77458 3.92305 7.42843 -0 -0 -1 149 151 148
-8.39081 -13.1711 15.2838 -0 -0 -1 98 105 67
-8.89116 -12.0092 13.6977 -0 -0 -1 0 0 0
-5.65715 -2.64364 5.55473 -0 -0 -1 55 63 74
3.69078 3.06087 10.5731 -0 -0 -1 18 22 33
-6.44047 0.706629 6.54867 -0 -0 -1 50 59 68
-1.23735 2.29493 9.83228 -0 -0 -1 16 20 29
-6.68213 -13.4533 16.1421 -0 -0 -1 8 14 3
8.85151 9.35092 15.9451 -0 -0 -1 60 65 59
13.492 10.6092 14.7789 -0 -0 -1 119 121 118
-0.777266 -1.29408 8.18869 -0 -0 -1 62 71 80
-3.12142 3.97325 7.45005 -0 -0 -1 94 96 93
-1.94181 -15.069 17.5917 0.14718 -0.740707 -0.655509 97 103 38
1.1826 -0.228797 10.9543 -0 -0 -1 16 23 31
-4.94755 -3.23704 5.7522 -0 -0 -1 17 21 30
3.69029 5.98261 11.2553 -0 -0 -1 12 20 27
0.489068 -0.0577218 13.0891 -0 -0 -1 0 0 0
-6.36919 3.05358 6.92815 -0 -0 -1 51 61 70
-3.55122 -4.10568 6.22757 -0 -0 -1 43 56 64
-6.23098 -1.64561 13.5166 -0 -0 -1 0 0 0
-9.38459 -12.7443 14.5778 0.565377 0.171383 -0.806831 13 1 2
1.34798 -2.18652 9.18899 -0 -0 -1 31 40 47
0.914318 -0.963172 8.66075 -0 -0 -1 0 0 0
1.25632 -3.77346 8.22761 -0 -0 -1 32 36 45
0.765738 5.65497 10.8434 -0 -0 -1 17 21 28
-9.64266 -11.437 12.8899 -0 -0 -1 0 0 0
6.92282 -0.442592 12.5326 -0 -0 -1 53 63 73
-6.05147 5.03748 10.4689 -0 -0 -1 0 0 0
-5.06072 3.56674 7.0626 -0 -0 -1 94 96 93
-9.59076 -9.42955 8.16987 -0 -0 -1 16 7 0
-10.4201 -9.1435 8.65455 -0 -0 -1 6 9 0
-0.881669 4.8458 8.48425 -0 -0 -1 128 130 127
-1.16475 3.38049 2.74573 0.0493696 0.880386 -0.471682 160 162 159
-3.33598 3.28246 3.46506 -0 -0 -1 141 143 140
0.186101 5.49148 10.4282 -0 -0 -1 123 127 129
8.87417 -5.34595 14.0664 -0 -0 -1 16 25 32
0.908948 7.22179 10.0991 -0 -0 -1 0 0 0
4.23984 6.71998 13.0441 -0 -0 -1 123 129 126
-5.47302 3.44159 6.91368 -0.666794 0.745157 0.011291 98 103 99
-3.83782 -1.45217 6.85414 -0 -0 -1 17 21 30
-9.77464 -8.8482 8.83328 -0 -0 -1 34 35 0
4.36983 2.064 11.6634 -0 -0 -1 60 70 80
-0.39027 -4.34545 7.3423 -0 -0 -1 54 67 75
-3.30249 4.01031 8.42448 -0 -0 -1 36 46 53
-2.68376 -1.19708 7.57913 -0 -0 -1 55 63 74
-2.65903 0.982766 7.98399 -0 -0 -1 16 22 30
-3.13017 1.65528 8.28289 -0 -0 -1 55 65 74
-0.739162 3.53231 2.89915 -0 -0 -1 116 118 115
2.49254 -4.78152 8.77425 -0 -0 -1 45 57 64
-2.63085 -1.56248 7.45198 -0 -0 -1 18 23 29
-4.41773 -3.91732 13.0151 -0 -0 -1 60 70 82
4.08557 2.10519 11.0929 -0 -0 -1 57 69 81
3.05388 2.68545 10.8999 -0 -0 -1 0 0 0
2.07521 -1.55903 8.93136 -0 -0 -1 55 63 74
5.48014 0.269881 12.2693 -0 -0 -1 54 65 71
-0.187814 2.90832 11.4574 -0 -0 -1 42 51 58
6.32215 0.868494 10.307 -0 -0 -1 53 61 72
-4.97573 -2.19052 5.50152 -0 -0 -1 54 64 74
-6.98496 -13.6596 16.2474 -0 -0 -1 10 5 1
-9.59528 -8.64946 8.33225 -0 -0 -1 6 9 0
-0.960894 -3.18059 11.6913 -0 -0 -1 31 40 47
4.5885 5.68559 13.4961 -0 -0 -1 13 21 32
7.81112 -2.37318 11.6444 -0 -0 -1 55 72 80
-5.5608 3.21394 6.21337 -0 -0 -1 181 183 180
-5.09638 3.56529 7.02154 -0 -0 -1 103 105 102
-8.73094 8.84768 17.1202 -0 -0 -1 93 95 92
0.350398 4.5989 5.34825 -0 -0 -1 155 157 154
1.23114 -1.07482 9.05124 -0 -0 -1 12 16 21
-2.54412 -16.5275 19.1585 -0 -0 -1 1 2 0
-12.4899 1.85242 10.1295 -0 -0 -1 199 201 199
0.958012 -1.04188 8.78888 -0 -0 -1 18 22 31
11.6588 -2.30205 15.3294 -0 -0 -1 35 44 51
-6.5879 7.40848 12.3052 -0 -0 -1 70 72 69
1.09576 -0.384155 2.01928 -0 -0 -1 58 70 82
11.488 -2.28481 15.0621 -0 -0 -1 35 44 51
-3.1964 3.93247 8.53398 -0 -0 -1 35 44 51
-11.9968 -11.1389 10.5361 -0 -0 -1 0 0 1
-5.13906 -14.7509 16.6389 -0 -0 -1 7 8 0
-9.68656 -11.5442 11.6657 -0 -0 -1 7 3 6
-5.58622 3.3395 6.96652 -0.666794 0.745157 0.011291 92 94 91
-7.35295 -13.5291 16.0752 -0 -0 -1 0 2 0
0.438123 4.73966 5.72736 -0 -0 -1 114 116 113
-6.45677 -13.7931 15.9656 -0 -0 -1 0 1 1
-1.79975 1.61626 12.9862 -0 -0 -1 15 24 29
-6.4345 -13.6024 16.2695 -0 -0 -1 83 89 29
2.01174 -1.3044 9.88734 -0 -0 -1 55 64 73
-7.30684 2.78764 6.18642 -0.0221091 0.916104 -0.400331 208 213 209
6.01262 7.47947 8.46237 -0 -0 -1 115 117 114
4.43889 -5.79568 14.3115 -0 -0 -1 57 67 79
-2.161 3.57532 3.59091 -0 -0 -1 95 97 94
-2.68005 1.62748 8.2255 -0 -0 -1 18 22 31
-7.15962 -6.82758 10.745 -0 -0 -1 45 55 64
0.46258 5.45287 9.77407 -0 -0 -1 93 95 92
-9.58365 -12.4254 14.1351 -0 -0 -1 1 0 6
4.02402 5.17051 11.1731 -0 -0 -1 57 67 77
4.64253 2.47587 10.4272 -0 -0 -1 57 69 81
2.636 5.66608 11.7894 -0 -0 -1 18 22 31
-9.6946 -10.7407 10.7767 -0 -0 -1 3 4 8
-8.33512 -13.9412 15.1904 -0 -0 -1 4 3 0
-0.828174 6.55691 12.9183 -0 -0 -1 94 99 102
-8.19535 -14.0694 15.438 -0 -0 -1 5 1 5
-1.02236 6.5671 9.20546 -0 -0 -1 199 201 198
-10.4412 -10.5031 10.5938 -0 -0 -1 1 1 3
8.19777 -3.60672 12.5726 -0 -0 -1 58 70 82
6.41547 -4.40722 8.25033 -0 -0 -1 60 69 86
7.48933 -3.16975 10.9881 -0 -0 -1 31 40 45
-5.99117 7.53985 16.5462 -0 -0 -1 36 45 50
-7.96294 7.89855 11.4484 -0 -0 -1 206 208 205
1.31496 -1.34632 2.10576 -0 -0 -1 43 54 60
-12.1102 -11.217 14.9634 -0 -0 -1 45 56 62
-1.19795 -0.612348 12.611 -0 -0 -1 16 23 31
6.87012 -3.23346 9.69452 -0 -0 -1 53 61 72
-2.94349 -6.73589 11.4636 -0 -0 -1 56 66 76
11.1083 -5.37515 18.6608 -0 -0 -1 61 71 83
-9.64011 -11.6791 11.8336 -0 -0 -1 7 10 0
-9.75911 -10.9912 12.3961 0.965677 0.252492 -0.0609585 5 1 2
4.33268 0.347198 12.7934 -0 -0 -1 0 0 0
-9.82546 -10.7991 11.9701 -0 -0 -1 206 206 145
7.90076 -6.27444 11.2573 -0 -0 -1 43 52 61
8.83754 -5.12041 13.6135 -0 -0 -1 16 25 32
6.02058 7.64089 15.1746 -0 -0 -1 122 128 128
1.39876 5.33127 5.95494 -0 -0 -1 155 157 154
-5.72919 -2.51491 5.34866 -0 -0 -1 55 63 74
1.27313 5.10402 5.66707 -0 -0 -1 155 157 154
-6.03213 3.27086 6.6342 -0 -0 -1 179 181 178
-5.12823 -15.9487 18.1595 -0 -0 -1 0 3 0
-2.40794 -17.0087 19.6865 -0.864398 0.493356 -0.0970311 162 164 30
2.435 -3.65999 12.1011 -0 -0 -1 0 0 0
0.250123 -3.26246 11.4573 -0 -0 -1 0 0 0
-2.34344 -14.9411 17.2996 -0 -0 -1 7 5 5
0.951144 -0.468883 1.77227 0.890881 0.451395 -0.0507377 58 71 79
-2.45758 -17.0765 19.7843 -0.864398 0.493356 -0.0970311 0 0 0
0.943944 0.0550184 2.065 -0.664416 -0.747315 -0.00843975 42 51 58
1.52187 -0.921533 2.42619 -0 -0 -1 16 25 32
0.52187 -0.581585 1.22866 0.765746 0.353329 -0.537393 56 68 80
0.641125 -0.405995 1.48369 -0 -0 -1 36 39 46
0.558189 -0.462777 1.34969 0.75742 0.315125 -0.571849 35 39 48
-2.46218 -17.0696 19.8602 -0.864398 0.493356 -0.0970311 14 5 1
0.887828 -0.0241947 0.0270236 0.309514 0.931713 -0.190032 119 121 118
1.26421 -0.602089 2.19215 0.712088 0.699956 0.0547021 62 72 81
-11.032 3.66063 20.6308 -0 -0 -1 0 0 0
1.966 8.54516 11.9005 -0 -0 -1 0 0 0
0.845999 0.379803 1.70415 -0 -0 -1 58 68 80
1.09887 -0.38982 2.05056 -0 -0 -1 58 70 82
1.86892 -0.575802 2.53659 -0 -0 -1 61 71 83
0.71778 0.0879828 0.265411 0.301797 0.91868 -0.254845 71 73 70
