ply
format ascii 1.0
element vertex 236
property float x
property float y
property float z
property uchar red
property uchar green
property uchar blue
property float confidence
end_header
-14.2418 -15.1167 23.4113 32 214 32 0.870
-26.6610 10.5790 49.0881 142 206 20 0.661
-15.9716 -13.6702 21.3818 35 211 35 0.859
-11.5572 -16.0406 26.0121 21 222 21 0.914
-11.2774 -16.7612 25.6711 24 220 24 0.903
-15.1730 -14.3275 22.5039 38 209 38 0.848
-14.8609 -14.5772 22.8558 18 225 18 0.925
-12.6954 -15.3996 25.2935 7 233 7 0.969
-9.9180 -16.5723 26.9122 43 205 43 0.826
-27.6515 10.3263 42.9458 133 208 20 0.683
-10.4076 -17.0610 26.2426 18 225 18 0.925
16.1532 9.9458 24.7128 138 207 20 0.672
-6.9928 -18.2024 27.5939 100 217 20 0.771
-14.1062 -15.2215 23.5281 26 218 26 0.892
-6.9722 9.2229 18.7139 142 206 20 0.661
-10.9622 -16.6763 25.7397 18 225 18 0.925
-5.8827 -14.0234 25.7642 142 206 20 0.661
-7.2250 -18.1354 27.5241 105 215 20 0.760
0.3717 1.5159 18.8402 142 206 20 0.661
-11.4055 -16.6353 25.5852 18 225 18 0.925
-6.4792 -17.8910 27.3668 100 217 20 0.771
-7.0324 -18.1085 27.6215 105 215 20 0.760
-13.4370 -15.5926 24.1946 10 231 10 0.958
22.9489 12.1613 37.2326 142 206 20 0.661
-13.1269 -15.1175 24.9429 18 225 18 0.925
-16.4008 -12.8020 21.3863 46 202 46 0.815
-4.3736 -18.5756 28.3389 35 211 35 0.859
-14.0172 -15.2149 23.6852 13 229 13 0.947
-16.1502 -13.0508 21.7537 38 209 38 0.848
2.4856 9.4268 15.4571 129 209 20 0.694
-15.2908 -13.8540 22.8009 38 209 38 0.848
-15.8175 -13.3525 22.2254 21 222 21 0.914
-14.2709 -14.4919 23.9860 29 216 29 0.881
-13.4646 -15.0060 24.6867 13 229 13 0.947
-11.7335 -15.9620 25.8951 13 229 13 0.947
0.2598 5.4591 19.6742 129 209 20 0.694
-11.1248 -16.2167 26.2755 13 229 13 0.947
-15.1226 -13.9305 23.0578 29 216 29 0.881
-6.2396 -18.0597 27.3278 96 218 20 0.782
-16.1269 -13.4768 21.2194 38 209 38 0.848
15.5036 7.6313 16.4476 138 207 20 0.672
-14.4074 -14.9239 23.3236 35 211 35 0.859
-13.1096 -15.8218 24.4276 16 227 16 0.936
26.5775 12.5982 36.4948 142 206 20 0.661
-14.5309 -14.3745 23.6740 26 218 26 0.892
-15.2432 -13.8083 22.9521 38 209 38 0.848
15.9605 9.9463 24.8442 138 207 20 0.672
-15.4432 -14.1360 22.1302 21 222 21 0.914
-11.8789 -16.4857 25.3301 13 229 13 0.947
15.1453 7.5310 16.4103 138 207 20 0.672
-3.1917 -18.5883 28.6959 48 200 48 0.804
-10.1557 -17.1799 26.3565 29 216 29 0.881
-10.0158 -16.5580 26.9124 35 211 35 0.859
-15.3593 -13.9723 22.5164 29 216 29 0.881
-9.0925 -17.5318 26.8753 43 205 43 0.826
-14.5817 -14.8425 23.0931 26 218 26 0.892
-13.2612 -15.7115 24.3275 18 225 18 0.925
-8.8511 -17.6045 26.9859 105 215 20 0.760
-8.1423 -17.6823 27.0940 100 217 20 0.771
-7.6882 -17.9550 27.4160 105 215 20 0.760
-12.4456 -15.5832 25.4473 16 227 16 0.936
-12.2201 -15.6554 25.6358 16 227 16 0.936
-15.6170 -13.9732 21.9202 18 225 18 0.925
-13.8458 -14.8228 24.3213 7 233 7 0.969
-15.0246 -14.4811 22.6383 32 214 32 0.870
-12.4551 -16.1924 24.9248 16 227 16 0.936
11.3743 10.5613 20.4649 133 208 20 0.683
-4.6364 -18.5664 28.2718 43 205 43 0.826
-12.9613 -15.2736 24.9926 16 227 16 0.936
1.8120 2.2733 6.1281 142 206 20 0.661
-13.6314 -14.9520 24.5076 4 236 4 0.980
-12.1788 -16.3223 25.1283 7 233 7 0.969
17.1315 8.8555 26.4109 142 206 20 0.661
-15.7872 -13.4734 22.1395 18 225 18 0.925
-11.5219 -16.6359 25.6003 18 225 18 0.925
-2.8415 -18.7386 28.4281 100 217 20 0.771
-2.8417 -18.7117 28.3878 96 218 20 0.782
-14.1238 -15.1813 23.5418 26 218 26 0.892
-5.3368 -18.7076 27.8765 48 200 48 0.804
-13.4233 -15.3821 24.4484 7 233 7 0.969
-15.2253 -14.3348 22.3703 38 209 38 0.848
-8.5788 -17.7364 27.1215 100 217 20 0.771
-6.7990 -18.3960 28.0165 100 217 20 0.771
-16.0722 -13.3101 21.5143 38 209 38 0.848
-14.2353 -14.5616 23.9739 24 220 24 0.903
9.9729 0.2924 8.0894 142 206 20 0.661
10.6601 -4.6412 19.2759 142 206 20 0.661
11.7251 4.7592 26.5874 138 207 20 0.672
3.9163 -0.4050 1.7582 138 207 20 0.672
-10.8495 -16.9660 25.9149 18 225 18 0.925
-3.0566 -18.7010 28.4455 48 200 48 0.804
1.0921 9.3743 16.6132 138 207 20 0.672
-13.2902 -15.0458 24.8025 18 225 18 0.925
20.4210 10.0093 26.3661 125 210 20 0.705
-16.0023 -13.2014 21.9696 29 216 29 0.881
-9.5236 -17.3679 26.6979 40 207 40 0.837
-11.5956 -15.9754 26.0212 18 225 18 0.925
-10.7086 -16.3293 26.5559 13 229 13 0.947
-13.2118 -15.4316 24.5977 18 225 18 0.925
-4.1153 -18.6601 28.3388 35 211 35 0.859
2.7008 -0.3493 0.4961 138 207 20 0.672
-12.6082 -15.4391 25.2706 4 236 4 0.980
-9.2015 -16.8361 27.3204 40 207 40 0.837
-9.4793 -17.1167 26.9199 40 207 40 0.837
14.9606 7.3769 28.7803 138 207 20 0.672
2.7081 -0.3417 0.4906 138 207 20 0.672
-9.4965 9.9489 26.6380 142 206 20 0.661
-12.8276 -15.3342 25.2154 13 229 13 0.947
3.4489 8.9643 14.3395 138 207 20 0.672
0.6524 9.4697 20.9996 142 206 20 0.661
-4.4779 -5.5082 13.8307 142 206 20 0.661
0.6879 -3.1492 16.7635 129 209 20 0.694
17.7239 9.5505 22.4051 142 206 20 0.661
0.7191 8.1157 20.2268 138 207 20 0.672
1.9728 9.1180 15.3336 129 209 20 0.694
0.0166 5.6734 19.4576 129 209 20 0.694
7.7120 8.1526 23.6539 142 206 20 0.661
1.0853 -3.5487 16.7118 129 209 20 0.694
0.5803 9.4578 15.9827 129 209 20 0.694
-13.1230 -15.7519 24.4787 16 227 16 0.936
1.3169 -3.7570 16.5098 133 208 20 0.683
2.0890 2.4472 19.7436 142 206 20 0.661
-2.3884 8.8370 16.5736 142 206 20 0.661
-14.8117 -14.7029 22.8092 24 220 24 0.903
19.1052 9.2941 18.2807 142 206 20 0.661
-14.4666 -14.9669 23.1720 32 214 32 0.870
20.0419 9.6202 19.4116 133 208 20 0.683
-4.2203 -18.7355 28.2751 38 209 38 0.848
19.8608 9.7308 19.8421 133 208 20 0.683
-16.3285 -12.9163 21.4126 43 205 43 0.826
-14.2276 -14.6278 23.9240 24 220 24 0.903
20.2026 9.4929 31.2803 142 206 20 0.661
-13.4496 -15.0888 24.6410 10 231 10 0.958
-11.8235 -15.9283 25.8413 10 231 10 0.958
9.3573 6.2706 16.2576 142 206 20 0.661
-11.3056 -16.3776 25.9155 18 225 18 0.925
10.4664 10.7484 20.9764 138 207 20 0.672
0.2867 5.5791 20.8054 133 208 20 0.683
-4.9010 -18.4824 28.1927 48 200 48 0.804
-13.1048 -15.0045 24.5851 18 225 18 0.925
-11.8333 -15.7752 25.9547 16 227 16 0.936
-3.3013 -18.7841 28.6542 48 200 48 0.804
-5.2656 -18.4797 28.0827 46 202 46 0.815
-16.0821 -13.3174 21.5302 38 209 38 0.848
-16.2237 -12.9773 21.6398 40 207 40 0.837
-5.6901 -18.3858 28.0010 48 200 48 0.804
-3.3047 -18.6746 28.3568 43 205 43 0.826
-11.1761 -16.1358 26.3042 18 225 18 0.925
-15.6098 -13.5432 22.4661 21 222 21 0.914
-13.0038 -15.8304 25.2450 10 231 10 0.958
-10.1847 -16.8155 26.6117 26 218 26 0.892
-5.5008 9.1786 17.3274 133 208 20 0.683
-15.9676 -13.4747 21.6738 29 216 29 0.881
-5.6357 8.8188 17.8931 129 209 20 0.694
-16.0069 -13.3998 21.6705 35 211 35 0.859
19.6976 10.0588 26.9218 125 210 20 0.705
-14.3245 -14.6867 23.5397 35 211 35 0.859
-9.9549 -16.7650 26.6708 32 214 32 0.870
8.0139 9.6076 19.6561 138 207 20 0.672
-6.2082 7.1656 17.2164 138 207 20 0.672
-27.4315 11.0244 43.3784 129 209 20 0.694
-10.9253 -16.1373 25.5591 24 220 24 0.903
19.3414 10.4704 22.1450 142 206 20 0.661
-10.3003 -16.4454 26.8634 32 214 32 0.870
19.8733 10.1605 27.2167 125 210 20 0.705
-3.7036 -18.7734 28.5407 40 207 40 0.837
-12.8711 -15.1781 24.9454 16 227 16 0.936
-5.0850 7.7721 17.6565 129 209 20 0.694
-28.0764 10.6959 44.2724 133 208 20 0.683
-12.2728 -15.8122 25.4110 13 229 13 0.947
0.2896 -2.6359 16.0776 133 208 20 0.683
19.8750 9.9355 26.3982 125 210 20 0.705
-0.3574 8.9906 15.5001 133 208 20 0.683
-27.9196 10.6893 43.3232 129 209 20 0.694
0.5542 -6.2140 14.9931 142 206 20 0.661
-4.7562 8.0954 17.2954 129 209 20 0.694
21.2414 10.1779 30.0781 142 206 20 0.661
19.4206 9.9243 27.2862 125 210 20 0.705
-6.3394 -18.2267 27.8626 96 218 20 0.782
-3.4384 -18.3857 28.0199 43 205 43 0.826
20.8419 10.8367 33.0391 142 206 20 0.661
0.6096 7.4296 19.6491 138 207 20 0.672
7.1094 -7.9254 19.2866 142 206 20 0.661
-4.4448 -1.8916 14.4674 138 207 20 0.672
2.3887 9.3795 15.1790 129 209 20 0.694
-0.1742 8.8958 15.2273 133 208 20 0.683
-4.8487 -2.2763 14.2221 138 207 20 0.672
-0.6124 9.8829 23.1519 142 206 20 0.661
8.6328 9.8905 19.8876 138 207 20 0.672
11.5994 10.3573 19.9083 138 207 20 0.672
29.7613 9.9841 31.4136 142 206 20 0.661
-9.1242 -17.1600 27.0398 40 207 40 0.837
34.1150 9.9189 42.8181 142 206 20 0.661
32.5760 9.6009 40.3343 142 206 20 0.661
-32.0733 8.0032 43.4120 142 206 20 0.661
-5.5442 -18.3362 27.7614 48 200 48 0.804
-11.1086 -16.8049 25.8039 18 225 18 0.925
14.9338 -5.3669 25.6809 142 206 20 0.661
2.4293 9.0046 14.8454 125 210 20 0.705
0.7764 5.2253 19.4452 133 208 20 0.683
0.3179 -7.4287 15.7404 142 206 20 0.661
-10.7082 -16.5569 25.5341 24 220 24 0.903
-11.3348 -16.6940 25.7912 21 222 21 0.914
-3.9044 -18.6661 28.2226 38 209 38 0.848
-12.9721 -15.2475 25.0736 16 227 16 0.936
-26.5895 10.3927 41.0235 138 207 20 0.672
15.3035 7.7991 27.6262 138 207 20 0.672
7.0090 6.9236 21.8283 142 206 20 0.661
20.2670 10.0013 20.3582 133 208 20 0.683
-4.2608 -18.5647 28.2089 38 209 38 0.848
12.7487 4.9423 26.5151 138 207 20 0.672
-9.8438 -16.5991 27.0417 43 205 43 0.826
24.3456 12.4911 37.5168 142 206 20 0.661
-26.3498 10.4904 40.7932 138 207 20 0.672
-3.6728 -18.1054 28.0549 40 207 40 0.837
-4.6425 -18.5291 28.2647 43 205 43 0.826
-12.9769 -15.3072 25.0354 16 227 16 0.936
19.6742 12.6038 31.3438 142 206 20 0.661
-16.0370 -13.4805 21.6885 32 214 32 0.870
-9.9339 -16.5291 26.8516 38 209 38 0.848
0.9318 -1.5762 5.9888 142 206 20 0.661
-2.7727 -13.1563 21.5852 142 206 20 0.661
-0.6752 -4.4840 18.2695 142 206 20 0.661
-1.0356 2.5297 19.7456 142 206 20 0.661
-2.4742 -1.0109 17.2335 142 206 20 0.661
-9.4539 -16.7662 27.2232 43 205 43 0.826
-6.3060 -18.1216 27.5201 96 218 20 0.782
-16.0046 -13.4147 21.6551 35 211 35 0.859
0.3922 0.5419 1.0902 142 206 20 0.661
4.2563 0.3494 1.3714 138 207 20 0.672
-10.8981 -16.4105 25.2507 26 218 26 0.892
4.3616 0.3280 8.8837 142 206 20 0.661
16.9539 -8.0967 19.4710 142 206 20 0.661
-14.4393 -14.4509 23.7196 32 214 32 0.870
-8.0319 -16.7235 27.7341 121 211 20 0.716
10.7580 -8.0455 17.2643 142 206 20 0.661
