ply
format ascii 1.0
comment Created by Open3D
element vertex 236
property double x
property double y
property double z
property double nx
property double ny
property double nz
property uchar red
property uchar green
property uchar blue
end_header
-14.2418 -15.1167 23.4113 -0 -0 -1 7 3 6
-26.661 10.579 49.0881 -0 -0 -1 163 165 164
-15.9716 -13.6702 21.3818 -0 -0 -1 16 7 0
-11.5572 -16.0406 26.0121 -0 -0 -1 13 8 0
-11.2774 -16.7612 25.6711 0.716121 0.69637 -0.0473371 13 14 0
-15.173 -14.3275 22.5039 -0 -0 -1 7 5 8
-14.8609 -14.5772 22.8558 -0 -0 -1 3 4 8
-12.6954 -15.3996 25.2935 0.421634 0.905689 0.0441916 129 134 9
-9.91798 -16.5723 26.9122 0.0160655 -0.941253 -0.337321 226 236 139
-27.6515 10.3263 42.9458 -0 -0 -1 170 172 169
-10.4076 -17.061 26.2426 -0 -0 -1 0 0 4
16.1532 9.94577 24.7128 -0 -0 -1 202 204 203
-6.99285 -18.2024 27.5939 -0 -0 -1 10 8 2
-14.1062 -15.2215 23.5281 0.753128 0.482984 -0.446682 7 10 0
-6.9722 9.22293 18.7139 -0 -0 -1 108 109 113
-10.9622 -16.6763 25.7397 -0 -0 -1 12 2 5
-5.88269 -14.0234 25.7642 -0 -0 -1 59 73 84
-7.22502 -18.1354 27.5241 -0 -0 -1 6 7 0
0.371668 1.51591 18.8402 -0 -0 -1 0 0 0
-11.4055 -16.6353 25.5852 -0.096831 -0.626049 -0.773749 34 33 0
-6.47921 -17.891 27.3668 -0 -0 -1 3 1 6
-7.03241 -18.1085 27.6215 -0 -0 -1 12 3 4
-13.437 -15.5926 24.1946 -0 -0 -1 1 3 0
22.9489 12.1613 37.2326 -0 -0 -1 44 50 56
-13.1269 -15.1175 24.9429 -0 -0 -1 13 3 2
-16.4008 -12.802 21.3863 -0 -0 -1 191 196 127
-4.37364 -18.5756 28.3389 -0 -0 -1 4 3 4
-14.0172 -15.2149 23.6852 0.753128 0.482984 -0.446682 3 4 2
-16.1502 -13.0508 21.7537 -0 -0 -1 9 6 0
2.48559 9.42677 15.4571 -0 -0 -1 91 92 94
-15.2908 -13.854 22.8009 -0 -0 -1 6 3 0
-15.8175 -13.3525 22.2254 -0 -0 -1 3 0 0
-14.2709 -14.4919 23.986 0.733609 0.460973 -0.499321 5 1 2
-13.4646 -15.006 24.6867 -0 -0 -1 5 5 0
-11.7335 -15.962 25.8951 0.56036 0.62189 -0.547037 1 2 0
0.259821 5.4591 19.6742 -0 -0 -1 53 61 72
-11.1248 -16.2167 26.2755 -0 -0 -1 3 5 0
-15.1226 -13.9305 23.0578 -0 -0 -1 0 2 0
-6.23963 -18.0597 27.3278 -0 -0 -1 0 3 6
-16.1269 -13.4768 21.2194 -0 -0 -1 3 1 2
15.5036 7.63134 16.4476 -0 -0 -1 208 210 207
-14.4074 -14.9239 23.3236 -0 -0 -1 4 3 2
-13.1096 -15.8218 24.4276 -0 -0 -1 1 8 5
26.5775 12.5982 36.4948 -0 -0 -1 0 0 0
-14.5309 -14.3745 23.674 -0 -0 -1 206 206 145
-15.2432 -13.8083 22.9521 -0 -0 -1 36 34 10
15.9605 9.94626 24.8442 -0 -0 -1 199 201 200
-15.4432 -14.136 22.1302 -0 -0 -1 0 1 5
-11.8789 -16.4857 25.3301 -0 -0 -1 1 1 13
15.1453 7.53098 16.4103 -0 -0 -1 206 208 205
-3.19168 -18.5883 28.6959 -0 -0 -1 1 0 0
-10.1557 -17.1799 26.3565 -0 -0 -1 19 22 14
-10.0158 -16.558 26.9124 -0.122006 -0.822801 -0.555079 87 93 4
-15.3593 -13.9723 22.5164 -0 -0 -1 1 1 3
-9.09252 -17.5318 26.8753 -0 -0 -1 7 0 1
-14.5817 -14.8425 23.0931 -0 -0 -1 28 28 0
-13.2612 -15.7115 24.3275 -0 -0 -1 19 17 3
-8.85114 -17.6045 26.9859 -0 -0 -1 7 2 6
-8.14228 -17.6823 27.094 -0 -0 -1 13 1 7
-7.68815 -17.955 27.416 -0 -0 -1 5 7 2
-12.4456 -15.5832 25.4473 -0 -0 -1 110 118 19
-12.2201 -15.6554 25.6358 -0 -0 -1 12 8 8
-15.617 -13.9732 21.9202 -0 -0 -1 88 80 54
-13.8458 -14.8228 24.3213 -0 -0 -1 2 4 0
-15.0246 -14.4811 22.6383 -0 -0 -1 1 0 1
-12.4551 -16.1924 24.9248 -0 -0 -1 11 7 6
11.3743 10.5613 20.4649 -0 -0 -1 92 93 97
-4.63636 -18.5664 28.2718 -0 -0 -1 3 1 1
-12.9613 -15.2736 24.9926 -0.812127 0.469089 -0.346995 1 1 6
1.81203 2.2733 6.12807 -0 -0 -1 92 93 97
-13.6314 -14.952 24.5076 -0 -0 -1 1 3 8
-12.1788 -16.3223 25.1283 -0 -0 -1 0 1 2
17.1315 8.85551 26.4109 -0 -0 -1 46 57 63
-15.7872 -13.4734 22.1395 -0 -0 -1 2 1 0
-11.5219 -16.6359 25.6003 -0 -0 -1 104 109 56
-2.84153 -18.7386 28.4281 -0 -0 -1 14 21 0
-2.84166 -18.7117 28.3878 -0 -0 -1 14 21 0
-14.1238 -15.1813 23.5418 0.755262 0.478753 -0.447632 65 72 27
-5.33676 -18.7076 27.8765 -0 -0 -1 0 1 2
-13.4233 -15.3821 24.4484 -0 -0 -1 0 1 0
-15.2253 -14.3348 22.3703 -0 -0 -1 158 162 24
-8.5788 -17.7364 27.1215 -0 -0 -1 2 4 0
-6.79902 -18.396 28.0165 -0 -0 -1 196 190 120
-16.0722 -13.3101 21.5143 -0.822452 -0.567613 0.0372592 0 0 9
-14.2353 -14.5616 23.9739 0.733609 0.460973 -0.499321 193 193 89
9.97292 0.292447 8.08938 -0 -0 -1 0 0 0
10.6601 -4.64121 19.2759 -0 -0 -1 60 72 84
11.7251 4.75918 26.5874 -0 -0 -1 16 25 31
3.9163 -0.404979 1.75823 -0 -0 -1 176 178 175
-10.8495 -16.966 25.9149 -0 -0 -1 2 4 3
-3.05664 -18.701 28.4455 -0 -0 -1 4 7 0
1.09214 9.37435 16.6132 -0 -0 -1 71 73 70
-13.2902 -15.0458 24.8025 -0 -0 -1 7 3 6
20.421 10.0093 26.3661 -0 -0 -1 194 195 197
-16.0023 -13.2014 21.9696 -0 -0 -1 40 48 5
-9.52364 -17.3679 26.6979 -0 -0 -1 5 0 9
-11.5956 -15.9754 26.0212 0.623989 0.456577 -0.634173 102 114 49
-10.7086 -16.3293 26.5559 -0 -0 -1 55 61 28
-13.2118 -15.4316 24.5977 -0 -0 -1 0 0 1
-4.1153 -18.6601 28.3388 -0 -0 -1 216 219 148
2.70075 -0.349341 0.496096 -0 -0 -1 35 44 49
-12.6082 -15.4391 25.2706 -0 -0 -1 155 164 50
-9.20155 -16.8361 27.3204 -0 -0 -1 24 22 18
-9.47926 -17.1167 26.9199 -0 -0 -1 0 0 1
14.9606 7.37695 28.7803 -0 -0 -1 53 61 72
2.70815 -0.341695 0.49064 -0 -0 -1 35 44 51
-9.49647 9.94886 26.638 -0 -0 -1 51 56 64
-12.8276 -15.3342 25.2154 -0 -0 -1 11 2 3
3.44885 8.96433 14.3395 -0 -0 -1 159 161 160
0.652376 9.46971 20.9996 -0 -0 -1 111 112 116
-4.4779 -5.5082 13.8307 -0 -0 -1 32 44 52
0.68791 -3.14917 16.7635 -0 -0 -1 58 66 77
17.7239 9.55051 22.4051 -0 -0 -1 173 174 176
0.719149 8.11567 20.2268 -0 -0 -1 115 117 120
1.97281 9.11798 15.3336 -0 -0 -1 162 164 162
0.0165962 5.67338 19.4576 -0 -0 -1 53 62 71
7.71202 8.15264 23.6539 -0 -0 -1 174 178 177
1.08529 -3.54868 16.7118 -0 -0 -1 57 65 76
0.580267 9.45784 15.9827 -0 -0 -1 72 74 71
-13.123 -15.7519 24.4787 -0 -0 -1 3 4 5
1.31693 -3.75697 16.5098 -0 -0 -1 57 65 76
2.08905 2.44719 19.7436 -0 -0 -1 44 54 63
-2.3884 8.83703 16.5736 -0 -0 -1 163 165 164
-14.8117 -14.7029 22.8092 -0 -0 -1 7 9 3
19.1052 9.29405 18.2807 -0 -0 -1 67 69 66
-14.4666 -14.9669 23.172 0.781723 0.449197 -0.432587 6 8 0
20.0419 9.62024 19.4116 -0 -0 -1 66 68 63
-4.22031 -18.7355 28.2751 0.594913 -0.163539 -0.786977 15 1 1
19.8608 9.73078 19.8421 -0 -0 -1 64 66 65
-16.3285 -12.9163 21.4126 -0 -0 -1 6 9 0
-14.2276 -14.6278 23.924 0.733609 0.460973 -0.499321 6 8 0
20.2026 9.49293 31.2803 -0 -0 -1 124 125 129
-13.4496 -15.0888 24.641 -0 -0 -1 6 7 0
-11.8235 -15.9283 25.8413 0.574226 0.510374 -0.640142 11 13 6
9.3573 6.27058 16.2576 -0 -0 -1 176 178 177
-11.3056 -16.3776 25.9155 -0 -0 -1 0 2 2
10.4664 10.7484 20.9764 -0 -0 -1 162 164 163
0.286687 5.57912 20.8054 -0 -0 -1 0 0 0
-4.90102 -18.4824 28.1927 -0 -0 -1 2 1 0
-13.1048 -15.0045 24.5851 -0 -0 -1 0 0 13
-11.8333 -15.7752 25.9547 -0 -0 -1 2 3 5
-3.30131 -18.7841 28.6542 -0 -0 -1 73 79 0
-5.26555 -18.4797 28.0827 -0 -0 -1 0 2 3
-16.0821 -13.3174 21.5302 -0.822452 -0.567613 0.0372592 0 0 9
-16.2237 -12.9773 21.6398 -0 -0 -1 34 35 0
-5.69012 -18.3858 28.001 -0 -0 -1 157 157 91
-3.30466 -18.6746 28.3568 -0 -0 -1 141 146 62
-11.1761 -16.1358 26.3042 -0 -0 -1 116 118 66
-15.6098 -13.5432 22.4661 -0 -0 -1 204 212 69
-13.0038 -15.8304 25.245 -0 -0 -1 0 1 2
-10.1847 -16.8155 26.6117 -0 -0 -1 0 0 7
-5.50075 9.17859 17.3274 -0 -0 -1 161 164 163
-15.9676 -13.4747 21.6738 -0.201137 -0.237589 -0.950313 0 0 1
-5.63574 8.81884 17.8931 -0 -0 -1 18 23 29
-16.0069 -13.3998 21.6705 0.322765 -0.608235 -0.725171 0 2 1
19.6976 10.0588 26.9218 -0 -0 -1 199 200 203
-14.3245 -14.6867 23.5397 -0 -0 -1 0 1 2
-9.95492 -16.765 26.6708 -0 -0 -1 0 1 5
8.01386 9.6076 19.6561 -0 -0 -1 114 115 119
-6.20823 7.16557 17.2164 -0 -0 -1 18 23 29
-27.4315 11.0244 43.3784 -0 -0 -1 115 116 118
-10.9253 -16.1373 25.5591 -0 -0 -1 0 1 1
19.3414 10.4704 22.145 -0 -0 -1 207 209 208
-10.3003 -16.4454 26.8634 -0 -0 -1 0 0 4
19.8733 10.1605 27.2167 -0 -0 -1 198 199 201
-3.70357 -18.7734 28.5407 -0 -0 -1 1 2 0
-12.8711 -15.1781 24.9454 -0.812127 0.469089 -0.346995 10 0 0
-5.08502 7.77209 17.6565 -0 -0 -1 52 60 71
-28.0764 10.6959 44.2724 -0 -0 -1 170 172 170
-12.2728 -15.8122 25.411 -0 -0 -1 2 0 3
0.289619 -2.63589 16.0776 -0 -0 -1 15 24 29
19.875 9.93551 26.3982 -0 -0 -1 195 196 198
-0.357447 8.99058 15.5001 -0 -0 -1 67 69 66
-27.9196 10.6893 43.3232 -0 -0 -1 92 94 94
0.554235 -6.214 14.9931 -0 -0 -1 36 43 49
-4.75618 8.0954 17.2954 -0 -0 -1 161 166 162
21.2414 10.1779 30.0781 -0 -0 -1 192 194 191
19.4206 9.92428 27.2862 -0 -0 -1 125 127 126
-6.33941 -18.2267 27.8626 -0 -0 -1 0 2 2
-3.43844 -18.3857 28.0199 -0 -0 -1 6 3 0
20.8419 10.8367 33.0391 -0 -0 -1 175 177 176
0.6096 7.42963 19.6491 -0 -0 -1 16 20 29
7.10937 -7.92538 19.2866 -0 -0 -1 15 23 29
-4.44482 -1.89158 14.4674 -0 -0 -1 17 23 29
2.38872 9.37946 15.179 -0 -0 -1 94 95 97
-0.174191 8.89576 15.2273 -0 -0 -1 73 75 72
-4.84868 -2.27626 14.2221 -0 -0 -1 54 64 73
-0.612427 9.88295 23.1519 -0 -0 -1 161 166 162
8.63281 9.89055 19.8876 -0 -0 -1 114 115 119
11.5994 10.3573 19.9083 -0 -0 -1 93 94 98
29.7613 9.98406 31.4136 -0 -0 -1 130 130 129
-9.12423 -17.16 27.0398 -0 -0 -1 0 1 0
34.115 9.91892 42.8181 -0 -0 -1 159 155 151
32.576 9.60088 40.3343 -0 -0 -1 34 31 24
-32.0733 8.00319 43.412 -0 -0 -1 96 98 97
-5.54424 -18.3362 27.7614 -0 -0 -1 11 9 1
-11.1086 -16.8049 25.8039 -0 -0 -1 158 165 73
14.9338 -5.36688 25.6809 -0 -0 -1 52 59 69
2.42932 9.00457 14.8454 -0 -0 -1 156 157 161
0.776384 5.22532 19.4452 -0 -0 -1 17 21 30
0.317872 -7.42866 15.7404 -0 -0 -1 41 50 57
-10.7082 -16.5569 25.5341 -0 -0 -1 5 1 5
-11.3348 -16.694 25.7912 -0 -0 -1 5 1 1
-3.9044 -18.6661 28.2226 -0 -0 -1 11 5 0
-12.9721 -15.2475 25.0736 -0.812127 0.469089 -0.346995 5 2 1
-26.5895 10.3927 41.0235 -0 -0 -1 162 164 163
15.3035 7.79905 27.6262 -0 -0 -1 53 61 72
7.00897 6.92357 21.8283 -0 -0 -1 53 62 71
20.267 10.0013 20.3582 -0 -0 -1 64 66 65
-4.26084 -18.5647 28.2089 -0.675064 -0.400107 -0.619841 58 57 0
12.7487 4.94226 26.5151 -0 -0 -1 53 61 72
-9.84383 -16.5991 27.0417 -0 -0 -1 7 8 0
24.3456 12.4911 37.5168 -0 -0 -1 117 118 122
-26.3498 10.4904 40.7932 -0 -0 -1 159 161 159
-3.67285 -18.1054 28.0549 -0 -0 -1 0 0 0
-4.64253 -18.5291 28.2647 -0 -0 -1 3 0 0
-12.9769 -15.3072 25.0354 -0.812127 0.469089 -0.346995 1 0 6
19.6742 12.6038 31.3438 -0 -0 -1 0 0 0
-16.037 -13.4805 21.6885 -0.201137 -0.237589 -0.950313 1 0 0
-9.93388 -16.5291 26.8516 -0.122006 -0.822801 -0.555079 133 140 49
0.931812 -1.57621 5.98883 -0 -0 -1 159 160 164
-2.77275 -13.1563 21.5852 -0 -0 -1 61 51 39
-0.675193 -4.484 18.2695 -0 -0 -1 60 72 84
-1.03563 2.52966 19.7456 -0 -0 -1 45 55 64
-2.47418 -1.01091 17.2335 -0 -0 -1 32 36 45
-9.45387 -16.7662 27.2232 -0 -0 -1 5 3 4
-6.30595 -18.1216 27.5201 -0 -0 -1 0 3 2
-16.0046 -13.4147 21.6551 0.322765 -0.608235 -0.725171 0 3 1
0.392177 0.541902 1.09019 -0 -0 -1 123 124 126
4.25629 0.349439 1.37143 -0 -0 -1 0 0 0
-10.8981 -16.4105 25.2507 -0 -0 -1 4 3 0
4.3616 0.328007 8.88371 -0 -0 -1 173 175 175
16.9539 -8.09667 19.471 -0 -0 -1 0 0 0
-14.4393 -14.4509 23.7196 -0 -0 -1 13 13 0
-8.03192 -16.7235 27.7341 -0 -0 -1 0 0 0
10.758 -8.04553 17.2643 -0 -0 -1 0 0 0
