ply
format ascii 1.0
comment Created by Open3D
element vertex 265
property double x
property double y
property double z
property double nx
property double ny
property double nz
property uchar red
property uchar green
property uchar blue
end_header
9.96734 -15.7812 38.8218 -0 -0 -1 6 2 0
5.00118 -16.1719 39.8066 -0 -0 -1 3 4 4
-2.77841 -14.6148 39.148 -0 -0 -1 11 13 6
2.4412 -16.1574 39.7478 -0 -0 -1 3 2 5
-14.9404 -15.0761 28.8361 -0 -0 -1 16 7 0
16.6708 12.2788 28.3671 -0 -0 -1 154 156 155
8.33092 -16.0012 39.3855 -0 -0 -1 157 157 90
-2.04216 -16.1779 38.7802 -0 -0 -1 12 13 0
6.1316 -16.1797 39.8227 -0 -0 -1 1 6 5
-11.7421 -14.9165 32.8935 -0 -0 -1 7 5 8
-10.8099 -15.3505 33.7313 -0 -0 -1 7 9 3
-3.19271 -14.3304 39.3368 -0 -0 -1 99 114 118
-10.8158 -15.0587 33.85 -0 -0 -1 3 4 8
12.57 -15.6732 38.1562 -0 -0 -1 17 25 1
12.2867 -15.6529 38.3425 -0 -0 -1 9 11 0
10.566 -15.962 38.5572 -0 -0 -1 11 6 1
-6.24658 -15.0468 37.777 -0 -0 -1 0 1 1
-9.82416 -15.4946 34.6215 -0 -0 -1 6 8 0
1.6297 -16.0946 39.6785 -0 -0 -1 5 0 9
8.60654 8.88413 26.7193 -0 -0 -1 154 156 155
8.82561 -16.6291 39.1886 -0 -0 -1 0 1 2
-9.182 -15.5312 35.1587 -0 -0 -1 7 3 6
3.21022 0.66921 5.08917 -0 -0 -1 105 106 108
-1.46339 -0.453712 0.377846 -0 -0 -1 105 107 108
-14.9415 -12.934 28.4094 -0 -0 -1 189 195 123
-0.114491 -14.4602 40.0653 -0 -0 -1 110 118 114
-2.06332 8.97124 21.8576 -0 -0 -1 73 75 72
-8.83115 -15.6123 35.4119 -0 -0 -1 7 10 0
-16.3522 -15.5509 27.5513 -0 -0 -1 3 1 2
2.2685 3.80921 7.73145 -0 -0 -1 105 107 106
12.2782 -15.2917 38.6268 -0 -0 -1 0 0 0
-4.1524 -14.4731 38.8491 -0 -0 -1 102 115 11
-2.22991 -0.57475 0.481425 0.745627 -0.657467 -0.108528 38 35 26
0.397986 0.198767 2.29217 -0 -0 -1 155 156 160
-6.20444 -15.6561 37.2141 -0 -0 -1 3 4 5
6.64586 -16.0592 39.4759 -0 -0 -1 79 79 57
-8.57579 -14.1895 36.3214 -0 -0 -1 6 8 0
-2.03731 -15.9626 38.9446 -0 -0 -1 5 2 1
5.78243 -16.3361 39.7738 -0 -0 -1 7 8 0
-2.26514 -0.677567 0.648706 0.945055 -0.288347 -0.154035 108 110 109
6.17953 -16.3458 39.7395 -0 -0 -1 3 10 5
-8.50674 -15.4495 35.7445 -0 -0 -1 3 4 2
-14.8348 -13.1479 28.6387 -0 -0 -1 6 9 0
-14.0672 -13.1036 30.2186 -0 -0 -1 9 6 0
-10.2743 7.67095 30.2104 -0 -0 -1 0 0 0
-11.5132 -13.7571 33.7107 -0 -0 -1 6 3 0
-12.5211 -13.6524 33.1126 -0 -0 -1 204 212 69
-8.58039 -13.9108 36.4755 -0.931583 -0.088765 -0.352526 5 1 2
-4.01827 -16.008 38.1709 -0 -0 -1 0 1 2
-6.56936 -14.3608 37.6359 -0 -0 -1 7 6 0
-1.93077 -14.4542 39.6484 -0 -0 -1 18 9 0
-2.58792 -14.6614 39.3168 -0 -0 -1 3 6 0
-1.2772 -14.6734 39.6215 -0 -0 -1 3 6 1
17.8906 9.55672 44.2114 -0 -0 -1 107 109 112
11.3198 0.00849772 16.4937 -0 -0 -1 107 109 108
-9.54348 -15.2596 34.9772 -0 -0 -1 4 3 2
-11.2637 -13.5632 34.1129 -0 -0 -1 28 26 0
-6.23706 -15.827 37.1185 -0 -0 -1 1 8 5
14.5876 3.8496 28.7282 -0 -0 -1 150 150 158
9.59878 -15.8766 39.2424 -0 -0 -1 2 1 0
-3.33642 -16.0772 38.4062 -0 -0 -1 1 1 13
-0.147047 -16.0947 39.3774 -0 -0 -1 0 0 4
0.351865 -16.1664 39.4462 -0 -0 -1 0 3 1
2.90005 -16.1457 39.7883 -0 -0 -1 1 1 6
-7.01348 -15.6446 36.7205 -0 -0 -1 1 3 0
-2.18833 -0.576023 0.664178 0.945055 -0.288347 -0.154035 157 156 154
15.2112 -7.28192 22.7162 -0 -0 -1 39 48 53
1.69706 7.21402 28.4901 -0 -0 -1 36 45 52
10.0016 -15.8886 39.3112 -0 -0 -1 2 1 0
17.7792 3.74209 24.5107 -0 -0 -1 0 0 0
-11.3469 -15.0815 33.2713 -0 -0 -1 1 0 1
-4.66677 -15.9855 37.8804 -0 -0 -1 11 7 6
-10.954 -13.6827 34.3857 -0 -0 -1 0 2 0
-7.54191 -14.1873 37.0916 -0 -0 -1 2 4 0
-7.0059 -14.22 37.4217 -0 -0 -1 0 4 6
-2.53246 -16.3086 39.3218 -0 -0 -1 173 178 98
-7.005 -14.2656 37.45 -0 -0 -1 0 4 11
-2.69734 -14.2972 39.4441 -0 -0 -1 2 3 0
-2.6009 -14.7273 39.3937 -0 -0 -1 6 3 0
-12.6698 -14.9235 31.758 -0 -0 -1 0 1 5
10.3279 -5.59868 18.2808 -0 -0 -1 0 0 0
9.01834 -16.042 39.339 -0 -0 -1 0 2 3
4.45381 3.03841 10.7843 -0 -0 -1 54 62 73
-13.0767 -13.6061 31.7112 -0 -0 -1 2 1 0
6.13912 6.29999 12.1196 -0 -0 -1 106 107 109
-6.58808 -15.7288 36.952 -0 -0 -1 19 18 3
12.5019 -15.5915 37.9573 -0 -0 -1 17 25 1
5.66544 -16.0393 39.0966 -0 -0 -1 7 8 0
-14.2072 -12.9278 29.6352 -0 -0 -1 30 29 0
-0.330711 1.60501 4.54859 -0 -0 -1 153 154 157
-14.7558 -13.5169 30.7009 -0 -0 -1 34 35 0
-9.27703 -13.8836 35.7084 -0 -0 -1 207 207 146
-0.418635 1.67386 4.88677 -0 -0 -1 107 108 112
6.83931 8.20702 27.8863 -0 -0 -1 35 42 48
-13.8739 -13.5656 31.7838 -0 -0 -1 40 48 5
-2.21268 -14.5057 39.38 0.980644 0.0214115 -0.194625 136 147 70
17.9561 11.0863 34.4169 -0 -0 -1 158 159 161
8.29729 6.61434 13.8736 -0 -0 -1 105 106 110
6.70223 -16.1414 39.6833 -0 -0 -1 79 79 57
-13.2386 -14.8263 31.0367 -0 -0 -1 88 80 54
0.976778 -14.497 39.8831 -0 -0 -1 88 94 5
-10.0962 -15.3289 34.442 -0 -0 -1 28 28 0
1.39858 8.43343 17.9477 -0 -0 -1 153 155 154
-8.84314 -15.5256 35.4459 -0 -0 -1 65 72 27
8.7882 6.21401 17.2046 -0 -0 -1 53 61 71
0.743478 8.87825 20.1918 -0 -0 -1 106 107 111
-2.24935 -14.4602 39.2003 -0 -0 -1 102 114 49
17.2125 -8.64669 24.7218 -0 -0 -1 40 48 51
-12.0123 -15.0707 32.5265 -0 -0 -1 158 162 24
10.3203 -15.7078 38.4398 -0 -0 -1 58 57 0
-1.64491 -16.0402 38.7487 -0 -0 -1 163 170 94
-14.4328 -13.9013 29.4034 -0 -0 -1 0 0 5
-11.9794 -14.222 32.9181 -0 -0 -1 1 1 3
-1.84933 -15.3066 39.2724 -0 -0 -1 0 1 2
-1.89533 -15.4441 39.5768 -0 -0 -1 0 1 2
-2.19972 -14.6743 39.4268 -0 -0 -1 16 9 0
6.75151 8.32497 28.8184 -0 -0 -1 32 40 46
17.5587 10.484 34.4547 -0 -0 -1 106 107 110
-2.17672 -0.714671 0.632299 0.950946 -0.299253 -0.0784175 24 15 6
3.43481 -16.2296 39.8564 -0 -0 -1 46 49 23
3.39556 -16.0976 39.5682 -0 -0 -1 46 49 23
1.86943 -15.4614 39.9837 -0 -0 -1 0 0 3
14.226 8.87679 29.4824 -0 -0 -1 51 59 70
17.9474 10.5221 30.7415 -0 -0 -1 107 108 110
-4.26563 8.4616 22.2681 -0 -0 -1 154 156 155
15.7907 10.0454 21.3527 -0 -0 -1 108 109 113
16.0599 10.3156 21.9508 -0 -0 -1 108 109 113
12.9214 -2.8112 23.8537 -0 -0 -1 50 60 69
0.717763 7.71181 28.3155 -0 -0 -1 36 45 52
-1.14289 8.95704 20.981 -0 -0 -1 72 74 71
6.81846 9.27386 22.2992 -0 -0 -1 108 109 113
-0.987701 8.81815 25.6283 -0 -0 -1 152 156 155
-7.53004 6.68111 25.5843 -0 -0 -1 36 45 52
-2.41586 -0.643602 0.324936 -0 -0 -1 38 33 30
9.82484 9.62755 26.1745 -0 -0 -1 154 156 155
6.96728 -15.9856 39.7278 -0 -0 -1 5 1 0
5.07114 -1.03093 21.7627 -0 -0 -1 36 45 52
1.56897 2.03522 5.62842 -0 -0 -1 155 157 156
12.2294 5.46889 32.2983 -0 -0 -1 36 45 52
10.1053 10.8639 33.6146 -0 -0 -1 154 156 155
12.5262 -9.19661 28.2436 -0 -0 -1 0 0 0
10.8292 -15.8034 38.2567 -0 -0 -1 11 4 0
-5.7857 -14.2426 38.3475 -0 -0 -1 10 5 1
-4.98975 -14.2426 38.5232 -0 -0 -1 20 2 0
2.8053 2.49412 6.38384 -0 -0 -1 154 156 155
-0.114529 -14.7764 39.9458 -0 -0 -1 6 6 0
-2.77882 -14.6176 39.1697 -0 -0 -1 11 13 6
17.9158 -1.11215 40.0782 -0 -0 -1 107 108 112
21.8508 13.4193 40.3925 -0 -0 -1 107 109 108
7.31374 -16.3244 39.6104 -0 -0 -1 0 3 6
-5.33306 -14.2225 38.1692 -0 -0 -1 7 1 2
-3.60512 -14.3858 39.0085 -0 -0 -1 11 7 6
-12.3702 -13.42 32.7754 -0 -0 -1 211 219 74
-12.9859 -13.2946 31.9548 -0 -0 -1 3 0 0
-4.69854 -14.2809 38.6645 -0 -0 -1 120 114 24
23.8661 14.4789 44.6884 -0 -0 -1 106 108 107
-13.1714 -13.914 31.1724 -0 -0 -1 0 1 0
8.15659 7.32873 22.4099 -0 -0 -1 49 59 68
10.5007 -15.968 39.1303 -0 -0 -1 58 57 0
12.0019 -15.829 38.6831 -0 -0 -1 207 216 82
-8.57769 -13.8967 36.4671 -0.931583 -0.088765 -0.352526 5 1 2
-6.71147 -15.0115 37.1428 -0 -0 -1 0 1 0
-13.8284 -13.4459 31.6682 -0 -0 -1 54 63 8
6.69268 -16.3989 40.3106 -0 -0 -1 161 160 106
0.482091 -15.2193 39.5807 -0 -0 -1 0 0 7
11.0176 -15.7015 38.9575 -0 -0 -1 5 3 4
0.126653 8.9952 20.5675 -0 -0 -1 152 154 153
14.2526 8.63597 31.0743 -0 -0 -1 51 59 70
20.5129 12.0547 34.5936 -0 -0 -1 108 109 111
4.53373 -16.0175 44.7774 -0 -0 -1 0 0 0
20.3001 13.8799 29.0563 -0 -0 -1 106 107 111
-6.54224 -14.186 37.6832 -0 -0 -1 6 6 7
-3.9931 0.33363 11.5454 -0 -0 -1 104 108 107
-10.2294 11.553 34.4701 -0 -0 -1 108 109 113
-0.634611 0.393517 2.12809 -0 -0 -1 154 156 155
-9.32861 -13.9823 35.7729 -0 -0 -1 206 206 145
-14.4139 12.0576 34.3301 -0 -0 -1 154 156 155
10.3701 -15.6818 38.7248 -0 -0 -1 3 3 2
-1.34239 -14.4328 39.4586 -0 -0 -1 117 119 67
-1.66483 -16.1088 39.022 -0 -0 -1 4 3 0
-0.389605 -14.4802 39.6235 -0 -0 -1 55 61 28
-0.366648 -14.6108 39.9757 -0 -0 -1 55 61 28
7.78982 10.7908 22.7753 -0 -0 -1 155 157 156
18.6194 -10.5615 38.4565 -0 -0 -1 54 62 73
0.62373 8.95074 19.0837 -0 -0 -1 156 157 161
13.6935 1.29764 17.9608 -0 -0 -1 59 60 63
14.9462 -4.38344 20.4215 -0 -0 -1 0 0 0
-12.4999 -13.6299 33.0508 -0 -0 -1 204 212 69
8.4908 -16.2476 39.5041 -0 -0 -1 11 9 1
8.65172 10.5654 21.1474 -0 -0 -1 108 109 113
-8.52301 -14.0348 36.3563 -0.945039 0.125994 -0.301708 193 193 89
-6.22983 -15.006 37.5693 -0 -0 -1 0 0 1
-4.6485 -14.9258 40.1663 -0 -0 -1 178 191 51
2.54758 -14.4642 39.9693 -0 -0 -1 24 22 18
-2.26168 8.79201 19.5949 -0 -0 -1 157 159 158
-2.37863 9.16013 20.432 -0 -0 -1 71 73 72
2.58817 -14.6394 40.4082 -0 -0 -1 24 22 18
0.56195 8.50864 27.9709 -0 -0 -1 36 41 43
8.02961 11.4856 26.6942 -0 -0 -1 108 109 113
-14.647 -14.6066 30.9731 -0 -0 -1 1 0 0
-0.148565 -4.59926 9.95186 -0 -0 -1 0 3 2
12.0136 -15.5578 38.3644 -0 -0 -1 73 79 0
12.3197 -15.6864 38.4508 -0 -0 -1 8 10 0
14.3458 10.0253 20.761 -0 -0 -1 0 0 0
11.4486 -15.8267 38.7624 -0 -0 -1 3 1 1
17.0845 9.50825 23.0092 -0 -0 -1 108 109 113
-3.1698 -14.5644 39.136 -0 -0 -1 0 1 1
2.84008 -6.89492 15.878 -0 -0 -1 216 219 148
0.518862 -14.5106 40.2015 -0 -0 -1 0 0 4
-2.19492 -0.57277 0.701256 0.950946 -0.299253 -0.0784175 96 94 90
-2.16715 -0.551719 0.57732 0.945055 -0.288347 -0.154035 110 111 113
-3.90474 -14.9311 38.8891 -0 -0 -1 2 0 3
-2.24661 -0.583941 0.650861 0.945055 -0.288347 -0.154035 154 156 155
-4.80412 -14.5765 38.5157 -0 -0 -1 10 1 0
-2.56969 -0.762175 0.239587 -0 -0 -1 1 1 0
1.33846 -14.4199 39.8932 -0 -0 -1 6 6 0
8.37512 7.43345 22.0233 -0 -0 -1 52 61 68
-2.19629 -0.560076 0.535792 0.980061 -0.192342 -0.0498577 32 30 26
-2.15434 -0.560069 0.747762 0.949834 -0.306948 -0.0599802 0 0 0
-4.99223 -14.257 38.5222 -0 -0 -1 27 17 8
-7.07787 8.40273 18.4339 -0 -0 -1 0 0 0
-2.04586 -0.501526 0.917521 -0 -0 -1 106 110 111
11.7218 -15.6014 38.3512 -0 -0 -1 14 1 0
26.2465 1.66103 45.937 -0 -0 -1 109 111 110
-1.92084 -14.4191 39.5874 -0 -0 -1 18 9 0
14.1105 -3.87303 22.7836 -0 -0 -1 52 60 66
-5.42235 -14.4394 38.5393 -0 -0 -1 3 1 2
0.751898 1.78467 3.09681 -0 -0 -1 156 157 161
-13.5572 -13.1842 31.1477 -0 -0 -1 54 63 8
-12.6273 -13.6871 33.3639 -0 -0 -1 211 219 74
20.6295 2.62234 36.3062 -0 -0 -1 103 105 104
7.24699 -15.8461 39.2727 -0 -0 -1 0 2 2
2.12254 2.05682 5.12179 -0 -0 -1 155 157 156
14.7169 11.4683 38.0437 -0 -0 -1 108 109 113
-5.4156 -14.4052 38.3009 -0 -0 -1 1 0 2
-8.58254 -14.0313 36.5129 -0.931583 -0.088765 -0.352526 177 178 71
-5.46707 -16.2288 41.0826 -0 -0 -1 0 1 0
1.17225 -14.6819 40.3643 -0 -0 -1 210 224 102
-3.85801 -15.0634 38.322 -0 -0 -1 0 0 4
-4.22624 7.09229 15.5857 -0 -0 -1 154 156 155
8.86539 -4.83051 18.444 -0 -0 -1 54 62 73
18.0391 -2.3856 38.9981 -0 -0 -1 0 0 0
6.96286 -16.0431 39.7608 -0 -0 -1 3 1 6
0.571207 8.71662 18.6814 -0 -0 -1 104 105 108
-1.12232 -16.0556 39.1959 -0 -0 -1 5 1 5
-11.2343 -13.4542 34.0571 -0 -0 -1 37 36 3
-14.0054 -12.7709 29.4209 -0 -0 -1 28 26 0
6.76455 -15.2085 39.352 -0 -0 -1 1 0 0
0.822713 9.40242 23.1226 -0 -0 -1 108 109 112
19.6918 -3.61081 38.8897 -0 -0 -1 0 0 0
-4.56397 -14.4279 38.8187 -0 -0 -1 181 192 50
-3.93114 -2.18927 28.5486 -0 -0 -1 51 59 70
1.06296 8.31848 18.2279 -0 -0 -1 109 111 110
-1.12388 -16.2945 39.0443 -0 -0 -1 9 1 3
-7.54883 -14.1532 37.0931 -0 -0 -1 2 3 0
-0.275351 8.77285 22.1248 -0 -0 -1 65 67 64
7.48732 7.02682 22.1006 -0 -0 -1 110 111 113
9.15786 7.79439 23.2567 -0 -0 -1 154 156 155
-3.91822 -15.1936 46.7664 -0 -0 -1 51 59 70
6.54685 1.89452 12.6496 -0 -0 -1 106 107 111
0.509926 -14.5382 40.4354 -0 -0 -1 4 1 6
10.8622 -15.9726 39.0723 -0 -0 -1 208 211 142
4.78703 1.15235 7.11141 -0 -0 -1 107 108 110
12.1333 -8.26806 25.898 -0 -0 -1 0 0 0
-1.14577 -0.0155217 1.0438 -0 -0 -1 108 110 109
