ply
format ascii 1.0
element vertex 336
property float x
property float y
property float z
property uchar red
property uchar green
property uchar blue
property float confidence
end_header
-9.9242 -11.0747 25.5729 92 219 20 0.793
-2.4661 -9.0148 25.7835 142 206 20 0.661
2.9339 5.6861 13.0780 138 207 20 0.672
-11.4334 -10.8894 24.8207 40 207 40 0.837
-8.9603 -10.0356 26.4347 40 207 40 0.837
4.8978 3.9323 16.2511 142 206 20 0.661
-14.0251 -11.3281 22.7998 117 212 20 0.727
-9.1761 -11.0603 25.9167 46 202 46 0.815
1.4298 -10.4543 26.4395 43 205 43 0.826
4.7462 7.1230 18.4221 138 207 20 0.672
-7.2678 -10.8482 26.6303 32 214 32 0.870
3.3451 1.7088 5.4147 133 208 20 0.683
-10.6888 -11.0815 25.1762 48 200 48 0.804
-11.1157 -10.9591 24.9875 43 205 43 0.826
-5.0600 -4.7544 13.1173 142 206 20 0.661
-10.6914 -10.8778 25.2592 48 200 48 0.804
3.4962 -10.2508 26.0668 26 218 26 0.892
4.0637 -9.9178 25.3454 32 214 32 0.870
-9.4390 -11.0392 25.8154 43 205 43 0.826
-1.2672 -10.5590 26.9191 100 217 20 0.771
-6.1985 -10.9492 26.8114 21 222 21 0.914
5.2785 4.9293 12.7342 142 206 20 0.661
9.0238 6.5377 23.9482 142 206 20 0.661
-3.1025 -9.5494 27.1710 21 222 21 0.914
-4.4288 -10.7353 27.0835 10 231 10 0.958
7.7765 -0.2091 11.1980 142 206 20 0.661
-12.5298 -10.1119 24.3361 40 207 40 0.837
-0.1989 1.0628 5.9229 38 209 38 0.848
-5.2958 -10.9186 26.9548 18 225 18 0.925
0.4902 -10.5591 26.6494 48 200 48 0.804
1.1868 -10.2704 26.3960 43 205 43 0.826
-11.2252 -10.0203 25.3019 46 202 46 0.815
-2.3607 3.6184 12.8657 142 206 20 0.661
0.7301 -10.5457 26.5843 92 219 20 0.793
0.7021 -10.4521 26.6504 92 219 20 0.793
-8.2022 -9.9462 26.7453 29 216 29 0.881
6.4400 5.5197 13.7270 142 206 20 0.661
-0.2131 0.9029 5.0550 43 205 43 0.826
-1.5115 2.2147 10.1191 138 207 20 0.672
-9.5017 -9.9255 26.2013 43 205 43 0.826
-10.7736 -9.9044 25.6234 40 207 40 0.837
-14.2606 -9.9480 22.7817 105 215 20 0.760
-4.7283 -10.8746 27.1043 13 229 13 0.947
3.7792 0.3449 3.7793 133 208 20 0.683
-14.1460 -10.0776 22.8731 100 217 20 0.771
-13.4734 -9.7703 23.1343 96 218 20 0.782
-8.9567 -9.8341 26.5173 40 207 40 0.837
-4.2726 -9.6537 27.1939 10 231 10 0.958
-14.1423 -10.0745 22.8600 100 217 20 0.771
-11.8812 -9.8549 24.7681 38 209 38 0.848
-13.4232 -9.9045 23.6455 43 205 43 0.826
-7.5090 -9.9872 26.9356 18 225 18 0.925
1.8311 1.7436 6.5403 113 213 20 0.738
-4.7843 -9.9265 27.3893 4 236 4 0.980
-2.3349 -9.6874 27.3651 40 207 40 0.837
-3.9230 -9.8715 27.4339 7 233 7 0.969
-2.8752 -10.7246 27.0618 26 218 26 0.892
-9.7080 -10.8829 25.7576 40 207 40 0.837
-2.0637 -10.6050 27.0380 40 207 40 0.837
0.3127 -0.7635 9.2812 142 206 20 0.661
-6.3781 3.0969 14.8945 142 206 20 0.661
-10.1324 -10.9896 25.5088 43 205 43 0.826
-8.9324 -10.9148 26.0757 38 209 38 0.848
-7.2916 -10.9691 26.5729 38 209 38 0.848
-5.7543 -10.9144 26.8919 26 218 26 0.892
-4.8582 -9.6886 27.4988 7 233 7 0.969
-3.8608 -0.2502 16.4845 142 206 20 0.661
-4.2597 -10.9849 27.4220 21 222 21 0.914
-3.1953 -10.7082 27.0860 18 225 18 0.925
1.4051 -10.2723 26.3394 40 207 40 0.837
0.4777 -10.4614 26.4188 48 200 48 0.804
-2.8688 3.7618 11.0391 133 208 20 0.683
-1.5529 -10.5929 26.9557 92 219 20 0.793
4.1702 -1.8140 12.7075 142 206 20 0.661
-0.3198 1.0976 6.0877 40 207 40 0.837
0.0247 -10.4581 26.6550 46 202 46 0.815
4.4911 -9.7869 24.7869 43 205 43 0.826
2.7632 -10.0429 25.7456 29 216 29 0.881
-5.8326 -9.8940 27.3164 18 225 18 0.925
-7.8437 -10.9117 26.4472 40 207 40 0.837
-0.3877 1.1808 5.5461 40 207 40 0.837
-7.8138 -9.9455 26.8586 24 220 24 0.903
-12.1978 -11.0135 24.2639 46 202 46 0.815
8.5594 3.7102 12.3433 142 206 20 0.661
-6.6473 -9.8024 27.0888 18 225 18 0.925
7.9308 -3.3312 18.7414 142 206 20 0.661
-4.2845 -10.2855 27.2073 4 236 4 0.980
2.4208 -10.1649 25.8607 32 214 32 0.870
12.6198 8.2496 23.2889 133 208 20 0.683
3.2541 -9.9909 25.6016 21 222 21 0.914
7.0006 4.9414 17.7554 142 206 20 0.661
5.0095 -0.0462 7.1160 133 208 20 0.683
-11.0160 -9.8426 25.4994 92 219 20 0.793
-7.5400 -10.9313 26.5238 38 209 38 0.848
9.2651 7.6082 22.0320 138 207 20 0.672
-3.7345 -10.7433 26.6183 21 222 21 0.914
4.1288 -9.8779 25.0786 32 214 32 0.870
-0.1419 1.7931 5.4295 38 209 38 0.848
-4.6885 -1.8487 16.6405 142 206 20 0.661
1.2178 3.4741 14.6392 133 208 20 0.683
7.2367 5.4420 20.7169 129 209 20 0.694
-12.6752 -11.0181 23.9107 96 218 20 0.782
-9.1829 -10.9991 25.9370 46 202 46 0.815
3.2552 -9.9949 25.5991 21 222 21 0.914
2.0294 -10.1939 26.0263 29 216 29 0.881
2.3085 -10.5238 25.7866 32 214 32 0.870
1.6541 1.5454 6.0320 121 211 20 0.716
-1.4421 3.5392 9.7135 133 208 20 0.683
-4.2157 5.9895 16.5885 142 206 20 0.661
3.1707 1.8450 4.2193 133 208 20 0.683
-6.6622 -10.5735 27.5759 18 225 18 0.925
-11.6516 -11.0301 24.6238 46 202 46 0.815
-13.7326 -10.5341 23.1773 46 202 46 0.815
-11.6153 -10.4153 24.8818 40 207 40 0.837
1.3942 -10.3274 26.0518 40 207 40 0.837
4.4497 0.1192 6.4123 138 207 20 0.672
-4.2268 -10.1762 26.9133 4 236 4 0.980
-2.7742 -9.6355 27.4782 35 211 35 0.859
1.1731 3.5664 15.3007 138 207 20 0.672
6.9611 5.0551 20.5231 133 208 20 0.683
-0.9397 -10.5942 26.9248 100 217 20 0.771
-0.9436 -10.5787 26.9140 100 217 20 0.771
-1.9134 -10.1983 27.2175 35 211 35 0.859
3.6613 6.7307 16.4728 129 209 20 0.694
5.3148 4.1463 10.7693 138 207 20 0.672
-11.0866 5.8520 14.4378 133 208 20 0.683
-2.0334 5.9553 21.2551 133 208 20 0.683
5.4505 4.2841 11.1097 138 207 20 0.672
2.0509 3.7387 13.8247 133 208 20 0.683
-1.7545 3.3142 15.1088 142 206 20 0.661
-4.5290 -9.9102 27.4071 7 233 7 0.969
-2.4304 3.7706 10.5555 133 208 20 0.683
-6.2047 -9.8110 27.2831 18 225 18 0.925
6.3720 5.9454 16.5331 142 206 20 0.661
1.9519 -5.1410 14.3028 142 206 20 0.661
-4.5674 -9.8093 27.3999 7 233 7 0.969
-5.4672 -9.8123 27.3734 7 233 7 0.969
-4.1145 3.6928 11.7639 138 207 20 0.672
2.7138 4.3269 14.1148 138 207 20 0.672
3.4241 1.9738 15.4132 142 206 20 0.661
-3.1552 -9.8491 27.3943 18 225 18 0.925
0.3048 -0.4657 18.8260 142 206 20 0.661
3.5613 -9.9782 25.1515 26 218 26 0.892
4.3148 -9.7598 24.8587 43 205 43 0.826
-7.0072 -9.9057 27.4499 21 222 21 0.914
-6.4066 -9.8048 27.2442 18 225 18 0.925
-4.9169 -9.9192 27.3735 7 233 7 0.969
3.0071 -10.0183 25.6970 29 216 29 0.881
-2.0591 6.2331 21.4253 138 207 20 0.672
-7.2801 -10.4164 26.9661 26 218 26 0.892
-12.9959 -9.9422 24.0891 40 207 40 0.837
-11.8532 5.4449 14.4630 138 207 20 0.672
3.2669 -9.9526 25.3341 21 222 21 0.914
3.4612 -10.0365 25.4228 24 220 24 0.903
3.8246 -9.8750 25.1559 32 214 32 0.870
4.1445 -9.8940 25.1150 32 214 32 0.870
-7.6334 -10.4746 26.7097 18 225 18 0.925
-6.6875 -9.9239 27.1970 16 227 16 0.936
1.0497 -10.4513 26.6676 46 202 46 0.815
-2.2386 -9.6065 27.3974 40 207 40 0.837
-2.7891 -10.1416 27.2356 26 218 26 0.892
-0.0178 2.1521 6.7217 109 214 20 0.749
6.1407 4.7095 21.0985 133 208 20 0.683
-7.2145 -9.8384 27.1084 24 220 24 0.903
8.5184 5.8225 20.6930 138 207 20 0.672
13.5313 8.9479 22.8131 133 208 20 0.683
3.8687 6.7363 16.8471 125 210 20 0.705
-1.2663 4.0083 18.2993 142 206 20 0.661
9.1510 7.2270 18.6352 142 206 20 0.661
-7.4873 -9.8642 26.9650 24 220 24 0.903
-4.1969 -10.8109 27.1025 13 229 13 0.947
9.2448 7.4269 21.3969 138 207 20 0.672
-13.6832 -9.9529 23.4394 48 200 48 0.804
-9.5204 -9.9518 26.2099 43 205 43 0.826
6.1928 -0.8900 19.9123 138 207 20 0.672
-3.9693 -9.7403 27.4418 4 236 4 0.980
-2.3251 2.2670 8.5401 142 206 20 0.661
2.0882 -10.1979 25.7906 32 214 32 0.870
1.4393 2.1123 7.9522 129 209 20 0.694
-3.3479 -9.7242 27.4307 13 229 13 0.947
-3.3368 -9.7727 27.5062 10 231 10 0.958
-11.2519 -10.0117 25.9431 96 218 20 0.782
-2.4693 -9.6600 27.4060 38 209 38 0.848
2.6111 6.1223 14.9888 138 207 20 0.672
-6.1094 -9.8548 27.2550 18 225 18 0.925
-1.1790 6.1047 13.8791 133 208 20 0.683
-4.5272 -9.8124 27.3755 7 233 7 0.969
-11.9516 -9.9322 24.8745 38 209 38 0.848
-8.9242 -9.9247 26.4622 38 209 38 0.848
3.3556 1.7272 5.4916 133 208 20 0.683
-7.2454 -10.3526 26.7224 26 218 26 0.892
4.3230 -9.7825 24.9182 40 207 40 0.837
-6.1070 -9.8702 27.3177 18 225 18 0.925
-1.4683 -9.6674 27.5196 92 219 20 0.793
3.4520 5.8239 21.5567 138 207 20 0.672
-14.2748 -10.2886 24.3023 105 215 20 0.760
3.3706 -10.1589 25.4875 21 222 21 0.914
2.7168 6.5987 17.8063 121 211 20 0.716
7.1584 -2.0736 19.9184 138 207 20 0.672
2.7280 6.6302 17.9064 125 210 20 0.705
2.1104 6.0173 13.6888 129 209 20 0.694
-13.4329 -10.5767 23.2713 43 205 43 0.826
2.8982 6.8163 18.4952 129 209 20 0.694
4.2101 -9.8500 25.2112 35 211 35 0.859
-1.6744 5.3176 19.1893 138 207 20 0.672
6.0042 7.6494 18.6202 133 208 20 0.683
-9.8667 5.2738 15.0919 138 207 20 0.672
0.3831 -7.3249 18.0134 142 206 20 0.661
2.7006 5.3716 20.7686 138 207 20 0.672
-5.5894 5.3673 17.2333 129 209 20 0.694
-6.1112 5.8031 17.5755 129 209 20 0.694
4.2521 2.5813 7.3994 142 206 20 0.661
-2.4324 6.3964 15.5171 129 209 20 0.694
-11.3605 5.6729 17.0117 138 207 20 0.672
-0.1317 1.8913 6.0951 43 205 43 0.826
-1.9666 6.3426 16.2470 129 209 20 0.694
-0.4010 1.8282 5.3074 40 207 40 0.837
3.2239 6.8075 17.9332 117 212 20 0.727
3.0184 -10.0660 25.6964 29 216 29 0.881
-12.4565 -9.8757 24.4971 43 205 43 0.826
-4.4300 -10.9081 27.0122 18 225 18 0.925
2.0415 1.7963 6.5572 117 212 20 0.727
-6.2947 5.9853 16.8711 129 209 20 0.694
1.9471 1.8884 7.5857 125 210 20 0.705
4.3011 -9.6186 25.1713 35 211 35 0.859
5.2174 2.7539 13.3166 142 206 20 0.661
-5.6602 -10.1671 27.2761 4 236 4 0.980
-5.9660 5.9599 17.5758 129 209 20 0.694
-4.2981 -9.6981 27.3007 7 233 7 0.969
-1.8391 5.8223 19.8864 133 208 20 0.683
-12.8328 -9.8104 23.8732 43 205 43 0.826
3.7186 6.5435 17.1885 121 211 20 0.716
-12.2600 5.7544 17.6515 138 207 20 0.672
-3.0090 6.1504 15.4018 129 209 20 0.694
-1.8030 6.4660 15.1638 121 211 20 0.716
3.6124 -0.1118 3.5916 133 208 20 0.683
1.4472 5.0278 12.9838 138 207 20 0.672
-14.6301 -11.3688 22.3559 121 211 20 0.716
6.1215 7.6920 19.6940 138 207 20 0.672
0.6409 -10.0137 25.5326 43 205 43 0.826
-1.1369 6.1425 13.9699 133 208 20 0.683
1.1858 -10.1763 26.1969 43 205 43 0.826
3.5597 -9.7058 24.9516 29 216 29 0.881
-6.6402 -9.8766 26.9878 16 227 16 0.936
-3.8431 -10.7408 27.1336 13 229 13 0.947
-12.9688 -10.6048 24.5246 40 207 40 0.837
-9.0648 -10.0391 26.7982 46 202 46 0.815
-5.6566 -10.3352 27.0929 4 236 4 0.980
1.8314 1.7103 5.8402 121 211 20 0.716
0.3297 1.6570 4.6740 46 202 46 0.815
13.2753 8.6951 23.4345 133 208 20 0.683
1.8059 1.6356 6.1696 117 212 20 0.727
0.4109 1.6721 4.5737 92 219 20 0.793
0.6385 -2.1929 8.0636 142 206 20 0.661
-1.4717 -9.6735 27.4536 92 219 20 0.793
-0.0905 0.8157 4.8664 46 202 46 0.815
-8.9834 -9.8440 26.5774 43 205 43 0.826
2.6331 0.4176 1.2869 142 206 20 0.661
1.5916 0.1778 2.4372 142 206 20 0.661
-12.7789 -9.7572 23.7621 43 205 43 0.826
-11.7718 -9.7657 24.5647 38 209 38 0.848
0.3134 1.7233 7.1037 113 213 20 0.738
-0.4070 1.8534 5.5496 40 207 40 0.837
1.1276 -9.5825 24.5011 133 208 20 0.683
4.8157 0.4314 8.3797 138 207 20 0.672
1.1194 -9.5722 24.4616 133 208 20 0.683
1.0514 1.2760 5.8535 38 209 38 0.848
-5.1924 -9.9382 27.4496 4 236 4 0.980
-0.5293 1.2246 6.2483 43 205 43 0.826
-0.3249 1.0922 5.3734 40 207 40 0.837
3.6651 0.1175 3.0892 133 208 20 0.683
-0.2009 0.9714 5.6116 40 207 40 0.837
-0.0574 0.7307 4.9584 43 205 43 0.826
-0.3299 1.1029 5.3138 40 207 40 0.837
-5.7819 -0.6700 17.9455 230 129 30 0.246
2.9460 -0.9306 3.1516 230 138 30 0.273
4.1510 4.2513 14.5834 230 145 30 0.294
4.1557 -1.8737 13.9547 230 147 30 0.301
0.5855 1.8354 18.6787 230 158 30 0.335
1.9773 3.0851 14.8981 230 113 30 0.194
-0.1073 -2.7875 7.9111 230 154 30 0.323
0.4435 -0.2803 18.6986 230 132 30 0.254
4.2965 1.3649 14.4983 230 130 30 0.249
0.7677 -0.7572 2.0469 230 134 30 0.261
6.9260 -0.8813 9.7939 230 99 30 0.154
-1.7148 1.7137 7.7306 230 127 30 0.239
1.5482 0.5465 7.0754 230 151 30 0.312
0.7862 2.2404 17.0457 230 146 30 0.297
2.1828 0.8419 0.8892 230 102 30 0.162
5.8180 4.7324 15.4397 230 141 30 0.283
4.1945 -4.6698 15.8401 230 131 30 0.252
5.6995 6.7526 15.0528 230 138 30 0.271
5.0831 3.1747 15.3188 230 106 30 0.175
5.8001 5.9813 13.1694 230 112 30 0.193
7.2112 -0.6783 18.6107 230 161 30 0.344
5.9227 1.6540 11.8105 230 161 30 0.344
2.0296 1.3948 0.0212 230 152 30 0.316
2.9987 5.5120 17.9504 230 163 30 0.349
-1.9823 1.3313 17.7852 230 113 30 0.194
-4.4592 4.0631 18.1857 230 114 30 0.197
-5.2038 -0.6814 16.2224 230 154 30 0.320
1.4970 0.1033 0.7680 230 110 30 0.186
-3.8933 4.7253 12.2101 230 118 30 0.212
-3.7130 0.1067 18.4000 230 132 30 0.253
-0.1010 -0.1600 7.1798 230 144 30 0.290
-5.0067 1.3841 15.9983 230 129 30 0.244
7.5679 2.9738 17.1561 230 112 30 0.192
-4.6643 -2.6690 16.0880 230 123 30 0.226
6.1268 6.5149 15.7280 230 138 30 0.271
-4.7402 7.0368 16.3837 230 133 30 0.256
9.4906 6.5112 21.8974 230 150 30 0.309
-1.6490 3.8259 10.4437 230 152 30 0.314
1.2587 -2.4549 8.3967 230 132 30 0.253
-3.1551 -9.8416 26.2110 230 112 30 0.192
6.7179 5.2976 12.9146 230 99 30 0.154
7.0761 -2.7200 18.0449 230 113 30 0.197
4.4922 -0.1579 13.4036 230 114 30 0.197
-0.2889 0.0008 2.1403 230 144 30 0.291
8.2411 -3.6779 20.4229 230 107 30 0.177
5.3650 2.0767 16.1494 230 142 30 0.286
8.3509 -0.4826 10.0191 230 118 30 0.210
-0.9136 -9.3144 26.5265 230 106 30 0.172
7.1410 5.3362 12.0471 230 154 30 0.320
-8.6372 4.8092 15.6650 230 129 30 0.245
3.0244 -0.4236 2.2296 230 129 30 0.246
6.8915 4.9123 17.4699 230 104 30 0.169
0.7972 -1.6613 2.8021 230 117 30 0.207
-1.7527 1.7576 18.5861 230 156 30 0.329
3.4550 3.3226 5.2319 230 145 30 0.293
3.0987 -0.5208 12.0371 230 158 30 0.335
7.3299 4.8987 10.7943 230 143 30 0.287
7.3715 -3.1158 19.9689 230 144 30 0.291
1.8518 1.8839 1.0190 230 153 30 0.320
6.8544 4.0761 17.8414 230 115 30 0.201
4.3384 -1.4518 11.4708 230 143 30 0.289
1.4390 -0.3621 16.1216 230 111 30 0.190
