ply
format ascii 1.0
comment Created by Open3D
element vertex 274
property double x
property double y
property double z
property double nx
property double ny
property double nz
property uchar red
property uchar green
property uchar blue
end_header
-9.92419 -11.0747 25.5729 -0 -0 -1 6 8 0
-2.46606 -9.01478 25.7835 -0 -0 -1 4 1 6
2.93392 5.68606 13.078 -0 -0 -1 108 109 113
-11.4334 -10.8894 24.8207 -0 -0 -1 7 5 8
-8.96028 -10.0356 26.4347 -0 -0 -1 6 8 0
4.89778 3.93229 16.2511 -0 -0 -1 51 59 70
-14.0251 -11.3281 22.7998 -0 -0 -1 16 7 0
-9.17611 -11.0603 25.9167 -0 -0 -1 7 10 0
1.42984 -10.4543 26.4395 -0 -0 -1 0 3 2
4.74624 7.12303 18.4221 -0 -0 -1 154 155 155
-7.26781 -10.8482 26.6303 -0 -0 -1 3 4 5
3.34507 1.70881 5.41474 -0 -0 -1 108 109 113
-10.6888 -11.0815 25.1762 -0 -0 -1 7 9 3
-11.1157 -10.9591 24.9875 -0 -0 -1 1 0 1
-5.06003 -4.75436 13.1173 -0 -0 -1 0 0 0
-10.6914 -10.8778 25.2592 -0 -0 -1 3 4 8
3.49616 -10.2508 26.0668 -0 -0 -1 196 195 125
4.06373 -9.91784 25.3454 -0 -0 -1 14 1 0
-9.439 -11.0392 25.8154 -0 -0 -1 7 3 6
-1.26725 -10.559 26.9191 -0 -0 -1 1 1 6
-6.19849 -10.9492 26.8114 -0 -0 -1 11 7 6
5.27847 4.92933 12.7342 -0 -0 -1 0 0 0
9.02383 6.53775 23.9482 -0 -0 -1 107 109 108
-3.10255 -9.54938 27.171 -0 -0 -1 9 11 7
-4.42878 -10.7353 27.0835 -0 -0 -1 5 2 1
7.77648 -0.209092 11.198 -0 -0 -1 154 155 157
-12.5298 -10.1119 24.3361 -0 -0 -1 2 1 0
-0.198936 1.06275 5.92294 -0 -0 -1 157 159 158
-5.29585 -10.9186 26.9548 -0 -0 -1 1 1 13
0.490189 -10.5591 26.6494 -0 -0 -1 7 8 0
1.18676 -10.2704 26.396 -0 -0 -1 5 1 0
-11.2252 -10.0203 25.3019 -0 -0 -1 6 3 0
-2.36069 3.6184 12.8657 -0 -0 -1 152 156 155
0.730141 -10.5457 26.5843 -0 -0 -1 3 10 5
0.70212 -10.4521 26.6504 -0 -0 -1 1 6 5
-8.2022 -9.94624 26.7453 -0 -0 -1 2 4 0
6.44003 5.51971 13.727 -0 -0 -1 0 0 0
-0.213137 0.90288 5.055 -0 -0 -1 72 73 75
-1.51147 2.21472 10.1191 -0 -0 -1 154 156 155
-9.50172 -9.9255 26.2013 -0 -0 -1 207 207 146
-10.7736 -9.90443 25.6234 -0 -0 -1 0 2 0
-14.2606 -9.94798 22.7817 -0.573571 -0.745823 -0.338768 189 195 123
-4.72826 -10.8746 27.1043 -0 -0 -1 177 181 101
3.77919 0.344876 3.7793 -0 -0 -1 157 158 154
-14.146 -10.0776 22.8731 -0.573571 -0.745823 -0.338768 6 9 0
-13.4734 -9.7703 23.1343 -0 -0 -1 30 29 0
-8.95671 -9.8341 26.5173 -0.907146 -0.0731558 -0.414409 5 1 2
-4.2726 -9.65372 27.1939 -0 -0 -1 18 9 0
-14.1423 -10.0745 22.86 -0.573571 -0.745823 -0.338768 6 9 0
-11.8812 -9.85491 24.7681 -0 -0 -1 187 195 55
-13.4232 -9.9045 23.6455 -0 -0 -1 9 6 0
-7.50902 -9.98716 26.9356 -0 -0 -1 7 6 0
1.83105 1.74361 6.54029 -0 -0 -1 52 61 68
-4.78433 -9.92654 27.3893 -0 -0 -1 3 6 0
-2.33491 -9.68742 27.3651 -0.151297 0.51594 -0.843158 237 240 133
-3.92302 -9.87153 27.4339 -0 -0 -1 3 6 1
-2.87524 -10.7246 27.0618 -0 -0 -1 0 3 1
-9.70795 -10.8829 25.7576 -0 -0 -1 4 3 2
-2.06367 -10.605 27.038 -0 -0 -1 5 0 9
0.312716 -0.763486 9.28118 -0 -0 -1 36 45 52
-6.37806 3.09688 14.8945 -0 -0 -1 36 45 52
-10.1324 -10.9896 25.5088 -0 -0 -1 28 28 0
-8.93243 -10.9148 26.0757 -0 -0 -1 3 4 2
-7.29162 -10.9691 26.5729 -0 -0 -1 1 8 5
-5.75429 -10.9144 26.8919 -0 -0 -1 0 1 2
-4.8582 -9.68857 27.4988 -0 -0 -1 2 3 0
-3.86081 -0.250211 16.4845 -0 -0 -1 51 59 70
-4.25966 -10.9849 27.422 -0 -0 -1 157 166 82
-3.19526 -10.7082 27.086 -0 -0 -1 0 0 4
1.40511 -10.2723 26.3394 -0 -0 -1 0 2 2
0.477715 -10.4614 26.4188 -0 -0 -1 7 8 0
-2.86883 3.76176 11.0391 -0 -0 -1 73 75 72
-1.55294 -10.5929 26.9557 -0 -0 -1 3 2 5
4.17021 -1.81396 12.7075 -0 -0 -1 50 60 69
-0.319801 1.09758 6.08768 -0 -0 -1 73 75 72
0.0247295 -10.4581 26.655 -0 -0 -1 3 4 4
4.49113 -9.78695 24.7869 -0 -0 -1 17 25 1
2.76318 -10.0429 25.7456 -0 -0 -1 2 1 0
-5.83261 -9.89398 27.3164 -0 -0 -1 102 115 11
-7.84371 -10.9117 26.4472 -0 -0 -1 1 3 0
-0.387739 1.18085 5.54615 -0 -0 -1 106 107 109
-7.81383 -9.94547 26.8586 -0 -0 -1 0 4 11
-12.1978 -11.0135 24.2639 -0 -0 -1 0 1 5
8.55944 3.71024 12.3433 -0 -0 -1 31 30 26
-6.64733 -9.80235 27.0888 -0.970378 0.157022 -0.183606 7 1 2
7.93083 -3.33118 18.7414 -0 -0 -1 52 60 66
-4.28446 -10.2855 27.2073 -0 -0 -1 0 1 2
2.42083 -10.1649 25.8607 -0 -0 -1 0 2 3
12.6198 8.24961 23.2889 -0 -0 -1 107 108 112
3.25407 -9.99088 25.6016 -0 -0 -1 4 3 4
7.00056 4.94138 17.7554 -0 -0 -1 107 108 110
5.00947 -0.0462148 7.11597 -0 -0 -1 156 158 157
-11.016 -9.84258 25.4994 -0 -0 -1 28 26 0
-7.53995 -10.9313 26.5238 -0 -0 -1 19 18 3
9.26514 7.6082 22.032 -0 -0 -1 154 156 155
-3.73446 -10.7433 26.6183 -0 -0 -1 7 8 8
4.12881 -9.87788 25.0786 0.849778 -0.236122 -0.4713 192 199 91
-0.141906 1.79309 5.4295 -0 -0 -1 71 73 68
-4.68854 -1.84871 16.6405 -0 -0 -1 51 59 70
1.21781 3.47407 14.6392 -0 -0 -1 35 42 48
7.23674 5.44203 20.7169 -0 -0 -1 158 159 161
-12.6752 -11.0181 23.9107 -0 -0 -1 88 80 54
-9.18295 -10.9991 25.937 -0 -0 -1 65 72 27
3.25518 -9.99486 25.5991 -0 -0 -1 4 3 4
2.0294 -10.1939 26.0263 -0 -0 -1 158 157 90
2.30848 -10.5238 25.7866 -0 -0 -1 0 1 2
1.65411 1.54542 6.03201 -0 -0 -1 0 0 0
-1.44205 3.53923 9.71354 -0 -0 -1 106 107 111
-4.21573 5.9895 16.5885 -0 -0 -1 154 156 155
3.17067 1.84504 4.21934 -0 -0 -1 106 107 109
-6.66218 -10.5735 27.5759 -0 -0 -1 0 1 2
-11.6516 -11.0301 24.6238 -0 -0 -1 158 162 24
-13.7326 -10.5341 23.1773 -0 -0 -1 0 0 5
-11.6153 -10.4153 24.8818 -0 -0 -1 1 1 3
1.39425 -10.3274 26.0518 -0 -0 -1 0 3 6
4.44969 0.119161 6.41225 -0 -0 -1 107 109 108
-4.22684 -10.1762 26.9133 -0 -0 -1 0 1 2
-2.77424 -9.63551 27.4782 -0 -0 -1 0 0 4
1.17312 3.56638 15.3007 -0 -0 -1 32 40 46
6.96114 5.05507 20.5231 -0 -0 -1 106 107 110
-0.939726 -10.5942 26.9248 -0 -0 -1 46 49 23
-0.94362 -10.5787 26.914 -0 -0 -1 46 49 23
-1.91343 -10.1983 27.2175 -0 -0 -1 0 0 3
3.66132 6.73074 16.4728 -0 -0 -1 106 107 109
5.31478 4.14628 10.7693 -0 -0 -1 108 109 113
-11.0866 5.85198 14.4378 -0 -0 -1 108 109 111
-2.03344 5.95527 21.2551 -0 -0 -1 152 158 162
5.45053 4.28407 11.1097 -0 -0 -1 108 109 113
2.05087 3.73872 13.8247 -0 -0 -1 154 156 155
-1.75449 3.31424 15.1088 -0 -0 -1 36 45 52
-4.52896 -9.91024 27.4071 -0.51589 -0.255224 -0.817752 16 9 0
-2.43044 3.77063 10.5555 -0 -0 -1 72 74 71
-6.20472 -9.81095 27.2831 -0.456876 -0.867708 -0.195823 120 114 24
6.37197 5.94537 16.5331 -0 -0 -1 154 156 155
1.95189 -5.14095 14.3028 -0 -0 -1 0 1 0
-4.56737 -9.80932 27.3999 -0.51589 -0.255224 -0.817752 102 114 49
-5.46724 -9.81227 27.3734 -0 -0 -1 11 7 6
-4.11454 3.69285 11.7639 -0 -0 -1 154 156 155
2.71379 4.32686 14.1148 -0 -0 -1 154 156 155
3.42414 1.97377 15.4132 -0 -0 -1 36 45 52
-3.15523 -9.84913 27.3943 -0 -0 -1 6 6 0
0.304782 -0.465721 18.826 -0 -0 -1 36 45 52
3.56133 -9.97824 25.1515 -0 -0 -1 11 4 0
4.31479 -9.75982 24.8587 -0.266977 -0.912174 -0.310904 9 11 0
-7.00722 -9.9057 27.4499 -0 -0 -1 10 5 1
-6.40659 -9.80484 27.2442 -0 -0 -1 20 2 0
-4.91695 -9.91924 27.3735 -0 -0 -1 11 13 6
3.00713 -10.0183 25.697 -0 -0 -1 2 1 0
-2.05912 6.23307 21.4253 -0 -0 -1 151 155 154
-7.2801 -10.4164 26.9661 -0 -0 -1 0 1 1
-12.9959 -9.94218 24.0891 -0 -0 -1 40 48 5
-11.8532 5.44487 14.463 -0 -0 -1 107 108 112
3.26693 -9.95261 25.3341 -0 -0 -1 58 57 0
3.46118 -10.0365 25.4228 -0 -0 -1 201 204 136
3.82464 -9.87504 25.1559 -0 -0 -1 3 1 1
4.14453 -9.89401 25.115 0.849778 -0.236122 -0.4713 197 209 67
-7.63345 -10.4746 26.7097 -0 -0 -1 0 1 0
-6.68747 -9.92394 27.197 -0 -0 -1 1 1 6
1.04975 -10.4513 26.6676 -0 -0 -1 161 160 106
-2.23862 -9.60649 27.3974 -0 -0 -1 6 6 0
-2.78915 -10.1416 27.2356 -0 -0 -1 0 0 7
-0.0177834 2.15205 6.72171 -0 -0 -1 108 109 113
6.14072 4.70948 21.0985 -0 -0 -1 51 59 70
-7.21453 -9.83836 27.1084 -0 -0 -1 7 3 6
8.51845 5.82246 20.693 -0 -0 -1 108 109 111
13.5313 8.9479 22.8131 -0 -0 -1 153 154 158
3.86874 6.73634 16.8471 -0 -0 -1 106 107 110
-1.26632 4.00834 18.2993 -0 -0 -1 36 45 52
9.15105 7.22698 18.6352 -0 -0 -1 106 107 111
-7.48727 -9.86415 26.965 -0 -0 -1 6 6 7
-4.19686 -10.8109 27.1025 -0 -0 -1 4 3 0
9.24477 7.42692 21.3969 -0 -0 -1 153 155 154
-13.6832 -9.95295 23.4394 -0 -0 -1 34 35 0
-9.52044 -9.9518 26.2099 -0 -0 -1 206 206 145
6.19275 -0.889972 19.9123 -0 -0 -1 107 108 112
-3.96926 -9.74028 27.4418 -0 -0 -1 117 119 67
-2.32513 2.26705 8.54009 -0 -0 -1 154 156 155
2.08816 -10.1979 25.7906 -0 -0 -1 11 9 1
1.43933 2.11228 7.95223 -0 -0 -1 47 58 64
-3.34787 -9.72422 27.4307 -0 -0 -1 55 61 28
-3.33677 -9.77266 27.5062 -0 -0 -1 55 61 28
-11.2519 -10.0117 25.9431 -0 -0 -1 37 36 3
-2.46926 -9.65996 27.406 -0 -0 -1 88 94 5
2.61106 6.12227 14.9888 -0 -0 -1 155 157 156
-6.10938 -9.85481 27.255 -0.456876 -0.867708 -0.195823 178 191 51
-1.17903 6.10472 13.8791 -0 -0 -1 156 157 161
-4.52722 -9.81238 27.3755 -0.51589 -0.255224 -0.817752 174 187 81
-11.9516 -9.93215 24.8745 -0 -0 -1 204 212 69
-8.92422 -9.9247 26.4622 -0.784915 0.272288 -0.556568 193 193 89
3.35564 1.72718 5.4916 -0 -0 -1 108 109 113
-7.24539 -10.3526 26.7224 -0 -0 -1 0 0 1
4.323 -9.7825 24.9182 -0 -0 -1 6 8 0
-6.10698 -9.87022 27.3177 -0.456876 -0.867708 -0.195823 178 191 51
-1.46829 -9.66738 27.5196 -0 -0 -1 24 22 18
3.45197 5.82386 21.5567 -0 -0 -1 154 156 155
-14.2748 -10.2886 24.3023 -0 -0 -1 28 26 0
3.37055 -10.1589 25.4875 -0 -0 -1 15 1 1
2.71682 6.59874 17.8063 -0 -0 -1 108 109 113
7.15839 -2.07364 19.9184 -0 -0 -1 0 0 0
2.72804 6.63017 17.9064 -0 -0 -1 108 109 113
2.11038 6.01729 13.6888 -0 -0 -1 154 156 155
-13.4329 -10.5767 23.2713 -0 -0 -1 1 0 0
2.89824 6.81634 18.4952 -0 -0 -1 108 109 113
4.21008 -9.85002 25.2112 0.849778 -0.236122 -0.4713 73 79 0
-1.67439 5.31764 19.1893 -0 -0 -1 105 109 112
6.00422 7.64938 18.6202 -0 -0 -1 108 109 113
-9.86675 5.27377 15.0919 -0 -0 -1 36 41 44
0.383124 -7.32487 18.0134 -0 -0 -1 216 219 148
2.70058 5.37162 20.7686 -0 -0 -1 154 157 157
-5.58939 5.36731 17.2333 -0 -0 -1 154 156 155
-6.11116 5.80311 17.5755 -0 -0 -1 35 46 52
4.25206 2.58131 7.39936 -0 -0 -1 108 109 113
-2.43244 6.3964 15.5171 -0 -0 -1 72 74 71
-11.3605 5.67292 17.0117 -0 -0 -1 154 156 155
-0.131699 1.8913 6.09507 -0 -0 -1 65 67 64
-1.9666 6.34265 16.247 -0 -0 -1 67 69 66
-0.401041 1.82823 5.30742 -0 -0 -1 66 68 67
3.22388 6.80745 17.9332 -0 -0 -1 107 108 112
3.01842 -10.066 25.6964 -0 -0 -1 3 1 1
-12.4565 -9.87567 24.4971 -0 -0 -1 3 0 0
-4.43004 -10.9081 27.0122 -0 -0 -1 10 13 0
2.04152 1.79632 6.55717 -0 -0 -1 154 156 155
-6.29475 5.98528 16.8711 -0 -0 -1 152 157 154
1.94714 1.88842 7.58565 -0 -0 -1 150 155 161
4.30108 -9.61864 25.1713 -0 -0 -1 2 0 0
5.21736 2.75386 13.3166 -0 -0 -1 105 107 106
-5.66018 -10.1671 27.2761 -0 -0 -1 2 0 3
-5.96603 5.95985 17.5758 -0 -0 -1 28 35 41
-4.29811 -9.69812 27.3007 -0 -0 -1 19 10 0
-1.83906 5.82234 19.8864 -0 -0 -1 51 60 67
-12.8328 -9.81043 23.8732 -0 -0 -1 153 161 58
3.71862 6.54352 17.1885 -0 -0 -1 154 156 155
-12.26 5.75443 17.6515 -0 -0 -1 150 152 151
-3.00903 6.1504 15.4018 -0 -0 -1 70 72 71
-1.80299 6.466 15.1638 -0 -0 -1 69 71 68
3.61239 -0.111832 3.59158 -0 -0 -1 107 108 112
1.44724 5.02779 12.9838 -0 -0 -1 107 108 112
-14.6301 -11.3688 22.3559 -0 -0 -1 3 1 2
6.12145 7.69201 19.694 -0 -0 -1 106 107 110
0.640878 -10.0137 25.5326 -0 -0 -1 170 170 79
-1.13689 6.1425 13.9699 -0 -0 -1 154 156 155
1.18583 -10.1763 26.1969 -0 -0 -1 3 1 6
3.55967 -9.7058 24.9516 -0 -0 -1 8 3 1
-6.64024 -9.87663 26.9878 -0 -0 -1 0 1 0
-3.84308 -10.7408 27.1336 -0 -0 -1 5 1 5
-12.9688 -10.6048 24.5246 -0 -0 -1 0 1 0
-9.06482 -10.0391 26.7982 -0 -0 -1 147 146 72
-5.65658 -10.3352 27.0929 -0 -0 -1 0 0 4
1.83137 1.71033 5.84023 -0 -0 -1 155 159 158
0.329729 1.65702 4.674 -0 -0 -1 109 111 110
13.2753 8.6951 23.4345 -0 -0 -1 0 0 0
1.8059 1.63557 6.16961 -0 -0 -1 49 59 68
0.41089 1.67211 4.57367 -0 -0 -1 153 155 154
0.638485 -2.1929 8.06359 -0 -0 -1 51 59 70
-1.4717 -9.67347 27.4536 -0 -0 -1 78 77 38
-0.0905148 0.815661 4.86639 -0 -0 -1 153 155 152
-8.98336 -9.84403 26.5774 -0.907146 -0.0731558 -0.414409 5 1 2
2.63311 0.41759 1.28691 -0 -0 -1 154 155 159
1.59161 0.1778 2.4372 -0 -0 -1 145 153 158
-12.7789 -9.75716 23.7621 -0 -0 -1 57 67 9
-11.7718 -9.76573 24.5647 -0 -0 -1 213 221 75
0.313365 1.72334 7.10372 -0 -0 -1 35 42 50
-0.40704 1.85341 5.54965 -0 -0 -1 69 71 68
1.12762 -9.58248 24.5011 -0 -0 -1 79 79 57
4.81568 0.431407 8.37967 -0 -0 -1 106 107 111
1.11944 -9.57216 24.4616 -0 -0 -1 79 79 57
1.05135 1.27598 5.85353 -0 -0 -1 53 59 65
-5.19237 -9.93822 27.4496 -0 -0 -1 8 1 0
-0.529306 1.22461 6.24828 -0 -0 -1 105 106 110
-0.324945 1.09216 5.37335 -0 -0 -1 156 157 159
3.6651 0.117496 3.08924 -0 -0 -1 105 106 108
-0.200882 0.971427 5.61164 -0 -0 -1 72 74 69
-0.0574045 0.730679 4.95839 -0 -0 -1 154 156 155
-0.329882 1.1029 5.31377 -0 -0 -1 106 107 112
