ply
format ascii 1.0
element vertex 527
property float x
property float y
property float z
property uchar red
property uchar green
property uchar blue
property float confidence
end_header
-7.2152 -5.6717 11.4893 133 208 20 0.683
-13.6996 -13.0337 16.6452 4 236 4 0.980
-12.4328 -13.1135 18.5807 4 236 4 0.980
-3.1460 2.4846 7.9130 46 202 46 0.815
-12.8348 -13.4999 17.6578 4 236 4 0.980
-15.7929 -11.0923 12.4980 29 216 29 0.881
-15.2063 -11.9236 14.0455 29 216 29 0.881
-10.5352 -13.7956 20.1264 4 236 4 0.980
-13.5299 -4.4158 14.4536 138 207 20 0.672
-14.9552 -12.1220 14.5909 21 222 21 0.914
-14.9415 -12.2504 14.5250 26 218 26 0.892
1.7913 -0.7102 6.1728 138 207 20 0.672
-12.0201 -13.8716 18.5360 4 236 4 0.980
-7.5374 -5.9132 12.2539 133 208 20 0.683
-15.2294 0.2179 16.0544 138 207 20 0.672
-0.7414 2.5425 2.8308 48 200 48 0.804
0.1980 5.5584 9.7853 138 207 20 0.672
-14.6663 -12.4608 15.0633 24 220 24 0.903
-14.2998 -12.6427 15.7891 4 236 4 0.980
-14.9562 -12.1223 14.5923 21 222 21 0.914
-3.2906 2.9701 8.0882 46 202 46 0.815
-8.3328 6.5338 11.6540 113 213 20 0.738
-14.4881 -12.5784 15.4088 18 225 18 0.925
-2.2068 3.0218 6.0712 46 202 46 0.815
-10.3797 -14.3710 19.7627 7 233 7 0.969
-14.4045 -12.0941 16.1143 4 236 4 0.980
-14.3823 -12.6642 15.5738 13 229 13 0.947
-3.9273 -0.7974 2.4579 133 208 20 0.683
8.6517 1.9090 8.8920 100 217 20 0.771
-13.5846 -13.0564 16.8400 4 236 4 0.980
-13.3103 -12.5130 17.4499 4 236 4 0.980
-13.7977 -12.3784 17.1072 4 236 4 0.980
-3.4239 1.6630 7.8791 100 217 20 0.771
-12.1407 -13.7346 18.4172 4 236 4 0.980
-2.8141 -1.0880 3.3982 138 207 20 0.672
-8.9131 -14.8099 20.5413 46 202 46 0.815
4.2160 6.6821 15.3540 138 207 20 0.672
-12.2513 -13.6977 18.1907 4 236 4 0.980
-5.5441 -3.8161 12.0771 142 206 20 0.661
-6.6037 -15.0606 21.4327 16 227 16 0.936
-8.7257 -14.8531 20.6116 46 202 46 0.815
3.4417 -0.1950 6.3593 109 214 20 0.749
-15.0983 -12.0574 14.2603 24 220 24 0.903
-13.2511 -0.5986 15.1531 121 211 20 0.716
-3.3017 -2.5667 9.0587 138 207 20 0.672
-6.3438 -15.1620 21.5005 16 227 16 0.936
-12.4142 2.2396 10.1468 142 206 20 0.661
-7.7964 -14.3423 20.1588 92 219 20 0.793
-8.7529 -14.7657 20.6420 46 202 46 0.815
-1.4604 -1.4705 4.4787 133 208 20 0.683
-5.8798 -15.2012 21.8516 24 220 24 0.903
-3.3746 1.4451 7.2736 113 213 20 0.738
-14.4278 -11.9706 16.1996 4 236 4 0.980
-10.1270 6.0522 11.4945 121 211 20 0.716
-15.9641 -10.5055 11.8402 40 207 40 0.837
-15.7861 -10.7235 12.6815 29 216 29 0.881
-15.9426 -10.6221 11.9249 35 211 35 0.859
5.0057 -3.8727 9.3057 138 207 20 0.672
-15.6932 -11.0579 12.4060 29 216 29 0.881
2.6801 -0.7438 4.7097 125 210 20 0.705
-15.2074 -11.4502 14.5083 21 222 21 0.914
-13.7878 -12.4523 17.0382 4 236 4 0.980
-0.7099 2.5660 2.8606 48 200 48 0.804
-5.9859 4.6639 10.7907 142 206 20 0.661
1.0191 2.6792 7.1122 129 209 20 0.694
-13.5812 -13.1233 16.7759 4 236 4 0.980
-13.4721 -12.4115 17.3558 4 236 4 0.980
-13.4476 -13.0522 17.5810 4 236 4 0.980
-10.0942 -13.6749 19.4603 4 236 4 0.980
-12.5034 -13.0878 18.5099 4 236 4 0.980
-12.8138 -12.8721 18.2724 4 236 4 0.980
-12.2923 -13.1708 18.7157 4 236 4 0.980
-9.6975 -13.8220 20.9964 32 214 32 0.870
-9.8718 2.1783 5.8238 133 208 20 0.683
-11.8321 -13.9265 18.7489 4 236 4 0.980
-8.2451 3.0074 16.6149 138 207 20 0.672
-11.9495 -13.2992 19.0279 4 236 4 0.980
-4.9862 -1.7911 1.0009 142 206 20 0.661
-14.6056 -12.4075 15.2853 21 222 21 0.914
-2.4978 3.6195 15.4389 129 209 20 0.694
-5.1672 1.5978 3.2059 138 207 20 0.672
0.4564 1.4383 7.3282 133 208 20 0.683
-12.5975 -13.6250 17.9047 4 236 4 0.980
-13.3750 -12.5425 17.5504 4 236 4 0.980
-11.4170 -14.0289 19.0034 4 236 4 0.980
-3.2628 2.6577 4.5709 35 211 35 0.859
-9.9769 -14.5144 20.0221 7 233 7 0.969
-11.2196 -14.1217 19.1424 4 236 4 0.980
-7.6533 -15.0434 21.0966 18 225 18 0.925
-4.2060 3.5175 7.1342 125 210 20 0.705
-10.1849 -14.4126 19.8794 10 231 10 0.958
-0.5216 -3.8185 7.3019 138 207 20 0.672
-9.9805 6.3015 11.6024 109 214 20 0.749
-9.2732 -14.6636 20.3968 43 205 43 0.826
-7.1055 -15.0299 21.3873 10 231 10 0.958
-1.8028 -3.5319 8.4697 138 207 20 0.672
-14.2640 -11.7629 15.7017 18 225 18 0.925
0.0324 -2.8350 9.9508 133 208 20 0.683
-12.9941 -12.8215 18.0451 4 236 4 0.980
-12.5010 -12.9462 18.6422 4 236 4 0.980
4.1735 -0.8730 9.2937 138 207 20 0.672
-12.2905 -13.7136 18.2002 4 236 4 0.980
-8.0453 6.3400 11.3421 113 213 20 0.738
-13.8382 -12.9390 16.4713 4 236 4 0.980
-13.0574 -13.4050 17.4040 4 236 4 0.980
-8.3416 5.3197 16.8322 129 209 20 0.694
-15.5658 -11.0022 13.5619 16 227 16 0.936
-10.7180 -14.2482 19.5479 4 236 4 0.980
-15.0777 -11.5087 14.8983 13 229 13 0.947
-14.1031 -12.2441 16.6395 4 236 4 0.980
-13.9343 -12.3462 16.8798 4 236 4 0.980
2.8713 6.8050 10.9072 138 207 20 0.672
-2.7658 6.2804 15.9100 129 209 20 0.694
-6.4048 -15.1347 21.6955 16 227 16 0.936
-15.8866 -11.1823 12.6574 24 220 24 0.903
-14.6336 -11.8820 15.7756 18 225 18 0.925
-15.4409 -11.7869 13.4164 13 229 13 0.947
-1.2919 2.5294 6.8774 129 209 20 0.694
-14.7528 -12.3538 14.9532 24 220 24 0.903
-14.6523 5.3962 18.7022 133 208 20 0.683
-7.3863 -15.0294 21.2337 7 233 7 0.969
-15.5697 -11.1237 13.4184 18 225 18 0.925
-15.1601 -11.4019 14.7361 29 216 29 0.881
3.6480 -5.4064 11.8185 138 207 20 0.672
1.9823 1.3030 3.3688 121 211 20 0.716
-8.2946 5.2998 16.9485 129 209 20 0.694
-8.0878 5.8957 17.0396 129 209 20 0.694
2.4116 -3.4717 8.0589 138 207 20 0.672
-6.6175 -15.0743 21.4552 16 227 16 0.936
-2.9019 1.6732 8.7726 48 200 48 0.804
-15.8370 -10.6592 12.4458 32 214 32 0.870
3.8552 -5.5840 11.9550 138 207 20 0.672
-15.2686 2.2661 18.5546 133 208 20 0.683
8.3946 2.6704 13.0921 109 214 20 0.749
-14.2184 5.0229 17.7567 133 208 20 0.683
3.3817 -0.4342 7.1793 113 213 20 0.738
-10.2187 6.3079 13.5505 113 213 20 0.738
-13.6475 -12.5930 17.1348 4 236 4 0.980
-15.5923 -11.6639 13.0376 18 225 18 0.925
-14.3912 -12.6254 15.5922 10 231 10 0.958
-13.7257 -12.2075 17.3959 4 236 4 0.980
-7.7169 -14.9638 21.1307 24 220 24 0.903
-0.8954 -3.7561 10.8113 133 208 20 0.683
3.5310 -0.3823 6.9119 109 214 20 0.749
-8.4417 6.3780 11.7095 105 215 20 0.760
-7.4483 -15.2532 21.0335 16 227 16 0.936
-12.3196 -13.1154 18.7283 4 236 4 0.980
-11.9865 -13.2252 19.0540 4 236 4 0.980
-2.5862 2.7350 5.1026 35 211 35 0.859
-11.6162 -13.3678 19.3499 4 236 4 0.980
-11.1399 0.7534 9.1073 142 206 20 0.661
-4.6132 3.6181 7.4033 129 209 20 0.694
-14.0064 -13.3544 18.6867 29 216 29 0.881
-11.0731 -13.5446 19.7607 4 236 4 0.980
-10.4603 -13.7698 20.2844 4 236 4 0.980
-3.2982 1.4970 7.9142 100 217 20 0.771
-8.9650 6.3634 13.2010 105 215 20 0.760
-2.9838 5.5885 15.7390 129 209 20 0.694
-15.2656 -11.9480 13.8301 26 218 26 0.892
-13.2945 -12.6208 17.7656 4 236 4 0.980
-15.8859 -11.0591 12.2472 29 216 29 0.881
1.2098 4.2199 15.8467 138 207 20 0.672
7.8348 2.4477 12.1786 125 210 20 0.705
-15.6972 -10.8674 13.0979 18 225 18 0.925
-11.8606 -13.8267 18.4131 4 236 4 0.980
-15.2780 -11.5646 14.0435 24 220 24 0.903
-6.5711 -15.2235 21.4553 16 227 16 0.936
-15.4310 -11.1758 13.9780 18 225 18 0.925
5.8725 -2.3366 8.7673 138 207 20 0.672
-7.4527 -3.5523 14.0375 129 209 20 0.694
-0.7206 -0.0841 17.6035 138 207 20 0.672
-14.4019 -12.0314 16.1790 4 236 4 0.980
-13.1481 -12.7436 17.9123 4 236 4 0.980
-9.4663 -9.0357 15.8464 142 206 20 0.661
3.2048 -1.9189 7.8933 138 207 20 0.672
5.7119 -2.4939 9.7886 129 209 20 0.694
-3.0571 3.3450 15.4255 133 208 20 0.683
-13.7777 4.5597 17.0029 133 208 20 0.683
-8.1574 5.8144 17.3209 129 209 20 0.694
0.2873 0.7251 3.1604 138 207 20 0.672
-6.6754 -15.0668 21.4945 16 227 16 0.936
3.4559 -0.1259 6.6496 109 214 20 0.749
-2.6798 -2.3853 6.9911 129 209 20 0.694
-14.6181 5.8564 19.7265 138 207 20 0.672
-2.3361 3.1563 14.0342 133 208 20 0.683
-9.1272 6.2021 15.4667 142 206 20 0.661
-9.9564 -14.4919 19.9951 7 233 7 0.969
-16.6071 -11.6968 11.1163 121 211 20 0.716
-3.1019 0.9711 3.5695 129 209 20 0.694
-10.6406 -13.9877 19.7587 4 236 4 0.980
-8.6824 6.5270 11.9610 96 218 20 0.782
-8.1295 6.2084 19.2327 142 206 20 0.661
-5.5063 -15.2183 21.7826 29 216 29 0.881
8.7386 1.8069 8.3723 100 217 20 0.771
1.0410 6.3148 10.8090 138 207 20 0.672
-9.1387 -1.1476 16.9221 133 208 20 0.683
0.5352 2.3108 2.5602 46 202 46 0.815
-14.1777 2.6863 17.3266 125 210 20 0.705
-3.1710 5.0152 15.3456 125 210 20 0.705
3.7945 6.4234 16.4879 138 207 20 0.672
-2.9374 1.4920 3.4787 125 210 20 0.705
2.6876 6.1787 9.6442 138 207 20 0.672
1.7244 -2.8323 11.9402 138 207 20 0.672
1.5007 -2.4040 9.3331 138 207 20 0.672
-12.0624 -13.4307 18.5740 4 236 4 0.980
-13.4162 3.0961 17.2976 125 210 20 0.705
-6.8922 -3.7548 13.2463 129 209 20 0.694
-2.2975 5.9600 15.4842 129 209 20 0.694
-3.0607 -3.7524 12.8018 129 209 20 0.694
9.1664 -1.1153 10.4609 142 206 20 0.661
-1.7511 -3.7364 12.8810 129 209 20 0.694
-7.9571 3.0874 16.6973 138 207 20 0.672
-6.9887 4.3128 17.2356 142 206 20 0.661
-13.9783 3.2034 15.4297 133 208 20 0.683
-6.4733 -15.1322 21.5027 16 227 16 0.936
-15.5769 -6.2614 13.0495 142 206 20 0.661
-0.4898 -2.0184 16.4749 142 206 20 0.661
-5.1081 -5.2809 13.6200 142 206 20 0.661
-8.5784 -14.9708 20.8459 48 200 48 0.804
-12.4174 -12.7093 17.6087 4 236 4 0.980
3.4520 -0.1294 6.6130 109 214 20 0.749
-13.0405 -12.6586 17.8244 4 236 4 0.980
-5.6749 -15.1765 21.7772 26 218 26 0.892
-4.7865 3.5909 7.5717 133 208 20 0.683
-2.2842 -3.2967 13.5821 129 209 20 0.694
-13.4160 -12.5609 17.6074 4 236 4 0.980
-13.1949 -12.6852 17.8746 4 236 4 0.980
-13.9899 6.4532 11.9698 142 206 20 0.661
-3.0452 0.9036 3.5292 129 209 20 0.694
-10.4645 6.1742 12.0482 121 211 20 0.716
-13.5638 -4.6170 14.0376 138 207 20 0.672
-5.8597 -15.1736 21.6904 24 220 24 0.903
-8.9329 6.4562 13.6464 121 211 20 0.716
-5.7492 -14.9955 21.8755 26 218 26 0.892
-6.9839 -3.7713 13.5836 129 209 20 0.694
0.1621 2.5918 2.6583 46 202 46 0.815
-13.0643 -0.8991 15.2069 121 211 20 0.716
-6.1054 -15.1795 21.7156 21 222 21 0.914
-2.3445 -5.8251 13.0537 142 206 20 0.661
-5.0708 -1.7889 5.0424 129 209 20 0.694
-8.5421 -14.8508 20.7913 48 200 48 0.804
-0.8295 0.1981 18.7988 138 207 20 0.672
-13.6387 -12.7740 17.0167 4 236 4 0.980
-5.6081 2.7920 6.3738 105 215 20 0.760
-15.7526 -11.1284 12.4777 29 216 29 0.881
-12.1575 -1.1604 14.5468 125 210 20 0.705
-8.7125 6.0133 12.5596 96 218 20 0.782
2.2666 -0.3524 4.8122 121 211 20 0.716
-15.1144 3.1053 18.1532 129 209 20 0.694
-12.9007 -1.3625 15.8326 121 211 20 0.716
-14.3167 1.8231 16.4146 125 210 20 0.705
-1.5612 -7.3704 15.4344 142 206 20 0.661
-11.9286 -13.8214 18.5888 4 236 4 0.980
-8.1998 5.8170 10.9157 117 212 20 0.727
-10.9265 -13.5574 19.8753 4 236 4 0.980
-13.8006 -12.7287 16.7893 4 236 4 0.980
-11.8545 -13.2581 18.3577 4 236 4 0.980
8.3473 6.6050 12.9821 142 206 20 0.661
-7.4104 -0.6885 12.5491 138 207 20 0.672
-15.0403 0.4364 16.0457 133 208 20 0.683
-0.9141 7.0642 14.8450 142 206 20 0.661
-4.3366 2.6381 5.5423 38 209 38 0.848
0.0001 2.8119 3.2906 46 202 46 0.815
-4.2390 -1.0305 5.7348 138 207 20 0.672
2.3876 4.0480 7.8316 142 206 20 0.661
-13.6733 -12.4516 17.2984 4 236 4 0.980
-6.8839 -15.0768 21.4268 16 227 16 0.936
-10.8295 -13.7586 20.2045 7 233 7 0.969
-13.7743 2.5784 16.7429 121 211 20 0.716
-3.4982 2.6622 5.1244 32 214 32 0.870
-8.9945 6.5484 13.8413 121 211 20 0.716
-6.4923 -15.1525 21.5334 16 227 16 0.936
-0.7223 2.5774 2.8855 48 200 48 0.804
-8.5981 -0.5252 16.9774 133 208 20 0.683
-10.7287 -13.4251 19.6326 4 236 4 0.980
-11.5863 -12.9150 17.7878 4 236 4 0.980
-2.6874 2.8834 5.2754 35 211 35 0.859
8.6904 1.8610 8.6671 100 217 20 0.771
-5.3536 2.4273 6.1162 100 217 20 0.771
-9.4981 6.4200 12.7099 48 200 48 0.804
-15.2650 2.7045 19.1031 133 208 20 0.683
-12.1202 -13.8439 18.3365 4 236 4 0.980
-12.2516 -13.1204 18.5876 4 236 4 0.980
-11.2782 -13.4405 19.6540 4 236 4 0.980
-5.7789 1.8870 5.6674 105 215 20 0.760
3.5540 0.0337 5.4631 105 215 20 0.760
-8.5984 6.5682 11.8516 100 217 20 0.771
-10.5970 6.6467 14.2212 138 207 20 0.672
-16.1292 -11.6092 11.8869 38 209 38 0.848
1.2457 1.3752 4.6573 125 210 20 0.705
-12.7816 -12.6425 17.7710 4 236 4 0.980
0.0186 2.6858 2.8568 46 202 46 0.815
-10.0844 6.3823 12.1982 105 215 20 0.760
-11.0030 -13.4487 19.7035 4 236 4 0.980
-10.9001 -13.4631 19.7136 4 236 4 0.980
-10.4837 -13.5207 19.9338 7 233 7 0.969
-13.2806 -1.1187 16.1146 125 210 20 0.705
-8.5504 -0.6746 16.8756 133 208 20 0.683
-14.5725 -12.2671 15.7455 13 229 13 0.947
-14.4021 7.0308 14.4250 142 206 20 0.661
-3.2802 -3.6629 12.7932 129 209 20 0.694
0.6433 -2.6936 5.8694 142 206 20 0.661
-6.1324 3.3934 13.7641 142 206 20 0.661
-13.6460 -12.5973 17.1319 4 236 4 0.980
-12.3918 5.6644 14.0925 142 206 20 0.661
-7.0456 -6.3148 12.0350 129 209 20 0.694
-3.1309 -0.8910 0.9888 142 206 20 0.661
3.7252 -0.9143 7.6822 109 214 20 0.749
-16.1067 -11.5902 11.8676 38 209 38 0.848
-0.0022 2.4031 2.4365 48 200 48 0.804
-7.8299 5.6435 10.0935 133 208 20 0.683
0.9991 1.1237 4.0976 121 211 20 0.716
-0.5630 2.7092 2.7826 48 200 48 0.804
-6.1620 -15.1165 21.5861 16 227 16 0.936
8.6274 2.8677 13.6270 113 213 20 0.738
1.6332 3.0930 3.6553 133 208 20 0.683
-3.1003 2.7335 5.0617 29 216 29 0.881
-13.1643 2.7104 15.9714 125 210 20 0.705
-13.4123 -12.6019 17.5583 4 236 4 0.980
-10.8080 -13.6238 20.0961 4 236 4 0.980
-6.9258 -15.0848 21.5096 16 227 16 0.936
5.9301 -3.1892 11.8620 142 206 20 0.661
-0.6807 2.6643 2.8102 48 200 48 0.804
-11.9925 -13.8562 18.4959 4 236 4 0.980
-1.1135 -1.4934 4.3890 133 208 20 0.683
-7.4017 -3.4310 13.5405 129 209 20 0.694
8.6073 1.8481 8.1964 100 217 20 0.771
0.6498 4.4614 15.1116 138 207 20 0.672
8.2894 2.5021 17.6278 138 207 20 0.672
-1.3483 5.8316 12.3079 142 206 20 0.661
3.3307 0.0742 6.1153 113 213 20 0.738
-3.2901 3.0015 8.4016 92 219 20 0.793
-3.4056 2.6321 4.9987 35 211 35 0.859
9.9184 1.1298 10.5017 142 206 20 0.661
-5.8336 -15.1334 21.7251 24 220 24 0.903
-1.6333 -3.3132 10.9201 138 207 20 0.672
-13.5768 -12.6356 17.4772 4 236 4 0.980
-2.7930 -2.2648 6.9703 129 209 20 0.694
-15.8805 -11.2604 12.6758 24 220 24 0.903
0.2933 2.6129 2.6140 46 202 46 0.815
-3.3807 2.7650 4.7161 35 211 35 0.859
1.5071 -3.4634 12.9884 138 207 20 0.672
-11.5039 -13.3868 19.2064 4 236 4 0.980
1.3945 2.9076 3.4551 109 214 20 0.749
-8.5614 -14.6434 20.6312 46 202 46 0.815
7.8200 1.9565 10.2662 129 209 20 0.694
-9.8598 -12.5791 18.5069 133 208 20 0.683
-12.5716 1.4846 14.3300 142 206 20 0.661
-2.0742 3.0113 5.9565 48 200 48 0.804
-12.2679 -13.7776 18.3192 4 236 4 0.980
-4.2244 -2.7722 10.1313 138 207 20 0.672
0.5047 1.4559 7.1482 133 208 20 0.683
3.8582 -1.4519 10.9781 142 206 20 0.661
2.9156 -2.3374 6.1167 142 206 20 0.661
-12.6435 -5.7304 12.0320 142 206 20 0.661
3.3876 1.5529 3.7348 133 208 20 0.683
-2.6275 2.7071 4.9160 35 211 35 0.859
-2.7222 3.1574 7.3065 96 218 20 0.782
-10.6310 -13.5688 19.8915 4 236 4 0.980
-3.4054 2.6682 5.0667 29 216 29 0.881
8.2619 2.8732 16.0437 133 208 20 0.683
-6.3051 -1.1963 13.5075 138 207 20 0.672
-12.4797 -13.0883 17.8829 4 236 4 0.980
-5.0904 -1.5240 4.3862 133 208 20 0.683
4.5903 -1.4612 14.0745 142 206 20 0.661
-13.8914 -12.6929 17.5611 4 236 4 0.980
-5.7218 -6.4548 11.4152 138 207 20 0.672
-13.1157 -0.9469 15.4905 121 211 20 0.716
-4.3422 2.6575 5.3797 40 207 40 0.837
-3.0313 1.4634 8.1290 92 219 20 0.793
0.7671 3.3879 7.0391 138 207 20 0.672
-16.8808 0.4971 18.8240 142 206 20 0.661
1.1297 3.7027 4.4989 133 208 20 0.683
-16.0125 -10.7938 12.6374 29 216 29 0.881
-15.8108 -10.9736 13.2457 18 225 18 0.925
0.2532 2.1160 2.1950 48 200 48 0.804
-2.9426 1.5427 8.0531 92 219 20 0.793
-2.3775 0.2842 8.5863 117 212 20 0.727
-0.6833 2.5631 2.6606 48 200 48 0.804
-2.9246 2.8406 5.7640 26 218 26 0.892
-5.3171 2.5265 6.0745 100 217 20 0.771
-2.4389 2.7948 4.9308 35 211 35 0.859
-4.1116 0.0256 2.5961 138 207 20 0.672
-11.1596 -13.6873 19.9894 4 236 4 0.980
-3.1922 1.6963 2.8097 129 209 20 0.694
-2.8263 -2.0528 6.4574 129 209 20 0.694
-2.3711 0.2721 8.6291 117 212 20 0.727
-3.1805 -0.5934 7.7590 129 209 20 0.694
-10.4935 -6.0240 11.6167 142 206 20 0.661
-3.6603 3.1038 8.9333 117 212 20 0.727
-3.0949 1.2330 7.6306 105 215 20 0.760
-3.1740 2.9011 8.2976 92 219 20 0.793
-9.4425 2.0470 5.4989 133 208 20 0.683
-2.7090 2.7008 4.8826 35 211 35 0.859
8.1587 2.9170 14.5652 117 212 20 0.727
-3.6681 3.2262 9.0793 121 211 20 0.716
-3.3634 2.6564 4.6079 38 209 38 0.848
-3.0970 -1.9815 6.9523 125 210 20 0.705
-5.3821 1.3371 5.6131 109 214 20 0.749
8.4943 1.5448 7.4568 100 217 20 0.771
-5.4492 1.3596 5.8062 105 215 20 0.760
0.3758 -3.0653 9.1719 133 208 20 0.683
-6.2889 0.4342 6.5877 129 209 20 0.694
-3.5011 2.6115 5.0100 35 211 35 0.859
-1.7412 -3.3809 8.0610 133 208 20 0.683
-6.1917 -2.3749 4.5542 133 208 20 0.683
-2.2040 3.3046 8.0657 121 211 20 0.716
0.2133 2.5662 2.6003 46 202 46 0.815
-2.3889 2.9510 5.4451 35 211 35 0.859
8.6873 1.7096 7.9106 100 217 20 0.771
3.9821 -0.8318 9.1077 129 209 20 0.694
5.8812 -1.0497 10.9659 133 208 20 0.683
1.3292 1.3614 4.6806 125 210 20 0.705
-3.3142 2.6870 4.6049 38 209 38 0.848
-5.3603 1.3099 5.7808 105 215 20 0.760
-11.5408 -13.1915 19.3325 4 236 4 0.980
-13.9376 2.5505 11.9311 142 206 20 0.661
-11.2268 -13.7866 19.4255 4 236 4 0.980
-10.9927 -13.7371 19.3830 4 236 4 0.980
-2.8619 3.0669 6.1623 40 207 40 0.837
-8.9834 2.0727 5.2439 133 208 20 0.683
-10.4500 2.0118 7.9070 142 206 20 0.661
-5.4389 2.4440 5.4570 100 217 20 0.771
-12.9557 -12.8055 17.8370 4 236 4 0.980
-12.0300 -13.1903 18.7735 4 236 4 0.980
-0.4006 -1.5553 4.3739 133 208 20 0.683
-9.9735 -13.5817 19.3094 10 231 10 0.958
-5.4693 2.4846 5.1938 100 217 20 0.771
-5.4901 1.5913 3.3246 138 207 20 0.672
3.0767 -0.4467 4.2386 125 210 20 0.705
3.1707 -1.2304 4.3793 129 209 20 0.694
-6.0096 -15.2404 21.8368 24 220 24 0.903
-6.2183 -15.2703 21.7937 18 225 18 0.925
8.3558 1.7281 7.7453 100 217 20 0.771
8.6597 1.7614 8.2359 100 217 20 0.771
8.1793 2.7280 13.7554 109 214 20 0.749
2.7746 -0.0664 8.8116 138 207 20 0.672
8.4404 2.8573 13.8573 117 212 20 0.727
6.2460 -1.5111 10.9953 129 209 20 0.694
-6.1289 -15.1598 21.6519 18 225 18 0.925
1.9275 1.3137 3.3934 121 211 20 0.716
7.8877 2.5333 12.4696 117 212 20 0.727
6.1488 -1.3703 11.8388 133 208 20 0.683
3.3366 -0.1214 6.9743 109 214 20 0.749
2.5021 -3.4177 8.1429 138 207 20 0.672
-13.4370 -12.6110 17.6236 4 236 4 0.980
8.6688 1.9217 8.9392 100 217 20 0.771
-15.2639 -11.0614 12.7456 21 222 21 0.914
8.2536 3.0647 14.1579 121 211 20 0.716
1.0701 -2.1395 17.3884 142 206 20 0.661
8.5641 1.8631 8.8106 100 217 20 0.771
8.5236 1.6356 7.1028 113 213 20 0.738
8.3662 1.9098 12.3939 121 211 20 0.716
-14.4493 7.8456 14.7556 230 112 30 0.192
-13.2966 1.6148 10.4507 230 105 30 0.170
-14.4701 2.5206 11.0302 230 163 30 0.348
1.2863 4.2497 5.8558 230 112 30 0.193
2.6946 -2.8047 9.6286 230 160 30 0.339
-8.6549 8.3487 19.8993 230 162 30 0.347
-3.7059 3.0429 9.9378 230 118 30 0.210
-2.5250 -8.9188 16.4250 230 134 30 0.259
-6.9137 -2.2448 12.6403 230 148 30 0.304
-15.2571 1.8644 12.7541 230 155 30 0.324
-1.5806 -5.9490 16.1829 230 139 30 0.275
-11.5676 1.8578 7.1657 230 102 30 0.161
-2.9432 -8.1963 13.5106 230 145 30 0.293
-13.7782 -6.1695 13.6631 230 107 30 0.176
-16.4049 -5.0242 14.0803 230 129 30 0.244
-6.7529 3.7696 14.2342 230 142 30 0.283
-6.0538 3.8932 19.3715 230 129 30 0.245
-18.1491 -5.7791 14.8739 230 107 30 0.177
-2.9624 -8.2939 16.2560 230 140 30 0.279
-12.2187 -6.0527 14.6533 230 108 30 0.180
12.9633 -0.5951 9.9960 230 137 30 0.269
6.5166 5.6952 11.7440 230 128 30 0.241
-14.4900 2.0644 19.7412 230 108 30 0.179
-10.6256 4.9650 15.3705 230 149 30 0.307
-0.4869 -5.7534 11.7193 230 110 30 0.186
0.7025 -2.1742 18.3366 230 142 30 0.285
2.6818 -1.6358 12.3937 230 150 30 0.308
-8.1604 2.6532 19.1904 230 101 30 0.159
-3.3714 -6.7855 16.9867 230 143 30 0.288
-12.2593 5.2262 12.3805 230 145 30 0.295
-3.3326 -0.3926 1.5153 230 100 30 0.156
7.5480 -1.1619 8.2919 230 147 30 0.300
9.5793 -1.5730 12.4722 230 162 30 0.346
-7.8997 6.6890 20.0976 230 115 30 0.201
1.3476 -3.8165 7.1168 230 136 30 0.267
-12.7474 -5.1645 14.0714 230 142 30 0.283
-1.1183 -0.6972 15.7018 230 157 30 0.332
-11.6083 1.7552 9.5003 230 142 30 0.285
-14.9621 2.5270 20.9338 230 158 30 0.335
0.7276 -2.0176 19.1818 230 158 30 0.332
3.6441 -3.7085 13.4230 230 112 30 0.193
0.0262 -3.0289 15.9162 230 100 30 0.156
-14.5851 -5.0981 14.2381 230 128 30 0.243
3.3768 3.9316 7.6416 230 105 30 0.171
-0.8161 6.0211 10.7392 230 111 30 0.190
1.4585 -3.9592 5.9447 230 136 30 0.267
-7.8853 6.0242 14.3237 230 118 30 0.211
-10.7069 -6.9474 13.2411 230 152 30 0.316
-12.7458 1.1691 9.8112 230 142 30 0.284
-10.0369 7.2666 19.8423 230 106 30 0.174
4.1339 0.6512 10.2383 230 113 30 0.196
-13.9424 6.4663 11.5017 230 148 30 0.304
2.6782 -0.1203 14.4249 230 121 30 0.221
-5.6017 4.1931 14.5469 230 161 30 0.342
11.4759 -1.1988 9.6564 230 155 30 0.323
-10.7593 -6.9089 10.7949 230 100 30 0.155
8.8375 -2.5213 9.6707 230 161 30 0.343
-2.4843 -0.1205 -0.3603 230 126 30 0.235
9.9523 -2.1003 9.7109 230 112 30 0.192
-0.6685 6.0371 14.6741 230 154 30 0.322
-0.8340 6.4426 15.5544 230 153 30 0.318
-9.3784 8.0157 18.8451 230 144 30 0.290
7.0314 -2.8712 10.9663 230 113 30 0.196
-8.5076 1.9077 15.2706 230 136 30 0.267
-12.2609 1.6650 10.0042 230 142 30 0.286
-0.2285 -2.1736 17.9130 230 125 30 0.233
-11.6391 5.1553 14.9535 230 147 30 0.300
9.5916 -0.9603 12.1034 230 133 30 0.258
-12.1303 3.3973 13.8440 230 159 30 0.336
-6.0283 3.8148 10.4087 230 127 30 0.239
3.7271 -2.7013 12.4955 230 107 30 0.177
-14.4259 3.0768 11.0185 230 112 30 0.194
-14.8274 -6.4683 9.9084 230 133 30 0.257
0.8892 -6.8817 13.1827 230 105 30 0.170
