ply
format ascii 1.0
comment Created by Open3D
element vertex 453
property double x
property double y
property double z
property double nx
property double ny
property double nz
property uchar red
property uchar green
property uchar blue
end_header
-7.21515 -5.67172 11.4893 -0 -0 -1 34 43 48
-13.6996 -13.0337 16.6452 -0 -0 -1 19 18 3
-12.4328 -13.1135 18.5807 0.493077 0.739487 -0.458296 1 2 0
-3.14601 2.48459 7.91304 -0 -0 -1 150 154 150
-12.8348 -13.4999 17.6578 -0 -0 -1 0 1 2
-15.7929 -11.0923 12.498 -0.60773 -0.253017 -0.752759 0 2 1
-15.2063 -11.9236 14.0455 -0 -0 -1 7 5 8
-10.5352 -13.7956 20.1264 -0 -0 -1 23 10 0
-13.5299 -4.41577 14.4536 -0 -0 -1 54 64 74
-14.9552 -12.122 14.5909 -0.834306 0.178346 -0.521657 3 4 8
-14.9415 -12.2504 14.525 -0.834306 0.178346 -0.521657 7 9 3
1.79132 -0.710179 6.17282 -0 -0 -1 0 0 0
-12.0201 -13.8716 18.536 -0.482849 0.875697 0.00354571 67 70 5
-7.53738 -5.91316 12.2539 -0 -0 -1 35 44 51
-15.2294 0.217922 16.0544 -0 -0 -1 0 0 0
-0.741442 2.54246 2.83076 -0.916935 0.357925 -0.176409 172 174 171
0.197969 5.55842 9.78533 -0 -0 -1 200 202 199
-14.6663 -12.4608 15.0633 -0 -0 -1 6 8 0
-14.2998 -12.6427 15.7891 -0 -0 -1 3 4 2
-14.9562 -12.1223 14.5923 -0.834306 0.178346 -0.521657 3 4 8
-3.29062 2.97014 8.08823 -0 -0 -1 49 57 64
-8.33282 6.53382 11.654 -0 -0 -1 100 102 99
-14.4881 -12.5784 15.4088 -0 -0 -1 7 3 6
-2.20676 3.02182 6.07121 -0 -0 -1 0 0 0
-10.3797 -14.371 19.7627 -0 -0 -1 3 2 5
-14.4045 -12.0941 16.1143 0.729805 0.476474 -0.490262 6 8 0
-14.3823 -12.6642 15.5738 -0 -0 -1 7 10 0
-3.92731 -0.797418 2.45791 -0 -0 -1 15 22 30
8.65169 1.90902 8.89205 -0.382057 0.917915 -0.107075 210 212 209
-13.5846 -13.0564 16.84 -0 -0 -1 3 4 5
-13.3103 -12.513 17.4499 0.804584 -0.432856 0.406546 1 0 6
-13.7977 -12.3784 17.1072 -0 -0 -1 2 6 2
-3.42391 1.66298 7.87913 -0 -0 -1 53 61 72
-12.1407 -13.7346 18.4172 0.352837 0.597287 -0.720246 5 1 1
-2.81407 -1.08799 3.3982 -0 -0 -1 57 65 76
-8.9131 -14.8099 20.5413 -0 -0 -1 7 8 0
4.21603 6.6821 15.354 -0 -0 -1 176 178 175
-12.2513 -13.6977 18.1907 -0.221017 0.84071 0.494326 92 91 47
-5.54411 -3.81614 12.0771 -0 -0 -1 55 64 74
-6.6037 -15.0606 21.4327 0.354164 0.145879 -0.923735 58 57 0
-8.72575 -14.8531 20.6116 -0 -0 -1 7 6 1
3.44173 -0.195042 6.35925 -0 -0 -1 50 58 69
-15.0983 -12.0574 14.2603 -0 -0 -1 1 0 1
-13.2511 -0.598582 15.1531 -0 -0 -1 54 64 74
-3.30173 -2.56672 9.05868 -0 -0 -1 0 0 0
-6.34378 -15.162 21.5005 -0.186131 -0.762802 -0.619264 11 5 0
-12.4142 2.23958 10.1468 -0 -0 -1 158 162 161
-7.79642 -14.3423 20.1588 -0 -0 -1 0 7 9
-8.75287 -14.7657 20.642 0.401551 0.40978 -0.819047 11 5 2
-1.46036 -1.47046 4.47874 -0 -0 -1 57 66 75
-5.8798 -15.2012 21.8516 0.396095 -0.906872 -0.143849 8 9 1
-3.37464 1.44506 7.2736 -0 -0 -1 53 62 71
-14.4278 -11.9706 16.1996 0.729805 0.476474 -0.490262 5 1 2
-10.127 6.05222 11.4945 -0 -0 -1 152 154 151
-15.9641 -10.5055 11.8402 -0 -0 -1 189 195 123
-15.7861 -10.7235 12.6815 -0 -0 -1 9 6 0
-15.9426 -10.6221 11.9249 -0 -0 -1 6 9 0
5.00565 -3.87274 9.30568 -0 -0 -1 48 56 67
-15.6932 -11.0579 12.406 -0.60773 -0.253017 -0.752759 0 2 1
2.68013 -0.743805 4.70971 -0 -0 -1 51 59 70
-15.2074 -11.4502 14.5083 -0 -0 -1 6 3 0
-13.7878 -12.4523 17.0382 -0 -0 -1 6 8 1
-0.709932 2.56598 2.86062 -0.893784 0.438738 0.0930574 167 169 166
-5.98585 4.66388 10.7907 -0 -0 -1 66 68 65
1.01909 2.67916 7.11217 -0 -0 -1 45 54 61
-13.5812 -13.1233 16.7759 0.794372 0.441242 -0.417466 1 8 5
-13.4721 -12.4115 17.3558 -0 -0 -1 10 5 1
-13.4476 -13.0522 17.581 -0 -0 -1 0 1 2
-10.0942 -13.6749 19.4603 -0 -0 -1 0 0 3
-12.5034 -13.0878 18.5099 0.702245 0.479507 -0.526237 11 13 6
-12.8138 -12.8721 18.2724 -0 -0 -1 11 7 6
-12.2923 -13.1708 18.7157 0.854527 0.33002 0.401087 13 8 0
-9.69749 -13.822 20.9964 -0 -0 -1 0 0 0
-9.87178 2.17831 5.8238 -0 -0 -1 0 0 0
-11.8321 -13.9265 18.7489 -0 -0 -1 3 1 5
-8.24507 3.00745 16.6149 -0 -0 -1 54 63 72
-11.9495 -13.2992 19.0279 -0 -0 -1 3 5 0
-4.98618 -1.79106 1.00093 -0 -0 -1 5 2 4
-14.6056 -12.4075 15.2853 -0 -0 -1 4 3 2
-2.4978 3.61955 15.4389 -0 -0 -1 53 61 72
-5.16719 1.59782 3.20587 -0 -0 -1 152 154 151
0.456394 1.43825 7.32824 -0 -0 -1 16 23 31
-12.5975 -13.625 17.9047 -0 -0 -1 1 1 13
-13.375 -12.5425 17.5504 0.8267 -0.389807 0.40573 7 1 2
-11.417 -14.0289 19.0034 -0 -0 -1 0 0 4
-3.26283 2.65769 4.57086 -0.31722 0.427069 -0.846749 72 74 71
-9.97686 -14.5144 20.0221 -0 -0 -1 51 54 25
-11.2196 -14.1217 19.1424 -0 -0 -1 0 3 1
-7.65329 -15.0434 21.0966 -0 -0 -1 9 9 0
-4.20598 3.5175 7.13417 -0 -0 -1 71 73 70
-10.1849 -14.4126 19.8794 -0 -0 -1 1 1 6
-0.521607 -3.81851 7.30189 -0 -0 -1 59 69 79
-9.98052 6.30153 11.6024 -0 -0 -1 69 71 68
-9.27318 -14.6636 20.3968 -0 -0 -1 3 4 4
-7.10552 -15.0299 21.3873 -0 -0 -1 2 1 0
-1.80275 -3.53188 8.46969 -0 -0 -1 57 65 76
-14.264 -11.7629 15.7017 -0 -0 -1 13 13 0
0.0323757 -2.83499 9.95078 -0 -0 -1 57 66 75
-12.9941 -12.8215 18.0451 -0 -0 -1 114 122 17
-12.501 -12.9462 18.6422 0.702245 0.479507 -0.526237 2 3 5
4.17348 -0.872952 9.29371 -0 -0 -1 49 59 69
-12.2905 -13.7136 18.2002 -0.221017 0.84071 0.494326 159 164 91
-8.04527 6.34002 11.3421 -0 -0 -1 98 100 97
-13.8382 -12.939 16.4713 -0 -0 -1 1 3 0
-13.0574 -13.405 17.404 -0 -0 -1 11 7 6
-8.34156 5.31969 16.8322 -0 -0 -1 153 153 153
-15.5658 -11.0022 13.5619 -0 -0 -1 3 0 0
-10.718 -14.2482 19.5479 -0 -0 -1 5 0 9
-15.0777 -11.5087 14.8983 -0 -0 -1 0 2 0
-14.1031 -12.2441 16.6395 -0 -0 -1 2 4 0
-13.9343 -12.3462 16.8798 -0 -0 -1 1 3 11
2.8713 6.80503 10.9072 -0 -0 -1 193 195 192
-2.76578 6.28044 15.91 -0 -0 -1 52 61 67
-6.40485 -15.1347 21.6955 -0 -0 -1 5 3 4
-15.8866 -11.1823 12.6574 -0 -0 -1 0 2 1
-14.6336 -11.882 15.7756 -0 -0 -1 206 206 145
-15.4409 -11.7869 13.4164 -0 -0 -1 0 1 5
-1.29191 2.52937 6.87737 -0 -0 -1 154 156 153
-14.7528 -12.3538 14.9532 -0 -0 -1 28 28 0
-14.6523 5.39622 18.7022 -0 -0 -1 49 58 65
-7.38625 -15.0294 21.2337 -0 -0 -1 0 2 3
-15.5697 -11.1237 13.4184 -0 -0 -1 2 1 0
-15.1601 -11.4019 14.7361 -0 -0 -1 36 34 10
3.64798 -5.40638 11.8185 -0 -0 -1 18 22 31
1.98229 1.30302 3.36877 -0 -0 -1 0 0 0
-8.29463 5.2998 16.9485 -0 -0 -1 149 156 149
-8.08777 5.89571 17.0396 -0 -0 -1 14 15 19
2.41162 -3.47174 8.05895 -0 -0 -1 43 52 61
-6.61746 -15.0743 21.4552 0.354164 0.145879 -0.923735 58 57 0
-2.90187 1.67323 8.77256 -0 -0 -1 15 22 30
-15.837 -10.6592 12.4458 -0 -0 -1 34 35 0
3.85518 -5.58398 11.955 -0 -0 -1 18 22 31
-15.2686 2.26608 18.5546 -0 -0 -1 55 63 74
8.39457 2.67036 13.0921 -0 -0 -1 88 90 87
-14.2184 5.02293 17.7567 -0 -0 -1 132 138 136
3.3817 -0.434215 7.17932 -0 -0 -1 50 58 69
-10.2187 6.30788 13.5505 -0 -0 -1 69 71 68
-13.6475 -12.593 17.1348 -0 -0 -1 1 3 2
-15.5923 -11.6639 13.0376 -0 -0 -1 88 80 54
-14.3912 -12.6254 15.5922 -0 -0 -1 65 72 27
-13.7257 -12.2075 17.3959 -0 -0 -1 0 0 2
-7.71688 -14.9638 21.1307 -0 -0 -1 161 160 93
-0.895366 -3.75615 10.8113 -0 -0 -1 18 22 31
3.53103 -0.382316 6.91194 -0 -0 -1 50 58 69
-8.44171 6.37796 11.7095 -0 -0 -1 78 79 78
-7.44827 -15.2532 21.0335 -0 -0 -1 0 1 3
-12.3196 -13.1154 18.7283 0.0864495 0.983855 0.156706 102 114 49
-11.9865 -13.2252 19.054 -0 -0 -1 116 118 66
-2.58621 2.73503 5.10258 -0 -0 -1 153 155 152
-11.6162 -13.3678 19.3499 -0.744179 0.257572 -0.616323 56 62 29
-11.1399 0.753386 9.10729 -0 -0 -1 33 37 44
-4.61319 3.61805 7.40334 -0 -0 -1 0 0 0
-14.0064 -13.3544 18.6867 -0 -0 -1 2 4 13
-11.0731 -13.5446 19.7607 0.243446 -0.799633 -0.548927 88 90 6
-10.4603 -13.7698 20.2844 -0 -0 -1 130 128 86
-3.29818 1.49695 7.91416 -0 -0 -1 53 62 71
-8.965 6.36337 13.201 -0 -0 -1 71 73 70
-2.98385 5.58847 15.739 -0 -0 -1 145 150 146
-15.2656 -11.948 13.8301 -0 -0 -1 158 162 24
-13.2945 -12.6208 17.7656 -0 -0 -1 11 2 3
-15.8859 -11.0591 12.2472 -0 -0 -1 0 1 0
1.20982 4.2199 15.8467 -0 -0 -1 53 61 72
7.83484 2.44766 12.1786 -0 -0 -1 169 171 168
-15.6972 -10.8674 13.0979 -0 -0 -1 40 48 5
-11.8606 -13.8267 18.4131 -0.302136 0.942079 -0.145608 12 11 0
-15.278 -11.5646 14.0435 -0 -0 -1 1 1 3
-6.57112 -15.2235 21.4553 0.354164 0.145879 -0.923735 15 1 1
-15.431 -11.1758 13.978 -0 -0 -1 204 212 69
5.87248 -2.33661 8.76734 -0 -0 -1 60 73 82
-7.45268 -3.55229 14.0375 -0 -0 -1 55 65 75
-0.720621 -0.0841031 17.6035 -0 -0 -1 15 26 32
-14.4019 -12.0314 16.179 0.729805 0.476474 -0.490262 193 193 89
-13.1481 -12.7436 17.9123 -0.144796 -0.616377 -0.774024 118 123 82
-9.46626 -9.03569 15.8464 -0 -0 -1 56 66 75
3.20483 -1.9189 7.89326 -0 -0 -1 32 37 43
5.71193 -2.4939 9.78856 -0 -0 -1 36 45 52
-3.05709 3.34503 15.4255 -0 -0 -1 15 22 30
-13.7777 4.55969 17.0029 -0 -0 -1 14 19 25
-8.1574 5.81436 17.3209 -0 -0 -1 12 12 23
0.287325 0.725054 3.16038 -0 -0 -1 114 116 113
-6.67537 -15.0668 21.4945 -0.616008 -0.216357 -0.757445 4 3 4
3.4559 -0.125908 6.64963 -0 -0 -1 16 25 32
-2.67984 -2.3853 6.99107 -0 -0 -1 57 65 76
-14.6181 5.85637 19.7265 -0 -0 -1 152 154 151
-2.33615 3.15628 14.0342 -0 -0 -1 52 62 72
-9.12724 6.20209 15.4667 -0 -0 -1 99 101 98
-9.95644 -14.4919 19.9951 -0 -0 -1 51 54 25
-16.6071 -11.6968 11.1163 -0 -0 -1 3 1 2
-3.10194 0.97113 3.56946 -0 -0 -1 53 61 72
-10.6406 -13.9877 19.7587 -0 -0 -1 1 2 0
-8.68241 6.52702 11.961 -0 -0 -1 155 157 154
-8.12953 6.20835 19.2327 -0 -0 -1 144 149 143
-5.5063 -15.2183 21.7826 -0 -0 -1 14 22 0
8.7386 1.80687 8.37234 -0 -0 -1 213 215 212
1.04098 6.31476 10.809 -0 -0 -1 200 202 199
-9.13865 -1.14757 16.9221 -0 -0 -1 18 22 31
0.535163 2.31077 2.56022 -0 -0 -1 55 57 54
-14.1777 2.6863 17.3266 -0 -0 -1 18 22 31
-3.17096 5.01524 15.3456 -0 -0 -1 18 22 31
3.79453 6.42337 16.4879 -0 -0 -1 104 106 103
-2.93739 1.49198 3.47869 -0 -0 -1 149 151 150
2.68761 6.17869 9.64421 -0 -0 -1 194 196 193
1.72441 -2.8323 11.9402 -0 -0 -1 18 22 31
1.50067 -2.40398 9.33305 -0 -0 -1 60 72 84
-12.0624 -13.4307 18.574 -0 -0 -1 0 2 1
-13.4162 3.09614 17.2976 -0 -0 -1 53 61 72
-6.8922 -3.75479 13.2463 -0 -0 -1 0 0 0
-2.29748 5.96002 15.4842 -0 -0 -1 51 61 70
-3.0607 -3.75244 12.8018 -0 -0 -1 57 65 76
9.16638 -1.11529 10.4609 -0 -0 -1 116 118 115
-1.75107 -3.73638 12.881 -0 -0 -1 18 22 31
-7.95713 3.08736 16.6973 -0 -0 -1 16 25 34
-6.98867 4.31277 17.2356 -0 -0 -1 18 22 31
-13.9783 3.20344 15.4297 -0 -0 -1 18 22 31
-6.47328 -15.1322 21.5027 0.252479 -0.0608449 -0.965687 216 219 148
-15.5769 -6.26142 13.0495 -0 -0 -1 55 63 74
-0.489758 -2.01838 16.4749 -0 -0 -1 51 59 70
-5.10807 -5.28095 13.62 -0 -0 -1 57 65 76
-8.57838 -14.9708 20.8459 -0 -0 -1 8 9 1
-12.4174 -12.7093 17.6087 -0 -0 -1 1 0 1
3.45201 -0.129435 6.61298 -0 -0 -1 16 25 32
-13.0405 -12.6586 17.8244 -0.351627 -0.367565 -0.860961 13 1 2
-5.67487 -15.1765 21.7772 -0.237655 -0.968261 -0.0773956 3 5 0
-4.78646 3.59088 7.57171 -0 -0 -1 0 0 0
-2.28417 -3.29668 13.5821 -0 -0 -1 18 22 31
-13.416 -12.5609 17.6074 0.8267 -0.389807 0.40573 10 2 0
-13.1949 -12.6852 17.8746 0.0156742 -0.773007 -0.634203 131 134 11
-13.9899 6.45319 11.9698 -0 -0 -1 154 156 153
-3.04517 0.903572 3.52918 -0 -0 -1 53 61 72
-10.4645 6.17418 12.0482 -0 -0 -1 152 154 151
-13.5638 -4.61702 14.0376 -0 -0 -1 55 63 74
-5.85972 -15.1736 21.6904 0.834214 -0.55136 0.00938359 235 243 119
-8.93294 6.45621 13.6464 -0 -0 -1 67 69 66
-5.74919 -14.9955 21.8755 -0 -0 -1 2 0 0
-6.98388 -3.7713 13.5836 -0 -0 -1 57 65 76
0.162089 2.59179 2.65828 -0.321333 0.728692 -0.604776 105 107 104
-13.0643 -0.899096 15.2069 -0 -0 -1 55 64 74
-6.1054 -15.1795 21.7156 0.230921 -0.81454 -0.532166 0 6 0
-2.34453 -5.82513 13.0537 -0 -0 -1 18 22 31
-5.07075 -1.78891 5.04238 -0 -0 -1 55 63 74
-8.54208 -14.8508 20.7913 -0 -0 -1 149 161 46
-0.829451 0.198066 18.7988 -0 -0 -1 16 25 32
-13.6387 -12.774 17.0167 -0 -0 -1 0 0 1
-5.60811 2.79198 6.37381 -0 -0 -1 15 19 28
-15.7526 -11.1284 12.4777 -0.60773 -0.253017 -0.752759 0 0 1
-12.1575 -1.16045 14.5468 -0 -0 -1 18 22 31
-8.71249 6.01333 12.5596 -0 -0 -1 70 72 69
2.26657 -0.352354 4.81216 -0 -0 -1 51 59 70
-15.1144 3.10527 18.1532 -0 -0 -1 18 22 31
-12.9007 -1.36251 15.8326 -0 -0 -1 18 22 31
-14.3167 1.82311 16.4146 -0 -0 -1 55 63 74
-1.5612 -7.37038 15.4344 -0 -0 -1 43 52 61
-11.9286 -13.8214 18.5888 -0.356963 0.921344 -0.153955 10 1 0
-8.19979 5.81701 10.9157 -0 -0 -1 154 156 153
-10.9265 -13.5574 19.8753 0.277089 -0.849088 -0.449745 6 6 0
-13.8006 -12.7287 16.7893 -0 -0 -1 0 1 0
-11.8545 -13.2581 18.3577 -0 -0 -1 0 2 0
8.34731 6.60503 12.9821 -0 -0 -1 172 175 168
-7.41038 -0.688539 12.5491 -0 -0 -1 18 22 31
-15.0403 0.436426 16.0457 -0 -0 -1 55 63 74
-0.914138 7.06417 14.845 -0 -0 -1 173 175 172
-4.33656 2.63808 5.54234 -0 -0 -1 152 154 151
0.000125277 2.81193 3.29057 -0 -0 -1 166 168 165
-4.23899 -1.03053 5.73483 -0 -0 -1 18 22 31
2.38759 4.04804 7.83164 -0 -0 -1 0 0 0
-13.6733 -12.4516 17.2984 -0 -0 -1 7 3 6
-6.88391 -15.0768 21.4268 -0 -0 -1 3 1 1
-10.8295 -13.7586 20.2045 -0 -0 -1 0 2 0
-13.7743 2.5784 16.7429 -0 -0 -1 18 22 31
-3.4982 2.66215 5.12436 -0.270775 0.874466 -0.40248 68 70 67
-8.99453 6.54841 13.8413 -0 -0 -1 72 74 71
-6.49225 -15.1525 21.5334 -0.441461 -0.829682 0.341671 216 219 148
-0.722301 2.57741 2.88545 -0.893784 0.438738 0.0930574 172 174 171
-8.59814 -0.525153 16.9774 -0 -0 -1 14 23 30
-10.7287 -13.4251 19.6326 -0 -0 -1 56 57 27
-11.5863 -12.915 17.7878 -0 -0 -1 0 1 1
-2.68743 2.88339 5.27542 -0 -0 -1 68 70 67
8.69039 1.861 8.66706 -0 -0 -1 209 211 208
-5.35359 2.42729 6.11622 -0 -0 -1 54 61 68
-9.49814 6.42003 12.7099 -0 -0 -1 36 37 35
-15.265 2.70453 19.1031 -0 -0 -1 0 0 0
-12.1202 -13.8439 18.3365 0.352837 0.597287 -0.720246 10 13 0
-12.2516 -13.1204 18.5876 0.0864495 0.983855 0.156706 12 11 0
-11.2782 -13.4405 19.654 -0 -0 -1 0 0 4
-5.77894 1.88699 5.66739 -0 -0 -1 18 22 31
3.55398 0.0337125 5.46315 -0 -0 -1 16 25 30
-8.59837 6.56816 11.8516 -0 -0 -1 103 105 102
-10.597 6.64673 14.2212 -0 -0 -1 0 0 0
-16.1292 -11.6092 11.8869 -0 -0 -1 16 7 0
1.24571 1.37516 4.65725 -0 -0 -1 77 79 76
-12.7816 -12.6425 17.771 -0 -0 -1 123 131 57
0.0185878 2.68584 2.85682 -0 -0 -1 144 146 143
-10.0844 6.38231 12.1982 -0 -0 -1 71 73 70
-11.003 -13.4487 19.7035 0.0108963 -0.518226 -0.855174 0 2 0
-10.9001 -13.4631 19.7136 0.0765575 -0.867167 -0.492098 188 198 98
-10.4837 -13.5207 19.9338 -0 -0 -1 6 6 8
-13.2806 -1.11866 16.1146 -0 -0 -1 18 22 31
-8.55041 -0.674562 16.8756 -0 -0 -1 18 22 31
-14.5725 -12.2671 15.7455 -0 -0 -1 0 1 1
-14.4021 7.03077 14.425 -0 -0 -1 152 154 151
-3.28019 -3.66285 12.7932 -0 -0 -1 56 66 76
0.643261 -2.69357 5.8694 -0 -0 -1 60 70 76
-6.1324 3.39341 13.7641 -0 -0 -1 18 22 31
-13.646 -12.5973 17.1319 -0 -0 -1 1 3 2
-12.3918 5.66436 14.0925 -0 -0 -1 152 154 151
-7.0456 -6.31485 12.035 -0 -0 -1 27 40 52
-3.1309 -0.890989 0.988846 -0 -0 -1 0 0 0
3.72518 -0.914259 7.6822 -0 -0 -1 50 58 69
-16.1067 -11.5902 11.8676 -0 -0 -1 16 7 0
-0.00215132 2.40313 2.43651 -0 -0 -1 97 99 96
-7.82986 5.64349 10.0935 -0 -0 -1 101 103 100
0.999147 1.12372 4.09757 -0 -0 -1 0 0 0
-0.563024 2.7092 2.78259 -0 -0 -1 100 102 99
-6.16203 -15.1165 21.5861 -0.908836 -0.349654 0.227509 7 5 5
8.62744 2.86768 13.627 -0 -0 -1 87 89 86
1.63323 3.09304 3.65533 -0 -0 -1 99 101 98
-3.10028 2.73352 5.06168 -0 -0 -1 72 74 71
-13.1643 2.7104 15.9714 -0 -0 -1 52 62 72
-13.4123 -12.6019 17.5583 0.429163 -0.891553 -0.14475 1 1 6
-10.808 -13.6238 20.0961 -0 -0 -1 2 6 2
-6.9258 -15.0848 21.5096 -0 -0 -1 2 1 0
5.93012 -3.18924 11.862 -0 -0 -1 35 44 50
-0.680744 2.66433 2.81025 -0.740184 0.649022 -0.175777 147 149 146
-11.9925 -13.8562 18.4959 -0.356963 0.921344 -0.153955 130 136 10
-1.11347 -1.49336 4.38901 -0 -0 -1 18 22 31
-7.40171 -3.43101 13.5405 -0 -0 -1 0 0 0
8.60725 1.8481 8.19636 -0 -0 -1 136 138 135
0.649819 4.46139 15.1116 -0 -0 -1 141 143 141
8.28937 2.50215 17.6278 -0 -0 -1 0 0 0
-1.34827 5.83156 12.3079 -0 -0 -1 0 0 0
3.33069 0.0741811 6.1153 -0 -0 -1 45 55 64
-3.29012 3.00147 8.40157 -0 -0 -1 51 60 69
-3.40559 2.63207 4.99869 -0.270775 0.874466 -0.40248 73 75 72
9.91838 1.1298 10.5017 -0 -0 -1 117 119 116
-5.83356 -15.1334 21.7251 0.0257093 -0.958888 -0.282617 91 96 35
-1.63334 -3.3132 10.9201 -0 -0 -1 56 65 75
-13.5768 -12.6356 17.4772 -0 -0 -1 40 30 22
-2.79297 -2.26481 6.9703 -0 -0 -1 57 65 76
-15.8805 -11.2604 12.6758 -0 -0 -1 0 0 1
0.293268 2.61287 2.61398 -0.321333 0.728692 -0.604776 152 154 151
-3.38069 2.76497 4.71613 -0.418883 0.606745 -0.675572 151 153 150
1.50705 -3.46342 12.9884 -0 -0 -1 0 0 0
-11.5039 -13.3868 19.2064 -0 -0 -1 3 2 0
1.39455 2.90757 3.45514 -0 -0 -1 57 59 56
-8.56144 -14.6434 20.6312 -0 -0 -1 3 8 0
7.82002 1.9565 10.2662 -0 -0 -1 88 90 87
-9.85976 -12.5791 18.5069 -0 -0 -1 8 14 3
-12.5716 1.48464 14.33 -0 -0 -1 0 0 0
-2.07421 3.01134 5.95648 -0 -0 -1 0 0 0
-12.2679 -13.7776 18.3192 0.763412 0.538848 -0.356153 34 33 0
-4.22439 -2.77224 10.1313 -0 -0 -1 18 22 31
0.504745 1.45593 7.1482 -0 -0 -1 18 22 31
3.85819 -1.45189 10.9781 -0 -0 -1 50 58 69
2.91559 -2.33738 6.11675 -0 -0 -1 60 72 84
-12.6435 -5.73036 12.032 -0 -0 -1 0 0 0
3.38759 1.55293 3.73477 -0 -0 -1 97 102 100
-2.62745 2.70709 4.91601 -0.0164665 0.989365 -0.144518 157 159 156
-2.72221 3.15744 7.30655 -0 -0 -1 71 73 70
-10.631 -13.5688 19.8915 -0 -0 -1 5 2 3
-3.40538 2.66817 5.06668 -0.270775 0.874466 -0.40248 72 74 71
8.26192 2.87322 16.0437 -0 -0 -1 154 156 153
-6.30506 -1.19626 13.5075 -0 -0 -1 13 22 27
-12.4797 -13.0883 17.8829 -0 -0 -1 1 0 4
-5.0904 -1.52403 4.38622 -0 -0 -1 54 64 73
4.59028 -1.46119 14.0745 -0 -0 -1 14 23 30
-13.8914 -12.6929 17.5611 -0 -0 -1 0 0 12
-5.72182 -6.45477 11.4152 -0 -0 -1 58 66 77
-13.1157 -0.946886 15.4905 -0 -0 -1 0 0 0
-4.34218 2.65753 5.37972 -0 -0 -1 152 154 151
-3.03129 1.46339 8.12904 -0 -0 -1 18 22 31
0.767066 3.38791 7.03906 -0 -0 -1 96 98 95
-16.8808 0.497054 18.824 -0 -0 -1 0 0 0
1.12973 3.70265 4.49887 -0 -0 -1 168 170 167
-16.0125 -10.7938 12.6374 -0 -0 -1 33 35 0
-15.8108 -10.9736 13.2457 -0 -0 -1 69 79 12
0.253183 2.11598 2.195 -0 -0 -1 100 102 99
-2.94261 1.54273 8.05307 -0 -0 -1 18 22 31
-2.37748 0.28421 8.58627 -0 -0 -1 44 54 63
-0.683283 2.56308 2.66057 -0.882248 0.396768 -0.253404 168 170 167
-2.92459 2.84064 5.76397 -0 -0 -1 66 68 65
-5.31708 2.52654 6.07446 -0 -0 -1 155 157 152
-2.43888 2.79482 4.93081 -0 -0 -1 102 104 101
-4.11163 0.0255848 2.59607 -0 -0 -1 55 63 74
-11.1596 -13.6873 19.9894 -0 -0 -1 113 117 29
-3.19223 1.69633 2.80968 -0 -0 -1 70 72 69
-2.82632 -2.05285 6.45736 -0 -0 -1 57 65 76
-2.37113 0.272138 8.62908 -0 -0 -1 44 54 63
-3.18051 -0.593432 7.75901 -0 -0 -1 18 22 31
-10.4935 -6.02405 11.6167 -0 -0 -1 55 63 74
-3.6603 3.10376 8.93331 -0 -0 -1 155 159 159
-3.09492 1.23299 7.63056 -0 -0 -1 44 54 63
-3.17396 2.90106 8.29758 -0 -0 -1 147 148 150
-9.44246 2.04698 5.49892 -0 -0 -1 157 159 156
-2.70905 2.70085 4.88262 -0 -0 -1 69 71 68
8.15866 2.91699 14.5652 -0 -0 -1 88 90 87
-3.66812 3.2262 9.07928 -0 -0 -1 151 153 148
-3.36335 2.65637 4.60785 -0.287401 0.653097 -0.700618 150 152 149
-3.09695 -1.98147 6.95228 -0 -0 -1 16 23 31
-5.38211 1.33707 5.61307 -0 -0 -1 18 22 31
8.49426 1.54475 7.45677 -0 -0 -1 87 89 86
-5.44917 1.35963 5.8062 -0 -0 -1 18 22 31
0.375778 -3.06531 9.17192 -0 -0 -1 18 22 31
-6.28888 0.434227 6.58769 -0 -0 -1 55 63 74
-3.50115 2.61153 5.01002 -0.270775 0.874466 -0.40248 68 70 67
-1.7412 -3.38085 8.06102 -0 -0 -1 57 65 76
-6.19172 -2.37491 4.55423 -0 -0 -1 55 63 74
-2.20399 3.30461 8.06575 -0 -0 -1 147 149 146
0.213262 2.5662 2.60026 -0.321333 0.728692 -0.604776 156 158 155
-2.38888 2.95099 5.44509 -0 -0 -1 100 102 99
8.68725 1.70956 7.91064 -0 -0 -1 134 136 133
3.98206 -0.831766 9.10771 -0 -0 -1 50 58 69
5.88122 -1.04975 10.9659 -0 -0 -1 16 25 32
1.3292 1.36138 4.68065 -0 -0 -1 76 78 75
-3.31424 2.68698 4.60489 -0.287401 0.653097 -0.700618 155 157 154
-5.36032 1.30989 5.78084 0.503123 0.861034 0.0740828 18 22 30
-11.5408 -13.1915 19.3325 -0 -0 -1 7 2 1
-13.9376 2.55053 11.9311 -0 -0 -1 33 38 39
-11.2268 -13.7866 19.4255 -0 -0 -1 0 0 5
-10.9927 -13.7371 19.383 -0 -0 -1 0 2 0
-2.86192 3.06692 6.1623 -0 -0 -1 71 73 70
-8.98341 2.07266 5.24393 -0 -0 -1 87 89 86
-10.45 2.01175 7.90696 -0 -0 -1 8 13 19
-5.43886 2.44403 5.45705 -0 -0 -1 18 22 31
-12.9557 -12.8055 17.837 -0 -0 -1 3 3 0
-12.03 -13.1903 18.7735 -0 -0 -1 1 7 0
-0.400606 -1.5553 4.37392 -0 -0 -1 157 159 156
-9.97355 -13.5817 19.3094 -0 -0 -1 0 1 3
-5.46927 2.48459 5.19377 -0 -0 -1 0 0 0
-5.49013 1.59134 3.32458 -0 -0 -1 132 137 131
3.07671 -0.44668 4.23864 -0 -0 -1 32 36 45
3.17074 -1.2304 4.37927 -0 -0 -1 60 72 84
-6.0096 -15.2404 21.8368 0.29282 -0.740933 -0.604379 14 1 0
-6.21831 -15.2703 21.7937 -0 -0 -1 7 5 5
8.35578 1.72808 7.74525 -0 -0 -1 133 135 132
8.65974 1.76141 8.23588 0.804185 0.238852 -0.544275 213 215 212
8.17929 2.72797 13.7554 -0 -0 -1 84 86 83
2.77465 -0.0664442 8.81163 -0 -0 -1 16 25 30
8.4404 2.85735 13.8573 -0 -0 -1 86 88 85
6.24596 -1.51111 10.9953 -0 -0 -1 60 73 82
-6.12892 -15.1598 21.6519 -0.908836 -0.349654 0.227509 5 2 2
1.92745 1.31371 3.39336 -0 -0 -1 0 0 0
7.88775 2.53332 12.4696 -0 -0 -1 171 173 170
6.14882 -1.37034 11.8388 -0 -0 -1 59 72 81
3.33662 -0.121382 6.97431 -0 -0 -1 0 0 0
2.50215 -3.41765 8.14288 -0 -0 -1 43 52 61
-13.437 -12.611 17.6236 0.847209 -0.389161 0.36165 1 1 2
8.66883 1.92166 8.93919 -0.382057 0.917915 -0.107075 207 209 206
-15.2639 -11.0614 12.7456 -0 -0 -1 1 3 0
8.2536 3.06471 14.1579 -0 -0 -1 169 171 168
1.0701 -2.13948 17.3884 -0 -0 -1 50 58 69
8.56411 1.86307 8.81063 -0.249183 0.939782 -0.233916 210 212 209
8.52357 1.6356 7.10275 -0 -0 -1 0 0 0
8.36617 1.9098 12.3939 -0 -0 -1 46 57 63
