ply
format ascii 1.0
element vertex 265
property float x
property float y
property float z
property uchar red
property uchar green
property uchar blue
property float confidence
end_header
9.9673 -15.7812 38.8218 38 209 38 0.848
5.0012 -16.1719 39.8066 48 200 48 0.804
-2.7784 -14.6148 39.1480 4 236 4 0.980
2.4412 -16.1574 39.7478 92 219 20 0.793
-14.9404 -15.0761 28.8361 121 211 20 0.716
16.6708 12.2788 28.3671 142 206 20 0.661
8.3309 -16.0012 39.3855 35 211 35 0.859
-2.0422 -16.1779 38.7802 16 227 16 0.936
6.1316 -16.1797 39.8227 92 219 20 0.793
-11.7421 -14.9165 32.8935 43 205 43 0.826
-10.8099 -15.3505 33.7313 48 200 48 0.804
-3.1927 -14.3304 39.3368 4 236 4 0.980
-10.8158 -15.0587 33.8500 48 200 48 0.804
12.5700 -15.6732 38.1562 92 219 20 0.793
12.2867 -15.6529 38.3425 43 205 43 0.826
10.5660 -15.9620 38.5572 29 216 29 0.881
-6.2466 -15.0468 37.7770 24 220 24 0.903
-9.8242 -15.4946 34.6215 92 219 20 0.793
1.6297 -16.0946 39.6785 40 207 40 0.837
8.6065 8.8841 26.7193 133 208 20 0.683
8.8256 -16.6291 39.1886 40 207 40 0.837
-9.1820 -15.5312 35.1587 43 205 43 0.826
3.2102 0.6692 5.0892 133 208 20 0.683
-1.4634 -0.4537 0.3778 46 202 46 0.815
-14.9415 -12.9340 28.4094 117 212 20 0.727
-0.1145 -14.4602 40.0653 26 218 26 0.892
-2.0633 8.9712 21.8576 129 209 20 0.694
-8.8311 -15.6123 35.4119 48 200 48 0.804
-16.3522 -15.5509 27.5513 138 207 20 0.672
2.2685 3.8092 7.7314 138 207 20 0.672
12.2782 -15.2917 38.6268 43 205 43 0.826
-4.1524 -14.4731 38.8491 13 229 13 0.947
-2.2299 -0.5747 0.4814 48 200 48 0.804
0.3980 0.1988 2.2922 129 209 20 0.694
-6.2044 -15.6561 37.2141 35 211 35 0.859
6.6459 -16.0592 39.4759 46 202 46 0.815
-8.5758 -14.1895 36.3214 38 209 38 0.848
-2.0373 -15.9626 38.9446 7 233 7 0.969
5.7824 -16.3361 39.7738 92 219 20 0.793
-2.2651 -0.6776 0.6487 48 200 48 0.804
6.1795 -16.3458 39.7395 48 200 48 0.804
-8.5067 -15.4495 35.7445 40 207 40 0.837
-14.8348 -13.1479 28.6387 113 213 20 0.738
-14.0672 -13.1036 30.2186 46 202 46 0.815
-10.2743 7.6710 30.2104 142 206 20 0.661
-11.5132 -13.7571 33.7107 48 200 48 0.804
-12.5211 -13.6524 33.1126 38 209 38 0.848
-8.5804 -13.9108 36.4755 43 205 43 0.826
-4.0183 -16.0080 38.1709 26 218 26 0.892
-6.5694 -14.3608 37.6359 29 216 29 0.881
-1.9308 -14.4542 39.6484 7 233 7 0.969
-2.5879 -14.6614 39.3168 4 236 4 0.980
-1.2772 -14.6734 39.6215 4 236 4 0.980
17.8906 9.5567 44.2114 142 206 20 0.661
11.3198 0.0085 16.4937 142 206 20 0.661
-9.5435 -15.2596 34.9772 43 205 43 0.826
-11.2637 -13.5632 34.1129 48 200 48 0.804
-6.2371 -15.8270 37.1185 38 209 38 0.848
14.5876 3.8496 28.7282 142 206 20 0.661
9.5988 -15.8766 39.2424 46 202 46 0.815
-3.3364 -16.0772 38.4062 16 227 16 0.936
-0.1470 -16.0947 39.3774 24 220 24 0.903
0.3519 -16.1664 39.4462 32 214 32 0.870
2.9000 -16.1457 39.7883 109 214 20 0.749
-7.0135 -15.6446 36.7205 43 205 43 0.826
-2.1883 -0.5760 0.6642 48 200 48 0.804
15.2112 -7.2819 22.7162 142 206 20 0.661
1.6971 7.2140 28.4901 133 208 20 0.683
10.0016 -15.8886 39.3112 40 207 40 0.837
17.7792 3.7421 24.5107 142 206 20 0.661
-11.3469 -15.0815 33.2713 40 207 40 0.837
-4.6668 -15.9855 37.8804 29 216 29 0.881
-10.9540 -13.6827 34.3857 38 209 38 0.848
-7.5419 -14.1873 37.0916 29 216 29 0.881
-7.0059 -14.2200 37.4217 26 218 26 0.892
-2.5325 -16.3086 39.3218 10 231 10 0.958
-7.0050 -14.2656 37.4500 26 218 26 0.892
-2.6973 -14.2972 39.4441 7 233 7 0.969
-2.6009 -14.7273 39.3937 4 236 4 0.980
-12.6698 -14.9235 31.7580 40 207 40 0.837
10.3279 -5.5987 18.2808 138 207 20 0.672
9.0183 -16.0420 39.3390 38 209 38 0.848
4.4538 3.0384 10.7843 142 206 20 0.661
-13.0767 -13.6061 31.7112 38 209 38 0.848
6.1391 6.3000 12.1196 142 206 20 0.661
-6.5881 -15.7288 36.9520 43 205 43 0.826
12.5019 -15.5915 37.9573 92 219 20 0.793
5.6654 -16.0393 39.0966 92 219 20 0.793
-14.2072 -12.9278 29.6352 100 217 20 0.771
-0.3307 1.6050 4.5486 129 209 20 0.694
-14.7558 -13.5169 30.7009 48 200 48 0.804
-9.2770 -13.8836 35.7084 43 205 43 0.826
-0.4186 1.6739 4.8868 129 209 20 0.694
6.8393 8.2070 27.8863 133 208 20 0.683
-13.8739 -13.5656 31.7838 46 202 46 0.815
-2.2127 -14.5057 39.3800 4 236 4 0.980
17.9561 11.0863 34.4169 138 207 20 0.672
8.2973 6.6143 13.8736 142 206 20 0.661
6.7022 -16.1414 39.6833 43 205 43 0.826
-13.2386 -14.8263 31.0367 92 219 20 0.793
0.9768 -14.4970 39.8831 40 207 40 0.837
-10.0962 -15.3289 34.4420 46 202 46 0.815
1.3986 8.4334 17.9477 129 209 20 0.694
-8.8431 -15.5256 35.4459 46 202 46 0.815
8.7882 6.2140 17.2046 142 206 20 0.661
0.7435 8.8782 20.1918 117 212 20 0.727
-2.2494 -14.4602 39.2003 4 236 4 0.980
17.2125 -8.6467 24.7218 142 206 20 0.661
-12.0123 -15.0707 32.5265 43 205 43 0.826
10.3203 -15.7078 38.4398 29 216 29 0.881
-1.6449 -16.0402 38.7487 16 227 16 0.936
-14.4328 -13.9013 29.4034 96 218 20 0.782
-11.9794 -14.2220 32.9181 38 209 38 0.848
-1.8493 -15.3066 39.2724 4 236 4 0.980
-1.8953 -15.4441 39.5768 4 236 4 0.980
-2.1997 -14.6743 39.4268 4 236 4 0.980
6.7515 8.3250 28.8184 138 207 20 0.672
17.5587 10.4840 34.4547 138 207 20 0.672
-2.1767 -0.7147 0.6323 48 200 48 0.804
3.4348 -16.2296 39.8564 109 214 20 0.749
3.3956 -16.0976 39.5682 109 214 20 0.749
1.8694 -15.4614 39.9837 38 209 38 0.848
14.2260 8.8768 29.4824 138 207 20 0.672
17.9474 10.5221 30.7415 142 206 20 0.661
-4.2656 8.4616 22.2681 142 206 20 0.661
15.7907 10.0454 21.3527 129 209 20 0.694
16.0599 10.3156 21.9508 129 209 20 0.694
12.9214 -2.8112 23.8537 138 207 20 0.672
0.7178 7.7118 28.3155 133 208 20 0.683
-1.1429 8.9570 20.9810 117 212 20 0.727
6.8185 9.2739 22.2992 138 207 20 0.672
-0.9877 8.8181 25.6283 142 206 20 0.661
-7.5300 6.6811 25.5843 142 206 20 0.661
-2.4159 -0.6436 0.3249 48 200 48 0.804
9.8248 9.6275 26.1745 138 207 20 0.672
6.9673 -15.9856 39.7278 40 207 40 0.837
5.0711 -1.0309 21.7627 142 206 20 0.661
1.5690 2.0352 5.6284 121 211 20 0.716
12.2294 5.4689 32.2983 142 206 20 0.661
10.1053 10.8639 33.6146 142 206 20 0.661
12.5262 -9.1966 28.2436 142 206 20 0.661
10.8292 -15.8034 38.2567 32 214 32 0.870
-5.7857 -14.2426 38.3475 18 225 18 0.925
-4.9897 -14.2426 38.5232 26 218 26 0.892
2.8053 2.4941 6.3838 129 209 20 0.694
-0.1145 -14.7764 39.9458 21 222 21 0.914
-2.7788 -14.6176 39.1697 4 236 4 0.980
17.9158 -1.1121 40.0782 138 207 20 0.672
21.8508 13.4193 40.3925 142 206 20 0.661
7.3137 -16.3244 39.6104 43 205 43 0.826
-5.3331 -14.2225 38.1692 18 225 18 0.925
-3.6051 -14.3858 39.0085 4 236 4 0.980
-12.3702 -13.4200 32.7754 35 211 35 0.859
-12.9859 -13.2946 31.9548 43 205 43 0.826
-4.6985 -14.2809 38.6645 18 225 18 0.925
23.8661 14.4789 44.6884 142 206 20 0.661
-13.1714 -13.9140 31.1724 38 209 38 0.848
8.1566 7.3287 22.4099 129 209 20 0.694
10.5007 -15.9680 39.1303 29 216 29 0.881
12.0019 -15.8290 38.6831 38 209 38 0.848
-8.5777 -13.8967 36.4671 46 202 46 0.815
-6.7115 -15.0115 37.1428 32 214 32 0.870
-13.8284 -13.4459 31.6682 43 205 43 0.826
6.6927 -16.3989 40.3106 46 202 46 0.815
0.4821 -15.2193 39.5807 32 214 32 0.870
11.0176 -15.7015 38.9575 32 214 32 0.870
0.1267 8.9952 20.5675 121 211 20 0.716
14.2526 8.6360 31.0743 138 207 20 0.672
20.5129 12.0547 34.5936 142 206 20 0.661
4.5337 -16.0175 44.7774 142 206 20 0.661
20.3001 13.8799 29.0563 142 206 20 0.661
-6.5422 -14.1860 37.6832 29 216 29 0.881
-3.9931 0.3336 11.5454 142 206 20 0.661
-10.2294 11.5530 34.4701 142 206 20 0.661
-0.6346 0.3935 2.1281 121 211 20 0.716
-9.3286 -13.9823 35.7729 40 207 40 0.837
-14.4139 12.0576 34.3301 142 206 20 0.661
10.3701 -15.6818 38.7248 29 216 29 0.881
-1.3424 -14.4328 39.4586 4 236 4 0.980
-1.6648 -16.1088 39.0220 13 229 13 0.947
-0.3896 -14.4802 39.6235 16 227 16 0.936
-0.3666 -14.6108 39.9757 21 222 21 0.914
7.7898 10.7908 22.7753 133 208 20 0.683
18.6194 -10.5615 38.4565 142 206 20 0.661
0.6237 8.9507 19.0837 121 211 20 0.716
13.6935 1.2976 17.9608 142 206 20 0.661
14.9462 -4.3834 20.4215 142 206 20 0.661
-12.4999 -13.6299 33.0508 35 211 35 0.859
8.4908 -16.2476 39.5041 38 209 38 0.848
8.6517 10.5654 21.1474 138 207 20 0.672
-8.5230 -14.0348 36.3563 40 207 40 0.837
-6.2298 -15.0060 37.5693 24 220 24 0.903
-4.6485 -14.9258 40.1663 32 214 32 0.870
2.5476 -14.4642 39.9693 48 200 48 0.804
-2.2617 8.7920 19.5949 133 208 20 0.683
-2.3786 9.1601 20.4320 129 209 20 0.694
2.5882 -14.6394 40.4082 92 219 20 0.793
0.5619 8.5086 27.9709 133 208 20 0.683
8.0296 11.4856 26.6942 142 206 20 0.661
-14.6470 -14.6066 30.9731 92 219 20 0.793
-0.1486 -4.5993 9.9519 142 206 20 0.661
12.0136 -15.5578 38.3644 40 207 40 0.837
12.3197 -15.6864 38.4508 43 205 43 0.826
14.3458 10.0253 20.7610 133 208 20 0.683
11.4486 -15.8267 38.7624 35 211 35 0.859
17.0845 9.5083 23.0092 133 208 20 0.683
-3.1698 -14.5644 39.1360 4 236 4 0.980
2.8401 -6.8949 15.8780 142 206 20 0.661
0.5189 -14.5106 40.2015 38 209 38 0.848
-2.1949 -0.5728 0.7013 48 200 48 0.804
-2.1671 -0.5517 0.5773 48 200 48 0.804
-3.9047 -14.9311 38.8891 4 236 4 0.980
-2.2466 -0.5839 0.6509 48 200 48 0.804
-4.8041 -14.5765 38.5157 16 227 16 0.936
-2.5697 -0.7622 0.2396 48 200 48 0.804
1.3385 -14.4199 39.8932 43 205 43 0.826
8.3751 7.4334 22.0233 129 209 20 0.694
-2.1963 -0.5601 0.5358 48 200 48 0.804
-2.1543 -0.5601 0.7478 48 200 48 0.804
-4.9922 -14.2570 38.5222 26 218 26 0.892
-7.0779 8.4027 18.4339 142 206 20 0.661
-2.0459 -0.5015 0.9175 46 202 46 0.815
11.7218 -15.6014 38.3512 38 209 38 0.848
26.2465 1.6610 45.9370 142 206 20 0.661
-1.9208 -14.4191 39.5874 7 233 7 0.969
14.1105 -3.8730 22.7836 138 207 20 0.672
-5.4223 -14.4394 38.5393 18 225 18 0.925
0.7519 1.7847 3.0968 125 210 20 0.705
-13.5572 -13.1842 31.1477 43 205 43 0.826
-12.6273 -13.6871 33.3639 40 207 40 0.837
20.6295 2.6223 36.3062 142 206 20 0.661
7.2470 -15.8461 39.2727 43 205 43 0.826
2.1225 2.0568 5.1218 129 209 20 0.694
14.7169 11.4683 38.0437 142 206 20 0.661
-5.4156 -14.4052 38.3009 16 227 16 0.936
-8.5825 -14.0313 36.5129 40 207 40 0.837
-5.4671 -16.2288 41.0826 138 207 20 0.672
1.1723 -14.6819 40.3643 40 207 40 0.837
-3.8580 -15.0634 38.3220 4 236 4 0.980
-4.2262 7.0923 15.5857 142 206 20 0.661
8.8654 -4.8305 18.4440 138 207 20 0.672
18.0391 -2.3856 38.9981 133 208 20 0.683
6.9629 -16.0431 39.7608 40 207 40 0.837
0.5712 8.7166 18.6814 121 211 20 0.716
-1.1223 -16.0556 39.1959 13 229 13 0.947
-11.2343 -13.4542 34.0571 48 200 48 0.804
-14.0054 -12.7709 29.4209 113 213 20 0.738
6.7645 -15.2085 39.3520 46 202 46 0.815
0.8227 9.4024 23.1226 138 207 20 0.672
19.6918 -3.6108 38.8897 138 207 20 0.672
-4.5640 -14.4279 38.8187 16 227 16 0.936
-3.9311 -2.1893 28.5486 142 206 20 0.661
1.0630 8.3185 18.2279 125 210 20 0.705
-1.1239 -16.2945 39.0443 21 222 21 0.914
-7.5488 -14.1532 37.0931 26 218 26 0.892
-0.2754 8.7729 22.1248 121 211 20 0.716
7.4873 7.0268 22.1006 129 209 20 0.694
9.1579 7.7944 23.2567 129 209 20 0.694
-3.9182 -15.1936 46.7664 142 206 20 0.661
6.5469 1.8945 12.6496 142 206 20 0.661
0.5099 -14.5382 40.4354 38 209 38 0.848
10.8622 -15.9726 39.0723 29 216 29 0.881
4.7870 1.1523 7.1114 142 206 20 0.661
12.1333 -8.2681 25.8980 142 206 20 0.661
-1.1458 -0.0155 1.0438 43 205 43 0.826
