ply
format ascii 1.0
element vertex 1188
property float x
property float y
property float z
property uchar red
property uchar green
property uchar blue
property float confidence
end_header
-0.6102 5.6802 9.5425 46 202 46 0.815
-6.3813 7.6034 11.9407 133 208 20 0.683
-1.3037 -18.7007 20.5219 105 215 20 0.760
2.0847 -0.4110 2.1693 4 236 4 0.980
-6.7605 -15.1175 17.3494 10 231 10 0.958
-1.3401 1.7768 11.9780 100 217 20 0.771
1.0019 -1.0327 8.3540 26 218 26 0.892
-4.4813 -2.9039 11.1283 40 207 40 0.837
0.0927 3.8629 2.5056 117 212 20 0.727
-2.8633 2.5023 12.8830 96 218 20 0.782
-1.7195 7.2918 13.3172 129 209 20 0.694
-1.0688 -16.6273 18.3529 24 220 24 0.903
-11.8006 9.2118 13.4255 138 207 20 0.672
1.4956 1.5102 9.6677 35 211 35 0.859
2.9897 -0.7301 3.0482 4 236 4 0.980
3.0581 1.3423 3.0107 4 236 4 0.980
-1.4697 3.2788 12.3599 105 215 20 0.760
-2.7399 -16.4288 18.1157 21 222 21 0.914
-10.4942 6.9293 14.0441 117 212 20 0.727
1.6177 -0.1440 9.5658 4 236 4 0.980
-1.2580 -16.5833 18.2844 21 222 21 0.914
-12.7073 -12.2443 10.9772 32 214 32 0.870
-2.2675 -16.7789 18.4176 13 229 13 0.947
6.2688 6.4360 4.4004 138 207 20 0.672
-0.3922 6.1500 6.4961 100 217 20 0.771
1.1623 -2.6310 9.9916 109 214 20 0.749
-3.4285 1.6362 7.8958 96 218 20 0.782
-2.3094 -16.4157 18.0384 10 231 10 0.958
-6.3197 -15.0196 16.7863 10 231 10 0.958
-3.7552 -2.1720 10.5508 46 202 46 0.815
-10.8246 1.9320 7.9483 117 212 20 0.727
-10.2182 -12.0297 13.2044 4 236 4 0.980
-11.7116 -12.5447 12.3513 4 236 4 0.980
-11.0653 8.0704 16.5197 121 211 20 0.716
-10.0959 -13.4716 14.7196 4 236 4 0.980
-7.9057 2.6121 6.0501 109 214 20 0.749
-9.6083 -13.1649 14.7442 4 236 4 0.980
15.1708 8.6343 17.8586 142 206 20 0.661
4.4612 2.5962 9.9400 32 214 32 0.870
-4.9897 2.2076 12.5261 113 213 20 0.738
-11.4212 -12.8904 12.7102 4 236 4 0.980
-10.3140 -11.7968 11.5485 16 227 16 0.936
6.4845 -4.9030 7.8850 129 209 20 0.694
7.8728 -3.1312 9.8830 129 209 20 0.694
-9.9144 -13.7489 14.3255 4 236 4 0.980
5.8615 4.4833 4.1546 142 206 20 0.661
-0.9462 -1.4022 7.7222 16 227 16 0.936
5.5934 6.2891 8.7588 125 210 20 0.705
-11.0596 -13.0694 13.7191 4 236 4 0.980
-5.5835 6.7147 12.0089 125 210 20 0.705
-3.8200 3.6684 4.9891 121 211 20 0.716
-11.4499 -12.7813 12.7646 4 236 4 0.980
-2.1865 4.1535 5.7015 121 211 20 0.716
-8.9324 7.4334 14.8421 92 219 20 0.793
-10.0438 -12.5388 12.5963 4 236 4 0.980
-10.1063 -4.9077 10.9239 113 213 20 0.738
-2.6067 -6.7188 11.0137 133 208 20 0.683
-10.9059 -12.7408 13.9570 4 236 4 0.980
-11.1244 1.6781 8.4233 121 211 20 0.716
-0.8526 -2.4679 7.9260 26 218 26 0.892
0.5863 7.1028 11.7743 100 217 20 0.771
-1.5534 -18.8069 20.7073 105 215 20 0.760
-4.9281 -17.4909 18.9468 48 200 48 0.804
-4.4105 -4.3978 11.5408 43 205 43 0.826
-8.4401 -14.7468 15.7584 4 236 4 0.980
-7.6539 -1.2940 13.0409 125 210 20 0.705
-10.1915 -12.1754 12.0812 4 236 4 0.980
1.9028 0.7692 2.0521 4 236 4 0.980
-10.7087 -13.3068 13.5938 4 236 4 0.980
1.2391 -5.5650 8.8367 133 208 20 0.683
-11.1300 -13.1366 13.1176 4 236 4 0.980
-10.1980 -13.2113 14.5569 4 236 4 0.980
-10.4874 -11.0204 10.4992 26 218 26 0.892
-6.1238 -9.8796 13.4535 142 206 20 0.661
-4.2478 1.7264 12.4992 109 214 20 0.749
-10.9402 -13.2761 13.3800 4 236 4 0.980
3.4623 0.4453 9.0693 46 202 46 0.815
-0.6253 -2.1304 7.2781 21 222 21 0.914
-1.1341 6.1359 7.4177 46 202 46 0.815
-2.9781 -1.3239 7.2328 10 231 10 0.958
-10.8276 -13.3732 13.5068 4 236 4 0.980
14.5687 7.6397 8.4710 138 207 20 0.672
-5.2446 -17.1099 18.5067 48 200 48 0.804
5.0851 -5.9944 13.6836 142 206 20 0.661
-3.1574 -5.1293 10.2046 105 215 20 0.760
-10.1024 -12.3936 12.4255 4 236 4 0.980
4.1709 2.3771 9.9956 24 220 24 0.903
2.3601 -0.1214 2.6005 4 236 4 0.980
-5.0481 -17.2264 18.6287 48 200 48 0.804
-3.2589 -3.3771 12.8118 129 209 20 0.694
-1.9453 -16.8770 18.4324 13 229 13 0.947
-8.3724 -14.7702 15.5957 4 236 4 0.980
-8.8554 -14.0582 15.8429 4 236 4 0.980
2.1972 -1.3765 9.2939 21 222 21 0.914
-9.4579 -13.0047 14.6156 4 236 4 0.980
-3.8520 2.9783 12.1970 109 214 20 0.749
-2.5934 -1.5367 7.2604 13 229 13 0.947
-0.8049 -1.4167 4.9553 138 207 20 0.672
-1.5592 -18.8458 20.7546 105 215 20 0.760
8.3903 -0.7171 11.4899 125 210 20 0.705
5.7544 8.0827 9.8030 113 213 20 0.738
-5.3466 -0.1589 6.7182 92 219 20 0.793
1.6381 0.0474 10.5630 32 214 32 0.870
-1.0275 -1.3530 7.4662 16 227 16 0.936
-2.9660 -5.1253 11.8732 125 210 20 0.705
-0.9142 6.0231 8.2311 38 209 38 0.848
8.8009 -3.5537 11.4107 138 207 20 0.672
-0.6103 -2.7973 10.3925 96 218 20 0.782
-0.1637 6.3426 7.0182 92 219 20 0.793
2.1595 0.5851 2.6089 4 236 4 0.980
14.4778 7.2494 9.6040 138 207 20 0.672
-1.9569 3.2043 2.0910 109 214 20 0.749
-9.4138 -13.8314 15.3760 4 236 4 0.980
-15.8964 0.5180 14.5072 142 206 20 0.661
-12.7419 -11.2551 10.8876 40 207 40 0.837
-9.3753 -14.2011 14.8224 4 236 4 0.980
-5.4367 -3.3171 5.8208 18 225 18 0.925
-9.4630 -6.0187 11.4662 125 210 20 0.705
4.1559 5.5712 5.5492 129 209 20 0.694
7.0885 -3.2226 8.6535 125 210 20 0.705
1.6316 0.3576 10.1433 26 218 26 0.892
-0.7361 -0.3819 8.0864 26 218 26 0.892
-1.4148 3.2683 12.2911 105 215 20 0.760
-12.7047 -11.3655 10.9532 38 209 38 0.848
-12.4966 -11.4678 11.4552 24 220 24 0.903
-4.0112 3.0838 13.1858 105 215 20 0.760
-9.0376 -12.8916 14.4094 4 236 4 0.980
-4.2012 -1.6037 6.6225 7 233 7 0.969
-11.7591 -12.1578 12.7053 4 236 4 0.980
-6.3203 -15.7626 17.1004 18 225 18 0.925
-1.3440 1.1669 8.3598 43 205 43 0.826
-7.9885 -4.5637 15.3147 142 206 20 0.661
-10.8709 -12.8433 13.8825 4 236 4 0.980
-6.8233 0.6098 6.1163 125 210 20 0.705
-10.9913 1.7543 6.7344 117 212 20 0.727
-3.4659 -3.3362 10.6984 46 202 46 0.815
-3.2161 -5.3322 12.2292 129 209 20 0.694
-10.9159 1.8203 7.0302 117 212 20 0.727
1.3596 -1.2326 10.1987 21 222 21 0.914
-1.0480 -16.3230 17.8059 24 220 24 0.903
1.7440 -1.6267 10.2746 40 207 40 0.837
-8.6457 -14.1975 16.0493 4 236 4 0.980
-8.7855 -14.1021 15.9118 4 236 4 0.980
-1.1050 -16.9457 18.7768 26 218 26 0.892
0.2267 -2.7869 10.6255 105 215 20 0.760
-16.3426 7.3123 14.2824 142 206 20 0.661
-0.6926 3.7251 3.4594 100 217 20 0.771
-1.2425 -4.9638 9.6217 117 212 20 0.727
-8.3006 -14.4146 16.3657 4 236 4 0.980
-3.0703 3.3656 3.9590 109 214 20 0.749
6.7120 5.6033 10.7951 129 209 20 0.694
7.5383 -0.0490 10.1527 125 210 20 0.705
5.7097 2.2707 8.4748 121 211 20 0.716
-3.9991 -2.3152 11.6371 46 202 46 0.815
-13.0571 -12.2113 10.4040 92 219 20 0.793
-3.1340 -16.6197 17.8065 35 211 35 0.859
-3.9085 -17.6940 19.3642 46 202 46 0.815
-5.0779 -17.3593 19.0012 48 200 48 0.804
-11.6056 -4.5277 11.4713 129 209 20 0.694
-3.1470 4.4712 13.0565 133 208 20 0.683
3.6655 5.4535 10.7673 109 214 20 0.749
4.1115 0.4628 2.0261 92 219 20 0.793
-5.3732 6.4908 8.3950 100 217 20 0.771
-10.1588 -2.4133 9.8378 138 207 20 0.672
0.3010 7.0893 12.5372 109 214 20 0.749
-5.6922 0.4332 12.6747 129 209 20 0.694
-11.0732 -13.1070 13.2891 4 236 4 0.980
3.6779 -0.8245 3.5187 4 236 4 0.980
-7.2651 -14.9456 16.6361 4 236 4 0.980
-6.3604 -14.9459 16.7048 10 231 10 0.958
-6.9558 -0.4305 13.3315 117 212 20 0.727
-7.4507 -15.2900 16.4091 4 236 4 0.980
-6.6973 -3.0468 5.1583 35 211 35 0.859
1.6621 0.0396 10.5129 32 214 32 0.870
-9.9038 -13.8051 14.2680 4 236 4 0.980
5.6870 -1.1683 9.2693 109 214 20 0.749
6.1985 7.2602 10.3422 105 215 20 0.760
-8.3465 -14.3430 16.3990 4 236 4 0.980
-8.9452 -14.1462 15.4282 4 236 4 0.980
-3.1924 2.0378 9.0650 100 217 20 0.771
-2.2426 -3.1781 6.5456 24 220 24 0.903
-8.9017 -14.5177 15.2696 4 236 4 0.980
-7.1291 5.3860 14.1522 138 207 20 0.672
2.6898 -1.2526 2.5652 4 236 4 0.980
-4.4754 -4.1324 13.0767 133 208 20 0.683
-7.6671 -15.1650 16.2843 4 236 4 0.980
-12.5617 -11.7526 11.1736 26 218 26 0.892
2.1301 0.2629 2.3246 4 236 4 0.980
-0.7183 -1.6941 8.5119 13 229 13 0.947
-10.3861 -11.5117 11.2867 24 220 24 0.903
-1.7838 -18.7356 20.5730 105 215 20 0.760
2.0468 -0.0446 2.2485 4 236 4 0.980
-1.1906 6.5005 7.9980 46 202 46 0.815
-4.8470 -16.0842 17.4198 48 200 48 0.804
-11.0818 1.5992 6.7101 117 212 20 0.727
-6.5309 -15.6881 16.9872 13 229 13 0.947
3.8254 3.6454 10.7607 38 209 38 0.848
-4.4048 2.9284 12.9712 109 214 20 0.749
-1.3065 -2.0075 10.9375 43 205 43 0.826
-7.9668 -14.5753 16.7015 4 236 4 0.980
-5.2688 -16.0114 17.4220 40 207 40 0.837
-1.6114 2.9668 12.1259 105 215 20 0.760
-3.2037 -17.9700 19.7629 105 215 20 0.760
-10.2073 -13.1302 14.5979 4 236 4 0.980
-5.4287 0.7880 6.6720 113 213 20 0.738
1.0217 0.5548 10.8235 43 205 43 0.826
-9.3409 -13.6652 15.3806 4 236 4 0.980
-1.2547 -16.6694 18.3781 21 222 21 0.914
-9.1710 -13.7696 15.6066 4 236 4 0.980
-0.8811 -0.2914 8.0185 32 214 32 0.870
1.4243 -1.3633 8.6120 24 220 24 0.903
-2.3143 -3.4788 6.4461 38 209 38 0.848
3.5661 6.9049 11.2792 109 214 20 0.749
-4.5494 7.4739 12.9273 121 211 20 0.716
-8.8734 -13.9385 15.9816 4 236 4 0.980
-10.2421 -12.0208 11.9676 4 236 4 0.980
-3.4911 -2.1141 11.3671 48 200 48 0.804
7.5437 -1.3396 10.8785 121 211 20 0.716
4.3774 -1.0183 10.7258 121 211 20 0.716
-2.4432 6.3473 8.5306 113 213 20 0.738
-11.8216 -12.6317 12.2858 4 236 4 0.980
-7.1751 -14.7834 17.0791 4 236 4 0.980
-4.9091 -2.8571 5.9156 13 229 13 0.947
-8.9140 7.4656 14.8443 92 219 20 0.793
-4.0264 1.7443 13.0699 105 215 20 0.760
-4.0199 -1.9802 11.8527 92 219 20 0.793
2.5897 5.5182 4.9143 113 213 20 0.738
2.6030 6.6596 7.6583 125 210 20 0.705
-10.0560 -12.5018 12.6131 4 236 4 0.980
-1.0105 7.3409 12.8790 117 212 20 0.727
-7.0182 -4.5280 10.5028 121 211 20 0.716
-0.9255 -5.9796 10.8748 129 209 20 0.694
-8.1619 -14.7576 15.8039 4 236 4 0.980
0.2076 7.4602 12.7468 117 212 20 0.727
2.3205 0.6804 2.8017 4 236 4 0.980
-0.1969 6.3201 6.4388 100 217 20 0.771
6.4746 1.1043 8.7686 129 209 20 0.694
-10.3400 -11.7533 12.7854 4 236 4 0.980
-11.5919 -12.6852 12.5108 4 236 4 0.980
4.7659 -0.0150 8.5195 48 200 48 0.804
6.4421 7.5458 11.3242 100 217 20 0.771
2.4833 -0.5353 2.5442 4 236 4 0.980
2.3489 -1.9753 9.9110 92 219 20 0.793
6.4881 -4.4628 7.3079 129 209 20 0.694
-4.3113 5.1258 6.8776 109 214 20 0.749
-2.5643 -2.7782 7.6295 18 225 18 0.925
-10.1630 -13.5689 14.0036 4 236 4 0.980
-9.9944 -13.5148 15.0060 4 236 4 0.980
-3.4047 1.9281 14.7293 138 207 20 0.672
-11.8435 -0.1928 13.9797 138 207 20 0.672
-6.9062 -15.5114 16.7898 4 236 4 0.980
-1.2043 -1.7502 11.1064 43 205 43 0.826
-7.8149 2.7002 6.1900 105 215 20 0.760
-12.2205 -11.7619 12.0863 18 225 18 0.925
-2.0923 -16.4227 17.9442 10 231 10 0.958
-11.6244 -12.2497 13.0062 4 236 4 0.980
-3.3976 -16.3455 17.7570 38 209 38 0.848
-1.0273 -16.8081 18.5734 26 218 26 0.892
1.1663 -3.9987 7.6245 121 211 20 0.716
-10.4970 -12.9137 14.1773 4 236 4 0.980
-10.3318 -13.0545 14.3903 4 236 4 0.980
7.4568 9.0626 14.0626 138 207 20 0.672
-12.0145 -12.4577 11.9891 10 231 10 0.958
-3.3364 -5.1541 10.7656 92 219 20 0.793
-9.6918 -12.8890 14.3924 4 236 4 0.980
6.2579 -1.0819 7.5020 121 211 20 0.716
6.1689 7.2665 10.3491 109 214 20 0.749
10.7622 7.4048 4.9932 138 207 20 0.672
-6.7609 -3.5257 5.6131 35 211 35 0.859
-9.1500 -14.3459 15.0507 4 236 4 0.980
-8.3165 -14.3417 15.7723 4 236 4 0.980
-3.5349 -17.8861 19.5501 96 218 20 0.782
-2.4605 -17.0829 18.9086 4 236 4 0.980
9.3784 6.6095 14.4233 142 206 20 0.661
-10.5919 -9.6754 9.6112 48 200 48 0.804
2.5455 -0.1998 3.0835 4 236 4 0.980
-12.2152 -11.8623 11.9833 18 225 18 0.925
2.6588 -2.3792 8.6829 105 215 20 0.760
2.4478 -0.4912 2.5042 4 236 4 0.980
-10.2407 -11.9688 13.2150 4 236 4 0.980
6.3907 8.1137 11.5442 105 215 20 0.760
-4.8831 6.5271 8.7655 96 218 20 0.782
-11.7174 -12.1362 12.8834 4 236 4 0.980
-12.3863 -11.7272 11.3056 21 222 21 0.914
-9.7991 -13.4228 15.0113 4 236 4 0.980
-0.3560 7.0890 12.0102 109 214 20 0.749
-2.6002 -3.7965 6.7039 32 214 32 0.870
-10.5220 -10.7968 10.1483 21 222 21 0.914
-10.0242 -13.6928 14.1545 4 236 4 0.980
-0.0748 4.6311 4.6758 109 214 20 0.749
-12.5624 -11.4301 11.3113 26 218 26 0.892
17.3212 9.9931 17.5806 142 206 20 0.661
-12.1794 -12.3241 11.7219 13 229 13 0.947
-3.9486 -2.6173 6.4788 4 236 4 0.980
13.7585 -4.7273 20.2994 142 206 20 0.661
-11.2238 -13.0232 13.0337 4 236 4 0.980
8.8588 7.6727 9.0384 129 209 20 0.694
4.2089 1.3302 3.6190 121 211 20 0.716
-8.7102 7.5306 15.8090 109 214 20 0.749
10.8448 6.4381 6.3632 138 207 20 0.672
-10.8401 -13.3397 13.5224 4 236 4 0.980
3.4859 3.1949 10.1928 26 218 26 0.892
2.3911 6.1772 6.9860 125 210 20 0.705
-5.8181 7.2054 9.9988 113 213 20 0.738
-2.7399 -2.7467 9.4184 121 211 20 0.716
-3.6010 -18.0986 19.3085 100 217 20 0.771
3.4842 3.1202 10.3099 21 222 21 0.914
0.2151 1.6654 11.5344 117 212 20 0.727
-10.1842 -12.1739 12.2974 4 236 4 0.980
-2.9428 1.6347 7.8787 96 218 20 0.782
1.4611 -0.1695 8.9667 7 233 7 0.969
11.3927 -3.4146 17.2087 142 206 20 0.661
-11.1460 -12.6795 13.6889 4 236 4 0.980
12.7033 -5.3466 17.5092 142 206 20 0.661
-3.7580 3.2461 8.0608 105 215 20 0.760
-1.5430 -18.1090 20.2537 96 218 20 0.782
3.3609 6.0028 5.4754 125 210 20 0.705
-10.1560 -13.4067 14.2822 4 236 4 0.980
-4.4555 -16.3306 17.8111 29 216 29 0.881
1.2406 -0.3409 1.7339 4 236 4 0.980
-1.8031 -17.1676 19.0826 18 225 18 0.925
6.1403 -3.7372 6.9197 121 211 20 0.716
-9.4503 7.1056 14.4991 92 219 20 0.793
-4.7241 7.1043 13.3464 117 212 20 0.727
-8.6792 -14.1406 16.0642 4 236 4 0.980
1.0949 5.2336 5.8928 109 214 20 0.749
4.7147 -0.7201 4.5509 125 210 20 0.705
-3.3921 0.9816 7.6855 92 219 20 0.793
6.5132 -3.5257 7.8574 113 213 20 0.738
-0.8726 -16.5809 18.2728 26 218 26 0.892
-10.5833 -10.9669 11.7441 32 214 32 0.870
5.7558 4.5695 10.0395 138 207 20 0.672
-6.7026 -15.2153 17.6228 10 231 10 0.958
-4.1253 3.0286 12.8282 105 215 20 0.760
-4.8521 6.5148 8.4131 105 215 20 0.760
8.2314 3.2229 13.1787 142 206 20 0.661
-3.3538 -2.1563 11.5417 48 200 48 0.804
3.7758 6.3796 10.2605 105 215 20 0.760
-2.6135 -1.5255 6.9683 10 231 10 0.958
-6.0229 3.5658 7.0237 38 209 38 0.848
-11.1740 -0.0206 13.2439 138 207 20 0.672
-0.8898 -3.2853 11.3500 100 217 20 0.771
-1.2623 6.7888 8.6008 96 218 20 0.782
-8.9955 9.2210 16.7269 138 207 20 0.672
-12.3717 -11.6393 11.7666 18 225 18 0.925
-1.7108 6.8583 12.6687 121 211 20 0.716
-10.0271 -3.0958 7.8864 133 208 20 0.683
0.0991 5.7393 9.6277 43 205 43 0.826
-3.6455 -3.4195 10.9145 40 207 40 0.837
-5.5600 6.6449 9.8827 105 215 20 0.760
-11.8320 -12.2330 12.3645 4 236 4 0.980
-7.2237 0.7774 12.8397 121 211 20 0.716
-8.6732 7.1068 15.0972 92 219 20 0.793
-10.5558 -9.9974 9.4261 48 200 48 0.804
-12.0648 -11.9806 12.4176 7 233 7 0.969
10.0393 -6.6449 12.3357 133 208 20 0.683
-14.8241 2.3746 20.2356 142 206 20 0.661
2.5673 0.4700 8.8915 24 220 24 0.903
1.1597 5.6988 7.2736 96 218 20 0.782
-10.8770 -12.7959 13.9417 4 236 4 0.980
-7.3021 -14.2013 16.3547 4 236 4 0.980
-9.4840 -13.5440 15.2402 4 236 4 0.980
-6.5517 -14.5168 16.8203 13 229 13 0.947
-4.4983 -17.4727 19.1787 46 202 46 0.815
-8.4827 0.2673 13.1771 125 210 20 0.705
-5.2569 6.6209 8.7394 100 217 20 0.771
3.7362 -0.4910 3.8510 32 214 32 0.870
-2.9076 -4.9787 9.8153 105 215 20 0.760
4.8866 -0.5680 3.9903 121 211 20 0.716
9.9359 -0.5322 14.4290 138 207 20 0.672
1.0346 0.4823 9.0535 32 214 32 0.870
-10.8522 1.6826 6.3961 125 210 20 0.705
-1.1540 -1.8139 10.9168 40 207 40 0.837
11.3478 -1.0508 15.6921 133 208 20 0.683
-2.5431 -16.4160 17.9847 10 231 10 0.958
14.3781 8.6990 14.9503 138 207 20 0.672
6.0776 3.1667 8.6123 133 208 20 0.683
-9.2486 7.1394 13.8284 105 215 20 0.760
-2.9603 -5.2089 10.0167 113 213 20 0.738
-6.0566 -15.8506 17.1801 21 222 21 0.914
-2.3065 -3.5059 6.4903 40 207 40 0.837
10.3733 10.7175 15.0410 142 206 20 0.661
-1.3785 3.4054 2.4297 96 218 20 0.782
-6.1437 -16.0238 17.3574 21 222 21 0.914
-6.8448 -15.2584 16.9779 4 236 4 0.980
2.5491 4.3785 10.9682 35 211 35 0.859
2.4405 -1.3407 2.4357 4 236 4 0.980
-3.8980 -3.7652 10.6904 46 202 46 0.815
11.8742 -0.9274 16.2002 133 208 20 0.683
-5.4090 6.5923 9.0286 100 217 20 0.771
4.4403 3.1911 10.4011 35 211 35 0.859
3.7037 0.5645 9.4736 38 209 38 0.848
-1.2692 -15.3921 17.3547 40 207 40 0.837
1.2102 -1.1510 10.3848 29 216 29 0.881
-2.4636 -6.1697 9.0336 125 210 20 0.705
-9.8019 -13.4106 15.0284 4 236 4 0.980
-11.6300 -1.6254 9.7949 138 207 20 0.672
-0.8806 -0.4716 11.7193 92 219 20 0.793
4.0904 0.5818 1.8594 100 217 20 0.771
-6.9987 -15.2273 17.6372 13 229 13 0.947
-7.1660 -0.9485 12.5317 129 209 20 0.694
1.9345 0.4276 2.1221 4 236 4 0.980
-3.0014 0.9053 7.9987 48 200 48 0.804
-4.3084 -1.7993 7.3574 18 225 18 0.925
1.8168 -1.4781 8.4877 32 214 32 0.870
2.8327 1.8297 10.3077 29 216 29 0.881
1.8619 -0.1549 10.5390 35 211 35 0.859
-0.8453 -3.0284 10.5773 96 218 20 0.782
-1.9662 -19.1456 21.1300 105 215 20 0.760
1.9103 3.0998 11.1276 105 215 20 0.760
-10.5240 -10.9687 11.0948 29 216 29 0.881
3.4859 3.1199 10.3215 21 222 21 0.914
-3.5195 4.0433 8.1241 117 212 20 0.727
4.4236 6.4159 9.3146 113 213 20 0.738
8.0348 5.1395 5.8843 138 207 20 0.672
-0.3394 2.4561 8.4761 121 211 20 0.716
-9.7501 -3.7442 7.7427 133 208 20 0.683
-9.1022 -4.1239 11.4906 125 210 20 0.705
-5.4656 -3.5873 5.6803 18 225 18 0.925
-7.2953 -14.6271 16.2699 4 236 4 0.980
-12.2746 1.9279 14.4472 142 206 20 0.661
-11.9507 2.7339 20.7827 142 206 20 0.661
-1.2477 1.7626 11.7482 100 217 20 0.771
9.0081 7.6115 9.6078 133 208 20 0.683
8.7588 7.5270 8.0386 133 208 20 0.683
-1.7429 1.7930 12.5980 100 217 20 0.771
-2.9553 0.9357 7.5703 100 217 20 0.771
-8.4493 2.0838 13.5412 138 207 20 0.672
-3.3604 -6.2771 9.6623 117 212 20 0.727
-2.7293 -2.3124 6.8160 4 236 4 0.980
0.9774 -2.1958 7.9960 46 202 46 0.815
-4.6743 -2.7477 11.0657 38 209 38 0.848
7.7341 -0.3527 11.5880 121 211 20 0.716
-1.3415 1.8421 11.4596 100 217 20 0.771
-5.3858 -1.2444 12.1767 121 211 20 0.716
-1.8920 0.6468 11.7610 105 215 20 0.760
-7.6639 7.1002 14.7127 117 212 20 0.727
7.1826 7.4657 10.4746 109 214 20 0.749
-1.1033 -0.0486 11.7549 109 214 20 0.749
-2.2108 -2.5311 10.9285 38 209 38 0.848
10.4984 7.3261 8.6186 138 207 20 0.672
6.5156 8.3125 11.8499 113 213 20 0.738
-2.7496 3.3519 3.2287 100 217 20 0.771
0.1160 -1.0254 11.0802 46 202 46 0.815
2.2035 -0.1900 2.4196 4 236 4 0.980
2.9259 3.4377 15.2363 142 206 20 0.661
-5.1846 -3.4681 5.5893 10 231 10 0.958
-6.4794 6.7389 9.2416 109 214 20 0.749
2.3941 -0.4422 2.5379 4 236 4 0.980
-5.0836 -17.1356 18.6699 48 200 48 0.804
2.9361 0.2348 3.2046 4 236 4 0.980
-1.3321 -1.8908 11.9332 109 214 20 0.749
3.3211 2.9262 10.1330 21 222 21 0.914
11.2308 -1.0663 15.4930 129 209 20 0.694
-2.1883 -16.5473 17.9453 10 231 10 0.958
4.7740 7.3891 12.1693 129 209 20 0.694
4.6705 -0.1086 9.8564 43 205 43 0.826
-8.4363 -14.2381 16.1154 4 236 4 0.980
-0.8751 -0.3313 7.8650 32 214 32 0.870
-1.9210 3.2553 2.4333 105 215 20 0.760
-2.3150 -16.3752 17.9864 10 231 10 0.958
-5.5948 -4.8218 10.5970 121 211 20 0.716
1.6199 -0.4777 1.6241 4 236 4 0.980
6.7349 -0.8109 8.5889 125 210 20 0.705
-6.5635 2.8400 6.6589 32 214 32 0.870
-2.8363 4.0993 8.5724 117 212 20 0.727
-11.9254 8.2887 17.2034 133 208 20 0.683
-9.8400 7.7323 15.6104 100 217 20 0.771
-4.9503 -4.3499 10.8412 100 217 20 0.771
1.4954 3.4509 11.3004 109 214 20 0.749
-5.2237 3.9845 7.2642 32 214 32 0.870
-9.5495 -13.4900 15.2321 4 236 4 0.980
-0.5473 -5.7484 9.2056 129 209 20 0.694
-8.0911 -0.9727 5.0743 138 207 20 0.672
6.3558 0.4161 11.6332 129 209 20 0.694
5.3255 -0.7551 4.3850 125 210 20 0.705
-14.8984 6.9957 15.7473 142 206 20 0.661
-4.4608 6.9032 13.4533 121 211 20 0.716
2.0191 0.3656 2.4213 4 236 4 0.980
0.8434 4.2320 2.9649 117 212 20 0.727
-1.6328 2.0023 8.3624 100 217 20 0.771
8.5393 4.9619 4.0454 138 207 20 0.672
2.8880 0.3719 0.8875 18 225 18 0.925
-10.6346 -10.0201 10.1943 38 209 38 0.848
-7.4485 -4.6364 11.0292 121 211 20 0.716
-10.0277 -13.5327 14.5283 4 236 4 0.980
-6.1845 -2.7351 5.4208 29 216 29 0.881
1.7749 0.2306 2.0992 4 236 4 0.980
-5.3290 -6.1854 9.4399 142 206 20 0.661
-7.8364 -14.5658 16.4974 4 236 4 0.980
-8.3749 -5.7944 9.4433 138 207 20 0.672
8.3436 4.8184 4.1351 138 207 20 0.672
-2.8497 -1.7304 7.4299 10 231 10 0.958
1.8649 0.5078 10.6028 43 205 43 0.826
1.1081 6.9394 12.0739 105 215 20 0.760
15.1428 8.9385 15.2852 138 207 20 0.672
-2.2318 -4.0960 10.3432 48 200 48 0.804
7.1066 8.6500 14.4815 138 207 20 0.672
-9.0846 6.9293 13.3700 109 214 20 0.749
16.0844 8.0413 10.9979 142 206 20 0.661
2.5131 6.6534 7.8151 125 210 20 0.705
1.5609 6.8389 11.5557 105 215 20 0.760
-0.1080 6.2865 6.9667 92 219 20 0.793
-8.2583 2.3759 6.1409 113 213 20 0.738
2.7022 0.0833 2.8635 4 236 4 0.980
-9.6176 -13.1828 14.8233 4 236 4 0.980
2.4696 -1.2963 2.3608 4 236 4 0.980
-2.7409 3.5053 3.2198 100 217 20 0.771
-10.5762 7.2685 14.9591 105 215 20 0.760
-10.6176 -5.5764 10.1904 125 210 20 0.705
-6.7591 -3.4602 5.8194 35 211 35 0.859
-0.8626 -0.2167 11.1870 105 215 20 0.760
-1.2893 4.2706 5.2441 117 212 20 0.727
3.3834 -1.6949 3.1164 26 218 26 0.892
-1.9542 3.3207 2.6716 100 217 20 0.771
-5.6429 3.4162 6.9128 38 209 38 0.848
1.3114 -5.5774 8.7477 133 208 20 0.683
-0.0539 7.1641 12.2498 105 215 20 0.760
-3.8533 3.5357 4.9973 121 211 20 0.716
-7.3402 1.0763 13.4211 125 210 20 0.705
3.9623 -2.6439 9.0543 125 210 20 0.705
6.2228 7.7535 10.8247 109 214 20 0.749
3.6378 0.1120 8.6271 96 218 20 0.782
-1.8724 -19.0370 21.0039 105 215 20 0.760
-4.0642 5.1984 6.9960 109 214 20 0.749
-11.0818 -4.3778 11.0111 125 210 20 0.705
-12.3880 -11.8306 11.3511 21 222 21 0.914
8.0601 5.4528 6.2904 138 207 20 0.672
2.2031 -0.1872 2.4027 4 236 4 0.980
1.6458 0.3544 9.8852 21 222 21 0.914
-5.9611 3.3472 6.8587 38 209 38 0.848
4.7320 7.1510 9.6565 105 215 20 0.760
-9.2321 -15.7307 17.4575 142 206 20 0.661
-2.0966 -16.4314 17.9676 10 231 10 0.958
1.1639 -1.2336 8.3401 35 211 35 0.859
-5.8478 4.0670 4.9140 133 208 20 0.683
2.0608 0.2856 2.3886 4 236 4 0.980
-4.3280 -0.3008 6.9236 35 211 35 0.859
0.0506 6.8686 10.4273 96 218 20 0.782
-1.4437 4.2685 9.0629 109 214 20 0.749
-8.5792 -5.2097 10.4282 113 213 20 0.738
-0.1515 6.2401 6.7286 96 218 20 0.782
0.8459 7.6025 9.2661 138 207 20 0.672
-3.6672 -3.5609 10.5810 38 209 38 0.848
-0.9127 -1.4881 11.0105 40 207 40 0.837
-0.8972 -0.1996 11.4327 100 217 20 0.771
1.4235 -0.2195 8.3584 24 220 24 0.903
-7.0406 -14.7490 16.9496 4 236 4 0.980
3.6702 3.2762 10.4511 26 218 26 0.892
-0.7165 -2.2466 7.2629 26 218 26 0.892
-8.2799 -14.8836 15.8180 4 236 4 0.980
-8.5936 -14.6702 15.5382 4 236 4 0.980
-3.3901 -2.0173 6.9806 4 236 4 0.980
-12.2301 -3.0739 11.7738 138 207 20 0.672
2.2503 -1.0832 2.2757 4 236 4 0.980
4.1644 0.1706 9.2037 46 202 46 0.815
-4.2852 7.0213 14.0104 121 211 20 0.716
-0.8421 -3.7324 7.0310 29 216 29 0.881
-3.8727 -2.6166 6.3748 4 236 4 0.980
-1.1551 6.4366 7.7662 43 205 43 0.826
2.5471 -5.0182 8.0975 125 210 20 0.705
-9.1962 6.0926 14.5991 105 215 20 0.760
-3.1016 6.5875 13.7692 121 211 20 0.716
-6.8976 7.7855 12.1784 133 208 20 0.683
-6.1067 -2.8624 5.5695 24 220 24 0.903
7.7108 -4.4220 9.7617 125 210 20 0.705
-6.8874 0.5749 6.4932 125 210 20 0.705
3.3289 2.9585 10.1538 21 222 21 0.914
-9.8977 -4.6090 10.5423 117 212 20 0.727
-9.6400 -13.3919 15.1106 4 236 4 0.980
-8.1080 -14.7274 15.5985 4 236 4 0.980
-4.7200 6.0412 8.1005 105 215 20 0.760
-7.8935 -14.4023 16.6307 4 236 4 0.980
-10.0341 -13.2044 14.7979 4 236 4 0.980
-0.6041 -4.5475 6.8678 113 213 20 0.738
-8.5669 -14.6714 15.5480 4 236 4 0.980
-5.6429 -3.0852 5.6676 26 218 26 0.892
-9.4450 7.9667 16.1151 105 215 20 0.760
-5.2314 3.5712 7.3716 32 214 32 0.870
-8.0764 -14.8802 15.9233 4 236 4 0.980
2.7109 -0.8343 2.7991 4 236 4 0.980
-5.5631 3.4637 6.6585 38 209 38 0.848
-4.0676 6.4203 7.2421 117 212 20 0.727
-4.9873 1.5961 8.6891 129 209 20 0.694
-1.3646 2.3204 9.0583 117 212 20 0.727
1.9722 -1.6808 8.1103 48 200 48 0.804
-4.7819 -17.3680 18.9789 48 200 48 0.804
-9.8321 -13.9689 15.1196 4 236 4 0.980
-6.0483 -3.8300 11.1899 109 214 20 0.749
17.9522 3.9945 11.5089 142 206 20 0.661
-10.9866 6.9505 15.3437 113 213 20 0.738
-0.5622 -0.3809 11.0210 100 217 20 0.771
-2.7393 -17.1785 18.9354 13 229 13 0.947
-2.4116 5.9303 9.3584 125 210 20 0.705
12.5869 5.3414 7.0861 142 206 20 0.661
1.6279 -0.1930 1.7683 4 236 4 0.980
-1.4695 3.2491 2.3126 96 218 20 0.782
-11.8302 6.1891 16.5821 138 207 20 0.672
-5.3784 -3.4724 5.7576 16 227 16 0.936
-6.8255 2.9850 6.7959 26 218 26 0.892
-3.2746 1.3886 10.3800 138 207 20 0.672
-0.7076 -2.7742 9.8234 100 217 20 0.771
-0.7452 -1.2178 7.8218 13 229 13 0.947
-7.7326 5.9715 15.1873 121 211 20 0.716
-5.8435 -4.0930 11.2874 113 213 20 0.738
-5.1809 6.4282 9.5314 100 217 20 0.771
-0.7329 -0.3985 8.1284 26 218 26 0.892
-9.4301 -12.7151 14.3549 4 236 4 0.980
3.9935 7.4308 11.7853 129 209 20 0.694
2.3151 0.2588 2.5955 4 236 4 0.980
8.9125 7.7317 5.8726 142 206 20 0.661
3.9951 2.1296 9.7799 21 222 21 0.914
-2.3015 1.4835 8.0865 48 200 48 0.804
-11.5434 -10.7835 10.2359 18 225 18 0.925
-1.5119 3.5108 2.6190 96 218 20 0.782
2.8306 5.3625 3.6408 125 210 20 0.705
-3.4236 -2.9717 6.5700 4 236 4 0.980
2.3957 -0.0789 2.5967 4 236 4 0.980
1.7936 0.3761 10.3766 26 218 26 0.892
1.2581 -0.1516 10.3158 29 216 29 0.881
-6.4150 -14.1095 16.3937 24 220 24 0.903
-5.0988 -4.1970 5.7434 35 211 35 0.859
-0.7787 -2.3464 7.2543 26 218 26 0.892
-3.5245 -1.8402 11.7750 96 218 20 0.782
1.7396 3.5800 10.7962 105 215 20 0.760
7.5455 8.5062 11.9445 125 210 20 0.705
-6.5232 -2.7061 5.5378 32 214 32 0.870
0.0026 -0.8665 8.1844 4 236 4 0.980
-0.0305 0.0254 8.5311 21 222 21 0.914
3.5940 0.6544 9.4853 40 207 40 0.837
-0.6600 -3.5722 6.8193 32 214 32 0.870
2.1108 5.1590 4.5032 109 214 20 0.749
5.2799 1.3440 8.6419 117 212 20 0.727
-6.2972 -3.4565 5.2260 29 216 29 0.881
-5.8670 -2.6822 11.9305 117 212 20 0.727
-3.0473 -1.2817 7.2850 18 225 18 0.925
1.3716 -2.5861 9.5167 43 205 43 0.826
-0.8667 -2.4690 7.5505 24 220 24 0.903
7.5991 8.4831 12.0521 125 210 20 0.705
-6.9512 -1.7956 5.7208 100 217 20 0.771
-10.1997 -12.0789 13.1319 4 236 4 0.980
3.7724 3.3608 10.3940 29 216 29 0.881
-4.1098 -1.3256 6.6972 13 229 13 0.947
-8.9729 -13.6338 15.0552 4 236 4 0.980
-4.1753 -1.4139 6.7103 10 231 10 0.958
1.0192 -0.3264 8.9258 4 236 4 0.980
-1.0308 5.8021 7.1983 48 200 48 0.804
11.4956 9.4991 10.3239 138 207 20 0.672
2.6912 0.0406 1.9422 4 236 4 0.980
1.6006 -1.3044 8.5388 26 218 26 0.892
-3.6497 4.0053 5.3402 109 214 20 0.749
1.5709 0.0485 2.0040 4 236 4 0.980
-6.8322 5.4177 10.7732 138 207 20 0.672
-5.2570 6.3756 9.9973 105 215 20 0.760
11.4630 -3.5719 12.0866 142 206 20 0.661
1.1258 3.0342 9.4475 117 212 20 0.727
1.2778 4.5355 10.2164 96 218 20 0.782
-4.6730 -7.1681 12.7321 142 206 20 0.661
-4.2832 -1.4974 7.0969 13 229 13 0.947
-2.9112 -1.3161 7.0671 10 231 10 0.958
-0.2652 5.5991 8.9118 40 207 40 0.837
3.0773 -1.1930 2.8136 4 236 4 0.980
-4.0632 2.6550 12.1339 109 214 20 0.749
-4.0754 -1.7432 6.8468 10 231 10 0.958
-0.4631 -1.3054 9.5806 35 211 35 0.859
1.8965 0.4747 2.3655 4 236 4 0.980
3.5644 5.8630 5.3963 129 209 20 0.694
0.0243 -2.9109 7.0182 40 207 40 0.837
-4.4088 -2.8028 10.8361 43 205 43 0.826
-6.3761 -3.1541 5.4060 24 220 24 0.903
-0.0603 -0.8423 7.9973 4 236 4 0.980
-5.9774 4.1387 8.0372 48 200 48 0.804
-12.9844 1.8007 10.5513 142 206 20 0.661
6.1255 6.3911 4.2696 138 207 20 0.672
-0.9316 -2.3300 7.1983 21 222 21 0.914
-8.4123 -14.3110 16.1324 4 236 4 0.980
1.0644 4.6470 10.0471 48 200 48 0.804
-0.9032 -1.2508 7.5457 18 225 18 0.925
1.8873 -3.9971 6.9158 133 208 20 0.683
-2.3593 -3.4377 6.7268 32 214 32 0.870
3.8540 3.4415 10.4563 29 216 29 0.881
-0.9144 -0.2691 8.0894 32 214 32 0.870
3.6124 5.4319 10.6817 105 215 20 0.760
-5.3198 -17.2905 18.6849 96 218 20 0.782
1.1163 6.2842 10.6787 46 202 46 0.815
6.5632 -2.1046 7.4897 109 214 20 0.749
-0.8819 5.6741 9.6447 46 202 46 0.815
-2.4940 -2.3677 6.9817 7 233 7 0.969
-12.6562 -11.4033 11.3397 29 216 29 0.881
-5.5098 -3.2448 5.7912 21 222 21 0.914
-4.7766 -0.3902 7.3565 46 202 46 0.815
-2.0914 -4.2538 6.4029 92 219 20 0.793
-1.7293 -2.9888 6.9685 4 236 4 0.980
-4.9634 -1.3118 11.5989 100 217 20 0.771
-10.5168 -9.3760 9.0627 105 215 20 0.760
-4.0401 0.0268 7.1507 32 214 32 0.870
-3.8170 1.2266 7.7819 96 218 20 0.782
-1.4717 -4.0563 6.6659 48 200 48 0.804
2.9212 -0.1106 3.0396 4 236 4 0.980
-3.6837 -0.9890 7.0037 18 225 18 0.925
-1.7274 -1.9178 7.4013 4 236 4 0.980
12.2194 10.1440 11.8071 138 207 20 0.672
-7.4350 4.8558 9.8492 133 208 20 0.683
-8.2617 7.1301 14.4231 100 217 20 0.771
-7.1947 4.1613 8.3620 133 208 20 0.683
-1.4281 -15.0643 16.7013 133 208 20 0.683
-0.1789 4.4593 4.3555 105 215 20 0.760
-9.5819 -13.5706 15.2899 4 236 4 0.980
-1.3430 1.1490 8.2843 38 209 38 0.848
-1.1226 4.9913 7.8490 105 215 20 0.760
-3.0684 -16.4254 18.0089 35 211 35 0.859
10.3253 -4.7602 13.1879 133 208 20 0.683
0.9930 4.7968 10.3415 92 219 20 0.793
-0.8685 -16.6833 18.3757 26 218 26 0.892
-2.5416 -3.4907 6.4299 26 218 26 0.892
3.0452 1.4125 10.2174 16 227 16 0.936
-3.4517 -16.3415 17.9331 40 207 40 0.837
1.8792 4.8570 3.3995 125 210 20 0.705
5.0716 1.2926 11.0025 113 213 20 0.738
3.9369 0.2568 9.2945 48 200 48 0.804
-12.4166 -11.5840 11.7662 21 222 21 0.914
-3.8023 4.3170 8.0245 105 215 20 0.760
2.3585 0.3032 2.6762 4 236 4 0.980
-0.0703 2.2856 12.2409 100 217 20 0.771
-3.6467 3.5246 4.7579 113 213 20 0.738
4.4385 0.6626 10.3534 38 209 38 0.848
-1.3561 2.3876 9.2925 117 212 20 0.727
-3.5263 3.5857 4.8659 113 213 20 0.738
0.8972 5.7822 9.8938 48 200 48 0.804
2.2554 1.8586 9.3135 92 219 20 0.793
-4.2442 -0.7522 7.1399 35 211 35 0.859
-3.0577 -0.5926 7.8071 32 214 32 0.870
0.7906 0.3197 8.7065 21 222 21 0.914
8.2712 -2.2985 10.5229 129 209 20 0.694
0.1046 3.9537 2.7074 113 213 20 0.738
2.4729 -0.5246 2.5510 4 236 4 0.980
2.4390 5.9677 10.8957 96 218 20 0.782
1.1112 -1.1261 8.1454 38 209 38 0.848
-4.8129 -2.9621 6.1483 16 227 16 0.936
-1.5570 -3.6462 11.4199 117 212 20 0.727
-2.7650 -2.5678 6.7063 13 229 13 0.947
-0.6668 -3.7834 7.2150 43 205 43 0.826
-10.5321 -9.5129 9.1469 100 217 20 0.771
15.3267 12.0783 13.2624 142 206 20 0.661
-1.5532 -16.7333 18.4130 16 227 16 0.936
-5.1147 -4.2414 5.5325 35 211 35 0.859
-5.5149 -2.5865 6.0766 16 227 16 0.936
-3.8168 -4.2028 5.7687 40 207 40 0.837
0.8070 6.0282 10.1376 46 202 46 0.815
-0.4097 5.1895 8.1811 43 205 43 0.826
-8.5471 -14.7472 15.6453 4 236 4 0.980
-4.0243 -2.6048 6.5419 4 236 4 0.980
-0.6368 5.4315 9.3161 43 205 43 0.826
-3.5015 3.9864 6.9971 105 215 20 0.760
1.0348 -1.0855 8.1576 29 216 29 0.881
-1.7955 5.2329 9.6283 113 213 20 0.738
-6.2092 -3.7681 4.5957 35 211 35 0.859
3.9776 0.5372 9.8357 38 209 38 0.848
-10.0958 -13.4642 14.7203 4 236 4 0.980
-3.6267 4.0739 7.9916 105 215 20 0.760
-6.7767 2.9406 6.6729 29 216 29 0.881
-2.1338 4.2374 5.7877 121 211 20 0.716
2.0723 0.2633 9.6445 13 229 13 0.947
-4.0128 -4.1436 5.8839 35 211 35 0.859
-5.3849 -3.4857 5.6302 18 225 18 0.925
-2.8333 -2.2803 6.9928 4 236 4 0.980
4.4388 2.3169 10.2239 24 220 24 0.903
2.1470 0.0161 3.2231 4 236 4 0.980
-5.5591 3.5691 7.7569 40 207 40 0.837
-0.2440 -3.8047 7.1183 43 205 43 0.826
4.1296 1.9981 11.2145 32 214 32 0.870
-5.3293 3.7442 7.1983 35 211 35 0.859
-7.4566 -15.0583 17.3515 4 236 4 0.980
-5.8812 3.0721 7.2536 38 209 38 0.848
-0.0649 3.1585 11.0253 125 210 20 0.705
-10.6181 -10.3630 10.4981 26 218 26 0.892
3.8757 2.0330 9.6908 13 229 13 0.947
-1.9853 3.0567 2.2218 109 214 20 0.749
-1.4165 4.3677 5.5590 117 212 20 0.727
2.4709 -0.0178 2.6136 4 236 4 0.980
-7.6411 2.6942 6.1406 100 217 20 0.771
-8.0074 2.7502 6.1747 109 214 20 0.749
-10.0092 -12.5721 12.8062 4 236 4 0.980
1.9583 5.3758 3.6650 113 213 20 0.738
1.3158 2.6525 9.3628 125 210 20 0.705
-11.7757 1.7531 9.1804 133 208 20 0.683
4.1503 5.4899 10.0754 117 212 20 0.727
-2.9266 -1.7018 7.1128 7 233 7 0.969
2.4306 4.1216 10.4690 35 211 35 0.859
0.8901 5.2756 5.0552 109 214 20 0.749
-8.1546 -15.0777 16.1341 4 236 4 0.980
-6.8766 -0.3133 7.1731 129 209 20 0.694
-5.4579 3.2752 6.2021 38 209 38 0.848
-10.8834 8.5185 15.9521 117 212 20 0.727
-6.8798 -14.8644 17.1057 4 236 4 0.980
-10.5668 -10.9577 11.5231 26 218 26 0.892
-9.3337 -12.6927 14.1229 4 236 4 0.980
5.4519 6.4539 12.9320 138 207 20 0.672
-6.0464 3.1522 6.0447 38 209 38 0.848
-2.1089 -18.5325 20.3539 96 218 20 0.782
2.3839 -0.4152 2.4632 4 236 4 0.980
-5.5374 3.5346 6.7692 38 209 38 0.848
-9.8067 -3.9935 7.6624 133 208 20 0.683
1.3500 -1.2803 10.2748 26 218 26 0.892
3.1826 -0.4461 2.9918 4 236 4 0.980
-6.2910 3.1311 6.8845 32 214 32 0.870
-3.9067 -4.3368 6.0304 43 205 43 0.826
0.2638 5.7428 10.2849 46 202 46 0.815
-6.6012 -2.5879 5.5297 32 214 32 0.870
1.4746 -0.4042 1.4838 4 236 4 0.980
3.9458 0.3319 9.3443 46 202 46 0.815
-0.8856 -1.1167 7.4224 18 225 18 0.925
-4.6597 1.2664 7.0493 100 217 20 0.771
-1.3760 3.0808 11.9411 105 215 20 0.760
2.8111 -0.0785 2.8411 4 236 4 0.980
1.3285 0.4714 9.6208 32 214 32 0.870
-5.4223 -16.6028 18.0832 40 207 40 0.837
-8.6474 -14.2114 15.9706 4 236 4 0.980
-6.0387 3.2951 6.7707 38 209 38 0.848
-0.0448 4.7475 4.9702 113 213 20 0.738
-3.2091 1.7055 7.7041 96 218 20 0.782
-6.2816 -14.8009 17.0776 10 231 10 0.958
-5.7345 -15.4166 18.0039 35 211 35 0.859
-5.9578 -5.5382 14.3370 142 206 20 0.661
-1.6869 -16.5466 18.2320 13 229 13 0.947
-4.8620 -17.3371 18.8916 48 200 48 0.804
-7.7974 -2.1981 15.3548 138 207 20 0.672
6.5047 -0.8785 8.0489 121 211 20 0.716
-5.6535 7.8447 13.7321 125 210 20 0.705
-8.2514 2.4089 6.0131 113 213 20 0.738
-7.5856 -6.5258 14.2296 142 206 20 0.661
1.1336 0.2972 2.0613 4 236 4 0.980
1.7093 6.3200 11.1275 100 217 20 0.771
-10.7001 -10.4548 9.1452 92 219 20 0.793
-8.3157 -14.9298 15.8812 4 236 4 0.980
4.7629 2.6871 9.3564 29 216 29 0.881
-10.6133 -9.7949 9.8219 46 202 46 0.815
-1.7671 -18.8119 20.7716 105 215 20 0.760
-10.6539 -10.2759 10.6301 29 216 29 0.881
4.3271 6.2461 8.3673 125 210 20 0.705
-0.2377 6.2138 6.4932 100 217 20 0.771
3.7522 3.3128 9.7020 35 211 35 0.859
-4.2023 -0.6267 12.4291 125 210 20 0.705
1.5515 6.8548 11.5765 105 215 20 0.760
4.8864 -2.8726 7.9473 125 210 20 0.705
-10.4419 -11.2990 10.8909 32 214 32 0.870
-10.6375 -10.5509 11.0209 29 216 29 0.881
-9.5202 -13.7071 15.3901 4 236 4 0.980
7.5604 -0.0929 10.3913 125 210 20 0.705
2.6601 6.1490 7.2696 125 210 20 0.705
-8.8023 -1.5693 14.1826 133 208 20 0.683
-10.5395 -11.1187 11.8987 10 231 10 0.958
-9.7985 -6.4212 13.6698 142 206 20 0.661
5.2859 1.3516 8.5093 117 212 20 0.727
9.7285 -5.3745 12.9222 129 209 20 0.694
2.7611 6.0243 10.8149 92 219 20 0.793
-0.4527 -4.9376 9.8368 129 209 20 0.694
-10.4804 -9.1619 13.4427 142 206 20 0.661
3.8015 3.2812 9.4996 38 209 38 0.848
-10.4310 -11.3157 11.0803 26 218 26 0.892
-10.3473 -11.6824 11.6137 10 231 10 0.958
-10.3417 -11.6776 11.6108 10 231 10 0.958
-11.1722 -10.5482 8.5890 105 215 20 0.760
-0.7873 -0.6271 8.3058 35 211 35 0.859
3.7775 6.5166 10.2589 100 217 20 0.771
4.3754 6.1472 8.2280 125 210 20 0.705
-10.9548 9.4052 13.3413 138 207 20 0.672
-12.6623 -12.2396 16.1142 142 206 20 0.661
12.0281 -10.0629 15.4549 142 206 20 0.661
8.0546 -5.3423 9.2189 133 208 20 0.683
4.2967 -1.0642 9.5854 48 200 48 0.804
-8.5502 0.0224 16.4666 142 206 20 0.661
6.1983 -2.2375 7.0636 113 213 20 0.738
1.5232 -0.2606 1.6194 4 236 4 0.980
13.6889 -0.2338 8.7898 142 206 20 0.661
-1.7852 -0.4592 12.8945 121 211 20 0.716
8.5531 -5.4032 10.5553 133 208 20 0.683
2.2969 -1.4052 9.3309 24 220 24 0.903
5.0712 -2.2966 7.0784 125 210 20 0.705
9.6283 -5.1368 12.4509 129 209 20 0.694
0.4025 5.7388 9.0785 48 200 48 0.804
-12.5802 1.1933 7.2000 129 209 20 0.694
0.7334 5.0228 4.7890 113 213 20 0.738
-5.5300 2.7538 16.6469 142 206 20 0.661
-1.3177 -18.8077 20.6721 105 215 20 0.760
3.4681 -0.2439 3.3093 4 236 4 0.980
2.0146 -0.2857 2.1112 4 236 4 0.980
2.0223 -0.3142 2.0342 4 236 4 0.980
2.4857 -0.0078 2.6374 4 236 4 0.980
2.4438 -0.0280 2.5796 4 236 4 0.980
1.9158 0.1041 2.2306 4 236 4 0.980
1.8211 -0.4178 1.9026 4 236 4 0.980
1.4414 0.5911 2.0002 4 236 4 0.980
-1.5907 -16.6705 18.3509 16 227 16 0.936
-0.5505 -0.4472 8.1130 21 222 21 0.914
-0.5390 -0.4034 8.2669 18 225 18 0.925
2.4791 0.3088 2.8838 4 236 4 0.980
2.0587 -0.3387 2.3956 4 236 4 0.980
2.3360 -0.9499 2.3605 4 236 4 0.980
5.6175 -0.4034 10.4164 117 212 20 0.727
6.0915 -2.6505 10.1131 133 208 20 0.683
-0.7498 -1.4532 7.4595 16 227 16 0.936
4.9300 -1.8169 9.4397 117 212 20 0.727
3.2168 0.4856 3.3863 4 236 4 0.980
3.4733 -0.5187 2.5957 4 236 4 0.980
5.5185 -2.4788 4.3164 138 207 20 0.672
0.3252 -1.1126 4.6900 138 207 20 0.672
2.4479 0.7461 2.8641 4 236 4 0.980
2.6835 1.8330 2.2424 46 202 46 0.815
1.7504 -0.2501 3.0091 4 236 4 0.980
0.1097 -2.7266 8.1436 38 209 38 0.848
6.8812 7.3265 10.4332 105 215 20 0.760
9.4624 4.2180 14.2110 142 206 20 0.661
4.2357 2.1178 4.5781 138 207 20 0.672
-1.3273 -4.9317 9.9995 230 109 30 0.184
-0.8135 -8.4558 8.7786 230 139 30 0.275
9.4836 -7.9088 8.8045 230 116 30 0.204
5.2878 2.2005 9.4312 230 118 30 0.210
9.8105 -4.3544 9.9547 230 109 30 0.182
7.8765 -4.0476 11.2762 230 106 30 0.174
-2.1388 -1.5021 3.1334 230 155 30 0.324
-0.9073 -14.6218 16.2904 230 136 30 0.267
-9.5114 -6.8941 8.5810 230 162 30 0.346
-5.3146 -5.0645 14.4145 230 121 30 0.221
11.8050 10.6514 15.7517 230 142 30 0.284
13.0420 6.4359 6.6727 230 149 30 0.307
1.4870 -15.0372 16.9160 230 151 30 0.313
4.6157 0.1736 11.2202 230 101 30 0.158
14.9055 9.5120 17.9179 230 109 30 0.182
4.5690 -4.9292 15.8665 230 111 30 0.188
7.3146 1.2987 2.1980 230 135 30 0.264
11.4578 -1.1637 13.1731 230 128 30 0.241
-0.9974 -4.2098 10.2560 230 108 30 0.181
15.4358 8.2797 7.9721 230 137 30 0.268
-6.2382 11.1561 18.4802 230 123 30 0.226
-6.8829 3.9845 8.3353 230 114 30 0.199
3.8524 5.1702 3.0159 230 104 30 0.169
9.3416 6.4897 7.1635 230 122 30 0.224
-11.3983 -4.3132 6.9665 230 151 30 0.311
13.5438 6.6317 9.2190 230 146 30 0.298
12.2533 8.7704 7.8027 230 104 30 0.168
15.7930 8.6894 6.6500 230 139 30 0.276
-11.1685 -4.6763 10.1014 230 159 30 0.337
-12.9830 2.2495 5.8555 230 135 30 0.262
9.6792 -4.6722 12.2276 230 154 30 0.320
10.1273 6.8641 9.9816 230 147 30 0.301
13.7401 -4.7328 18.2188 230 143 30 0.289
9.5557 6.6712 4.9305 230 106 30 0.173
0.3424 0.1457 6.0521 230 103 30 0.164
10.8063 7.6729 5.7102 230 127 30 0.239
-6.7027 -1.1293 14.0015 230 156 30 0.327
17.1697 1.1959 10.8324 230 156 30 0.328
7.6921 -5.1547 10.2462 230 110 30 0.185
-7.0372 3.2240 8.5122 230 108 30 0.179
-9.2293 -3.2361 7.5740 230 99 30 0.151
9.3943 7.4966 14.4566 230 139 30 0.276
13.6324 4.1135 4.1446 230 141 30 0.282
-3.3603 3.7833 14.0314 230 126 30 0.235
-8.6833 -9.7398 15.3939 230 163 30 0.348
-11.5841 -4.6937 9.6115 230 151 30 0.314
-9.1000 10.2009 14.2512 230 131 30 0.252
0.5589 -0.1449 4.4806 230 118 30 0.209
3.7390 8.5432 12.3275 230 125 30 0.231
11.3120 7.8215 15.9222 230 104 30 0.168
-8.7316 -6.7863 14.0684 230 106 30 0.173
7.0559 -4.3374 8.9132 230 114 30 0.200
-7.1295 -5.0033 13.7617 230 152 30 0.316
13.0440 8.6701 14.0031 230 99 30 0.152
14.2340 -6.5549 19.2817 230 123 30 0.226
4.2540 3.2877 6.3680 230 152 30 0.315
-12.3188 -1.1447 7.1778 230 157 30 0.332
-3.8011 -7.6165 12.4926 230 156 30 0.327
-8.5712 -7.5926 13.5366 230 159 30 0.336
-12.2733 8.5414 17.3724 230 120 30 0.217
11.0695 7.1415 6.5401 230 150 30 0.310
-14.2900 6.5746 16.1642 230 104 30 0.168
17.8169 8.2296 16.9358 230 127 30 0.239
1.7202 4.7722 7.8243 230 100 30 0.155
10.8214 -3.0139 10.9036 230 131 30 0.250
-1.6870 -15.1147 15.7306 230 103 30 0.164
8.4687 -3.7429 8.5421 230 151 30 0.313
1.5061 4.5697 15.2049 230 156 30 0.328
3.4703 -0.3864 6.4662 230 149 30 0.306
6.2413 -6.2482 9.2211 230 148 30 0.305
12.5147 12.2830 10.8420 230 141 30 0.282
5.8564 4.0132 1.5495 230 140 30 0.277
14.0557 9.6590 11.9985 230 130 30 0.249
12.2203 -1.0160 17.7948 230 102 30 0.163
10.4171 -4.6780 13.8275 230 163 30 0.348
15.4349 6.7015 9.4950 230 105 30 0.169
14.9161 8.8507 9.3879 230 142 30 0.286
-3.2452 1.9598 12.1278 230 154 30 0.321
-13.2023 -4.0644 10.6607 230 129 30 0.244
10.4928 -5.5593 11.6725 230 153 30 0.320
-4.6727 -5.7690 10.9801 230 147 30 0.300
-6.5132 -1.1341 8.1312 230 140 30 0.279
-12.7004 -5.2895 9.5594 230 142 30 0.284
12.9803 7.7102 8.7408 230 145 30 0.293
-16.1522 1.0162 19.1607 230 104 30 0.167
-16.6874 6.5304 14.7971 230 102 30 0.160
-8.3697 -7.2847 8.0628 230 126 30 0.235
-1.9433 5.3615 12.0869 230 100 30 0.155
9.1950 -4.5600 9.5217 230 106 30 0.174
14.4393 13.1309 12.7828 230 120 30 0.217
-5.8122 5.8929 15.0058 230 110 30 0.186
13.2056 11.6021 8.7480 230 131 30 0.250
9.8430 11.2714 16.3994 230 144 30 0.291
-19.6698 6.6972 14.4806 230 103 30 0.166
10.7382 0.9001 16.0991 230 134 30 0.261
10.7252 -3.1771 12.8167 230 127 30 0.238
-8.4718 -5.8084 7.6432 230 110 30 0.185
0.2202 -4.7588 10.3534 230 104 30 0.166
10.6472 -3.8858 11.9555 230 104 30 0.169
7.4331 -2.7367 11.9194 230 116 30 0.206
-11.8593 3.2099 14.9763 230 163 30 0.349
11.0305 9.4587 6.0338 230 127 30 0.238
8.7185 -3.5709 11.5898 230 115 30 0.201
4.1347 9.2008 5.1769 230 131 30 0.249
-7.1208 -2.5329 14.3143 230 130 30 0.247
9.8876 4.9295 4.1057 230 157 30 0.331
-5.8208 1.6879 15.5766 230 126 30 0.236
-11.7163 -2.4469 5.8502 230 110 30 0.188
-7.0178 2.5841 6.0557 230 153 30 0.319
-14.9617 0.6585 14.9351 230 124 30 0.228
0.9454 -15.6525 14.8114 230 111 30 0.190
9.0041 -5.5018 12.2179 230 126 30 0.236
-9.1417 -7.4002 11.4451 230 113 30 0.197
7.4132 7.7266 12.9416 230 107 30 0.176
-5.7588 -0.6797 16.5955 230 114 30 0.197
11.3691 12.0619 12.4313 230 107 30 0.176
-13.9413 4.7551 11.4720 230 140 30 0.279
7.4991 4.6281 3.4876 230 162 30 0.346
-0.9972 3.2617 11.2851 230 99 30 0.153
-12.9176 9.4059 16.6561 230 143 30 0.289
5.6551 0.8003 8.9725 230 124 30 0.228
-6.5845 1.2568 15.4752 230 151 30 0.312
11.0376 -7.1466 16.2772 230 108 30 0.179
9.0516 5.5381 7.2621 230 148 30 0.303
-2.1405 9.0903 15.5395 230 145 30 0.293
6.8837 -1.2901 4.6201 230 118 30 0.210
-10.3632 1.0787 13.0483 230 125 30 0.233
-9.0223 -2.4066 10.7167 230 130 30 0.247
-1.9039 -5.0211 7.9694 230 141 30 0.282
10.1028 6.3025 4.6472 230 139 30 0.276
-8.0414 0.9285 17.6062 230 151 30 0.313
-12.5570 9.9211 16.8619 230 126 30 0.235
8.4074 -0.6037 11.1504 230 127 30 0.239
8.8162 -1.6818 14.7086 230 140 30 0.280
12.1876 -10.8268 16.5048 230 138 30 0.272
15.2647 9.0867 10.3909 230 154 30 0.322
8.8869 -5.8003 11.0203 230 128 30 0.242
8.8520 0.5342 13.5418 230 117 30 0.207
-3.3605 -5.0736 10.7269 230 143 30 0.289
14.4211 -5.5147 20.3755 230 125 30 0.231
-12.4079 0.9350 13.9132 230 155 30 0.323
11.8003 4.7252 5.8570 230 122 30 0.223
-7.7367 2.9277 10.2191 230 128 30 0.242
5.2397 8.7979 13.2305 230 152 30 0.315
9.9696 8.2610 14.7793 230 110 30 0.186
10.9067 -3.4445 11.8065 230 112 30 0.192
8.7933 5.7948 9.8983 230 133 30 0.255
14.3665 8.4929 18.6630 230 125 30 0.232
9.9296 -0.4770 12.6479 230 111 30 0.188
11.2004 -6.9240 9.7558 230 104 30 0.167
3.1787 -5.3051 6.8020 230 154 30 0.320
-3.0455 -6.9996 13.0210 230 131 30 0.251
2.3997 3.0294 16.1898 230 98 30 0.150
-11.9341 10.5697 13.3576 230 151 30 0.312
9.7271 -4.4031 12.2370 230 121 30 0.219
-3.1744 3.9601 2.5323 230 109 30 0.184
-13.8351 5.1593 22.1893 230 138 30 0.272
-3.5337 -0.6006 11.1736 230 105 30 0.171
13.9576 9.3540 9.3454 230 146 30 0.298
13.2598 9.7276 17.4766 230 131 30 0.250
-6.6202 -1.2185 11.3273 230 157 30 0.332
18.3022 11.4365 18.0321 230 150 30 0.308
4.3282 4.3100 14.4589 230 132 30 0.254
15.6532 9.8394 10.5800 230 101 30 0.158
-9.1679 4.1375 10.4167 230 141 30 0.282
13.6041 7.9777 14.7896 230 153 30 0.317
-9.2340 -14.8482 19.2119 230 152 30 0.316
18.4684 13.9524 16.6949 230 117 30 0.206
10.6200 10.2389 14.0737 230 154 30 0.321
-6.2677 4.0448 10.7459 230 112 30 0.192
0.8205 2.4761 3.6645 230 136 30 0.266
13.5187 -2.7314 15.2381 230 103 30 0.165
-8.6589 -7.9519 13.2867 230 159 30 0.337
-11.8493 2.1072 10.9920 230 104 30 0.167
9.2506 9.7127 13.1620 230 113 30 0.195
-5.1903 -6.0982 14.2952 230 150 30 0.310
13.5155 10.4698 13.8246 230 108 30 0.179
7.7565 3.4399 15.5547 230 102 30 0.162
12.5777 6.9034 8.0392 230 155 30 0.325
13.6493 10.9185 9.6617 230 135 30 0.262
-1.6978 -8.8813 7.1966 230 116 30 0.204
5.2490 6.4610 14.1890 230 106 30 0.175
11.8349 1.4609 15.6772 230 161 30 0.343
15.7478 10.7146 15.8660 230 121 30 0.219
9.6305 0.0088 13.0031 230 102 30 0.161
-5.7448 -10.0835 13.2242 230 121 30 0.221
-11.7602 2.2714 8.4809 230 131 30 0.252
8.3095 -8.7985 14.3213 230 104 30 0.167
-5.5075 -1.1628 9.3386 230 105 30 0.172
12.4223 -3.9286 20.9062 230 158 30 0.335
10.5983 6.7649 8.0962 230 155 30 0.325
-8.9303 2.7591 14.7767 230 117 30 0.209
13.1008 -5.1552 14.7460 230 113 30 0.194
1.2154 -6.0861 9.4883 230 118 30 0.210
-6.4421 -5.8396 15.8283 230 153 30 0.319
8.0442 -0.5534 17.6007 230 126 30 0.236
9.6528 7.8314 6.5284 230 139 30 0.274
-15.2485 0.6414 13.0942 230 110 30 0.186
8.6243 -6.9934 14.4486 230 107 30 0.178
12.5934 -6.0649 9.6529 230 131 30 0.252
-11.7474 9.3708 15.0537 230 144 30 0.290
-1.1500 5.9044 9.1213 230 155 30 0.324
5.6349 3.4469 7.1281 230 138 30 0.271
5.1123 2.7881 7.0769 230 104 30 0.168
12.1009 -1.6420 16.2037 230 160 30 0.341
7.8221 -4.9640 11.8249 230 112 30 0.192
-10.6338 -1.9635 9.3264 230 140 30 0.278
-1.8292 4.7473 13.4312 230 143 30 0.286
7.7476 -2.7752 8.7227 230 142 30 0.286
10.2498 -5.8410 11.9273 230 100 30 0.155
-14.3903 2.1926 10.5982 230 110 30 0.185
6.9002 -0.9397 10.4983 230 135 30 0.263
0.0215 9.2365 9.0147 230 138 30 0.271
-8.8829 10.9734 10.5669 230 149 30 0.305
-7.1168 -2.5257 4.8404 230 107 30 0.176
4.7851 4.8964 6.0703 230 112 30 0.193
-11.4674 -11.8240 14.3489 230 115 30 0.201
17.7970 7.3541 11.8054 230 158 30 0.335
-8.7216 -1.6249 14.7866 230 146 30 0.295
16.3541 11.3236 16.0070 230 111 30 0.188
-13.8610 8.8112 14.5837 230 126 30 0.234
4.6778 5.1852 6.0010 230 142 30 0.286
-7.8596 -4.0056 6.2146 230 100 30 0.155
-10.2492 -2.5945 15.0432 230 149 30 0.306
11.3244 -6.1011 13.9911 230 100 30 0.156
-13.0870 1.3264 20.6392 230 152 30 0.317
-0.0750 8.3034 8.9118 230 152 30 0.315
4.3282 -4.4849 10.3236 230 113 30 0.196
-8.8625 0.4399 5.6207 230 107 30 0.178
8.3540 6.0841 11.5279 230 137 30 0.268
6.7636 2.6003 9.7497 230 153 30 0.318
5.4974 2.2033 13.9581 230 156 30 0.328
5.2825 5.2528 5.8058 230 117 30 0.206
-0.9518 3.2840 11.1058 230 144 30 0.291
8.0707 0.3054 8.8898 230 149 30 0.305
-7.3850 -7.0528 15.3627 230 144 30 0.291
12.0564 6.5246 9.0184 230 140 30 0.277
11.2102 -7.3806 14.6097 230 159 30 0.336
5.2003 4.4357 12.6554 230 146 30 0.298
-7.8262 2.7718 15.8158 230 142 30 0.285
7.0225 7.9396 14.8935 230 117 30 0.209
-0.0497 -4.3836 10.6623 230 139 30 0.274
9.0923 -4.4335 19.2046 230 160 30 0.339
-10.5737 -16.7362 19.5558 230 141 30 0.281
-4.8724 -0.4081 11.7123 230 135 30 0.262
-10.1811 9.1779 16.5746 230 161 30 0.343
6.8053 4.9455 12.1266 230 100 30 0.155
-6.9966 10.1333 14.2069 230 130 30 0.247
10.2678 6.4240 6.8199 230 126 30 0.235
6.9181 -5.1178 9.7267 230 115 30 0.202
11.7919 5.9066 4.0886 230 133 30 0.255
-7.7537 3.5284 11.3844 230 137 30 0.270
-12.9141 -11.0245 14.5449 230 124 30 0.230
-10.3383 -16.6000 15.9560 230 134 30 0.260
9.4543 -0.8280 13.0657 230 108 30 0.179
-6.7076 7.6830 11.8297 230 149 30 0.306
4.6108 7.4940 8.7349 230 153 30 0.317
-11.8064 -0.3405 11.4031 230 163 30 0.349
7.9937 7.1643 3.3203 230 99 30 0.154
8.0999 -4.2738 9.1444 230 128 30 0.243
8.7699 8.4061 6.9697 230 134 30 0.259
9.1225 -4.9550 13.7508 230 111 30 0.190
9.8763 7.0728 3.3217 230 141 30 0.283
1.0481 5.6464 14.3323 230 128 30 0.241
-8.0788 -16.5180 17.9090 230 98 30 0.150
12.9950 1.1697 8.1548 230 158 30 0.335
4.5020 2.3001 8.6200 230 153 30 0.319
6.3670 -4.3740 8.8021 230 131 30 0.251
-10.2881 0.1402 13.7572 230 158 30 0.335
13.7962 -6.2918 17.2264 230 123 30 0.227
13.5902 -4.0372 11.9317 230 154 30 0.322
6.4106 4.7129 11.5601 230 124 30 0.230
-11.5122 7.8382 19.8844 230 143 30 0.287
11.3928 -4.3346 12.7451 230 107 30 0.178
