ply
format ascii 1.0
comment Created by Open3D
element vertex 914
property double x
property double y
property double z
property double nx
property double ny
property double nz
property uchar red
property uchar green
property uchar blue
end_header
-0.610179 5.68023 9.54247 -0 -0 -1 170 172 169
-6.38132 7.60341 11.9407 -0 -0 -1 76 78 75
-1.30372 -18.7007 20.5219 -0 -0 -1 14 23 0
2.08469 -0.410984 2.16932 -0.885198 -0.458233 0.0802923 32 42 44
-6.76051 -15.1175 17.3494 -0 -0 -1 23 10 0
-1.34008 1.77679 11.978 -0 -0 -1 17 21 30
1.0019 -1.03271 8.354 -0 -0 -1 18 22 31
-4.48128 -2.90389 11.1283 -0 -0 -1 0 0 0
0.0927134 3.86292 2.50559 -0 -0 -1 81 83 80
-2.86333 2.50231 12.883 -0 -0 -1 18 22 31
-1.71949 7.29184 13.3172 -0 -0 -1 36 45 52
-1.06876 -16.6273 18.3529 -0 -0 -1 4 4 1
-11.8006 9.21183 13.4255 -0 -0 -1 68 70 67
1.49556 1.5102 9.66765 -0 -0 -1 16 25 32
2.98974 -0.730122 3.04816 -0 -0 -1 13 22 27
3.05811 1.34232 3.01067 -0 -0 -1 57 65 76
-1.46967 3.27885 12.3599 -0 -0 -1 16 22 31
-2.73989 -16.4288 18.1157 -0 -0 -1 2 1 0
-10.4942 6.92932 14.0441 -0 -0 -1 179 181 178
1.61768 -0.143977 9.56578 -0 -0 -1 37 46 53
-1.25804 -16.5833 18.2844 -0 -0 -1 97 103 38
-12.7073 -12.2443 10.9772 -0 -0 -1 16 7 0
-2.26745 -16.7789 18.4176 -0 -0 -1 63 63 0
6.26884 6.43596 4.40038 -0 -0 -1 86 88 85
-0.392226 6.15004 6.4961 -0 -0 -1 113 115 112
1.16229 -2.63101 9.99165 -0 -0 -1 30 41 47
-3.42846 1.63619 7.89584 -0 -0 -1 55 65 74
-2.30938 -16.4157 18.0384 -0 -0 -1 4 3 4
-6.31971 -15.0196 16.7863 -0 -0 -1 0 1 1
-3.75517 -2.172 10.5508 -0 -0 -1 16 23 31
-10.8246 1.93204 7.94828 -0 -0 -1 16 21 25
-10.2182 -12.0297 13.2044 0.937935 0.346784 0.00431963 193 193 89
-11.7116 -12.5447 12.3513 -0 -0 -1 7 5 8
-11.0653 8.07044 16.5197 -0 -0 -1 149 152 149
-10.0959 -13.4716 14.7196 -0 -0 -1 1 3 2
-7.9057 2.61207 6.05014 -0 -0 -1 35 35 42
-9.60832 -13.1649 14.7442 -0 -0 -1 1 0 6
15.1708 8.63431 17.8586 -0 -0 -1 99 101 98
4.46122 2.59621 9.94004 -0 -0 -1 57 69 81
-4.98971 2.20759 12.5261 -0 -0 -1 57 65 76
-11.4212 -12.8904 12.7102 -0 -0 -1 7 9 3
-10.314 -11.7968 11.5485 -0.603879 0.254151 -0.755471 7 9 3
6.48452 -4.90297 7.88504 -0 -0 -1 45 49 54
7.87277 -3.1312 9.88299 -0 -0 -1 31 40 45
-9.91438 -13.7489 14.3255 -0 -0 -1 3 4 5
5.86148 4.48335 4.15463 -0 -0 -1 26 21 18
-0.94623 -1.40217 7.72217 -0 -0 -1 62 71 80
5.59344 6.28908 8.75883 -0 -0 -1 63 65 62
-11.0596 -13.0694 13.7191 -0 -0 -1 0 1 1
-5.58348 6.71469 12.0089 -0 -0 -1 148 150 147
-3.82003 3.6684 4.98914 -0 -0 -1 67 69 66
-11.4499 -12.7813 12.7646 -0 -0 -1 3 4 8
-2.18653 4.1535 5.70146 -0 -0 -1 113 115 112
-8.93245 7.43337 14.8421 -0 -0 -1 100 105 101
-10.0438 -12.5388 12.5963 -0 -0 -1 7 10 0
-10.1063 -4.90774 10.9239 -0 -0 -1 55 63 74
-2.60665 -6.71878 11.0137 -0 -0 -1 56 66 76
-10.9059 -12.7408 13.957 0.796122 0.509699 -0.326186 5 1 2
-11.1244 1.67808 8.42327 -0 -0 -1 168 173 177
-0.85261 -2.46792 7.92602 -0 -0 -1 58 71 80
0.586259 7.10282 11.7743 -0 -0 -1 121 123 120
-1.55341 -18.8069 20.7073 -0 -0 -1 9 11 0
-4.92811 -17.4909 18.9468 0.554136 -0.481751 -0.678858 11 4 0
-4.41047 -4.39778 11.5408 -0 -0 -1 55 63 74
-8.44014 -14.7468 15.7584 -0.101558 -0.989808 0.0998304 7 1 0
-7.65393 -1.29402 13.0409 -0 -0 -1 39 43 52
-10.1915 -12.1754 12.0812 -0 -0 -1 6 8 0
1.90283 0.769184 2.05213 -0 -0 -1 0 0 0
-10.7087 -13.3068 13.5938 0.31612 0.494654 -0.809559 3 4 2
1.23909 -5.56501 8.83666 -0 -0 -1 32 36 47
-11.13 -13.1366 13.1176 0.832356 0.430059 -0.349619 6 8 0
-10.198 -13.2113 14.5569 -0 -0 -1 6 8 1
-10.4874 -11.0204 10.4992 -0 -0 -1 0 1 5
-6.12381 -9.87958 13.4535 -0 -0 -1 57 70 78
-4.24781 1.72642 12.4992 -0 -0 -1 57 65 76
-10.9402 -13.2761 13.38 0.807667 0.468096 -0.358553 7 3 6
3.46226 0.445312 9.06928 -0 -0 -1 15 22 30
-0.625294 -2.13039 7.2781 -0 -0 -1 31 40 47
-1.1341 6.13587 7.41772 -0 -0 -1 194 196 193
-2.97807 -1.32387 7.23281 -0.649365 -0.700922 -0.295016 55 63 74
-10.8276 -13.3732 13.5068 0.623381 -0.311511 -0.717187 7 10 0
14.5687 7.63974 8.47104 -0 -0 -1 8 13 19
-5.24459 -17.1099 18.5067 -0 -0 -1 7 8 0
5.08507 -5.99443 13.6836 -0 -0 -1 57 67 79
-3.15736 -5.12935 10.2046 -0 -0 -1 57 67 75
-10.1024 -12.3936 12.4255 -0 -0 -1 7 3 6
4.17091 2.37709 9.99557 -0 -0 -1 61 70 79
2.36009 -0.121376 2.60053 -0.677547 0.68367 0.271156 58 70 82
-5.04806 -17.2264 18.6287 -0 -0 -1 7 6 1
-3.25894 -3.37715 12.8118 -0 -0 -1 60 70 82
-1.94529 -16.877 18.4324 -0 -0 -1 9 4 0
-8.37241 -14.7702 15.5957 -0.101558 -0.989808 0.0998304 15 11 0
-8.85544 -14.0582 15.8429 -0.732777 -0.559232 0.387682 11 13 6
2.19724 -1.37647 9.29391 -0 -0 -1 55 64 73
-9.45789 -13.0047 14.6156 -0 -0 -1 2 3 0
-3.85202 2.97828 12.197 -0 -0 -1 12 21 28
-2.5934 -1.53666 7.26039 -0 -0 -1 61 70 79
-0.804918 -1.4167 4.95531 -0 -0 -1 31 40 45
-1.55915 -18.8458 20.7546 -0 -0 -1 9 11 0
8.39032 -0.71711 11.4899 -0 -0 -1 43 52 61
5.75436 8.08267 9.80296 -0 -0 -1 119 121 118
-5.34656 -0.158882 6.71819 -0 -0 -1 55 63 74
1.63812 0.0473665 10.563 -0 -0 -1 36 46 52
-1.02752 -1.35295 7.4662 -0 -0 -1 62 71 78
-2.96598 -5.12533 11.8732 -0 -0 -1 35 44 51
-0.914217 6.02314 8.23114 -0 -0 -1 127 129 126
8.80092 -3.55365 11.4107 -0 -0 -1 58 70 82
-0.610278 -2.79733 10.3925 -0 -0 -1 31 40 47
-0.163717 6.34258 7.01816 -0 -0 -1 117 119 116
2.1595 0.585073 2.60892 -0 -0 -1 16 25 32
14.4778 7.24944 9.60398 -0 -0 -1 113 114 109
-1.95695 3.20429 2.09102 -0 -0 -1 114 116 113
-9.41383 -13.8314 15.376 -0.0661193 0.0563078 -0.996222 3 3 0
-15.8964 0.517992 14.5072 -0 -0 -1 130 136 134
-12.7419 -11.2551 10.8876 -0 -0 -1 189 195 123
-9.3753 -14.2011 14.8224 -0 -0 -1 11 7 6
-5.43671 -3.31709 5.82081 0.692899 0.479382 -0.538595 53 63 73
-9.46304 -6.0187 11.4662 -0 -0 -1 15 24 33
4.1559 5.57122 5.54923 -0 -0 -1 185 187 184
7.08852 -3.22256 8.65353 -0 -0 -1 53 61 72
1.63156 0.357597 10.1433 -0 -0 -1 18 22 31
-0.736125 -0.381899 8.0864 -0.260004 -0.841262 -0.474 18 22 31
-1.41483 3.26826 12.2911 -0 -0 -1 16 27 33
-12.7047 -11.3655 10.9532 -0 -0 -1 6 9 0
-12.4966 -11.4678 11.4552 -0 -0 -1 9 6 0
-4.01116 3.08384 13.1858 -0 -0 -1 18 22 31
-9.03758 -12.8916 14.4094 -0 -0 -1 0 0 0
-4.20116 -1.60371 6.62254 -0 -0 -1 16 22 30
-11.7591 -12.1578 12.7053 -0 -0 -1 6 3 0
-6.32032 -15.7626 17.1004 -0 -0 -1 1 1 6
-1.34401 1.16689 8.35975 -0 -0 -1 13 22 29
-7.98846 -4.56372 15.3147 -0 -0 -1 18 22 31
-10.8709 -12.8433 13.8825 0.796122 0.509699 -0.326186 6 8 0
-6.82328 0.609771 6.1163 -0 -0 -1 50 59 68
-10.9913 1.75426 6.7344 -0 -0 -1 173 175 172
-3.46586 -3.33624 10.6984 -0 -0 -1 16 23 29
-3.21612 -5.33221 12.2292 -0 -0 -1 35 44 51
-10.9159 1.82034 7.0302 -0 -0 -1 110 112 109
1.35959 -1.23259 10.1987 -0 -0 -1 15 22 30
-1.04803 -16.323 17.8059 -0 -0 -1 14 22 0
1.74401 -1.62672 10.2746 -0 -0 -1 55 63 74
-8.64571 -14.1975 16.0493 -0.842897 -0.526324 0.111839 13 8 0
-8.78545 -14.1021 15.9118 -0.714574 -0.59512 0.367718 1 2 0
-1.10504 -16.9457 18.7768 -0 -0 -1 83 90 28
0.226727 -2.78694 10.6255 -0 -0 -1 31 40 47
-16.3426 7.31226 14.2824 -0 -0 -1 180 182 179
-0.692645 3.72509 3.45939 -0 -0 -1 155 157 154
-1.24247 -4.96381 9.62173 -0 -0 -1 56 66 76
-8.30065 -14.4146 16.3657 -0 -0 -1 3 5 0
-3.07035 3.36561 3.95902 -0 -0 -1 115 117 114
6.71198 5.60334 10.7951 -0 -0 -1 44 53 60
7.5383 -0.0489572 10.1527 -0 -0 -1 16 25 32
5.70974 2.27068 8.47475 -0 -0 -1 57 69 81
-3.9991 -2.3152 11.6371 -0 -0 -1 16 22 28
-13.0571 -12.2113 10.404 -0 -0 -1 3 1 2
-3.13396 -16.6197 17.8065 -0 -0 -1 0 1 2
-3.9085 -17.694 19.3642 -0 -0 -1 160 159 93
-5.0779 -17.3593 19.0012 -0 -0 -1 3 8 0
-11.6056 -4.5277 11.4713 -0 -0 -1 55 64 73
-3.14698 4.47119 13.0565 -0 -0 -1 39 48 55
3.66552 5.45348 10.7673 -0 -0 -1 18 22 31
4.11147 0.462799 2.02615 -0 -0 -1 62 64 61
-5.3732 6.49082 8.395 -0 -0 -1 203 205 202
-10.1588 -2.4133 9.83784 -0 -0 -1 11 20 27
0.301036 7.08933 12.5372 -0 -0 -1 46 57 64
-5.69218 0.433215 12.6747 -0 -0 -1 36 40 49
-11.0732 -13.107 13.2891 -0 -0 -1 4 3 2
3.67794 -0.824495 3.51866 -0 -0 -1 61 71 81
-7.26506 -14.9456 16.6361 -0 -0 -1 0 2 0
-6.36044 -14.9459 16.7048 -0 -0 -1 0 1 5
-6.95576 -0.430471 13.3315 -0 -0 -1 33 40 48
-7.4507 -15.29 16.4091 -0 -0 -1 0 3 1
-6.69734 -3.04682 5.15833 -0 -0 -1 18 22 31
1.66206 0.0396439 10.5129 -0 -0 -1 37 46 53
-9.90384 -13.8051 14.268 0.79326 0.501602 -0.345158 1 8 5
5.68703 -1.1683 9.26931 -0 -0 -1 62 70 81
6.19853 7.2602 10.3422 -0 -0 -1 59 66 72
-8.34651 -14.343 16.399 -0 -0 -1 116 118 66
-8.94519 -14.1462 15.4282 -0 -0 -1 1 0 4
-3.19241 2.03777 9.06498 -0 -0 -1 18 22 31
-2.24265 -3.17813 6.54564 -0 -0 -1 35 44 51
-8.90169 -14.5177 15.2696 -0 -0 -1 1 1 13
-7.12914 5.38596 14.1522 -0 -0 -1 53 61 72
2.68985 -1.25261 2.5652 -0 -0 -1 16 25 32
-4.47539 -4.13239 13.0767 -0 -0 -1 60 70 82
-7.66706 -15.165 16.2843 -0 -0 -1 0 0 4
-12.5617 -11.7526 11.1736 -0 -0 -1 0 0 0
2.13005 0.262916 2.32458 -0.688589 -0.0635336 -0.722364 43 52 61
-0.718337 -1.69411 8.51187 -0 -0 -1 60 70 82
-10.3861 -11.5117 11.2867 -0 -0 -1 1 0 1
-1.78376 -18.7356 20.573 -0 -0 -1 197 209 67
2.04682 -0.0446096 2.24846 -0 -0 -1 57 71 82
-1.19061 6.50047 7.99796 -0 -0 -1 194 196 193
-4.84699 -16.0842 17.4198 -0 -0 -1 7 8 0
-11.0818 1.59924 6.71008 -0 -0 -1 109 111 108
-6.53085 -15.6881 16.9872 -0 -0 -1 3 2 5
3.82539 3.64543 10.7607 -0 -0 -1 16 23 29
-4.40481 2.9284 12.9712 -0 -0 -1 57 65 76
-1.30648 -2.0075 10.9375 -0 -0 -1 60 70 82
-7.96681 -14.5753 16.7015 -0 -0 -1 56 62 29
-5.26884 -16.0114 17.422 -0 -0 -1 3 4 4
-1.61135 2.9668 12.1259 -0 -0 -1 16 23 31
-3.20375 -17.97 19.7629 -0 -0 -1 2 1 0
-10.2073 -13.1302 14.5979 -0 -0 -1 2 6 2
-5.42865 0.788049 6.67202 -0 -0 -1 36 45 52
1.02172 0.55482 10.8235 -0 -0 -1 36 45 52
-9.34095 -13.6652 15.3806 -0.0661193 0.0563078 -0.996222 114 122 17
-1.25474 -16.6694 18.3781 0.0740578 -0.733102 -0.676075 97 103 38
-9.17101 -13.7696 15.6066 -0 -0 -1 11 7 6
-0.881094 -0.291406 8.01847 -0.539636 -0.829649 0.143094 18 22 31
1.42434 -1.3633 8.61199 -0 -0 -1 0 0 0
-2.31428 -3.47876 6.4461 -0 -0 -1 58 67 76
3.56611 6.90494 11.2792 -0 -0 -1 15 23 30
-4.54936 7.4739 12.9273 -0 -0 -1 93 95 92
-8.87343 -13.9385 15.9816 -0.732777 -0.559232 0.387682 2 3 5
-10.2421 -12.0208 11.9676 -0 -0 -1 28 28 0
-3.49111 -2.11409 11.3671 -0 -0 -1 60 68 79
7.54368 -1.33959 10.8785 -0 -0 -1 16 25 32
4.37737 -1.01825 10.7258 -0 -0 -1 16 26 32
-2.44319 6.34734 8.53062 -0 -0 -1 112 114 111
-11.8216 -12.6317 12.2858 -0 -0 -1 158 162 24
-7.17507 -14.7834 17.0791 -0 -0 -1 8 8 0
-4.90913 -2.85715 5.9156 -0 -0 -1 35 39 48
-8.91401 7.46564 14.8443 -0 -0 -1 100 105 101
-4.02641 1.74426 13.0699 -0 -0 -1 16 20 29
-4.01987 -1.98024 11.8527 -0 -0 -1 54 64 74
2.58975 5.51823 4.91428 -0 -0 -1 155 157 154
2.60298 6.65955 7.65828 -0 -0 -1 177 179 176
-10.056 -12.5018 12.6131 -0 -0 -1 65 72 27
-1.0105 7.34088 12.879 -0 -0 -1 90 97 98
-7.01818 -4.52796 10.5028 -0 -0 -1 35 39 48
-0.925516 -5.97959 10.8748 -0 -0 -1 32 36 45
-8.16189 -14.7576 15.8039 0.411477 -0.472365 -0.77946 10 1 0
0.207606 7.46021 12.7468 -0 -0 -1 91 98 106
2.32054 0.680374 2.80167 -0 -0 -1 16 25 32
-0.196931 6.32013 6.43881 -0 -0 -1 155 157 154
6.47459 1.10434 8.76861 -0 -0 -1 53 61 72
-10.34 -11.7533 12.7854 -0 -0 -1 206 206 145
-11.5919 -12.6852 12.5108 -0 -0 -1 1 0 1
4.76594 -0.015037 8.51954 -0 -0 -1 53 63 73
6.44208 7.5458 11.3242 -0 -0 -1 56 67 76
2.48328 -0.53527 2.54419 -0.710485 -0.689195 -0.142204 16 25 32
2.34892 -1.97531 9.91097 -0 -0 -1 55 63 74
6.48808 -4.46278 7.30794 -0 -0 -1 60 69 86
-4.31134 5.12575 6.87758 -0 -0 -1 60 62 59
-2.56434 -2.77825 7.62945 -0 -0 -1 32 43 47
-10.163 -13.5689 14.0036 -0 -0 -1 1 3 0
-9.99441 -13.5148 15.006 -0 -0 -1 40 30 22
-3.40473 1.92806 14.7293 -0 -0 -1 18 22 31
-11.8435 -0.192837 13.9797 -0 -0 -1 39 43 52
-6.90622 -15.5114 16.7898 -0 -0 -1 5 0 9
-1.2043 -1.75022 11.1064 -0 -0 -1 62 72 81
-7.8149 2.70017 6.18998 0.053872 0.743848 -0.666174 211 216 210
-12.2205 -11.7619 12.0863 -0 -0 -1 3 0 0
-2.09227 -16.4227 17.9442 0.789186 -0.609013 -0.0792973 200 202 135
-11.6244 -12.2497 13.0062 -0 -0 -1 0 2 0
-3.3976 -16.3455 17.757 -0 -0 -1 9 9 0
-1.02728 -16.8081 18.5734 -0 -0 -1 6 7 0
1.16634 -3.99874 7.62449 -0 -0 -1 32 36 45
-10.497 -12.9137 14.1773 -0 -0 -1 2 4 0
-10.3318 -13.0545 14.3903 -0 -0 -1 1 3 11
7.45684 9.06265 14.0626 -0 -0 -1 57 67 77
-12.0145 -12.4577 11.9891 -0 -0 -1 0 1 5
-3.33643 -5.15408 10.7656 -0 -0 -1 36 45 52
-9.69184 -12.889 14.3924 -0 -0 -1 0 0 12
6.25791 -1.08193 7.50204 -0 -0 -1 61 73 85
6.16892 7.2665 10.3491 -0 -0 -1 59 66 72
10.7622 7.40477 4.99316 -0 -0 -1 40 37 30
-6.76091 -3.52566 5.61312 -0 -0 -1 14 23 30
-9.15001 -14.3459 15.0507 -0 -0 -1 0 1 2
-8.31651 -14.3417 15.7723 -0 -0 -1 0 2 1
-3.53486 -17.8861 19.5501 -0 -0 -1 0 2 3
-2.46049 -17.0829 18.9086 -0 -0 -1 2 1 0
9.37841 6.60955 14.4233 -0 -0 -1 63 74 84
-10.5919 -9.67545 9.6112 -0 -0 -1 34 35 0
2.54552 -0.199767 3.08351 -0 -0 -1 61 71 80
-12.2152 -11.8623 11.9833 -0 -0 -1 2 1 0
2.65881 -2.37915 8.68287 -0 -0 -1 16 25 32
2.44781 -0.491203 2.50425 -0.710485 -0.689195 -0.142204 15 24 31
-10.2407 -11.9688 13.215 0.937935 0.346784 0.00431963 5 1 2
6.39075 8.11368 11.5442 -0 -0 -1 93 97 96
-4.88313 6.52707 8.7655 -0 -0 -1 205 207 204
-11.7174 -12.1362 12.8834 0.865023 0.431801 -0.255504 36 34 10
-12.3863 -11.7272 11.3056 -0 -0 -1 0 2 1
-9.7991 -13.4228 15.0113 0.185874 0.813721 -0.550735 1 1 6
-0.355957 7.08897 12.0102 -0 -0 -1 163 168 164
-2.60016 -3.7965 6.70386 -0 -0 -1 35 44 51
-10.522 -10.7968 10.1483 -0 -0 -1 88 80 54
-10.0242 -13.6928 14.1545 -0 -0 -1 19 18 3
-0.0747553 4.63115 4.67577 -0 -0 -1 155 157 154
-12.5624 -11.4301 11.3113 -0.303342 -0.94659 -0.109323 34 35 0
17.3212 9.99309 17.5806 -0 -0 -1 212 214 211
-12.1794 -12.3241 11.7219 -0 -0 -1 88 80 54
-3.9486 -2.61731 6.47881 -0.3846 -0.877353 -0.28694 54 64 74
13.7585 -4.72731 20.2994 -0 -0 -1 35 44 51
-11.2238 -13.0232 13.0337 -0 -0 -1 28 28 0
8.85882 7.6727 9.03839 -0 -0 -1 95 97 94
4.20888 1.33017 3.61902 -0 -0 -1 59 68 78
-8.71024 7.53064 15.809 -0 -0 -1 30 40 45
10.8448 6.4381 6.36324 -0 -0 -1 120 122 117
-10.8401 -13.3397 13.5224 0.623381 -0.311511 -0.717187 65 72 27
3.48594 3.19486 10.1928 0.957615 -0.248937 -0.144926 18 22 31
2.39106 6.17725 6.98605 -0 -0 -1 138 140 137
-5.81807 7.20536 9.99882 -0 -0 -1 199 201 198
-2.73988 -2.74673 9.41835 -0 -0 -1 60 70 82
-3.60099 -18.0986 19.3085 -0 -0 -1 0 1 3
3.48425 3.12021 10.3099 0.957615 -0.248937 -0.144926 16 23 29
0.215111 1.66536 11.5344 -0 -0 -1 36 45 52
-10.1842 -12.1739 12.2974 -0 -0 -1 4 3 2
-2.94285 1.63469 7.87871 -0 -0 -1 18 22 31
1.46112 -0.169542 8.96669 -0 -0 -1 37 46 53
11.3927 -3.41458 17.2087 -0 -0 -1 16 25 32
-11.146 -12.6795 13.6889 -0 -0 -1 206 206 145
12.7033 -5.34657 17.5092 -0 -0 -1 61 71 83
-3.75799 3.2461 8.06079 -0 -0 -1 53 61 72
-1.54299 -18.109 20.2537 -0 -0 -1 1 0 0
3.36087 6.00279 5.4754 -0 -0 -1 119 121 118
-10.156 -13.4067 14.2822 -0 -0 -1 0 1 0
-4.45547 -16.3306 17.8111 -0 -0 -1 17 14 8
1.24061 -0.340897 1.73388 -0 -0 -1 57 67 79
-1.80308 -17.1676 19.0826 -0 -0 -1 5 3 4
6.14027 -3.7372 6.91966 -0 -0 -1 55 69 80
-9.45032 7.10558 14.4991 -0 -0 -1 99 101 96
-4.72407 7.10429 13.3464 -0 -0 -1 150 152 147
-8.67925 -14.1406 16.0642 -0.687509 -0.674334 0.269454 102 114 49
1.09486 5.23363 5.89282 -0 -0 -1 138 140 137
4.71472 -0.720068 4.55092 -0 -0 -1 184 186 183
-3.39208 0.981566 7.68549 -0 -0 -1 57 65 76
6.51315 -3.52568 7.85744 -0 -0 -1 56 70 81
-0.872587 -16.5809 18.2728 -0 -0 -1 19 26 2
-10.5833 -10.9669 11.7441 -0 -0 -1 36 34 10
5.75578 4.56946 10.0395 -0 -0 -1 44 53 62
-6.70261 -15.2153 17.6228 -0 -0 -1 130 128 86
-4.12534 3.02863 12.8282 -0 -0 -1 56 62 74
-4.85214 6.51484 8.41306 -0 -0 -1 206 208 205
8.23135 3.22287 13.1787 -0 -0 -1 0 0 0
-3.35382 -2.15632 11.5417 -0 -0 -1 60 70 82
3.77578 6.37963 10.2605 -0 -0 -1 12 20 27
-2.6135 -1.52547 6.96833 -0 -0 -1 60 70 82
-6.02287 3.56584 7.02371 -0 -0 -1 101 103 100
-11.174 -0.0205718 13.2439 -0 -0 -1 39 43 52
-0.889758 -3.28525 11.35 -0 -0 -1 31 40 47
-1.26227 6.78875 8.60083 -0 -0 -1 199 201 198
-8.99551 9.22105 16.7269 -0 -0 -1 148 150 147
-12.3717 -11.6393 11.7666 -0 -0 -1 40 48 5
-1.7108 6.8583 12.6687 -0 -0 -1 36 45 50
-10.0271 -3.09579 7.8864 -0 -0 -1 8 13 19
0.0990858 5.73926 9.62768 -0 -0 -1 119 124 120
-3.64548 -3.41949 10.9145 -0 -0 -1 0 0 0
-5.56 6.64492 9.88267 -0 -0 -1 72 74 71
-11.832 -12.233 12.3645 -0 -0 -1 1 1 3
-7.22365 0.777418 12.8397 -0 -0 -1 54 64 73
-8.67323 7.1068 15.0972 -0 -0 -1 32 35 41
-10.5558 -9.99742 9.4261 -0 -0 -1 0 1 0
-12.0648 -11.9806 12.4176 -0 -0 -1 204 212 69
10.0393 -6.6449 12.3357 -0 -0 -1 0 1 0
-14.8241 2.37455 20.2356 -0 -0 -1 36 45 52
2.56733 0.470025 8.89147 -0 -0 -1 15 24 31
1.15965 5.6988 7.27364 -0 -0 -1 135 137 134
-10.877 -12.7959 13.9417 0.796122 0.509699 -0.326186 193 193 89
-7.30209 -14.2013 16.3547 -0 -0 -1 0 0 2
-9.48398 -13.544 15.2402 -0.290468 -0.478164 -0.828848 148 157 67
-6.55166 -14.5168 16.8203 -0 -0 -1 8 14 3
-4.49827 -17.4727 19.1787 -0 -0 -1 0 4 0
-8.4827 0.267326 13.1771 -0 -0 -1 55 63 74
-5.25685 6.62087 8.7394 -0 -0 -1 54 56 53
3.73622 -0.491036 3.85095 -0 -0 -1 61 71 81
-2.90759 -4.97875 9.81532 -0 -0 -1 57 67 75
4.88664 -0.568001 3.99033 -0 -0 -1 35 44 51
9.93586 -0.532162 14.429 -0 -0 -1 44 54 63
1.03459 0.482321 9.05354 -0 -0 -1 43 52 61
-10.8522 1.68262 6.39614 -0 -0 -1 116 118 115
-1.154 -1.81391 10.9168 -0 -0 -1 60 70 79
11.3478 -1.05084 15.6921 -0 -0 -1 0 0 0
-2.54315 -16.416 17.9847 -0 -0 -1 3 1 1
14.3781 8.69903 14.9503 -0 -0 -1 158 160 157
6.07764 3.16675 8.61234 -0 -0 -1 35 40 46
-9.24863 7.13944 13.8284 -0 -0 -1 103 105 102
-2.96029 -5.20894 10.0167 -0 -0 -1 56 66 76
-6.05662 -15.8506 17.1801 -0 -0 -1 51 54 25
-2.3065 -3.50591 6.4903 -0 -0 -1 56 66 76
10.3733 10.7175 15.041 -0 -0 -1 60 65 59
-1.3785 3.40537 2.42965 -0 -0 -1 116 118 115
-6.14368 -16.0238 17.3574 -0 -0 -1 51 54 25
-6.84483 -15.2584 16.9779 -0 -0 -1 1 2 0
2.54907 4.37846 10.9682 -0 -0 -1 57 67 79
2.44049 -1.34072 2.43567 -0 -0 -1 43 54 60
-3.89796 -3.76518 10.6904 -0 -0 -1 55 63 74
11.8742 -0.927439 16.2002 -0 -0 -1 0 0 0
-5.40901 6.59234 9.0286 -0 -0 -1 205 207 204
4.44034 3.19109 10.4011 -0 -0 -1 57 69 81
3.70366 0.564489 9.47358 -0 -0 -1 17 21 30
-1.26922 -15.3921 17.3547 -0 -0 -1 1 0 1
1.21017 -1.15104 10.3848 -0 -0 -1 18 22 31
-2.46362 -6.16975 9.03364 -0 -0 -1 54 67 76
-9.80193 -13.4106 15.0284 0.185874 0.813721 -0.550735 1 1 2
-11.63 -1.6254 9.79485 -0 -0 -1 6 11 17
-0.880561 -0.471649 11.7193 -0 -0 -1 16 23 31
4.0904 0.581788 1.85936 -0 -0 -1 95 97 94
-6.9987 -15.2273 17.6372 -0 -0 -1 6 6 8
-7.16602 -0.948483 12.5317 -0 -0 -1 39 43 52
1.93452 0.427585 2.12212 -0 -0 -1 44 53 60
-3.00136 0.905311 7.99868 -0 -0 -1 18 22 31
-4.30837 -1.79933 7.35739 -0 -0 -1 18 22 31
1.81681 -1.47813 8.48768 -0 -0 -1 55 63 74
2.83274 1.82968 10.3077 -0 -0 -1 18 22 31
1.86193 -0.15486 10.539 -0 -0 -1 37 46 53
-0.845325 -3.02842 10.5773 -0 -0 -1 31 38 44
-1.9662 -19.1456 21.13 -0 -0 -1 14 1 0
1.91033 3.09981 11.1276 -0 -0 -1 18 22 31
-10.524 -10.9687 11.0948 -0 -0 -1 1 1 3
3.48594 3.1199 10.3215 0.957615 -0.248937 -0.144926 16 23 29
-3.51953 4.04328 8.12405 -0 -0 -1 35 44 51
4.42356 6.41588 9.31459 -0 -0 -1 121 124 119
8.0348 5.13948 5.88433 -0 -0 -1 0 0 0
-0.339445 2.4561 8.47608 -0 -0 -1 58 68 80
-9.75009 -3.74416 7.74273 -0 -0 -1 34 45 51
-9.10223 -4.12386 11.4906 -0 -0 -1 55 63 74
-5.46558 -3.58728 5.68032 -0.788544 0.614501 -0.024247 18 22 31
-7.2953 -14.6271 16.2699 -0 -0 -1 0 0 5
-12.2746 1.92785 14.4472 -0 -0 -1 50 59 68
-11.9507 2.73388 20.7827 -0 -0 -1 57 65 76
-1.24769 1.76262 11.7482 -0 -0 -1 17 21 30
9.00809 7.61153 9.60782 -0 -0 -1 168 170 167
8.75876 7.52695 8.03863 -0 -0 -1 87 89 86
-1.7429 1.79304 12.598 -0 -0 -1 15 24 29
-2.95526 0.935706 7.57031 -0 -0 -1 18 22 31
-8.44926 2.08385 13.5412 -0 -0 -1 36 45 52
-3.36036 -6.2771 9.66226 -0 -0 -1 32 42 51
-2.72933 -2.3124 6.81602 -0 -0 -1 18 22 31
0.97738 -2.19581 7.996 -0 -0 -1 15 20 23
-4.67433 -2.74765 11.0657 -0 -0 -1 18 22 31
7.73407 -0.352696 11.588 -0 -0 -1 53 63 73
-1.34147 1.84211 11.4596 -0 -0 -1 18 22 31
-5.3858 -1.24438 12.1767 -0 -0 -1 55 63 74
-1.89199 0.646802 11.761 -0 -0 -1 41 50 59
-7.66393 7.10018 14.7127 -0 -0 -1 49 60 64
7.18261 7.46568 10.4746 -0 -0 -1 86 88 85
-1.10329 -0.0485877 11.7549 -0 -0 -1 15 23 30
-2.21081 -2.5311 10.9285 -0 -0 -1 60 70 82
10.4984 7.32614 8.61855 -0 -0 -1 202 204 201
6.51565 8.31252 11.8499 -0 -0 -1 92 97 100
-2.74958 3.35194 3.22865 -0 -0 -1 95 97 94
0.115968 -1.02536 11.0802 -0 -0 -1 18 22 31
2.20346 -0.190049 2.41956 -0 -0 -1 58 70 82
2.92589 3.43765 15.2363 -0 -0 -1 18 22 31
-5.1846 -3.46813 5.58927 -0 -0 -1 45 55 64
-6.47937 6.73889 9.24159 -0 -0 -1 69 71 68
2.3941 -0.44219 2.53793 -0.710485 -0.689195 -0.142204 61 72 82
-5.08358 -17.1356 18.6699 -0 -0 -1 7 4 0
2.93607 0.234837 3.20465 -0 -0 -1 14 25 31
-1.33209 -1.89078 11.9332 -0 -0 -1 17 21 30
3.32115 2.92619 10.133 -0 -0 -1 0 0 0
11.2308 -1.06631 15.493 -0 -0 -1 61 71 80
-2.18827 -16.5473 17.9453 0.789186 -0.609013 -0.0792973 15 1 1
4.77402 7.38909 12.1693 -0 -0 -1 124 128 129
4.67049 -0.108643 9.8564 -0 -0 -1 53 63 73
-8.43631 -14.2381 16.1154 -0 -0 -1 98 105 67
-0.875057 -0.331302 7.86495 -0 -0 -1 18 22 31
-1.921 3.25528 2.4333 -0 -0 -1 73 75 72
-2.31505 -16.3752 17.9864 -0 -0 -1 4 3 4
-5.59478 -4.82177 10.597 -0 -0 -1 55 63 74
1.6199 -0.477677 1.62409 -0 -0 -1 56 68 80
6.73494 -0.810863 8.58888 -0 -0 -1 15 24 31
-6.56349 2.84001 6.65895 -0 -0 -1 178 182 181
-2.83632 4.09929 8.5724 -0 -0 -1 36 45 52
-11.9254 8.28868 17.2034 -0 -0 -1 180 182 179
-9.83996 7.73231 15.6104 -0 -0 -1 105 107 102
-4.95027 -4.34995 10.8412 -0 -0 -1 55 63 74
1.49538 3.45087 11.3004 -0 -0 -1 14 25 31
-5.22369 3.98452 7.26421 -0 -0 -1 149 151 148
-9.54954 -13.49 15.2321 -0.111141 -0.719828 -0.685198 130 134 10
-0.547252 -5.74837 9.20564 -0 -0 -1 28 37 42
-8.09108 -0.97272 5.07425 -0 -0 -1 14 25 29
6.35576 0.416126 11.6332 -0 -0 -1 54 65 71
5.32545 -0.755078 4.38504 -0 -0 -1 35 44 51
-14.8984 6.99574 15.7473 -0 -0 -1 207 213 210
-4.46085 6.90317 13.4533 -0 -0 -1 46 54 59
2.01906 0.365582 2.42135 -0.7007 -0.701887 -0.127965 42 51 58
0.843389 4.23199 2.96495 -0 -0 -1 0 0 0
-1.63285 2.00231 8.3624 -0 -0 -1 18 22 31
8.53934 4.96188 4.04538 -0 -0 -1 90 91 86
2.88795 0.371926 0.88753 -0 -0 -1 64 66 63
-10.6346 -10.0201 10.1943 -0 -0 -1 40 48 5
-7.44853 -4.63643 11.0292 -0 -0 -1 35 39 48
-10.0277 -13.5327 14.5283 -0 -0 -1 0 0 1
-6.1845 -2.73511 5.4208 -0 -0 -1 55 63 74
1.77488 0.230614 2.09916 -0 -0 -1 16 25 32
-5.329 -6.18541 9.43987 -0 -0 -1 34 43 50
-7.8364 -14.5658 16.4974 -0 -0 -1 3 2 0
-8.37486 -5.79436 9.44333 -0 -0 -1 18 22 31
8.34356 4.81842 4.13508 -0 -0 -1 20 19 15
-2.8497 -1.73039 7.42994 -0 -0 -1 16 23 31
1.86487 0.507761 10.6028 -0 -0 -1 16 23 31
1.10807 6.93943 12.0739 -0 -0 -1 120 125 131
15.1428 8.9385 15.2852 -0 -0 -1 158 160 157
-2.23178 -4.09602 10.3432 -0 -0 -1 35 44 51
7.10661 8.65 14.4815 -0 -0 -1 122 128 128
-9.08462 6.92929 13.37 -0 -0 -1 102 104 101
16.0844 8.04133 10.9979 -0 -0 -1 35 32 25
2.51306 6.6534 7.81505 -0 -0 -1 177 179 176
1.56093 6.83889 11.5557 -0 -0 -1 13 17 26
-0.107968 6.28653 6.96666 -0 -0 -1 117 119 116
-8.25832 2.37589 6.14092 -0 -0 -1 41 50 59
2.70221 0.0833038 2.86352 -0 -0 -1 16 25 32
-9.61758 -13.1828 14.8233 -0 -0 -1 3 1 1
2.46962 -1.29629 2.36081 -0 -0 -1 16 25 34
-2.74094 3.50526 3.21979 -0 -0 -1 96 98 95
-10.5762 7.26848 14.9591 -0 -0 -1 180 182 179
-10.6176 -5.57638 10.1904 -0 -0 -1 57 66 73
-6.75906 -3.46021 5.81945 -0 -0 -1 55 63 74
-0.862605 -0.216703 11.187 -0 -0 -1 18 22 31
-1.28925 4.27057 5.24407 -0 -0 -1 196 198 195
3.38343 -1.69488 3.11637 -0 -0 -1 43 52 61
-1.95416 3.3207 2.67161 -0 -0 -1 72 74 71
-5.64293 3.41615 6.91283 -0 -0 -1 101 103 98
1.31143 -5.57738 8.74769 -0 -0 -1 32 36 47
-0.0538745 7.16407 12.2498 -0 -0 -1 170 173 173
-3.85329 3.53571 4.99732 -0 -0 -1 203 205 202
-7.34015 1.07634 13.4211 -0 -0 -1 54 64 74
3.96227 -2.6439 9.05428 -0 -0 -1 16 25 32
6.22276 7.75348 10.8247 -0 -0 -1 62 64 60
3.63785 0.112004 8.62711 -0 -0 -1 52 64 73
-1.87239 -19.037 21.0039 -0 -0 -1 14 5 1
-4.06417 5.1984 6.99603 -0 -0 -1 201 203 200
-11.0818 -4.37776 11.0111 -0 -0 -1 54 64 74
-12.388 -11.8306 11.3511 -0 -0 -1 0 0 1
8.06014 5.45282 6.29035 -0 -0 -1 0 0 0
2.20311 -0.187172 2.4027 -0 -0 -1 58 70 82
1.6458 0.354426 9.88524 -0 -0 -1 18 22 31
-5.96113 3.34715 6.85871 -0 -0 -1 103 105 102
4.73196 7.15096 9.65648 -0 -0 -1 93 95 92
-9.23207 -15.7307 17.4575 -0 -0 -1 0 1 1
-2.09661 -16.4314 17.9676 0.789186 -0.609013 -0.0792973 200 202 135
1.16393 -1.2336 8.34013 -0 -0 -1 18 23 29
-5.8478 4.06699 4.91398 -0 -0 -1 121 123 120
2.0608 0.285558 2.3886 -0.688589 -0.0635336 -0.722364 43 52 60
-4.32797 -0.30076 6.92363 -0 -0 -1 36 40 49
0.0505844 6.86858 10.4273 -0 -0 -1 127 129 126
-1.44368 4.2685 9.06292 -0 -0 -1 94 99 95
-8.57924 -5.20971 10.4282 -0 -0 -1 55 64 73
-0.151464 6.24006 6.72857 -0 -0 -1 115 117 114
0.845867 7.60251 9.26609 -0 -0 -1 193 195 192
-3.66716 -3.56092 10.581 -0 -0 -1 54 64 74
-0.912688 -1.48807 11.0105 -0 -0 -1 18 22 31
-0.897187 -0.199601 11.4327 -0 -0 -1 18 22 31
1.42346 -0.219462 8.35845 -0 -0 -1 37 46 53
-7.04063 -14.749 16.9496 -0 -0 -1 50 50 23
3.6702 3.27621 10.4511 -0 -0 -1 18 22 31
-0.71648 -2.2466 7.26288 0.266108 -0.0829898 -0.960364 31 40 45
-8.27986 -14.8836 15.818 0.72134 -0.686223 -0.0936302 130 136 10
-8.59357 -14.6702 15.5382 0.197043 -0.753403 -0.627342 118 117 68
-3.39009 -2.01726 6.98056 -0 -0 -1 18 22 31
-12.2301 -3.07388 11.7738 -0 -0 -1 18 22 31
2.2503 -1.08322 2.27567 -0 -0 -1 43 52 61
4.16442 0.170608 9.20375 -0 -0 -1 53 63 73
-4.28517 7.02135 14.0104 -0 -0 -1 36 45 52
-0.842147 -3.73244 7.03098 -0 -0 -1 56 66 76
-3.87272 -2.61655 6.37479 -0 -0 -1 55 63 74
-1.15511 6.43659 7.76618 -0 -0 -1 195 197 194
2.54714 -5.01823 8.09747 -0 -0 -1 45 57 64
-9.1962 6.09259 14.5991 -0 -0 -1 34 38 47
-3.10155 6.58753 13.7692 -0 -0 -1 36 45 52
-6.89758 7.78552 12.1784 -0 -0 -1 70 72 69
-6.1067 -2.86235 5.56952 -0 -0 -1 55 63 74
7.71085 -4.42198 9.76174 -0 -0 -1 57 67 73
-6.88743 0.574942 6.49324 -0 -0 -1 50 59 68
3.3289 2.95849 10.1538 -0 -0 -1 18 22 31
-9.89771 -4.60899 10.5423 -0 -0 -1 55 63 74
-9.64004 -13.3919 15.1106 0.495655 -0.45163 -0.741861 11 2 3
-8.10798 -14.7274 15.5985 -0 -0 -1 12 11 0
-4.71999 6.04122 8.10051 -0 -0 -1 0 0 0
-7.89349 -14.4023 16.6307 -0 -0 -1 7 2 1
-10.0341 -13.2044 14.7979 -0 -0 -1 7 3 6
-0.604107 -4.54746 6.86781 -0 -0 -1 54 67 75
-8.56694 -14.6714 15.548 0.197043 -0.753403 -0.627342 118 117 68
-5.64291 -3.08518 5.66763 -0 -0 -1 55 64 73
-9.44504 7.96667 16.1151 -0 -0 -1 146 151 147
-5.23136 3.57117 7.37161 -0 -0 -1 51 58 64
-8.07643 -14.8802 15.9233 -0 -0 -1 1 0 4
2.71089 -0.834298 2.7991 -0 -0 -1 16 25 32
-5.56313 3.4637 6.65846 -0 -0 -1 101 103 100
-4.06762 6.42032 7.24213 -0 -0 -1 114 116 113
-4.98732 1.59613 8.6891 -0 -0 -1 57 65 76
-1.36465 2.32037 9.05833 -0 -0 -1 17 22 31
1.97217 -1.68081 8.11029 -0 -0 -1 55 63 74
-4.7819 -17.368 18.9789 0.554136 -0.481751 -0.678858 0 3 0
-9.8321 -13.9689 15.1196 -0 -0 -1 0 1 2
-6.04834 -3.82997 11.1899 -0 -0 -1 55 63 74
17.9522 3.99448 11.5089 -0 -0 -1 42 40 32
-10.9866 6.95052 15.3437 -0 -0 -1 26 31 39
-0.562216 -0.380918 11.021 -0 -0 -1 18 22 31
-2.73925 -17.1785 18.9354 -0 -0 -1 2 1 0
-2.4116 5.93034 9.35844 -0 -0 -1 127 129 126
12.5869 5.34136 7.08614 -0 -0 -1 34 30 21
1.62791 -0.193022 1.76826 -0 -0 -1 0 0 0
-1.4695 3.24907 2.31259 -0 -0 -1 117 119 116
-11.8302 6.18915 16.5821 -0 -0 -1 34 38 47
-5.37841 -3.47237 5.7576 -0.786562 0.362472 -0.499934 17 21 30
-6.82545 2.98496 6.79592 -0 -0 -1 53 60 68
-3.27462 1.38863 10.38 -0 -0 -1 17 21 30
-0.707637 -2.77423 9.82344 -0 -0 -1 30 39 46
-0.745206 -1.21776 7.82179 -0 -0 -1 8 11 15
-7.73264 5.97149 15.1873 -0 -0 -1 53 62 71
-5.84351 -4.09301 11.2874 -0 -0 -1 55 64 73
-5.18086 6.42824 9.53141 -0 -0 -1 72 74 71
-0.732888 -0.398516 8.12837 -0.269386 -0.902333 -0.336491 16 23 31
-9.43006 -12.7151 14.3549 -0 -0 -1 13 3 2
3.99345 7.43081 11.7853 -0 -0 -1 14 21 30
2.31514 0.25884 2.59547 -0 -0 -1 43 52 61
8.91253 7.7317 5.8726 -0 -0 -1 180 182 179
3.9951 2.12965 9.77991 -0 -0 -1 60 70 80
-2.30151 1.48347 8.08649 -0 -0 -1 18 22 31
-11.5434 -10.7835 10.2359 -0 -0 -1 0 2 1
-1.51192 3.51082 2.61902 -0 -0 -1 72 74 71
2.83062 5.3625 3.64075 -0 -0 -1 124 126 123
-3.42362 -2.97171 6.56999 -0 -0 -1 55 63 74
2.39567 -0.0789412 2.59672 -0.677547 0.68367 0.271156 62 71 82
1.79356 0.376115 10.3766 -0 -0 -1 15 19 28
1.25806 -0.151642 10.3158 -0 -0 -1 16 23 31
-6.41499 -14.1095 16.3937 -0 -0 -1 2 6 2
-5.0988 -4.19696 5.74337 -0 -0 -1 45 56 62
-0.778664 -2.34638 7.25427 0.328892 -0.124206 -0.936164 30 40 49
-3.5245 -1.8402 11.775 -0 -0 -1 37 46 51
1.73965 3.58001 10.7962 -0 -0 -1 57 67 79
7.54551 8.50618 11.9445 -0 -0 -1 95 98 96
-6.52321 -2.70612 5.53778 -0 -0 -1 55 63 74
0.00260212 -0.866505 8.18441 -0 -0 -1 18 22 31
-0.030537 0.025405 8.53111 -0 -0 -1 16 25 32
3.59396 0.65438 9.48532 -0 -0 -1 18 22 31
-0.66003 -3.57215 6.81926 -0 -0 -1 29 36 44
2.11084 5.15897 4.50316 -0 -0 -1 155 157 154
5.27994 1.34404 8.64189 -0 -0 -1 35 39 48
-6.29723 -3.45653 5.22599 -0 -0 -1 18 22 31
-5.86704 -2.68215 11.9305 -0 -0 -1 18 22 31
-3.04728 -1.28171 7.285 -0 -0 -1 55 63 74
1.37157 -2.58608 9.51671 -0 -0 -1 31 40 47
-0.866673 -2.46898 7.55049 -0 -0 -1 60 69 78
7.59914 8.48306 12.0521 -0 -0 -1 51 64 69
-6.95125 -1.79561 5.72077 -0 -0 -1 17 21 30
-10.1997 -12.0789 13.1319 0.937935 0.346784 0.00431963 6 8 0
3.77242 3.36077 10.394 0.664525 -0.741698 0.091051 18 22 31
-4.10983 -1.32556 6.69718 -0 -0 -1 55 63 74
-8.97289 -13.6338 15.0552 -0 -0 -1 1 1 2
-4.17532 -1.41392 6.71032 -0 -0 -1 55 63 74
1.0192 -0.326384 8.92576 -0 -0 -1 18 22 31
-1.03079 5.80213 7.19827 -0 -0 -1 0 0 0
11.4956 9.49905 10.3239 -0 -0 -1 86 88 85
2.69121 0.0406345 1.94217 -0 -0 -1 64 70 82
1.60065 -1.30442 8.53878 -0 -0 -1 55 63 74
-3.64973 4.00534 5.34015 -0 -0 -1 204 206 203
1.57085 0.0485474 2.00395 -0 -0 -1 60 72 84
-6.83223 5.41771 10.7732 -0 -0 -1 101 103 98
-5.25703 6.37557 9.99732 -0 -0 -1 149 151 148
11.463 -3.57186 12.0866 -0 -0 -1 15 24 31
1.12579 3.03419 9.44752 -0 -0 -1 58 68 77
1.27776 4.5355 10.2164 -0 -0 -1 57 67 79
-4.67299 -7.16811 12.7321 -0 -0 -1 54 67 76
-4.28322 -1.49741 7.09695 -0 -0 -1 53 61 72
-2.9112 -1.31607 7.0671 -0 -0 -1 54 62 73
-0.265164 5.59908 8.91181 -0 -0 -1 94 96 93
3.07728 -1.19297 2.81363 -0 -0 -1 43 52 61
-4.06318 2.65499 12.1339 -0 -0 -1 55 65 75
-4.07539 -1.74317 6.84676 -0 -0 -1 18 22 31
-0.463062 -1.30535 9.58058 -0 -0 -1 17 22 31
1.8965 0.47471 2.36548 -0 -0 -1 43 52 61
3.56445 5.86297 5.39626 -0 -0 -1 183 185 182
0.0242592 -2.91092 7.01821 -0 -0 -1 46 56 65
-4.40877 -2.80279 10.8361 -0 -0 -1 0 0 0
-6.37614 -3.15414 5.40602 -0 -0 -1 55 63 74
-0.0603315 -0.842252 7.99735 -0 -0 -1 18 22 31
-5.97744 4.13866 8.03716 -0 -0 -1 102 104 101
-12.9844 1.80071 10.5513 -0 -0 -1 199 201 199
6.12546 6.39109 4.2696 -0 -0 -1 139 141 138
-0.931624 -2.32996 7.19835 -0 -0 -1 58 68 77
-8.41231 -14.311 16.1324 -0 -0 -1 1 7 0
1.0644 4.647 10.0471 -0 -0 -1 12 22 30
-0.903246 -1.25081 7.54569 0.720564 -0.518265 -0.46064 14 22 30
1.88731 -3.99713 6.91575 -0 -0 -1 46 56 65
-2.35931 -3.4377 6.72682 -0 -0 -1 34 45 51
3.85397 3.44149 10.4563 -0 -0 -1 15 23 30
-0.914422 -0.26908 8.08943 -0 -0 -1 15 22 30
3.61237 5.43188 10.6817 -0 -0 -1 18 22 31
-5.31983 -17.2905 18.6849 -0 -0 -1 7 8 0
1.11632 6.28424 10.6787 -0 -0 -1 15 22 28
6.56323 -2.10465 7.4897 -0 -0 -1 15 24 31
-0.881906 5.67406 9.64465 -0 -0 -1 165 167 164
-2.49399 -2.36772 6.9817 -0 -0 -1 59 71 83
-12.6562 -11.4033 11.3397 -0 -0 -1 33 35 0
-5.50978 -3.24478 5.79115 -0 -0 -1 55 63 74
-4.77655 -0.3902 7.35648 -0 -0 -1 55 63 74
-2.09144 -4.25385 6.40293 -0 -0 -1 56 66 76
-1.72935 -2.98884 6.96853 -0 -0 -1 35 44 51
-4.96336 -1.31184 11.5989 -0 -0 -1 0 0 0
-10.5168 -9.37598 9.06274 -0 -0 -1 189 195 123
-4.04015 0.026799 7.15069 -0 -0 -1 36 40 49
-3.81701 1.2266 7.78187 -0 -0 -1 57 65 76
-1.47168 -4.05631 6.66593 -0 -0 -1 56 66 76
2.92121 -0.110572 3.03956 -0 -0 -1 15 24 31
-3.68365 -0.989042 7.00373 -0 -0 -1 55 63 74
-1.72736 -1.91779 7.40131 -0 -0 -1 60 70 82
12.2194 10.144 11.8071 -0 -0 -1 93 95 92
-7.43496 4.85582 9.8492 -0 -0 -1 147 152 147
-8.2617 7.1301 14.4231 -0 -0 -1 150 152 147
-7.19474 4.16128 8.36198 -0 -0 -1 177 182 176
-1.42806 -15.0643 16.7013 -0 -0 -1 1 4 1
-0.178859 4.45935 4.35545 -0 -0 -1 155 157 154
-9.58191 -13.5706 15.2899 -0.242254 -0.603808 -0.759427 132 134 11
-1.34297 1.14904 8.28433 -0 -0 -1 13 22 29
-1.12264 4.9913 7.84902 -0 -0 -1 128 130 127
-3.0684 -16.4254 18.0089 -0 -0 -1 0 2 3
10.3253 -4.7602 13.1879 -0 -0 -1 0 0 0
0.993042 4.79679 10.3415 -0 -0 -1 51 60 69
-0.868484 -16.6833 18.3757 -0 -0 -1 19 26 2
-2.54156 -3.49071 6.42987 -0 -0 -1 35 44 51
3.04519 1.41248 10.2174 -0 -0 -1 44 54 63
-3.45168 -16.3415 17.9331 -0 -0 -1 157 157 91
1.87917 4.85696 3.39953 -0 -0 -1 155 157 154
5.0716 1.29261 11.0025 -0 -0 -1 61 71 83
3.93694 0.256832 9.2945 -0 -0 -1 54 64 73
-12.4166 -11.584 11.7662 -0 -0 -1 66 76 11
-3.80231 4.31701 8.02452 -0 -0 -1 149 154 147
2.35851 0.30319 2.67619 -0 -0 -1 43 52 61
-0.0702844 2.28565 12.2409 -0 -0 -1 40 49 56
-3.64673 3.52456 4.75789 -0 -0 -1 60 62 59
4.43847 0.662593 10.3534 -0 -0 -1 61 71 83
-1.35607 2.38763 9.29251 -0 -0 -1 16 20 29
-3.52627 3.58572 4.86595 -0 -0 -1 202 204 201
0.897195 5.78222 9.89375 -0 -0 -1 18 22 33
2.25542 1.85864 9.31354 -0 -0 -1 16 25 32
-4.24423 -0.752159 7.13994 -0 -0 -1 55 64 73
-3.05771 -0.592638 7.80713 -0 -0 -1 55 63 74
0.790645 0.319667 8.70648 -0 -0 -1 36 45 52
8.27123 -2.29849 10.5229 -0 -0 -1 55 72 80
0.104601 3.95368 2.70743 -0 -0 -1 81 83 80
2.47294 -0.524553 2.55096 -0.710485 -0.689195 -0.142204 15 26 30
2.43902 5.96774 10.8957 -0 -0 -1 18 22 31
1.11115 -1.12614 8.14543 -0 -0 -1 0 0 0
-4.81289 -2.9621 6.1483 -0 -0 -1 35 39 48
-1.55699 -3.64615 11.4199 -0 -0 -1 60 70 80
-2.76496 -2.56781 6.70628 -0 -0 -1 55 63 74
-0.666773 -3.7834 7.21497 -0 -0 -1 56 66 76
-10.5321 -9.51289 9.14693 -0 -0 -1 6 9 0
15.3267 12.0783 13.2624 -0 -0 -1 120 122 119
-1.55315 -16.7333 18.413 -0 -0 -1 0 6 0
-5.11471 -4.24141 5.53246 -0 -0 -1 46 55 62
-5.5149 -2.58649 6.07658 -0 -0 -1 54 64 73
-3.81683 -4.20278 5.76867 -0 -0 -1 44 55 61
0.807002 6.02816 10.1376 -0 -0 -1 17 21 28
-0.409696 5.18955 8.18106 -0 -0 -1 92 94 91
-8.54706 -14.7472 15.6453 -0.33503 -0.93042 -0.148572 21 18 0
-4.02425 -2.60479 6.54194 -0 -0 -1 55 63 74
-0.636837 5.43155 9.31614 -0 -0 -1 166 168 165
-3.50149 3.98643 6.99708 -0 -0 -1 97 99 96
1.03476 -1.08552 8.15759 -0 -0 -1 18 22 31
-1.79555 5.23287 9.62828 -0 -0 -1 36 44 51
-6.2092 -3.76811 4.59566 -0 -0 -1 48 56 65
3.97761 0.537193 9.83569 -0 -0 -1 17 21 30
-10.0958 -13.4642 14.7203 -0 -0 -1 1 3 2
-3.62669 4.0739 7.99159 -0 -0 -1 36 46 53
-6.77666 2.9406 6.67287 -0 -0 -1 53 60 68
-2.13383 4.23741 5.78771 -0 -0 -1 113 115 112
2.07234 0.263338 9.64448 -0 -0 -1 43 52 61
-4.01277 -4.14356 5.88388 -0 -0 -1 45 56 62
-5.38487 -3.48569 5.63019 -0.788544 0.614501 -0.024247 17 22 30
-2.83328 -2.28029 6.99276 -0 -0 -1 18 22 31
4.43876 2.31688 10.2239 -0 -0 -1 57 69 81
2.147 0.0161401 3.22308 -0 -0 -1 0 0 0
-5.5591 3.5691 7.75691 -0 -0 -1 33 38 44
-0.243966 -3.8047 7.11834 -0 -0 -1 32 36 45
4.12957 1.99807 11.2145 -0 -0 -1 18 22 31
-5.32934 3.74423 7.19834 -0 -0 -1 147 149 146
-7.45655 -15.0583 17.3515 -0 -0 -1 128 135 45
-5.88123 3.0721 7.25362 -0 -0 -1 34 38 47
-0.0648967 3.15849 11.0253 -0 -0 -1 41 50 57
-10.6181 -10.363 10.4981 -0 -0 -1 2 1 0
3.87568 2.03302 9.69077 -0 -0 -1 36 42 48
-1.98526 3.05671 2.22179 -0 -0 -1 170 172 169
-1.41651 4.36767 5.55901 -0 -0 -1 193 195 192
2.47087 -0.0177926 2.61355 -0.677547 0.68367 0.271156 14 25 31
-7.64108 2.69419 6.14063 -0 -0 -1 47 57 59
-8.0074 2.75017 6.17469 -0 -0 -1 209 211 208
-10.0092 -12.5721 12.8062 -0 -0 -1 3 4 2
1.95825 5.37579 3.66502 -0 -0 -1 81 83 80
1.31579 2.65249 9.36278 -0 -0 -1 16 23 31
-11.7757 1.75307 9.18036 -0 -0 -1 27 30 35
4.15026 5.48988 10.0754 -0 -0 -1 57 67 77
-2.92663 -1.70179 7.11283 -0 -0 -1 17 23 29
2.43056 4.12158 10.469 -0 -0 -1 57 67 79
0.890085 5.27564 5.05522 -0 -0 -1 155 157 154
-8.15457 -15.0777 16.1341 -0 -0 -1 5 1 5
-6.87658 -0.313349 7.17315 -0 -0 -1 39 43 52
-5.45787 3.27523 6.20214 -0 -0 -1 144 146 143
-10.8834 8.51846 15.9521 -0 -0 -1 0 0 0
-6.8798 -14.8644 17.1057 -0 -0 -1 10 5 1
-10.5668 -10.9577 11.5231 -0 -0 -1 6 3 0
-9.33368 -12.6927 14.1229 -0 -0 -1 0 6 0
5.45186 6.4539 12.932 -0 -0 -1 13 21 32
-6.0464 3.15224 6.04466 -0 -0 -1 181 183 180
-2.10892 -18.5325 20.3539 -0 -0 -1 5 2 3
2.38394 -0.415209 2.46322 -0.710485 -0.689195 -0.142204 62 72 81
-5.53739 3.53457 6.7692 -0 -0 -1 103 105 102
-9.80668 -3.99347 7.66236 -0 -0 -1 36 43 49
1.35005 -1.2803 10.2748 -0 -0 -1 18 22 31
3.18264 -0.446057 2.99181 -0 -0 -1 61 71 83
-6.29099 3.13109 6.88453 -0 -0 -1 33 37 47
-3.90673 -4.33684 6.03043 -0 -0 -1 45 55 64
0.263846 5.74284 10.2849 -0 -0 -1 47 56 65
-6.60124 -2.58791 5.52965 -0 -0 -1 55 63 74
1.47461 -0.404202 1.48378 -0 -0 -1 56 68 80
3.94583 0.331912 9.34433 -0 -0 -1 51 63 72
-0.885627 -1.11672 7.42238 -0 -0 -1 18 22 31
-4.65969 1.26642 7.04928 -0 -0 -1 57 65 76
-1.37596 3.08079 11.9411 -0 -0 -1 18 22 31
2.81111 -0.0785033 2.84105 -0 -0 -1 16 25 32
1.32853 0.471413 9.62078 -0 -0 -1 36 45 52
-5.42225 -16.6028 18.0832 -0 -0 -1 0 0 0
-8.64745 -14.2114 15.9706 -0.687509 -0.674334 0.269454 12 11 0
-6.03874 3.2951 6.77072 -0 -0 -1 92 94 91
-0.0448296 4.7475 4.97022 -0 -0 -1 114 116 113
-3.20912 1.70554 7.70413 -0 -0 -1 14 23 28
-6.28161 -14.8009 17.0776 -0 -0 -1 83 89 29
-5.73447 -15.4166 18.0039 -0 -0 -1 0 0 0
-5.95778 -5.53819 14.337 -0 -0 -1 32 41 46
-1.6869 -16.5466 18.232 -0 -0 -1 7 5 5
-4.86201 -17.3371 18.8916 0.554136 -0.481751 -0.678858 72 70 55
-7.79742 -2.19812 15.3548 -0 -0 -1 55 63 74
6.50466 -0.878526 8.04894 -0 -0 -1 60 73 82
-5.65348 7.84471 13.7321 -0 -0 -1 92 94 91
-8.25142 2.40892 6.01308 -0 -0 -1 41 50 59
-7.58563 -6.52583 14.2296 -0 -0 -1 55 63 74
1.13359 0.297174 2.0613 -0 -0 -1 53 63 73
1.70935 6.31995 11.1275 -0 -0 -1 12 19 27
-10.7001 -10.4548 9.14524 -0 -0 -1 16 7 0
-8.31569 -14.9298 15.8812 -0 -0 -1 4 3 0
4.7629 2.68709 9.35644 -0 -0 -1 57 69 81
-10.6133 -9.79488 9.82195 -0 -0 -1 9 6 0
-1.76711 -18.8119 20.7716 -0 -0 -1 91 96 35
-10.6539 -10.2759 10.6301 -0 -0 -1 3 0 0
4.32712 6.2461 8.36726 -0 -0 -1 92 94 91
-0.237717 6.21378 6.49324 0.192586 -0.504588 -0.841607 155 157 154
3.7522 3.31284 9.70195 -0 -0 -1 13 22 27
-4.20226 -0.626724 12.4291 -0 -0 -1 55 64 73
1.55154 6.85475 11.5765 -0 -0 -1 16 21 27
4.88641 -2.87256 7.94731 -0 -0 -1 57 67 79
-10.4419 -11.299 10.8909 -0 -0 -1 158 162 24
-10.6375 -10.5509 11.0209 -0 -0 -1 204 212 69
-9.52021 -13.7071 15.3901 0.177324 -0.218464 -0.959599 13 1 2
7.56044 -0.0929297 10.3913 -0 -0 -1 15 24 31
2.66012 6.14899 7.26958 -0 -0 -1 176 178 175
-8.80227 -1.56927 14.1826 -0 -0 -1 39 43 52
-10.5395 -11.1187 11.8987 -0 -0 -1 0 2 0
-9.79854 -6.42121 13.6698 -0 -0 -1 35 39 48
5.28591 1.35155 8.50928 -0 -0 -1 35 39 48
9.72847 -5.37445 12.9222 -0 -0 -1 16 25 32
2.7611 6.02429 10.8149 -0 -0 -1 18 22 31
-0.452662 -4.9376 9.83675 -0 -0 -1 32 36 45
-10.4804 -9.1619 13.4427 -0 -0 -1 0 0 0
3.80152 3.28122 9.49961 -0 -0 -1 18 22 33
-10.431 -11.3157 11.0803 -0 -0 -1 7 5 8
-10.3473 -11.6824 11.6137 -0.603879 0.254151 -0.755471 3 4 8
-10.3417 -11.6776 11.6108 -0.603879 0.254151 -0.755471 3 4 8
-11.1722 -10.5482 8.58897 -0 -0 -1 3 1 2
-0.787274 -0.627063 8.30584 -0 -0 -1 63 73 83
3.77746 6.51658 10.2589 -0 -0 -1 93 101 107
4.37538 6.14724 8.22804 -0 -0 -1 92 94 91
-10.9548 9.40515 13.3413 -0 -0 -1 206 208 205
-12.6623 -12.2396 16.1142 -0 -0 -1 45 56 62
12.0281 -10.0629 15.4549 -0 -0 -1 43 52 61
8.05464 -5.34228 9.21888 -0 -0 -1 43 52 61
4.29669 -1.06417 9.58544 -0 -0 -1 62 72 82
-8.55017 0.0223666 16.4666 -0 -0 -1 36 40 49
6.19827 -2.23752 7.06359 -0 -0 -1 35 40 46
1.52323 -0.260608 1.61938 -0 -0 -1 35 39 48
13.6889 -0.233848 8.78985 -0 -0 -1 140 142 139
-1.78515 -0.459213 12.8945 -0 -0 -1 16 20 29
8.55313 -5.4032 10.5553 -0 -0 -1 43 52 61
2.29686 -1.40521 9.33086 -0 -0 -1 55 63 74
5.07123 -2.29658 7.07835 -0 -0 -1 57 67 77
9.62826 -5.13675 12.4509 -0 -0 -1 16 25 32
0.402525 5.73884 9.07854 -0 -0 -1 94 96 93
-12.5802 1.19335 7.19998 -0 -0 -1 149 151 148
0.733393 5.02278 4.78898 -0 -0 -1 155 157 154
-5.53001 2.75385 16.6469 -0 -0 -1 0 0 0
-1.31769 -18.8077 20.6721 -0 -0 -1 44 57 9
3.46813 -0.243921 3.30925 -0 -0 -1 35 44 49
2.01458 -0.285733 2.11124 -0.885198 -0.458233 0.0802923 58 71 79
2.02234 -0.314227 2.0342 -0.885198 -0.458233 0.0802923 33 40 46
2.48566 -0.00782622 2.63739 -0.677547 0.68367 0.271156 16 25 30
2.44381 -0.028009 2.57963 -0.677547 0.68367 0.271156 14 25 31
1.91575 0.10405 2.23059 -0 -0 -1 16 25 32
1.82105 -0.417772 1.90258 -0 -0 -1 53 61 72
1.44137 0.591051 2.00025 -0 -0 -1 53 61 72
-1.59068 -16.6705 18.3509 -0.112018 -0.73188 -0.672163 0 4 0
-0.550507 -0.447241 8.11302 -0.283469 -0.925515 0.25113 15 24 30
-0.538957 -0.403446 8.26687 -0 -0 -1 16 25 32
2.47906 0.308847 2.8838 -0 -0 -1 16 25 30
2.05874 -0.338679 2.39558 -0 -0 -1 58 71 80
2.336 -0.949913 2.36047 -0 -0 -1 42 51 56
5.61751 -0.403399 10.4164 -0 -0 -1 35 44 51
6.09153 -2.65046 10.1131 -0 -0 -1 61 71 83
-0.749812 -1.45317 7.45945 -0 -0 -1 0 0 0
4.93005 -1.81689 9.4397 -0 -0 -1 0 0 0
3.21684 0.485566 3.38626 -0 -0 -1 0 0 0
3.47334 -0.518662 2.59574 -0 -0 -1 18 27 36
5.51853 -2.47883 4.31644 -0 -0 -1 36 45 52
0.325177 -1.11261 4.69001 -0 -0 -1 59 73 84
2.44789 0.746084 2.86407 -0 -0 -1 45 54 63
2.68348 1.83304 2.24243 -0 -0 -1 195 197 194
1.75044 -0.250104 3.00913 -0 -0 -1 0 0 0
0.109694 -2.72659 8.14363 -0 -0 -1 0 0 0
6.88124 7.32652 10.4332 -0 -0 -1 0 0 0
9.46238 4.218 14.211 -0 -0 -1 0 0 0
4.23573 2.11785 4.57805 -0 -0 -1 40 49 58
