ply
format ascii 1.0
element vertex 1104
property float x
property float y
property float z
property uchar red
property uchar green
property uchar blue
property float confidence
end_header
-6.4861 7.0931 11.8958 129 209 20 0.694
-3.6808 -2.1515 11.5956 40 207 40 0.837
-12.5583 -11.7246 10.9412 26 218 26 0.892
4.3584 -5.7454 13.6512 142 206 20 0.661
-10.8316 -9.8154 10.3840 21 222 21 0.914
-1.1229 3.3861 12.4319 113 213 20 0.738
2.3972 -1.3676 12.4764 100 217 20 0.771
6.2963 -3.1421 8.7214 129 209 20 0.694
-1.5832 6.1167 7.9910 32 214 32 0.870
-1.4067 5.5343 8.1409 26 218 26 0.892
-3.1909 3.0378 3.2070 96 218 20 0.782
-10.3787 6.4568 13.9859 100 217 20 0.771
-8.3744 2.1409 6.0714 109 214 20 0.749
-1.6337 5.6967 7.4029 43 205 43 0.826
3.3686 1.7661 14.2266 121 211 20 0.716
5.5057 -1.1068 7.5973 121 211 20 0.716
-11.5577 -11.9681 12.2905 4 236 4 0.980
0.5663 -4.7223 9.0275 117 212 20 0.727
14.3466 4.0969 18.2881 142 206 20 0.661
-5.2386 6.2116 8.5712 96 218 20 0.782
-4.0958 -2.1763 10.5889 43 205 43 0.826
3.6100 2.8509 10.2158 43 205 43 0.826
-7.7653 -13.7417 16.3309 4 236 4 0.980
-6.7317 2.5402 6.5766 21 222 21 0.914
0.8227 -1.2764 10.2729 4 236 4 0.980
-1.6731 6.3865 8.6280 46 202 46 0.815
0.4999 5.6963 10.4052 40 207 40 0.837
-10.2549 -11.7730 12.4065 4 236 4 0.980
-9.2700 -13.4744 14.7093 4 236 4 0.980
-2.3063 0.5137 11.9277 46 202 46 0.815
-3.7689 -6.1485 9.8116 109 214 20 0.749
-10.5712 -11.0182 11.2401 4 236 4 0.980
-6.8085 6.4341 9.4176 105 215 20 0.760
-11.2681 -12.2835 12.6372 4 236 4 0.980
-0.5872 4.3437 4.9679 121 211 20 0.716
-1.7256 -1.8815 11.9346 32 214 32 0.870
-1.3306 -0.3011 11.3138 38 209 38 0.848
-10.8578 -12.3438 13.5243 4 236 4 0.980
-11.2934 -12.1769 12.6904 4 236 4 0.980
8.2905 -6.1541 23.2887 142 206 20 0.661
-7.3293 -1.0001 12.6045 113 213 20 0.738
-2.7814 -3.3247 6.6001 4 236 4 0.980
-5.0283 -16.4859 18.7306 46 202 46 0.815
1.5876 5.5538 6.8287 113 213 20 0.738
-8.8603 -13.4834 15.4085 4 236 4 0.980
-0.2560 5.2485 10.1096 43 205 43 0.826
-10.9333 -12.4305 12.9454 4 236 4 0.980
1.2792 -0.2376 10.6241 32 214 32 0.870
-12.5774 -10.9097 10.9505 32 214 32 0.870
-10.6130 -12.5656 13.2686 4 236 4 0.980
-1.8401 -15.7849 18.2930 32 214 32 0.870
-6.4405 -13.5240 16.4165 4 236 4 0.980
-10.4553 -11.3411 11.7553 4 236 4 0.980
-14.2418 6.4006 15.3792 142 206 20 0.661
-5.7955 6.2941 12.0347 117 212 20 0.727
-10.7907 -10.1287 10.6763 10 231 10 0.958
-10.7496 -12.5596 13.2067 4 236 4 0.980
4.6960 7.2643 9.4621 117 212 20 0.727
-5.2644 -4.2720 10.9632 92 219 20 0.793
-10.6014 -12.5993 13.2526 4 236 4 0.980
-7.4044 0.0440 14.9542 133 208 20 0.683
12.4437 7.6240 13.9944 138 207 20 0.672
-9.7924 -13.0613 14.2286 4 236 4 0.980
-1.7450 -1.9524 4.2644 142 206 20 0.661
-8.6544 -5.7052 9.6343 138 207 20 0.672
-5.3175 -16.1133 18.2777 38 209 38 0.848
10.1374 8.6893 10.1363 129 209 20 0.694
-2.2108 -15.7964 18.1064 24 220 24 0.903
-10.0765 -12.1133 12.6633 4 236 4 0.980
1.0196 6.3885 11.5237 92 219 20 0.793
-4.3337 -0.0871 7.1794 18 225 18 0.925
-6.9465 -14.3372 17.3891 4 236 4 0.980
-6.9047 -14.6654 16.6332 4 236 4 0.980
-0.0550 3.3946 13.9044 138 207 20 0.672
-5.1266 -16.2079 18.3819 38 209 38 0.848
2.0536 5.8178 7.3297 117 212 20 0.727
15.0671 12.1630 17.5271 142 206 20 0.661
0.4031 -1.1276 8.0199 16 227 16 0.936
-1.8194 -17.5477 20.2932 38 209 38 0.848
-4.3317 2.7682 12.7538 105 215 20 0.760
-8.9590 -12.2486 14.3220 4 236 4 0.980
19.9186 5.7460 23.0024 142 206 20 0.661
-1.3745 -0.4314 7.7451 26 218 26 0.892
-1.6446 -15.0557 17.4544 29 216 29 0.881
-1.7608 -2.0242 11.0640 21 222 21 0.914
-1.4660 -0.7534 11.1742 29 216 29 0.881
-1.8180 -17.5180 20.2614 38 209 38 0.848
-0.5722 2.8312 10.7991 96 218 20 0.782
10.2199 -1.0536 15.5934 129 209 20 0.694
-10.0524 -12.5353 14.4465 4 236 4 0.980
-6.0719 -2.6546 11.9841 105 215 20 0.760
-1.7246 1.2560 2.7108 113 213 20 0.738
-12.6165 -10.8070 10.8883 35 211 35 0.859
5.4860 7.5471 11.5320 100 217 20 0.771
-1.8220 3.0127 12.3057 100 217 20 0.771
7.2874 5.2389 6.4661 138 207 20 0.672
-8.7178 -13.3885 15.8122 4 236 4 0.980
-5.6289 6.3179 8.9142 96 218 20 0.782
-1.1817 -1.7066 8.4707 7 233 7 0.969
-1.3429 -2.4355 7.8362 24 220 24 0.903
-3.5877 1.1752 10.1981 138 207 20 0.672
-6.2749 -13.7561 16.6474 4 236 4 0.980
-12.3549 -10.9858 11.4388 4 236 4 0.980
-2.8536 -6.0095 9.1199 113 213 20 0.738
-10.1684 -11.9768 12.5292 4 236 4 0.980
-10.8090 -9.2507 9.2873 46 202 46 0.815
-4.4272 -0.6823 12.3975 113 213 20 0.738
-10.8988 1.5030 6.3820 129 209 20 0.694
-0.9412 -1.3440 9.5892 24 220 24 0.903
0.8104 -2.5774 9.6383 43 205 43 0.826
3.4964 2.1891 9.9844 32 214 32 0.870
-5.1734 -16.1408 18.4419 38 209 38 0.848
2.7427 5.3384 5.3265 121 211 20 0.716
-11.5886 -11.5818 12.6341 4 236 4 0.980
-8.2468 -13.6680 16.2486 4 236 4 0.980
-11.0473 1.5844 6.7592 129 209 20 0.694
-1.1080 -4.4107 6.8445 105 215 20 0.760
-5.4487 3.6155 7.1469 18 225 18 0.925
-8.6767 6.6338 15.0585 48 200 48 0.804
3.3310 1.9565 9.9082 29 216 29 0.881
-9.3994 -12.9464 15.2598 4 236 4 0.980
-10.6555 -11.9435 13.6964 4 236 4 0.980
0.4717 0.4357 10.9260 18 225 18 0.925
4.9368 -4.9627 11.0965 138 207 20 0.672
-4.0221 -3.3883 11.0614 29 216 29 0.881
-10.9152 -11.9331 13.4701 4 236 4 0.980
-4.0361 -3.5161 10.7027 32 214 32 0.870
-11.2207 1.4966 6.8281 129 209 20 0.694
3.0942 3.0796 9.7557 40 207 40 0.837
-10.6276 -12.0594 13.6313 4 236 4 0.980
-2.8557 5.8893 8.5002 109 214 20 0.749
8.6244 9.1583 14.3768 129 209 20 0.694
-9.3560 -12.3515 14.5202 4 236 4 0.980
-4.7037 -2.7770 10.9132 38 209 38 0.848
7.6594 4.6748 4.3202 138 207 20 0.672
0.9431 -1.1344 11.3876 29 216 29 0.881
1.0242 -1.3533 8.5347 24 220 24 0.903
0.5938 -1.2631 8.3004 29 216 29 0.881
-8.7851 -13.3474 15.7440 4 236 4 0.980
-10.2027 -11.1630 12.7460 4 236 4 0.980
-3.4569 3.1111 4.0210 100 217 20 0.771
-5.7590 6.2749 9.1774 100 217 20 0.771
-5.7867 3.2202 6.7074 35 211 35 0.859
-5.9359 -4.7541 10.7978 113 213 20 0.738
5.3374 6.6837 10.1757 100 217 20 0.771
10.9905 9.1568 13.9272 133 208 20 0.683
-8.5809 -13.4722 15.9425 4 236 4 0.980
8.1732 7.4274 9.3423 138 207 20 0.672
-8.4867 2.2974 5.8977 109 214 20 0.749
1.4110 1.8910 13.4189 113 213 20 0.738
-4.2484 -4.2220 6.0159 26 218 26 0.892
1.0670 -0.0422 10.6597 32 214 32 0.870
12.1809 5.3168 7.5654 138 207 20 0.672
-8.8651 6.9466 14.7526 46 202 46 0.815
0.0325 6.4813 11.5297 96 218 20 0.782
-2.5116 -15.7081 18.0949 21 222 21 0.914
-3.7526 -16.9721 19.0005 26 218 26 0.892
-8.1485 -14.0798 15.7799 4 236 4 0.980
-4.2926 -2.3019 11.6915 35 211 35 0.859
-12.8655 -11.6308 10.2272 46 202 46 0.815
-8.8138 -13.7634 15.1470 4 236 4 0.980
-1.8077 1.7178 11.6734 48 200 48 0.804
-5.4662 3.2466 7.2870 18 225 18 0.925
-7.3160 3.8061 8.2845 117 212 20 0.727
12.6620 -0.2850 8.9338 142 206 20 0.661
-9.5995 -12.6169 14.8437 4 236 4 0.980
-0.1617 6.5975 12.4641 113 213 20 0.738
-8.3579 -13.9606 15.6169 4 236 4 0.980
-3.8217 3.7042 8.0650 105 215 20 0.760
-1.3675 -2.3534 7.4343 7 233 7 0.969
-10.8762 -12.3980 13.1155 4 236 4 0.980
-11.5744 -1.6437 9.8161 138 207 20 0.672
-12.1121 -11.1393 11.0799 4 236 4 0.980
-10.5098 -12.5774 13.3973 4 236 4 0.980
5.7381 -4.3423 7.3858 125 210 20 0.705
-4.6613 -4.2738 11.5675 38 209 38 0.848
-4.6191 -0.4015 6.8410 21 222 21 0.914
5.3606 2.1111 3.5787 142 206 20 0.661
-7.1029 -0.5066 13.3751 109 214 20 0.749
-10.0540 -2.3809 9.6926 133 208 20 0.683
4.0489 6.8245 12.0475 113 213 20 0.738
-10.3264 -11.6406 12.0862 4 236 4 0.980
10.3315 7.2948 17.8234 133 208 20 0.683
7.5535 4.5985 4.0119 138 207 20 0.672
6.5225 7.7956 11.7286 105 215 20 0.760
-9.7806 -13.1115 14.1654 4 236 4 0.980
8.2195 7.4473 8.4707 133 208 20 0.683
-3.7811 -2.9217 6.5102 4 236 4 0.980
-3.3448 -15.3632 17.2928 35 211 35 0.859
-5.0385 -0.4841 7.2687 35 211 35 0.859
0.3582 5.0843 7.0323 100 217 20 0.771
-7.2178 5.0083 14.1246 133 208 20 0.683
-0.8105 6.6348 12.0062 100 217 20 0.771
-1.3842 -0.3889 7.8686 32 214 32 0.870
-7.6299 -14.3491 16.1376 4 236 4 0.980
-7.7436 -1.3278 13.0532 125 210 20 0.705
-11.6745 -12.0640 12.2360 4 236 4 0.980
-7.4238 -14.4652 16.2603 4 236 4 0.980
-2.6735 -3.0781 6.4250 4 236 4 0.980
-6.5482 -14.8272 16.8263 4 236 4 0.980
-0.9002 4.7532 8.0969 32 214 32 0.870
-6.3480 -14.8915 16.9336 4 236 4 0.980
-2.0900 6.2602 12.4074 121 211 20 0.716
-3.5617 -5.0451 10.3759 43 205 43 0.826
-1.4879 -15.2038 17.6561 32 214 32 0.870
-4.6477 2.6862 12.9727 105 215 20 0.760
-2.0154 2.7285 12.1628 100 217 20 0.771
-8.2075 -14.0773 15.6702 4 236 4 0.980
-3.4328 -16.9680 19.5808 18 225 18 0.925
-1.1094 5.1489 9.3161 29 216 29 0.881
-10.0545 -12.4488 14.4812 4 236 4 0.980
-3.6459 1.7151 14.6147 125 210 20 0.705
-11.6712 -11.6686 12.3041 4 236 4 0.980
7.7184 7.0649 5.8014 142 206 20 0.661
-9.2579 -12.9915 15.2984 4 236 4 0.980
-9.0918 -13.0831 15.5192 4 236 4 0.980
1.7059 -1.4186 9.3960 24 220 24 0.903
-7.5800 -6.2450 14.1405 138 207 20 0.672
-7.0271 -0.4164 7.0952 129 209 20 0.694
-15.5746 0.4582 14.5073 142 206 20 0.661
6.0317 5.3525 11.0611 129 209 20 0.694
2.9110 6.4301 11.2492 96 218 20 0.782
-10.2272 -12.2964 13.0061 4 236 4 0.980
-8.7978 -13.2294 15.8766 4 236 4 0.980
-5.3567 -4.0513 5.6547 38 209 38 0.848
-3.2723 -4.9510 11.8784 100 217 20 0.771
-1.7323 1.5955 11.9682 92 219 20 0.793
6.7565 -1.3865 11.0773 121 211 20 0.716
-10.8261 -9.8436 9.6458 35 211 35 0.859
-4.2697 -2.5733 6.3899 4 236 4 0.980
-7.5448 -13.8855 16.7979 4 236 4 0.980
12.8500 4.4591 16.5330 142 206 20 0.661
-8.8828 6.9185 14.7546 46 202 46 0.815
-5.5001 6.0835 9.6418 100 217 20 0.771
-1.4309 6.8804 12.9116 117 212 20 0.727
-0.2806 7.0193 12.8213 113 213 20 0.738
-10.3416 -12.2580 14.0728 4 236 4 0.980
0.6016 -2.6278 10.1358 92 219 20 0.793
-11.4378 -12.0958 12.4447 4 236 4 0.980
-3.2960 -1.7238 7.0624 4 236 4 0.980
4.1182 0.0244 8.2236 48 200 48 0.804
-10.0312 -12.8927 13.9056 4 236 4 0.980
-4.9413 6.6332 13.3219 117 212 20 0.727
-12.0631 -11.2393 12.0480 4 236 4 0.980
-11.4498 -11.6576 12.9249 4 236 4 0.980
-1.3455 -3.6280 6.9749 26 218 26 0.892
0.1738 0.1823 8.5165 26 218 26 0.892
-7.4237 -14.2391 17.1908 4 236 4 0.980
-4.1081 2.6739 12.0264 109 214 20 0.749
-0.5164 2.0773 12.1987 92 219 20 0.793
-10.1809 -12.3872 14.2815 4 236 4 0.980
-1.5824 -17.4374 20.0882 40 207 40 0.837
15.1206 4.9460 20.2951 142 206 20 0.661
-11.8708 -11.9108 11.9491 4 236 4 0.980
-1.6368 6.1418 8.0597 32 214 32 0.870
-2.7386 -3.3992 6.3952 7 233 7 0.969
2.9908 3.0122 10.2104 32 214 32 0.870
-4.8784 -6.8834 12.7188 142 206 20 0.661
-2.4096 -17.4750 20.1177 32 214 32 0.870
-4.5410 -0.8255 7.0534 21 222 21 0.914
-3.2055 -1.7551 7.4116 4 236 4 0.980
-8.8787 -12.9206 14.9406 4 236 4 0.980
-9.0526 -13.6059 14.9327 4 236 4 0.980
3.1419 3.0513 9.5562 40 207 40 0.837
-3.6874 -16.7629 19.2271 29 216 29 0.881
5.9540 -0.8360 8.6501 125 210 20 0.705
-12.0629 -11.3409 11.9483 4 236 4 0.980
-7.1391 -1.8286 5.6881 100 217 20 0.771
5.2692 8.9474 12.5793 109 214 20 0.749
2.1455 0.5772 0.6714 138 207 20 0.672
-10.8148 -9.3798 9.3673 43 205 43 0.826
-10.8783 7.5264 16.4229 121 211 20 0.716
-5.6446 -3.4145 5.7123 21 222 21 0.914
-11.5424 -11.5537 12.8062 4 236 4 0.980
-4.3137 2.4088 12.0796 109 214 20 0.749
1.5165 -0.4468 1.3440 138 207 20 0.672
1.2426 0.3074 10.3720 32 214 32 0.870
-9.6921 -12.7618 14.9190 4 236 4 0.980
3.0457 0.4566 9.5699 38 209 38 0.848
-10.2518 -11.2011 12.7808 4 236 4 0.980
-2.1927 -2.8988 6.8276 4 236 4 0.980
-1.9300 1.0187 8.1117 35 211 35 0.859
-10.6330 -10.7887 12.0367 4 236 4 0.980
-3.4065 6.1433 13.7409 117 212 20 0.727
-9.8968 -13.0071 14.0539 4 236 4 0.980
8.2887 9.0507 14.4048 125 210 20 0.705
-1.8222 -17.0913 20.0908 35 211 35 0.859
-2.0228 -17.4734 20.1427 38 209 38 0.848
-1.6132 -1.8363 11.0474 18 225 18 0.925
-1.2768 -4.2809 6.7424 48 200 48 0.804
8.8710 9.5936 14.3880 129 209 20 0.694
-12.4137 -10.9437 11.2856 4 236 4 0.980
15.8023 9.2508 17.3091 142 206 20 0.661
0.5890 -3.8498 7.5880 113 213 20 0.738
-12.0393 -11.7943 11.6894 4 236 4 0.980
-11.0230 -12.3227 12.8615 4 236 4 0.980
-1.0552 -1.8873 9.4583 38 209 38 0.848
0.2971 -1.1641 8.0629 13 229 13 0.947
-10.0828 -12.0690 12.6769 4 236 4 0.980
-8.3369 -1.1322 5.3692 138 207 20 0.672
13.3620 -1.6336 16.7055 129 209 20 0.694
-4.3449 4.6597 6.7894 92 219 20 0.793
-4.1680 3.3210 4.9252 109 214 20 0.749
-3.1395 -1.6587 7.3328 4 236 4 0.980
0.4186 4.7279 5.7698 109 214 20 0.749
-3.2195 -2.2636 6.9198 4 236 4 0.980
-6.9172 -3.0211 5.1427 38 209 38 0.848
-8.3465 -14.0499 15.5297 4 236 4 0.980
13.4002 10.8546 12.7660 142 206 20 0.661
-1.7668 2.8319 11.9331 96 218 20 0.782
-6.9763 -14.3483 17.4281 4 236 4 0.980
16.9042 5.3156 22.6576 142 206 20 0.661
-1.8954 -16.6541 19.1307 10 231 10 0.958
-4.0110 -1.0563 6.9503 10 231 10 0.958
3.0143 -0.0075 8.8741 100 217 20 0.771
0.7770 -1.5007 7.9361 40 207 40 0.837
-1.0640 -5.6574 9.3815 113 213 20 0.738
-3.6554 0.8616 7.8275 38 209 38 0.848
3.4985 5.2865 5.6019 129 209 20 0.694
10.7631 9.2420 11.5309 125 210 20 0.705
-7.1760 -4.4065 10.5178 121 211 20 0.716
-4.5341 1.5536 12.5554 109 214 20 0.749
-10.0173 -12.7285 14.1774 4 236 4 0.980
2.1593 5.6263 10.7901 92 219 20 0.793
-5.2583 6.2187 8.9180 96 218 20 0.782
-8.6130 -13.4181 15.9591 4 236 4 0.980
-11.7409 1.6012 9.2125 138 207 20 0.672
4.8520 5.9158 8.7803 117 212 20 0.727
-5.0155 -16.4021 18.7351 46 202 46 0.815
-15.9908 6.8529 14.2961 142 206 20 0.661
1.7500 -2.0128 10.1467 40 207 40 0.837
2.8370 1.5925 10.4119 32 214 32 0.870
-8.2866 -13.5937 16.2734 4 236 4 0.980
-1.2481 -0.4525 11.5684 38 209 38 0.848
3.4762 5.1351 10.0723 96 218 20 0.782
-7.4424 -14.1189 16.4637 4 236 4 0.980
4.0455 6.8018 9.8052 48 200 48 0.804
-6.2668 -9.4679 13.4518 142 206 20 0.661
4.9967 4.2499 10.0921 133 208 20 0.683
-1.7680 -14.1079 16.4205 113 213 20 0.738
-1.5629 -15.1988 17.7253 32 214 32 0.870
2.3630 -4.8713 10.8344 129 209 20 0.694
-7.9223 -13.8076 16.5703 4 236 4 0.980
-1.2709 -1.2442 7.6673 18 225 18 0.925
5.4067 -3.6479 6.9954 117 212 20 0.727
4.7290 -1.2490 13.4224 125 210 20 0.705
-1.3109 -15.7276 18.2799 38 209 38 0.848
-6.7145 -14.3958 17.4735 4 236 4 0.980
8.9000 -0.5620 14.3243 133 208 20 0.683
-9.5834 -5.8653 11.5833 121 211 20 0.716
-10.7980 8.7576 13.2735 138 207 20 0.672
-1.3487 -1.1744 7.3995 18 225 18 0.925
3.7101 2.3383 9.8922 35 211 35 0.859
-4.5719 -15.2918 17.4918 29 216 29 0.881
-10.8565 5.2403 15.2987 129 209 20 0.694
-3.5289 -3.2825 12.7752 105 215 20 0.760
0.6906 2.3517 9.1988 133 208 20 0.683
-8.9081 8.5967 16.6090 133 208 20 0.683
-12.4289 -11.2700 11.1594 4 236 4 0.980
0.7412 -0.2150 10.3164 24 220 24 0.903
-1.0195 -0.4522 10.7703 29 216 29 0.881
-12.2130 -11.1255 11.7279 4 236 4 0.980
-5.7896 6.2475 9.9234 105 215 20 0.760
0.8204 0.6028 12.3899 92 219 20 0.793
-9.5722 -12.5840 14.7379 4 236 4 0.980
-11.8959 -11.4264 12.3592 4 236 4 0.980
7.2209 -5.1895 9.3179 138 207 20 0.672
3.5919 -5.5264 10.5405 125 210 20 0.705
-5.8090 -16.1113 18.3189 43 205 43 0.826
-10.6265 -11.9963 13.6741 4 236 4 0.980
-1.0363 -0.4821 11.3717 29 216 29 0.881
-3.5028 -5.1434 12.2230 117 212 20 0.727
-9.4039 -12.8877 15.1731 4 236 4 0.980
-4.9253 1.2038 7.5462 48 200 48 0.804
-1.8776 4.0045 5.5413 121 211 20 0.716
-1.7286 -4.8901 9.7897 105 215 20 0.760
-3.2876 -4.8717 9.9226 96 218 20 0.782
-9.1372 5.6543 14.5194 92 219 20 0.793
9.0401 3.5083 16.3091 133 208 20 0.683
-9.2308 6.6706 13.8023 96 218 20 0.782
-3.3754 -5.1145 10.1648 92 219 20 0.793
-8.1238 2.4797 6.1167 100 217 20 0.771
-6.1008 -14.9800 17.0207 4 236 4 0.980
-7.0073 -13.9384 16.8273 4 236 4 0.980
6.8208 9.0321 13.3044 117 212 20 0.727
-6.2458 3.0048 6.7377 32 214 32 0.870
-6.1878 -15.1508 17.2036 4 236 4 0.980
-6.8364 -14.4094 16.8056 4 236 4 0.980
-0.6551 6.0015 7.0824 43 205 43 0.826
-11.6044 8.5763 13.3628 138 207 20 0.672
-7.4321 0.9297 13.4096 113 213 20 0.738
-10.8346 -9.6087 10.0197 32 214 32 0.870
1.1915 -3.0006 10.9703 46 202 46 0.815
1.1644 -1.6576 10.4055 24 220 24 0.903
-2.9792 -15.1575 17.5655 26 218 26 0.892
-4.7993 7.0089 12.9476 117 212 20 0.727
5.7548 7.2128 11.5612 105 215 20 0.760
13.5654 -5.8871 22.6501 138 207 20 0.672
2.6082 5.5119 5.4485 121 211 20 0.716
-8.2410 6.6406 14.3254 100 217 20 0.771
-4.2529 -3.7091 10.8114 35 211 35 0.859
-1.1026 -2.7913 10.5656 38 209 38 0.848
1.9422 4.0732 11.0037 43 205 43 0.826
-1.9159 -17.2238 20.0561 35 211 35 0.859
10.8902 -9.5480 15.3857 142 206 20 0.661
0.6563 -1.2068 10.5618 7 233 7 0.969
-11.5881 -4.4193 11.5389 121 211 20 0.716
-7.3658 0.6459 12.8874 113 213 20 0.738
5.4211 6.8800 10.4869 105 215 20 0.760
-9.9459 -12.7570 14.5845 4 236 4 0.980
2.9525 -0.8847 12.8623 113 213 20 0.738
2.8383 2.8661 10.2100 32 214 32 0.870
3.8743 -0.4290 13.4033 113 213 20 0.738
5.4751 -4.6808 7.7872 129 209 20 0.694
-10.4703 6.7925 14.9292 92 219 20 0.793
-4.5748 4.5920 6.6733 46 202 46 0.815
-1.3375 -3.0220 10.7832 40 207 40 0.837
-5.7378 6.1771 8.5423 96 218 20 0.782
1.3339 2.8730 11.2298 109 214 20 0.749
-11.0857 -0.1160 13.2381 142 206 20 0.661
-9.8805 -3.9414 7.7098 133 208 20 0.683
-6.9392 2.6553 6.6024 21 222 21 0.914
-6.0488 0.3763 12.9402 113 213 20 0.738
-9.1615 -4.0251 11.5071 121 211 20 0.716
-1.5868 -15.5370 18.0209 32 214 32 0.870
-6.0715 0.3466 13.0209 113 213 20 0.738
-1.4397 -2.2918 7.0891 4 236 4 0.980
6.6078 -0.4333 11.3093 125 210 20 0.705
-12.0635 1.7237 14.3757 142 206 20 0.661
-10.9778 -10.2993 9.3645 38 209 38 0.848
-6.0645 -5.3220 14.2665 138 207 20 0.672
-7.8187 -13.5747 16.4581 4 236 4 0.980
-12.2566 -11.0858 11.7323 4 236 4 0.980
-8.4850 1.8798 13.5293 129 209 20 0.694
-5.5937 -0.2717 6.6805 40 207 40 0.837
-4.9921 -2.7315 11.1820 32 214 32 0.870
0.5532 -2.2295 8.2222 32 214 32 0.870
-10.6535 -10.6760 11.2463 4 236 4 0.980
-5.6400 -1.2841 12.2619 105 215 20 0.760
-8.5576 0.1603 13.2216 113 213 20 0.738
-1.5509 -0.1397 11.8585 32 214 32 0.870
5.7049 5.2780 15.7629 142 206 20 0.661
-0.6235 0.0042 12.0689 32 214 32 0.870
-5.2335 2.0064 12.5702 105 215 20 0.760
-1.9353 -3.5436 11.4268 48 200 48 0.804
-1.2137 -2.2321 7.2096 16 227 16 0.936
-1.4103 -1.7959 10.0592 26 218 26 0.892
-3.4695 4.1614 13.0900 125 210 20 0.705
-7.2358 -13.8323 16.7291 4 236 4 0.980
-2.6383 -2.5315 11.0896 24 220 24 0.903
-8.4688 -13.9788 15.5139 4 236 4 0.980
1.2365 4.5663 3.4510 129 209 20 0.694
-1.6699 -1.7769 11.2763 18 225 18 0.925
8.4787 6.0578 7.5743 129 209 20 0.694
-6.3414 -2.8382 5.5437 32 214 32 0.870
-0.2895 1.5046 11.6629 96 218 20 0.782
-0.3849 -1.0711 11.1532 10 231 10 0.958
14.0819 -2.7641 16.9570 129 209 20 0.694
2.3299 3.1616 15.1867 129 209 20 0.694
1.2411 -3.8874 6.8953 129 209 20 0.694
-3.3056 2.2800 14.7986 133 208 20 0.683
-2.1809 -17.6600 20.4457 38 209 38 0.848
-3.5511 -15.2962 17.4753 48 200 48 0.804
-8.3488 -13.4734 16.0078 4 236 4 0.980
1.9890 6.4099 7.8721 121 211 20 0.716
7.9398 9.1644 13.4808 121 211 20 0.716
-2.7625 -17.0703 19.4855 24 220 24 0.903
-2.9045 -16.9604 19.6000 21 222 21 0.914
-8.6570 7.0118 15.7144 96 218 20 0.782
15.8612 7.7022 24.9641 142 206 20 0.661
11.4595 -5.0707 17.3226 138 207 20 0.672
-2.8909 -16.8870 19.5145 16 227 16 0.936
-4.0532 -16.6191 19.0790 35 211 35 0.859
18.0827 4.0785 12.5568 142 206 20 0.661
-11.6925 7.7489 17.1291 138 207 20 0.672
-6.2988 -3.7643 11.2867 100 217 20 0.771
14.2307 8.3228 18.4194 142 206 20 0.661
-9.7361 7.2181 15.5383 96 218 20 0.782
0.5167 -1.0845 8.4496 21 222 21 0.914
0.5261 -3.8249 7.5045 105 215 20 0.760
-9.4544 -12.8202 15.1457 4 236 4 0.980
7.4022 -2.2610 10.5961 125 210 20 0.705
-9.3405 6.5945 14.3672 46 202 46 0.815
1.0258 -0.2429 9.6379 16 227 16 0.936
-0.8600 5.8149 6.5449 48 200 48 0.804
2.1856 2.2716 14.2390 117 212 20 0.727
0.4380 4.1802 9.7889 40 207 40 0.837
-3.4118 -1.3246 7.2045 4 236 4 0.980
-10.8940 -11.8945 13.4324 4 236 4 0.980
-4.6930 6.4518 13.4347 117 212 20 0.727
1.0595 0.2514 10.3181 32 214 32 0.870
-3.1284 -16.8975 19.4628 18 225 18 0.925
9.1512 -6.4623 12.4823 133 208 20 0.683
-1.1699 -0.5326 10.9802 32 214 32 0.870
6.5266 -0.6525 14.2342 138 207 20 0.672
-7.6439 -4.5376 11.1260 117 212 20 0.727
3.9486 -0.1891 9.8260 96 218 20 0.782
1.1199 -1.6719 7.6475 43 205 43 0.826
10.1800 4.4697 17.0999 133 208 20 0.683
-2.8999 -2.2960 6.8010 4 236 4 0.980
0.9377 3.1962 11.3313 109 214 20 0.749
12.6120 6.3992 9.0696 133 208 20 0.683
13.0640 7.7935 14.2322 138 207 20 0.672
-3.2798 -1.3721 7.1221 4 236 4 0.980
-2.6667 -4.0391 10.4902 35 211 35 0.859
-9.0817 6.4775 13.3487 105 215 20 0.760
-1.8574 3.8948 8.9586 96 218 20 0.782
-7.9290 -4.3871 15.1748 142 206 20 0.661
-5.7029 2.9802 6.1618 38 209 38 0.848
13.9092 7.0192 10.2611 138 207 20 0.672
1.9010 6.4380 8.0822 121 211 20 0.716
-1.2801 -0.4780 7.8128 24 220 24 0.903
2.7396 -0.9460 12.2390 109 214 20 0.749
-1.5793 -17.4452 20.0990 40 207 40 0.837
-1.5363 -14.9984 17.7502 32 214 32 0.870
2.2134 1.6634 10.3992 21 222 21 0.914
-2.0556 1.7637 8.2723 48 200 48 0.804
4.6497 -3.3201 12.5441 133 208 20 0.683
-7.5168 -7.0145 11.0729 142 206 20 0.661
-4.2899 2.8394 13.2155 100 217 20 0.771
-10.7150 -10.5613 10.3314 10 231 10 0.958
-5.6073 -5.9962 9.4546 133 208 20 0.683
-0.5313 6.7276 12.2945 100 217 20 0.771
7.2872 7.7451 17.5662 142 206 20 0.661
5.4308 7.2755 10.8714 96 218 20 0.782
-11.0792 -4.2767 11.0567 121 211 20 0.716
9.2611 5.6579 5.9514 138 207 20 0.672
-1.1879 -3.4735 6.7562 24 220 24 0.903
-2.6664 -17.0204 19.5749 24 220 24 0.903
-2.9617 -6.4964 11.0671 113 213 20 0.738
-3.8531 -2.1235 11.4988 40 207 40 0.837
1.7719 3.7348 10.3120 38 209 38 0.848
16.1675 8.3352 20.1784 142 206 20 0.661
-2.9968 -3.7029 6.6700 21 222 21 0.914
-1.2274 3.3924 3.4593 100 217 20 0.771
8.7528 -5.1529 12.9188 133 208 20 0.683
-4.2295 1.5626 12.8679 105 215 20 0.760
-0.4369 6.4544 10.4642 43 205 43 0.826
-8.7987 -5.1163 10.5924 109 214 20 0.749
-1.2650 -15.3264 17.7613 38 209 38 0.848
1.6621 -1.7234 8.4824 43 205 43 0.826
-9.6713 -13.2062 14.9412 4 236 4 0.980
-1.3553 -0.2842 11.5045 35 211 35 0.859
-5.3409 -15.0675 17.1909 21 222 21 0.914
0.7331 -5.4948 8.9295 125 210 20 0.705
-7.0306 3.6370 9.5421 129 209 20 0.694
0.7815 -0.3228 8.2413 32 214 32 0.870
0.6632 -5.4956 9.0339 125 210 20 0.705
-8.5209 -13.9017 15.4151 4 236 4 0.980
-12.1396 -3.0276 11.8024 133 208 20 0.683
3.4968 0.0660 9.2499 48 200 48 0.804
-10.8176 -9.3792 9.3673 43 205 43 0.826
-5.4139 5.7777 9.7379 100 217 20 0.771
-2.6328 3.7691 5.6260 96 218 20 0.782
-4.4844 6.5247 13.9106 121 211 20 0.716
-1.8021 0.9555 8.1497 40 207 40 0.837
-4.2070 -2.5814 6.3114 4 236 4 0.980
-0.6199 -0.9014 7.8530 4 236 4 0.980
-1.7593 6.4336 8.2778 43 205 43 0.826
-3.1826 2.2813 12.8763 38 209 38 0.848
2.6049 2.6692 10.0157 32 214 32 0.870
0.4369 -0.4227 8.8404 10 231 10 0.958
-8.3200 -13.5184 15.9832 4 236 4 0.980
-7.0564 0.4252 6.4385 129 209 20 0.694
10.7103 9.0747 12.9679 129 209 20 0.694
-0.7362 5.8932 6.5618 92 219 20 0.793
-8.0404 -13.8801 15.3882 4 236 4 0.980
-2.9518 -2.6896 7.4276 4 236 4 0.980
-9.9576 -4.4991 10.5851 113 213 20 0.738
-1.9823 3.2445 2.6598 96 218 20 0.782
-8.5458 -13.4260 15.8211 4 236 4 0.980
0.4954 2.6955 9.2349 117 212 20 0.727
-1.8097 2.0949 9.0693 109 214 20 0.749
-9.5471 -12.7365 15.0320 4 236 4 0.980
-0.5772 -0.9153 7.9973 4 236 4 0.980
10.0387 6.9973 17.0005 133 208 20 0.683
-4.7673 -2.8708 11.2015 35 211 35 0.859
4.0624 2.4891 9.3922 35 211 35 0.859
-9.9738 -12.6127 14.7835 4 236 4 0.980
-2.5823 2.6675 2.0216 100 217 20 0.771
1.0386 -0.0459 10.7589 29 216 29 0.881
3.1370 0.1240 9.1634 48 200 48 0.804
-4.6753 -3.9961 13.0328 129 209 20 0.694
-8.5020 -13.9223 15.4428 4 236 4 0.980
7.4935 -0.7425 11.5010 121 211 20 0.716
-1.5334 -2.6249 10.7581 32 214 32 0.870
-9.9197 -3.7328 7.5661 133 208 20 0.683
-10.6159 -5.4117 10.2101 117 212 20 0.727
-9.3360 7.4230 16.0047 100 217 20 0.771
2.8797 -3.0489 11.7593 113 213 20 0.738
-0.6122 5.9606 7.0401 46 202 46 0.815
-6.9818 2.6970 6.7189 21 222 21 0.914
-2.0794 6.7904 13.2504 117 212 20 0.727
10.1143 -1.0688 15.4037 129 209 20 0.694
-4.5043 6.1328 7.3845 113 213 20 0.738
-9.8858 -12.8344 14.4107 4 236 4 0.980
-8.2474 -13.5704 15.6293 4 236 4 0.980
9.3382 3.6822 17.2090 133 208 20 0.683
4.3698 -2.2789 7.1718 125 210 20 0.705
-4.1270 1.0419 7.7649 43 205 43 0.826
-0.6726 5.9380 6.8245 48 200 48 0.804
-6.0884 2.7986 7.2346 35 211 35 0.859
2.1568 0.2966 13.0053 105 215 20 0.760
-1.9434 2.9777 2.3475 48 200 48 0.804
-10.7746 6.4452 15.2084 113 213 20 0.738
4.4922 5.8248 12.5442 133 208 20 0.683
-3.7528 1.4208 7.8094 46 202 46 0.815
-1.2037 -2.7644 9.9202 38 209 38 0.848
1.0681 0.2510 10.0438 29 216 29 0.881
-7.7634 5.5554 15.1394 109 214 20 0.749
-2.4476 -14.8720 17.1434 29 216 29 0.881
-7.4860 -3.1105 4.3569 100 217 20 0.771
-6.1432 -4.0346 11.4585 105 215 20 0.760
-4.5687 -1.5192 6.9763 7 233 7 0.969
-4.9982 5.5741 8.0334 96 218 20 0.782
-9.0960 -14.8703 17.2834 113 213 20 0.738
-10.1116 -4.7694 10.9379 113 213 20 0.738
-5.2156 -1.3491 11.6530 92 219 20 0.793
-1.8182 1.1232 2.8600 121 211 20 0.716
-9.6036 -12.3577 14.5751 4 236 4 0.980
3.1842 6.7635 11.5064 113 213 20 0.738
4.3200 0.2093 10.4603 113 213 20 0.738
-6.4254 -13.3113 16.2220 4 236 4 0.980
-5.4052 -4.1506 5.5252 35 211 35 0.859
-7.7160 6.6259 14.6701 96 218 20 0.782
-3.6740 -5.0203 10.8411 46 202 46 0.815
-1.3855 -0.8532 10.2328 40 207 40 0.837
-1.7705 -15.8031 18.3084 32 214 32 0.870
-3.8351 -1.8472 11.8223 46 202 46 0.815
-4.1048 3.9364 7.9100 92 219 20 0.793
1.1864 3.3136 10.8024 92 219 20 0.793
0.6910 5.6371 10.4881 43 205 43 0.826
0.4367 1.5698 5.4874 142 206 20 0.661
2.4579 -2.4877 11.1459 100 217 20 0.771
3.0360 3.0723 10.2199 32 214 32 0.870
10.3752 -3.3500 17.3364 142 206 20 0.661
2.9521 0.5471 9.5149 35 211 35 0.859
-6.5345 -3.4089 5.2116 32 214 32 0.870
-1.1524 -2.1053 7.1633 13 229 13 0.947
-5.7081 -3.2599 5.7997 21 222 21 0.914
-11.5324 -10.4297 10.3118 4 236 4 0.980
4.5607 1.2098 8.7366 35 211 35 0.859
0.8358 -0.2745 8.9155 7 233 7 0.969
-7.1554 -13.9614 16.8936 4 236 4 0.980
2.9254 2.9376 9.8588 38 209 38 0.848
6.6254 7.8348 11.9186 105 215 20 0.760
3.9801 -0.8087 4.6648 142 206 20 0.661
-4.5952 -1.8071 7.2735 4 236 4 0.980
5.5954 7.6221 11.6042 100 217 20 0.771
-2.5281 -4.1290 6.3622 29 216 29 0.881
-6.3753 -14.2969 16.7827 4 236 4 0.980
-3.8053 -3.2865 10.7818 29 216 29 0.881
6.4881 7.9315 12.1785 105 215 20 0.760
2.6840 0.2968 8.9252 96 218 20 0.782
-3.1141 -2.7054 9.3554 121 211 20 0.716
-2.0901 1.6073 12.5411 100 217 20 0.771
-2.7855 5.3670 9.1166 96 218 20 0.782
4.8760 -1.4196 12.9744 129 209 20 0.694
-1.3605 5.1423 9.4120 32 214 32 0.870
-5.9587 3.5442 4.6862 125 210 20 0.705
-12.4443 -11.7039 16.0777 142 206 20 0.661
-2.7473 -15.3092 17.7490 26 218 26 0.892
0.6456 4.0847 9.9780 35 211 35 0.859
-6.0105 6.7628 10.0181 105 215 20 0.760
-0.7998 5.0737 8.7144 29 216 29 0.881
-4.3877 -1.7577 6.7739 4 236 4 0.980
-0.5599 -2.8201 6.8716 24 220 24 0.903
2.8527 4.9214 10.4925 96 218 20 0.782
6.8742 -3.2913 13.1816 133 208 20 0.683
-6.1472 3.7602 7.9112 38 209 38 0.848
-6.8727 -3.3378 5.6725 32 214 32 0.870
-3.2131 -17.0822 19.7530 21 222 21 0.914
2.7965 4.8975 10.3993 92 219 20 0.793
-1.2971 -2.3004 7.1150 13 229 13 0.947
0.2095 5.4656 9.8846 40 207 40 0.837
-1.3988 -1.2897 7.4517 7 233 7 0.969
-3.9976 3.6039 5.2327 100 217 20 0.771
5.7669 1.4761 14.7208 138 207 20 0.672
-4.3024 -1.9791 11.8886 40 207 40 0.837
-1.4040 -0.3697 7.9698 32 214 32 0.870
-2.7423 -3.3832 6.3743 7 233 7 0.969
-3.5168 1.7841 8.8890 46 202 46 0.815
-1.3490 -5.7763 10.9133 125 210 20 0.705
1.3482 4.6534 4.4152 121 211 20 0.716
-5.7719 -3.1921 5.7600 21 222 21 0.914
-9.6720 -12.6983 14.8963 4 236 4 0.980
-9.2965 -13.0794 15.2500 4 236 4 0.980
2.7694 2.5343 14.6112 117 212 20 0.727
-1.2450 -0.4799 7.9648 18 225 18 0.925
-4.9023 1.1341 7.1892 48 200 48 0.804
-2.4295 3.0249 2.6822 96 218 20 0.782
-5.6702 0.6286 6.6527 105 215 20 0.760
-1.8825 -4.0014 6.7442 35 211 35 0.859
-10.6781 -10.6506 11.8824 4 236 4 0.980
-3.7380 -2.0286 6.9326 4 236 4 0.980
-2.1795 -1.9115 7.2906 4 236 4 0.980
-12.0937 -11.0038 10.9882 4 236 4 0.980
-2.6990 1.2773 7.9855 46 202 46 0.815
5.7548 -3.4375 7.9298 117 212 20 0.727
-3.2010 3.6958 8.3654 109 214 20 0.749
-4.9152 -15.0137 17.0974 35 211 35 0.859
9.6667 8.4517 10.2666 129 209 20 0.694
-7.5184 4.4638 9.7560 133 208 20 0.683
-2.0688 -16.0592 18.7586 10 231 10 0.958
-9.4695 -12.8720 15.1823 4 236 4 0.980
-1.7957 0.9785 8.2404 40 207 40 0.837
-3.2824 -15.1687 17.4746 32 214 32 0.870
0.3799 4.3210 10.0796 35 211 35 0.859
-4.2034 3.2132 4.9613 113 213 20 0.738
-12.4954 -10.9208 11.3103 10 231 10 0.958
-9.8381 -12.7769 14.8337 4 236 4 0.980
-2.9621 -3.3870 6.3466 16 227 16 0.936
-3.6361 -15.1081 17.4165 92 219 20 0.793
-3.3554 0.7269 7.8561 40 207 40 0.837
-3.4148 -0.6694 7.6495 13 229 13 0.947
-1.8202 2.0388 8.8521 105 215 20 0.760
-3.0115 -1.5519 6.8888 4 236 4 0.980
12.9866 -5.0410 21.2175 133 208 20 0.683
-4.4843 -1.4545 6.6674 7 233 7 0.969
-7.9992 2.5236 6.3007 96 218 20 0.782
-3.8958 3.2602 4.8331 109 214 20 0.749
0.2899 5.2387 9.6504 40 207 40 0.837
-6.1616 3.0359 6.7818 35 211 35 0.859
-6.7507 -2.6973 5.5310 38 209 38 0.848
-4.4226 -1.3703 6.6497 7 233 7 0.969
-1.6938 4.0101 5.3398 121 211 20 0.716
-0.3922 3.6955 2.7771 121 211 20 0.716
1.7570 5.4312 10.6753 38 209 38 0.848
0.7057 -0.8957 11.2884 16 227 16 0.936
-10.2694 -11.7805 12.1947 4 236 4 0.980
-5.1011 -2.9180 6.1059 7 233 7 0.969
-6.2116 3.2339 6.9261 32 214 32 0.870
-5.1503 -16.3174 18.7333 48 200 48 0.804
-3.1521 -2.5433 6.6714 4 236 4 0.980
8.9100 6.2717 17.1722 133 208 20 0.683
12.4427 -4.2188 14.8024 142 206 20 0.661
-1.4518 -15.2667 17.7274 35 211 35 0.859
-11.7183 -10.5611 8.8154 100 217 20 0.771
-1.5867 4.5571 7.7489 43 205 43 0.826
-4.1708 -4.0877 5.7333 26 218 26 0.892
-4.0100 3.2117 4.7393 109 214 20 0.749
-10.6571 -10.7578 10.6712 4 236 4 0.980
1.9290 5.0991 4.9337 117 212 20 0.727
-4.3487 -2.5830 6.5165 4 236 4 0.980
-10.7208 -10.5668 10.3366 10 231 10 0.958
-3.8350 3.6286 6.9187 46 202 46 0.815
5.7333 -2.4358 13.0593 117 212 20 0.727
-10.6747 -10.6519 11.6685 4 236 4 0.980
-6.4834 -3.7333 4.6171 38 209 38 0.848
-6.9974 -3.5017 5.6475 35 211 35 0.859
-1.6080 -4.8800 10.2432 109 214 20 0.749
3.2189 0.3923 9.7332 38 209 38 0.848
-3.9500 3.7596 7.9420 96 218 20 0.782
11.4097 9.2668 15.3913 138 207 20 0.672
-3.3427 -1.3666 7.1769 4 236 4 0.980
-2.5651 3.8783 5.7512 105 215 20 0.760
-1.7550 3.9175 5.2414 117 212 20 0.727
-2.0205 2.9276 2.3496 92 219 20 0.793
-4.3503 -4.0352 5.8509 26 218 26 0.892
1.8612 -4.8262 8.0487 117 212 20 0.727
-5.6603 -3.4203 5.6031 21 222 21 0.914
1.2317 0.2661 10.4105 32 214 32 0.870
3.6243 2.0469 10.0823 32 214 32 0.870
-0.9082 -3.5584 6.7876 29 216 29 0.881
-5.5559 3.4051 7.1105 21 222 21 0.914
-2.3621 2.9559 2.4677 96 218 20 0.782
3.0618 1.7718 9.5046 16 227 16 0.936
-1.5054 -1.3894 7.3995 4 236 4 0.980
6.9467 -1.7332 13.6329 129 209 20 0.694
0.3160 5.4054 10.2159 35 211 35 0.859
-2.3347 2.8842 2.3244 96 218 20 0.782
0.2549 6.9488 9.0783 117 212 20 0.727
-0.4120 5.2508 9.4827 35 211 35 0.859
-4.5088 -1.6424 6.6168 7 233 7 0.969
-1.4316 -1.4369 7.6457 4 236 4 0.980
-0.2545 3.7590 2.6474 121 211 20 0.716
0.7605 -1.3768 8.4274 29 216 29 0.881
6.3482 8.1966 13.6087 117 212 20 0.727
-3.3093 0.7635 7.5101 38 209 38 0.848
-5.7324 -3.5277 5.6646 21 222 21 0.914
-6.5976 -3.1139 5.3695 32 214 32 0.870
-4.0587 2.9548 7.9892 46 202 46 0.815
-6.8480 -13.9823 16.8995 4 236 4 0.980
-9.2292 -12.0063 13.9627 4 236 4 0.980
2.5328 -1.1536 12.2160 109 214 20 0.749
-5.4508 3.1362 7.1008 21 222 21 0.914
-6.2640 2.8819 6.0561 26 218 26 0.892
-8.0626 2.3865 6.0651 100 217 20 0.771
-3.2381 3.0568 2.7816 105 215 20 0.760
-11.3437 1.6085 8.7658 133 208 20 0.683
-5.7645 3.2285 6.7297 35 211 35 0.859
-7.2191 -14.1029 16.4673 4 236 4 0.980
-6.4763 2.8451 6.8509 24 220 24 0.903
-10.1824 -3.1368 8.1152 129 209 20 0.694
-3.4999 1.5745 7.8178 43 205 43 0.826
-5.8609 3.1212 6.8923 38 209 38 0.848
-1.0995 4.9759 9.1933 32 214 32 0.870
-6.8084 -2.5823 5.4990 38 209 38 0.848
-7.7275 -2.1570 15.1830 138 207 20 0.672
0.2998 0.2780 8.9751 29 216 29 0.881
9.8403 -3.7094 13.8307 142 206 20 0.661
-2.0241 -17.5362 20.3205 38 209 38 0.848
-6.7503 -14.2335 17.1119 4 236 4 0.980
5.1096 0.7283 14.3059 133 208 20 0.683
-10.8187 -10.0393 10.8057 7 233 7 0.969
3.6483 5.8861 8.4064 109 214 20 0.749
-9.6629 -6.1467 13.5806 142 206 20 0.661
-10.8298 -9.5044 9.8150 38 209 38 0.848
-10.5823 -11.0014 11.0468 4 236 4 0.980
12.7440 -5.2352 20.6622 138 207 20 0.672
-10.7745 -10.2832 11.1821 4 236 4 0.980
11.9242 -4.0266 18.6684 138 207 20 0.672
6.7198 -0.1541 10.4232 125 210 20 0.705
-1.6522 1.5834 11.7582 43 205 43 0.826
0.1338 1.3298 12.5641 109 214 20 0.749
5.3194 2.9551 8.6604 125 210 20 0.705
5.0232 7.1362 7.0726 142 206 20 0.661
-1.8703 3.0222 12.3684 100 217 20 0.771
3.7372 6.0252 9.3259 96 218 20 0.782
4.9809 2.1016 8.6031 117 212 20 0.727
3.6950 5.7949 8.2665 113 213 20 0.738
3.1188 6.1082 10.2585 100 217 20 0.771
-1.3078 -3.2039 11.3656 43 205 43 0.826
-8.6967 -1.5691 14.0527 129 209 20 0.694
-6.3215 -14.4174 16.9515 4 236 4 0.980
-0.7059 6.0055 6.5168 96 218 20 0.782
4.5669 1.2228 8.5754 96 218 20 0.782
5.6986 0.9933 8.8036 125 210 20 0.705
4.1916 -2.8352 8.0456 125 210 20 0.705
-10.4260 -11.4538 11.6917 4 236 4 0.980
-8.3099 -14.2153 15.8290 4 236 4 0.980
-5.7425 7.2751 13.6017 113 213 20 0.738
-10.5148 -11.1964 11.4398 4 236 4 0.980
-8.1474 -14.3429 16.0679 4 236 4 0.980
3.1170 5.9792 10.2615 100 217 20 0.771
-1.3578 -3.7701 10.1295 96 218 20 0.782
-6.9648 7.2576 12.1220 129 209 20 0.694
0.5986 6.4660 12.0113 105 215 20 0.760
9.9257 8.9880 11.7881 125 210 20 0.705
-3.6655 -7.3046 8.4184 133 208 20 0.683
7.8922 -3.4375 11.4373 133 208 20 0.683
7.0299 -3.0469 9.9377 129 209 20 0.694
-10.9716 1.6526 7.0708 125 210 20 0.705
6.7004 -0.1085 10.1894 121 211 20 0.716
-3.2907 1.4135 7.8033 38 209 38 0.848
-4.6733 -16.5295 19.0160 38 209 38 0.848
-2.1332 -0.5210 12.8447 105 215 20 0.760
-5.8001 -14.5612 17.8081 16 227 16 0.936
1.3174 0.4108 10.5927 35 211 35 0.859
5.7373 -0.9098 8.1416 125 210 20 0.705
-0.2455 -2.7261 10.6456 26 218 26 0.892
-5.8305 -3.2490 6.1891 21 222 21 0.914
5.4544 -2.2226 7.1631 117 212 20 0.727
-9.6850 -12.3528 14.4206 4 236 4 0.980
7.6791 -5.2314 10.6391 138 207 20 0.672
-11.5114 2.4089 20.3619 142 206 20 0.661
8.6735 -4.9546 12.4995 133 208 20 0.683
-7.8143 2.4951 6.2176 48 200 48 0.804
3.2793 0.2311 9.4153 43 205 43 0.826
-4.9413 -16.4329 18.8222 46 202 46 0.815
10.7045 -0.9364 16.0820 133 208 20 0.683
-1.9629 -15.4610 17.8643 26 218 26 0.892
-4.0401 -16.8627 19.2079 35 211 35 0.859
2.4596 2.5704 14.0443 117 212 20 0.727
2.8061 -5.7059 9.9712 129 209 20 0.694
12.9530 -2.4345 15.4847 129 209 20 0.694
2.3978 -4.2287 9.9965 129 209 20 0.694
-0.1020 -3.1571 10.0892 92 219 20 0.793
1.6906 -1.6664 11.5035 40 207 40 0.837
-0.5492 0.0078 11.8663 35 211 35 0.859
2.5324 -2.6821 11.7354 105 215 20 0.760
2.8762 0.5234 13.7817 121 211 20 0.716
4.4072 -3.3218 12.0012 129 209 20 0.694
1.0844 -2.3934 11.5864 46 202 46 0.815
13.7162 -2.9422 15.8461 129 209 20 0.694
0.9819 0.4020 12.6007 100 217 20 0.771
3.3648 1.6787 13.9926 121 211 20 0.716
-10.3331 -9.8388 9.9531 32 214 32 0.870
18.3471 8.3863 20.7578 142 206 20 0.661
4.3093 8.9855 13.8638 138 207 20 0.672
15.8009 7.9833 10.4213 142 206 20 0.661
-10.3879 -11.4936 13.0065 4 236 4 0.980
-9.3257 -13.1731 14.3171 4 236 4 0.980
8.3723 0.5196 4.4270 142 206 20 0.661
9.8471 3.7583 19.7071 230 132 30 0.253
12.6960 -4.8956 20.8835 230 104 30 0.166
15.4196 6.6276 25.5471 230 110 30 0.187
7.1979 -4.8553 10.7482 230 129 30 0.246
-6.5953 -9.9628 15.9856 230 136 30 0.265
1.6972 -2.2404 2.0878 230 135 30 0.263
9.2465 -6.9167 12.6096 230 104 30 0.167
-13.9366 -11.2655 13.7332 230 125 30 0.233
21.0265 3.1995 20.2469 230 112 30 0.193
-15.4984 7.5678 14.7727 230 145 30 0.292
5.7312 2.9232 10.7903 230 103 30 0.164
-9.3750 -4.8806 14.9481 230 116 30 0.206
-12.5728 -0.5593 12.2399 230 150 30 0.309
-12.2886 1.4570 8.3661 230 156 30 0.328
-4.8425 3.1298 10.5888 230 130 30 0.247
14.3406 -2.4929 21.2379 230 159 30 0.337
-13.6931 0.6649 15.6880 230 112 30 0.191
8.8265 -3.6417 15.2771 230 139 30 0.275
5.5793 -4.2111 15.2305 230 124 30 0.229
7.5713 0.2759 10.2759 230 107 30 0.177
9.6882 -5.6919 13.5204 230 140 30 0.277
8.0644 6.2763 5.8715 230 109 30 0.183
-8.2632 -6.1976 10.2904 230 154 30 0.323
6.5176 9.0395 15.6385 230 139 30 0.277
1.1790 1.6139 8.4373 230 156 30 0.327
5.6946 2.3041 11.3329 230 128 30 0.241
-4.5502 -7.3089 13.0361 230 110 30 0.186
6.6642 2.5136 14.5785 230 146 30 0.297
14.7319 14.1185 19.6886 230 134 30 0.259
4.7957 6.3143 7.0737 230 100 30 0.155
9.7636 -4.3484 15.7690 230 125 30 0.233
-1.8723 0.8673 3.4585 230 115 30 0.202
0.4339 2.0663 5.5596 230 132 30 0.253
10.5940 4.4971 17.4768 230 160 30 0.341
15.0128 6.1333 17.5907 230 120 30 0.218
14.3577 5.5039 12.9308 230 114 30 0.199
-14.2474 -13.7635 15.3581 230 141 30 0.282
-4.7483 -7.6509 7.6394 230 146 30 0.297
17.2049 6.9227 26.0228 230 113 30 0.195
9.7104 -0.1591 8.2965 230 121 30 0.220
-11.6311 8.6761 15.8442 230 120 30 0.217
-8.0070 -10.4880 14.0524 230 106 30 0.173
13.4306 -5.2168 19.1935 230 122 30 0.224
12.2458 12.1736 17.9566 230 155 30 0.325
-8.2276 -8.0056 12.6318 230 163 30 0.349
7.1540 0.5518 12.1805 230 142 30 0.285
4.6138 0.9110 2.5530 230 126 30 0.235
-6.8173 -6.3559 12.7095 230 117 30 0.208
5.0591 -6.1533 13.2951 230 129 30 0.244
9.5723 7.9818 19.1132 230 100 30 0.156
17.4187 7.2289 19.7223 230 129 30 0.244
9.7993 9.1025 18.5319 230 108 30 0.181
9.4674 7.3932 15.1763 230 119 30 0.213
12.5048 8.1238 16.1381 230 145 30 0.294
6.0818 -4.3966 12.8210 230 149 30 0.305
11.8884 0.5534 8.8600 230 125 30 0.232
3.1255 -0.5332 6.1054 230 149 30 0.306
-3.7580 3.0949 15.6183 230 141 30 0.282
-15.3052 5.5649 15.4090 230 129 30 0.243
20.4228 11.6964 18.0585 230 107 30 0.177
12.0940 -3.8113 17.3343 230 98 30 0.151
14.3564 9.6511 7.4076 230 138 30 0.273
-8.1603 6.3837 12.1215 230 162 30 0.347
-13.7926 -0.4701 17.0265 230 161 30 0.345
-4.7646 2.8371 15.5282 230 152 30 0.316
5.7479 -8.2961 11.2958 230 155 30 0.324
-9.8632 -7.3458 12.0153 230 112 30 0.191
-10.4034 -4.8722 5.6525 230 128 30 0.241
-11.5314 -3.6191 5.3797 230 122 30 0.222
4.2832 7.5925 12.6309 230 127 30 0.237
12.8788 -2.9620 16.8515 230 155 30 0.325
10.3620 -4.8573 17.5880 230 156 30 0.328
9.2345 5.4206 15.2534 230 127 30 0.238
-13.5186 5.5925 13.7470 230 115 30 0.202
4.7505 5.8228 5.6399 230 99 30 0.153
-1.3734 -0.2233 3.5035 230 148 30 0.303
-0.2047 -3.5386 2.5160 230 160 30 0.341
9.8372 -5.6161 14.2253 230 157 30 0.331
-7.8773 -2.7221 15.4305 230 152 30 0.315
9.5532 -6.0979 11.1444 230 119 30 0.213
3.3225 1.8900 4.8157 230 112 30 0.191
18.1619 7.8691 12.9582 230 124 30 0.229
9.2275 5.0479 2.8997 230 137 30 0.271
8.9563 -3.7246 14.7195 230 139 30 0.276
4.9145 8.6749 11.6114 230 132 30 0.255
7.2508 -7.2826 12.8420 230 137 30 0.269
-12.2925 -4.8299 7.6301 230 98 30 0.151
15.4963 5.5613 11.8507 230 121 30 0.221
-2.5892 -0.0675 13.9044 230 112 30 0.194
14.6751 9.4741 15.7830 230 132 30 0.255
11.9500 11.6018 13.0980 230 161 30 0.344
-0.1107 0.4550 4.2157 230 113 30 0.195
-12.2353 4.2743 16.2565 230 106 30 0.173
-13.3160 9.1755 16.1909 230 121 30 0.218
6.4000 -2.1110 2.4863 230 136 30 0.265
10.0728 2.4070 15.4505 230 101 30 0.157
8.0357 4.8250 7.3155 230 154 30 0.323
12.6043 7.8679 12.5967 230 100 30 0.154
-9.0862 -1.9985 7.3088 230 129 30 0.243
-15.3729 6.0442 17.0475 230 124 30 0.230
14.5391 7.9427 11.1242 230 105 30 0.172
9.1696 -3.0978 12.6320 230 136 30 0.267
-4.9848 3.5175 14.6740 230 160 30 0.340
10.1632 4.0794 7.3134 230 104 30 0.168
-6.6131 -6.8477 11.8838 230 133 30 0.256
7.2629 -1.0283 4.7952 230 104 30 0.169
-9.5594 8.6715 14.5440 230 100 30 0.155
12.0976 -4.8355 16.9973 230 99 30 0.153
-4.4741 -7.6731 12.3000 230 126 30 0.234
12.5361 8.0521 14.0780 230 112 30 0.194
-11.3596 9.4360 13.5457 230 155 30 0.323
-12.3429 -11.5908 19.3900 230 151 30 0.313
14.8402 -7.0773 21.5732 230 118 30 0.210
-9.9974 -1.0452 13.2597 230 115 30 0.200
11.5926 -1.9712 13.7614 230 150 30 0.310
-5.6370 -9.9182 12.6472 230 160 30 0.340
-3.9537 0.7646 3.7535 230 159 30 0.338
12.6324 10.9985 15.6509 230 139 30 0.275
9.1816 6.9429 16.4415 230 135 30 0.262
7.5380 4.4937 6.3961 230 146 30 0.298
11.3138 7.2083 17.8515 230 106 30 0.175
2.5735 -6.4648 9.6448 230 128 30 0.240
9.4448 4.9261 5.6891 230 149 30 0.306
8.4316 -4.8051 10.3814 230 157 30 0.332
14.9638 7.3625 18.7222 230 146 30 0.297
-11.9339 -4.2316 12.7808 230 103 30 0.165
-2.6765 -9.6836 5.8059 230 131 30 0.252
0.1106 0.9301 -1.4685 230 154 30 0.323
-3.7875 -3.8083 13.2986 230 143 30 0.289
7.2914 -1.5081 13.3115 230 127 30 0.239
-10.0611 -4.1882 9.5149 230 113 30 0.195
9.3657 3.8321 15.2680 230 153 30 0.318
-12.5893 1.1045 7.5723 230 147 30 0.299
-4.4634 -8.2980 9.1530 230 110 30 0.185
-16.5950 10.9546 16.2190 230 102 30 0.160
-8.7978 -2.6390 6.3537 230 120 30 0.218
20.2575 5.2957 13.0193 230 129 30 0.245
-12.5972 1.2514 19.0620 230 134 30 0.259
4.4317 -4.1652 14.2618 230 103 30 0.165
-0.2246 4.3006 14.0224 230 121 30 0.221
-0.8591 0.9621 2.9492 230 100 30 0.157
13.0556 9.3222 12.3099 230 152 30 0.314
7.7948 -0.3887 14.1015 230 154 30 0.320
11.6657 5.8677 17.5322 230 163 30 0.348
10.0085 5.9592 9.0538 230 115 30 0.202
-10.2537 9.3752 12.1945 230 123 30 0.225
7.5155 6.3567 4.4433 230 113 30 0.196
13.9055 7.5717 11.2270 230 131 30 0.252
6.5891 -5.7978 11.5194 230 106 30 0.174
-11.6463 -4.8084 8.5986 230 123 30 0.227
6.4707 5.5555 6.3877 230 113 30 0.196
-1.5772 -0.0742 13.6751 230 130 30 0.249
1.8360 3.4497 6.2779 230 131 30 0.250
6.1136 1.6462 16.2122 230 131 30 0.251
-7.5412 2.0271 10.3684 230 135 30 0.263
17.8740 7.7359 19.2878 230 120 30 0.218
-8.5735 -2.8331 16.2690 230 145 30 0.293
5.3384 -5.6138 11.1959 230 132 30 0.255
-16.9288 6.0895 13.5575 230 126 30 0.234
2.8405 -0.3634 3.9446 230 100 30 0.157
8.5586 1.2807 18.2234 230 100 30 0.156
-12.5336 6.9549 14.1271 230 149 30 0.305
6.9356 -4.0723 12.2736 230 117 30 0.206
5.9731 6.3009 6.2742 230 104 30 0.167
3.4368 0.7728 3.9198 230 105 30 0.171
-10.3750 1.4605 9.6120 230 159 30 0.336
9.9514 -8.2300 12.9617 230 150 30 0.308
16.9407 3.5065 10.0780 230 155 30 0.325
-7.0944 5.3243 10.0552 230 130 30 0.247
16.8414 3.6744 24.6602 230 160 30 0.340
-13.3591 -0.7549 13.5594 230 102 30 0.162
9.6869 -7.3679 22.1870 230 145 30 0.295
-7.4651 -5.5594 8.2882 230 146 30 0.296
-11.0692 -4.4704 12.3573 230 146 30 0.298
-6.0232 -6.1961 9.7137 230 100 30 0.154
-8.1056 -6.4345 13.6745 230 153 30 0.319
-0.4999 -4.8338 -0.0226 230 126 30 0.236
-8.9318 -1.1192 5.2218 230 102 30 0.162
7.4586 6.0588 8.6057 230 137 30 0.268
10.4017 4.8372 14.0826 230 143 30 0.289
7.4011 -1.5049 12.1975 230 132 30 0.255
12.3291 6.9166 12.8037 230 161 30 0.343
10.0814 -4.9750 13.5399 230 129 30 0.245
13.5168 9.0454 15.3776 230 141 30 0.282
-3.9827 -6.9709 8.5095 230 161 30 0.343
9.9403 3.4050 19.0289 230 163 30 0.350
3.6857 -5.9247 11.7179 230 162 30 0.347
7.1834 8.6093 17.4533 230 121 30 0.219
3.5329 4.9061 12.3951 230 146 30 0.298
-8.4669 -5.3378 5.8999 230 156 30 0.329
13.1456 6.8737 16.2467 230 122 30 0.224
5.4439 -1.7878 4.4599 230 135 30 0.264
-18.5689 -0.0495 12.7571 230 127 30 0.237
-12.6650 1.7885 13.3377 230 135 30 0.264
8.5656 -4.4151 12.1835 230 134 30 0.260
-9.9422 9.3597 13.4164 230 119 30 0.215
-10.2996 0.2862 16.1094 230 150 30 0.311
-2.3677 2.8302 8.6436 230 141 30 0.280
1.0368 -2.5330 2.4464 230 134 30 0.261
10.9431 7.2476 14.3128 230 129 30 0.246
10.0530 7.4325 16.0155 230 114 30 0.199
2.7227 -4.7856 16.4493 230 131 30 0.252
9.9162 -3.2349 12.9191 230 135 30 0.262
6.7756 -2.6344 11.6420 230 126 30 0.235
-6.9456 4.5607 13.8455 230 99 30 0.151
-2.3336 -0.5703 12.1931 230 115 30 0.202
7.3849 -4.9760 10.3867 230 135 30 0.263
-7.8293 -4.0700 10.1191 230 152 30 0.316
13.6718 -4.7138 16.2598 230 156 30 0.326
7.8263 -6.3179 12.3918 230 129 30 0.245
6.1361 7.7500 5.7030 230 117 30 0.207
16.4744 6.5919 15.4438 230 154 30 0.322
7.7802 -5.7252 10.3188 230 131 30 0.251
0.4676 2.6512 8.3898 230 117 30 0.206
-10.8975 10.0545 15.8325 230 163 30 0.350
4.1657 -7.1756 10.7407 230 110 30 0.185
-8.2544 -6.6343 8.9761 230 120 30 0.217
18.0305 2.5753 22.5150 230 110 30 0.186
-3.5685 -11.6673 16.5194 230 136 30 0.266
4.2300 9.5840 14.7988 230 161 30 0.343
