ply
format ascii 1.0
comment Created by Open3D
element vertex 884
property double x
property double y
property double z
property double nx
property double ny
property double nz
property uchar red
property uchar green
property uchar blue
end_header
-6.48612 7.09309 11.8958 -0 -0 -1 76 78 75
-3.68079 -2.1515 11.5956 -0 -0 -1 60 70 82
-12.5583 -11.7246 10.9412 -0 -0 -1 16 7 0
4.35842 -5.7454 13.6512 -0 -0 -1 57 67 79
-10.8316 -9.81539 10.384 -0 -0 -1 40 48 5
-1.1229 3.38605 12.4319 -0 -0 -1 58 68 80
2.39722 -1.36763 12.4764 -0 -0 -1 57 70 79
6.29627 -3.14209 8.7214 -0 -0 -1 53 61 72
-1.58322 6.11669 7.99099 -0 -0 -1 194 196 193
-1.40669 5.53429 8.14089 -0 -0 -1 127 129 126
-3.19087 3.0378 3.20699 -0 -0 -1 95 97 94
-10.3787 6.45684 13.9859 -0 -0 -1 179 181 178
-8.37442 2.14093 6.07142 -0 -0 -1 41 50 59
-1.63374 5.69672 7.4029 -0 -0 -1 194 196 193
3.36859 1.76613 14.2266 -0 -0 -1 44 54 63
5.50573 -1.10679 7.59727 -0 -0 -1 61 73 85
-11.5577 -11.9681 12.2905 -0 -0 -1 7 5 8
0.566271 -4.72231 9.0275 -0 -0 -1 32 36 45
14.3466 4.09686 18.2881 -0 -0 -1 60 72 84
-5.2386 6.21161 8.57121 -0 -0 -1 206 208 205
-4.09584 -2.17628 10.5889 -0 -0 -1 16 23 31
3.60996 2.85087 10.2158 -0 -0 -1 57 69 81
-7.76531 -13.7417 16.3309 -0 -0 -1 3 2 0
-6.73167 2.54022 6.57662 -0 -0 -1 178 182 181
0.822671 -1.2764 10.2729 -0 -0 -1 16 22 30
-1.67311 6.38653 8.628 -0 -0 -1 199 201 198
0.499898 5.69634 10.4052 -0 -0 -1 15 22 28
-10.2549 -11.773 12.4065 -0 -0 -1 4 3 2
-9.27001 -13.4744 14.7093 -0 -0 -1 11 7 6
-2.30626 0.513727 11.9277 -0 -0 -1 41 50 59
-3.76888 -6.14848 9.81158 -0 -0 -1 32 42 51
-10.5712 -11.0182 11.2401 -0 -0 -1 7 5 8
-6.80848 6.4341 9.41757 -0 -0 -1 69 71 68
-11.2681 -12.2835 12.6372 -0 -0 -1 7 9 3
-0.58717 4.34366 4.96791 -0 -0 -1 114 116 113
-1.72565 -1.88149 11.9346 -0 -0 -1 18 22 31
-1.33064 -0.301116 11.3138 -0 -0 -1 18 22 31
-10.8578 -12.3438 13.5243 -0 -0 -1 0 1 1
-11.2934 -12.1769 12.6904 -0 -0 -1 3 4 8
8.29047 -6.15411 23.2887 -0 -0 -1 35 44 51
-7.32934 -1.00007 12.6045 -0 -0 -1 39 43 52
-2.78143 -3.3247 6.60011 -0 -0 -1 34 45 51
-5.02828 -16.4859 18.7306 0.744707 -0.078172 -0.662797 11 4 0
1.58756 5.55378 6.82873 -0 -0 -1 138 140 137
-8.86027 -13.4834 15.4085 -0 -0 -1 1 0 4
-0.255986 5.24847 10.1096 -0 -0 -1 47 56 65
-10.9333 -12.4305 12.9454 0.835668 0.415013 -0.359754 6 8 0
1.27925 -0.237621 10.6241 -0 -0 -1 37 46 53
-12.5774 -10.9097 10.9505 -0 -0 -1 6 9 0
-10.613 -12.5656 13.2686 0.314061 0.897692 -0.309054 65 72 27
-1.84014 -15.7849 18.293 -0 -0 -1 0 4 0
-6.44052 -13.524 16.4165 -0 -0 -1 8 14 3
-10.4553 -11.3411 11.7553 -0 -0 -1 3 4 8
-14.2418 6.40062 15.3792 -0 -0 -1 207 213 210
-5.79548 6.29407 12.0347 -0 -0 -1 148 150 147
-10.7907 -10.1287 10.6763 -0 -0 -1 2 1 0
-10.7496 -12.5596 13.2067 0.375549 0.49896 -0.781026 7 3 6
4.69597 7.26427 9.46215 -0 -0 -1 119 121 118
-5.26439 -4.272 10.9632 -0 -0 -1 55 63 74
-10.6014 -12.5993 13.2526 0.314061 0.897692 -0.309054 7 10 0
-7.4044 0.0440191 14.9542 -0 -0 -1 0 0 0
12.4437 7.62398 13.9944 -0 -0 -1 158 160 157
-9.79242 -13.0613 14.2286 -0 -0 -1 3 4 5
-1.74497 -1.95239 4.26441 -0 -0 -1 13 22 32
-8.65444 -5.70521 9.63428 -0 -0 -1 18 22 31
-5.31746 -16.1133 18.2777 -0 -0 -1 7 8 0
10.1374 8.68933 10.1363 -0 -0 -1 86 88 85
-2.21084 -15.7964 18.1064 -0 -0 -1 9 4 0
-10.0765 -12.1133 12.6633 -0 -0 -1 0 0 0
1.01963 6.38852 11.5237 -0 -0 -1 15 19 26
-4.33373 -0.0870867 7.17941 -0 -0 -1 36 40 49
-6.94649 -14.3372 17.3891 -0 -0 -1 6 6 8
-6.90471 -14.6654 16.6332 -0 -0 -1 5 0 9
-0.0549696 3.39464 13.9044 -0 -0 -1 58 68 80
-5.12659 -16.2079 18.3819 -0 -0 -1 7 6 1
2.05361 5.81775 7.32969 -0 -0 -1 176 178 175
15.0671 12.163 17.5271 -0 -0 -1 95 97 94
0.40308 -1.12757 8.0199 -0 -0 -1 18 22 31
-1.81935 -17.5477 20.2932 -0 -0 -1 9 11 0
-4.33171 2.76816 12.7538 -0 -0 -1 56 62 74
-8.95905 -12.2486 14.322 -0 -0 -1 0 0 0
19.9186 5.746 23.0024 -0 -0 -1 16 27 33
-1.37454 -0.431351 7.74506 0.558585 0.796817 -0.23036 18 22 31
-1.64456 -15.0557 17.4544 -0 -0 -1 97 103 38
-1.76082 -2.02417 11.064 -0 -0 -1 60 70 82
-1.46604 -0.753397 11.1742 -0 -0 -1 63 73 83
-1.81796 -17.518 20.2614 -0 -0 -1 9 11 0
-0.572222 2.83122 10.7991 -0 -0 -1 41 50 57
10.2199 -1.05365 15.5934 -0 -0 -1 0 0 0
-10.0524 -12.5353 14.4465 -0 -0 -1 6 8 1
-6.07189 -2.65464 11.9841 -0 -0 -1 18 22 31
-1.72456 1.25601 2.71077 -0 -0 -1 0 0 0
-12.6165 -10.807 10.8883 -0 -0 -1 189 195 123
5.48599 7.54709 11.532 -0 -0 -1 92 97 100
-1.82201 3.0127 12.3057 -0 -0 -1 16 27 33
7.28742 5.23893 6.46611 -0 -0 -1 0 0 0
-8.71775 -13.3885 15.8122 0.579959 0.760403 -0.292293 1 2 0
-5.62895 6.31795 8.91425 -0 -0 -1 54 56 53
-1.18174 -1.7066 8.4707 -0 -0 -1 60 70 82
-1.34285 -2.4355 7.83624 -0 -0 -1 58 71 80
-3.5877 1.17518 10.1981 -0 -0 -1 17 21 30
-6.27493 -13.7561 16.6474 -0 -0 -1 83 89 29
-12.3549 -10.9858 11.4388 -0 -0 -1 9 6 0
-2.85362 -6.00954 9.11989 -0 -0 -1 54 67 76
-10.1684 -11.9768 12.5292 -0 -0 -1 7 3 6
-10.809 -9.25065 9.28735 -0.116379 -0.519011 -0.846808 189 195 123
-4.42718 -0.682255 12.3975 -0 -0 -1 55 64 73
-10.8988 1.50297 6.38197 -0 -0 -1 116 118 115
-0.941238 -1.34399 9.58918 -0 -0 -1 17 22 31
0.810357 -2.57738 9.63829 -0 -0 -1 31 40 47
3.49644 2.18908 9.98443 -0 -0 -1 61 70 79
-5.17339 -16.1408 18.4419 -0 -0 -1 7 4 0
2.74268 5.33841 5.32647 -0 -0 -1 183 185 182
-11.5886 -11.5818 12.6341 -0 -0 -1 6 3 0
-8.24676 -13.668 16.2486 -0 -0 -1 3 5 0
-11.0473 1.58437 6.75925 -0 -0 -1 173 175 172
-1.10796 -4.41065 6.84446 -0 -0 -1 54 67 75
-5.4487 3.61552 7.14691 -0 -0 -1 149 151 148
-8.67673 6.63385 15.0585 -0 -0 -1 32 35 41
3.33104 1.95648 9.90822 -0 -0 -1 60 70 80
-9.39941 -12.9464 15.2598 0.543601 -0.00604227 -0.839322 13 1 2
-10.6555 -11.9435 13.6964 0.354348 0.521064 -0.776485 5 1 2
0.471732 0.43573 10.926 -0 -0 -1 36 45 52
4.9368 -4.96272 11.0965 -0 -0 -1 43 52 59
-4.02209 -3.38832 11.0614 -0 -0 -1 0 0 0
-10.9152 -11.9331 13.4701 -0 -0 -1 206 206 145
-4.03606 -3.5161 10.7027 -0 -0 -1 54 64 74
-11.2207 1.49656 6.82812 -0 -0 -1 109 111 108
3.09421 3.07962 9.75573 -0 -0 -1 13 22 27
-10.6276 -12.0594 13.6313 0.354348 0.521064 -0.776485 6 8 0
-2.85571 5.8893 8.50018 -0 -0 -1 112 114 111
8.62442 9.15827 14.3768 -0 -0 -1 86 88 85
-9.35603 -12.3515 14.5202 -0 -0 -1 2 3 0
-4.70369 -2.77696 10.9132 -0 -0 -1 0 0 0
7.6594 4.67477 4.32025 -0 -0 -1 20 19 15
0.943054 -1.13442 11.3876 -0 -0 -1 58 70 80
1.02417 -1.3533 8.5347 -0 -0 -1 55 63 74
0.593775 -1.26306 8.3004 -0 -0 -1 10 13 17
-8.78511 -13.3474 15.744 0.739064 0.536587 -0.407258 11 13 6
-10.2027 -11.163 12.746 -0 -0 -1 0 0 0
-3.45687 3.11115 4.02095 -0 -0 -1 115 117 114
-5.75899 6.27486 9.17743 -0 -0 -1 205 207 204
-5.78668 3.22017 6.70743 -0 -0 -1 101 103 100
-5.93594 -4.75413 10.7978 -0 -0 -1 55 63 74
5.3374 6.68365 10.1757 -0 -0 -1 59 66 72
10.9905 9.15675 13.9272 -0 -0 -1 127 129 126
-8.58093 -13.4722 15.9425 0.840242 0.37948 0.387283 13 8 0
8.1732 7.42738 9.34233 -0 -0 -1 95 97 94
-8.48673 2.29739 5.89774 -0 -0 -1 40 48 53
1.41101 1.89099 13.4189 -0 -0 -1 16 25 32
-4.24837 -4.22203 6.01593 -0 -0 -1 43 56 64
1.06698 -0.0422044 10.6597 -0 -0 -1 36 46 52
12.1809 5.31685 7.56544 -0 -0 -1 34 30 21
-8.86505 6.94657 14.7526 -0 -0 -1 100 105 101
0.0325342 6.48128 11.5297 -0 -0 -1 121 123 120
-2.5116 -15.7081 18.0949 -0 -0 -1 63 63 0
-3.75257 -16.9721 19.0005 -0 -0 -1 0 1 3
-8.14845 -14.0798 15.7799 -0 -0 -1 10 1 0
-4.2926 -2.30188 11.6915 -0 -0 -1 16 22 28
-12.8655 -11.6308 10.2272 -0 -0 -1 3 1 2
-8.81384 -13.7634 15.147 -0 -0 -1 1 1 13
-1.80768 1.71781 11.6734 -0 -0 -1 18 22 31
-5.46622 3.24663 7.28697 -0 -0 -1 52 60 64
-7.31604 3.80607 8.28454 -0 -0 -1 177 182 176
12.662 -0.285048 8.93383 -0 -0 -1 140 142 139
-9.5995 -12.6169 14.8437 0.861217 -0.492204 0.126651 3 1 1
-0.161663 6.59754 12.4641 -0 -0 -1 46 57 64
-8.35786 -13.9606 15.6169 0.571498 0.601434 -0.558273 7 1 0
-3.82174 3.70418 8.06504 -0 -0 -1 35 44 51
-1.36754 -2.35341 7.43429 -0 -0 -1 58 70 82
-10.8762 -12.398 13.1155 -0 -0 -1 4 3 2
-11.5744 -1.64368 9.81605 -0 -0 -1 6 11 17
-12.1121 -11.1393 11.0799 -0 -0 -1 0 0 1
-10.5098 -12.5774 13.3973 0.702674 0.487024 -0.518707 3 4 2
5.73812 -4.34231 7.38577 -0 -0 -1 60 69 86
-4.66128 -4.27379 11.5675 -0 -0 -1 55 63 74
-4.61912 -0.401488 6.84097 -0 -0 -1 36 40 49
5.3606 2.11109 3.57869 -0 -0 -1 12 19 29
-7.10286 -0.50663 13.3751 -0 -0 -1 33 40 48
-10.054 -2.38087 9.69259 -0 -0 -1 11 20 27
4.04893 6.82452 12.0475 -0 -0 -1 124 128 129
-10.3264 -11.6406 12.0862 -0 -0 -1 28 28 0
10.3315 7.29482 17.8234 -0 -0 -1 63 74 84
7.55351 4.59849 4.01194 -0 -0 -1 90 91 86
6.52246 7.79564 11.7286 -0 -0 -1 95 98 96
-9.78064 -13.1115 14.1654 0.779454 0.55304 -0.294276 1 8 5
8.21952 7.4473 8.47068 -0 -0 -1 87 89 86
-3.78108 -2.92174 6.51017 -0 -0 -1 55 63 74
-3.34476 -15.3632 17.2928 -0 -0 -1 0 1 2
-5.03853 -0.48406 7.26867 -0 -0 -1 55 63 74
0.358187 5.08428 7.03225 -0 -0 -1 135 137 134
-7.21783 5.0083 14.1246 -0 -0 -1 53 61 72
-0.81054 6.6348 12.0062 -0 -0 -1 163 168 164
-1.38416 -0.388896 7.86859 0.569275 0.80975 -0.142235 18 22 31
-7.62993 -14.3491 16.1376 -0 -0 -1 0 0 4
-7.7436 -1.32783 13.0532 -0 -0 -1 39 43 52
-11.6745 -12.064 12.236 -0 -0 -1 158 162 24
-7.42379 -14.4652 16.2603 -0 -0 -1 0 3 1
-2.67346 -3.07809 6.42497 -0 -0 -1 35 44 51
-6.54821 -14.8272 16.8263 -0 -0 -1 3 2 5
-0.900246 4.75324 8.0969 -0 -0 -1 92 94 91
-6.34796 -14.8915 16.9336 -0 -0 -1 1 1 6
-2.08997 6.26017 12.4074 -0 -0 -1 36 45 50
-3.56166 -5.04513 10.3759 -0 -0 -1 57 67 75
-1.48791 -15.2038 17.6561 -0.461295 -0.768305 -0.443751 6 6 0
-4.64768 2.68623 12.9727 -0 -0 -1 57 65 76
-2.01543 2.72853 12.1628 -0 -0 -1 16 23 31
-8.20752 -14.0773 15.6702 0.663218 0.592248 -0.457586 130 136 10
-3.43277 -16.968 19.5808 -0 -0 -1 2 1 0
-1.1094 5.14889 9.31608 -0 -0 -1 170 172 169
-10.0545 -12.4488 14.4812 -0 -0 -1 2 6 2
-3.64588 1.71511 14.6147 -0 -0 -1 18 22 31
-11.6712 -11.6686 12.3041 -0 -0 -1 1 1 3
7.71839 7.06494 5.80138 -0 -0 -1 180 182 179
-9.2579 -12.9915 15.2984 0.345415 0.33198 -0.877769 114 122 17
-9.09182 -13.0831 15.5192 -0 -0 -1 11 7 6
1.70587 -1.4186 9.39597 -0 -0 -1 55 63 74
-7.57996 -6.24495 14.1405 -0 -0 -1 55 63 74
-7.02705 -0.416378 7.0952 -0 -0 -1 39 43 52
-15.5746 0.458247 14.5073 -0 -0 -1 0 0 0
6.03172 5.35254 11.0611 -0 -0 -1 44 53 60
2.911 6.43012 11.2492 -0 -0 -1 15 23 30
-10.2272 -12.2964 13.0061 -0 -0 -1 0 0 0
-8.79775 -13.2294 15.8766 0.739064 0.536587 -0.407258 2 3 5
-5.3567 -4.05128 5.65468 -0 -0 -1 45 56 62
-3.27225 -4.95103 11.8784 -0 -0 -1 0 0 0
-1.73234 1.59545 11.9682 -0 -0 -1 17 21 30
6.75654 -1.38649 11.0773 -0 -0 -1 16 25 32
-10.8261 -9.84356 9.64582 -0 -0 -1 0 1 0
-4.26974 -2.57328 6.3899 -0.639817 -0.625274 -0.446841 54 64 74
-7.54483 -13.8855 16.7979 -0 -0 -1 0 0 4
12.85 4.45914 16.533 -0 -0 -1 14 25 31
-8.88276 6.91852 14.7546 -0 -0 -1 100 105 101
-5.50009 6.08351 9.64182 -0 -0 -1 72 74 71
-1.43089 6.88041 12.9116 -0 -0 -1 90 97 98
-0.280585 7.01928 12.8213 -0 -0 -1 91 98 106
-10.3416 -12.258 14.0728 -0 -0 -1 2 4 0
0.601588 -2.62782 10.1358 -0 -0 -1 30 41 47
-11.4378 -12.0958 12.4447 -0 -0 -1 1 0 1
-3.29603 -1.7238 7.06238 -0 -0 -1 17 23 29
4.11816 0.0244418 8.22359 -0 -0 -1 53 63 73
-10.0312 -12.8927 13.9056 -0 -0 -1 1 3 0
-4.94135 6.63318 13.3219 -0 -0 -1 150 152 147
-12.0631 -11.2393 12.048 -0 -0 -1 3 0 0
-11.4498 -11.6576 12.9249 -0 -0 -1 0 2 0
-1.34551 -3.62798 6.97495 -0 -0 -1 56 66 76
0.173849 0.182308 8.51652 -0 -0 -1 36 45 52
-7.42369 -14.2391 17.1908 -0 -0 -1 135 142 52
-4.10812 2.67394 12.0264 -0 -0 -1 12 21 28
-0.516374 2.07732 12.1987 -0 -0 -1 40 49 56
-10.1809 -12.3872 14.2815 -0 -0 -1 1 3 11
-1.58241 -17.4374 20.0882 -0 -0 -1 14 23 0
15.1206 4.94605 20.2951 -0 -0 -1 62 72 81
-11.8708 -11.9108 11.9491 -0 -0 -1 0 1 5
-1.63677 6.14183 8.05969 -0 -0 -1 194 196 193
-2.73858 -3.39923 6.39524 -0 -0 -1 56 66 76
2.99076 3.01216 10.2104 -0 -0 -1 18 22 31
-4.87835 -6.88339 12.7188 -0 -0 -1 54 67 76
-2.4096 -17.475 20.1177 -0 -0 -1 5 2 3
-4.54102 -0.825496 7.05338 -0 -0 -1 55 64 73
-3.20546 -1.75512 7.41158 -0 -0 -1 16 23 31
-8.8787 -12.9206 14.9406 -0 -0 -1 1 1 2
-9.05256 -13.6059 14.9327 -0 -0 -1 0 1 2
3.1419 3.0513 9.55615 -0 -0 -1 18 22 33
-3.68741 -16.7629 19.2271 -0 -0 -1 0 2 3
5.95403 -0.835959 8.65012 -0 -0 -1 15 24 31
-12.0629 -11.3409 11.9483 -0 -0 -1 2 1 0
-7.13915 -1.82856 5.68806 -0 -0 -1 17 21 30
5.26924 8.9474 12.5793 -0 -0 -1 0 0 0
2.14553 0.577233 0.671411 -0 -0 -1 204 206 203
-10.8148 -9.3798 9.3673 -0.116379 -0.519011 -0.846808 6 9 0
-10.8783 7.52642 16.4229 -0 -0 -1 149 152 149
-5.64462 -3.41446 5.71227 -0.80351 0.335125 -0.492 17 21 30
-11.5424 -11.5537 12.8062 0.856455 0.420732 -0.299114 36 34 10
-4.3137 2.40882 12.0796 -0 -0 -1 55 65 75
1.51654 -0.446833 1.344 -0 -0 -1 61 71 80
1.24256 0.307394 10.372 0.390745 -0.681008 -0.619312 15 19 28
-9.69209 -12.7618 14.919 0.484986 -0.655261 -0.579156 1 1 6
3.04567 0.456572 9.56994 -0 -0 -1 17 21 30
-10.2518 -11.2011 12.7808 -0 -0 -1 0 0 0
-2.19274 -2.89876 6.82756 -0 -0 -1 35 44 51
-1.92996 1.01865 8.11172 0.486667 0.838172 -0.246216 18 22 31
-10.633 -10.7887 12.0367 -0 -0 -1 0 2 0
-3.40646 6.14333 13.7409 -0 -0 -1 36 45 52
-9.89679 -13.0071 14.0539 -0 -0 -1 19 18 3
8.28868 9.05073 14.4048 -0 -0 -1 83 85 82
-1.82217 -17.0913 20.0908 -0 -0 -1 1 0 0
-2.02277 -17.4734 20.1427 -0 -0 -1 197 209 67
-1.6132 -1.83628 11.0474 -0 -0 -1 60 70 79
-1.27683 -4.28092 6.74238 -0 -0 -1 54 67 75
8.87096 9.5936 14.388 -0 -0 -1 60 65 59
-12.4137 -10.9437 11.2856 -0.306229 -0.941453 -0.141029 34 35 0
15.8023 9.25078 17.3091 -0 -0 -1 212 214 211
0.58903 -3.84984 7.58803 -0 -0 -1 32 36 45
-12.0393 -11.7943 11.6894 -0 -0 -1 88 80 54
-11.023 -12.3227 12.8615 -0 -0 -1 28 28 0
-1.0552 -1.88725 9.45829 -0 -0 -1 60 70 79
0.297103 -1.16411 8.06293 -0 -0 -1 18 22 31
-10.0828 -12.069 12.6769 0.897116 0.23979 -0.371058 0 0 0
-8.33688 -1.1322 5.36918 -0 -0 -1 15 24 29
13.362 -1.63361 16.7055 -0 -0 -1 16 25 32
-4.34493 4.65967 6.78939 -0 -0 -1 201 203 200
-4.16799 3.321 4.9252 -0 -0 -1 67 69 66
-3.1395 -1.65875 7.33284 -0 -0 -1 16 25 32
0.418582 4.72794 5.76978 -0 -0 -1 138 140 137
-3.21954 -2.26362 6.91984 -0 -0 -1 18 22 31
-6.91723 -3.02113 5.14268 -0 -0 -1 18 22 31
-8.34647 -14.0499 15.5297 0.571498 0.601434 -0.558273 15 11 0
13.4002 10.8546 12.766 -0 -0 -1 120 122 119
-1.76684 2.83192 11.9331 -0 -0 -1 18 22 31
-6.97629 -14.3483 17.4281 -0 -0 -1 6 6 8
16.9042 5.3156 22.6576 -0 -0 -1 59 73 84
-1.8954 -16.6541 19.1307 -0 -0 -1 197 209 67
-4.01101 -1.05633 6.95029 -0 -0 -1 55 63 74
3.01427 -0.00752918 8.87407 -0 -0 -1 52 64 73
0.776953 -1.50074 7.93612 -0 -0 -1 55 63 74
-1.06401 -5.65736 9.38151 -0 -0 -1 28 37 42
-3.65541 0.861627 7.82755 -0 -0 -1 57 65 76
3.49845 5.28652 5.60189 -0 -0 -1 185 187 184
10.7631 9.24202 11.5309 -0 -0 -1 93 95 92
-7.17599 -4.40646 10.5178 -0 -0 -1 35 39 48
-4.53408 1.55363 12.5554 -0 -0 -1 57 65 76
-10.0173 -12.7285 14.1774 -0 -0 -1 0 1 0
2.15935 5.62631 10.7901 -0 -0 -1 18 22 31
-5.25828 6.21868 8.91799 -0 -0 -1 205 207 204
-8.61302 -13.4181 15.9591 -0.270522 -0.945018 -0.183735 102 114 49
-11.7409 1.60119 9.2125 -0 -0 -1 0 0 0
4.85195 5.91585 8.78028 -0 -0 -1 63 65 62
-5.0155 -16.4021 18.7351 0.535052 0.40869 -0.739386 72 70 55
-15.9908 6.85292 14.2961 -0 -0 -1 180 182 179
1.75004 -2.01276 10.1467 -0 -0 -1 55 63 74
2.83702 1.5925 10.4119 -0 -0 -1 18 22 31
-8.28665 -13.5937 16.2734 -0 -0 -1 116 118 66
-1.24809 -0.452469 11.5684 -0 -0 -1 16 23 31
3.47617 5.1351 10.0723 -0 -0 -1 57 67 77
-7.44242 -14.1189 16.4637 -0 -0 -1 0 0 7
4.0455 6.80177 9.80518 -0 -0 -1 93 95 92
-6.26685 -9.46794 13.4518 -0 -0 -1 57 70 78
4.99667 4.24987 10.0921 -0 -0 -1 44 53 62
-1.76797 -14.1079 16.4205 -0 -0 -1 1 4 1
-1.56286 -15.1988 17.7253 -0.461295 -0.768305 -0.443751 83 90 28
2.36298 -4.8713 10.8344 -0 -0 -1 42 51 56
-7.92228 -13.8076 16.5703 -0 -0 -1 56 62 29
-1.27094 -1.24422 7.66729 -0 -0 -1 16 22 30
5.4067 -3.64789 6.99542 -0 -0 -1 55 69 80
4.72896 -1.24898 13.4224 -0 -0 -1 16 26 32
-1.31091 -15.7276 18.2799 -0 -0 -1 6 11 0
-6.71454 -14.3958 17.4735 -0 -0 -1 130 128 86
8.89997 -0.562033 14.3243 -0 -0 -1 44 54 63
-9.58343 -5.86527 11.5833 -0 -0 -1 15 24 33
-10.798 8.75755 13.2735 -0 -0 -1 206 208 205
-1.34873 -1.17436 7.39955 -0 -0 -1 18 22 31
3.71013 2.33833 9.89221 -0 -0 -1 57 69 81
-4.57193 -15.2918 17.4918 -0 -0 -1 17 14 8
-10.8565 5.24029 15.2987 -0 -0 -1 34 38 47
-3.52894 -3.28248 12.7752 -0 -0 -1 60 70 82
0.690625 2.35167 9.19879 -0 -0 -1 16 23 31
-8.90808 8.59666 16.609 -0 -0 -1 148 150 147
-12.4289 -11.27 11.1594 -0 -0 -1 0 0 0
0.741172 -0.215015 10.3164 -0 -0 -1 16 23 31
-1.01947 -0.452226 10.7703 -0 -0 -1 15 24 31
-12.213 -11.1255 11.7279 -0 -0 -1 40 48 5
-5.78955 6.24749 9.92339 -0 -0 -1 72 74 71
0.820422 0.602762 12.3899 -0 -0 -1 43 52 61
-9.57224 -12.584 14.7379 -0 -0 -1 1 0 6
-11.8959 -11.4264 12.3592 -0 -0 -1 204 212 69
7.22093 -5.18947 9.31788 -0 -0 -1 43 52 61
3.59188 -5.52644 10.5405 -0 -0 -1 16 25 32
-5.80899 -16.1113 18.3189 -0 -0 -1 0 0 0
-10.6265 -11.9963 13.6741 0.354348 0.521064 -0.776485 193 193 89
-1.03627 -0.482072 11.3717 -0 -0 -1 18 22 31
-3.50283 -5.14337 12.223 -0 -0 -1 35 44 51
-9.40391 -12.8877 15.1731 -0.274098 -0.723961 -0.633049 148 157 67
-4.92526 1.20375 7.54619 -0 -0 -1 57 65 76
-1.87764 4.00451 5.54126 -0 -0 -1 193 195 192
-1.72862 -4.89011 9.78969 -0 -0 -1 56 66 76
-3.28758 -4.87171 9.92261 -0 -0 -1 57 67 75
-9.13721 5.65431 14.5194 -0 -0 -1 34 38 47
9.04013 3.50832 16.3091 -0 -0 -1 60 70 82
-9.23082 6.6706 13.8023 -0 -0 -1 103 105 102
-3.37544 -5.11446 10.1648 -0 -0 -1 56 66 76
-8.12384 2.47973 6.11668 -0 -0 -1 209 211 208
-6.10081 -14.98 17.0207 -0 -0 -1 51 54 25
-7.00733 -13.9384 16.8273 -0.0529382 -0.900794 -0.431009 50 50 23
6.82082 9.0321 13.3044 -0 -0 -1 120 125 120
-6.24585 3.00476 6.73772 -0 -0 -1 92 94 91
-6.18781 -15.1508 17.2036 -0 -0 -1 51 54 25
-6.83642 -14.4094 16.8056 -0 -0 -1 1 2 0
-0.655098 6.00155 7.08239 -0 -0 -1 117 119 116
-11.6044 8.57631 13.3628 -0 -0 -1 68 70 67
-7.43213 0.929671 13.4096 -0 -0 -1 54 64 74
-10.8346 -9.60873 10.0197 -0 -0 -1 9 6 0
1.19154 -3.00055 10.9703 -0 -0 -1 33 40 46
1.16436 -1.65759 10.4055 -0 -0 -1 55 63 74
-2.97923 -15.1575 17.5655 -0 -0 -1 2 1 0
-4.79933 7.00887 12.9476 -0 -0 -1 93 95 92
5.75482 7.21283 11.5612 -0 -0 -1 56 67 76
13.5654 -5.88705 22.6501 -0 -0 -1 0 0 0
2.60819 5.51193 5.44848 -0 -0 -1 119 121 118
-8.24099 6.64056 14.3254 -0 -0 -1 150 152 147
-4.25289 -3.70906 10.8114 -0 -0 -1 55 63 74
-1.10261 -2.79131 10.5656 -0 -0 -1 31 40 47
1.94223 4.07319 11.0037 -0 -0 -1 57 67 79
-1.91586 -17.2238 20.0561 -0 -0 -1 14 5 1
10.8902 -9.54804 15.3857 -0 -0 -1 43 52 61
0.656282 -1.20679 10.5618 -0 -0 -1 18 22 31
-11.5881 -4.41931 11.5389 -0 -0 -1 55 64 73
-7.36584 0.645938 12.8874 -0 -0 -1 54 64 73
5.42114 6.87995 10.4869 -0 -0 -1 59 66 72
-9.94587 -12.757 14.5845 -0 -0 -1 1 3 2
2.95248 -0.884697 12.8623 -0 -0 -1 16 25 32
2.83829 2.86607 10.21 -0 -0 -1 16 22 29
3.87434 -0.429046 13.4033 -0 -0 -1 16 25 32
5.4751 -4.68076 7.78724 -0 -0 -1 45 49 54
-10.4703 6.79249 14.9292 -0 -0 -1 180 182 179
-4.57481 4.59198 6.67328 -0 -0 -1 60 62 59
-1.33747 -3.022 10.7832 -0 -0 -1 31 38 44
-5.73781 6.17708 8.54227 -0 -0 -1 203 205 202
1.33388 2.87304 11.2298 -0 -0 -1 18 22 31
-11.0857 -0.115965 13.2381 -0 -0 -1 39 43 52
-9.88046 -3.9414 7.70982 -0 -0 -1 36 43 49
-6.93921 2.65526 6.60242 -0 -0 -1 53 60 68
-6.04879 0.376346 12.9402 -0 -0 -1 36 40 49
-9.1615 -4.02507 11.5071 -0 -0 -1 55 63 74
-1.58678 -15.537 18.0209 -0 -0 -1 84 94 49
-6.07148 0.346626 13.0209 -0 -0 -1 36 40 49
-1.43973 -2.29179 7.08907 -0 -0 -1 58 68 77
6.60779 -0.433302 11.3093 -0 -0 -1 53 63 73
-12.0635 1.72367 14.3757 -0 -0 -1 50 59 68
-10.9778 -10.2993 9.36447 -0 -0 -1 16 7 0
-6.0645 -5.32201 14.2665 -0 -0 -1 32 41 46
-7.81871 -13.5747 16.4581 -0 -0 -1 7 2 1
-12.2566 -11.0858 11.7323 -0 -0 -1 66 76 11
-8.485 1.87981 13.5293 -0 -0 -1 36 45 52
-5.59366 -0.271697 6.6805 -0 -0 -1 55 63 74
-4.99215 -2.73151 11.182 -0 -0 -1 18 22 31
0.553235 -2.22946 8.22219 -0 -0 -1 15 20 23
-10.6535 -10.676 11.2463 -0 -0 -1 1 1 3
-5.63997 -1.28411 12.2619 -0 -0 -1 55 63 74
-8.55761 0.160324 13.2216 -0 -0 -1 55 63 74
-1.55089 -0.13971 11.8585 -0 -0 -1 15 23 30
5.70491 5.278 15.7629 -0 -0 -1 57 65 76
-0.623531 0.00419958 12.0689 -0 -0 -1 16 25 32
-5.23353 2.00636 12.5702 -0 -0 -1 57 65 76
-1.93533 -3.54356 11.4268 -0 -0 -1 60 70 80
-1.21374 -2.2321 7.20956 0.794723 -0.506692 -0.334182 31 40 45
-1.41027 -1.79593 10.0592 -0 -0 -1 0 0 0
-3.46955 4.16142 13.09 -0 -0 -1 39 48 55
-7.23578 -13.8323 16.7291 -0 -0 -1 0 2 0
-2.6383 -2.53146 11.0896 -0 -0 -1 60 70 82
-8.46879 -13.9788 15.5139 0.717767 0.526379 -0.455781 21 18 0
1.23652 4.56628 3.45102 -0 -0 -1 0 0 0
-1.66986 -1.77689 11.2763 -0 -0 -1 62 72 81
8.4787 6.05781 7.57428 -0 -0 -1 202 204 201
-6.34139 -2.83818 5.54372 -0 -0 -1 55 63 74
-0.289454 1.50461 11.6629 -0 -0 -1 36 45 52
-0.384935 -1.07107 11.1532 -0 -0 -1 18 22 31
14.0819 -2.76413 16.957 -0 -0 -1 36 45 52
2.32989 3.16162 15.1867 -0 -0 -1 18 22 31
1.24107 -3.8874 6.89528 -0 -0 -1 46 56 65
-3.30563 2.28003 14.7986 -0 -0 -1 53 61 72
-2.18088 -17.66 20.4457 -0 -0 -1 14 1 0
-3.55115 -15.2962 17.4753 -0 -0 -1 9 9 0
-8.34877 -13.4734 16.0078 -0 -0 -1 98 105 67
1.98898 6.40993 7.87212 -0 -0 -1 177 179 176
7.9398 9.16439 13.4808 -0 -0 -1 95 97 94
-2.76248 -17.0703 19.4855 -0 -0 -1 15 1 1
-2.90447 -16.9604 19.6 -0 -0 -1 4 3 4
-8.65702 7.01181 15.7144 -0 -0 -1 30 40 45
15.8612 7.70221 24.9641 -0 -0 -1 129 131 128
11.4595 -5.07066 17.3226 -0 -0 -1 61 71 83
-2.8909 -16.887 19.5145 -0 -0 -1 4 3 4
-4.05317 -16.6191 19.079 -0 -0 -1 160 159 93
18.0827 4.0785 12.5568 -0 -0 -1 42 40 32
-11.6925 7.74895 17.1291 -0 -0 -1 180 182 179
-6.29875 -3.76426 11.2867 -0 -0 -1 55 63 74
14.2307 8.32278 18.4194 -0 -0 -1 99 101 98
-9.73614 7.21811 15.5383 -0 -0 -1 105 107 102
0.516724 -1.08449 8.4496 -0 -0 -1 18 22 31
0.526141 -3.82493 7.50449 -0 -0 -1 32 36 45
-9.45436 -12.8202 15.1457 -0.174555 -0.767256 -0.61713 130 134 10
7.40222 -2.261 10.5961 -0 -0 -1 55 72 80
-9.34048 6.59449 14.3672 -0 -0 -1 99 101 96
1.02576 -0.242866 9.63787 -0 -0 -1 37 46 53
-0.860039 5.81494 6.54492 -0 -0 -1 113 115 112
2.18565 2.27156 14.239 -0 -0 -1 16 25 32
0.438047 4.18019 9.78895 -0 -0 -1 12 22 30
-3.41183 -1.32462 7.20454 -0.575707 -0.549249 -0.605712 55 63 74
-10.894 -11.8945 13.4324 -0 -0 -1 184 184 129
-4.69298 6.45184 13.4347 -0 -0 -1 46 54 59
1.05953 0.251382 10.3181 0.390745 -0.681008 -0.619312 18 22 31
-3.12835 -16.8975 19.4628 -0 -0 -1 3 1 1
9.15123 -6.46229 12.4823 -0 -0 -1 0 1 0
-1.16994 -0.532606 10.9802 -0 -0 -1 15 24 30
6.52662 -0.652505 14.2342 -0 -0 -1 35 44 51
-7.6439 -4.53761 11.126 -0 -0 -1 35 39 48
3.9486 -0.189081 9.82595 -0 -0 -1 53 63 73
1.11985 -1.67192 7.64751 -0 -0 -1 55 63 74
10.18 4.46974 17.0999 -0 -0 -1 61 71 81
-2.89994 -2.29602 6.80104 -0 -0 -1 59 71 83
0.937735 3.19618 11.3313 -0 -0 -1 14 25 31
12.612 6.39921 9.06961 -0 -0 -1 113 114 109
13.064 7.79346 14.2322 -0 -0 -1 158 160 157
-3.27976 -1.37214 7.12211 -0.575707 -0.549249 -0.605712 54 62 73
-2.66666 -4.03909 10.4902 -0 -0 -1 35 44 51
-9.08171 6.47754 13.3487 -0 -0 -1 102 104 101
-1.85741 3.89484 8.95862 -0 -0 -1 94 99 95
-7.92901 -4.38705 15.1748 -0 -0 -1 18 22 31
-5.70287 2.98017 6.16181 -0 -0 -1 144 146 143
13.9092 7.01917 10.2611 -0 -0 -1 35 32 25
1.90104 6.43803 8.08223 -0 -0 -1 177 179 176
-1.28012 -0.477951 7.81283 0.596138 0.784167 -0.172341 16 23 31
2.73958 -0.946032 12.239 -0 -0 -1 14 25 31
-1.57926 -17.4452 20.099 -0 -0 -1 14 22 0
-1.53627 -14.9984 17.7502 -0 -0 -1 1 0 1
2.21336 1.66339 10.3992 -0 -0 -1 18 22 31
-2.05564 1.76374 8.27229 -0 -0 -1 18 22 31
4.64965 -3.3201 12.5441 -0 -0 -1 14 23 28
-7.51682 -7.01451 11.0729 -0 -0 -1 45 55 64
-4.28986 2.83941 13.2155 -0 -0 -1 18 22 31
-10.715 -10.5613 10.3314 -0 -0 -1 88 80 54
-5.60732 -5.99621 9.45459 -0 -0 -1 34 43 50
-0.531265 6.72763 12.2945 -0 -0 -1 170 173 173
7.28721 7.74511 17.5662 -0 -0 -1 0 0 0
5.43082 7.27548 10.8714 -0 -0 -1 62 64 60
-11.0792 -4.27672 11.0567 -0 -0 -1 54 64 74
9.26113 5.65787 5.95142 -0 -0 -1 120 122 117
-1.18789 -3.47354 6.75618 -0 -0 -1 29 36 44
-2.66644 -17.0204 19.5749 -0 -0 -1 200 202 135
-2.96171 -6.49641 11.0671 -0 -0 -1 56 66 76
-3.85312 -2.12351 11.4988 -0 -0 -1 60 68 79
1.77188 3.7348 10.312 -0 -0 -1 57 67 79
16.1675 8.33522 20.1784 -0 -0 -1 126 128 125
-2.99678 -3.70293 6.67003 -0 -0 -1 35 44 51
-1.22738 3.39238 3.45931 -0 -0 -1 155 157 154
8.75278 -5.15287 12.9188 -0 -0 -1 16 25 32
-4.22949 1.56257 12.8679 -0 -0 -1 16 20 29
-0.436875 6.45439 10.4642 -0 -0 -1 127 129 126
-8.79873 -5.11627 10.5924 -0 -0 -1 55 64 73
-1.26498 -15.3264 17.7613 -0 -0 -1 19 26 2
1.66206 -1.72344 8.48244 -0 -0 -1 55 63 74
-9.67132 -13.2062 14.9412 -0 -0 -1 0 1 2
-1.35529 -0.284162 11.5045 -0 -0 -1 18 22 31
-5.34087 -15.0675 17.1909 -0 -0 -1 2 3 3
0.73311 -5.49477 8.92947 -0 -0 -1 32 36 47
-7.03058 3.63701 9.54208 -0 -0 -1 34 38 47
0.78146 -0.322847 8.24129 -0 -0 -1 37 46 53
0.663233 -5.4956 9.03393 -0 -0 -1 32 36 47
-8.52088 -13.9017 15.4151 0.166051 -0.732814 -0.659857 118 117 68
-12.1396 -3.02762 11.8024 -0 -0 -1 18 22 31
3.49678 0.0659575 9.24989 -0 -0 -1 53 63 73
-10.8176 -9.37919 9.36731 -0.116379 -0.519011 -0.846808 6 9 0
-5.41388 5.77768 9.73789 -0 -0 -1 149 151 148
-2.63279 3.76913 5.62604 -0 -0 -1 113 115 112
-4.48445 6.52473 13.9106 -0 -0 -1 36 45 52
-1.80207 0.955542 8.14968 0.486667 0.838172 -0.246216 13 22 29
-4.20696 -2.58144 6.31142 -0 -0 -1 55 63 74
-0.619931 -0.90138 7.85305 -0 -0 -1 18 22 31
-1.75926 6.43362 8.27781 -0 -0 -1 195 197 194
-3.18256 2.2813 12.8763 -0 -0 -1 18 22 31
2.60493 2.66916 10.0157 -0 -0 -1 9 11 16
0.436871 -0.422673 8.84042 -0 -0 -1 18 22 31
-8.31995 -13.5184 15.9832 -0 -0 -1 1 7 0
-7.05644 0.425201 6.4385 -0 -0 -1 50 59 68
10.7103 9.07474 12.9679 -0 -0 -1 168 170 167
-0.736171 5.89316 6.56179 0.383137 -0.430518 -0.817227 155 157 154
-8.04038 -13.8801 15.3882 -0 -0 -1 12 11 0
-2.95184 -2.6896 7.42762 -0 -0 -1 32 43 47
-9.95763 -4.49909 10.5851 -0 -0 -1 55 63 74
-1.98226 3.24452 2.65984 -0 -0 -1 72 74 71
-8.54584 -13.426 15.8211 0.270522 0.945018 0.183735 12 11 0
0.495402 2.69555 9.23493 -0 -0 -1 58 68 77
-1.80975 2.09488 9.06929 -0 -0 -1 16 20 29
-9.5471 -12.7365 15.032 0.601758 -0.36712 -0.709302 11 2 3
-0.577153 -0.915339 7.9973 -0 -0 -1 18 22 31
10.0387 6.99725 17.0005 -0 -0 -1 63 73 83
-4.76727 -2.87081 11.2015 -0 -0 -1 0 0 0
4.06243 2.48915 9.39224 -0 -0 -1 57 69 81
-9.9738 -12.6127 14.7835 -0 -0 -1 7 3 6
-2.58229 2.66754 2.02158 -0 -0 -1 115 117 114
1.0386 -0.0459058 10.7589 -0 -0 -1 37 46 53
3.137 0.124049 9.16342 -0 -0 -1 54 64 73
-4.67525 -3.99613 13.0328 -0 -0 -1 60 70 82
-8.502 -13.9223 15.4428 0.166051 -0.732814 -0.659857 118 117 68
7.49349 -0.742491 11.501 -0 -0 -1 43 52 61
-1.53337 -2.62491 10.7581 -0 -0 -1 32 41 48
-9.91966 -3.73283 7.56614 -0 -0 -1 0 0 0
-10.6159 -5.41168 10.2101 -0 -0 -1 57 66 73
-9.33604 7.423 16.0047 -0 -0 -1 146 151 147
2.87967 -3.04886 11.7593 -0 -0 -1 15 26 30
-0.612205 5.96063 7.04015 -0 -0 -1 117 119 116
-6.98178 2.69699 6.71894 -0 -0 -1 53 60 68
-2.07936 6.79039 13.2504 -0 -0 -1 36 45 52
10.1143 -1.06883 15.4037 -0 -0 -1 61 71 80
-4.50432 6.13278 7.38451 -0 -0 -1 114 116 113
-9.88578 -12.8344 14.4107 -0 -0 -1 0 0 1
-8.24743 -13.5704 15.6293 -0 -0 -1 0 2 1
9.33821 3.68221 17.209 -0 -0 -1 60 70 82
4.36977 -2.2789 7.17181 -0 -0 -1 57 67 77
-4.12701 1.04191 7.76492 -0 -0 -1 57 65 76
-0.672562 5.93803 6.82446 -0 -0 -1 115 117 114
-6.0884 2.79865 7.23462 -0 -0 -1 34 38 47
2.15681 0.296593 13.0053 -0 -0 -1 43 52 61
-1.94336 2.97773 2.34746 -0 -0 -1 117 119 116
-10.7746 6.44518 15.2084 -0 -0 -1 26 31 39
4.49219 5.82481 12.5442 -0 -0 -1 13 21 32
-3.75278 1.42083 7.80935 -0 -0 -1 55 65 74
-1.20366 -2.76444 9.92019 -0 -0 -1 30 39 46
1.06813 0.25095 10.0438 -0 -0 -1 18 22 31
-7.76338 5.55538 15.1394 -0 -0 -1 53 62 71
-2.44762 -14.872 17.1434 -0 -0 -1 0 0 0
-7.48604 -3.11045 4.35692 -0 -0 -1 47 58 64
-6.14317 -4.03456 11.4585 -0 -0 -1 55 64 73
-4.56875 -1.5192 6.97632 -0 -0 -1 53 61 72
-4.99822 5.57412 8.03339 -0 -0 -1 0 0 0
-9.09603 -14.8703 17.2834 -0 -0 -1 0 1 1
-10.1116 -4.7694 10.9379 -0 -0 -1 55 63 74
-5.21562 -1.34914 11.653 -0 -0 -1 0 0 0
-1.81819 1.12321 2.86002 -0 -0 -1 0 0 0
-9.60357 -12.3577 14.5751 -0 -0 -1 13 3 2
3.18418 6.7635 11.5064 -0 -0 -1 14 21 30
4.31995 0.209332 10.4603 -0 -0 -1 53 63 73
-6.42542 -13.3113 16.222 -0 -0 -1 2 6 2
-5.4052 -4.15057 5.52524 -0 -0 -1 46 55 62
-7.71595 6.62589 14.6701 -0 -0 -1 49 60 64
-3.67398 -5.02029 10.8411 -0 -0 -1 36 45 52
-1.38546 -0.853198 10.2328 -0 -0 -1 60 72 84
-1.77046 -15.8031 18.3084 -0 -0 -1 0 6 0
-3.83507 -1.84717 11.8223 -0 -0 -1 37 46 51
-4.10478 3.9364 7.90995 -0 -0 -1 149 154 147
1.1864 3.3136 10.8024 -0 -0 -1 57 67 79
0.690964 5.63707 10.4881 -0 -0 -1 12 19 27
0.436734 1.56984 5.48741 -0 -0 -1 16 23 29
2.45794 -2.48767 11.1459 -0 -0 -1 62 72 81
3.03599 3.07233 10.2199 -0 -0 -1 15 23 30
10.3752 -3.34998 17.3364 -0 -0 -1 16 25 32
2.95206 0.547068 9.51492 -0 -0 -1 18 22 31
-6.5345 -3.40885 5.2116 -0 -0 -1 18 22 31
-1.15236 -2.10531 7.1633 -0 -0 -1 31 40 47
-5.70806 -3.25992 5.7997 0.775084 0.520674 -0.357973 53 63 73
-11.5324 -10.4297 10.3118 -0 -0 -1 0 2 1
4.56067 1.20979 8.73657 -0 -0 -1 35 39 48
0.835848 -0.274531 8.91546 -0 -0 -1 37 46 53
-7.15541 -13.9614 16.8936 -0 -0 -1 8 8 0
2.92538 2.93757 9.85884 -0 -0 -1 17 22 28
6.62544 7.83476 11.9186 -0 -0 -1 51 64 69
3.98012 -0.80868 4.66478 -0 -0 -1 184 186 183
-4.59524 -1.80714 7.27347 -0 -0 -1 18 22 31
5.59541 7.62211 11.6042 -0 -0 -1 93 97 96
-2.52811 -4.12899 6.36218 -0 -0 -1 56 66 76
-6.37527 -14.2969 16.7827 -0 -0 -1 0 1 5
-3.80527 -3.28649 10.7818 -0 -0 -1 16 23 29
6.48812 7.93147 12.1785 -0 -0 -1 60 67 63
2.68399 0.296763 8.9252 -0 -0 -1 15 22 30
-3.11409 -2.70541 9.3554 -0 -0 -1 60 70 82
-2.09011 1.60731 12.5411 -0 -0 -1 15 24 29
-2.78554 5.36705 9.11661 -0 -0 -1 127 129 126
4.87603 -1.41955 12.9744 -0 -0 -1 62 72 82
-1.36051 5.14228 9.41197 -0 -0 -1 165 167 164
-5.95872 3.54421 4.68623 -0 -0 -1 121 123 120
-12.4443 -11.7039 16.0777 -0 -0 -1 45 56 62
-2.74731 -15.3092 17.749 -0 -0 -1 2 1 0
0.645606 4.08475 9.97799 -0 -0 -1 57 67 79
-6.01046 6.76277 10.0181 -0 -0 -1 199 201 198
-0.799842 5.07372 8.71442 -0 -0 -1 94 96 93
-4.38767 -1.75774 6.77385 -0 -0 -1 18 22 31
-0.559874 -2.82006 6.87157 -0 -0 -1 46 56 65
2.8527 4.92142 10.4925 -0 -0 -1 18 22 31
6.87417 -3.29131 13.1816 -0 -0 -1 60 70 82
-6.14724 3.76019 7.91125 -0 -0 -1 102 104 101
-6.87271 -3.33782 5.67245 -0 -0 -1 55 63 74
-3.21312 -17.0822 19.753 -0 -0 -1 3 0 0
2.79648 4.89755 10.3993 -0 -0 -1 18 22 31
-1.29707 -2.30043 7.11501 0.165579 0.724258 -0.669353 30 40 49
0.209463 5.46561 9.88459 -0 -0 -1 17 21 28
-1.39882 -1.28968 7.45172 0.71557 -0.521202 -0.46509 14 22 30
-3.99762 3.60388 5.23272 -0 -0 -1 204 206 203
5.76691 1.47607 14.7208 -0 -0 -1 61 71 83
-4.30239 -1.97911 11.8886 -0 -0 -1 54 64 74
-1.40398 -0.369694 7.96975 0.568424 0.821526 -0.0445987 15 22 30
-2.74228 -3.38325 6.37433 -0 -0 -1 58 67 76
-3.51675 1.78407 8.88896 -0 -0 -1 18 22 31
-1.34898 -5.77627 10.9133 -0 -0 -1 32 36 45
1.3482 4.65342 4.4152 -0 -0 -1 155 157 154
-5.77192 -3.19212 5.76003 -0 -0 -1 55 63 74
-9.67198 -12.6983 14.8963 0.484986 -0.655261 -0.579156 1 1 2
-9.29652 -13.0794 15.25 0.345415 0.33198 -0.877769 3 3 0
2.76936 2.53425 14.6112 -0 -0 -1 45 54 63
-1.24505 -0.479929 7.96482 0.582186 0.80694 -0.0995351 18 22 31
-4.90225 1.13408 7.1892 -0 -0 -1 57 65 76
-2.42947 3.02486 2.68223 -0 -0 -1 72 74 71
-5.67018 0.628563 6.65267 -0 -0 -1 36 45 52
-1.88253 -4.00142 6.74421 -0 -0 -1 56 66 76
-10.6781 -10.6506 11.8824 -0 -0 -1 36 34 10
-3.73795 -2.02857 6.93262 -0 -0 -1 18 22 31
-2.1795 -1.91147 7.29062 -0 -0 -1 60 70 82
-12.0937 -11.0038 10.9882 -0 -0 -1 0 2 1
-2.699 1.27731 7.98547 -0 -0 -1 18 22 31
5.75479 -3.4375 7.92975 -0 -0 -1 56 70 81
-3.20103 3.69582 8.36543 -0 -0 -1 36 45 52
-4.91523 -15.0137 17.0974 -0 -0 -1 7 8 0
9.66672 8.45165 10.2666 -0 -0 -1 94 96 93
-7.51843 4.46383 9.75595 -0 -0 -1 147 152 147
-2.06875 -16.0592 18.7586 -0 -0 -1 5 3 4
-9.46945 -12.872 15.1823 -0.274098 -0.723961 -0.633049 132 134 11
-1.79573 0.978508 8.2404 0.486667 0.838172 -0.246216 13 22 29
-3.28235 -15.1687 17.4746 -0 -0 -1 0 2 3
0.379944 4.321 10.0796 -0 -0 -1 51 60 69
-4.20342 3.2132 4.96127 -0 -0 -1 203 205 202
-12.4954 -10.9208 11.3103 -0 -0 -1 33 35 0
-9.83809 -12.7769 14.8337 0.488577 -0.426939 -0.76093 40 30 22
-2.96213 -3.38696 6.34664 -0 -0 -1 35 44 51
-3.63606 -15.1081 17.4165 -0 -0 -1 157 157 91
-3.35536 0.726896 7.85614 -0 -0 -1 18 22 31
-3.41484 -0.669377 7.6495 -0 -0 -1 55 63 74
-1.8202 2.03881 8.85207 -0 -0 -1 17 22 31
-3.01149 -1.55187 6.88877 -0 -0 -1 60 70 82
12.9866 -5.04098 21.2175 -0 -0 -1 33 42 51
-4.48428 -1.45449 6.66738 -0.59808 0.279964 -0.750946 55 63 74
-7.99921 2.52361 6.30066 -0 -0 -1 211 216 210
-3.89575 3.26019 4.83313 -0 -0 -1 202 204 201
0.289887 5.23867 9.65044 -0 -0 -1 18 22 33
-6.16165 3.03594 6.78184 -0 -0 -1 103 105 102
-6.75065 -2.69729 5.53102 -0 -0 -1 55 63 74
-4.42264 -1.37026 6.64969 -0 -0 -1 55 63 74
-1.69384 4.01011 5.33976 -0 -0 -1 195 197 194
-0.392188 3.69545 2.77715 -0 -0 -1 81 83 80
1.75699 5.43116 10.6753 -0 -0 -1 18 22 31
0.705686 -0.895677 11.2884 -0 -0 -1 61 71 81
-10.2694 -11.7805 12.1947 -0 -0 -1 6 8 0
-5.10114 -2.91796 6.10592 -0 -0 -1 35 39 48
-6.21164 3.23391 6.92611 -0 -0 -1 101 103 100
-5.15032 -16.3174 18.7333 -0 -0 -1 3 8 0
-3.15207 -2.5433 6.67138 -0 -0 -1 55 63 74
8.90995 6.27173 17.1722 -0 -0 -1 40 49 58
12.4427 -4.21875 14.8024 -0 -0 -1 13 24 30
-1.4518 -15.2667 17.7274 -0.314875 -0.865995 -0.388467 4 4 1
-11.7183 -10.5611 8.81541 -0 -0 -1 3 1 2
-1.58673 4.55712 7.74887 -0 -0 -1 128 130 127
-4.17083 -4.0877 5.73331 -0 -0 -1 44 55 61
-4.01003 3.21168 4.73931 -0 -0 -1 60 62 59
-10.6571 -10.7578 10.6712 -0 -0 -1 0 1 5
1.92898 5.09906 4.93374 -0 -0 -1 155 157 154
-4.3487 -2.58296 6.51649 -0 -0 -1 55 63 74
-10.7208 -10.5668 10.3366 -0 -0 -1 88 80 54
-3.83501 3.62859 6.91873 -0 -0 -1 97 99 96
5.73335 -2.43577 13.0593 -0 -0 -1 61 71 83
-10.6747 -10.6519 11.6685 -0 -0 -1 6 3 0
-6.48339 -3.73334 4.61711 -0 -0 -1 48 56 65
-6.99741 -3.50168 5.64745 -0 -0 -1 14 23 30
-1.60797 -4.87995 10.2432 -0 -0 -1 0 0 0
3.21894 0.392269 9.73321 -0 -0 -1 17 21 30
-3.95001 3.75959 7.94204 -0 -0 -1 36 46 53
11.4097 9.26676 15.3913 -0 -0 -1 90 92 89
-3.34274 -1.36657 7.17691 -0.575707 -0.549249 -0.605712 55 63 74
-2.56507 3.87833 5.75116 -0 -0 -1 113 115 112
-1.75496 3.91751 5.24142 -0 -0 -1 196 198 195
-2.02046 2.92759 2.34958 -0 -0 -1 116 118 115
-4.35031 -4.03524 5.8509 -0 -0 -1 45 56 62
1.86118 -4.82616 8.04869 -0 -0 -1 45 57 64
-5.66028 -3.42029 5.60308 -0.804465 0.588028 0.0840184 17 22 30
1.23169 0.266114 10.4105 0.390745 -0.681008 -0.619312 15 22 30
3.62428 2.04691 10.0823 -0 -0 -1 57 69 81
-0.908216 -3.55842 6.78755 -0 -0 -1 32 36 45
-5.55594 3.40514 7.11049 -0 -0 -1 147 149 146
-2.36206 2.9559 2.46772 -0 -0 -1 73 75 72
3.06182 1.77179 9.50462 -0 -0 -1 36 42 48
-1.50543 -1.38941 7.39946 -0 -0 -1 62 71 78
6.94671 -1.73323 13.6329 -0 -0 -1 60 70 79
0.316023 5.40543 10.2159 -0 -0 -1 48 59 65
-2.33471 2.88416 2.32441 -0 -0 -1 170 172 169
0.254904 6.94881 9.07832 -0 -0 -1 193 195 192
-0.412035 5.25085 9.48273 -0 -0 -1 119 124 120
-4.50875 -1.64241 6.61681 -0 -0 -1 16 22 30
-1.4316 -1.43693 7.64575 -0 -0 -1 62 71 80
-0.254462 3.759 2.64737 -0 -0 -1 81 83 80
0.760532 -1.37684 8.42744 -0 -0 -1 0 0 0
6.34818 8.19657 13.6087 -0 -0 -1 57 67 77
-3.30925 0.763457 7.51011 -0 -0 -1 18 22 31
-5.73235 -3.52766 5.66457 -0.804465 0.588028 0.0840184 18 22 31
-6.59757 -3.11386 5.36946 -0 -0 -1 55 63 74
-4.05868 2.95483 7.9892 -0 -0 -1 53 61 72
-6.848 -13.9823 16.8995 -0 -0 -1 10 5 1
-9.22915 -12.0063 13.9627 -0 -0 -1 0 6 0
2.53279 -1.15363 12.216 -0 -0 -1 62 72 81
-5.45085 3.13623 7.10076 -0 -0 -1 50 57 64
-6.26402 2.88194 6.05606 -0 -0 -1 181 183 180
-8.06256 2.38646 6.0651 -0 -0 -1 35 35 42
-3.23812 3.05682 2.78161 -0 -0 -1 112 114 111
-11.3437 1.60851 8.76576 -0 -0 -1 168 173 177
-5.76452 3.22845 6.72969 -0 -0 -1 103 105 102
-7.21914 -14.1029 16.4673 -0 -0 -1 0 2 0
-6.47626 2.84511 6.85088 -0 -0 -1 33 37 47
-10.1824 -3.13678 8.11523 -0 -0 -1 8 13 19
-3.49987 1.57453 7.81784 -0 -0 -1 14 23 28
-5.86091 3.12123 6.89233 -0 -0 -1 101 103 98
-1.09953 4.97593 9.19325 -0 -0 -1 166 168 165
-6.80845 -2.58225 5.49901 -0 -0 -1 55 63 74
-7.72745 -2.15695 15.183 -0 -0 -1 55 63 74
0.299774 0.277986 8.97513 -0 -0 -1 36 45 52
9.84026 -3.70935 13.8307 -0 -0 -1 15 24 31
-2.02409 -17.5362 20.3205 -0 -0 -1 91 96 35
-6.75028 -14.2335 17.1119 -0 -0 -1 23 10 0
5.10956 0.728323 14.3059 -0 -0 -1 62 72 81
-10.8187 -10.0393 10.8057 -0 -0 -1 3 0 0
3.64826 5.88613 8.40637 -0 -0 -1 92 94 91
-9.66287 -6.14665 13.5806 -0 -0 -1 35 39 48
-10.8298 -9.50444 9.81501 -0 -0 -1 34 35 0
-10.5823 -11.0014 11.0468 -0 -0 -1 158 162 24
12.744 -5.23525 20.6622 -0 -0 -1 64 73 82
-10.7745 -10.2832 11.1821 -0 -0 -1 204 212 69
11.9242 -4.0266 18.6684 -0 -0 -1 35 44 51
6.71982 -0.154051 10.4232 -0 -0 -1 15 24 31
-1.65221 1.58344 11.7582 -0 -0 -1 17 21 30
0.13382 1.32981 12.5641 -0 -0 -1 43 52 61
5.31945 2.95509 8.66042 -0 -0 -1 35 40 46
5.02324 7.13624 7.07258 -0 -0 -1 115 117 114
-1.87029 3.02217 12.3684 -0 -0 -1 16 22 31
3.73715 6.02521 9.3259 -0 -0 -1 121 124 119
4.98095 2.10156 8.60309 -0 -0 -1 57 69 81
3.69504 5.79492 8.26651 -0 -0 -1 92 94 91
3.11877 6.10824 10.2585 -0 -0 -1 93 101 107
-1.30781 -3.20395 11.3656 -0 -0 -1 31 40 47
-8.69672 -1.56912 14.0527 -0 -0 -1 39 43 52
-6.32148 -14.4174 16.9515 -0 -0 -1 0 1 1
-0.705878 6.00552 6.5168 -0 -0 -1 155 157 154
4.56693 1.22277 8.57535 -0 -0 -1 35 39 48
5.69858 0.993314 8.80361 -0 -0 -1 53 61 72
4.19163 -2.83517 8.0456 -0 -0 -1 57 67 79
-10.426 -11.4538 11.6917 -0 -0 -1 7 9 3
-8.30985 -14.2153 15.829 -0 -0 -1 4 3 0
-5.74249 7.27509 13.6017 -0 -0 -1 92 94 91
-10.5148 -11.1964 11.4398 -0 -0 -1 1 0 1
-8.14742 -14.3429 16.0679 -0 -0 -1 5 1 5
3.11701 5.97916 10.2615 -0 -0 -1 12 20 27
-1.35779 -3.77013 10.1295 -0 -0 -1 35 39 48
-6.96475 7.25756 12.122 -0 -0 -1 70 72 69
0.598588 6.46599 12.0113 -0 -0 -1 120 125 131
9.92572 8.98804 11.7881 -0 -0 -1 168 170 167
-3.66548 -7.30459 8.41835 -0 -0 -1 1 0 4
7.89224 -3.43748 11.4373 -0 -0 -1 58 70 82
7.02988 -3.04688 9.93769 -0 -0 -1 31 40 45
-10.9716 1.65258 7.07078 -0 -0 -1 110 112 109
6.70036 -0.108467 10.1894 -0 -0 -1 16 25 32
-3.29074 1.41348 7.80328 -0 -0 -1 18 22 31
-4.67328 -16.5295 19.016 -0 -0 -1 0 4 0
-2.13322 -0.521024 12.8447 -0 -0 -1 16 20 29
-5.80013 -14.5612 17.8081 -0 -0 -1 0 0 0
1.3174 0.410835 10.5927 -0 -0 -1 16 23 31
5.73725 -0.909827 8.14156 -0 -0 -1 60 73 82
-0.245511 -2.72611 10.6456 -0 -0 -1 31 40 47
-5.83049 -3.24898 6.18915 -0 -0 -1 55 64 73
5.45438 -2.22255 7.16306 -0 -0 -1 35 40 46
-9.68499 -12.3528 14.4206 -0 -0 -1 0 0 12
7.6791 -5.23136 10.6391 -0 -0 -1 43 52 61
-11.5114 2.40895 20.3619 -0 -0 -1 57 65 76
8.67354 -4.95463 12.4995 -0 -0 -1 16 25 32
-7.81427 2.4951 6.21764 -0 -0 -1 47 57 59
3.2793 0.231116 9.41529 -0 -0 -1 51 63 72
-4.94126 -16.4329 18.8222 0.744707 -0.078172 -0.662797 0 3 0
10.7045 -0.93639 16.082 -0 -0 -1 0 0 0
-1.96295 -15.461 17.8643 -0 -0 -1 7 5 5
-4.04014 -16.8627 19.2079 -0 -0 -1 0 0 0
2.45959 2.57038 14.0443 -0 -0 -1 14 24 30
2.80613 -5.70586 9.97123 -0 -0 -1 16 25 32
12.953 -2.4345 15.4847 -0 -0 -1 36 45 52
2.39783 -4.22867 9.99652 -0 -0 -1 43 52 61
-0.102028 -3.15706 10.0892 -0 -0 -1 53 61 72
1.69065 -1.66637 11.5035 -0 -0 -1 58 70 82
-0.549159 0.00779734 11.8663 -0 -0 -1 16 25 32
2.53236 -2.68208 11.7354 -0 -0 -1 62 71 80
2.8762 0.523405 13.7817 -0 -0 -1 16 25 30
4.40724 -3.32183 12.0012 -0 -0 -1 16 25 32
1.0844 -2.39336 11.5864 -0 -0 -1 58 71 80
13.7162 -2.94222 15.8461 -0 -0 -1 35 44 51
0.98195 0.402002 12.6007 -0 -0 -1 43 52 60
3.36484 1.67868 13.9926 -0 -0 -1 44 54 63
-10.3331 -9.8388 9.9531 -0 -0 -1 1 3 0
18.3471 8.38632 20.7578 -0 -0 -1 168 170 167
4.30931 8.98554 13.8638 -0 -0 -1 195 197 194
15.8009 7.9833 10.4213 -0 -0 -1 138 140 137
-10.3879 -11.4936 13.0065 -0 -0 -1 13 13 0
-9.32573 -13.1731 14.3171 -0 -0 -1 8 8 8
8.37234 0.519635 4.42702 -0 -0 -1 110 112 109
