ply
format ascii 1.0
element vertex 1126
property float x
property float y
property float z
property uchar red
property uchar green
property uchar blue
property float confidence
end_header
-11.9519 -12.6256 12.4524 4 236 4 0.980
3.5440 3.2598 9.7611 35 211 35 0.859
-5.4744 -16.1002 17.5982 24 220 24 0.903
3.9695 2.3214 9.9696 21 222 21 0.914
7.3401 -0.1093 10.1907 117 212 20 0.727
-0.2684 2.2261 12.2997 105 215 20 0.760
-3.9842 -2.2316 10.6307 46 202 46 0.815
-10.1337 -13.8898 14.3966 4 236 4 0.980
-9.6900 -13.0979 14.7710 4 236 4 0.980
-10.6330 -10.9552 11.1166 21 222 21 0.914
-0.8893 -3.6159 6.8217 24 220 24 0.903
-8.8696 -14.2818 16.2029 4 236 4 0.980
-9.7364 -13.7646 15.5065 4 236 4 0.980
-2.1378 -16.9788 18.6382 16 227 16 0.936
1.6917 0.3369 2.9479 32 214 32 0.870
-7.9204 5.9065 15.2755 109 214 20 0.749
0.5636 0.2633 8.7180 18 225 18 0.925
-4.6286 -2.8626 10.9177 43 205 43 0.826
-12.9420 -12.3105 11.0513 26 218 26 0.892
-5.9085 0.3786 12.7722 117 212 20 0.727
-11.1808 6.8924 15.4513 113 213 20 0.738
-1.5804 3.0211 12.0088 100 217 20 0.771
-5.6449 -3.3547 5.7984 18 225 18 0.925
-12.7907 -12.2475 16.1914 142 206 20 0.661
2.8485 5.4714 3.7610 121 211 20 0.716
-10.6945 6.8724 14.1409 105 215 20 0.760
-11.6589 -12.9708 12.8148 4 236 4 0.980
-11.3649 -13.2158 13.2261 4 236 4 0.980
3.4451 0.4212 1.6352 100 217 20 0.771
3.3840 0.5944 9.5474 32 214 32 0.870
0.0249 -2.8463 10.6737 40 207 40 0.837
-11.2875 -13.1362 13.8224 4 236 4 0.980
-11.6875 -12.8614 12.8700 4 236 4 0.980
-12.7185 1.1246 7.1183 121 211 20 0.716
-5.7615 3.3884 6.6389 35 211 35 0.859
-10.2551 -13.7775 14.2820 4 236 4 0.980
-2.1291 -18.7490 20.7612 105 215 20 0.760
-8.2879 -14.9334 16.0426 4 236 4 0.980
-12.7390 -11.5429 11.5405 18 225 18 0.925
-5.1396 -17.5820 19.1383 48 200 48 0.804
0.3618 0.7929 2.4372 109 214 20 0.749
-11.2026 -10.6692 13.0489 35 211 35 0.859
-10.4721 -11.9118 12.9364 4 236 4 0.980
-8.6590 2.0298 13.6394 129 209 20 0.694
-8.4303 2.3176 5.9490 100 217 20 0.771
-8.9750 -1.6248 14.2588 133 208 20 0.683
-6.2441 3.0807 6.0238 26 218 26 0.892
1.2851 3.3967 11.3709 105 215 20 0.760
-4.8370 1.2695 7.2395 48 200 48 0.804
-10.6621 -9.9872 9.4370 40 207 40 0.837
-10.4282 -13.2925 14.6897 4 236 4 0.980
-11.0229 -13.3853 13.5413 4 236 4 0.980
-7.0570 -15.3400 17.1399 4 236 4 0.980
2.6245 1.7719 10.3691 21 222 21 0.914
0.8964 0.0677 6.5474 46 202 46 0.815
-5.7914 6.6575 12.0840 121 211 20 0.716
-1.6963 -4.0948 6.6650 24 220 24 0.903
1.1561 -1.2902 10.2331 7 233 7 0.969
3.4876 -0.2022 7.6955 35 211 35 0.859
-1.9767 -0.5173 12.9551 117 212 20 0.727
-3.2040 -5.2949 10.1336 96 218 20 0.782
-11.1337 -13.2850 13.4095 4 236 4 0.980
-1.7769 -16.7906 18.5963 18 225 18 0.925
-9.6582 7.9259 16.2602 100 217 20 0.771
13.5200 -4.7587 20.3276 142 206 20 0.661
3.3510 5.3279 10.6626 92 219 20 0.793
12.4860 -5.3910 17.5653 142 206 20 0.661
6.2879 -4.5401 7.3289 121 211 20 0.716
-1.3570 6.0605 7.4255 40 207 40 0.837
-4.8589 -7.2144 12.7963 142 206 20 0.661
-10.2167 -13.5850 15.1297 4 236 4 0.980
-10.1453 -13.8354 14.4579 4 236 4 0.980
-0.8326 -2.8649 10.4928 48 200 48 0.804
4.8660 -2.3646 7.0973 109 214 20 0.749
-1.3117 -16.9557 18.8901 26 218 26 0.892
-3.6357 1.5784 7.9028 48 200 48 0.804
-5.4534 -17.1805 18.6631 43 205 43 0.826
-3.2716 -16.4506 18.1305 21 222 21 0.914
2.4578 0.2466 7.2456 38 209 38 0.848
-8.6469 -14.2887 16.2349 4 236 4 0.980
-1.1355 5.9498 8.2488 24 220 24 0.903
-4.2733 5.1102 6.9788 105 215 20 0.760
-4.1382 -3.8371 10.8052 40 207 40 0.837
4.1218 6.2026 8.3981 105 215 20 0.760
-6.6027 7.5560 12.0280 129 209 20 0.694
-6.4855 -14.8327 17.1911 7 233 7 0.969
-2.3156 -4.2923 6.3991 26 218 26 0.892
-5.2555 -17.2960 18.7853 40 207 40 0.837
-8.2774 -1.0299 5.0007 133 208 20 0.683
-9.7430 -6.1060 11.6066 121 211 20 0.716
2.3968 -0.0808 2.2035 29 216 29 0.881
-9.0109 -14.1883 16.0661 4 236 4 0.980
-7.7059 -4.7106 11.1479 117 212 20 0.727
-10.6371 -10.7912 10.1647 21 222 21 0.914
-6.7578 2.7692 6.6353 16 227 16 0.936
-1.7772 -18.9200 20.9389 109 214 20 0.749
-3.3553 4.4164 13.1483 125 210 20 0.705
-9.2493 -12.9370 14.5007 4 236 4 0.980
-10.2581 -12.4147 12.4811 4 236 4 0.980
-6.9792 -15.2117 17.5332 4 236 4 0.980
-10.3394 -12.1924 12.1322 4 236 4 0.980
-10.5241 -11.5218 11.3256 16 227 16 0.936
-1.7723 -18.8947 20.9090 109 214 20 0.749
-11.0879 1.7592 6.9872 117 212 20 0.727
-12.9836 -11.3272 10.9642 38 209 38 0.848
-10.2033 -12.5632 12.6559 4 236 4 0.980
1.4334 0.3032 9.9998 29 216 29 0.881
-3.9074 -3.6321 10.6941 35 211 35 0.859
-5.4296 3.5029 7.3650 21 222 21 0.914
0.6519 5.6694 9.8536 40 207 40 0.837
6.2098 8.0853 11.6683 105 215 20 0.760
-1.6251 3.2114 12.3723 100 217 20 0.771
-12.9463 -11.4379 11.0305 35 211 35 0.859
8.8590 3.7582 15.6994 142 206 20 0.661
-5.0779 6.4672 8.4608 100 217 20 0.771
3.4205 0.0556 8.6791 32 214 32 0.870
0.9065 5.4047 5.2242 113 213 20 0.738
2.0891 -0.0804 3.1215 96 218 20 0.782
-10.3133 -13.3372 14.9961 4 236 4 0.980
-3.4766 1.3206 10.3686 138 207 20 0.672
-11.9985 -12.2375 12.8111 4 236 4 0.980
-1.1300 -1.2986 7.5396 16 227 16 0.936
1.8545 5.0618 4.4765 109 214 20 0.749
2.1826 0.3660 3.4944 100 217 20 0.771
11.3132 9.4570 10.4319 138 207 20 0.672
-1.1106 -0.2595 11.5081 92 219 20 0.793
-6.7005 3.1589 6.4892 18 225 18 0.925
-11.0701 -12.8499 13.9334 4 236 4 0.980
-3.7090 3.9181 6.9915 48 200 48 0.804
-0.8530 -2.1745 7.2735 7 233 7 0.969
-11.1408 -12.8239 14.0840 4 236 4 0.980
1.3866 -1.3589 8.5793 18 225 18 0.925
-1.0926 -3.3462 11.4098 92 219 20 0.793
-9.0817 -14.1437 15.9955 4 236 4 0.980
-7.4725 -14.9923 16.7596 4 236 4 0.980
8.5867 7.5113 8.1164 133 208 20 0.683
13.5211 -0.2992 8.8229 142 206 20 0.661
1.9454 -1.7493 8.3898 29 216 29 0.881
2.4198 5.4878 4.9592 105 215 20 0.760
-3.6114 -6.3743 9.7808 113 213 20 0.738
5.9690 7.2242 10.4328 105 215 20 0.760
-5.9917 3.9285 4.8186 121 211 20 0.716
1.4300 -0.0134 10.6207 35 211 35 0.859
5.3922 6.2444 8.7928 117 212 20 0.727
-8.5210 -14.4971 16.5210 4 236 4 0.980
-1.1694 -1.4532 7.7276 7 233 7 0.969
-2.4612 -16.8792 18.6213 13 229 13 0.947
-0.0803 3.9193 2.7143 117 212 20 0.727
-8.7635 -14.8199 15.7810 4 236 4 0.980
2.3387 4.3262 11.0427 35 211 35 0.859
-1.4817 6.7164 8.1876 35 211 35 0.859
-8.1012 -14.4474 16.7511 4 236 4 0.980
-1.2746 -16.6441 18.4732 26 218 26 0.892
-4.2006 -2.3735 11.7020 40 207 40 0.837
-7.5065 -14.6937 16.4075 4 236 4 0.980
-13.2394 -12.1864 10.3214 46 202 46 0.815
3.5739 6.3267 10.3015 96 218 20 0.782
0.0957 7.0346 12.6117 113 213 20 0.738
-11.3072 -13.1855 13.3994 4 236 4 0.980
0.6866 -1.1660 8.1901 7 233 7 0.969
-12.8026 -11.8258 11.2534 21 222 21 0.914
-3.5793 1.8674 14.7894 133 208 20 0.683
-10.9172 -13.3524 13.6570 4 236 4 0.980
3.6388 1.9669 9.7177 4 236 4 0.980
-1.4909 6.7515 8.6532 48 200 48 0.804
-7.1733 -0.4909 13.4407 113 213 20 0.738
1.0938 -5.6698 8.8464 129 209 20 0.694
11.4584 10.6620 14.6134 133 208 20 0.683
0.0491 5.6545 10.3040 48 200 48 0.804
-9.1236 -14.6002 15.4083 4 236 4 0.980
-10.7301 -12.9943 14.3058 4 236 4 0.980
-1.0092 -2.3860 7.2368 13 229 13 0.947
-7.3396 5.3309 14.2607 133 208 20 0.683
-0.9596 -0.4534 8.1200 24 220 24 0.903
-6.0553 7.1652 10.0734 109 214 20 0.749
-7.8802 -15.2426 16.4310 4 236 4 0.980
-4.5350 -0.3509 6.9018 21 222 21 0.914
-10.3932 -12.0405 12.0194 4 236 4 0.980
6.0255 7.7115 10.9183 109 214 20 0.749
-10.7290 -10.3516 10.5167 24 220 24 0.903
1.5913 -0.5026 6.6429 21 222 21 0.914
-10.2173 -3.1301 7.8626 138 207 20 0.672
-1.3579 6.4322 7.9661 29 216 29 0.881
-10.8011 -10.4412 9.1490 43 205 43 0.826
0.3219 -0.4471 5.9684 92 219 20 0.793
-7.6625 -15.3669 16.5563 4 236 4 0.980
-4.6565 -16.4287 18.0029 26 218 26 0.892
-7.5191 -14.2990 16.5358 4 236 4 0.980
-6.7382 -15.7637 17.1417 4 236 4 0.980
-6.5260 -15.8350 17.2522 10 231 10 0.958
-6.4362 -3.8264 4.5955 40 207 40 0.837
-2.6875 -17.0246 18.9336 4 236 4 0.980
0.3735 -2.1678 5.7183 109 214 20 0.749
-4.6074 2.8690 13.0525 105 215 20 0.760
-1.4595 -16.6897 18.5019 21 222 21 0.914
-1.8209 2.9094 12.2040 100 217 20 0.771
1.6608 0.4474 10.6530 43 205 43 0.826
3.7173 0.1987 9.3460 32 214 32 0.870
-1.7184 3.4702 2.6121 96 218 20 0.782
-3.4903 -18.2268 20.1341 92 219 20 0.793
-10.4377 -13.2096 14.7310 4 236 4 0.980
-4.2943 6.3717 7.2711 113 213 20 0.738
-11.2891 1.6186 8.3794 117 212 20 0.727
-11.9999 9.1522 13.5193 138 207 20 0.672
1.0517 -0.2130 10.3672 21 222 21 0.914
-1.1075 5.5668 9.6093 35 211 35 0.859
-1.5206 -18.8257 20.7639 109 214 20 0.749
-9.2929 6.8743 13.4650 105 215 20 0.760
7.3421 8.4463 12.0374 121 211 20 0.716
0.8067 0.4951 10.8986 40 207 40 0.837
-9.5725 -13.7543 15.5329 4 236 4 0.980
0.9467 -2.6960 10.0611 48 200 48 0.804
6.5267 5.5667 10.9031 129 209 20 0.694
-5.0686 -17.5544 19.2501 46 202 46 0.815
-9.4005 -13.8559 15.7593 4 236 4 0.980
7.6753 -3.1980 9.9238 129 209 20 0.694
2.0974 -0.5202 3.1243 96 218 20 0.782
8.6823 7.6630 5.9029 142 206 20 0.661
-3.5398 -5.2118 10.8228 46 202 46 0.815
0.6415 7.5329 9.3083 121 211 20 0.716
3.3607 6.8526 11.3572 100 217 20 0.771
-9.0990 -14.0223 16.1352 4 236 4 0.980
-11.8620 -12.3285 13.1150 4 236 4 0.980
7.3555 -1.4079 10.9764 117 212 20 0.727
-2.6584 6.2706 8.5463 113 213 20 0.738
-11.1117 -12.8791 14.0683 4 236 4 0.980
-9.0992 7.3967 14.9296 46 202 46 0.815
-16.4533 7.2164 14.3101 142 206 20 0.661
8.3583 -5.4826 10.6173 138 207 20 0.672
-9.1313 7.3761 14.9468 46 202 46 0.815
4.2158 3.1230 10.4500 38 209 38 0.848
-0.2198 -0.9201 8.2023 4 236 4 0.980
-1.0755 -2.5158 7.9345 21 222 21 0.914
-1.2150 7.2787 12.9601 113 213 20 0.738
0.4475 0.7746 1.9647 96 218 20 0.782
-5.6630 3.2190 6.1998 38 209 38 0.848
-8.5089 2.4175 5.8005 100 217 20 0.771
0.0012 7.4011 12.8326 113 213 20 0.738
-2.6993 -16.5176 18.2344 13 229 13 0.947
-3.4855 -2.1445 11.1229 43 205 43 0.826
3.9466 5.4391 10.1234 96 218 20 0.782
-8.5528 -15.0285 16.0425 4 236 4 0.980
-11.8311 -12.7659 12.6135 4 236 4 0.980
6.0568 -1.1468 7.5264 117 212 20 0.727
-4.2198 -2.0393 11.9182 48 200 48 0.804
4.5611 -0.0786 8.5580 35 211 35 0.859
-10.3951 -13.6537 14.1294 4 236 4 0.980
-0.2962 4.5450 4.6735 109 214 20 0.749
4.9125 -1.6764 8.3917 96 218 20 0.782
-8.6764 -5.8933 9.5730 138 207 20 0.672
-9.6008 -14.2847 14.9567 4 236 4 0.980
-10.3150 -13.5276 14.8281 4 236 4 0.980
-2.4672 -4.1726 10.4585 43 205 43 0.826
-12.1239 -0.2553 14.1533 138 207 20 0.672
15.4864 8.9405 18.7728 142 206 20 0.661
8.0756 -2.3668 10.5811 125 210 20 0.705
-7.1154 -15.5880 16.9426 4 236 4 0.980
-5.8575 7.7885 13.8233 121 211 20 0.716
-12.4608 -11.8375 12.1797 7 233 7 0.969
-5.6753 -3.6273 5.6630 18 225 18 0.925
-7.6744 -15.1428 17.5197 4 236 4 0.980
-7.6307 4.7853 9.8614 133 208 20 0.683
-4.0530 2.9115 12.2368 105 215 20 0.760
-9.6343 7.0368 14.5786 46 202 46 0.815
-2.9553 -2.7968 9.4384 109 214 20 0.749
-10.5634 -13.1349 14.5210 4 236 4 0.980
-8.9032 -14.2239 16.2180 4 236 4 0.980
-4.2393 -2.6487 6.5420 4 236 4 0.980
12.5325 5.3572 7.2097 142 206 20 0.661
3.9487 5.5308 5.5447 129 209 20 0.694
-12.2534 -12.5333 12.0796 4 236 4 0.980
-4.7030 -17.4437 19.1391 38 209 38 0.848
-9.1939 -13.7149 15.1954 4 236 4 0.980
-6.7406 -2.7548 5.5346 38 209 38 0.848
-9.3737 -14.4288 15.1872 4 236 4 0.980
5.3539 5.5766 15.5684 142 206 20 0.661
-1.9181 6.8084 12.7695 121 211 20 0.716
-7.0850 -14.9056 17.2294 4 236 4 0.980
-4.3213 -1.3722 6.6881 4 236 4 0.980
-3.7397 -17.9450 19.7059 43 205 43 0.826
-11.9559 -12.2152 12.9911 4 236 4 0.980
-1.5533 1.7875 11.5405 92 219 20 0.793
14.1326 7.1086 9.5455 142 206 20 0.661
-2.7639 -3.5289 6.4206 18 225 18 0.925
10.1318 -4.8324 13.2706 129 209 20 0.694
-3.6408 -3.0139 6.5624 4 236 4 0.980
-1.4503 1.7018 11.8108 92 219 20 0.793
-12.4556 -11.9380 12.0751 10 231 10 0.958
-12.4192 -12.3994 11.8089 10 231 10 0.958
6.5359 -0.8739 8.6181 113 213 20 0.738
-11.2687 8.0220 16.6506 117 212 20 0.727
1.9909 -1.4307 9.3534 10 231 10 0.958
-0.0698 5.7183 9.7423 43 205 43 0.826
-6.3956 -2.7728 5.3626 32 214 32 0.870
-10.0294 -13.5062 15.1491 4 236 4 0.980
3.7883 2.0754 9.8463 10 231 10 0.958
-2.4301 4.0446 5.6360 105 215 20 0.760
4.2196 6.3700 9.3559 105 215 20 0.760
-2.5368 -3.5159 6.4341 4 236 4 0.980
-12.8014 -11.4999 11.3891 24 220 24 0.903
-6.2618 -15.9244 17.3346 10 231 10 0.958
16.9805 9.8313 17.5459 142 206 20 0.661
-1.5959 -16.6078 18.4810 21 222 21 0.914
5.8775 3.1131 8.6464 129 209 20 0.694
-0.3394 6.2536 6.9997 43 205 43 0.826
-11.4594 -13.1026 13.1415 4 236 4 0.980
-9.4697 -15.8369 17.6474 125 210 20 0.705
-1.0701 -3.0981 10.6848 92 219 20 0.793
-8.0448 -14.6129 16.6185 4 236 4 0.980
1.4922 0.5541 2.9288 46 202 46 0.815
3.3012 5.7606 5.3767 121 211 20 0.716
-3.0667 2.4432 12.9619 46 202 46 0.815
2.1046 5.1161 3.5856 125 210 20 0.705
-11.3786 -12.7560 13.8040 4 236 4 0.980
6.2421 8.1903 11.8510 109 214 20 0.749
-11.0354 -13.3514 13.5571 4 236 4 0.980
-2.9815 3.3652 3.1831 92 219 20 0.793
5.0829 1.2924 8.5460 46 202 46 0.815
4.1724 6.0996 8.2501 113 213 20 0.738
6.2517 7.5081 11.4294 105 215 20 0.760
0.7479 5.1482 4.9496 109 214 20 0.749
0.8514 5.1392 5.8695 48 200 48 0.804
-5.1796 -1.3688 11.6846 100 217 20 0.771
-7.1175 7.7372 12.2676 133 208 20 0.683
-2.5308 -3.5408 6.4714 7 233 7 0.969
-5.5782 -6.2628 9.5220 133 208 20 0.683
-3.8058 -18.1588 19.4620 92 219 20 0.793
-0.1600 6.8174 10.4855 43 205 43 0.826
-5.6156 -1.3016 12.2885 117 212 20 0.727
-1.9915 -18.8041 20.7512 105 215 20 0.760
0.3610 -0.4181 6.2360 46 202 46 0.815
-0.2617 7.1096 12.3321 100 217 20 0.771
-0.6203 6.1139 6.5171 43 205 43 0.826
-1.8433 1.9394 8.3766 92 219 20 0.793
-2.5825 -3.4699 6.7005 4 236 4 0.980
-6.9735 2.8779 6.6549 16 227 16 0.936
-5.4884 6.3513 10.1027 105 215 20 0.760
-0.7785 -5.8427 9.3147 121 211 20 0.716
-10.3869 -13.4890 14.4105 4 236 4 0.980
1.7003 3.0471 11.2102 48 200 48 0.804
-10.2148 -12.5253 12.6723 4 236 4 0.980
-4.1601 -2.6534 6.4516 4 236 4 0.980
1.1571 -2.6495 9.5747 40 207 40 0.837
2.3758 0.0875 1.1043 48 200 48 0.804
-8.5667 -14.4233 16.5521 4 236 4 0.980
-10.7573 -10.5440 11.0476 26 218 26 0.892
1.6430 6.3670 11.3606 105 215 20 0.760
-1.6379 3.2791 2.3935 96 218 20 0.782
-9.8102 -13.6496 15.4347 4 236 4 0.980
-8.1834 -14.6542 16.8569 4 236 4 0.980
3.2802 1.1451 8.5533 26 218 26 0.892
-5.6008 -3.5263 5.6167 18 225 18 0.925
-6.6215 -14.1814 16.5459 4 236 4 0.980
-6.9164 -15.3008 17.7969 4 236 4 0.980
-9.4336 -13.7043 14.2974 4 236 4 0.980
-2.6243 5.8583 9.3840 100 217 20 0.771
-12.0591 -12.7073 12.3797 4 236 4 0.980
3.4242 5.3651 10.7835 96 218 20 0.782
2.5560 5.9726 10.8707 92 219 20 0.793
-0.5647 7.0362 12.0868 100 217 20 0.771
3.2777 3.1372 10.2552 26 218 26 0.892
0.8392 4.5674 10.0595 43 205 43 0.826
9.7273 -0.5894 14.4674 138 207 20 0.672
-7.6077 -7.3187 11.1072 142 206 20 0.661
-3.6055 -2.0633 6.9762 4 236 4 0.980
-12.6104 -11.7106 11.8512 13 229 13 0.947
0.6211 -0.1737 5.9248 92 219 20 0.793
-0.6799 -1.3629 9.6457 21 222 21 0.914
6.3044 -0.9425 8.0794 117 212 20 0.727
-6.4857 3.0590 6.8637 24 220 24 0.903
-5.7650 6.5850 9.9285 105 215 20 0.760
-2.1058 0.5904 11.8457 100 217 20 0.771
-4.4613 1.6711 12.5894 105 215 20 0.760
-12.0729 -12.3136 12.4662 4 236 4 0.980
-12.3012 -12.0522 12.5104 4 236 4 0.980
-11.3945 -0.0754 13.3481 138 207 20 0.672
-7.5555 1.0209 13.5258 121 211 20 0.716
1.6740 -0.0615 2.8135 26 218 26 0.892
-10.4819 -11.6885 11.6532 4 236 4 0.980
0.0019 1.6122 11.6293 117 212 20 0.727
-9.7241 -13.6410 15.4008 4 236 4 0.980
-1.6212 4.3136 5.5740 117 212 20 0.727
1.4184 0.3024 10.2340 35 211 35 0.859
0.8984 2.9639 9.4619 109 214 20 0.749
-1.4762 -5.0497 9.7333 117 212 20 0.727
-3.5776 -16.4700 18.0092 29 216 29 0.881
-1.0693 -3.7736 7.0338 24 220 24 0.903
7.9684 5.2382 6.0698 133 208 20 0.683
-6.0848 -2.7422 12.0218 105 215 20 0.760
-5.1299 -2.8960 5.8717 4 236 4 0.980
0.1583 0.7883 2.3559 113 213 20 0.738
-6.3177 -2.9046 5.5549 32 214 32 0.870
0.7968 -0.3820 8.9532 4 236 4 0.980
-3.1296 -5.0450 9.8901 100 217 20 0.771
-10.3396 -2.4566 9.8423 138 207 20 0.672
-0.9707 -1.2706 7.8273 18 225 18 0.925
-1.3393 4.9128 7.8515 40 207 40 0.837
-3.3970 -5.2119 10.3136 46 202 46 0.815
-4.6980 -2.9642 11.2067 38 209 38 0.848
-3.4091 -5.3856 12.2911 117 212 20 0.727
-2.4641 -3.2151 6.5310 4 236 4 0.980
1.6988 -0.3597 2.7981 32 214 32 0.870
1.1967 -0.2753 8.3805 4 236 4 0.980
-0.9627 -0.4381 8.0855 24 220 24 0.903
-1.3719 -1.8761 11.0008 35 211 35 0.859
14.0217 8.5261 14.8662 138 207 20 0.672
-9.8727 -13.4738 15.2540 4 236 4 0.980
-10.0108 -4.0331 7.6582 138 207 20 0.672
-9.4433 7.0771 13.9148 100 217 20 0.771
11.1480 -1.1121 15.7771 133 208 20 0.683
4.4235 0.4577 8.8267 32 214 32 0.870
1.3492 6.7961 11.6347 92 219 20 0.793
2.8895 -3.8025 6.2667 129 209 20 0.694
-6.3509 -16.1002 17.5131 16 227 16 0.936
-4.0370 -4.2385 5.7539 26 218 26 0.892
-0.4318 6.2898 6.4662 92 219 20 0.793
1.5305 -1.6894 10.3453 35 211 35 0.859
2.1771 -0.9678 6.6170 35 211 35 0.859
-4.7515 7.4116 13.0060 117 212 20 0.727
-9.2905 9.2931 17.0823 138 207 20 0.672
1.8371 -1.5796 5.8819 48 200 48 0.804
7.4750 9.1557 14.4249 129 209 20 0.694
-9.7608 -12.9045 14.6081 4 236 4 0.980
7.4414 8.4720 12.2098 125 210 20 0.705
3.4956 0.5045 9.5247 29 216 29 0.881
0.9956 -1.2127 10.4782 10 231 10 0.958
1.6656 -4.0464 6.9415 121 211 20 0.716
-1.8589 -16.7158 18.5241 16 227 16 0.936
-1.0831 -0.5331 11.7819 92 219 20 0.793
-11.8344 -10.9351 10.3932 4 236 4 0.980
11.6731 -0.9883 16.2857 133 208 20 0.683
-3.5976 0.9219 7.6922 46 202 46 0.815
-11.8693 -4.5965 11.5861 121 211 20 0.716
-7.4438 0.7229 12.9430 117 212 20 0.727
-4.2364 -0.0182 7.2368 18 225 18 0.925
1.2001 -1.5312 8.0552 29 216 29 0.881
-2.4959 -16.4330 18.1650 16 227 16 0.936
5.9978 7.2172 10.4219 105 215 20 0.760
-7.8299 2.6204 6.1058 43 205 43 0.826
17.4890 5.6790 18.5971 142 206 20 0.661
0.3776 7.0476 11.8585 100 217 20 0.771
5.0759 1.2855 8.6903 38 209 38 0.848
8.3649 4.9420 4.0618 138 207 20 0.672
-7.3939 -1.0040 12.6390 121 211 20 0.716
-10.3406 -12.1970 12.3556 4 236 4 0.980
10.1769 4.9028 16.7052 142 206 20 0.661
1.3982 -0.2016 9.6200 10 231 10 0.958
-12.6315 -11.9076 11.4351 13 229 13 0.947
-8.6122 -14.8919 15.7771 4 236 4 0.980
-1.9241 7.2337 13.4023 121 211 20 0.716
1.6506 -0.2156 10.6041 32 214 32 0.870
8.1679 4.7959 4.1537 133 208 20 0.683
3.2760 3.0638 10.3819 26 218 26 0.892
0.9356 -1.2901 8.3611 21 222 21 0.914
-5.3030 -4.2203 5.7077 35 211 35 0.859
-8.8590 -14.2627 16.0885 4 236 4 0.980
2.5858 -0.7471 7.0567 40 207 40 0.837
-9.3426 -4.1854 11.5863 121 211 20 0.716
-12.4804 1.8742 14.5521 142 206 20 0.661
5.5105 2.2179 8.5374 113 213 20 0.738
-4.4116 -1.6526 6.6240 4 236 4 0.980
-4.9146 -2.8128 11.1798 38 209 38 0.848
-8.6997 0.2136 13.2771 117 212 20 0.727
-5.2012 2.1523 12.6138 109 214 20 0.749
3.6210 3.3709 10.4910 29 216 29 0.881
1.1086 -1.7256 5.4941 96 218 20 0.782
-2.4390 -2.5967 11.0361 32 214 32 0.870
10.3064 7.2847 8.6765 133 208 20 0.683
-4.8711 1.3493 7.6369 48 200 48 0.804
-0.0958 -1.0865 11.1496 29 216 29 0.881
15.1406 12.0113 13.4005 142 206 20 0.661
-6.3017 -9.9162 13.5224 142 206 20 0.661
-4.9269 7.0450 13.4324 117 212 20 0.727
18.1275 4.0279 11.8367 142 206 20 0.661
1.4539 -0.0212 10.5698 32 214 32 0.870
2.7238 3.3751 15.3295 138 207 20 0.672
-8.6565 -14.8224 15.8998 4 236 4 0.980
-16.0683 0.4899 14.5290 142 206 20 0.661
-5.2966 -17.2095 18.8325 43 205 43 0.826
-2.3830 -18.8015 20.7340 100 217 20 0.771
-1.5271 -2.0722 11.0223 35 211 35 0.859
-1.7269 -16.8434 18.6448 18 225 18 0.925
3.3944 1.7693 10.6634 26 218 26 0.892
-11.9420 1.6984 9.1469 129 209 20 0.694
7.3628 -0.1546 10.4376 117 212 20 0.727
-5.4190 3.9031 7.2296 18 225 18 0.925
2.3903 6.6331 7.7205 117 212 20 0.727
-2.3643 -16.5876 18.1043 16 227 16 0.936
-10.1855 -12.6329 12.8792 4 236 4 0.980
-4.4537 -0.8006 7.1212 21 222 21 0.914
-2.4632 -16.5158 18.2916 16 227 16 0.936
-5.8637 -4.9098 10.7396 113 213 20 0.738
-5.3375 -17.5120 19.2493 48 200 48 0.804
-0.8474 5.3479 9.3321 29 216 29 0.881
-12.1542 8.2616 17.3875 133 208 20 0.683
-4.1166 -17.7568 19.5189 48 200 48 0.804
1.5315 3.5243 10.8574 46 202 46 0.815
1.5909 0.3171 10.4209 38 209 38 0.848
-2.8086 -6.7766 11.0721 113 213 20 0.738
4.6464 7.3765 12.3438 117 212 20 0.727
-10.0601 7.6953 15.7574 96 218 20 0.782
-3.3199 6.5424 13.8861 117 212 20 0.727
-11.2005 8.5763 16.2796 117 212 20 0.727
-9.7801 -13.5710 15.3766 4 236 4 0.980
-1.0817 -0.2722 11.2924 92 219 20 0.793
-9.1593 -14.2015 15.5431 4 236 4 0.980
-6.7144 6.6990 9.3127 105 215 20 0.760
-4.6639 6.8450 13.5397 117 212 20 0.727
4.4624 -0.1665 9.9258 96 218 20 0.782
9.8407 -6.7132 12.4231 133 208 20 0.683
-0.9235 3.6452 3.4343 48 200 48 0.804
-2.9824 -2.6105 6.7035 4 236 4 0.980
-4.0648 3.4626 4.9702 109 214 20 0.749
2.1362 -2.0397 9.9727 92 219 20 0.793
2.1245 0.2288 0.9897 92 219 20 0.793
-1.5655 1.0877 8.2751 46 202 46 0.815
4.2485 2.5385 10.0014 29 216 29 0.881
-5.5981 6.4400 8.4385 96 218 20 0.782
14.7586 8.7490 15.1782 138 207 20 0.672
-0.2043 -2.9576 7.0259 26 218 26 0.892
10.8934 10.2839 13.2422 129 209 20 0.694
15.6632 7.8550 10.8910 142 206 20 0.661
2.3007 6.6118 7.8622 117 212 20 0.727
-1.5169 -18.8001 20.7373 109 214 20 0.749
-9.8947 -13.3173 15.0273 4 236 4 0.980
-10.6073 -9.3552 9.0671 96 218 20 0.782
-6.1683 4.0569 8.0087 38 209 38 0.848
-1.0743 -16.7004 18.4971 26 218 26 0.892
4.8894 0.9376 9.2028 24 220 24 0.903
-5.3998 6.3757 9.5857 100 217 20 0.771
-1.9953 -18.8687 20.9673 105 215 20 0.760
-6.5674 -15.0125 16.8523 4 236 4 0.980
-4.2205 3.0283 13.2803 105 215 20 0.760
-5.1980 -4.4254 10.9610 92 219 20 0.793
-3.8749 -3.4885 11.0061 32 214 32 0.870
-5.6323 6.5423 9.0810 100 217 20 0.771
-10.7338 7.1835 15.0115 92 219 20 0.793
-15.0843 6.9325 15.8507 142 206 20 0.661
-1.3208 -0.1037 11.8637 46 202 46 0.815
-8.3948 -14.8778 15.9886 4 236 4 0.980
-11.3406 -4.4425 11.1144 121 211 20 0.716
-5.4893 6.5812 8.8036 96 218 20 0.782
-1.6771 3.2215 12.4375 100 217 20 0.771
-11.1633 1.6930 6.6890 117 212 20 0.727
-3.2706 -0.6434 7.7974 16 227 16 0.936
-8.3773 -1.1011 5.3353 133 208 20 0.683
10.6181 6.3726 6.3678 142 206 20 0.661
4.5303 7.1165 9.7373 96 218 20 0.782
-3.1275 -1.3605 7.0404 4 236 4 0.980
-2.2929 -16.4791 18.1021 13 229 13 0.947
11.8222 -10.1144 15.5244 142 206 20 0.661
-2.2972 -16.4870 18.1260 13 229 13 0.947
5.7749 -0.8052 4.4676 133 208 20 0.683
0.5148 2.1923 7.3208 129 209 20 0.694
-3.6824 -3.3973 10.7707 32 214 32 0.870
-4.1515 1.6825 12.9202 100 217 20 0.771
-8.8653 -5.2967 10.5609 113 213 20 0.738
-2.9432 -16.4522 18.2372 13 229 13 0.947
-9.8895 -12.9396 14.5012 4 236 4 0.980
-3.0078 -1.6470 7.3082 4 236 4 0.980
-1.1338 -1.5485 11.1188 38 209 38 0.848
-8.9112 7.4792 15.9334 100 217 20 0.771
-3.4008 1.9691 9.0408 48 200 48 0.804
-0.3431 4.4383 4.3999 109 214 20 0.749
3.4581 3.2145 10.5085 26 218 26 0.892
0.8823 -1.0903 8.5859 10 231 10 0.958
-5.1049 6.4767 8.8133 96 218 20 0.782
-4.4895 -1.5407 7.0665 4 236 4 0.980
-1.1058 -0.3445 8.0129 32 214 32 0.870
1.0203 -5.6595 8.9399 129 209 20 0.694
-0.2678 4.6588 4.9676 109 214 20 0.749
-12.4752 -3.1321 11.8759 133 208 20 0.683
3.9552 0.0976 9.2706 35 211 35 0.859
-4.4864 6.9622 14.1012 121 211 20 0.716
-4.0878 -2.6553 6.3560 4 236 4 0.980
-0.3801 6.2948 7.0374 46 202 46 0.815
3.0941 2.8757 10.1785 26 218 26 0.892
-9.3908 6.0316 14.6955 92 219 20 0.793
6.8901 -3.2926 8.6860 121 211 20 0.716
-0.9393 -2.2927 7.2691 16 227 16 0.936
-6.1037 -4.1710 11.4288 105 215 20 0.760
-7.0902 0.5236 6.4809 129 209 20 0.694
-10.1592 -4.6770 10.6434 113 213 20 0.738
0.9293 -2.3029 8.3181 35 211 35 0.859
8.1917 -0.7775 11.5354 121 211 20 0.716
-0.7743 -0.4396 11.0912 46 202 46 0.815
5.9966 -2.3079 7.0843 109 214 20 0.749
-10.6129 -9.4864 9.1457 96 218 20 0.782
-10.0224 -13.4745 15.1516 4 236 4 0.980
-1.6527 4.1916 9.0752 100 217 20 0.771
-8.8010 -14.7567 15.6886 4 236 4 0.980
-10.4113 -12.0991 13.2381 4 236 4 0.980
-10.8683 -5.6454 10.2768 121 211 20 0.716
-1.4324 -1.8137 11.2392 35 211 35 0.859
-10.2559 -13.6143 14.6601 4 236 4 0.980
-5.6852 2.6884 16.7083 142 206 20 0.661
-10.0546 -14.0474 15.2503 4 236 4 0.980
-4.2755 2.6018 12.2185 109 214 20 0.749
-8.4710 7.0850 14.5332 100 217 20 0.771
-6.2950 -3.8994 11.3057 105 215 20 0.760
-1.6679 3.2072 2.3052 96 218 20 0.782
0.9033 0.0930 6.5003 46 202 46 0.815
-5.5854 -3.5175 5.7232 18 225 18 0.925
0.8746 -1.1726 8.1428 21 222 21 0.914
-12.0480 6.1500 16.7472 138 207 20 0.672
-0.9333 -2.8386 9.9014 48 200 48 0.804
-8.7087 -0.0349 16.5477 142 206 20 0.661
-8.5350 -14.4236 15.9220 4 236 4 0.980
17.0038 13.5097 18.5312 142 206 20 0.661
-10.3459 -4.9714 11.0124 113 213 20 0.738
-2.0021 -17.2066 19.2241 18 225 18 0.925
-2.7860 -2.8272 7.6424 4 236 4 0.980
9.5282 -5.4349 12.9785 129 209 20 0.694
-6.9594 -3.4960 5.7924 35 211 35 0.859
-7.8790 7.0494 14.8340 96 218 20 0.782
-6.5247 -15.0567 16.9019 4 236 4 0.980
17.6299 8.9954 20.6632 138 207 20 0.672
-2.0971 3.2279 2.4410 100 217 20 0.771
-8.8952 7.0594 15.2318 48 200 48 0.804
8.0839 9.9157 14.4850 129 209 20 0.694
-10.7122 -10.9644 11.7823 4 236 4 0.980
-3.7247 -1.8983 11.8385 92 219 20 0.793
-0.3827 6.2056 6.7572 43 205 43 0.826
11.2533 -3.5032 17.4560 142 206 20 0.661
10.5782 8.1708 18.0742 142 206 20 0.661
-8.4977 -14.9668 15.9647 4 236 4 0.980
-6.5060 -3.4980 5.2057 32 214 32 0.870
-3.2630 -1.3299 7.2758 4 236 4 0.980
8.6034 -3.6185 11.4621 129 209 20 0.694
-4.5165 -1.8414 7.3427 7 233 7 0.969
-7.3918 -14.8654 17.2414 4 236 4 0.980
3.5477 3.2930 10.4403 32 214 32 0.870
4.5182 -0.7787 4.5845 133 208 20 0.683
-7.2239 -15.3029 17.8131 4 236 4 0.980
-4.5198 5.0386 6.8604 96 218 20 0.782
2.4451 6.1117 7.2978 117 212 20 0.727
4.0027 -0.6644 7.7621 43 205 43 0.826
-3.0596 3.9915 8.4802 117 212 20 0.727
3.2386 0.3868 9.1112 32 214 32 0.870
-3.1630 -5.1821 11.9358 113 213 20 0.738
-8.2006 2.6873 6.1495 92 219 20 0.793
-1.6315 -15.1337 16.8569 129 209 20 0.694
-0.6122 5.1288 8.2175 29 216 29 0.881
1.2315 -0.2277 8.9821 4 236 4 0.980
1.2163 2.0383 7.5572 117 212 20 0.727
8.6959 7.6601 9.1423 133 208 20 0.683
5.5609 4.5268 10.1328 129 209 20 0.694
-7.2447 -4.5881 10.5773 121 211 20 0.716
-4.9241 5.9595 8.1030 100 217 20 0.771
3.6194 3.5947 10.8476 29 216 29 0.881
-2.6835 -6.2371 9.0898 117 212 20 0.727
8.2553 2.7464 12.8159 142 206 20 0.661
1.0577 4.4597 10.2417 43 205 43 0.826
-0.8937 -3.8296 7.2180 26 218 26 0.892
3.7734 7.3539 11.8409 125 210 20 0.705
-4.0056 4.2416 8.0204 96 218 20 0.782
-0.4712 5.5352 8.9362 32 214 32 0.870
-4.2873 -1.7863 6.8305 7 233 7 0.969
5.5636 8.0489 9.9010 117 212 20 0.727
-0.2888 -0.8930 7.9958 4 236 4 0.980
-5.0328 -16.1427 17.6025 40 207 40 0.837
5.8727 6.3082 4.2681 142 206 20 0.661
-4.0293 3.5852 4.9481 109 214 20 0.749
-1.1568 -2.3735 7.1972 4 236 4 0.980
-3.8576 3.9049 5.2853 109 214 20 0.749
-1.0960 -2.5136 7.5426 13 229 13 0.947
5.2175 6.3581 12.9813 138 207 20 0.672
-0.9715 1.5617 9.0505 117 212 20 0.727
-1.1400 -0.3231 8.0852 38 209 38 0.848
0.8763 6.1730 10.6528 40 207 40 0.837
-3.7226 3.9683 8.1229 105 215 20 0.760
-0.8382 5.5733 9.5087 32 214 32 0.870
-2.7137 -2.4101 6.9697 4 236 4 0.980
-5.7202 -3.2838 5.7724 18 225 18 0.925
-4.9832 -0.4400 7.3399 35 211 35 0.859
0.9524 -4.0287 7.6487 117 212 20 0.727
-1.9519 -3.0324 6.9689 4 236 4 0.980
-10.7346 -10.0016 10.2057 29 216 29 0.881
-6.2172 3.4935 6.9950 35 211 35 0.859
-5.6332 0.7907 6.8997 100 217 20 0.771
-4.0255 1.1658 7.7737 43 205 43 0.826
-1.9481 -1.9656 7.4051 4 236 4 0.980
-5.5524 -0.2106 6.7079 46 202 46 0.815
-7.1189 3.9170 9.6553 129 209 20 0.694
11.9389 10.0285 11.8494 129 209 20 0.694
6.2750 1.0449 8.7960 117 212 20 0.727
-7.3878 4.0869 8.3521 121 211 20 0.716
0.5104 -1.0896 5.5353 96 218 20 0.782
-1.5663 1.1077 8.3466 46 202 46 0.815
0.1728 1.1051 2.1888 121 211 20 0.716
0.7547 4.7010 10.3191 40 207 40 0.837
17.5104 7.4418 20.4585 138 207 20 0.672
-7.2028 -15.3074 17.7903 4 236 4 0.980
-10.9762 1.8539 7.8729 117 212 20 0.727
-12.9088 -11.4908 11.4368 24 220 24 0.903
-4.1272 -4.3737 6.0344 26 218 26 0.892
-3.6547 -16.3683 18.0548 29 216 29 0.881
-3.3377 -16.6467 17.9283 21 222 21 0.914
-12.6672 -11.6717 11.8683 13 229 13 0.947
2.0367 1.1630 7.3306 48 200 48 0.804
0.8077 -1.1368 8.1724 21 222 21 0.914
-3.2139 0.8448 7.9717 43 205 43 0.826
-1.5821 2.2540 9.0556 109 214 20 0.749
3.1315 5.9245 5.4836 113 213 20 0.738
-7.1563 -1.8418 5.7020 96 218 20 0.782
2.5961 -1.4034 6.1492 105 215 20 0.760
2.2008 0.2660 1.0655 48 200 48 0.804
-4.6613 -4.1855 13.1419 129 209 20 0.694
-2.8329 -1.5707 6.9529 4 236 4 0.980
-4.3865 -1.4609 6.7052 4 236 4 0.980
-8.0063 2.6369 6.1730 46 202 46 0.815
-3.7396 3.5119 4.8389 100 217 20 0.771
-0.9312 -1.7464 8.5414 10 231 10 0.958
-2.8186 -3.8350 6.7000 16 227 16 0.936
-6.9057 -3.0905 5.1380 40 207 40 0.837
2.8469 -0.5618 7.2788 46 202 46 0.815
-10.5714 -11.3026 10.9192 18 225 18 0.925
2.2205 5.8891 10.9353 40 207 40 0.837
3.9512 -2.1910 7.4958 109 214 20 0.749
-5.0242 -3.0012 6.1309 7 233 7 0.969
-2.5157 1.4210 8.0881 46 202 46 0.815
-1.5734 2.3205 9.2969 109 214 20 0.749
3.5435 -0.0143 1.9664 96 218 20 0.782
-8.3194 -14.7855 15.7138 4 236 4 0.980
7.8594 -5.4247 9.2677 138 207 20 0.672
-6.1612 3.2839 6.8457 35 211 35 0.859
-1.3777 -16.2849 18.4269 21 222 21 0.914
-5.3282 -4.2781 5.5161 35 211 35 0.859
-3.8588 3.4567 4.7373 100 217 20 0.771
6.1900 -4.9201 7.8762 121 211 20 0.716
0.5639 5.9138 10.0988 38 209 38 0.848
-11.8102 -1.6627 9.7783 138 207 20 0.672
-3.2806 3.3053 3.9501 100 217 20 0.771
2.0915 -1.4649 9.3686 13 229 13 0.947
-1.4630 -16.6033 18.4063 21 222 21 0.914
-10.3823 -12.0530 13.2752 4 236 4 0.980
8.4578 10.0685 14.4665 129 209 20 0.694
-0.8272 -4.5881 6.8775 105 215 20 0.760
2.0366 -1.3813 3.0819 109 214 20 0.749
-6.9881 -3.5844 5.6275 38 209 38 0.848
3.7607 0.4797 9.8904 32 214 32 0.870
-3.8470 4.0647 8.0553 100 217 20 0.771
1.2019 -1.4158 8.6467 16 227 16 0.936
2.1521 0.4412 1.0985 43 205 43 0.826
-3.1914 -1.3722 7.2388 4 236 4 0.980
-7.0232 2.9240 6.7805 13 229 13 0.947
-2.3547 4.1685 5.7750 109 214 20 0.749
-1.4958 4.2137 5.2556 113 213 20 0.738
-4.2289 -4.1773 5.8665 24 220 24 0.903
5.7650 -2.3353 8.7089 96 218 20 0.782
2.3267 -5.0657 8.1376 125 210 20 0.705
-5.7368 3.4679 6.7587 35 211 35 0.859
2.6298 -2.7107 6.1566 105 215 20 0.760
-3.0531 -2.3232 6.9835 4 236 4 0.980
4.2148 2.2522 10.2773 29 216 29 0.881
-0.6136 -3.6895 6.8253 29 216 29 0.881
-5.5304 3.6789 7.1891 21 222 21 0.914
-2.9671 3.2858 3.2035 92 219 20 0.793
-3.8952 -1.0392 7.0022 13 229 13 0.947
9.9949 8.1354 20.3819 142 206 20 0.661
-6.0783 3.0054 7.2400 38 209 38 0.848
-0.2810 3.0850 11.0450 92 219 20 0.793
-6.7565 -14.5683 16.9514 4 236 4 0.980
-1.2499 -1.4018 7.4694 4 236 4 0.980
-4.1643 3.0341 3.1565 113 213 20 0.738
-2.0683 3.1183 2.2893 105 215 20 0.760
10.2881 10.7280 15.2887 138 207 20 0.672
-7.8657 -1.3558 13.1394 125 210 20 0.705
-2.1799 3.2470 2.6405 100 217 20 0.771
-0.0923 3.8283 2.5093 121 211 20 0.716
-1.1032 -0.3866 7.8561 35 211 35 0.859
-3.1625 0.8815 7.5872 40 207 40 0.837
1.0879 2.5827 9.3789 125 210 20 0.705
7.9008 5.4540 6.3578 138 207 20 0.672
-1.0045 -4.4494 6.7726 46 202 46 0.815
-3.1392 -1.7500 7.1218 4 236 4 0.980
-3.4509 -3.4323 12.8777 121 211 20 0.716
2.2358 4.0650 10.5447 29 216 29 0.881
7.5505 -0.4118 11.7035 121 211 20 0.716
-4.7876 -17.6667 19.4598 46 202 46 0.815
-7.0743 -0.3663 7.1541 129 209 20 0.694
-9.5510 -12.7518 14.2266 4 236 4 0.980
-1.2462 5.7406 7.2173 43 205 43 0.826
-1.5328 -1.9494 11.9958 40 207 40 0.837
-8.0994 2.5511 6.0072 48 200 48 0.804
-7.2463 -14.7905 17.0714 4 236 4 0.980
-11.2550 1.5398 6.6665 117 212 20 0.727
-6.1338 -5.5848 14.4098 138 207 20 0.672
-13.1373 1.7458 10.5111 138 207 20 0.672
-7.9635 -2.2501 15.4320 138 207 20 0.672
0.9324 5.6006 7.2808 92 219 20 0.793
9.4342 -5.2110 12.5285 125 210 20 0.705
-6.8093 -2.6314 5.5125 38 209 38 0.848
-3.0596 -1.7807 7.4435 4 236 4 0.980
-1.0981 -1.1699 7.4456 21 222 21 0.914
1.1358 0.4170 9.6900 35 211 35 0.859
-8.4446 2.3078 6.1020 96 218 20 0.782
-8.6228 -14.3610 16.2512 4 236 4 0.980
-6.2349 3.2280 6.7567 29 216 29 0.881
-5.8398 3.3436 6.8981 38 209 38 0.848
-10.5643 -11.3223 11.1150 24 220 24 0.903
-11.0265 1.6216 6.3516 121 211 20 0.716
-3.4124 1.6443 7.7158 48 200 48 0.804
0.3049 5.7687 9.2498 40 207 40 0.837
-2.1801 1.7273 13.1175 100 217 20 0.771
6.2113 0.3648 11.7828 133 208 20 0.683
6.3132 -3.5979 7.8827 109 214 20 0.749
2.1658 6.0815 7.0039 117 212 20 0.727
-8.0027 2.6255 6.1453 46 202 46 0.815
3.5932 3.2283 9.5566 35 211 35 0.859
-3.9578 3.1773 8.0677 92 219 20 0.793
-3.1463 1.5738 7.8932 46 202 46 0.815
-12.6304 -11.8053 11.3890 18 225 18 0.925
-1.2259 -16.8525 18.7262 26 218 26 0.892
-1.4218 6.4643 8.0440 29 216 29 0.881
-2.1371 3.1694 2.0916 105 215 20 0.760
3.7317 0.2870 9.4077 29 216 29 0.881
-10.7146 -9.7777 9.8330 40 207 40 0.837
-1.9607 -18.8743 20.9448 105 215 20 0.760
-10.7646 -10.2634 10.6496 24 220 24 0.903
-9.8044 -13.2160 14.8539 4 236 4 0.980
-10.4054 -11.9905 13.2875 4 236 4 0.980
-10.6104 -11.0200 10.5216 26 218 26 0.892
-10.6899 -9.6570 9.6200 43 205 43 0.826
-0.4696 6.1809 6.5180 92 219 20 0.793
-6.1570 -1.0014 14.9912 138 207 20 0.672
-7.7542 -6.5674 14.3007 138 207 20 0.672
-1.5436 1.7170 12.0453 92 219 20 0.793
-4.3245 2.9678 12.9024 105 215 20 0.760
4.7306 -3.9461 8.1716 109 214 20 0.749
-4.6064 -4.4555 11.6014 40 207 40 0.837
-1.1275 -6.0394 10.9289 129 209 20 0.694
-9.9600 -6.4624 13.7381 142 206 20 0.661
-8.1486 -4.6070 15.3873 142 206 20 0.661
3.4677 -3.7921 6.8860 117 212 20 0.727
4.6812 -2.9455 7.9798 105 215 20 0.760
4.5594 2.6311 9.3991 26 218 26 0.892
4.8857 -6.0430 13.7345 142 206 20 0.661
-10.4502 -11.8051 11.5883 4 236 4 0.980
1.1451 -1.3421 10.3232 7 233 7 0.969
11.0315 -1.1277 15.5776 129 209 20 0.694
-10.6936 -10.9548 11.5585 18 225 18 0.925
9.3431 -3.4861 12.4543 125 210 20 0.705
-5.8986 -15.4223 18.0926 21 222 21 0.914
-11.3552 -10.5799 8.5686 100 217 20 0.771
-8.3891 -15.1745 16.2961 4 236 4 0.980
-10.6769 -11.1211 11.9427 4 236 4 0.980
3.5761 6.4629 10.2981 96 218 20 0.782
0.9056 6.8831 12.1373 105 215 20 0.760
-1.7558 -3.7038 11.4761 100 217 20 0.771
-11.1495 9.3434 13.4290 138 207 20 0.672
5.9390 -3.8127 6.9361 113 213 20 0.738
-10.4950 -11.7692 12.8466 4 236 4 0.980
-5.1499 -17.5306 19.1695 48 200 48 0.804
-12.0567 2.6639 20.8573 142 206 20 0.661
-9.6298 -13.8891 15.4923 4 236 4 0.980
7.2927 8.8512 14.9934 129 209 20 0.694
-5.8593 -3.1198 5.6142 21 222 21 0.914
-5.5796 -16.5938 18.1622 32 214 32 0.870
-2.3369 -2.5079 6.7356 4 236 4 0.980
2.6383 1.5605 7.6890 100 217 20 0.771
6.1946 -1.3787 9.8026 113 213 20 0.738
2.8788 -1.7949 6.7836 96 218 20 0.782
1.9932 0.7982 3.4064 100 217 20 0.771
2.0173 -1.0394 2.7449 100 217 20 0.771
10.8909 -3.6313 11.4505 138 207 20 0.672
3.1698 1.0850 7.8988 38 209 38 0.848
2.0583 0.3197 0.9585 48 200 48 0.804
1.2627 0.8792 6.9113 48 200 48 0.804
14.1935 5.4677 17.9455 142 206 20 0.661
-10.8708 -10.5217 10.2038 21 222 21 0.914
2.2998 2.4927 14.0115 138 207 20 0.672
0.2961 -1.4762 6.0184 48 200 48 0.804
3.6733 9.3600 13.5644 142 206 20 0.661
1.7290 0.3404 7.1110 35 211 35 0.859
2.4370 0.2571 1.1828 48 200 48 0.804
4.8402 0.1119 3.7003 133 208 20 0.683
1.9993 0.4417 0.9850 48 200 48 0.804
10.2784 10.6046 12.5823 133 208 20 0.683
1.8543 0.2876 0.8812 96 218 20 0.782
4.9595 7.1099 13.7710 230 117 30 0.208
12.2260 9.1479 10.5491 230 131 30 0.250
10.1877 -4.3607 15.3184 230 125 30 0.233
14.7546 4.5513 7.2799 230 110 30 0.186
-14.5224 8.0604 15.3369 230 108 30 0.180
2.5838 4.5807 6.3957 230 139 30 0.274
14.6408 -3.7032 22.2734 230 101 30 0.157
14.8941 9.7205 13.7004 230 145 30 0.293
3.1556 7.7693 15.5352 230 159 30 0.336
16.1251 10.2144 19.1635 230 150 30 0.310
-6.5730 -3.0352 9.5494 230 148 30 0.303
9.5302 -2.6361 10.3813 230 104 30 0.167
2.3488 4.2691 6.8084 230 150 30 0.309
17.9165 10.2558 18.4846 230 115 30 0.201
11.0738 -4.0846 10.2657 230 121 30 0.220
-7.0311 1.2546 6.1512 230 148 30 0.303
8.8619 4.2456 5.0315 230 113 30 0.196
11.6672 9.8896 15.0292 230 102 30 0.163
2.4986 3.0222 6.7405 230 113 30 0.195
-2.3996 -9.9801 7.8447 230 153 30 0.320
-12.4364 -12.9504 16.9714 230 124 30 0.229
0.9064 3.0716 5.6832 230 104 30 0.167
4.6946 7.1067 15.0207 230 110 30 0.186
-6.8530 1.5915 6.4783 230 108 30 0.181
12.9655 -0.6269 9.6655 230 149 30 0.306
-8.4451 1.6982 9.6334 230 153 30 0.318
11.3024 7.9395 12.8352 230 126 30 0.236
-7.7875 2.6950 13.2855 230 109 30 0.183
7.7088 -2.9584 12.6571 230 117 30 0.208
-8.1974 8.4328 18.5767 230 138 30 0.273
-2.9465 -9.4152 13.9169 230 142 30 0.283
9.2587 10.2024 23.8840 230 110 30 0.187
-8.9944 -1.0522 14.3759 230 113 30 0.195
12.9962 4.2116 17.7413 230 105 30 0.171
-6.4527 0.1755 11.2269 230 125 30 0.233
-14.9855 0.0987 10.6895 230 150 30 0.310
16.3452 8.8645 21.6004 230 131 30 0.252
-0.9822 -4.7282 8.4729 230 150 30 0.310
-3.7791 -2.0471 14.6983 230 157 30 0.332
-17.6282 9.3455 15.6949 230 163 30 0.348
8.6627 9.3928 10.6620 230 116 30 0.205
9.5987 7.4322 7.1236 230 101 30 0.157
2.1947 -7.1863 9.8923 230 116 30 0.204
-13.6685 7.2353 15.4665 230 158 30 0.335
-7.1865 -4.1781 16.2964 230 158 30 0.334
6.7195 5.9603 17.0735 230 128 30 0.242
-9.0204 -5.6718 8.9388 230 127 30 0.239
7.5819 3.6424 14.4608 230 129 30 0.244
-10.1848 -4.0787 13.9090 230 102 30 0.160
15.3254 9.1271 13.8109 230 118 30 0.210
1.6232 4.7968 16.2839 230 121 30 0.220
-5.4511 -6.0584 16.1636 230 130 30 0.247
-12.3912 -4.6973 9.4019 230 103 30 0.165
7.6390 3.3251 11.6693 230 127 30 0.237
-12.3422 -0.7361 18.0269 230 147 30 0.300
8.9658 -3.0963 9.8992 230 136 30 0.266
16.5324 9.2871 15.8881 230 125 30 0.233
8.8911 -3.2073 11.0029 230 109 30 0.182
4.1137 2.6658 14.6959 230 146 30 0.298
-10.9647 9.7278 15.6388 230 162 30 0.345
5.8094 0.8841 8.2487 230 145 30 0.292
5.9875 -6.2195 8.8283 230 108 30 0.179
9.8824 7.1046 12.6452 230 138 30 0.272
8.3163 8.1167 11.5995 230 163 30 0.348
8.0964 7.3085 9.9475 230 161 30 0.343
13.1332 -1.2757 16.3136 230 140 30 0.278
8.2984 7.5704 4.0347 230 155 30 0.325
9.1182 -1.2734 2.0241 230 121 30 0.220
14.7353 7.7185 12.6014 230 99 30 0.152
13.4734 7.6948 6.2669 230 111 30 0.190
8.0201 -7.3485 5.9478 230 157 30 0.330
7.6734 5.4587 3.3348 230 130 30 0.248
8.5417 8.3725 8.6460 230 121 30 0.219
-2.6819 -4.5659 13.1728 230 138 30 0.272
11.2806 -4.8360 11.0429 230 105 30 0.172
-9.9569 -3.3504 6.9964 230 137 30 0.268
-6.3571 3.0972 8.7413 230 100 30 0.154
14.7621 8.7671 21.7316 230 112 30 0.194
-15.3198 2.1734 12.2865 230 148 30 0.304
11.2450 -1.5351 20.1699 230 111 30 0.190
11.1523 0.8766 16.9839 230 163 30 0.348
10.4475 11.3830 10.7046 230 130 30 0.248
9.5011 -7.1478 10.2084 230 154 30 0.322
6.7655 6.7313 6.8447 230 104 30 0.168
5.3336 4.7181 6.8341 230 152 30 0.317
-11.1320 -5.0097 12.1665 230 148 30 0.304
12.2229 7.1804 19.2619 230 103 30 0.166
-11.3086 -1.8079 10.6903 230 110 30 0.186
-6.3199 -6.1312 15.3680 230 117 30 0.208
9.2074 3.1375 4.1460 230 152 30 0.314
18.2931 4.4366 12.2968 230 114 30 0.198
-8.4296 0.9277 4.6655 230 114 30 0.199
-8.8241 2.4012 4.8540 230 101 30 0.157
-11.5840 6.8062 16.0384 230 147 30 0.301
3.3738 3.7814 1.3740 230 110 30 0.187
5.6156 -5.8547 9.5370 230 118 30 0.212
-11.1430 2.4023 16.2228 230 148 30 0.302
3.7827 5.7663 15.3730 230 138 30 0.272
7.3348 10.6231 13.3732 230 118 30 0.211
6.4003 7.1307 8.0707 230 140 30 0.279
8.2543 5.4127 7.7930 230 151 30 0.314
-2.1681 -8.2166 12.1906 230 122 30 0.224
10.3055 3.7091 17.1859 230 137 30 0.268
-7.1104 0.9931 8.2856 230 123 30 0.225
7.2397 -4.0732 10.4559 230 132 30 0.255
-10.1554 7.1639 12.3808 230 138 30 0.274
14.2291 2.0164 6.4748 230 122 30 0.222
-2.5544 -3.5089 12.2850 230 124 30 0.230
5.2526 0.7041 3.5239 230 113 30 0.195
-5.5689 3.3438 11.7404 230 105 30 0.172
-6.2460 4.5951 11.4341 230 126 30 0.235
-5.3199 -5.7014 10.5846 230 119 30 0.215
-10.1426 -5.7826 16.9469 230 137 30 0.268
8.0747 11.6764 12.5481 230 114 30 0.199
9.8279 6.1017 8.3237 230 149 30 0.305
-9.1177 9.6686 15.2021 230 107 30 0.177
14.1733 4.7978 15.2989 230 116 30 0.204
15.2205 9.5799 8.8862 230 114 30 0.198
17.7014 14.7615 18.0641 230 109 30 0.182
-7.7452 2.9875 15.5557 230 143 30 0.288
10.3819 6.7866 6.1990 230 122 30 0.224
9.0450 10.6409 13.2745 230 111 30 0.190
-6.4656 -6.9144 10.4173 230 158 30 0.335
5.3461 -5.0095 17.1580 230 130 30 0.247
7.3415 4.5473 11.0909 230 113 30 0.197
15.6447 5.7655 9.0749 230 141 30 0.281
10.3955 -2.6743 17.0970 230 151 30 0.313
16.4541 0.1673 8.0373 230 122 30 0.222
-7.0292 -7.3810 15.4191 230 144 30 0.292
5.6735 4.8029 14.1410 230 108 30 0.180
8.2461 4.4432 0.3555 230 149 30 0.305
-7.2083 2.1322 7.2178 230 146 30 0.297
7.7745 6.2983 13.1803 230 115 30 0.202
-12.2376 11.3565 18.1123 230 124 30 0.230
14.6268 7.7105 16.6581 230 153 30 0.319
8.4823 7.0311 2.4703 230 123 30 0.227
17.2162 4.1686 9.5009 230 122 30 0.222
11.8694 -11.7439 16.1194 230 108 30 0.181
17.4462 9.1828 21.4803 230 111 30 0.190
7.4414 -6.5030 16.9924 230 145 30 0.295
1.0740 4.6585 14.1220 230 110 30 0.186
-7.2147 2.4340 13.1300 230 148 30 0.302
6.8170 -1.0307 4.9493 230 119 30 0.214
4.5057 9.9289 9.4424 230 123 30 0.228
2.6094 8.0610 13.6498 230 144 30 0.290
-14.2549 -11.1561 18.4333 230 122 30 0.224
8.7437 4.1337 5.8908 230 112 30 0.191
14.4114 4.1789 16.2480 230 99 30 0.153
-1.2190 0.4059 8.0382 230 111 30 0.189
-8.9234 2.9615 16.2741 230 118 30 0.211
-11.0439 5.2827 19.2094 230 151 30 0.313
9.8862 -0.2701 14.7694 230 131 30 0.251
5.5549 7.3976 15.8032 230 107 30 0.177
8.1359 4.2000 5.0717 230 115 30 0.202
-10.4089 3.0798 23.1147 230 133 30 0.257
11.6018 -1.2621 15.3352 230 136 30 0.266
3.8872 -0.0283 4.8004 230 135 30 0.263
8.3792 9.5649 13.4616 230 124 30 0.230
5.4044 5.3038 11.2884 230 107 30 0.178
17.2833 5.0141 18.8434 230 117 30 0.207
6.3954 -2.1864 15.8632 230 163 30 0.350
-1.9954 0.2959 11.6360 230 148 30 0.304
6.8607 8.7321 7.3241 230 143 30 0.286
15.1473 7.1647 15.9784 230 143 30 0.287
-7.0820 5.1560 11.0933 230 159 30 0.337
14.3761 7.5054 12.4210 230 148 30 0.303
3.4865 -7.3214 14.8067 230 144 30 0.291
13.0375 10.3305 6.5713 230 128 30 0.240
-7.6300 -5.4115 16.6203 230 117 30 0.208
9.4565 8.9121 9.4114 230 115 30 0.201
18.5543 7.7162 20.9664 230 144 30 0.292
9.8491 10.7401 16.3049 230 129 30 0.245
10.1289 6.0442 16.6033 230 119 30 0.212
-7.4742 -5.0428 11.5989 230 127 30 0.238
-7.4905 4.1947 9.4098 230 101 30 0.159
4.9584 2.7913 13.1408 230 145 30 0.294
3.9384 10.6133 17.5087 230 113 30 0.196
14.3758 9.4733 15.1724 230 143 30 0.287
-7.0961 -7.4011 10.7082 230 132 30 0.255
12.2898 4.9842 17.7748 230 137 30 0.271
-0.5303 1.7550 15.8953 230 117 30 0.208
14.1978 6.8605 10.2856 230 143 30 0.288
3.0231 0.3281 7.7940 230 112 30 0.193
2.6927 9.1653 14.4462 230 148 30 0.304
5.5521 2.9744 8.9223 230 112 30 0.191
14.2219 -0.9227 9.5646 230 126 30 0.236
12.0292 10.7276 15.2895 230 132 30 0.252
8.5110 3.7663 17.0288 230 128 30 0.241
-8.5773 -0.8467 4.1686 230 150 30 0.311
-13.0205 -0.3048 15.0651 230 133 30 0.258
-6.8390 -7.9438 13.3010 230 128 30 0.241
-6.2878 5.3822 10.1806 230 144 30 0.292
-7.3828 -7.1460 13.7705 230 109 30 0.182
13.5256 6.5145 5.7537 230 115 30 0.200
14.6674 8.3340 14.1733 230 145 30 0.294
-11.6215 -0.5331 13.6144 230 117 30 0.208
7.2771 7.4894 11.6786 230 134 30 0.260
5.1076 1.9072 12.0752 230 133 30 0.257
9.5938 8.1960 16.7846 230 138 30 0.271
-17.2324 9.0115 13.6500 230 111 30 0.190
10.8565 3.6729 13.5711 230 134 30 0.260
-7.1836 -1.8110 6.2523 230 101 30 0.159
8.5534 -2.0013 10.1583 230 110 30 0.187
-14.9142 2.1850 9.6036 230 118 30 0.212
3.2720 8.6327 15.1961 230 138 30 0.271
2.8880 4.4112 14.2679 230 131 30 0.252
9.9142 7.6250 12.9722 230 99 30 0.153
9.9671 -0.0454 14.6529 230 122 30 0.223
-2.7547 -15.1454 16.2874 230 161 30 0.343
-14.9045 7.8371 14.6298 230 127 30 0.237
-12.5806 2.8102 10.5000 230 115 30 0.202
13.1474 9.7706 17.2576 230 139 30 0.275
15.6128 7.4322 7.8638 230 129 30 0.246
10.2267 10.5137 9.2300 230 136 30 0.266
-13.9400 -2.9901 7.6898 230 149 30 0.307
-10.2171 -2.1417 13.6269 230 110 30 0.187
-9.2272 -0.2509 12.6361 230 138 30 0.271
-6.1688 6.5773 14.4255 230 162 30 0.345
14.1897 7.6719 10.4549 230 130 30 0.248
14.0911 6.3733 17.5201 230 133 30 0.257
10.0994 9.4440 14.6046 230 153 30 0.320
-11.2921 -11.0122 17.4655 230 102 30 0.163
10.2602 -3.8346 16.4566 230 104 30 0.166
8.0348 8.9192 5.6500 230 139 30 0.276
3.6619 7.6530 15.2649 230 111 30 0.189
4.4089 -4.2704 6.2002 230 118 30 0.212
-4.0947 -2.2869 12.4319 230 132 30 0.253
-8.2491 -0.7962 6.0894 230 111 30 0.190
4.6416 6.9392 6.1370 230 151 30 0.314
14.5624 -1.2082 19.6483 230 123 30 0.227
14.3656 13.0070 12.4883 230 161 30 0.343
13.3730 -6.0190 21.3417 230 143 30 0.287
-11.1970 -5.1825 9.6562 230 138 30 0.272
13.8228 10.0753 16.9108 230 133 30 0.258
11.8216 8.2176 8.0479 230 127 30 0.237
-10.8760 -14.3686 15.5548 230 161 30 0.345
-7.3415 -5.0440 14.6359 230 131 30 0.251
8.4724 -2.7091 8.3793 230 99 30 0.151
-10.0509 4.6844 15.4534 230 108 30 0.179
7.9578 7.4986 14.1374 230 117 30 0.207
6.1136 4.5443 5.5778 230 116 30 0.206
18.1413 11.4980 20.3600 230 134 30 0.261
-9.6363 4.8392 7.5227 230 147 30 0.299
-15.0688 -13.6205 18.4844 230 161 30 0.343
7.9559 8.8911 7.9966 230 142 30 0.283
-6.8124 0.9427 13.6691 230 124 30 0.231
