ply
format ascii 1.0
comment Created by Open3D
element vertex 880
property double x
property double y
property double z
property double nx
property double ny
property double nz
property uchar red
property uchar green
property uchar blue
end_header
-11.9519 -12.6256 12.4524 -0 -0 -1 7 5 8
3.54395 3.25977 9.7611 -0 -0 -1 13 22 27
-5.47435 -16.1002 17.5982 -0 -0 -1 3 4 4
3.96945 2.32143 9.96962 -0 -0 -1 61 70 79
7.34011 -0.109336 10.1907 -0 -0 -1 16 25 32
-0.268438 2.22613 12.2997 -0 -0 -1 40 49 56
-3.98421 -2.23164 10.6307 -0 -0 -1 16 23 31
-10.1337 -13.8898 14.3966 -0 -0 -1 1 8 5
-9.68999 -13.0979 14.771 -0 -0 -1 2 3 0
-10.633 -10.9552 11.1166 -0 -0 -1 1 1 3
-0.889274 -3.61591 6.82172 -0 -0 -1 29 36 44
-8.86957 -14.2818 16.2029 0.871017 0.465042 0.158319 13 8 0
-9.73636 -13.7646 15.5065 0.239646 -0.23532 -0.94191 13 1 2
-2.1378 -16.9788 18.6382 -0 -0 -1 9 4 0
1.69168 0.336894 2.94791 -0 -0 -1 43 52 61
-7.92039 5.9065 15.2755 -0 -0 -1 53 62 71
0.563562 0.26334 8.71803 -0 -0 -1 36 45 52
-4.62862 -2.86261 10.9177 -0 -0 -1 0 0 0
-12.942 -12.3105 11.0513 -0 -0 -1 16 7 0
-5.90855 0.378606 12.7722 -0 -0 -1 36 40 49
-11.1808 6.89236 15.4513 -0 -0 -1 26 31 39
-1.58041 3.02106 12.0088 -0 -0 -1 18 22 31
-5.64487 -3.35468 5.7984 0.662809 0.499539 -0.557805 53 63 73
-12.7907 -12.2475 16.1914 -0 -0 -1 45 56 62
2.84851 5.47137 3.76102 -0 -0 -1 124 126 123
-10.6945 6.87245 14.1409 -0 -0 -1 179 181 178
-11.6589 -12.9708 12.8148 -0 -0 -1 7 9 3
-11.3649 -13.2158 13.2261 0.830806 0.431135 -0.351971 6 8 0
3.44507 0.421225 1.63518 -0 -0 -1 60 70 79
3.38401 0.594394 9.5474 -0 -0 -1 18 22 31
0.0249085 -2.8463 10.6737 -0 -0 -1 31 40 47
-11.2875 -13.1362 13.8224 -0 -0 -1 0 1 1
-11.6875 -12.8614 12.87 -0 -0 -1 3 4 8
-12.7185 1.12459 7.11833 -0 -0 -1 149 151 148
-5.76153 3.38837 6.63893 -0 -0 -1 101 103 100
-10.2551 -13.7775 14.282 -0 -0 -1 19 18 3
-2.12908 -18.749 20.7612 -0 -0 -1 14 1 0
-8.28786 -14.9334 16.0426 -0 -0 -1 1 0 4
-12.739 -11.5429 11.5405 -0 -0 -1 9 6 0
-5.13964 -17.582 19.1383 0.686829 0.472108 -0.552612 11 4 0
0.361776 0.792933 2.43718 -0 -0 -1 0 0 0
-11.2026 -10.6692 13.0489 -0 -0 -1 0 0 0
-10.4721 -11.9118 12.9364 -0 -0 -1 16 12 0
-8.65901 2.02982 13.6394 -0 -0 -1 36 45 52
-8.43026 2.31764 5.949 0.694128 0.711269 0.110829 41 50 59
-8.97496 -1.62482 14.2588 -0 -0 -1 39 43 52
-6.24414 3.0807 6.02383 -0 -0 -1 181 183 180
1.28506 3.39668 11.3709 -0 -0 -1 14 25 31
-4.83702 1.26953 7.23952 -0 -0 -1 57 65 76
-10.6621 -9.98723 9.43704 -0 -0 -1 0 1 0
-10.4282 -13.2925 14.6897 -0 -0 -1 6 8 1
-11.0229 -13.3853 13.5413 0.733543 -0.113394 -0.670117 7 10 0
-7.05699 -15.34 17.1399 -0 -0 -1 1 2 0
2.62449 1.7719 10.3691 -0 -0 -1 18 22 31
0.896365 0.0677463 6.54738 -0 -0 -1 16 25 32
-5.79141 6.65751 12.084 -0 -0 -1 148 150 147
-1.69631 -4.09478 6.66497 -0 -0 -1 56 66 76
1.15608 -1.29018 10.2331 -0 -0 -1 15 22 30
3.48763 -0.202242 7.69548 -0 -0 -1 16 25 32
-1.97666 -0.517269 12.9551 -0 -0 -1 16 20 29
-3.20399 -5.29489 10.1336 -0 -0 -1 56 66 76
-11.1337 -13.285 13.4095 0.820256 0.460259 -0.339619 7 3 6
-1.77685 -16.7906 18.5963 0.254854 -0.512043 -0.820281 0 4 0
-9.6582 7.92589 16.2602 -0 -0 -1 146 151 147
13.52 -4.75867 20.3276 -0 -0 -1 35 44 51
3.35098 5.32792 10.6626 -0 -0 -1 18 22 31
12.486 -5.39096 17.5653 -0 -0 -1 61 71 83
6.28794 -4.54015 7.32885 -0 -0 -1 60 69 86
-1.35699 6.06046 7.42552 -0 -0 -1 194 196 193
-4.85889 -7.21437 12.7963 -0 -0 -1 54 67 76
-10.2167 -13.585 15.1297 -0 -0 -1 40 30 22
-10.1453 -13.8354 14.4579 -0 -0 -1 3 4 5
-0.832634 -2.86487 10.4928 -0 -0 -1 31 40 47
4.86601 -2.36458 7.09727 -0 -0 -1 57 67 77
-1.3117 -16.9557 18.8901 -0 -0 -1 83 90 28
-3.63573 1.57845 7.90282 -0 -0 -1 55 65 74
-5.45335 -17.1805 18.6631 -0 -0 -1 7 8 0
-3.27163 -16.4506 18.1305 -0 -0 -1 0 2 3
2.45782 0.246573 7.24563 -0 -0 -1 43 52 61
-8.64686 -14.2887 16.2349 -0 -0 -1 98 105 67
-1.13545 5.94985 8.24883 -0 -0 -1 127 129 126
-4.27333 5.11018 6.9788 -0 -0 -1 201 203 200
-4.13816 -3.83711 10.8052 -0 -0 -1 55 63 74
4.12182 6.20263 8.39814 -0 -0 -1 92 94 91
-6.60267 7.55597 12.028 -0 -0 -1 76 78 75
-6.48546 -14.8327 17.1911 -0 -0 -1 83 89 29
-2.31559 -4.29234 6.39915 -0 -0 -1 56 66 76
-5.25552 -17.296 18.7853 -0 -0 -1 7 6 1
-8.27738 -1.02993 5.00068 -0 -0 -1 14 25 29
-9.74299 -6.10599 11.6066 -0 -0 -1 15 24 33
2.3968 -0.0807634 2.20353 -0 -0 -1 59 73 84
-9.01095 -14.1883 16.0661 0.486943 0.869047 -0.0874292 1 2 0
-7.70595 -4.71062 11.1479 -0 -0 -1 35 39 48
-10.6371 -10.7912 10.1647 -0 -0 -1 88 80 54
-6.75784 2.76922 6.63531 -0 -0 -1 178 182 181
-1.77718 -18.92 20.9389 -0.203042 -0.730887 -0.651596 9 11 0
-3.35534 4.41642 13.1483 -0 -0 -1 39 48 55
-9.24932 -12.937 14.5007 -0 -0 -1 0 0 0
-10.2581 -12.4147 12.4811 -0 -0 -1 7 3 6
-6.97916 -15.2117 17.5332 -0 -0 -1 23 10 0
-10.3394 -12.1924 12.1322 -0 -0 -1 6 8 0
-10.5241 -11.5218 11.3256 -0 -0 -1 1 0 1
-1.77226 -18.8947 20.909 -0.203042 -0.730887 -0.651596 9 11 0
-11.0879 1.75919 6.98717 -0 -0 -1 110 112 109
-12.9836 -11.3272 10.9642 -0 -0 -1 189 195 123
-10.2033 -12.5632 12.6559 -0 -0 -1 7 10 0
1.4334 0.303226 9.99983 -0 -0 -1 18 22 31
-3.90742 -3.63205 10.6941 -0 -0 -1 54 64 74
-5.42964 3.50291 7.365 -0 -0 -1 51 58 64
0.651894 5.66939 9.85362 -0 -0 -1 18 22 33
6.20976 8.08528 11.6683 -0 -0 -1 93 97 96
-1.62507 3.21139 12.3723 -0 -0 -1 16 27 33
-12.9463 -11.4379 11.0305 -0 -0 -1 6 9 0
8.85897 3.7582 15.6994 -0 -0 -1 60 70 82
-5.07792 6.46721 8.46084 -0 -0 -1 206 208 205
3.42054 0.0555814 8.67915 -0 -0 -1 52 64 73
0.906518 5.40467 5.22418 -0 -0 -1 155 157 154
2.08908 -0.0804085 3.12149 -0 -0 -1 62 71 82
-10.3133 -13.3372 14.9961 -0 -0 -1 7 3 6
-3.47662 1.32058 10.3686 -0 -0 -1 17 21 30
-11.9985 -12.2375 12.8111 -0 -0 -1 6 3 0
-1.12996 -1.29859 7.53965 0.717862 -0.517702 -0.465467 14 22 30
1.85448 5.06185 4.47646 -0 -0 -1 155 157 154
2.18263 0.366029 3.49443 -0 -0 -1 16 25 32
11.3132 9.45696 10.4319 -0 -0 -1 86 88 85
-1.11062 -0.259478 11.5081 -0 -0 -1 18 22 31
-6.70053 3.1589 6.48924 -0 -0 -1 179 181 178
-11.0701 -12.8499 13.9334 0.867432 0.358343 0.345184 6 8 0
-3.70896 3.91815 6.99145 -0 -0 -1 97 99 96
-0.852973 -2.17446 7.27351 -0 -0 -1 31 40 47
-11.1408 -12.8239 14.084 0.867432 0.358343 0.345184 5 1 2
1.38665 -1.35893 8.57926 -0 -0 -1 55 63 74
-1.09257 -3.34625 11.4098 -0 -0 -1 31 40 47
-9.08169 -14.1437 15.9955 0.7371 0.552904 -0.388562 11 13 6
-7.47249 -14.9923 16.7596 -0 -0 -1 0 2 0
8.5867 7.51133 8.11641 -0 -0 -1 87 89 86
13.5211 -0.299169 8.82285 -0 -0 -1 140 142 139
1.94539 -1.74928 8.38984 -0 -0 -1 33 37 44
2.41985 5.48779 4.95919 -0 -0 -1 155 157 154
-3.61144 -6.37432 9.78084 -0 -0 -1 32 42 51
5.96898 7.22425 10.4328 -0 -0 -1 59 66 72
-5.99166 3.92851 4.81862 -0 -0 -1 121 123 120
1.42996 -0.0134352 10.6207 -0 -0 -1 36 46 52
5.39225 6.24441 8.79285 -0 -0 -1 63 65 62
-8.521 -14.4971 16.521 -0 -0 -1 3 5 0
-1.16938 -1.45322 7.72756 -0 -0 -1 62 71 80
-2.46117 -16.8792 18.6213 -0 -0 -1 63 63 0
-0.0802737 3.91927 2.71426 -0 -0 -1 81 83 80
-8.76354 -14.8199 15.781 0.570163 0.80485 -0.16471 21 18 0
2.33871 4.32615 11.0427 -0 -0 -1 57 67 79
-1.48168 6.71639 8.18764 -0 -0 -1 195 197 194
-8.1012 -14.4474 16.7511 -0 -0 -1 7 2 1
-1.27455 -16.6441 18.4732 -0 -0 -1 4 4 1
-4.20061 -2.37351 11.702 -0 -0 -1 16 22 28
-7.50652 -14.6937 16.4075 -0 -0 -1 0 0 5
-13.2394 -12.1864 10.3214 -0 -0 -1 3 1 2
3.57394 6.32675 10.3015 -0 -0 -1 12 20 27
0.0956787 7.0346 12.6117 -0 -0 -1 46 57 64
-11.3072 -13.1855 13.3994 -0 -0 -1 4 3 2
0.686584 -1.16599 8.1901 -0.217206 0.348845 -0.911663 18 22 31
-12.8026 -11.8258 11.2534 -0 -0 -1 0 0 0
-3.57933 1.86741 14.7894 -0 -0 -1 18 22 31
-10.9172 -13.3524 13.657 0.557666 0.510585 -0.654455 3 4 2
3.63879 1.96689 9.71772 -0 -0 -1 60 71 81
-1.49095 6.75155 8.65319 -0 -0 -1 199 201 198
-7.17326 -0.490921 13.4407 -0 -0 -1 33 40 48
1.09379 -5.66976 8.84643 -0 -0 -1 32 36 47
11.4584 10.662 14.6134 -0 -0 -1 132 134 131
0.049127 5.65449 10.304 -0 -0 -1 47 56 65
-9.12358 -14.6002 15.4083 -0 -0 -1 1 1 13
-10.7301 -12.9943 14.3058 -0 -0 -1 2 4 0
-1.00919 -2.38597 7.23684 0.267592 0.130084 -0.954711 30 40 49
-7.33958 5.3309 14.2607 -0 -0 -1 53 61 72
-0.95961 -0.453416 8.11997 -0 -0 -1 16 23 31
-6.05532 7.1652 10.0734 -0 -0 -1 199 201 198
-7.88017 -15.2426 16.431 -0 -0 -1 0 0 4
-4.53502 -0.35089 6.9018 -0 -0 -1 36 40 49
-10.3932 -12.0405 12.0194 -0 -0 -1 28 28 0
6.02554 7.71149 10.9183 -0 -0 -1 62 64 60
-10.729 -10.3516 10.5167 -0 -0 -1 2 1 0
1.59126 -0.502585 6.64289 -0 -0 -1 61 71 81
-10.2173 -3.13009 7.86262 -0 -0 -1 8 13 19
-1.35795 6.43219 7.96611 -0 -0 -1 194 196 193
-10.8011 -10.4412 9.14899 -0 -0 -1 16 7 0
0.321851 -0.447148 5.96836 -0 -0 -1 60 72 84
-7.66247 -15.3669 16.5563 -0 -0 -1 0 3 1
-4.65648 -16.4287 18.0029 -0 -0 -1 17 14 8
-7.51908 -14.299 16.5358 -0 -0 -1 0 0 2
-6.73818 -15.7637 17.1417 -0 -0 -1 3 2 5
-6.52598 -15.835 17.2522 -0 -0 -1 1 1 6
-6.4362 -3.8264 4.59549 -0 -0 -1 48 56 65
-2.68747 -17.0246 18.9336 -0 -0 -1 2 1 0
0.373473 -2.1678 5.71832 -0 -0 -1 35 39 48
-4.60736 2.869 13.0525 -0 -0 -1 57 65 76
-1.45955 -16.6897 18.5019 -0.0854272 -0.746321 -0.660081 84 94 49
-1.82086 2.90943 12.204 -0 -0 -1 16 23 31
1.66085 0.44739 10.653 -0 -0 -1 16 23 31
3.71728 0.198749 9.34595 -0 -0 -1 54 64 73
-1.71841 3.47023 2.61206 -0 -0 -1 72 74 71
-3.49027 -18.2268 20.1341 -0 -0 -1 2 1 0
-10.4377 -13.2096 14.731 -0 -0 -1 2 6 2
-4.29433 6.3717 7.2711 -0 -0 -1 114 116 113
-11.2891 1.6186 8.37943 -0 -0 -1 168 173 177
-11.9999 9.15219 13.5193 -0 -0 -1 68 70 67
1.0517 -0.212986 10.3672 -0 -0 -1 16 23 31
-1.10749 5.56677 9.60929 -0 -0 -1 165 167 164
-1.52056 -18.8257 20.7639 -0 -0 -1 14 23 0
-9.29295 6.87434 13.465 -0 -0 -1 102 104 101
7.34209 8.44631 12.0374 -0 -0 -1 95 98 96
0.806726 0.49507 10.8986 -0 -0 -1 36 45 52
-9.57248 -13.7543 15.5329 0.140715 0.230394 -0.96287 114 122 17
0.946678 -2.69604 10.0611 -0 -0 -1 30 41 47
6.52674 5.5667 10.9031 -0 -0 -1 44 53 60
-5.06865 -17.5544 19.2501 0.686829 0.472108 -0.552612 0 3 0
-9.40049 -13.8559 15.7593 -0 -0 -1 11 7 6
7.67535 -3.19804 9.92376 -0 -0 -1 31 40 45
2.09745 -0.520194 3.12429 -0 -0 -1 61 72 82
8.68234 7.66299 5.90295 -0 -0 -1 180 182 179
-3.53976 -5.21182 10.8228 -0 -0 -1 36 45 52
0.641483 7.53294 9.30831 -0 -0 -1 193 195 192
3.36066 6.85262 11.3572 -0 -0 -1 15 23 30
-9.09902 -14.0223 16.1352 -0 -0 -1 2 3 5
-11.862 -12.3285 13.115 -0 -0 -1 0 2 0
7.3555 -1.40786 10.9764 -0 -0 -1 16 25 32
-2.65844 6.27065 8.54625 -0 -0 -1 112 114 111
-11.1117 -12.8791 14.0683 0.867432 0.358343 0.345184 193 193 89
-9.09916 7.39675 14.9296 -0 -0 -1 100 105 101
-16.4533 7.21643 14.3101 -0 -0 -1 180 182 179
8.35832 -5.48256 10.6173 -0 -0 -1 43 52 61
-9.13127 7.37607 14.9468 -0 -0 -1 100 105 101
4.21577 3.123 10.45 -0 -0 -1 57 69 81
-0.219822 -0.920135 8.20228 -0 -0 -1 18 22 31
-1.07545 -2.51575 7.93447 -0 -0 -1 58 71 80
-1.21502 7.27866 12.9601 -0 -0 -1 90 97 98
0.447543 0.774611 1.96467 -0 -0 -1 0 0 0
-5.66302 3.21898 6.19976 -0 -0 -1 144 146 143
-8.50892 2.41755 5.80052 -0 -0 -1 40 48 53
0.00123528 7.40109 12.8326 -0 -0 -1 91 98 106
-2.69935 -16.5176 18.2344 -0 -0 -1 3 1 1
-3.48555 -2.14448 11.1229 -0 -0 -1 60 68 79
3.94656 5.43915 10.1234 -0 -0 -1 57 67 77
-8.55283 -15.0285 16.0425 -0 -0 -1 4 3 0
-11.8311 -12.7659 12.6135 -0 -0 -1 1 0 1
6.05678 -1.14679 7.52644 -0 -0 -1 61 73 85
-4.21982 -2.03932 11.9182 -0 -0 -1 54 64 74
4.5611 -0.0786083 8.55801 -0 -0 -1 53 63 73
-10.3951 -13.6537 14.1294 -0 -0 -1 1 3 0
-0.296191 4.54499 4.67346 -0 -0 -1 155 157 154
4.91248 -1.67642 8.39166 -0 -0 -1 61 71 83
-8.67644 -5.89332 9.57301 -0 -0 -1 18 22 31
-9.60081 -14.2847 14.9567 -0 -0 -1 11 7 6
-10.315 -13.5276 14.8281 -0 -0 -1 1 3 2
-2.46716 -4.17263 10.4585 -0 -0 -1 35 44 51
-12.1239 -0.255254 14.1533 -0 -0 -1 39 43 52
15.4864 8.94048 18.7728 -0 -0 -1 99 101 98
8.07561 -2.36681 10.5811 -0 -0 -1 55 72 80
-7.11538 -15.588 16.9426 -0 -0 -1 5 0 9
-5.8575 7.78845 13.8233 -0 -0 -1 92 94 91
-12.4608 -11.8375 12.1797 -0 -0 -1 3 0 0
-5.67529 -3.62734 5.66296 -0.789131 0.610894 0.0638851 18 22 31
-7.6744 -15.1428 17.5197 -0 -0 -1 128 135 45
-7.63067 4.78533 9.86142 -0 -0 -1 147 152 147
-4.05303 2.91146 12.2368 -0 -0 -1 12 21 28
-9.6343 7.03679 14.5786 -0 -0 -1 99 101 96
-2.95532 -2.79677 9.43843 -0 -0 -1 60 70 82
-10.5634 -13.1349 14.521 -0 -0 -1 1 3 11
-8.90324 -14.2239 16.218 0.511656 0.858549 -0.0332034 102 114 49
-4.2393 -2.64871 6.54197 -0 -0 -1 55 63 74
12.5325 5.35723 7.20972 -0 -0 -1 34 30 21
3.94875 5.53079 5.54473 -0 -0 -1 185 187 184
-12.2534 -12.5333 12.0796 -0 -0 -1 0 1 5
-4.70302 -17.4437 19.1391 -0 -0 -1 0 2 3
-9.19393 -13.7149 15.1954 -0 -0 -1 1 1 2
-6.74061 -2.75483 5.53458 -0 -0 -1 55 63 74
-9.37367 -14.4288 15.1872 -0 -0 -1 0 1 2
5.35385 5.5766 15.5684 -0 -0 -1 57 65 76
-1.91811 6.80843 12.7695 -0 -0 -1 36 45 50
-7.08504 -14.9056 17.2294 -0 -0 -1 10 5 1
-4.32128 -1.3722 6.68809 -0 -0 -1 55 63 74
-3.73974 -17.945 19.7059 -0 -0 -1 0 2 3
-11.9559 -12.2152 12.9911 0.863457 0.433474 -0.257959 36 34 10
-1.55326 1.78755 11.5405 -0 -0 -1 18 22 31
14.1326 7.10857 9.54554 -0 -0 -1 113 114 109
-2.76393 -3.52888 6.42061 -0 -0 -1 35 44 51
10.1318 -4.83236 13.2706 -0 -0 -1 0 0 0
-3.64083 -3.01387 6.56237 -0 -0 -1 55 63 74
-1.45033 1.70182 11.8108 -0 -0 -1 17 21 30
-12.4556 -11.938 12.0751 -0 -0 -1 2 1 0
-12.4192 -12.3994 11.8089 -0 -0 -1 88 80 54
6.5359 -0.873918 8.61808 -0 -0 -1 15 24 31
-11.2687 8.02203 16.6506 -0 -0 -1 149 152 149
1.99095 -1.43075 9.35342 -0 -0 -1 55 64 73
-0.0697765 5.71834 9.74233 -0 -0 -1 119 124 120
-6.39561 -2.77278 5.36258 -0 -0 -1 55 63 74
-10.0294 -13.5062 15.1491 0.563738 -0.0573311 -0.823962 1 1 6
3.78831 2.07543 9.84627 -0 -0 -1 60 70 80
-2.43014 4.04464 5.63597 -0 -0 -1 113 115 112
4.21956 6.36995 9.35588 -0 -0 -1 121 124 119
-2.53677 -3.51594 6.43414 -0 -0 -1 58 67 76
-12.8014 -11.4999 11.3891 -0.171183 -0.964041 -0.203274 34 35 0
-6.26175 -15.9244 17.3346 -0 -0 -1 51 54 25
16.9805 9.83129 17.5459 -0 -0 -1 212 214 211
-1.59588 -16.6078 18.481 -0.328252 -0.706288 -0.627222 1 0 0
5.87746 3.11311 8.64644 -0 -0 -1 35 40 46
-0.339436 6.25359 6.99975 -0 -0 -1 117 119 116
-11.4594 -13.1026 13.1415 -0 -0 -1 28 28 0
-9.46972 -15.8369 17.6474 -0 -0 -1 0 1 1
-1.07011 -3.09808 10.6848 -0 -0 -1 31 38 44
-8.04478 -14.6129 16.6185 -0 -0 -1 3 2 0
1.49221 0.554063 2.92878 -0 -0 -1 43 52 61
3.30118 5.7606 5.37669 -0 -0 -1 183 185 182
-3.06667 2.44318 12.9619 -0 -0 -1 18 22 31
2.10455 5.11608 3.58557 -0 -0 -1 155 157 154
-11.3786 -12.756 13.804 -0 -0 -1 206 206 145
6.24214 8.19032 11.851 -0 -0 -1 92 97 100
-11.0354 -13.3514 13.5571 0.733543 -0.113394 -0.670117 65 72 27
-2.98153 3.36517 3.18309 -0 -0 -1 95 97 94
5.08293 1.29238 8.54602 -0 -0 -1 35 39 48
4.17242 6.09957 8.25012 -0 -0 -1 92 94 91
6.25171 7.50815 11.4294 -0 -0 -1 56 67 76
0.747917 5.14818 4.94962 -0 -0 -1 155 157 154
0.851394 5.13924 5.86948 -0 -0 -1 138 140 137
-5.17959 -1.36879 11.6846 -0 -0 -1 0 0 0
-7.11752 7.73721 12.2676 -0 -0 -1 70 72 69
-2.53077 -3.54078 6.47142 -0 -0 -1 56 66 76
-5.57821 -6.26282 9.52202 -0 -0 -1 34 43 50
-3.80585 -18.1588 19.462 -0 -0 -1 0 1 3
-0.159969 6.81737 10.4855 -0 -0 -1 127 129 126
-5.61563 -1.30164 12.2885 -0 -0 -1 55 63 74
-1.9915 -18.8041 20.7512 -0 -0 -1 197 209 67
0.361017 -0.418057 6.23601 -0 -0 -1 59 72 83
-0.261731 7.10958 12.3321 -0 -0 -1 170 173 173
-0.620302 6.11387 6.51713 -0 -0 -1 113 115 112
-1.84332 1.93943 8.37665 -0 -0 -1 18 22 31
-2.58255 -3.46988 6.70045 -0 -0 -1 34 45 51
-6.97352 2.87789 6.65493 -0 -0 -1 53 60 68
-5.48836 6.35126 10.1027 -0 -0 -1 149 151 148
-0.778451 -5.8427 9.31469 -0 -0 -1 28 37 42
-10.3869 -13.489 14.4105 -0 -0 -1 0 1 0
1.70032 3.0471 11.2102 -0 -0 -1 18 22 31
-10.2148 -12.5253 12.6723 -0 -0 -1 65 72 27
-4.16006 -2.6534 6.45159 -0.254745 -0.951225 -0.174002 54 64 74
1.15708 -2.64954 9.57473 -0 -0 -1 31 40 47
2.37584 0.0874833 1.10434 -0 -0 -1 0 0 0
-8.56667 -14.4233 16.5521 -0 -0 -1 116 118 66
-10.7573 -10.544 11.0476 -0 -0 -1 204 212 69
1.64298 6.36696 11.3606 -0 -0 -1 12 19 27
-1.63793 3.27906 2.3935 -0 -0 -1 116 118 115
-9.81023 -13.6496 15.4347 -0.244308 -0.584961 -0.773392 132 134 11
-8.18344 -14.6542 16.8569 -0 -0 -1 56 62 29
3.28018 1.14506 8.55329 -0 -0 -1 44 54 63
-5.60083 -3.52631 5.61667 -0.789131 0.610894 0.0638851 17 22 30
-6.62146 -14.1814 16.5459 -0 -0 -1 2 6 2
-6.91638 -15.3008 17.7969 -0 -0 -1 130 128 86
-9.43355 -13.7043 14.2974 -0 -0 -1 3 4 5
-2.62429 5.85828 9.38404 -0 -0 -1 127 129 126
-12.0591 -12.7073 12.3797 -0 -0 -1 158 162 24
3.42421 5.36506 10.7835 -0 -0 -1 18 22 31
2.55603 5.97264 10.8707 -0 -0 -1 18 22 31
-0.564719 7.03621 12.0868 -0 -0 -1 163 168 164
3.27772 3.13725 10.2552 -0 -0 -1 18 22 31
0.839236 4.56737 10.0595 -0 -0 -1 12 22 30
9.72731 -0.589448 14.4674 -0 -0 -1 44 54 63
-7.60773 -7.31871 11.1072 -0 -0 -1 45 55 64
-3.60548 -2.06326 6.97619 -0 -0 -1 18 22 31
-12.6104 -11.7106 11.8512 -0 -0 -1 40 48 5
0.621062 -0.17373 5.92482 -0 -0 -1 15 24 31
-0.679867 -1.3629 9.64568 -0 -0 -1 17 22 31
6.30443 -0.942454 8.07943 -0 -0 -1 60 73 82
-6.48573 3.05904 6.86368 -0 -0 -1 33 37 47
-5.76503 6.58496 9.92852 -0 -0 -1 72 74 71
-2.10582 0.590377 11.8457 -0 -0 -1 41 50 59
-4.46133 1.67107 12.5894 -0 -0 -1 57 65 76
-12.0729 -12.3136 12.4662 -0 -0 -1 1 1 3
-12.3012 -12.0522 12.5104 -0 -0 -1 204 212 69
-11.3945 -0.0754052 13.3481 -0 -0 -1 39 43 52
-7.55545 1.02087 13.5258 -0 -0 -1 54 64 74
1.67397 -0.0614753 2.81345 -0 -0 -1 57 71 82
-10.4819 -11.6885 11.6532 -0 -0 -1 3 4 8
0.00192582 1.6122 11.6293 -0 -0 -1 36 45 52
-9.72407 -13.641 15.4008 -0.244308 -0.584961 -0.773392 148 157 67
-1.62122 4.31358 5.57403 -0 -0 -1 193 195 192
1.41845 0.302394 10.234 -0 -0 -1 18 22 31
0.89845 2.96387 9.46192 -0 -0 -1 58 68 77
-1.47619 -5.04971 9.73329 -0 -0 -1 56 66 76
-3.5776 -16.47 18.0092 -0 -0 -1 9 9 0
-1.06925 -3.77359 7.03378 -0 -0 -1 56 66 76
7.96838 5.23822 6.06981 -0 -0 -1 0 0 0
-6.08484 -2.74218 12.0218 -0 -0 -1 18 22 31
-5.12985 -2.89605 5.87167 -0 -0 -1 35 39 48
0.158323 0.788278 2.35595 -0 -0 -1 0 0 0
-6.31773 -2.90461 5.55487 -0 -0 -1 55 63 74
0.796834 -0.381965 8.95317 -0 -0 -1 18 22 31
-3.12956 -5.04502 9.89012 -0 -0 -1 57 67 75
-10.3396 -2.45658 9.84226 -0 -0 -1 11 20 27
-0.970727 -1.27055 7.82734 -0 -0 -1 8 11 15
-1.33934 4.91282 7.8515 -0 -0 -1 128 130 127
-3.39697 -5.21188 10.3136 -0 -0 -1 57 67 75
-4.69801 -2.96417 11.2067 -0 -0 -1 0 0 0
-3.40909 -5.38564 12.2911 -0 -0 -1 35 44 51
-2.46414 -3.21509 6.53104 -0 -0 -1 35 44 51
1.69885 -0.359731 2.79812 -0 -0 -1 57 71 82
1.19667 -0.275289 8.38046 -0 -0 -1 37 46 53
-0.962693 -0.438072 8.0855 -0.384054 -0.855786 -0.346602 18 22 31
-1.37192 -1.87614 11.0008 -0 -0 -1 60 70 79
14.0217 8.52609 14.8662 -0 -0 -1 158 160 157
-9.87272 -13.4738 15.254 0.560822 -0.365888 -0.742701 11 2 3
-10.0108 -4.03305 7.65822 -0 -0 -1 36 43 49
-9.44326 7.07707 13.9148 -0 -0 -1 103 105 102
11.148 -1.11209 15.7771 -0 -0 -1 0 0 0
4.42354 0.45765 8.8267 -0 -0 -1 62 72 81
1.34922 6.79606 11.6347 -0 -0 -1 15 19 26
2.88952 -3.8025 6.26668 -0 -0 -1 16 25 32
-6.35093 -16.1002 17.5131 -0 -0 -1 51 54 25
-4.03695 -4.23854 5.75394 -0 -0 -1 44 55 61
-0.431779 6.28981 6.46619 -0 -0 -1 155 157 154
1.53054 -1.68942 10.3453 -0 -0 -1 55 63 74
2.17714 -0.967771 6.61698 -0 -0 -1 58 70 82
-4.75147 7.41161 13.006 -0 -0 -1 93 95 92
-9.29053 9.29311 17.0823 -0 -0 -1 148 150 147
1.83711 -1.57955 5.88191 -0 -0 -1 33 40 46
7.47503 9.1557 14.4249 -0 -0 -1 57 67 77
-9.76076 -12.9045 14.6081 -0 -0 -1 13 3 2
7.44144 8.47196 12.2098 -0 -0 -1 51 64 69
3.49565 0.504458 9.52474 -0 -0 -1 17 21 30
0.995585 -1.21269 10.4782 -0 -0 -1 18 22 31
1.66559 -4.04638 6.94149 -0 -0 -1 46 56 65
-1.85886 -16.7158 18.5241 -0 -0 -1 7 5 5
-1.08314 -0.533128 11.7819 -0 -0 -1 16 23 31
-11.8344 -10.9351 10.3932 -0 -0 -1 0 2 1
11.6731 -0.988322 16.2857 -0 -0 -1 0 0 0
-3.5976 0.921949 7.69221 -0 -0 -1 57 65 76
-11.8693 -4.59655 11.5861 -0 -0 -1 55 64 73
-7.44381 0.722855 12.943 -0 -0 -1 54 64 73
-4.23638 -0.0181673 7.23682 -0 -0 -1 36 40 49
1.20014 -1.53123 8.05517 -0 -0 -1 55 63 74
-2.49589 -16.433 18.165 -0 -0 -1 4 3 4
5.99783 7.21716 10.4219 -0 -0 -1 59 66 72
-7.82988 2.6204 6.10582 -0.0611866 0.92007 -0.386946 47 57 59
17.489 5.67899 18.5971 -0 -0 -1 18 24 32
0.37758 7.04759 11.8585 -0 -0 -1 121 123 120
5.07595 1.28546 8.69025 -0 -0 -1 35 39 48
8.36485 4.94199 4.06184 -0 -0 -1 90 91 86
-7.39388 -1.00403 12.639 -0 -0 -1 39 43 52
-10.3406 -12.197 12.3556 -0 -0 -1 4 3 2
10.1769 4.90275 16.7052 -0 -0 -1 59 68 78
1.39824 -0.20155 9.62 -0 -0 -1 37 46 53
-12.6315 -11.9076 11.4351 -0 -0 -1 0 0 1
-8.61221 -14.8919 15.7771 0.396843 0.852671 -0.339805 11 8 0
-1.92408 7.23372 13.4023 -0 -0 -1 36 45 52
1.6506 -0.215551 10.6041 -0 -0 -1 37 46 53
8.16791 4.79588 4.15375 -0 -0 -1 20 19 15
3.27601 3.06384 10.3819 -0 -0 -1 16 23 29
0.935615 -1.29008 8.3611 -0 -0 -1 18 23 29
-5.30298 -4.22033 5.70767 -0 -0 -1 45 56 62
-8.85897 -14.2627 16.0885 0.511656 0.858549 -0.0332034 12 11 0
2.58584 -0.747051 7.05666 -0 -0 -1 57 70 79
-9.34257 -4.18536 11.5863 -0 -0 -1 55 63 74
-12.4804 1.87416 14.5521 -0 -0 -1 50 59 68
5.51047 2.2179 8.53742 -0 -0 -1 57 69 81
-4.41155 -1.65262 6.624 -0 -0 -1 16 22 30
-4.91461 -2.81282 11.1798 -0 -0 -1 18 22 31
-8.69973 0.2136 13.2771 -0 -0 -1 55 63 74
-5.20115 2.15232 12.6138 -0 -0 -1 57 65 76
3.62105 3.37091 10.491 -0 -0 -1 15 23 30
1.10856 -1.72562 5.49406 -0 -0 -1 53 61 72
-2.43899 -2.59674 11.0361 -0 -0 -1 60 70 82
10.3064 7.28465 8.67649 -0 -0 -1 202 204 201
-4.87108 1.34928 7.63692 -0 -0 -1 57 65 76
-0.095777 -1.08648 11.1496 -0 -0 -1 18 22 31
15.1406 12.0113 13.4005 -0 -0 -1 120 122 119
-6.30167 -9.91625 13.5224 -0 -0 -1 57 70 78
-4.92691 7.04505 13.4324 -0 -0 -1 150 152 147
18.1275 4.02786 11.8367 -0 -0 -1 42 40 32
1.45388 -0.0211888 10.5698 -0 -0 -1 37 46 53
2.72381 3.37509 15.3295 -0 -0 -1 18 22 31
-8.6565 -14.8224 15.8998 0.396843 0.852671 -0.339805 7 1 0
-16.0683 0.489899 14.529 -0 -0 -1 130 136 134
-5.29662 -17.2095 18.8325 -0 -0 -1 7 4 0
-2.38301 -18.8015 20.734 -0 -0 -1 5 2 3
-1.5271 -2.07219 11.0223 -0 -0 -1 60 70 82
-1.72692 -16.8434 18.6448 -0 -0 -1 0 6 0
3.39437 1.76933 10.6634 -0 -0 -1 18 22 31
-11.942 1.69836 9.14691 -0 -0 -1 27 30 35
7.36276 -0.154557 10.4376 -0 -0 -1 15 24 31
-5.41903 3.90311 7.22957 -0 -0 -1 149 151 148
2.39028 6.63308 7.72053 -0 -0 -1 177 179 176
-2.36429 -16.5876 18.1043 0.834702 -0.549835 -0.0308739 15 1 1
-10.1855 -12.6329 12.8792 -0 -0 -1 0 0 0
-4.45372 -0.80065 7.12121 -0 -0 -1 55 64 73
-2.46324 -16.5158 18.2916 -0 -0 -1 4 3 4
-5.86368 -4.90981 10.7396 -0 -0 -1 55 63 74
-5.33747 -17.512 19.2493 -0 -0 -1 3 8 0
-0.847358 5.34791 9.33205 -0 -0 -1 166 168 165
-12.1542 8.26164 17.3875 -0 -0 -1 180 182 179
-4.1166 -17.7568 19.5189 -0 -0 -1 160 159 93
1.53155 3.52433 10.8574 -0 -0 -1 57 67 79
1.5909 0.317114 10.4209 -0 -0 -1 15 19 28
-2.80856 -6.77657 11.0721 -0 -0 -1 56 66 76
4.64636 7.3765 12.3438 -0 -0 -1 124 128 129
-10.0601 7.69534 15.7574 -0 -0 -1 105 107 102
-3.3199 6.54242 13.8861 -0 -0 -1 36 45 52
-11.2005 8.57633 16.2796 -0 -0 -1 0 0 0
-9.78011 -13.571 15.3766 -0.111652 -0.722658 -0.682128 130 134 10
-1.08167 -0.272238 11.2924 -0 -0 -1 18 22 31
-9.15929 -14.2015 15.5431 -0 -0 -1 1 0 4
-6.71437 6.699 9.31273 -0 -0 -1 69 71 68
-4.66393 6.84499 13.5397 -0 -0 -1 46 54 59
4.46241 -0.166545 9.92581 -0 -0 -1 53 63 73
9.84069 -6.71318 12.4231 -0 -0 -1 0 1 0
-0.923535 3.64521 3.43426 -0 -0 -1 155 157 154
-2.98243 -2.6105 6.70348 -0 -0 -1 55 63 74
-4.06476 3.46259 4.97018 -0 -0 -1 203 205 202
2.13617 -2.0397 9.97272 -0 -0 -1 55 63 74
2.12447 0.228813 0.989702 0.636195 0.208358 -0.742861 16 25 32
-1.56549 1.08773 8.27512 -0 -0 -1 13 22 29
4.24854 2.53853 10.0014 -0 -0 -1 57 69 81
-5.59807 6.43998 8.43849 -0 -0 -1 203 205 202
14.7586 8.74899 15.1782 -0 -0 -1 158 160 157
-0.204344 -2.95764 7.02587 -0 -0 -1 46 56 65
10.8934 10.2839 13.2422 -0 -0 -1 168 170 167
15.6632 7.85501 10.891 -0 -0 -1 35 32 25
2.30066 6.61178 7.86223 -0 -0 -1 177 179 176
-1.51687 -18.8001 20.7373 -0 -0 -1 14 22 0
-9.89467 -13.3173 15.0273 -0 -0 -1 3 1 1
-10.6073 -9.35516 9.06715 -0 -0 -1 189 195 123
-6.16832 4.05693 8.00871 -0 -0 -1 102 104 101
-1.0743 -16.7004 18.4971 -0 -0 -1 19 26 2
4.88941 0.937642 9.20277 -0 -0 -1 61 71 83
-5.39984 6.37573 9.58568 -0 -0 -1 72 74 71
-1.99528 -18.8687 20.9673 -0 -0 -1 14 5 1
-6.56742 -15.0125 16.8523 -0 -0 -1 0 1 5
-4.22049 3.02829 13.2803 -0 -0 -1 18 22 31
-5.19801 -4.42536 10.961 -0 -0 -1 55 63 74
-3.8749 -3.48846 11.0061 -0 -0 -1 0 0 0
-5.63227 6.54229 9.08102 -0 -0 -1 205 207 204
-10.7338 7.18352 15.0115 -0 -0 -1 180 182 179
-15.0843 6.93248 15.8507 -0 -0 -1 207 213 210
-1.32083 -0.103692 11.8637 -0 -0 -1 15 23 30
-8.3948 -14.8778 15.9886 0.367442 -0.179798 -0.912501 10 1 0
-11.3406 -4.4425 11.1144 -0 -0 -1 54 64 74
-5.48927 6.58123 8.80359 -0 -0 -1 54 56 53
-1.6771 3.22152 12.4375 -0 -0 -1 16 22 31
-11.1633 1.69296 6.689 -0 -0 -1 173 175 172
-3.27057 -0.643379 7.79736 -0 -0 -1 55 63 74
-8.37731 -1.10108 5.33533 -0 -0 -1 15 24 29
10.6181 6.37256 6.36777 -0 -0 -1 120 122 117
4.53031 7.11654 9.73735 -0 -0 -1 93 95 92
-3.12747 -1.36046 7.04043 -0 -0 -1 54 62 73
-2.29288 -16.4791 18.1021 0.834702 -0.549835 -0.0308739 200 202 135
11.8222 -10.1144 15.5244 -0 -0 -1 43 52 61
-2.29719 -16.487 18.126 0.834702 -0.549835 -0.0308739 200 202 135
5.77491 -0.805162 4.46757 -0 -0 -1 35 44 51
0.514834 2.1923 7.32081 -0 -0 -1 58 68 80
-3.68237 -3.39731 10.7707 -0 -0 -1 16 23 29
-4.15151 1.68251 12.9202 -0 -0 -1 16 20 29
-8.86529 -5.29671 10.5609 -0 -0 -1 55 64 73
-2.94325 -16.4522 18.2372 -0 -0 -1 2 1 0
-9.8895 -12.9396 14.5012 -0 -0 -1 0 0 12
-3.00785 -1.64696 7.30823 -0 -0 -1 8 12 16
-1.13375 -1.54853 11.1188 -0 -0 -1 18 22 31
-8.9112 7.4792 15.9334 -0 -0 -1 30 40 45
-3.40081 1.96915 9.04084 -0 -0 -1 18 22 31
-0.343089 4.43826 4.39988 -0 -0 -1 155 157 154
3.45808 3.21448 10.5085 -0 -0 -1 18 22 31
0.882349 -1.09026 8.58594 -0 -0 -1 18 22 31
-5.10493 6.47674 8.81329 -0 -0 -1 205 207 204
-4.48954 -1.54069 7.06646 -0 -0 -1 53 61 72
-1.10576 -0.344473 8.01292 -0.553314 -0.819749 0.147834 18 22 31
1.02029 -5.65951 8.93992 -0 -0 -1 32 36 47
-0.267809 4.65876 4.96762 -0 -0 -1 114 116 113
-12.4752 -3.13209 11.8759 -0 -0 -1 18 22 31
3.95521 0.0976399 9.27062 -0 -0 -1 53 63 73
-4.48637 6.9622 14.1012 -0 -0 -1 36 45 52
-4.08781 -2.65527 6.35603 -0 -0 -1 55 63 74
-0.380108 6.29477 7.03745 -0 -0 -1 117 119 116
3.09415 2.87567 10.1785 -0 -0 -1 9 11 16
-9.39081 6.03165 14.6955 -0 -0 -1 34 38 47
6.89013 -3.29262 8.68601 -0 -0 -1 53 61 72
-0.939318 -2.2927 7.26913 0.807481 -0.587816 -0.0494653 31 40 45
-6.10371 -4.171 11.4288 -0 -0 -1 55 64 73
-7.09022 0.523559 6.48086 -0 -0 -1 50 59 68
-10.1592 -4.67702 10.6434 -0 -0 -1 55 63 74
0.929253 -2.30294 8.31809 -0 -0 -1 15 20 23
8.19168 -0.77752 11.5354 -0 -0 -1 43 52 61
-0.774345 -0.439602 11.0912 -0 -0 -1 18 22 31
5.99663 -2.30787 7.08426 -0 -0 -1 35 40 46
-10.6129 -9.48641 9.14569 -0 -0 -1 6 9 0
-10.0224 -13.4745 15.1516 0.563738 -0.0573311 -0.823962 1 1 2
-1.65271 4.19161 9.07517 -0 -0 -1 94 99 95
-8.80101 -14.7567 15.6886 -0 -0 -1 118 117 68
-10.4113 -12.0991 13.2381 0.487117 0.339817 -0.804513 0 0 0
-10.8683 -5.64538 10.2768 -0 -0 -1 57 66 73
-1.43235 -1.81375 11.2392 -0 -0 -1 62 72 81
-10.2559 -13.6143 14.6601 -0 -0 -1 0 0 1
-5.68516 2.68837 16.7083 -0 -0 -1 0 0 0
-10.0546 -14.0474 15.2503 -0 -0 -1 0 1 2
-4.27547 2.6018 12.2185 -0 -0 -1 55 65 75
-8.47104 7.08504 14.5332 -0 -0 -1 150 152 147
-6.29499 -3.89942 11.3057 -0 -0 -1 55 63 74
-1.6679 3.20717 2.30524 -0 -0 -1 117 119 116
0.9033 0.0929712 6.50034 -0 -0 -1 16 25 32
-5.58543 -3.51755 5.72318 -0.731757 0.379837 -0.565912 17 21 30
0.874612 -1.17258 8.14278 -0.217206 0.348845 -0.911663 0 0 0
-12.048 6.15004 16.7472 -0 -0 -1 34 38 47
-0.933252 -2.83858 9.90139 -0 -0 -1 30 39 46
-8.70866 -0.034912 16.5477 -0 -0 -1 36 40 49
-8.53498 -14.4236 15.922 -0 -0 -1 0 2 1
17.0038 13.5097 18.5312 -0 -0 -1 95 97 94
-10.3459 -4.97145 11.0124 -0 -0 -1 55 63 74
-2.00211 -17.2066 19.2241 -0 -0 -1 5 3 4
-2.78603 -2.82719 7.64238 -0 -0 -1 32 43 47
9.52824 -5.43492 12.9785 -0 -0 -1 16 25 32
-6.95943 -3.49598 5.79245 -0 -0 -1 55 63 74
-7.87903 7.04944 14.834 -0 -0 -1 49 60 64
-6.52469 -15.0567 16.9019 -0 -0 -1 0 1 1
17.6299 8.99544 20.6632 -0 -0 -1 126 128 125
-2.09706 3.2279 2.44101 -0 -0 -1 73 75 72
-8.89516 7.05936 15.2318 -0 -0 -1 32 35 41
8.08391 9.91572 14.485 -0 -0 -1 83 85 82
-10.7122 -10.9644 11.7823 -0 -0 -1 36 34 10
-3.72475 -1.89828 11.8385 -0 -0 -1 37 46 51
-0.382733 6.20563 6.75724 -0 -0 -1 115 117 114
11.2533 -3.50317 17.456 -0 -0 -1 16 25 32
10.5782 8.17076 18.0742 -0 -0 -1 63 73 83
-8.49774 -14.9668 15.9647 0.664873 -0.738174 -0.114204 130 136 10
-6.50601 -3.49798 5.20568 -0 -0 -1 18 22 31
-3.26303 -1.32988 7.27575 -0 -0 -1 55 63 74
8.60344 -3.61853 11.4621 -0 -0 -1 58 70 82
-4.51647 -1.84142 7.34273 -0 -0 -1 18 22 31
-7.3918 -14.8654 17.2414 -0 -0 -1 8 8 0
3.54772 3.293 10.4403 -0.694661 0.713483 -0.0915843 18 22 31
4.51816 -0.778735 4.58445 -0 -0 -1 184 186 183
-7.2239 -15.3029 17.8131 -0 -0 -1 6 6 8
-4.51981 5.03862 6.86038 -0 -0 -1 60 62 59
2.44511 6.11168 7.29781 -0 -0 -1 176 178 175
4.00269 -0.664412 7.76209 -0 -0 -1 16 25 32
-3.05964 3.99148 8.48025 -0 -0 -1 36 45 52
3.23862 0.386818 9.11124 -0 -0 -1 15 22 30
-3.16297 -5.18206 11.9358 -0 -0 -1 35 44 51
-8.20064 2.68732 6.14953 -0 -0 -1 209 211 208
-1.63147 -15.1337 16.8569 -0 -0 -1 1 4 1
-0.612233 5.12879 8.2175 -0 -0 -1 92 94 91
1.23148 -0.227749 8.98213 -0 -0 -1 37 46 53
1.2163 2.03825 7.55719 -0 -0 -1 58 68 80
8.69588 7.66006 9.14229 -0 -0 -1 95 97 94
5.56086 4.52677 10.1328 -0 -0 -1 44 53 62
-7.24474 -4.58807 10.5773 -0 -0 -1 35 39 48
-4.92413 5.95946 8.10302 -0 -0 -1 0 0 0
3.61938 3.59475 10.8476 -0 -0 -1 16 23 29
-2.68347 -6.23714 9.08975 -0 -0 -1 54 67 76
8.25533 2.7464 12.8159 -0 -0 -1 60 70 82
1.05771 4.45971 10.2417 -0 -0 -1 57 67 79
-0.893672 -3.82959 7.21802 -0 -0 -1 56 66 76
3.77336 7.35389 11.8409 -0 -0 -1 14 21 30
-4.00563 4.24157 8.02044 -0 -0 -1 149 154 147
-0.471222 5.53523 8.93625 -0 -0 -1 94 96 93
-4.28728 -1.7863 6.83054 -0 -0 -1 18 22 31
5.56355 8.04888 9.901 -0 -0 -1 119 121 118
-0.288818 -0.893025 7.99582 -0 -0 -1 18 22 31
-5.03281 -16.1427 17.6025 -0 -0 -1 7 8 0
5.87275 6.30817 4.26808 -0 -0 -1 139 141 138
-4.02935 3.58525 4.9481 -0 -0 -1 67 69 66
-1.15679 -2.37345 7.19717 -0 -0 -1 58 68 77
-3.85764 3.90493 5.28528 -0 -0 -1 204 206 203
-1.09601 -2.51359 7.54264 -0 -0 -1 60 69 78
5.21745 6.35811 12.9813 -0 -0 -1 13 21 32
-0.971518 1.56171 9.05048 -0 -0 -1 53 61 72
-1.13995 -0.323141 8.08516 -0 -0 -1 15 22 30
0.876291 6.17305 10.6528 -0 -0 -1 15 22 28
-3.72264 3.9683 8.12292 -0 -0 -1 35 44 51
-0.838201 5.57335 9.5087 -0 -0 -1 170 172 169
-2.71367 -2.41007 6.96973 -0 -0 -1 59 71 83
-5.7202 -3.28376 5.77241 -0 -0 -1 55 63 74
-4.98315 -0.439981 7.33991 -0 -0 -1 55 63 74
0.952416 -4.0287 7.64871 -0 -0 -1 32 36 45
-1.95189 -3.03237 6.96887 -0 -0 -1 35 44 51
-10.7346 -10.0016 10.2057 -0 -0 -1 40 48 5
-6.21716 3.49352 6.99502 -0 -0 -1 101 103 100
-5.63317 0.790659 6.89969 -0 -0 -1 36 45 52
-4.02554 1.16581 7.77366 -0 -0 -1 57 65 76
-1.94805 -1.96563 7.40509 -0 -0 -1 60 70 82
-5.55244 -0.210611 6.70789 -0 -0 -1 55 63 74
-7.1189 3.91702 9.65525 -0 -0 -1 34 38 47
11.9389 10.0285 11.8494 -0 -0 -1 93 95 92
6.275 1.04488 8.79602 -0 -0 -1 53 61 72
-7.38779 4.08685 8.3521 -0 -0 -1 177 182 176
0.510382 -1.0896 5.53532 -0 -0 -1 60 70 79
-1.56626 1.1077 8.34664 -0 -0 -1 13 22 29
0.17282 1.10514 2.18882 -0 -0 -1 0 0 0
0.754698 4.70101 10.3191 -0 -0 -1 51 60 69
17.5104 7.44178 20.4585 -0 -0 -1 16 25 32
-7.20278 -15.3074 17.7903 -0 -0 -1 6 6 8
-10.9762 1.85391 7.87286 -0 -0 -1 16 21 25
-12.9088 -11.4908 11.4368 -0 -0 -1 33 35 0
-4.12715 -4.37372 6.03438 -0 -0 -1 43 56 64
-3.65469 -16.3683 18.0548 -0 -0 -1 157 157 91
-3.33765 -16.6467 17.9283 -0 -0 -1 0 1 2
-12.6672 -11.6717 11.8683 -0 -0 -1 66 76 11
2.03671 1.16299 7.33061 -0 -0 -1 16 25 32
0.807706 -1.13683 8.1724 -0.217206 0.348845 -0.911663 18 22 31
-3.21388 0.844772 7.97168 -0 -0 -1 18 22 31
-1.58211 2.25404 9.05561 -0 -0 -1 17 22 31
3.13145 5.92445 5.4836 -0 -0 -1 119 121 118
-7.15626 -1.84177 5.70204 -0 -0 -1 17 21 30
2.59612 -1.40343 6.14917 -0 -0 -1 62 72 81
2.20079 0.265952 1.06548 0.643846 0.289069 -0.708449 0 0 0
-4.66128 -4.18551 13.1419 -0 -0 -1 60 70 82
-2.83289 -1.5707 6.95289 -0 -0 -1 60 70 82
-4.38649 -1.46086 6.70518 -0 -0 -1 55 63 74
-8.00632 2.63692 6.17298 -0.0611866 0.92007 -0.386946 215 218 211
-3.73964 3.51189 4.83893 -0 -0 -1 202 204 201
-0.931168 -1.74641 8.54138 -0 -0 -1 60 70 82
-2.81856 -3.83496 6.70003 -0 -0 -1 35 44 51
-6.9057 -3.09051 5.13797 -0 -0 -1 18 22 31
2.84688 -0.561826 7.27878 -0 -0 -1 14 25 31
-10.5714 -11.3026 10.9192 -0 -0 -1 158 162 24
2.22054 5.88908 10.9353 -0 -0 -1 18 22 31
3.95119 -2.191 7.49585 -0 -0 -1 16 25 32
-5.0242 -3.00116 6.13086 -0 -0 -1 35 39 48
-2.51566 1.42104 8.08807 -0 -0 -1 18 22 31
-1.57343 2.32049 9.29687 -0 -0 -1 16 20 29
3.54348 -0.014327 1.96635 -0 -0 -1 35 44 51
-8.31935 -14.7855 15.7138 -0 -0 -1 12 11 0
7.85935 -5.42469 9.26766 -0 -0 -1 43 52 61
-6.16115 3.28387 6.84567 -0 -0 -1 103 105 102
-1.37765 -16.2849 18.4269 -0 -0 -1 1 0 1
-5.32823 -4.27809 5.51613 -0 -0 -1 46 55 62
-3.8588 3.45669 4.73731 -0 -0 -1 60 62 59
6.19001 -4.92007 7.87618 -0 -0 -1 45 49 54
0.56395 5.9138 10.0988 -0 -0 -1 17 21 28
-11.8102 -1.66269 9.77828 -0 -0 -1 6 11 17
-3.28058 3.30533 3.95009 -0 -0 -1 115 117 114
2.09149 -1.46492 9.36855 -0 -0 -1 55 63 74
-1.46297 -16.6033 18.4063 -0.328252 -0.706288 -0.627222 97 103 38
-10.3823 -12.053 13.2752 0.487117 0.339817 -0.804513 193 193 89
8.45781 10.0685 14.4665 -0 -0 -1 85 87 84
-0.827185 -4.58812 6.8775 -0 -0 -1 54 67 75
2.03663 -1.3813 3.08192 -0 -0 -1 56 68 80
-6.98812 -3.5844 5.62751 -0 -0 -1 14 23 30
3.7607 0.479714 9.89045 -0 -0 -1 17 21 30
-3.84696 4.06465 8.05529 -0 -0 -1 36 46 53
1.2019 -1.41576 8.64672 -0 -0 -1 0 0 0
2.15211 0.441234 1.09848 0.569054 0.302064 -0.76481 0 0 0
-3.19139 -1.37216 7.23884 -0 -0 -1 55 63 74
-7.02324 2.92403 6.78045 -0 -0 -1 53 60 68
-2.3547 4.16848 5.77498 -0 -0 -1 113 115 112
-1.49577 4.21373 5.25561 -0 -0 -1 196 198 195
-4.22891 -4.17732 5.86649 -0 -0 -1 45 56 62
5.76503 -2.33528 8.70889 -0 -0 -1 60 70 82
2.32672 -5.06572 8.13762 -0 -0 -1 45 57 64
-5.73685 3.46794 6.75871 -0 -0 -1 103 105 102
2.62983 -2.71068 6.15664 -0 -0 -1 43 52 61
-3.05312 -2.32324 6.98354 -0 -0 -1 18 22 31
4.21478 2.25221 10.2773 -0 -0 -1 57 69 81
-0.613642 -3.68954 6.82527 -0 -0 -1 32 36 45
-5.53037 3.6789 7.18907 -0 -0 -1 147 149 146
-2.96714 3.28576 3.20353 -0 -0 -1 95 97 94
-3.89516 -1.03918 7.00216 -0 -0 -1 55 63 74
9.9949 8.13535 20.3819 -0 -0 -1 40 49 58
-6.07827 3.00543 7.24004 -0 -0 -1 34 38 47
-0.28096 3.08501 11.045 -0 -0 -1 41 50 57
-6.75647 -14.5683 16.9514 -0 -0 -1 8 14 3
-1.2499 -1.40176 7.46943 -0 -0 -1 62 71 78
-4.16429 3.03405 3.15652 -0 -0 -1 143 145 142
-2.06831 3.11828 2.2893 -0 -0 -1 170 172 169
10.2881 10.728 15.2887 -0 -0 -1 60 65 59
-7.86569 -1.35582 13.1394 -0 -0 -1 39 43 52
-2.17987 3.24698 2.64052 -0 -0 -1 72 74 71
-0.0923163 3.82833 2.50933 -0 -0 -1 81 83 80
-1.10317 -0.386593 7.85613 -0 -0 -1 18 22 31
-3.1625 0.881511 7.58717 -0 -0 -1 18 22 31
1.08792 2.58269 9.37891 -0 -0 -1 16 23 31
7.90077 5.45396 6.35776 -0 -0 -1 0 0 0
-1.00453 -4.44944 6.77257 -0 -0 -1 54 67 75
-3.1392 -1.75003 7.12176 -0 -0 -1 17 23 29
-3.45091 -3.43226 12.8777 -0 -0 -1 60 70 82
2.23584 4.06499 10.5447 -0 -0 -1 57 67 79
7.55051 -0.411755 11.7035 -0 -0 -1 53 63 73
-4.78764 -17.6667 19.4598 -0 -0 -1 0 4 0
-7.07425 -0.366295 7.15412 -0 -0 -1 39 43 52
-9.55103 -12.7518 14.2266 -0 -0 -1 0 6 0
-1.24618 5.74057 7.21731 -0 -0 -1 0 0 0
-1.53275 -1.94937 11.9958 -0 -0 -1 17 21 30
-8.09943 2.55109 6.00718 -0 -0 -1 35 35 42
-7.24628 -14.7905 17.0714 -0 -0 -1 50 50 23
-11.255 1.53983 6.66645 -0 -0 -1 109 111 108
-6.13383 -5.5848 14.4098 -0 -0 -1 32 41 46
-13.1373 1.74583 10.5111 -0 -0 -1 199 201 199
-7.96355 -2.25014 15.432 -0 -0 -1 55 63 74
0.932431 5.60063 7.28079 -0 -0 -1 135 137 134
9.43415 -5.21102 12.5285 -0 -0 -1 16 25 32
-6.80927 -2.63143 5.51245 -0 -0 -1 55 63 74
-3.05963 -1.7807 7.44346 -0 -0 -1 16 23 31
-1.09812 -1.16985 7.44556 -0 -0 -1 18 22 31
1.13584 0.416987 9.69 -0 -0 -1 36 45 52
-8.44458 2.30778 6.10199 -0 -0 -1 41 50 59
-8.62282 -14.361 16.2512 -0 -0 -1 1 7 0
-6.2349 3.22796 6.75672 -0 -0 -1 92 94 91
-5.83976 3.34361 6.8981 -0 -0 -1 101 103 98
-10.5643 -11.3223 11.115 -0 -0 -1 7 5 8
-11.0265 1.62164 6.35164 -0 -0 -1 116 118 115
-3.41237 1.64426 7.71585 -0 -0 -1 14 23 28
0.304902 5.76868 9.24978 -0 -0 -1 94 96 93
-2.18009 1.7273 13.1175 -0 -0 -1 15 24 29
6.2113 0.364828 11.7828 -0 -0 -1 53 63 73
6.3132 -3.59793 7.88273 -0 -0 -1 56 70 81
2.16576 6.08153 7.00391 -0 -0 -1 138 140 137
-8.00267 2.62551 6.14529 -0.0753848 0.901122 -0.426962 208 213 209
3.59317 3.22832 9.55659 -0 -0 -1 18 22 33
-3.95777 3.17729 8.06767 -0 -0 -1 53 61 72
-3.14633 1.57383 7.89319 -0 -0 -1 18 22 31
-12.6304 -11.8053 11.389 -0 -0 -1 0 2 1
-1.22589 -16.8525 18.7262 -0 -0 -1 6 7 0
-1.42182 6.46433 8.04397 -0 -0 -1 194 196 193
-2.13712 3.16943 2.09157 -0 -0 -1 117 119 116
3.73169 0.287029 9.40771 -0 -0 -1 51 63 72
-10.7146 -9.77771 9.83295 -0 -0 -1 9 6 0
-1.9607 -18.8743 20.9448 -0.233437 -0.777454 -0.584014 91 96 35
-10.7646 -10.2634 10.6496 -0 -0 -1 3 0 0
-9.80436 -13.216 14.8539 -0 -0 -1 1 0 6
-10.4054 -11.9905 13.2875 0.487117 0.339817 -0.804513 5 1 2
-10.6104 -11.02 10.5216 -0 -0 -1 0 1 5
-10.6899 -9.65703 9.62 -0 -0 -1 34 35 0
-0.469614 6.18089 6.51797 0.218143 -0.479824 -0.849813 155 157 154
-6.15695 -1.00139 14.9912 -0 -0 -1 55 64 73
-7.75423 -6.56738 14.3007 -0 -0 -1 55 63 74
-1.54362 1.71698 12.0453 -0 -0 -1 17 21 30
-4.32449 2.96785 12.9024 -0 -0 -1 56 62 74
4.73063 -3.94607 8.1716 -0 -0 -1 43 52 59
-4.60644 -4.45546 11.6014 -0 -0 -1 55 63 74
-1.12751 -6.03943 10.9289 -0 -0 -1 32 36 45
-9.96003 -6.4624 13.7381 -0 -0 -1 35 39 48
-8.1486 -4.60702 15.3873 -0 -0 -1 18 22 31
3.46767 -3.79207 6.88596 -0 -0 -1 16 25 32
4.68117 -2.94549 7.97983 -0 -0 -1 57 67 79
4.55944 2.63106 9.39908 -0 -0 -1 57 69 81
4.88567 -6.04295 13.7345 -0 -0 -1 57 67 79
-10.4502 -11.8051 11.5883 -0 -0 -1 7 9 3
1.14512 -1.34214 10.3232 -0 -0 -1 18 22 31
11.0315 -1.1277 15.5776 -0 -0 -1 61 71 80
-10.6936 -10.9548 11.5585 -0 -0 -1 6 3 0
9.34309 -3.48614 12.4543 -0 -0 -1 14 25 31
-5.89861 -15.4223 18.0926 -0 -0 -1 0 0 0
-11.3552 -10.5799 8.56859 -0 -0 -1 3 1 2
-8.38913 -15.1745 16.2961 -0 -0 -1 5 1 5
-10.6769 -11.1211 11.9427 -0 -0 -1 0 2 0
3.57613 6.46292 10.2981 -0 -0 -1 93 101 107
0.905559 6.88307 12.1373 -0 -0 -1 120 125 131
-1.75583 -3.70376 11.4761 -0 -0 -1 60 70 80
-11.1495 9.34342 13.429 -0 -0 -1 206 208 205
5.93897 -3.81274 6.93615 -0 -0 -1 55 69 80
-10.495 -11.7692 12.8466 -0 -0 -1 206 206 145
-5.14992 -17.5306 19.1695 0.686829 0.472108 -0.552612 72 70 55
-12.0567 2.66385 20.8573 -0 -0 -1 57 65 76
-9.62981 -13.8891 15.4923 0.140715 0.230394 -0.96287 3 3 0
7.29268 8.85118 14.9934 -0 -0 -1 122 128 128
-5.85925 -3.11984 5.61423 -0 -0 -1 55 64 73
-5.57963 -16.5938 18.1622 -0 -0 -1 0 0 0
-2.33692 -2.50792 6.73556 -0 -0 -1 13 22 32
2.63828 1.56046 7.68897 -0 -0 -1 14 24 30
6.19456 -1.37869 9.80261 -0 -0 -1 60 70 79
2.87876 -1.79491 6.7836 -0 -0 -1 15 26 30
1.99317 0.798184 3.40635 -0 -0 -1 16 25 32
2.01735 -1.03938 2.74485 -0 -0 -1 43 52 59
10.8909 -3.63134 11.4505 -0 -0 -1 13 24 30
3.16982 1.08498 7.89882 -0 -0 -1 44 54 63
2.05825 0.319749 0.958496 0.619766 0.361599 -0.696517 22 26 31
1.26269 0.879166 6.91128 -0 -0 -1 43 52 61
14.1935 5.46773 17.9455 -0 -0 -1 14 25 31
-10.8708 -10.5217 10.2038 -0 -0 -1 1 3 0
2.29984 2.49269 14.0115 -0 -0 -1 45 54 63
0.296073 -1.47622 6.01843 -0 -0 -1 32 41 48
3.67327 9.36 13.5644 -0 -0 -1 195 197 194
1.72903 0.340356 7.11105 -0 -0 -1 43 52 61
2.43703 0.25706 1.18277 -0 -0 -1 0 0 0
4.84023 0.111906 3.70034 -0 -0 -1 47 57 66
1.99932 0.441665 0.984972 0.541961 0.420058 -0.727894 0 0 0
10.2784 10.6046 12.5823 -0 -0 -1 168 170 167
1.85435 0.28757 0.881184 -0 -0 -1 0 0 0
