ply
format ascii 1.0
element vertex 981
property float x
property float y
property float z
property uchar red
property uchar green
property uchar blue
property float confidence
end_header
0.6880 -1.1062 7.0706 105 215 20 0.760
-12.0837 -10.8091 15.2088 4 236 4 0.980
-7.8702 -3.4758 12.4726 129 209 20 0.694
-3.2979 0.0154 -0.5372 4 236 4 0.980
-3.3364 -0.1037 -0.2799 4 236 4 0.980
-7.2963 -3.4913 12.0322 133 208 20 0.683
-3.3356 0.2105 -0.1040 4 236 4 0.980
-3.3347 0.0450 -0.3241 4 236 4 0.980
-3.5375 -0.2071 -0.4107 4 236 4 0.980
-6.3728 -2.1999 10.0829 113 213 20 0.738
-3.2596 0.1200 -0.5958 4 236 4 0.980
-3.0978 -0.0478 -0.7445 4 236 4 0.980
-11.8607 0.7723 11.3150 133 208 20 0.683
-13.7900 -9.5939 12.1400 35 211 35 0.859
0.4898 -2.1397 10.3317 121 211 20 0.716
-3.4168 -0.1548 -0.4002 4 236 4 0.980
-14.6090 -9.2143 9.6838 38 209 38 0.848
-14.6136 -9.2184 9.6826 38 209 38 0.848
-13.7795 -9.7039 12.0862 40 207 40 0.837
4.9522 -4.1247 15.9664 121 211 20 0.716
-7.3251 -0.0838 12.4409 125 210 20 0.705
-6.7763 -12.0173 19.2067 29 216 29 0.881
8.9672 2.3420 13.5377 43 205 43 0.826
-12.0184 -10.3414 15.7138 4 236 4 0.980
4.4375 -1.4036 15.7547 117 212 20 0.727
-13.5909 -9.7390 13.2470 29 216 29 0.881
-6.8810 -12.1682 19.1431 26 218 26 0.892
-11.0967 -10.6307 16.7994 21 222 21 0.914
-13.1038 2.0212 13.7409 133 208 20 0.683
-13.9563 -9.4329 11.6371 43 205 43 0.826
-3.3356 0.1169 -0.5927 4 236 4 0.980
-11.8628 -10.4084 15.9125 4 236 4 0.980
-6.1466 3.3655 13.5930 142 206 20 0.661
-3.2849 0.1183 -0.5996 4 236 4 0.980
-3.4742 -0.0819 -0.4921 4 236 4 0.980
-11.7285 2.7606 13.4231 133 208 20 0.683
-6.6495 4.6693 7.8407 26 218 26 0.892
-3.3346 0.0557 -0.3029 4 236 4 0.980
-3.1551 -2.2028 12.5618 142 206 20 0.661
-6.7629 4.4172 12.2951 121 211 20 0.716
-5.9236 2.9441 5.0080 133 208 20 0.683
-13.5881 -9.8712 12.5778 29 216 29 0.881
-3.3233 0.0390 -0.2744 4 236 4 0.980
-10.6107 -10.8342 17.2482 26 218 26 0.892
-13.4608 -9.9610 12.8892 35 211 35 0.859
0.9017 -1.0786 7.3685 109 214 20 0.749
-11.8837 -10.3623 15.9190 4 236 4 0.980
-8.6945 -6.7948 12.5918 133 208 20 0.683
-14.6302 -9.0595 10.5932 26 218 26 0.892
4.4200 -3.4430 14.0260 121 211 20 0.716
-13.3859 -10.0307 13.0423 32 214 32 0.870
1.8588 5.4768 9.4325 138 207 20 0.672
-12.8111 -10.3399 14.2014 4 236 4 0.980
-6.1924 4.5750 7.6887 96 218 20 0.782
-1.8876 3.9846 6.5799 113 213 20 0.738
4.4412 -5.9079 21.2740 142 206 20 0.661
7.2626 2.5764 15.9307 113 213 20 0.738
-3.4865 0.1090 -0.6578 4 236 4 0.980
-6.4628 4.5901 7.9029 35 211 35 0.859
-14.7507 4.5948 16.6876 138 207 20 0.672
1.3149 -0.0433 11.7777 96 218 20 0.782
-10.4214 -2.0925 11.1655 129 209 20 0.694
-9.9779 4.6807 7.5156 133 208 20 0.683
-2.3167 4.2029 7.4533 96 218 20 0.782
9.0137 2.3120 12.9770 29 216 29 0.881
-11.7038 -11.7678 18.5910 138 207 20 0.672
-3.3862 0.1556 -0.5004 4 236 4 0.980
-8.0783 -12.0227 18.5087 18 225 18 0.925
-3.3362 0.1472 -0.5201 4 236 4 0.980
-14.0201 -8.6389 10.0329 29 216 29 0.881
-13.4240 -9.4253 13.5539 29 216 29 0.881
-3.0517 0.0959 -0.7499 4 236 4 0.980
-3.6311 -0.0991 -0.2316 4 236 4 0.980
-14.4232 -8.3878 9.7159 40 207 40 0.837
-13.0713 -9.7338 14.1871 4 236 4 0.980
-14.3138 -8.4437 10.3726 32 214 32 0.870
-7.5117 -8.6551 14.5398 142 206 20 0.661
-13.9532 -9.0145 12.0182 46 202 46 0.815
-12.8095 -10.3993 14.1514 4 236 4 0.980
-2.1766 4.3216 7.9619 105 215 20 0.760
-13.4057 -9.5324 13.4854 26 218 26 0.892
-7.2754 4.4471 7.6512 29 216 29 0.881
-13.5435 -9.8174 12.7682 35 211 35 0.859
-11.6314 -10.4519 16.2204 7 233 7 0.969
-14.4525 5.2297 17.4930 138 207 20 0.672
-2.5793 -3.6477 14.4066 142 206 20 0.661
-3.3391 0.1339 -0.5655 4 236 4 0.980
-2.6855 -3.2996 7.1989 142 206 20 0.661
-11.0505 -10.9254 16.6071 10 231 10 0.958
-3.3293 -0.3439 -0.3590 4 236 4 0.980
-11.3170 -3.0301 10.4541 133 208 20 0.683
-6.3160 -4.0812 8.9541 125 210 20 0.705
-2.7875 4.4101 11.1669 40 207 40 0.837
-12.6059 -9.9496 15.0030 4 236 4 0.980
-7.6630 4.7013 11.3112 121 211 20 0.716
-13.0169 -5.8418 9.9581 142 206 20 0.661
-12.9668 -9.8239 14.3406 4 236 4 0.980
-12.4707 -10.0263 15.2069 4 236 4 0.980
-14.2159 -9.2349 10.7264 24 220 24 0.903
-14.4279 -8.2888 9.6318 48 200 48 0.804
2.3449 -1.2420 16.7780 138 207 20 0.672
-11.0201 -10.8213 17.0877 29 216 29 0.881
-5.6083 -4.5622 11.2558 138 207 20 0.672
1.6168 4.6878 8.3884 129 209 20 0.694
-11.3215 2.4211 12.4016 125 210 20 0.705
-2.5776 -2.1371 9.6118 96 218 20 0.782
-3.3787 0.2023 -0.1468 4 236 4 0.980
-3.6505 0.0835 -0.6665 4 236 4 0.980
7.2648 0.7534 11.0456 142 206 20 0.661
-10.6997 -10.9133 17.3581 26 218 26 0.892
-2.6301 -3.8542 9.2918 121 211 20 0.716
-11.9679 -10.3622 15.7850 4 236 4 0.980
-11.5175 -1.3876 17.1557 142 206 20 0.661
-6.3300 -2.2964 9.9807 113 213 20 0.738
-1.6198 4.1373 9.2814 142 206 20 0.661
1.4636 -1.6393 9.2142 105 215 20 0.760
-3.1200 0.0961 -0.7487 4 236 4 0.980
-11.8605 -10.4106 15.9076 4 236 4 0.980
6.9442 -2.1774 16.3167 142 206 20 0.661
-4.3728 -3.7476 8.9714 142 206 20 0.661
-11.6059 -10.5163 16.2095 4 236 4 0.980
1.7932 -1.2189 13.6043 113 213 20 0.738
-10.4201 -10.8438 17.4181 32 214 32 0.870
7.0133 -7.0310 17.6016 142 206 20 0.661
7.4370 2.3537 14.8207 125 210 20 0.705
-6.4626 -5.0347 10.1840 138 207 20 0.672
-2.2942 5.1380 14.8023 138 207 20 0.672
-12.9492 -9.7847 14.6193 4 236 4 0.980
-15.0044 -9.3247 8.9802 133 208 20 0.683
-12.1986 7.1435 16.9497 142 206 20 0.661
-2.7703 -2.3587 9.0288 92 219 20 0.793
-1.5812 -2.3520 8.1768 129 209 20 0.694
-3.0292 -0.3429 0.0124 4 236 4 0.980
-2.0379 4.5777 12.0850 125 210 20 0.705
-3.7812 0.1043 -0.5629 4 236 4 0.980
-6.4498 -2.0960 10.0262 113 213 20 0.738
1.4802 -0.3784 10.8519 92 219 20 0.793
-12.2527 -10.1605 15.4842 4 236 4 0.980
-13.3277 -10.0075 13.2327 26 218 26 0.892
-8.6864 -11.8029 18.1456 35 211 35 0.859
6.9406 2.7703 16.4506 117 212 20 0.727
-0.3851 3.7626 7.2599 133 208 20 0.683
9.5811 2.4305 12.6646 38 209 38 0.848
-9.6581 -9.8194 15.6511 142 206 20 0.661
4.8896 -3.4108 13.4182 129 209 20 0.694
-11.1949 -11.1424 16.2507 7 233 7 0.969
-3.4800 0.1008 -0.7019 4 236 4 0.980
9.3851 2.3238 13.2118 32 214 32 0.870
7.5879 -0.5815 10.3916 142 206 20 0.661
-3.3180 0.1071 -0.6456 4 236 4 0.980
-2.8219 -2.0234 9.8187 96 218 20 0.782
-3.3258 0.1318 -0.3527 4 236 4 0.980
-11.0432 -11.2195 16.3843 10 231 10 0.958
-7.7145 4.4362 7.9278 46 202 46 0.815
-3.3496 -0.1164 -0.3206 4 236 4 0.980
-12.6536 -9.9340 14.8476 4 236 4 0.980
-7.1674 4.3777 13.7776 125 210 20 0.705
1.6880 1.4232 14.3142 142 206 20 0.661
-3.7447 0.0967 -0.5371 4 236 4 0.980
-7.0804 2.4544 12.8117 133 208 20 0.683
-9.5501 -11.6868 17.6262 32 214 32 0.870
-10.4006 -11.4274 16.9815 24 220 24 0.903
-3.4839 0.1055 -0.5901 4 236 4 0.980
-7.5997 4.6486 11.1168 121 211 20 0.716
-10.2540 -11.4683 17.1061 26 218 26 0.892
-9.4744 -2.1022 9.0456 129 209 20 0.694
-3.6816 0.0996 -0.6347 4 236 4 0.980
-10.1239 -0.5167 10.8873 133 208 20 0.683
-3.2245 -0.3411 -0.1918 4 236 4 0.980
-4.0741 0.0883 -0.1342 4 236 4 0.980
-12.9742 -9.7565 14.3954 4 236 4 0.980
-3.4755 -0.1901 -0.5036 4 236 4 0.980
0.1176 -1.2047 8.2542 92 219 20 0.793
-1.7318 1.1456 4.3448 142 206 20 0.661
-13.6267 -11.7134 17.1229 142 206 20 0.661
-3.0642 0.0901 -0.7624 4 236 4 0.980
-3.6327 0.0842 -0.7005 4 236 4 0.980
-3.5531 -0.0682 -0.4170 4 236 4 0.980
-12.0185 -10.2193 15.8225 4 236 4 0.980
-2.7672 2.2551 10.3305 113 213 20 0.738
-6.1612 4.5201 7.7676 96 218 20 0.782
2.4887 -1.0213 12.9628 117 212 20 0.727
4.4527 -0.1049 12.0099 142 206 20 0.661
-3.4595 0.1176 -0.6055 4 236 4 0.980
-10.0981 -11.5508 17.2434 38 209 38 0.848
-13.8836 -9.5420 11.8351 48 200 48 0.804
0.8804 -0.9030 5.9787 129 209 20 0.694
-12.9966 -10.2472 13.8642 4 236 4 0.980
-4.0450 -0.9737 2.8280 133 208 20 0.683
-12.4247 -10.6290 14.7385 4 236 4 0.980
-3.3339 0.1426 -0.5291 4 236 4 0.980
5.7992 -1.3482 4.7763 138 207 20 0.672
-10.6607 -11.3236 16.7706 24 220 24 0.903
-3.1445 -2.1433 8.5139 121 211 20 0.716
-3.2062 -0.1361 -0.7009 4 236 4 0.980
-3.3206 -0.2185 -0.3507 4 236 4 0.980
-3.0658 3.3313 10.4797 40 207 40 0.837
2.3327 5.0898 14.8995 138 207 20 0.672
-11.7077 4.3253 13.5084 125 210 20 0.705
-11.6918 -10.6490 15.8337 4 236 4 0.980
-13.8600 4.9109 15.9522 138 207 20 0.672
-3.4815 -0.2936 -0.5419 4 236 4 0.980
-3.2645 -0.0686 -0.9344 4 236 4 0.980
-14.1801 -8.6536 11.1570 29 216 29 0.881
-7.5499 4.7146 9.0250 46 202 46 0.815
-2.4929 -1.9717 9.8582 100 217 20 0.771
4.2878 0.5576 6.0043 142 206 20 0.661
5.0178 -4.5244 14.8969 113 213 20 0.738
-5.9893 -2.4879 9.9367 113 213 20 0.738
-13.8689 -9.0581 12.3663 40 207 40 0.837
2.5231 1.5409 2.7112 129 209 20 0.694
-13.1931 -9.6506 13.9658 4 236 4 0.980
-7.8376 4.6797 9.2954 96 218 20 0.782
-14.1162 -9.3328 11.0720 32 214 32 0.870
-4.9593 -3.7622 10.6310 138 207 20 0.672
-3.0201 -2.3442 9.8064 96 218 20 0.782
-3.5938 -0.2339 -0.7422 4 236 4 0.980
1.2419 -4.5424 10.1503 109 214 20 0.749
-12.2599 -10.7063 14.9759 4 236 4 0.980
-9.5814 4.4413 7.1034 138 207 20 0.672
-14.1816 -8.7603 11.0350 26 218 26 0.892
1.5218 -0.0681 10.4218 105 215 20 0.760
-13.9236 -8.9694 12.2165 46 202 46 0.815
-12.8960 -10.3249 14.0271 4 236 4 0.980
-6.5904 2.2741 11.5301 138 207 20 0.672
-12.8672 -9.9498 14.4446 4 236 4 0.980
6.8490 -7.1147 14.7249 142 206 20 0.661
-14.3440 -8.3947 10.1646 32 214 32 0.870
2.2305 2.2221 3.4851 129 209 20 0.694
8.1570 2.3268 14.2422 129 209 20 0.694
-3.3325 0.0982 -0.5058 4 236 4 0.980
1.1774 -2.5048 10.4411 117 212 20 0.727
-2.8171 -4.2138 9.0028 121 211 20 0.716
-3.2847 -2.4492 9.3990 96 218 20 0.782
-9.5383 -2.7010 8.6293 133 208 20 0.683
0.3123 -1.8661 8.2338 96 218 20 0.782
-8.9819 -11.8457 18.0117 35 211 35 0.859
-2.6164 4.4312 7.0723 96 218 20 0.782
-12.3694 -10.0846 15.3440 4 236 4 0.980
-3.5737 -0.0224 -0.3938 4 236 4 0.980
-9.1395 -11.8706 17.8770 40 207 40 0.837
-11.3290 3.8828 12.7538 125 210 20 0.705
-3.3439 0.1781 -0.2467 4 236 4 0.980
-3.5013 0.1456 -0.4516 4 236 4 0.980
-3.8767 0.1069 -0.3822 4 236 4 0.980
-3.0297 0.1219 0.4398 4 236 4 0.980
-12.7064 -9.9324 14.8674 4 236 4 0.980
-7.5976 4.6135 7.8323 43 205 43 0.826
-12.6920 -10.0198 14.9043 4 236 4 0.980
-10.8353 2.6843 12.5245 133 208 20 0.683
4.4636 -2.2902 21.8629 142 206 20 0.661
-4.6018 1.7868 5.6252 138 207 20 0.672
-7.6456 4.6680 11.1233 121 211 20 0.716
-11.1109 2.3462 12.1274 125 210 20 0.705
-3.4500 -0.1755 -0.5919 4 236 4 0.980
-5.4632 3.5427 5.8189 138 207 20 0.672
-3.3819 -0.0812 -0.6756 4 236 4 0.980
-3.0906 0.0972 -0.6596 4 236 4 0.980
-3.5076 -0.2175 -0.7759 4 236 4 0.980
-3.5642 0.1622 -0.3999 4 236 4 0.980
-3.4433 3.7462 11.9075 117 212 20 0.727
-8.0350 -3.5590 5.8922 133 208 20 0.683
-3.1276 -0.0676 -0.8028 4 236 4 0.980
-13.6460 -9.7791 12.4692 26 218 26 0.892
5.4434 3.4318 12.2265 142 206 20 0.661
-14.2027 -8.7404 10.1643 26 218 26 0.892
-2.0985 -2.5519 9.3049 105 215 20 0.760
-10.4342 5.7132 13.0059 142 206 20 0.661
-13.3924 -9.9971 13.0561 32 214 32 0.870
7.0721 2.7220 16.6406 117 212 20 0.727
-3.0760 -0.3572 0.1201 4 236 4 0.980
-12.4888 -10.3345 14.9301 4 236 4 0.980
-3.6637 0.0800 -0.6771 4 236 4 0.980
-6.2653 3.9455 7.6572 92 219 20 0.793
-10.1593 -4.6216 9.2258 138 207 20 0.672
0.9588 -1.9058 10.8315 125 210 20 0.705
-13.5673 -9.3604 13.1705 35 211 35 0.859
-3.4814 0.0368 -0.5043 4 236 4 0.980
1.3420 0.5239 11.6367 105 215 20 0.760
9.8050 2.3211 12.3537 46 202 46 0.815
-3.4867 -0.2115 -0.5021 4 236 4 0.980
-12.4682 -10.3304 14.9154 4 236 4 0.980
6.9078 -5.6612 12.5037 142 206 20 0.661
1.7732 -0.3763 10.0157 105 215 20 0.760
-3.3986 0.0906 -0.7318 4 236 4 0.980
-3.4493 -0.1674 -0.6873 4 236 4 0.980
9.6038 2.4522 12.7325 38 209 38 0.848
-11.3555 -10.5738 16.5127 4 236 4 0.980
-3.1189 -0.0726 -0.8449 4 236 4 0.980
-4.2821 -1.3178 4.0274 142 206 20 0.661
-11.7349 -10.8929 15.6743 4 236 4 0.980
-10.9334 -10.7162 16.8916 29 216 29 0.881
-10.3135 5.0584 9.0877 138 207 20 0.672
-13.9984 -9.4605 11.4491 40 207 40 0.837
-6.0537 4.5137 7.5540 100 217 20 0.771
0.7437 -1.2258 7.5386 92 219 20 0.793
-14.4001 -8.7430 10.0034 32 214 32 0.870
-12.7735 -9.8314 14.7056 4 236 4 0.980
-14.2557 -8.5458 10.7383 32 214 32 0.870
4.6975 -1.6718 15.0308 117 212 20 0.727
-14.0084 -9.1341 11.6300 40 207 40 0.837
-3.4260 -0.2324 -0.6961 4 236 4 0.980
-13.4062 -9.4779 13.5431 26 218 26 0.892
-1.9278 -1.0813 8.5336 133 208 20 0.683
1.7553 2.2732 17.5431 142 206 20 0.661
-10.0776 -11.5340 17.2212 38 209 38 0.848
-12.9363 -9.8552 14.6437 4 236 4 0.980
3.6291 0.5484 7.4472 142 206 20 0.661
-10.6269 -11.1205 16.9749 24 220 24 0.903
-3.8552 0.1440 -0.3675 4 236 4 0.980
-8.6690 -6.7745 12.6935 133 208 20 0.683
-7.2696 4.6033 10.9261 121 211 20 0.716
-8.2734 -12.0142 18.3488 18 225 18 0.925
-3.1401 3.6236 11.2551 35 211 35 0.859
-3.4058 -0.1480 -0.4368 4 236 4 0.980
-7.2836 -2.2979 10.9087 138 207 20 0.672
2.2050 5.5948 15.1708 138 207 20 0.672
-6.7928 4.5360 8.8598 40 207 40 0.837
-7.0512 4.1251 12.4825 121 211 20 0.716
-7.0590 -0.2583 11.5791 125 210 20 0.705
0.0809 4.7148 8.3895 138 207 20 0.672
0.8413 -2.7320 6.4874 138 207 20 0.672
-12.9827 -9.9401 14.6964 4 236 4 0.980
-7.3633 -12.1187 18.8211 16 227 16 0.936
-12.8199 -9.9507 14.7321 4 236 4 0.980
-3.6460 -0.0816 -0.6269 4 236 4 0.980
-9.2763 -11.8202 17.7864 35 211 35 0.859
-11.3914 -10.4262 15.5044 7 233 7 0.969
-11.5484 -10.5864 15.7292 4 236 4 0.980
0.8469 2.4554 5.6536 138 207 20 0.672
-7.1088 4.6126 8.4923 24 220 24 0.903
2.8550 3.2623 14.9334 138 207 20 0.672
-7.8574 -12.0196 18.6547 16 227 16 0.936
-7.2395 4.2260 7.2790 43 205 43 0.826
-11.2897 2.7287 11.3013 129 209 20 0.694
-3.2965 -0.3200 -0.4253 4 236 4 0.980
-1.6317 -1.4573 15.3742 142 206 20 0.661
-3.4757 -0.2668 -0.5821 4 236 4 0.980
-8.8010 3.9358 8.8549 142 206 20 0.661
-6.3731 4.5859 7.7678 48 200 48 0.804
-12.1165 2.0106 12.6966 133 208 20 0.683
-14.2798 -8.7529 10.1792 26 218 26 0.892
-3.4230 -0.1616 -0.6407 4 236 4 0.980
-7.3067 -12.1175 19.0050 21 222 21 0.914
0.8718 -4.3249 10.2664 113 213 20 0.738
-3.5153 -0.1968 -0.8086 4 236 4 0.980
-3.0805 0.1033 0.1992 4 236 4 0.980
-11.7315 -10.9911 15.6285 4 236 4 0.980
1.3500 -4.0382 9.2079 129 209 20 0.694
-10.2749 -2.3015 10.4522 117 212 20 0.727
9.3318 2.2996 13.1544 32 214 32 0.870
8.0251 2.7306 20.5361 125 210 20 0.705
-6.8165 4.5931 9.0732 100 217 20 0.771
-3.0859 4.0632 11.3069 43 205 43 0.826
-4.4241 2.2444 3.4459 142 206 20 0.661
-10.5307 -4.3279 15.2193 142 206 20 0.661
-9.1667 -11.8018 17.9052 40 207 40 0.837
-3.1482 0.1539 -0.1410 4 236 4 0.980
-7.7748 4.9202 8.4264 46 202 46 0.815
-6.9774 -12.1857 19.0852 26 218 26 0.892
-11.8417 -10.8786 15.4918 4 236 4 0.980
-3.3391 -0.1058 -0.2367 4 236 4 0.980
-7.4348 -12.2110 18.7696 16 227 16 0.936
-2.2269 4.2656 10.3123 109 214 20 0.749
-3.1319 0.0481 -0.8401 4 236 4 0.980
-2.1025 4.3815 7.5780 96 218 20 0.782
-7.5061 -12.0566 18.7701 16 227 16 0.936
-12.8342 -9.9049 14.7959 4 236 4 0.980
-6.9229 4.4405 12.7812 117 212 20 0.727
-3.4841 -0.0941 -0.4447 4 236 4 0.980
3.4143 -6.8499 16.8388 142 206 20 0.661
4.6220 -0.1404 10.3668 138 207 20 0.672
-2.1904 4.2460 10.5193 105 215 20 0.760
-12.3981 -10.1595 15.2219 4 236 4 0.980
-3.3157 0.0693 -0.2147 4 236 4 0.980
-11.7125 4.1450 13.2859 125 210 20 0.705
-7.1230 3.9787 12.5305 121 211 20 0.716
-9.9465 -2.3757 10.0564 121 211 20 0.716
-7.1080 -12.1810 19.0114 24 220 24 0.903
-2.9393 -2.0383 10.0788 100 217 20 0.771
-3.0960 -0.4385 -0.1219 4 236 4 0.980
-11.3195 -0.2696 12.2534 133 208 20 0.683
0.0916 -2.0018 11.7301 138 207 20 0.672
0.2987 0.2634 12.3053 121 211 20 0.716
-3.1461 -2.5200 9.4544 92 219 20 0.793
6.9234 -0.2974 21.0263 142 206 20 0.661
-3.4828 0.0730 -0.5605 4 236 4 0.980
-7.4947 4.6420 8.0954 35 211 35 0.859
-6.4192 -1.8923 9.6464 113 213 20 0.738
-10.7064 -0.0792 11.0295 125 210 20 0.705
-12.4925 -10.0440 15.1393 4 236 4 0.980
6.7575 -1.9511 19.8933 142 206 20 0.661
-10.2199 4.8766 8.1923 133 208 20 0.683
-7.6679 -12.0542 18.6824 18 225 18 0.925
0.3102 -1.3876 8.5853 105 215 20 0.760
-3.4754 0.1206 -0.4916 4 236 4 0.980
-6.8393 -12.1379 19.0775 26 218 26 0.892
0.1873 -1.9912 8.0886 100 217 20 0.771
-3.3897 -0.1469 -0.7086 4 236 4 0.980
-13.3752 -9.3234 13.2015 38 209 38 0.848
-11.6385 -11.0144 15.7883 10 231 10 0.958
9.7783 2.3381 12.1975 46 202 46 0.815
-6.7277 -12.1889 19.1281 29 216 29 0.881
0.5361 -1.3767 6.8678 105 215 20 0.760
-5.6160 -2.1565 8.5345 133 208 20 0.683
-12.2813 -9.6286 14.4492 4 236 4 0.980
-3.3366 0.1638 -0.2930 4 236 4 0.980
-7.6662 4.6136 8.1572 43 205 43 0.826
0.1254 2.2115 14.2719 142 206 20 0.661
-13.9692 -8.6116 9.9960 32 214 32 0.870
-2.6167 4.5328 7.4336 100 217 20 0.771
-9.5804 -4.2874 8.3838 133 208 20 0.683
0.1852 1.9912 5.2519 138 207 20 0.672
-12.8557 -10.0856 14.3483 4 236 4 0.980
-11.4866 -11.0154 15.7300 16 227 16 0.936
-11.4305 0.1168 11.7874 121 211 20 0.716
-0.4222 -2.6479 9.5598 142 206 20 0.661
-3.2748 -0.0336 -0.1926 4 236 4 0.980
-2.9869 3.7836 11.8887 48 200 48 0.804
-13.1903 4.9838 15.9664 138 207 20 0.672
-3.1549 2.5271 11.4590 117 212 20 0.727
-7.3940 4.6420 10.7817 121 211 20 0.716
-13.3132 -8.7672 9.7336 109 214 20 0.749
-6.1319 -4.1787 8.8680 125 210 20 0.705
-2.0827 4.1883 7.0002 96 218 20 0.782
-10.6946 -2.5777 10.5725 117 212 20 0.727
-10.5322 -0.5419 11.5380 125 210 20 0.705
-10.7682 -10.8928 17.3034 29 216 29 0.881
-6.5933 -12.2317 19.1599 35 211 35 0.859
-8.3371 -11.9580 18.3849 18 225 18 0.925
-2.8133 -4.0915 8.8663 121 211 20 0.716
0.0420 4.5587 8.7011 138 207 20 0.672
-3.1893 -2.6505 9.5842 96 218 20 0.782
-14.3556 -8.9739 10.6263 24 220 24 0.903
-11.4977 -11.0711 15.9428 16 227 16 0.936
-0.5365 -2.1318 7.7602 121 211 20 0.716
-2.5461 2.5167 10.7089 100 217 20 0.771
-3.3787 0.1475 -0.5281 4 236 4 0.980
-6.2842 -3.8849 8.6574 125 210 20 0.705
-15.1368 6.0904 11.3525 142 206 20 0.661
-10.4555 2.1624 11.2565 133 208 20 0.683
-11.6386 4.0882 13.2183 125 210 20 0.705
-7.2210 2.5818 13.2785 138 207 20 0.672
-3.6054 -0.0862 -0.2998 4 236 4 0.980
-3.4586 0.0248 -0.5767 4 236 4 0.980
-2.7756 3.8793 10.5365 48 200 48 0.804
-6.7896 4.6186 9.2213 109 214 20 0.749
-7.0639 -12.1484 18.9332 24 220 24 0.903
-2.5879 4.7344 7.8214 105 215 20 0.760
-2.7471 -4.2083 8.8730 121 211 20 0.716
7.7206 -4.7466 19.6748 142 206 20 0.661
-10.1959 -2.5255 9.5004 117 212 20 0.727
0.4725 -1.1575 7.4490 96 218 20 0.782
1.2277 4.2952 7.9128 133 208 20 0.683
-6.9572 -12.1397 19.0637 26 218 26 0.892
-3.0861 3.7948 11.3137 40 207 40 0.837
-9.8594 -11.5875 17.4055 29 216 29 0.881
-3.2653 -0.0288 -0.9238 4 236 4 0.980
-8.7418 -1.6399 11.2998 133 208 20 0.683
-12.3846 -10.1177 15.2738 4 236 4 0.980
-12.4655 6.6886 12.9796 142 206 20 0.661
-3.4452 -0.1633 -0.5526 4 236 4 0.980
-7.2620 -11.9089 18.6096 16 227 16 0.936
-12.9713 -10.0595 14.1289 4 236 4 0.980
7.9257 6.8720 14.8437 142 206 20 0.661
-10.0944 -2.3997 9.6478 117 212 20 0.727
-2.4062 4.1746 10.8584 46 202 46 0.815
-7.1181 4.1188 12.6572 121 211 20 0.716
-9.0566 -11.9797 18.1186 35 211 35 0.859
-7.3502 -12.1207 18.8104 16 227 16 0.936
-3.3036 -0.1521 -0.5842 4 236 4 0.980
-14.0950 -8.7900 11.5315 40 207 40 0.837
-7.4764 -3.7380 12.4831 129 209 20 0.694
-12.6937 -10.2805 14.7767 4 236 4 0.980
-3.7266 0.0986 -0.5793 4 236 4 0.980
-2.7295 -3.8666 8.9360 121 211 20 0.716
7.3491 2.3961 15.1257 129 209 20 0.694
-2.6095 4.5888 7.3592 100 217 20 0.771
-4.6269 2.1121 8.1962 142 206 20 0.661
6.8605 2.7481 16.9275 121 211 20 0.716
1.0030 -1.1590 8.7784 105 215 20 0.760
-9.9440 -11.4150 17.1225 38 209 38 0.848
-2.8703 2.6460 11.4992 113 213 20 0.738
9.1369 2.3311 13.3940 46 202 46 0.815
-2.4304 -3.9707 8.4226 121 211 20 0.716
1.7390 -0.6112 10.5017 113 213 20 0.738
-5.9755 -1.8925 8.7145 125 210 20 0.705
-7.7160 4.6607 9.1779 48 200 48 0.804
-2.2824 2.6093 10.4183 117 212 20 0.727
1.0639 2.6021 12.6484 142 206 20 0.661
-2.7500 2.8237 11.4797 96 218 20 0.782
-7.0553 4.8576 14.4147 129 209 20 0.694
5.7916 5.3846 18.4992 142 206 20 0.661
-13.2050 6.6522 15.4236 142 206 20 0.661
-1.5708 5.2809 11.4606 133 208 20 0.683
6.8978 2.7864 16.2489 117 212 20 0.727
-9.4515 0.5875 14.5798 142 206 20 0.661
-4.3867 -0.4908 2.0489 138 207 20 0.672
1.2777 -1.7204 9.3760 105 215 20 0.760
-3.2149 0.0967 -0.7641 4 236 4 0.980
-7.6521 4.8136 8.1185 46 202 46 0.815
-11.7037 3.7967 13.0928 121 211 20 0.716
-14.3018 -8.7972 10.2140 26 218 26 0.892
-6.8186 4.6507 9.2939 109 214 20 0.749
-9.2873 5.1310 9.6319 142 206 20 0.661
-3.4884 0.0205 -0.4731 4 236 4 0.980
-10.8255 -10.7347 17.0126 24 220 24 0.903
-6.3389 -4.1863 9.1036 125 210 20 0.705
-2.1319 4.2347 6.6861 105 215 20 0.760
1.4542 -0.2849 10.8051 48 200 48 0.804
-7.0835 -0.1018 11.8644 125 210 20 0.705
2.2519 -1.1766 13.3005 117 212 20 0.727
-3.4828 0.1122 -0.5705 4 236 4 0.980
-7.0148 4.7453 14.2347 129 209 20 0.694
-3.1440 -0.3379 -0.3582 4 236 4 0.980
-2.3417 4.5262 12.9236 133 208 20 0.683
-6.5205 4.6275 8.0551 32 214 32 0.870
0.8726 5.5940 17.0762 142 206 20 0.661
-5.6484 2.9589 11.1890 142 206 20 0.661
-6.6763 -0.0573 11.0936 129 209 20 0.694
-10.6741 -2.5780 10.4567 113 213 20 0.738
-6.8648 2.3916 11.9680 133 208 20 0.683
-10.2859 -3.4726 8.0358 138 207 20 0.672
-12.5325 -9.9959 15.1084 4 236 4 0.980
-8.8303 -3.6547 6.1371 133 208 20 0.683
1.4870 5.0596 8.4619 129 209 20 0.694
-8.6669 -1.5791 11.1894 133 208 20 0.683
-6.9467 4.2795 7.0952 43 205 43 0.826
-8.8674 5.3757 17.2495 142 206 20 0.661
-7.5940 4.8698 8.7714 40 207 40 0.837
-3.8144 0.1293 -0.4373 4 236 4 0.980
-9.0219 -0.8900 14.3693 142 206 20 0.661
1.3480 -2.0016 9.3543 109 214 20 0.749
-7.2729 -12.1928 18.8588 18 225 18 0.925
5.0603 -2.2819 15.8789 121 211 20 0.716
-7.4904 -12.1117 18.7941 16 227 16 0.936
-7.5298 4.6767 8.2381 32 214 32 0.870
-8.8274 -12.0481 18.3254 35 211 35 0.859
-2.9157 4.5839 11.7670 96 218 20 0.782
2.5670 1.7660 3.7285 129 209 20 0.694
-12.1870 4.8564 14.9165 142 206 20 0.661
-3.0365 -0.3471 0.2073 4 236 4 0.980
-12.7840 2.1195 14.1161 133 208 20 0.683
-1.8502 -1.2633 12.9410 142 206 20 0.661
0.2359 -1.7245 8.9776 105 215 20 0.760
-3.1628 0.0793 -0.7886 4 236 4 0.980
1.1943 0.0363 11.8140 92 219 20 0.793
-3.1343 3.8689 11.9266 100 217 20 0.771
-1.1286 -1.0490 10.6540 142 206 20 0.661
-5.7855 2.0302 10.0054 142 206 20 0.661
-2.8707 2.3530 10.3394 113 213 20 0.738
2.7180 -0.8632 13.4074 117 212 20 0.727
-2.5032 4.3067 7.0820 96 218 20 0.782
-14.5108 2.4365 15.6775 138 207 20 0.672
-9.1440 -11.8388 18.0975 38 209 38 0.848
-6.3844 4.5532 7.8815 43 205 43 0.826
9.0208 2.4054 13.8152 92 219 20 0.793
-2.3725 5.1910 15.3748 138 207 20 0.672
-6.5198 -2.6933 10.5890 117 212 20 0.727
1.3100 0.5315 6.1087 142 206 20 0.661
5.0510 -4.0429 13.8740 121 211 20 0.716
7.5609 2.8785 21.5608 121 211 20 0.716
5.5724 6.3421 12.3147 142 206 20 0.661
-6.1452 -2.2102 9.7471 109 214 20 0.749
2.8064 1.5488 5.1417 142 206 20 0.661
7.5744 2.7511 22.1788 133 208 20 0.683
-13.1337 2.0710 14.3195 133 208 20 0.683
9.4149 2.2970 12.2540 46 202 46 0.815
-3.3005 0.1336 -0.5298 4 236 4 0.980
-2.5042 3.0926 4.8171 138 207 20 0.672
-3.9730 -3.1652 11.7677 142 206 20 0.661
4.8480 -5.3109 17.7922 142 206 20 0.661
-14.8326 2.0329 15.9101 138 207 20 0.672
-6.1473 4.5387 7.6864 96 218 20 0.782
-2.7613 4.3777 11.0172 43 205 43 0.826
-7.7015 4.8636 10.3473 117 212 20 0.727
-11.8366 -10.9344 15.5838 4 236 4 0.980
-12.6224 -9.8951 14.7870 4 236 4 0.980
-3.3852 -0.1107 -1.0491 4 236 4 0.980
-3.2448 -0.0293 -0.9210 4 236 4 0.980
-12.9331 -9.6141 14.6516 4 236 4 0.980
0.9292 5.0810 13.6508 142 206 20 0.661
-7.0971 -0.3383 11.6529 125 210 20 0.705
-3.4441 0.0842 -0.6728 4 236 4 0.980
0.3874 -0.9650 7.2393 105 215 20 0.760
6.0786 -0.5546 4.2946 138 207 20 0.672
-7.8329 -0.5645 12.6432 138 207 20 0.672
-3.1748 -2.7043 10.4688 117 212 20 0.727
-2.7123 3.6516 10.8066 43 205 43 0.826
-7.3747 4.7077 14.6147 129 209 20 0.694
2.2205 -1.3498 15.7251 138 207 20 0.672
-3.5150 0.1436 -0.4439 4 236 4 0.980
-7.6049 4.5166 7.8258 43 205 43 0.826
-6.7606 4.4430 12.3917 121 211 20 0.716
0.9675 -0.9859 6.8240 105 215 20 0.760
-3.1110 0.0688 -0.8053 4 236 4 0.980
-3.4653 -0.0728 -0.5422 4 236 4 0.980
-3.0335 3.5876 10.8217 43 205 43 0.826
4.7828 -1.7712 15.4186 117 212 20 0.727
0.7587 3.9531 10.9438 138 207 20 0.672
1.4962 -4.7751 10.1207 117 212 20 0.727
0.9577 -4.1377 9.8543 113 213 20 0.738
-2.8300 3.8942 10.8424 43 205 43 0.826
-2.2358 -2.0262 8.7121 109 214 20 0.749
-7.7129 -12.0581 18.7774 18 225 18 0.925
2.6588 4.5618 18.2575 142 206 20 0.661
-3.3332 -0.1952 -0.4167 4 236 4 0.980
-8.8755 -11.7791 17.9930 38 209 38 0.848
0.7520 0.0331 8.7625 125 210 20 0.705
1.1385 0.1100 10.9604 46 202 46 0.815
0.8258 -1.6074 7.7021 48 200 48 0.804
1.4915 0.1521 9.4402 117 212 20 0.727
-1.9310 4.3556 7.5405 96 218 20 0.782
-3.0731 -0.4620 -0.0717 4 236 4 0.980
-9.0290 5.2887 15.5418 142 206 20 0.661
1.9277 3.9194 9.1779 138 207 20 0.672
0.8666 -1.2898 7.0780 109 214 20 0.749
-10.8619 -10.7030 16.9491 29 216 29 0.881
1.2143 -4.7603 10.2225 113 213 20 0.738
0.8036 0.3318 7.5644 138 207 20 0.672
0.3264 3.8106 6.5723 129 209 20 0.694
6.7078 2.7298 16.9957 125 210 20 0.705
1.0617 0.3966 10.3044 100 217 20 0.771
-3.6945 0.1033 -0.5843 4 236 4 0.980
-0.4451 -0.6652 8.0200 133 208 20 0.683
-12.5829 -10.5507 14.5102 4 236 4 0.980
-3.3001 -0.0253 -0.2554 4 236 4 0.980
8.8608 2.2552 13.2871 46 202 46 0.815
-5.9972 -4.5862 9.3059 121 211 20 0.716
1.3012 -2.1773 9.6557 105 215 20 0.760
0.3649 3.8907 6.8145 129 209 20 0.694
-9.3896 -7.2938 13.3044 133 208 20 0.683
-2.0631 4.4352 12.0403 117 212 20 0.727
7.4760 2.5850 20.7415 121 211 20 0.716
-3.4930 0.1225 -0.4511 4 236 4 0.980
-2.8485 3.6452 10.6735 48 200 48 0.804
2.6219 0.4627 9.7752 142 206 20 0.661
-3.2762 -0.0031 -0.7032 4 236 4 0.980
-5.5309 -4.5077 11.1730 133 208 20 0.683
-2.7254 2.3734 10.8355 100 217 20 0.771
-3.5162 -0.0738 -0.4284 4 236 4 0.980
1.5144 -0.0660 10.4367 100 217 20 0.771
3.4313 -4.8354 21.0663 142 206 20 0.661
1.3089 -1.9987 9.8789 100 217 20 0.771
1.1935 -2.4003 7.5308 133 208 20 0.683
0.9889 -2.5522 6.6965 133 208 20 0.683
1.0974 2.8306 4.4647 142 206 20 0.661
9.1260 2.3254 12.6594 38 209 38 0.848
-2.5172 -2.0784 9.1796 48 200 48 0.804
0.7231 0.4539 11.2774 100 217 20 0.771
-9.1524 -12.1298 18.3221 38 209 38 0.848
-8.9459 -12.2078 18.5117 38 209 38 0.848
-3.2182 0.1348 -0.0301 4 236 4 0.980
-8.3508 -3.7121 13.1046 133 208 20 0.683
2.4761 -0.9411 13.8198 113 213 20 0.738
-3.2761 -0.0332 -0.1465 4 236 4 0.980
-0.6462 -2.2327 7.9394 121 211 20 0.716
0.5403 -0.0597 12.7226 125 210 20 0.705
2.2868 -1.2168 14.5230 125 210 20 0.705
-3.2563 -0.3186 -0.2307 4 236 4 0.980
-8.3318 -2.6935 6.1746 133 208 20 0.683
0.5081 3.5490 6.0178 133 208 20 0.683
2.2645 -1.0307 14.2004 117 212 20 0.727
6.9094 -4.7711 15.9138 142 206 20 0.661
1.2331 -2.2098 9.3670 109 214 20 0.749
-2.3981 2.5611 10.5805 105 215 20 0.760
1.0630 -1.7262 9.7898 100 217 20 0.771
1.8006 0.0835 11.5435 100 217 20 0.771
4.4021 3.5519 13.7713 142 206 20 0.661
-3.2995 -0.1830 -0.5196 4 236 4 0.980
1.8953 -1.1640 11.8085 138 207 20 0.672
-3.7686 0.1122 -0.4984 4 236 4 0.980
1.3304 -0.0954 10.6545 92 219 20 0.793
-3.1309 0.0776 -0.7950 4 236 4 0.980
-10.7335 2.7138 17.5979 142 206 20 0.661
0.6889 -4.2731 10.7438 113 213 20 0.738
1.5441 0.2660 9.1575 129 209 20 0.694
-3.4609 0.1000 -0.6254 4 236 4 0.980
1.4053 -3.2936 8.2451 138 207 20 0.672
1.2689 -2.0928 8.8613 105 215 20 0.760
0.5186 0.3260 8.2198 133 208 20 0.683
-3.2914 -0.0796 -0.6014 4 236 4 0.980
-10.1855 -8.1031 11.7584 142 206 20 0.661
-2.6559 3.4881 5.7032 138 207 20 0.672
-5.0266 2.5179 4.6826 138 207 20 0.672
-3.1463 -0.2545 -0.2194 4 236 4 0.980
9.3258 2.3092 13.2216 32 214 32 0.870
-4.1313 -0.2522 3.2902 138 207 20 0.672
-2.8346 -1.1575 4.3608 142 206 20 0.661
-3.1738 2.4232 11.1292 105 215 20 0.760
6.9004 -5.4680 18.9400 142 206 20 0.661
-5.8752 -2.3866 9.6018 109 214 20 0.749
0.0473 3.1494 13.5485 142 206 20 0.661
-8.5099 -1.4451 10.9333 133 208 20 0.683
0.4203 3.8120 11.4885 138 207 20 0.672
-3.0947 0.0965 -0.7681 4 236 4 0.980
-3.3745 -0.0982 -0.2734 4 236 4 0.980
-3.1248 -0.2340 -0.2961 4 236 4 0.980
9.6626 2.2736 12.2690 46 202 46 0.815
-4.9248 1.2408 5.2227 138 207 20 0.672
-3.1197 0.1094 -0.6575 4 236 4 0.980
-3.2990 -0.2390 -0.3510 4 236 4 0.980
9.6049 2.3203 12.9604 29 216 29 0.881
-11.5007 0.5076 11.0100 129 209 20 0.694
-8.6978 -11.8412 18.0922 35 211 35 0.859
-0.3375 -0.0442 14.2929 142 206 20 0.661
4.5632 -4.1462 15.6592 121 211 20 0.716
-3.4266 0.2315 0.0230 4 236 4 0.980
-3.7023 -0.0222 -0.2668 4 236 4 0.980
4.5212 -1.4930 15.5860 117 212 20 0.727
4.7952 -3.6410 13.9605 121 211 20 0.716
-12.5660 -9.9962 15.0926 4 236 4 0.980
-3.5377 -0.2134 -0.4351 4 236 4 0.980
-3.1610 0.0850 -0.1391 4 236 4 0.980
-3.0604 -0.0655 -0.6465 4 236 4 0.980
-14.2910 -8.8662 10.2143 26 218 26 0.892
-3.3709 -0.0989 -0.2997 4 236 4 0.980
-9.4885 -11.7755 17.8249 35 211 35 0.859
-3.1599 0.0412 -0.3103 4 236 4 0.980
-3.6107 0.0630 -0.2894 4 236 4 0.980
0.4426 -4.4388 10.8436 121 211 20 0.716
-3.3247 0.0536 -0.2640 4 236 4 0.980
-3.4050 0.0909 -0.1717 4 236 4 0.980
7.1978 2.3116 20.0550 129 209 20 0.694
-10.4916 -10.9099 17.4001 32 214 32 0.870
-3.1564 -0.0023 -0.8475 4 236 4 0.980
-3.2439 -0.0331 -0.9448 4 236 4 0.980
2.5562 -0.9801 13.5784 113 213 20 0.738
-3.4144 -0.2603 -0.0952 4 236 4 0.980
-0.5427 -2.8669 11.8713 133 208 20 0.683
0.7938 0.3041 11.2477 92 219 20 0.793
-3.1440 0.1006 0.0082 4 236 4 0.980
-10.4076 -11.1256 17.1271 26 218 26 0.892
-3.4438 -0.0939 -0.5449 4 236 4 0.980
-3.5442 -0.0278 -0.4529 4 236 4 0.980
-3.4019 0.1277 -0.5401 4 236 4 0.980
-3.2192 -0.0718 -0.9171 4 236 4 0.980
-3.2050 -0.0278 -0.9308 4 236 4 0.980
-14.2382 -8.7062 10.1713 26 218 26 0.892
10.8652 1.3812 17.5977 142 206 20 0.661
-8.1223 -12.2146 18.3402 21 222 21 0.914
-3.3645 0.0243 -0.8478 4 236 4 0.980
4.5643 -3.9794 15.3643 117 212 20 0.727
-3.5034 0.0429 -0.4498 4 236 4 0.980
1.6120 -3.5803 8.5869 133 208 20 0.683
-3.2952 -0.3286 -0.3961 4 236 4 0.980
7.1423 2.5280 15.8041 117 212 20 0.727
-3.1203 0.0170 -0.7170 4 236 4 0.980
-2.5319 -0.7500 0.6595 105 215 20 0.760
-3.5114 0.1420 -0.4753 4 236 4 0.980
9.6564 2.3970 13.0302 29 216 29 0.881
-3.3881 0.0921 -0.7056 4 236 4 0.980
-6.8576 -12.1723 19.0345 26 218 26 0.892
-3.4681 -0.1967 -0.5310 4 236 4 0.980
-3.1469 -0.3786 -0.2375 4 236 4 0.980
-2.6459 -0.6428 0.4849 13 229 13 0.947
-4.0150 -0.5625 0.1511 4 236 4 0.980
-11.5828 -10.9585 15.8590 7 233 7 0.969
-3.4711 -0.3102 -0.5289 4 236 4 0.980
7.4884 -0.2792 23.5717 142 206 20 0.661
-3.4831 -0.2001 -0.4353 4 236 4 0.980
-3.5703 0.0164 -0.6598 4 236 4 0.980
-3.4018 -0.1368 -0.4925 4 236 4 0.980
-3.5063 -0.2067 -0.6606 4 236 4 0.980
-3.5043 -0.1416 -0.7888 4 236 4 0.980
9.2913 2.3194 11.9487 96 218 20 0.782
-0.3509 -1.5878 8.3600 109 214 20 0.749
-3.0999 -0.4493 -0.0587 4 236 4 0.980
0.9238 -4.0976 10.6235 113 213 20 0.738
-3.1276 0.0884 -0.7601 4 236 4 0.980
-3.5100 -0.0044 -0.7698 4 236 4 0.980
-3.4510 0.0800 -0.5930 4 236 4 0.980
6.6870 2.6879 18.5891 133 208 20 0.683
-3.7473 0.0866 -0.5550 4 236 4 0.980
-3.5528 0.0778 -0.7366 4 236 4 0.980
-3.5139 0.0008 -0.7641 4 236 4 0.980
4.6421 0.5888 16.8591 138 207 20 0.672
-3.6681 0.0880 -0.6419 4 236 4 0.980
-3.8318 0.0177 -0.4236 4 236 4 0.980
-11.7574 -11.8516 18.6614 138 207 20 0.672
-3.5056 -0.0099 -0.7733 4 236 4 0.980
1.8311 1.1776 3.4207 129 209 20 0.694
4.8974 -0.4297 10.8003 138 207 20 0.672
1.8397 -1.3690 12.1542 133 208 20 0.683
5.0190 -0.2974 2.0991 142 206 20 0.661
0.8216 -0.7529 8.8732 117 212 20 0.727
-11.4177 -11.1049 15.8510 16 227 16 0.936
1.3241 1.5735 11.8612 138 207 20 0.672
-1.5298 -1.5443 9.0543 129 209 20 0.694
-6.7246 -12.1843 19.1259 29 216 29 0.881
8.4648 2.4341 9.5122 142 206 20 0.661
0.8168 -1.2533 4.3181 142 206 20 0.661
7.6296 2.4454 20.7869 121 211 20 0.716
6.5836 2.6299 18.3711 133 208 20 0.683
4.5005 -1.3372 15.2783 121 211 20 0.716
-13.8978 -9.8126 13.3422 40 207 40 0.837
4.3075 0.3683 16.5010 138 207 20 0.672
-12.5761 -9.8448 14.7416 4 236 4 0.980
4.4375 -3.7707 15.0272 109 214 20 0.749
4.9708 -2.0419 15.3551 117 212 20 0.727
0.7501 -0.0190 11.8009 100 217 20 0.771
4.6500 -4.1992 15.0995 117 212 20 0.727
7.8317 2.6090 21.8176 125 210 20 0.705
-0.5894 -2.7305 12.4543 138 207 20 0.672
4.9850 -3.5453 14.6019 113 213 20 0.738
9.6665 2.2237 12.1872 46 202 46 0.815
9.2983 2.3640 13.8913 96 218 20 0.782
-12.7962 -9.8765 14.7095 4 236 4 0.980
9.4412 1.5869 13.6337 96 218 20 0.782
1.1397 -0.1273 12.3765 113 213 20 0.738
-12.6748 -9.7925 14.6541 4 236 4 0.980
3.2280 3.8677 15.3899 138 207 20 0.672
-3.7732 0.5765 12.3020 142 206 20 0.661
-13.0525 -9.9376 13.8726 4 236 4 0.980
6.9958 2.8390 18.8787 133 208 20 0.683
5.3416 -1.9813 13.2198 142 206 20 0.661
-12.2971 -10.2908 15.2745 4 236 4 0.980
-8.6237 4.7730 8.9808 230 147 30 0.299
-0.9391 -0.2589 14.7536 230 147 30 0.300
2.1923 4.5580 17.9640 230 104 30 0.167
-10.0566 -8.9041 18.4761 230 142 30 0.285
-1.3805 -1.3064 9.4747 230 109 30 0.182
9.0136 4.9260 17.3931 230 116 30 0.206
-11.0671 3.1196 16.1273 230 125 30 0.232
-2.7020 -2.1429 4.4749 230 105 30 0.170
5.7112 0.3446 11.1846 230 149 30 0.305
-12.7935 6.8732 15.1783 230 123 30 0.228
-9.6483 0.1565 14.2385 230 139 30 0.276
4.5463 -0.6432 1.7988 230 136 30 0.267
1.0843 0.1622 17.5138 230 123 30 0.225
-8.6947 -3.3775 13.6321 230 149 30 0.308
-1.8049 -1.2118 12.4783 230 106 30 0.172
-3.3564 2.2334 7.6360 230 113 30 0.194
4.7557 -2.9740 15.6681 230 111 30 0.189
2.1996 0.6888 6.9321 230 142 30 0.285
3.6530 1.7576 6.3975 230 101 30 0.159
-4.6229 2.4282 3.8302 230 102 30 0.162
-10.5367 2.5581 18.7283 230 134 30 0.259
0.7926 1.3648 13.8988 230 139 30 0.275
8.7883 -4.2842 20.1688 230 101 30 0.159
5.5762 5.1046 16.9732 230 148 30 0.303
-8.7191 4.1306 14.5525 230 108 30 0.180
2.4757 1.0249 8.2014 230 104 30 0.169
1.5879 0.2275 3.5799 230 161 30 0.342
-0.6702 -0.0883 14.2431 230 126 30 0.236
-1.8679 0.7962 5.4670 230 127 30 0.238
6.1645 -5.7481 16.1696 230 152 30 0.315
-12.3175 -11.3037 16.8350 230 125 30 0.232
-12.8717 3.1646 18.5190 230 114 30 0.197
-4.0321 -2.1996 12.5098 230 125 30 0.231
0.9672 1.1118 4.8764 230 143 30 0.289
-11.5709 7.8260 13.9957 230 115 30 0.200
0.6120 1.6021 13.1580 230 119 30 0.214
0.0581 3.2536 13.1848 230 153 30 0.319
-0.7612 3.6454 13.5778 230 113 30 0.195
-10.8078 -9.2651 12.1246 230 138 30 0.272
0.9834 -1.8348 8.4882 230 138 30 0.273
-15.8384 -11.7613 17.3573 230 162 30 0.347
-9.3348 1.3700 12.7920 230 160 30 0.339
6.9323 7.9027 13.7765 230 115 30 0.202
-3.3300 1.2602 11.5059 230 158 30 0.333
5.5480 0.0313 21.7493 230 161 30 0.344
-3.0062 2.1558 7.5930 230 106 30 0.175
0.8974 5.4933 13.6399 230 153 30 0.319
1.3867 4.5917 13.4826 230 100 30 0.155
6.7283 -1.7849 9.1994 230 151 30 0.313
1.0735 1.7441 14.5322 230 129 30 0.245
-10.5512 -1.7178 16.6792 230 124 30 0.231
4.6326 4.5298 19.0734 230 132 30 0.254
-7.3246 3.6789 9.4062 230 138 30 0.273
5.8052 -0.1140 11.0611 230 144 30 0.292
6.0101 -1.4562 21.5465 230 118 30 0.210
4.6717 -6.5297 17.1785 230 156 30 0.326
2.5449 2.9693 17.6197 230 145 30 0.295
0.4908 3.4624 14.9794 230 124 30 0.230
1.2221 0.8573 16.0677 230 130 30 0.247
-10.5793 -1.6437 15.8869 230 114 30 0.199
3.3731 -0.5633 10.4672 230 102 30 0.161
2.2421 5.6747 18.7706 230 163 30 0.350
-9.0092 -0.6676 13.6642 230 125 30 0.232
7.6929 -0.5391 9.3964 230 136 30 0.266
8.2106 7.3132 17.1284 230 113 30 0.194
-1.3005 0.7916 16.0391 230 138 30 0.271
-5.7245 3.2972 8.7243 230 137 30 0.268
-11.7706 5.7846 15.9175 230 112 30 0.193
-7.9566 -9.0316 15.9971 230 132 30 0.253
0.9565 2.7784 14.0085 230 153 30 0.318
6.5644 6.6558 14.8175 230 130 30 0.248
5.4160 1.5559 11.8274 230 147 30 0.299
7.4837 0.2884 12.8007 230 149 30 0.308
2.0399 1.1710 4.7703 230 122 30 0.223
-10.9824 -1.6786 16.9174 230 152 30 0.315
-11.1375 2.9751 16.2604 230 152 30 0.314
3.0440 5.6865 12.8501 230 98 30 0.150
-12.5915 6.6413 16.2303 230 163 30 0.349
-0.3490 6.4967 16.7528 230 131 30 0.250
8.0554 0.1511 23.5110 230 137 30 0.269
1.6138 -0.5679 4.5359 230 128 30 0.240
7.0178 -6.3992 19.5422 230 140 30 0.277
-0.9600 -2.6029 13.1126 230 103 30 0.165
-2.9167 -1.5254 14.4425 230 160 30 0.340
-8.0158 -2.3389 13.9674 230 161 30 0.343
4.8279 -2.5626 21.8669 230 123 30 0.225
-15.1430 5.9584 15.1564 230 135 30 0.263
-11.5375 5.5373 12.6113 230 157 30 0.329
2.8850 6.3200 14.3641 230 158 30 0.334
-1.0918 -1.2630 9.5586 230 146 30 0.296
0.5292 5.8903 14.2158 230 120 30 0.217
9.1496 2.4859 12.3401 230 102 30 0.162
-8.1405 5.5487 16.5522 230 114 30 0.198
-13.3930 -11.4181 17.8149 230 116 30 0.204
7.6784 -3.7299 13.2800 230 153 30 0.320
6.7024 -5.1838 13.0000 230 155 30 0.325
-2.3885 -2.3165 15.1718 230 120 30 0.217
-4.1556 3.8358 9.2349 230 156 30 0.327
7.0396 1.3487 9.3406 230 154 30 0.322
-9.6205 5.6875 9.4882 230 142 30 0.284
2.7870 3.8688 16.9526 230 103 30 0.164
-12.8486 7.3241 17.1604 230 114 30 0.198
1.0009 7.2755 16.7521 230 137 30 0.269
-8.2860 -0.0864 15.1107 230 117 30 0.209
-12.5766 -5.3041 9.7169 230 140 30 0.279
5.7332 -1.7583 20.5786 230 130 30 0.248
-2.8184 -1.0770 5.7289 230 154 30 0.323
-9.3828 -0.9507 12.4752 230 131 30 0.250
-10.1217 -2.7368 14.0481 230 152 30 0.317
7.7444 -1.5501 18.1903 230 110 30 0.186
7.6042 -5.5280 11.2383 230 107 30 0.177
7.9022 -6.9504 15.3874 230 119 30 0.215
4.0679 1.8701 4.6118 230 143 30 0.286
0.3610 2.3792 5.1971 230 110 30 0.185
0.2197 5.2275 3.8240 230 143 30 0.287
3.2168 6.2811 17.9956 230 120 30 0.216
-2.7941 -5.7862 13.7460 230 129 30 0.244
6.6422 -5.9146 13.8514 230 158 30 0.333
6.5406 -1.3607 20.8250 230 159 30 0.337
6.5923 5.5076 17.2018 230 138 30 0.273
-1.7207 -0.6504 15.7704 230 130 30 0.249
-10.4695 6.0391 17.0272 230 161 30 0.343
-8.7360 4.1698 9.3716 230 122 30 0.223
-1.4089 -1.0092 11.0074 230 105 30 0.170
-13.0430 6.8409 14.6186 230 137 30 0.268
-3.6916 -3.6069 8.3971 230 146 30 0.297
-9.2193 6.0435 11.6901 230 162 30 0.347
-11.7717 2.2452 17.2625 230 137 30 0.268
7.3253 -0.6921 23.7821 230 109 30 0.182
5.5228 -5.4463 20.8484 230 104 30 0.168
1.8780 4.6986 17.8362 230 123 30 0.227
8.0999 -6.0652 19.1450 230 114 30 0.200
-13.4913 -7.5184 9.3258 230 158 30 0.335
-0.2121 -1.9877 4.2989 230 162 30 0.347
2.3754 1.0672 5.3939 230 124 30 0.231
-9.8695 6.2103 10.2672 230 110 30 0.186
-6.0131 3.3679 14.7508 230 127 30 0.237
5.7598 -3.7832 13.9048 230 148 30 0.302
5.5158 -5.2843 15.7601 230 123 30 0.225
7.7623 -4.8057 16.0281 230 126 30 0.236
-13.9532 7.7380 18.3839 230 116 30 0.204
-11.3965 5.9644 11.7528 230 143 30 0.287
-0.8708 -1.6031 15.0118 230 121 30 0.219
-7.1021 3.0489 11.2581 230 155 30 0.324
4.9032 -2.1490 12.3576 230 131 30 0.250
2.6131 1.5206 3.5106 230 104 30 0.167
-3.8045 -0.5972 12.1727 230 134 30 0.259
-4.0565 -2.3644 12.0385 230 138 30 0.273
7.1604 -4.3637 19.8522 230 154 30 0.322
2.6549 1.0622 6.6541 230 143 30 0.289
8.1360 2.4018 9.3686 230 148 30 0.302
5.7035 -8.1267 17.4862 230 130 30 0.249
8.0126 -1.5428 16.7141 230 126 30 0.234
-6.4570 3.0655 12.0186 230 132 30 0.255
6.7005 -0.5990 24.5026 230 156 30 0.329
-1.5153 2.3501 15.2577 230 140 30 0.280
6.5439 0.6612 23.6408 230 102 30 0.160
-0.3113 4.7579 17.0379 230 118 30 0.210
-12.0686 -4.2230 9.1153 230 152 30 0.315
-0.8462 -1.5741 15.4718 230 130 30 0.247
0.6052 4.6409 16.6732 230 104 30 0.169
-2.7335 -1.0331 13.0287 230 153 30 0.317
-1.9377 -1.2629 9.9838 230 132 30 0.254
6.9658 -1.3336 20.3396 230 126 30 0.235
