ply
format ascii 1.0
comment Created by Open3D
element vertex 817
property double x
property double y
property double z
property double nx
property double ny
property double nz
property uchar red
property uchar green
property uchar blue
end_header
0.688048 -1.10624 7.07062 0 0 1 50 60 70
-12.0837 -10.8091 15.2088 0 0 1 1 1 13
-7.87017 -3.4758 12.4726 0 0 1 55 64 73
-3.29789 0.0154249 -0.537211 -0.419501 0.080855 -0.904147 18 22 31
-3.3364 -0.103722 -0.279891 -0.899734 -0.0996667 0.424906 18 22 31
-7.29631 -3.49127 12.0322 0 0 1 57 65 76
-3.33564 0.210467 -0.103989 -0.200275 -0.946809 0.251878 49 61 70
-3.33471 0.0450385 -0.324073 -0.99443 0.040942 -0.097126 53 61 72
-3.53748 -0.207099 -0.410665 -0.767642 0.128662 -0.627831 17 21 30
-6.37283 -2.19987 10.0829 -0.832245 -0.532483 0.15437 55 65 73
-3.25956 0.120002 -0.595824 -0.0189336 0.960832 -0.276483 145 147 144
-3.09783 -0.047836 -0.744539 0.946027 -0.280854 -0.16172 176 179 174
-11.8607 0.772286 11.315 0 0 1 55 63 74
-13.79 -9.59395 12.14 0 0 1 3 4 8
0.489788 -2.13968 10.3317 0 0 1 30 34 43
-3.41681 -0.154762 -0.400241 -0.519983 -0.776505 0.355888 18 22 31
-14.609 -9.21431 9.68377 0 0 1 16 7 0
-14.6136 -9.21837 9.68257 0 0 1 16 7 0
-13.7795 -9.70388 12.0862 0 0 1 7 9 3
4.9522 -4.12466 15.9664 0 0 1 60 72 84
-7.32515 -0.0838127 12.4409 0 0 1 11 20 27
-6.77629 -12.0173 19.2067 -0.165385 -0.480339 0.861349 1 0 0
8.96716 2.34203 13.5377 0 0 1 213 215 212
-12.0184 -10.3414 15.7138 -0.799177 -0.400153 0.448546 11 13 6
4.43749 -1.40364 15.7547 0 0 1 14 23 28
-13.5909 -9.73896 13.247 0 0 1 0 1 1
-6.88102 -12.1682 19.1431 -0.209856 -0.565159 0.797844 11 7 8
-11.0967 -10.6307 16.7994 0 0 1 0 0 4
-13.1038 2.02123 13.7409 0 0 1 33 37 44
-13.9563 -9.43289 11.6371 0 0 1 7 5 8
-3.33557 0.116924 -0.592717 -0.034314 0.972904 -0.228648 99 101 98
-11.8628 -10.4084 15.9125 -0.757679 -0.447454 0.475086 13 8 0
-6.14659 3.36545 13.593 0 0 1 18 22 31
-3.28488 0.118342 -0.599613 -0.0103527 0.926678 -0.375713 107 109 106
-3.47418 -0.0818711 -0.492084 -0.867997 -0.215931 -0.447163 24 29 35
-11.7285 2.76056 13.4231 0 0 1 52 62 72
-6.64948 4.66933 7.84073 0 0 1 105 107 104
-3.33465 0.05567 -0.302883 -0.996534 0.0380764 -0.0739617 40 49 58
-3.15512 -2.20281 12.5618 0 0 1 51 60 69
-6.76286 4.41716 12.2951 0 0 1 12 17 21
-5.92358 2.9441 5.00802 0 0 1 152 154 151
-13.5881 -9.87115 12.5778 0 0 1 6 8 0
-3.32327 0.0389755 -0.274415 -0.996534 0.0380764 -0.0739617 26 32 37
-10.6107 -10.8342 17.2482 -0.142743 0.854556 0.499358 6 6 8
-13.4608 -9.96095 12.8892 -0.904027 -0.298532 0.305963 7 3 6
0.901674 -1.07857 7.36849 0 0 1 32 36 45
-11.8837 -10.3623 15.919 -0.757679 -0.447454 0.475086 102 114 49
-8.69448 -6.79476 12.5918 0 0 1 56 64 75
-14.6302 -9.05954 10.5932 0 0 1 0 0 1
4.41999 -3.44299 14.026 0 0 1 36 45 52
-13.3859 -10.0307 13.0423 -0.904027 -0.298532 0.305963 7 10 0
1.85885 5.47676 9.43248 0 0 1 194 196 193
-12.8111 -10.3399 14.2014 -0.854168 -0.348366 0.386056 3 4 5
-6.1924 4.57498 7.6887 -0.293927 -0.864669 -0.407375 105 107 104
-1.88761 3.98462 6.57994 0 0 1 174 176 173
4.44124 -5.90788 21.274 0 0 1 36 45 50
7.26255 2.5764 15.9307 0 0 1 87 89 86
-3.48652 0.109027 -0.657821 -0.09429 0.947197 -0.306477 54 55 54
-6.4628 4.59009 7.90286 -0.605706 -0.770893 -0.19709 155 157 154
-14.7507 4.59479 16.6876 0 0 1 52 60 71
1.31489 -0.0433294 11.7777 0 0 1 16 25 32
-10.4214 -2.0925 11.1655 0 0 1 18 22 31
-9.97794 4.6807 7.51559 0 0 1 153 155 152
-2.31673 4.20293 7.45333 0 0 1 173 175 172
9.01371 2.31204 12.977 0 0 1 215 217 214
-11.7038 -11.7678 18.591 0 0 1 6 1 0
-3.3862 0.155555 -0.500373 -0.151233 0.980434 -0.126005 96 98 95
-8.07831 -12.0227 18.5087 0 0 1 0 2 3
-3.33616 0.147155 -0.52011 -0.0843349 0.968327 -0.23501 71 73 70
-14.0201 -8.63889 10.0329 0 0 1 1 0 1
-13.424 -9.4253 13.5539 -0.870579 -0.362415 0.332787 5 1 2
-3.0517 0.0958654 -0.749917 0.909248 0.117018 -0.399468 71 73 70
-3.63112 -0.0990539 -0.231636 -0.784066 -0.162142 -0.599125 17 21 30
-14.4232 -8.38782 9.71586 0 0 1 6 9 0
-13.0713 -9.73381 14.1871 0 0 1 0 5 5
-14.3138 -8.44375 10.3726 0 0 1 9 6 0
-7.51166 -8.6551 14.5398 0 0 1 0 0 0
-13.9532 -9.01452 12.0182 0 0 1 6 3 0
-12.8095 -10.3993 14.1514 -0.854168 -0.348366 0.386056 1 8 5
-2.17663 4.32158 7.96187 0 0 1 173 175 172
-13.4057 -9.53236 13.4854 -0.870579 -0.362415 0.332787 6 8 0
-7.27538 4.4471 7.65115 0 0 1 71 73 70
-13.5435 -9.81736 12.7682 0 0 1 4 3 2
-11.6314 -10.4519 16.2204 0 0 1 117 118 66
-14.4525 5.22966 17.493 0 0 1 152 154 151
-2.57931 -3.64775 14.4066 0 0 1 60 73 82
-3.33906 0.133891 -0.565469 -0.0805471 0.982919 -0.165477 24 25 24
-2.68549 -3.29962 7.19895 0 0 1 13 20 30
-11.0505 -10.9254 16.6071 0 0 1 0 0 7
-3.32926 -0.343921 -0.359014 -0.714376 -0.695841 0.0739803 49 58 68
-11.317 -3.03013 10.4541 0 0 1 55 63 74
-6.31597 -4.08123 8.95405 0 0 1 35 44 51
-2.78755 4.41005 11.1669 0 0 1 48 57 63
-12.6059 -9.9496 15.003 -0.733735 0.454054 0.505438 20 2 0
-7.66298 4.70131 11.3112 0 0 1 155 157 154
-13.0169 -5.84175 9.95809 0 0 1 3 11 20
-12.9668 -9.82394 14.3406 -0.853304 -0.381995 0.354897 6 7 0
-12.4707 -10.0263 15.2069 -0.79618 -0.414591 0.440694 6 4 1
-14.2159 -9.2349 10.7264 0 0 1 88 80 54
-14.4279 -8.28876 9.63183 0 0 1 145 150 94
2.34494 -1.24201 16.778 0 0 1 14 23 30
-11.0201 -10.8213 17.0877 0 0 1 126 132 45
-5.60831 -4.56224 11.2558 0 0 1 57 65 76
1.61677 4.68781 8.38844 0 0 1 198 200 197
-11.3215 2.42115 12.4016 0 0 1 17 21 30
-2.57759 -2.13711 9.61179 0 0 1 10 13 18
-3.37874 0.202282 -0.146835 -0.950914 0.0390733 -0.306978 150 154 151
-3.6505 0.0834716 -0.666549 -0.112461 0.862113 -0.494079 141 143 140
7.26478 0.753447 11.0456 0 0 1 0 0 0
-10.6997 -10.9133 17.3581 -0.142743 0.854556 0.499358 8 8 0
-2.6301 -3.85417 9.29177 0 0 1 18 22 31
-11.9679 -10.3622 15.785 -0.774226 -0.417269 0.475878 1 2 0
-11.5175 -1.38762 17.1557 0 0 1 14 23 30
-6.33003 -2.29639 9.98069 0 0 1 16 23 31
-1.61975 4.13728 9.28139 0 0 1 0 0 0
1.46361 -1.63929 9.21421 0 0 1 32 36 45
-3.11999 0.0961245 -0.748748 -0.467513 0.602126 -0.647207 164 166 163
-11.8605 -10.4106 15.9076 -0.757679 -0.447454 0.475086 13 8 0
6.94416 -2.17745 16.3167 0 0 1 32 41 48
-4.37279 -3.7476 8.97139 0 0 1 57 65 76
-11.6059 -10.5163 16.2095 0 0 1 3 5 0
1.79315 -1.21886 13.6043 0 0 1 50 58 69
-10.4201 -10.8438 17.4181 0 0 1 11 6 3
7.01335 -7.03101 17.6016 0 0 1 35 40 44
7.43695 2.35371 14.8207 0 0 1 88 90 87
-6.46255 -5.03474 10.184 0 0 1 57 65 76
-2.29421 5.13796 14.8023 0 0 1 173 175 174
-12.9492 -9.78471 14.6193 -0.266386 0.146258 0.952705 9 2 10
-15.0044 -9.3247 8.98016 0 0 1 3 1 2
-12.1986 7.14348 16.9497 0 0 1 147 149 146
-2.77026 -2.35873 9.02881 0 0 1 55 65 75
-1.58115 -2.35203 8.17685 0 0 1 18 22 31
-3.02924 -0.342874 0.0123691 -0.860663 0.505957 -0.0571594 18 22 31
-2.03792 4.57772 12.085 0 0 1 173 175 172
-3.78117 0.104284 -0.562926 -0.812296 0.0304804 -0.582449 162 163 157
-6.44977 -2.09603 10.0262 0 0 1 15 24 31
1.48018 -0.378428 10.8519 0 0 1 50 58 68
-12.2527 -10.1605 15.4842 0 0 1 10 7 0
-13.3277 -10.0075 13.2327 0 0 1 3 4 2
-8.68644 -11.8029 18.1456 0 0 1 0 4 0
6.94058 2.77034 16.4506 0 0 1 175 177 174
-0.385063 3.76262 7.25989 0 0 1 201 203 200
9.58108 2.43054 12.6646 0 0 1 134 136 133
-9.65813 -9.81936 15.6511 0 0 1 8 14 3
4.88958 -3.4108 13.4182 0 0 1 60 72 84
-11.1949 -11.1424 16.2507 0 0 1 0 0 4
-3.48004 0.100837 -0.701949 -0.0563749 0.927147 -0.370432 102 104 101
9.38508 2.32377 13.2118 0.259602 -0.952494 0.159253 211 213 210
7.58792 -0.581525 10.3916 0 0 1 128 130 127
-3.31802 0.107057 -0.645632 0.0305262 0.95378 -0.29895 107 108 106
-2.82189 -2.02337 9.81871 0 0 1 10 20 29
-3.32576 0.131785 -0.35265 0.427826 0.885931 0.179139 6 9 10
-11.0432 -11.2195 16.3843 0 0 1 0 3 1
-7.71453 4.43621 7.9278 0 0 1 152 154 151
-3.3496 -0.116351 -0.320557 -0.79649 -0.148041 0.586248 18 22 31
-12.6536 -9.93399 14.8476 -0.182268 0.867587 0.462679 0 3 0
-7.16739 4.37768 13.7776 0 0 1 13 19 27
1.68795 1.42318 14.3142 0 0 1 16 25 32
-3.74466 0.0966588 -0.537069 -0.810999 0.0271232 -0.584419 157 162 158
-7.08038 2.45444 12.8117 0 0 1 18 22 31
-9.55005 -11.6868 17.6262 0 0 1 3 4 4
-10.4006 -11.4274 16.9815 0 0 1 3 2 5
-3.48386 0.105472 -0.590116 -0.318696 0.940679 -0.116427 75 81 81
-7.59971 4.64863 11.1168 0 0 1 155 157 154
-10.254 -11.4683 17.1061 0 0 1 1 1 6
-9.47437 -2.10223 9.04556 0 0 1 18 22 31
-3.68163 0.0996125 -0.634659 -0.601191 -0.0109213 -0.799031 142 144 141
-10.1239 -0.516675 10.8873 0 0 1 14 23 28
-3.22447 -0.341094 -0.191768 0.37539 -0.711113 -0.594476 57 65 76
-4.07413 0.0883332 -0.134162 0 0 1 8 13 19
-12.9742 -9.7565 14.3954 0 0 1 6 6 7
-3.47546 -0.190126 -0.503614 -0.735858 0.42294 -0.528805 54 64 73
0.117617 -1.20474 8.25424 0 0 1 51 59 70
-1.73178 1.14557 4.34476 0 0 1 53 61 72
-13.6267 -11.7134 17.1229 0 0 1 0 0 2
-3.06424 0.0901199 -0.762448 0.913366 0.152195 -0.377622 100 102 99
-3.63273 0.0842015 -0.700517 -0.248494 0.712428 -0.656275 97 99 96
-3.55309 -0.0682451 -0.416982 -0.811631 -0.0904458 -0.577127 55 63 74
-12.0185 -10.2193 15.8225 -0.799177 -0.400153 0.448546 2 3 5
-2.76724 2.25507 10.3305 0 0 1 18 22 31
-6.16123 4.52006 7.76764 -0.611084 -0.742216 -0.275123 154 156 153
2.48867 -1.02127 12.9628 0 0 1 50 58 69
4.45266 -0.104906 12.0099 0 0 1 16 25 32
-3.45946 0.117611 -0.605467 -0.258732 0.952449 -0.160931 83 87 90
-10.0981 -11.5508 17.2434 0 0 1 57 59 28
-13.8836 -9.54201 11.8351 0 0 1 1 0 1
0.880384 -0.903044 5.97871 0 0 1 18 22 31
-12.9966 -10.2472 13.8642 0 0 1 1 3 0
-4.04498 -0.973659 2.828 0 0 1 56 66 75
-12.4247 -10.629 14.7385 0 0 1 11 7 6
-3.33392 0.142649 -0.52911 -0.0979854 0.975915 -0.194906 71 73 70
5.79921 -1.34821 4.77633 0 0 1 126 128 125
-10.6607 -11.3236 16.7706 0 0 1 5 0 9
-3.1445 -2.14335 8.51388 0 0 1 111 112 106
-3.2062 -0.136114 -0.700941 -0.221782 0.972253 0.0744102 0 0 0
-3.32059 -0.21851 -0.350706 -0.866311 -0.411732 0.282812 31 36 46
-3.06578 3.33132 10.4797 0 0 1 18 22 31
2.33266 5.08978 14.8995 0 0 1 104 106 103
-11.7077 4.32531 13.5084 0 0 1 50 55 61
-11.6918 -10.649 15.8337 0 0 1 0 2 1
-13.86 4.91088 15.9522 0 0 1 48 58 67
-3.48147 -0.293594 -0.541918 -0.850202 0.503346 -0.154269 26 32 37
-3.26447 -0.0685618 -0.934354 0.312878 0.786666 -0.532225 55 63 74
-14.1801 -8.65359 11.157 0 0 1 3 0 0
-7.54994 4.71458 9.02504 0 0 1 72 74 71
-2.49288 -1.97175 9.85817 0 0 1 51 59 70
4.28783 0.557567 6.00428 0 0 1 123 103 92
5.01778 -4.52441 14.8969 0 0 1 35 39 48
-5.98925 -2.48793 9.93671 0 0 1 57 65 76
-13.8689 -9.05808 12.3663 0 0 1 0 2 0
2.52315 1.54094 2.71124 0 0 1 47 42 36
-13.1931 -9.65055 13.9658 0 0 1 2 4 0
-7.83755 4.67971 9.29541 0 0 1 71 73 70
-14.1162 -9.3328 11.072 0 0 1 0 1 5
-4.95934 -3.76218 10.631 0 0 1 57 65 76
-3.02006 -2.34421 9.80645 0 0 1 56 66 76
-3.59381 -0.233888 -0.74223 0.379426 0.884492 -0.271495 5 12 18
1.24194 -4.54243 10.1503 0 0 1 61 72 81
-12.2599 -10.7063 14.9759 0 0 1 0 1 2
-9.58141 4.44125 7.10344 0 0 1 154 156 153
-14.1816 -8.76026 11.035 0 0 1 2 1 0
1.52178 -0.0681246 10.4218 0 0 1 13 23 29
-13.9236 -8.96938 12.2165 0 0 1 36 34 10
-12.896 -10.3249 14.0271 -0.854168 -0.348366 0.386056 19 18 3
-6.59043 2.27408 11.5301 0 0 1 10 19 28
-12.8672 -9.9498 14.4446 -0.850995 -0.349491 0.392 1 1 6
6.84897 -7.11472 14.7249 0 0 1 37 41 47
-14.344 -8.39471 10.1646 0 0 1 34 35 0
2.23047 2.22214 3.4851 0 0 1 173 175 172
8.15698 2.32679 14.2422 0 0 1 88 90 87
-3.33253 0.098213 -0.505774 -0.101976 0.99463 0.0176758 149 154 150
1.17737 -2.50477 10.4411 0 0 1 60 72 84
-2.81706 -4.21383 9.00276 0.772208 0.462357 0.435799 57 67 76
-3.28472 -2.44921 9.39896 0 0 1 34 39 45
-9.53832 -2.70096 8.62929 0 0 1 53 65 73
0.312304 -1.86613 8.23376 0 0 1 18 22 31
-8.98191 -11.8457 18.0117 0.307654 0.324837 0.894332 165 171 80
-2.61642 4.43123 7.07234 0 0 1 147 149 146
-12.3694 -10.0846 15.344 -0.804155 -0.402643 0.43728 101 88 59
-3.57371 -0.022367 -0.393768 -0.806378 -0.00422058 -0.591386 55 63 74
-9.13955 -11.8706 17.877 0.59908 0.494956 -0.629382 2 9 6
-11.329 3.88276 12.7538 0 0 1 13 23 32
-3.34386 0.178097 -0.246664 -0.983481 -0.00821774 -0.180825 49 57 66
-3.50133 0.145585 -0.451553 -0.623041 0.646139 -0.440822 12 16 25
-3.87672 0.106881 -0.382176 -0.776534 0.0867728 -0.624071 9 12 19
-3.02972 0.121947 0.439829 0 0 1 13 23 32
-12.7064 -9.93244 14.8674 -0.266634 0.853951 0.446849 1 1 2
-7.59759 4.61348 7.83232 0 0 1 152 154 151
-12.692 -10.0198 14.9043 -0.626963 0.717736 0.30294 0 0 2
-10.8353 2.68427 12.5245 0 0 1 53 61 72
4.46356 -2.29018 21.8629 0 0 1 16 25 32
-4.60183 1.78684 5.62518 0 0 1 18 22 31
-7.64565 4.66801 11.1233 -0.369964 -0.920059 0.128914 153 155 152
-11.1109 2.34618 12.1274 0 0 1 18 27 36
-3.44996 -0.175461 -0.591889 -0.720191 0.683661 -0.118035 54 64 73
-5.46316 3.54265 5.81892 0 0 1 102 104 101
-3.38194 -0.0811561 -0.675587 -0.712001 0.178995 0.678981 18 22 31
-3.09059 0.0971993 -0.659631 0.712499 0.673438 0.197047 99 101 98
-3.50762 -0.21753 -0.77593 -0.433657 0.888763 0.148463 55 64 73
-3.56416 0.162157 -0.399935 -0.860489 0.066383 -0.505126 133 138 132
-3.44331 3.74616 11.9075 0 0 1 18 22 31
-8.03502 -3.55901 5.89225 0 0 1 96 114 133
-3.1276 -0.0676282 -0.802772 0.830286 -0.332962 -0.446946 44 52 46
-13.646 -9.77913 12.4692 0 0 1 28 28 0
5.44339 3.43179 12.2265 0 0 1 53 55 52
-14.2027 -8.74038 10.1643 0.291355 0.188992 0.93776 0 1 3
-2.0985 -2.55191 9.30494 0 0 1 18 22 31
-10.4342 5.71324 13.0059 0 0 1 66 68 65
-13.3924 -9.99708 13.0561 -0.905548 -0.287557 0.311921 65 72 27
7.07209 2.72196 16.6406 0 0 1 84 86 83
-3.07603 -0.357174 0.12012 0.269167 -0.963032 -0.0109192 56 66 76
-12.4888 -10.3345 14.9301 0 0 1 0 0 5
-3.66369 0.0800233 -0.677061 -0.536005 0.179535 -0.824904 84 86 83
-6.26531 3.94548 7.65722 0 0 1 71 73 70
-10.1593 -4.62159 9.22581 0 0 1 35 44 51
0.958758 -1.90584 10.8315 0 0 1 32 36 45
-13.5673 -9.3604 13.1705 0 0 1 206 206 145
-3.48143 0.0367655 -0.504302 -0.949281 0.265116 -0.169054 11 15 20
1.34202 0.523882 11.6367 0 0 1 18 23 29
9.80499 2.32105 12.3537 0.399474 -0.901474 -0.166627 86 88 85
-3.48666 -0.211459 -0.502067 -0.955438 -0.291721 -0.0451432 55 63 74
-12.4682 -10.3304 14.9154 0 0 1 0 0 5
6.90775 -5.66122 12.5037 0 0 1 35 39 48
1.77321 -0.376323 10.0157 0 0 1 50 58 69
-3.39863 0.090594 -0.731785 -0.101775 0.902271 -0.418986 0 0 0
-3.44933 -0.167438 -0.687345 -0.899916 0.283887 0.330998 55 63 74
9.60385 2.45217 12.7325 0 0 1 134 136 133
-11.3555 -10.5738 16.5127 0 0 1 56 62 29
-3.11886 -0.072629 -0.844944 0.838562 -0.282713 -0.465711 156 97 117
-4.28214 -1.3178 4.02739 0 0 1 57 65 76
-11.7349 -10.8929 15.6743 -0.756658 -0.204598 0.620974 7 1 0
-10.9334 -10.7162 16.8916 -0.58595 0.539112 0.604997 86 91 7
-10.3135 5.05844 9.08765 0 0 1 152 154 151
-13.9984 -9.4605 11.4491 0 0 1 158 162 24
-6.0537 4.51365 7.55395 0 0 1 148 150 147
0.74373 -1.22579 7.53863 0 0 1 29 36 44
-14.4001 -8.743 10.0034 0 0 1 0 1 0
-12.7735 -9.83141 14.7056 -0.203337 0.738048 0.643382 10 5 1
-14.2557 -8.54576 10.7383 0 0 1 40 48 5
4.69754 -1.67179 15.0308 0 0 1 61 72 79
-14.0084 -9.13415 11.63 0 0 1 1 1 3
-3.42598 -0.23239 -0.696091 -0.623545 0.709231 0.328912 34 44 51
-13.4062 -9.47795 13.5431 -0.870579 -0.362415 0.332787 193 193 89
-1.92776 -1.08125 8.53364 0 0 1 51 59 70
1.75535 2.27319 17.5431 0 0 1 11 21 30
-10.0776 -11.534 17.2212 0 0 1 57 59 28
-12.9363 -9.85521 14.6437 -0.31363 0.551556 0.772931 7 3 6
3.62907 0.548407 7.44718 0 0 1 48 57 64
-10.6269 -11.1205 16.9749 0 0 1 0 0 1
-3.85518 0.143993 -0.367451 -0.776534 0.0867728 -0.624071 36 45 50
-8.66904 -6.77446 12.6935 0 0 1 57 67 79
-7.26959 4.60334 10.9261 0 0 1 98 100 97
-8.27338 -12.0142 18.3488 0 0 1 9 9 0
-3.1401 3.62357 11.2551 0 0 1 16 22 30
-3.40576 -0.147985 -0.436753 -0.637868 -0.597138 0.486364 18 22 31
-7.28357 -2.29792 10.9087 0 0 1 18 22 31
2.20497 5.59475 15.1708 0 0 1 104 106 103
-6.79281 4.53602 8.85981 0 0 1 72 74 71
-7.05118 4.12509 12.4825 0.886287 -0.327098 0.327875 151 157 154
-7.05895 -0.258312 11.5791 0 0 1 18 22 31
0.0809383 4.71484 8.38953 0 0 1 199 201 198
0.841341 -2.732 6.48743 0 0 1 60 72 84
-12.9827 -9.94012 14.6964 -0.318602 0.547251 0.773957 4 4 3
-7.36327 -12.1187 18.8211 -0.550551 -0.676011 0.489799 226 229 154
-12.8199 -9.95068 14.7321 -0.369859 0.706125 0.603815 60 55 0
-3.64603 -0.0815998 -0.626889 0.656648 0.354108 -0.665899 9 12 19
-9.27632 -11.8202 17.7864 0.59908 0.494956 -0.629382 7 8 0
-11.3914 -10.4262 15.5044 0 0 1 0 1 0
-11.5484 -10.5864 15.7292 0 0 1 0 1 0
0.846928 2.45544 5.65363 0 0 1 99 105 101
-7.10877 4.61263 8.49227 0 0 1 72 74 71
2.85503 3.2623 14.9334 0 0 1 105 107 104
-7.8574 -12.0196 18.6547 -0.16159 -0.979959 -0.116486 2 1 0
-7.23952 4.22597 7.27897 0 0 1 152 154 151
-11.2897 2.7287 11.3013 0 0 1 18 22 31
-3.29655 -0.32 -0.425326 -0.666364 -0.708876 -0.231201 56 67 73
-1.63168 -1.45727 15.3742 0 0 1 51 59 70
-3.47573 -0.266785 -0.582053 -0.931886 0.258428 -0.254567 55 63 74
-8.801 3.93584 8.8549 0 0 1 152 154 151
-6.37305 4.5859 7.76779 -0.254192 -0.92482 -0.28301 103 105 102
-12.1165 2.01056 12.6966 0 0 1 55 63 74
-14.2798 -8.75291 10.1792 0.291355 0.188992 0.93776 0 2 1
-3.42303 -0.161554 -0.640655 -0.726338 0.676346 0.12243 0 0 0
-7.30669 -12.1175 19.005 -0.694336 -0.694064 0.190191 5 3 4
0.871794 -4.32492 10.2664 0 0 1 43 52 61
-3.51527 -0.196815 -0.808626 -0.647122 0.195183 0.736978 0 0 0
-3.08048 0.103346 0.199173 0 0 1 11 22 27
-11.7315 -10.9911 15.6285 -0.756658 -0.204598 0.620974 15 12 0
1.35005 -4.03824 9.20794 0 0 1 59 72 81
-10.2749 -2.30146 10.4522 0 0 1 18 22 31
9.3318 2.29964 13.1544 0.259602 -0.952494 0.159253 211 213 210
8.02511 2.73063 20.5361 0 0 1 151 153 150
-6.81652 4.59307 9.07318 0 0 1 72 74 71
-3.08591 4.06324 11.3069 0 0 1 147 149 146
-4.42411 2.24443 3.4459 0 0 1 145 147 144
-10.5307 -4.32788 15.2193 0 0 1 15 24 31
-9.16671 -11.8018 17.9052 0.390377 0.914418 -0.106985 3 4 3
-3.14825 0.153943 -0.141049 -0.472417 -0.873942 -0.114222 16 23 31
-7.77483 4.92016 8.4264 0 0 1 71 73 70
-6.97742 -12.1857 19.0852 0.127544 -0.974931 -0.182326 14 1 0
-11.8417 -10.8786 15.4918 0 0 1 105 102 60
-3.33909 -0.105798 -0.23674 -0.888358 -0.0757479 0.452861 15 23 30
-7.43484 -12.211 18.7696 -0.364868 -0.143674 0.919907 15 1 1
-2.22686 4.26562 10.3123 0 0 1 141 149 152
-3.13186 0.0481399 -0.840058 0.704462 0.304653 -0.64103 102 104 101
-2.10254 4.38145 7.57804 0 0 1 173 175 172
-7.50607 -12.0566 18.7701 -0.410117 -0.166683 0.896672 4 3 4
-12.8342 -9.90491 14.7959 -0.337169 0.700231 0.629281 19 8 6
-6.92289 4.44048 12.7812 0 0 1 14 19 25
-3.48406 -0.0940655 -0.44468 -0.905509 -0.411005 -0.105493 37 44 53
3.41426 -6.84993 16.8388 0 0 1 48 56 67
4.62205 -0.140351 10.3668 0 0 1 16 25 32
-2.19036 4.24597 10.5193 0 0 1 22 27 30
-12.3981 -10.1595 15.2219 -0.808615 -0.416199 0.415836 10 1 0
-3.31574 0.069298 -0.21467 -0.859829 -0.159091 0.485164 18 22 31
-11.7125 4.14498 13.2859 0 0 1 96 102 102
-7.12295 3.97874 12.5305 0.886287 -0.327098 0.327875 51 58 64
-9.94645 -2.37573 10.0564 0 0 1 18 22 31
-7.108 -12.181 19.0114 0.327014 -0.876305 -0.353768 1 2 0
-2.93927 -2.03825 10.0788 0 0 1 57 66 75
-3.09597 -0.438525 -0.121936 -0.817962 -0.235607 0.524812 57 66 77
-11.3195 -0.269568 12.2534 0 0 1 15 22 28
0.0915604 -2.00178 11.7301 0 0 1 32 36 45
0.298741 0.2634 12.3053 0 0 1 0 0 0
-3.1461 -2.52002 9.45444 0.0663214 0.692524 0.718339 57 65 76
6.92335 -0.297404 21.0263 0 0 1 33 42 47
-3.48276 0.0730412 -0.560532 -0.689463 0.723759 -0.0285113 18 22 31
-7.49465 4.642 8.0954 0.256318 -0.922823 0.287574 69 71 68
-6.41917 -1.89231 9.64642 0 0 1 17 23 31
-10.7064 -0.0792413 11.0295 0 0 1 54 64 74
-12.4925 -10.044 15.1393 -0.790648 -0.374118 0.484676 164 175 38
6.7575 -1.95107 19.8933 0 0 1 33 42 49
-10.2199 4.87665 8.19234 0 0 1 152 154 151
-7.66786 -12.0542 18.6824 -0.0594036 -0.988817 -0.136791 3 1 1
0.310248 -1.38757 8.5853 0 0 1 48 61 70
-3.47543 0.120601 -0.491648 -0.480955 0.85746 -0.18288 152 155 153
-6.83934 -12.1379 19.0775 -0.209856 -0.565159 0.797844 94 94 31
0.187283 -1.99122 8.08864 0 0 1 9 11 15
-3.38971 -0.146897 -0.708572 -0.519885 0.722793 0.455291 54 64 74
-13.3752 -9.32343 13.2015 0 0 1 13 13 0
-11.6385 -11.0144 15.7883 -0.397896 -0.89124 0.217648 174 182 43
9.77832 2.3381 12.1975 0.565171 -0.823716 -0.0455284 136 138 135
-6.7277 -12.1889 19.1281 -0.360628 -0.546559 0.755791 4 9 4
0.536144 -1.37667 6.86775 0 0 1 18 22 31
-5.61599 -2.15647 8.53452 0 0 1 57 65 76
-12.2813 -9.62858 14.4492 0 0 1 2 3 0
-3.33664 0.163767 -0.292975 -0.983937 -0.119589 -0.132536 85 89 93
-7.66623 4.61361 8.15721 0.256318 -0.922823 0.287574 158 160 157
0.125388 2.21146 14.2719 0 0 1 12 23 29
-13.9692 -8.61157 9.99603 0 0 1 1 0 0
-2.61672 4.53279 7.43364 0 0 1 95 97 94
-9.58036 -4.2874 8.38381 0 0 1 31 40 49
0.185178 1.99117 5.25193 0 0 1 73 75 72
-12.8557 -10.0856 14.3483 0 0 1 0 1 3
-11.4866 -11.0154 15.73 -0.463382 -0.883543 -0.0680428 5 6 0
-11.4305 0.116825 11.7874 0 0 1 55 63 74
-0.422187 -2.64788 9.55983 0 0 1 18 22 31
-3.27483 -0.0335607 -0.192562 -0.43239 -0.154023 0.888434 44 54 63
-2.98685 3.78364 11.8887 0 0 1 50 61 67
-13.1903 4.98378 15.9664 0 0 1 155 160 163
-3.15489 2.52711 11.459 0 0 1 16 20 29
-7.39397 4.64197 10.7817 0 0 1 95 97 94
-13.3132 -8.76721 9.73361 0 0 1 11 4 1
-6.13187 -4.17874 8.86804 0 0 1 96 113 133
-2.08267 4.18832 7.00021 0 0 1 173 175 172
-10.6946 -2.57775 10.5725 0 0 1 20 24 33
-10.5322 -0.541931 11.538 0 0 1 18 22 31
-10.7682 -10.8928 17.3034 -0.142743 0.854556 0.499358 0 2 0
-6.59328 -12.2317 19.1599 0.0593748 -0.46874 -0.881338 14 20 1
-8.3371 -11.958 18.3849 0 0 1 161 161 93
-2.81327 -4.09152 8.86627 0.772208 0.462357 0.435799 28 32 38
0.041957 4.5587 8.70109 0 0 1 201 203 200
-3.1893 -2.65049 9.5842 0 0 1 56 66 75
-14.3556 -8.97393 10.6263 0 0 1 1 3 0
-11.4977 -11.0711 15.9428 -0.641106 -0.707034 -0.298473 1 0 4
-0.536498 -2.13178 7.76022 0 0 1 18 22 31
-2.5461 2.51671 10.7089 0 0 1 53 61 72
-3.37872 0.147538 -0.528093 -0.16741 0.972453 -0.162198 72 74 71
-6.28424 -3.88488 8.6574 0 0 1 35 44 49
-15.1368 6.09039 11.3525 0 0 1 102 104 101
-10.4555 2.16243 11.2565 0 0 1 15 20 26
-11.6386 4.08822 13.2183 0 0 1 139 143 145
-7.22105 2.58182 13.2785 0 0 1 18 22 31
-3.60535 -0.0862292 -0.299848 -0.818267 -0.0571361 -0.571992 55 65 75
-3.45858 0.0247945 -0.57667 -0.890813 0.410849 -0.194052 18 22 31
-2.77562 3.87929 10.5365 0 0 1 147 149 146
-6.78963 4.61856 9.22127 -0.411084 -0.882984 0.226602 68 70 67
-7.06391 -12.1484 18.9332 0.327014 -0.876305 -0.353768 2 4 1
-2.58792 4.7344 7.82138 0 0 1 176 178 175
-2.74712 -4.20831 8.87297 0.772208 0.462357 0.435799 55 64 73
7.72062 -4.74658 19.6748 0 0 1 174 176 173
-10.1959 -2.52551 9.50036 0 0 1 54 64 74
0.472521 -1.15751 7.44905 0 0 1 51 59 70
1.22769 4.29518 7.91284 0 0 1 194 196 193
-6.95717 -12.1397 19.0637 0.127544 -0.974931 -0.182326 10 1 9
-3.08613 3.79481 11.3137 0 0 1 16 20 27
-9.8594 -11.5875 17.4055 0 0 1 2 0 8
-3.26531 -0.0287779 -0.923762 0.316846 0.690624 -0.650113 101 103 100
-8.74178 -1.63987 11.2998 0 0 1 0 0 0
-12.3846 -10.1177 15.2738 -0.808615 -0.416199 0.415836 121 129 19
-12.4655 6.68861 12.9796 0 0 1 102 104 101
-3.44524 -0.163348 -0.552623 -0.866421 0.432108 -0.250195 18 22 31
-7.26203 -11.9089 18.6096 0 0 1 24 17 7
-12.9713 -10.0595 14.1289 0 0 1 0 1 0
7.92565 6.87198 14.8437 0 0 1 173 175 172
-10.0944 -2.39966 9.64781 0 0 1 54 62 73
-2.40625 4.17461 10.8584 0 0 1 52 62 71
-7.11813 4.11879 12.6572 0.886287 -0.327098 0.327875 149 156 149
-9.05659 -11.9797 18.1186 0.442602 0.395216 0.804927 8 9 1
-7.35016 -12.1207 18.8104 -0.550551 -0.676011 0.489799 226 229 154
-3.30358 -0.152109 -0.584232 -0.524608 0.851343 -0.000929328 0 0 0
-14.095 -8.79004 11.5315 0 0 1 206 214 71
-7.47641 -3.73801 12.4831 0 0 1 0 0 0
-12.6937 -10.2805 14.7767 0 0 1 0 1 1
-3.72655 0.0985867 -0.579266 0.503633 0.836005 0.217827 87 89 86
-2.72952 -3.8666 8.93599 0 0 1 17 21 30
7.34914 2.39612 15.1257 0 0 1 88 90 87
-2.60949 4.58882 7.35923 0 0 1 144 146 143
-4.62685 2.11208 8.19624 0 0 1 18 22 31
6.86045 2.74806 16.9275 0 0 1 87 89 86
1.00298 -1.15897 8.77836 0 0 1 32 36 45
-9.94399 -11.415 17.1225 0 0 1 60 50 41
-2.87031 2.64604 11.4992 0 0 1 52 62 72
9.13685 2.33113 13.394 0 0 1 210 212 209
-2.43042 -3.97065 8.42262 0 0 1 60 66 72
1.73896 -0.611189 10.5017 0 0 1 50 58 69
-5.97553 -1.89254 8.71452 0 0 1 12 23 29
-7.71601 4.66074 9.17787 0 0 1 72 74 71
-2.28243 2.60931 10.4183 0 0 1 53 61 72
1.0639 2.60206 12.6484 0 0 1 105 107 104
-2.74999 2.82369 11.4797 0 0 1 53 61 72
-7.05534 4.85765 14.4147 0 0 1 145 149 145
5.79164 5.38464 18.4992 0 0 1 131 133 130
-13.205 6.6522 15.4236 0 0 1 74 76 73
-1.57078 5.28087 11.4606 0 0 1 173 175 172
6.89781 2.78635 16.2489 0 0 1 170 172 169
-9.45151 0.587478 14.5798 0 0 1 40 49 56
-4.3867 -0.490759 2.04894 0 0 1 18 22 31
1.27771 -1.7204 9.37603 0 0 1 32 36 45
-3.21488 0.0967165 -0.764124 -0.035335 0.872811 -0.486778 146 148 145
-7.65208 4.81363 8.11852 0 0 1 105 107 104
-11.7037 3.79672 13.0928 0 0 1 18 22 31
-14.3018 -8.79721 10.214 0.291355 0.188992 0.93776 0 2 1
-6.81865 4.65071 9.2939 0 0 1 72 74 71
-9.2873 5.13101 9.63185 0 0 1 68 70 67
-3.48841 0.0205328 -0.473093 -0.771495 -0.100361 -0.62827 58 66 77
-10.8255 -10.7347 17.0126 -0.58595 0.539112 0.604997 4 5 0
-6.33888 -4.18634 9.1036 0 0 1 34 43 50
-2.13191 4.23473 6.68607 0 0 1 99 101 98
1.4542 -0.284945 10.8051 0 0 1 49 57 68
-7.08347 -0.101765 11.8644 0 0 1 14 23 30
2.25192 -1.17657 13.3005 0 0 1 50 58 69
-3.48283 0.112166 -0.570527 -0.327573 0.931084 -0.160556 73 77 78
-7.01482 4.74533 14.2347 0 0 1 148 151 148
-3.14403 -0.337895 -0.358228 0.343315 -0.901443 -0.263695 0 0 0
-2.34166 4.52624 12.9236 0 0 1 172 180 183
-6.52052 4.62754 8.05506 0 0 1 102 104 101
0.872586 5.59403 17.0762 0 0 1 53 61 72
-5.64843 2.95888 11.189 0 0 1 18 22 31
-6.67628 -0.0572993 11.0936 0 0 1 11 20 27
-10.6741 -2.578 10.4567 0 0 1 57 61 70
-6.86485 2.39165 11.968 0 0 1 56 65 74
-10.2859 -3.47258 8.0358 0 0 1 55 63 74
-12.5325 -9.99585 15.1084 -0.789272 -0.502707 0.352612 130 134 10
-8.83026 -3.65475 6.13706 0 0 1 101 115 126
1.48697 5.05964 8.46187 0 0 1 194 196 193
-8.66691 -1.57913 11.1894 0 0 1 18 22 31
-6.94673 4.27949 7.09518 0 0 1 103 105 102
-8.86741 5.3757 17.2495 0 0 1 150 154 153
-7.594 4.86977 8.77138 0 0 1 105 107 104
-3.81439 0.129327 -0.437337 -0.816038 0.0968102 -0.569833 1 7 7
-9.02191 -0.889993 14.3693 0 0 1 14 23 30
1.34796 -2.00158 9.35428 0 0 1 60 72 84
-7.27289 -12.1928 18.8588 -0.478163 -0.747633 0.460874 9 4 0
5.0603 -2.28194 15.8789 0 0 1 60 72 84
-7.49041 -12.1117 18.7941 -0.283519 -0.173165 0.943203 63 63 0
-7.52985 4.67668 8.23807 0.256318 -0.922823 0.287574 74 76 73
-8.8274 -12.0481 18.3254 0 0 1 0 7 9
-2.91568 4.58394 11.767 0 0 1 48 57 63
2.56696 1.76598 3.72852 0 0 1 47 42 36
-12.187 4.85644 14.9165 0 0 1 152 154 151
-3.03652 -0.347119 0.20733 0.269167 -0.963032 -0.0109192 57 66 75
-12.784 2.11947 14.1161 0 0 1 54 63 70
-1.85025 -1.2633 12.941 0 0 1 0 0 0
0.235851 -1.72451 8.97764 0 0 1 53 63 72
-3.16284 0.0792867 -0.788603 -0.24217 0.826118 -0.508805 163 165 162
1.19432 0.0363333 11.814 0 0 1 16 25 32
-3.13431 3.86894 11.9266 0 0 1 11 18 25
-1.12862 -1.04896 10.654 0 0 1 51 59 70
-5.78546 2.03017 10.0054 0 0 1 16 22 30
-2.87072 2.35297 10.3394 0 0 1 18 22 31
2.71796 -0.863216 13.4074 0 0 1 14 23 29
-2.5032 4.30665 7.08204 0 0 1 99 101 98
-14.5108 2.43649 15.6775 0 0 1 18 21 28
-9.14402 -11.8388 18.0975 0.17441 0.820095 0.545001 3 8 0
-6.38438 4.5532 7.88146 -0.470702 -0.834322 -0.28696 154 156 153
9.02076 2.40539 13.8152 0 0 1 215 217 214
-2.37251 5.19103 15.3748 0 0 1 168 176 178
-6.51977 -2.69329 10.589 0 0 1 55 68 76
1.31002 0.531549 6.1087 0 0 1 0 0 0
5.051 -4.04287 13.874 0 0 1 35 39 48
7.5609 2.87854 21.5608 0 0 1 151 155 154
5.57244 6.34213 12.3147 0 0 1 173 175 172
-6.14525 -2.21019 9.74713 0 0 1 28 32 38
2.8064 1.54876 5.14172 0 0 1 170 172 169
7.5744 2.75112 22.1788 0 0 1 36 48 59
-13.1337 2.07102 14.3195 0 0 1 60 69 76
9.41491 2.29702 12.254 0 0 1 134 136 133
-3.30054 0.133588 -0.529774 -0.0965736 0.978107 -0.184337 66 69 66
-2.50418 3.09259 4.81705 0 0 1 99 101 98
-3.97296 -3.16515 11.7677 0 0 1 57 65 76
4.84799 -5.31091 17.7922 0 0 1 31 39 50
-14.8326 2.03286 15.9101 0 0 1 54 64 73
-6.14729 4.53871 7.68637 -0.603017 -0.746478 -0.281319 98 100 97
-2.76127 4.37774 11.0172 0 0 1 51 57 60
-7.70147 4.8636 10.3473 0 0 1 69 71 68
-11.8366 -10.9344 15.5838 -0.809426 -0.143435 0.569434 32 30 0
-12.6224 -9.89509 14.787 -0.137335 0.768747 0.624633 1 0 1
-3.38516 -0.110685 -1.04906 0.719261 -0.255184 -0.646177 97 99 96
-3.24479 -0.0292833 -0.921003 0.336796 0.619269 -0.709278 14 18 27
-12.9331 -9.61412 14.6516 0 0 1 0 0 8
0.929156 5.08096 13.6508 0 0 1 45 56 62
-7.09711 -0.338282 11.6529 0 0 1 0 0 0
-3.44414 0.0841849 -0.672838 -0.0219511 0.894029 -0.44747 150 155 149
0.387445 -0.964987 7.2393 0 0 1 51 59 70
6.07861 -0.554619 4.29456 0 0 1 124 126 123
-7.83292 -0.564538 12.6432 0 0 1 18 22 31
-3.17477 -2.70426 10.4688 0 0 1 18 22 31
-2.71235 3.65164 10.8066 0 0 1 53 63 71
-7.37471 4.70766 14.6147 0 0 1 13 20 26
2.2205 -1.34975 15.7251 0 0 1 50 59 68
-3.515 0.143566 -0.443886 -0.7111 0.564087 -0.419694 18 22 31
-7.60495 4.51657 7.82577 0.716645 -0.101061 0.690077 149 151 148
-6.76056 4.44299 12.3917 0 0 1 17 21 22
0.967536 -0.98593 6.824 0 0 1 30 34 43
-3.11102 0.0687602 -0.805264 0.833948 0.236867 -0.498423 100 102 99
-3.46534 -0.0727538 -0.542218 -0.918825 -0.240065 -0.313257 55 63 74
-3.0335 3.58757 10.8217 0 0 1 18 22 31
4.78283 -1.77124 15.4186 0 0 1 62 75 83
0.758726 3.95312 10.9438 0 0 1 46 56 65
1.49622 -4.7751 10.1207 0 0 1 0 0 0
0.95767 -4.13766 9.8543 0 0 1 60 72 84
-2.82999 3.89417 10.8424 0 0 1 145 149 146
-2.23576 -2.02618 8.71209 0 0 1 18 23 29
-7.71288 -12.0581 18.7774 -0.16159 -0.979959 -0.116486 3 0 0
2.65882 4.56183 18.2575 0 0 1 102 106 106
-3.33323 -0.195174 -0.416716 -0.783849 -0.523355 0.334187 18 22 31
-8.87545 -11.7791 17.993 0 0 1 6 3 3
0.751972 0.0330987 8.76248 0 0 1 30 37 45
1.1385 0.109969 10.9604 0 0 1 45 55 64
0.825803 -1.60735 7.70206 0 0 1 59 73 84
1.49148 0.152069 9.44024 0 0 1 0 0 0
-1.93097 4.3556 7.54052 0 0 1 173 175 172
-3.07306 -0.461975 -0.0716595 -0.90709 0.148808 0.393757 14 23 30
-9.02902 5.28866 15.5418 0 0 1 16 20 21
1.92765 3.91935 9.17786 0 0 1 127 129 126
0.866637 -1.28976 7.078 0 0 1 60 72 84
-10.8619 -10.703 16.9491 -0.58595 0.539112 0.604997 202 211 119
1.21428 -4.76026 10.2225 0 0 1 57 51 45
0.803599 0.331754 7.56437 0 0 1 31 35 43
0.326436 3.81059 6.57227 0 0 1 201 203 200
6.70776 2.72982 16.9957 0 0 1 85 87 84
1.0617 0.396596 10.3044 0 0 1 45 55 64
-3.69447 0.10331 -0.584272 -0.767178 -0.289666 -0.572304 117 119 122
-0.445136 -0.665202 8.01996 0 0 1 51 59 70
-12.5829 -10.5507 14.5102 0 0 1 8 8 8
-3.30007 -0.0252957 -0.255353 -0.991319 0.105938 0.0778675 44 54 63
8.86081 2.25517 13.2871 0 0 1 213 215 212
-5.99716 -4.58625 9.30592 0 0 1 0 0 0
1.30124 -2.17732 9.65572 0 0 1 59 73 82
0.364919 3.89067 6.81451 0 0 1 202 204 201
-9.38959 -7.29385 13.3044 0 0 1 56 66 73
-2.06314 4.43525 12.0403 0 0 1 172 175 171
7.47605 2.58499 20.7415 0 0 1 41 51 62
-3.49299 0.122545 -0.451131 -0.606643 0.788483 -0.101386 53 62 70
-2.84846 3.64523 10.6735 0 0 1 19 21 33
2.62187 0.462705 9.77524 0 0 1 16 25 32
-3.27623 -0.0031162 -0.70317 -0.473056 0.0705919 -0.8782 36 42 52
-5.53092 -4.50773 11.173 0 0 1 57 65 76
-2.72544 2.37337 10.8355 0 0 1 21 24 28
-3.51621 -0.0738011 -0.428386 -0.899666 -0.132986 -0.415832 55 63 74
1.51442 -0.0660453 10.4367 0 0 1 16 25 32
3.43127 -4.83544 21.0663 0 0 1 36 45 52
1.30885 -1.99869 9.87887 0 0 1 32 37 43
1.19353 -2.40032 7.53078 0 0 1 60 72 84
0.988866 -2.55218 6.69647 0 0 1 60 72 84
1.09742 2.83056 4.46474 0 0 1 202 204 201
9.12604 2.32539 12.6594 0 0 1 134 136 133
-2.51724 -2.07839 9.17955 0 0 1 57 66 75
0.723073 0.453949 11.2774 0 0 1 45 55 64
-9.15235 -12.1298 18.3221 0 0 1 6 2 2
-8.94591 -12.2078 18.5117 0 0 1 0 3 2
-3.21824 0.13483 -0.0300809 -0.472417 -0.873942 -0.114222 18 22 31
-8.35082 -3.71214 13.1046 0 0 1 54 64 73
2.47609 -0.941073 13.8198 0 0 1 49 59 68
-3.27609 -0.033177 -0.146529 -0.622766 -0.101624 0.77578 44 54 63
-0.646198 -2.23268 7.93944 0 0 1 18 22 31
0.540305 -0.0597437 12.7226 0 0 1 16 25 32
2.28676 -1.21682 14.523 0 0 1 50 59 68
-3.25633 -0.318603 -0.230674 0.433515 -0.736872 -0.518733 0 0 0
-8.33181 -2.69349 6.17457 0 0 1 0 0 0
0.508102 3.54902 6.01782 0 0 1 201 203 200
2.26449 -1.03074 14.2004 0 0 1 49 59 68
6.9094 -4.77112 15.9138 0 0 1 36 41 47
1.23308 -2.20979 9.36701 0 0 1 60 73 82
-2.39808 2.56106 10.5805 0 0 1 53 61 72
1.06301 -1.72615 9.78977 0 0 1 32 36 45
1.80064 0.0834931 11.5435 0 0 1 16 25 32
4.40213 3.55191 13.7713 0 0 1 170 172 169
-3.29953 -0.182951 -0.51961 -0.34873 0.666151 0.659265 57 65 76
1.89525 -1.16404 11.8085 0 0 1 50 58 69
-3.76856 0.112233 -0.498421 -0.808108 0.0915162 -0.581881 37 44 50
1.33038 -0.0954331 10.6545 0 0 1 42 55 63
-3.13088 0.0775852 -0.795005 -0.448959 0.747101 -0.49018 116 118 115
-10.7335 2.71379 17.5979 0 0 1 0 0 0
0.688913 -4.2731 10.7438 0 0 1 43 52 61
1.54415 0.26602 9.15751 0 0 1 43 56 64
-3.46087 0.0999518 -0.62543 -0.303176 0.942478 -0.140781 154 161 153
1.40534 -3.29363 8.24509 0 0 1 60 72 84
1.26886 -2.09285 8.86135 0 0 1 60 72 84
0.518558 0.325954 8.21976 0 0 1 32 37 43
-3.29144 -0.0796212 -0.601397 -0.561596 0.0796721 -0.823567 13 22 29
-10.1855 -8.10314 11.7584 0 0 1 1 1 2
-2.65589 3.48814 5.70317 0 0 1 148 150 147
-5.02664 2.51788 4.68265 0 0 1 70 72 69
-3.14628 -0.254548 -0.21941 -0.787203 0.324289 -0.524546 57 65 76
9.32578 2.30924 13.2216 0.259602 -0.952494 0.159253 213 215 212
-4.13133 -0.252229 3.29025 0 0 1 18 22 31
-2.8346 -1.15745 4.36084 0 0 1 18 22 31
-3.17376 2.42324 11.1292 0 0 1 16 23 31
6.90044 -5.46805 18.94 0 0 1 60 73 81
-5.87523 -2.38662 9.60183 0 0 1 57 65 76
0.0472611 3.14944 13.5485 0 0 1 53 61 72
-8.50994 -1.44512 10.9333 0 0 1 18 22 31
0.420264 3.81196 11.4885 0 0 1 53 61 71
-3.09468 0.096483 -0.768063 0.865211 0.220358 -0.45039 151 153 150
-3.37451 -0.0982381 -0.273426 -0.899734 -0.0996667 0.424906 18 22 31
-3.12485 -0.234018 -0.296064 -0.128502 -0.840504 -0.526345 17 22 31
9.66264 2.27362 12.269 0.565171 -0.823716 -0.0455284 134 136 133
-4.92479 1.24084 5.22274 0 0 1 51 61 71
-3.11968 0.109394 -0.657509 0.461202 0.809731 0.362806 99 101 98
-3.29901 -0.238992 -0.351011 -0.717343 -0.576387 0.391405 57 65 76
9.60491 2.3203 12.9604 0 0 1 134 136 133
-11.5007 0.507588 11.01 0 0 1 55 63 74
-8.69776 -11.8412 18.0922 0 0 1 0 2 3
-0.337513 -0.0441584 14.2929 0 0 1 16 25 32
4.56322 -4.1462 15.6592 0 0 1 62 72 82
-3.42661 0.231544 0.0230435 0.0143607 -0.9847 0.173663 18 22 31
-3.7023 -0.0222498 -0.266796 -0.784066 -0.162142 -0.599125 55 63 74
4.52116 -1.49296 15.586 0 0 1 8 12 15
4.79523 -3.64098 13.9605 0 0 1 60 73 82
-12.566 -9.99621 15.0926 -0.789272 -0.502707 0.352612 1 9 4
-3.53775 -0.213421 -0.43509 -0.839993 0.0514691 -0.540151 54 64 74
-3.16104 0.0850494 -0.139143 0.642061 -0.750314 0.157438 18 22 31
-3.06044 -0.0655241 -0.646467 0.925811 -0.341653 0.1617 4 13 20
-14.291 -8.86624 10.2143 0.291355 0.188992 0.93776 0 0 1
-3.37087 -0.0988587 -0.299706 -0.780187 -0.222044 0.584812 18 22 31
-9.48848 -11.7755 17.8249 0 0 1 3 1 14
-3.15988 0.0411849 -0.310276 -0.357043 0.762356 0.539754 0 0 0
-3.61069 0.0629581 -0.289443 -0.827122 -0.00354069 -0.562011 13 22 30
0.442639 -4.43877 10.8436 0 0 1 39 50 56
-3.32474 0.0535784 -0.263955 -0.940924 0.00246233 -0.33861 18 22 31
-3.40498 0.0908881 -0.171716 -0.950458 -0.304377 0.0631179 53 61 72
7.19775 2.31156 20.055 0 0 1 47 57 66
-10.4916 -10.9099 17.4001 0 0 1 164 172 72
-3.15635 -0.00225198 -0.847521 0.229607 0.685259 -0.691159 200 202 199
-3.24386 -0.0330735 -0.944761 0.316846 0.690624 -0.650113 71 72 70
2.55615 -0.980124 13.5784 0 0 1 48 58 67
-3.41438 -0.260286 -0.0951669 0 0 1 0 0 0
-0.542688 -2.86689 11.8713 0 0 1 60 72 84
0.79381 0.304075 11.2477 0 0 1 45 55 64
-3.14403 0.100567 0.00815826 -0.627765 -0.767325 -0.130857 9 12 16
-10.4076 -11.1256 17.1271 0 0 1 1 1 4
-3.44375 -0.0939471 -0.54486 -0.901807 -0.127914 -0.412774 18 22 30
-3.5442 -0.0278352 -0.452902 -0.834444 -0.119953 -0.53788 55 63 74
-3.40189 0.12768 -0.540073 -0.16741 0.972453 -0.162198 152 154 151
-3.21923 -0.0718304 -0.917051 0.322862 0.717879 -0.616774 0 0 0
-3.205 -0.0278228 -0.930771 0.317269 0.543798 -0.776932 200 202 199
-14.2382 -8.7062 10.1713 0.291355 0.188992 0.93776 0 2 1
10.8652 1.38124 17.5977 0 0 1 115 117 114
-8.12226 -12.2146 18.3402 0 0 1 0 1 2
-3.3645 0.0243101 -0.847836 -0.167648 0.826525 -0.537355 102 104 101
4.56429 -3.97943 15.3643 0 0 1 60 72 84
-3.5034 0.0429103 -0.449825 -0.830034 0.0664385 -0.553742 18 22 29
1.61204 -3.5803 8.58692 0 0 1 40 49 58
-3.29524 -0.328646 -0.396116 -0.666364 -0.708876 -0.231201 59 67 76
7.14234 2.52801 15.8041 0 0 1 87 89 86
-3.12033 0.0169808 -0.716951 0.946027 -0.280854 -0.16172 0 0 0
-2.53191 -0.749966 0.659533 0 0 1 16 25 34
-3.51141 0.14196 -0.475333 -0.580976 0.776377 -0.244349 11 17 25
9.65642 2.39697 13.0302 0 0 1 132 134 131
-3.38815 0.0921099 -0.705607 -0.101847 0.900146 -0.423514 152 154 151
-6.85757 -12.1723 19.0345 -0.0404628 -0.973213 -0.226317 135 141 60
-3.46806 -0.196652 -0.530985 -0.551615 0.733129 -0.397798 55 63 74
-3.14686 -0.378582 -0.237479 -0.334973 -0.79452 -0.506488 57 65 76
-2.6459 -0.642799 0.484891 0 0 1 0 0 0
-4.01502 -0.56248 0.1511 0 0 1 0 0 0
-11.5828 -10.9585 15.859 -0.344816 -0.924364 -0.163259 12 2 5
-3.47108 -0.310228 -0.528915 -0.826109 0.529033 -0.194083 52 62 72
7.48843 -0.279243 23.5717 0 0 1 33 42 49
-3.48308 -0.200085 -0.435344 -0.721474 -0.404215 0.562215 18 22 31
-3.5703 0.0164009 -0.659769 0.102663 0.965025 -0.241219 54 62 73
-3.40181 -0.136831 -0.492531 -0.578719 0.355839 -0.733801 18 22 31
-3.50628 -0.206719 -0.660605 -0.916169 0.360647 0.174836 55 63 74
-3.50426 -0.141628 -0.788766 -0.618855 0.162429 0.768528 55 63 74
9.29127 2.31944 11.9487 0 0 1 136 138 135
-0.350947 -1.58782 8.36001 0 0 1 16 22 30
-3.09987 -0.449295 -0.0587497 -0.90709 0.148808 0.393757 0 0 0
0.923806 -4.09759 10.6235 0 0 1 43 52 61
-3.12763 0.0884013 -0.760085 -0.467513 0.602126 -0.647207 168 170 167
-3.50999 -0.00437952 -0.76979 -0.0794371 0.273489 -0.958589 55 64 74
-3.45096 0.0799844 -0.593003 -0.466314 0.875656 -0.12561 152 157 154
6.687 2.68787 18.5891 0 0 1 159 161 156
-3.74728 0.0865937 -0.554989 -0.810999 0.0271232 -0.584419 0 0 0
-3.55278 0.0777623 -0.736561 0.00425556 0.929494 -0.368812 13 17 16
-3.51395 0.00079079 -0.764089 0.0139437 0.487803 -0.872843 55 63 74
4.64206 0.588753 16.8591 0 0 1 16 25 32
-3.66815 0.0880355 -0.641944 -0.368538 0.562216 -0.740333 0 0 0
-3.83179 0.0177031 -0.423552 -0.847969 0.0603914 -0.526594 30 37 43
-11.7574 -11.8516 18.6614 0 0 1 6 1 0
-3.5056 -0.00985012 -0.773346 0.0216193 0.268985 -0.962902 55 63 73
1.83107 1.17761 3.42067 0 0 1 67 69 66
4.89742 -0.42968 10.8003 0 0 1 33 42 49
1.83968 -1.36898 12.1542 0 0 1 50 58 69
5.01902 -0.297359 2.09906 0 0 1 143 147 141
0.821602 -0.75285 8.87323 0 0 1 32 36 45
-11.4177 -11.1049 15.851 -0.592641 -0.771149 -0.232606 1 2 0
1.32413 1.57354 11.8612 0 0 1 16 25 30
-1.5298 -1.54431 9.05428 0 0 1 51 59 70
-6.72459 -12.1843 19.1259 -0.360628 -0.546559 0.755791 2 7 0
8.46484 2.43411 9.51217 0 0 1 87 89 86
0.81683 -1.25327 4.31812 0 0 1 128 130 127
7.62957 2.4454 20.7869 0 0 1 177 182 178
6.5836 2.62986 18.3711 0 0 1 155 157 152
4.50052 -1.33719 15.2783 0 0 1 16 25 32
-13.8978 -9.81264 13.3422 0 0 1 0 2 1
4.30745 0.368299 16.501 0 0 1 16 25 32
-12.5761 -9.84485 14.7416 -0.094493 0.791926 0.603261 2 2 10
4.43751 -3.77067 15.0272 0 0 1 35 44 50
4.97084 -2.04188 15.3551 0 0 1 60 72 84
0.750109 -0.0189621 11.8009 0 0 1 45 55 64
4.65001 -4.19921 15.0995 0 0 1 30 39 46
7.83171 2.60895 21.8176 0 0 1 175 177 176
-0.589374 -2.73052 12.4543 0 0 1 60 72 84
4.98504 -3.54526 14.6019 0 0 1 60 72 84
9.6665 2.2237 12.1872 0.627098 -0.651363 0.42717 82 84 81
9.29832 2.36396 13.8913 0 0 1 210 212 209
-12.7962 -9.87651 14.7095 -0.232467 0.723177 0.650365 122 118 47
9.44116 1.58686 13.6337 0 0 1 88 90 87
1.13965 -0.127252 12.3765 0 0 1 16 25 32
-12.6748 -9.79246 14.6541 -0.147899 0.732347 0.664676 114 121 40
3.22799 3.86772 15.3899 0 0 1 170 172 169
-3.77325 0.576452 12.302 0 0 1 119 121 118
-13.0525 -9.93756 13.8726 0 0 1 0 0 2
6.99578 2.83905 18.8787 0 0 1 152 154 151
5.34156 -1.98131 13.2198 0 0 1 59 73 84
-12.2971 -10.2908 15.2745 -0.768419 -0.386437 0.510096 1 0 2
